solid pedro_robot
facet normal 1.0 7.559003193215455e-16 3.6088495049345375e-16
  outer loop
    vertex -5.044924319288532 -163.16763931981677 139.81357200626465
    vertex -5.044924319288532 -160.52525858277497 142.20596008761038
    vertex -5.044924319288532 -163.16771038806837 142.20588158839286
  endloop
endfacet
facet normal 1.0 7.559003193215455e-16 3.6088495049345375e-16
  outer loop
    vertex -5.044924319288532 -160.52525858277497 142.20596008761038
    vertex -5.044924319288532 -163.16763931981677 139.81357200626465
    vertex -5.044924319288532 -162.77073202363533 139.81358428142667
  endloop
endfacet
facet normal 1.0 7.559003193215455e-16 3.6088495049345375e-16
  outer loop
    vertex -5.044924319288532 -160.52525858277497 142.20596008761038
    vertex -5.044924319288532 -162.77073202363533 139.81358428142667
    vertex -5.044924319288532 -160.5251875145233 139.81365050548206
  endloop
endfacet
facet normal -1.0 0.0 0.0
  outer loop
    vertex -18.09343192695544 -160.52525858277497 142.20596008761038
    vertex -18.09343192695544 -163.16763931981677 139.81357200626465
    vertex -18.09343192695544 -163.16771038806837 142.20588158839286
  endloop
endfacet
facet normal -1.0 0.0 0.0
  outer loop
    vertex -18.09343192695544 -163.16763931981677 139.81357200626465
    vertex -18.09343192695544 -160.52525858277497 142.20596008761038
    vertex -18.09343192695544 -162.77140284277755 139.81358377724698
  endloop
endfacet
facet normal -1.0 0.0 0.0
  outer loop
    vertex -18.09343192695544 -162.77140284277755 139.81358377724698
    vertex -18.09343192695544 -160.52525858277497 142.20596008761038
    vertex -18.09343192695544 -160.5251875145233 139.81365050548206
  endloop
endfacet
facet normal -0.4999937720549423 2.1693854972082813e-05 -0.8660289991886223
  outer loop
    vertex -9.508376036467716 -160.524900384974 127.32351604318364
    vertex -11.569178438234374 -162.7710671440092 128.5132441571085
    vertex -11.569178438234374 -160.52485181575472 128.51331088534366
  endloop
endfacet
facet normal -0.4999937720549423 2.1693854972082813e-05 -0.8660289991886223
  outer loop
    vertex -11.569178438234374 -162.7710671440092 128.5132441571085
    vertex -9.508376036467716 -160.524900384974 127.32351604318364
    vertex -11.569178438234374 -163.16730362104795 128.5132323861262
  endloop
endfacet
facet normal -0.4999937720549423 2.1693854972082813e-05 -0.8660289991886223
  outer loop
    vertex -11.569178438234374 -163.16730362104795 128.5132323861262
    vertex -9.508376036467716 -160.524900384974 127.32351604318364
    vertex -9.508393032046834 -163.16735219085024 127.32348660597701
  endloop
endfacet
facet normal 0.5000000437912895 -2.5692179429013775e-05 0.8660253781204224
  outer loop
    vertex -2.9829507886446374 -163.16760395453423 138.62313028443305
    vertex -5.044924319288532 -162.77073202363533 139.81358428142667
    vertex -5.044924319288532 -163.16763931981677 139.81357200626465
  endloop
endfacet
facet normal 0.5000000437912895 -2.5692179429013775e-05 0.8660253781204224
  outer loop
    vertex -5.044924319288532 -162.77073202363533 139.81358428142667
    vertex -2.982933793065516 -160.5251521486579 138.62315972163955
    vertex -5.044924319288532 -160.5251875145233 139.81365050548206
  endloop
endfacet
facet normal 0.5000000437912895 -2.5692179429013775e-05 0.8660253781204224
  outer loop
    vertex -2.982933793065516 -160.5251521486579 138.62315972163955
    vertex -5.044924319288532 -162.77073202363533 139.81358428142667
    vertex -2.9829507886446374 -163.16760395453423 138.62313028443305
  endloop
endfacet
facet normal -0.5000046009973894 -2.2653690427836452e-05 0.8660227470847701
  outer loop
    vertex -20.152257266503977 -163.16773986741794 138.6248987680462
    vertex -18.09343192695544 -160.5251875145233 139.81365050548206
    vertex -20.152274265557327 -160.52506827052713 138.62492821127316
  endloop
endfacet
facet normal -0.5000046009973894 -2.2653690427836452e-05 0.8660227470847701
  outer loop
    vertex -18.09343192695544 -160.5251875145233 139.81365050548206
    vertex -20.152257266503977 -163.16773986741794 138.6248987680462
    vertex -18.09343192695544 -163.16763931981677 139.81357200626465
  endloop
endfacet
facet normal -0.5000046009973894 -2.2653690427836452e-05 0.8660227470847701
  outer loop
    vertex -18.09343192695544 -160.5251875145233 139.81365050548206
    vertex -18.09343192695544 -163.16763931981677 139.81357200626465
    vertex -18.09343192695544 -162.77140284277755 139.81358377724698
  endloop
endfacet
facet normal 0.49999996345679637 2.5726985067290322e-05 -0.8660254245005307
  outer loop
    vertex -11.569178438234374 -160.52485181575472 128.51331088534366
    vertex -13.629186242773397 -163.16748808020645 127.32388642601714
    vertex -13.629203241826746 -160.5248164833157 127.32391586924409
  endloop
endfacet
facet normal 0.49999996345679637 2.5726985067290322e-05 -0.8660254245005307
  outer loop
    vertex -13.629186242773397 -163.16748808020645 127.32388642601714
    vertex -11.569178438234374 -160.52485181575472 128.51331088534366
    vertex -11.569178438234374 -163.16730362104795 128.5132323861262
  endloop
endfacet
facet normal 0.49999996345679637 2.5726985067290322e-05 -0.8660254245005307
  outer loop
    vertex -11.569178438234374 -163.16730362104795 128.5132323861262
    vertex -11.569178438234374 -160.52485181575472 128.51331088534366
    vertex -11.569178438234374 -162.7710671440092 128.5132441571085
  endloop
endfacet
facet normal -1.8783728766453783e-16 -0.9999999995587482 -2.9706962775432183e-05
  outer loop
    vertex -2.9829507886446374 -163.16760395453423 138.62313028443305
    vertex -11.569178438234374 -163.16730362104795 128.5132323861262
    vertex -9.508393032046834 -163.16735219085024 127.32348660597701
  endloop
endfacet
facet normal -1.8783728766453783e-16 -0.9999999995587482 -2.9706962775432183e-05
  outer loop
    vertex -11.569178438234374 -163.16730362104795 128.5132323861262
    vertex -20.152257266503977 -163.16773986741794 138.6248987680462
    vertex -13.629186242773397 -163.16748808020645 127.32388642601714
  endloop
endfacet
facet normal -1.8783728766453783e-16 -0.9999999995587482 -2.9706962775432183e-05
  outer loop
    vertex -20.152257266503977 -163.16773986741794 138.6248987680462
    vertex -11.569178438234374 -163.16730362104795 128.5132323861262
    vertex -2.9829507886446374 -163.16760395453423 138.62313028443305
  endloop
endfacet
facet normal -1.8783728766453783e-16 -0.9999999995587482 -2.9706962775432183e-05
  outer loop
    vertex -20.152257266503977 -163.16773986741794 138.6248987680462
    vertex -2.9829507886446374 -163.16760395453423 138.62313028443305
    vertex -5.044924319288532 -163.16763931981677 139.81357200626465
  endloop
endfacet
facet normal -1.8783728766453783e-16 -0.9999999995587482 -2.9706962775432183e-05
  outer loop
    vertex -20.152257266503977 -163.16773986741794 138.6248987680462
    vertex -5.044924319288532 -163.16763931981677 139.81357200626465
    vertex -18.09343192695544 -163.16763931981677 139.81357200626465
  endloop
endfacet
facet normal -1.8783728766453783e-16 -0.9999999995587482 -2.9706962775432183e-05
  outer loop
    vertex -18.09343192695544 -163.16763931981677 139.81357200626465
    vertex -5.044924319288532 -163.16763931981677 139.81357200626465
    vertex -5.044924319288532 -163.16771038806837 142.20588158839286
  endloop
endfacet
facet normal -1.8783728766453783e-16 -0.9999999995587482 -2.9706962775432183e-05
  outer loop
    vertex -18.09343192695544 -163.16763931981677 139.81357200626465
    vertex -5.044924319288532 -163.16771038806837 142.20588158839286
    vertex -18.09343192695544 -163.16771038806837 142.20588158839286
  endloop
endfacet
facet normal 2.738859320007418e-06 0.9999999996370736 2.6802077801934727e-05
  outer loop
    vertex -20.152274265557327 -160.52506827052713 138.62492821127316
    vertex -11.569178438234374 -160.52485181575472 128.51331088534366
    vertex -13.629203241826746 -160.5248164833157 127.32391586924409
  endloop
endfacet
facet normal 2.738859320007418e-06 0.9999999996370736 2.6802077801934727e-05
  outer loop
    vertex -11.569178438234374 -160.52485181575472 128.51331088534366
    vertex -20.152274265557327 -160.52506827052713 138.62492821127316
    vertex -2.982933793065516 -160.5251521486579 138.62315972163955
  endloop
endfacet
facet normal 2.738859320007418e-06 0.9999999996370736 2.6802077801934727e-05
  outer loop
    vertex -2.982933793065516 -160.5251521486579 138.62315972163955
    vertex -20.152274265557327 -160.52506827052713 138.62492821127316
    vertex -5.044924319288532 -160.5251875145233 139.81365050548206
  endloop
endfacet
facet normal 2.738859320007418e-06 0.9999999996370736 2.6802077801934727e-05
  outer loop
    vertex -5.044924319288532 -160.5251875145233 139.81365050548206
    vertex -20.152274265557327 -160.52506827052713 138.62492821127316
    vertex -18.09343192695544 -160.5251875145233 139.81365050548206
  endloop
endfacet
facet normal 2.738859320007418e-06 0.9999999996370736 2.6802077801934727e-05
  outer loop
    vertex -5.044924319288532 -160.5251875145233 139.81365050548206
    vertex -18.09343192695544 -160.5251875145233 139.81365050548206
    vertex -18.09343192695544 -160.52525858277497 142.20596008761038
  endloop
endfacet
facet normal 2.738859320007418e-06 0.9999999996370736 2.6802077801934727e-05
  outer loop
    vertex -5.044924319288532 -160.5251875145233 139.81365050548206
    vertex -18.09343192695544 -160.52525858277497 142.20596008761038
    vertex -5.044924319288532 -160.52525858277497 142.20596008761038
  endloop
endfacet
facet normal 2.738859320007418e-06 0.9999999996370736 2.6802077801934727e-05
  outer loop
    vertex -2.982933793065516 -160.5251521486579 138.62315972163955
    vertex -9.508376036467716 -160.524900384974 127.32351604318364
    vertex -11.569178438234374 -160.52485181575472 128.51331088534366
  endloop
endfacet
facet normal 0.0 -2.9706962775439132e-05 0.9999999995587482
  outer loop
    vertex -5.044924319288532 -163.16771038806837 142.20588158839286
    vertex -18.09343192695544 -160.52525858277497 142.20596008761038
    vertex -18.09343192695544 -163.16771038806837 142.20588158839286
  endloop
endfacet
facet normal 0.0 -2.9706962775439132e-05 0.9999999995587482
  outer loop
    vertex -18.09343192695544 -160.52525858277497 142.20596008761038
    vertex -5.044924319288532 -163.16771038806837 142.20588158839286
    vertex -5.044924319288532 -160.52525858277497 142.20596008761038
  endloop
endfacet
facet normal 0.8659726375526693 1.3573990056984377e-09 -0.5000913826592827
  outer loop
    vertex -9.508393032046834 -163.16735219085024 127.32348660597701
    vertex -2.982933793065516 -160.5251521486579 138.62315972163955
    vertex -2.9829507886446374 -163.16760395453423 138.62313028443305
  endloop
endfacet
facet normal 0.8659726375526693 1.3573990056984377e-09 -0.5000913826592827
  outer loop
    vertex -2.982933793065516 -160.5251521486579 138.62315972163955
    vertex -9.508393032046834 -163.16735219085024 127.32348660597701
    vertex -9.508376036467716 -160.524900384974 127.32351604318364
  endloop
endfacet
facet normal -0.8660775488934722 -1.3412763656305025e-09 -0.499909671143373
  outer loop
    vertex -20.152274265557327 -160.52506827052713 138.62492821127316
    vertex -13.629186242773397 -163.16748808020645 127.32388642601714
    vertex -20.152257266503977 -163.16773986741794 138.6248987680462
  endloop
endfacet
facet normal -0.8660775488934722 -1.3412763656305025e-09 -0.499909671143373
  outer loop
    vertex -13.629186242773397 -163.16748808020645 127.32388642601714
    vertex -20.152274265557327 -160.52506827052713 138.62492821127316
    vertex -13.629203241826746 -160.5248164833157 127.32391586924409
  endloop
endfacet
facet normal -0.000123768139792793 0.9999999923407218 6.161576245837499e-08
  outer loop
    vertex -18.776622800538767 -151.2059621865764 137.51275120839227
    vertex -17.534733168411382 -151.2058084781644 137.47962317809333
    vertex -18.157858678423523 -151.20588559723382 137.41443825671794
  endloop
endfacet
facet normal -0.000123768139792793 0.9999999923407218 6.161576245837499e-08
  outer loop
    vertex -17.534733168411382 -151.2058084781644 137.47962317809333
    vertex -18.776622800538767 -151.2059621865764 137.51275120839227
    vertex -16.94971124424612 -151.20573608490508 137.70386372784975
  endloop
endfacet
facet normal -0.000123768139792793 0.9999999923407218 6.161576245837499e-08
  outer loop
    vertex -16.94971124424612 -151.20573608490508 137.70386372784975
    vertex -18.776622800538767 -151.2059621865764 137.51275120839227
    vertex -19.34885778239106 -151.20603302675482 137.7678621679298
  endloop
endfacet
facet normal -0.000123768139792793 0.9999999923407218 6.161576245837499e-08
  outer loop
    vertex -16.94971124424612 -151.20573608490508 137.70386372784975
    vertex -19.34885778239106 -151.20603302675482 137.7678621679298
    vertex -16.442661183265148 -151.2056733509375 138.07187828309665
  endloop
endfacet
facet normal -0.000123768139792793 0.9999999923407218 6.161576245837499e-08
  outer loop
    vertex -16.442661183265148 -151.2056733509375 138.07187828309665
    vertex -19.34885778239106 -151.20603302675482 137.7678621679298
    vertex -19.835566755630193 -151.20609329012825 138.16238574502853
  endloop
endfacet
facet normal -0.000123768139792793 0.9999999923407218 6.161576245837499e-08
  outer loop
    vertex -16.442661183265148 -151.2056733509375 138.07187828309665
    vertex -19.835566755630193 -151.20609329012825 138.16238574502853
    vertex -16.048137609184447 -151.2056245514771 138.55858726006684
  endloop
endfacet
facet normal -0.000123768139792793 0.9999999923407218 6.161576245837499e-08
  outer loop
    vertex -16.048137609184447 -151.2056245514771 138.55858726006684
    vertex -19.835566755630193 -151.20609329012825 138.16238574502853
    vertex -20.203581308054474 -151.2061388698478 138.66943580989033
  endloop
endfacet
facet normal -0.000123768139792793 0.9999999923407218 6.161576245837499e-08
  outer loop
    vertex -16.048137609184447 -151.2056245514771 138.55858726006684
    vertex -20.203581308054474 -151.2061388698478 138.66943580989033
    vertex -15.793026651596614 -151.205593012127 139.13082224630392
  endloop
endfacet
facet normal -0.000123768139792793 0.9999999923407218 6.161576245837499e-08
  outer loop
    vertex -15.793026651596614 -151.205593012127 139.13082224630392
    vertex -20.203581308054474 -151.2061388698478 138.66943580989033
    vertex -20.42782185608905 -151.20616665972994 139.25445773853482
  endloop
endfacet
facet normal -0.000123768139792793 0.9999999923407218 6.161576245837499e-08
  outer loop
    vertex -15.793026651596614 -151.205593012127 139.13082224630392
    vertex -20.42782185608905 -151.20616665972994 139.25445773853482
    vertex -15.694713700670468 -151.20558088224118 139.74958637315927
  endloop
endfacet
facet normal -0.000123768139792793 0.9999999923407218 6.161576245837499e-08
  outer loop
    vertex -15.694713700670468 -151.20558088224118 139.74958637315927
    vertex -20.42782185608905 -151.20616665972994 139.25445773853482
    vertex -20.49300677696038 -151.20617476594055 139.87758325331927
  endloop
endfacet
facet normal -0.000123768139792793 0.9999999923407218 6.161576245837499e-08
  outer loop
    vertex -15.694713700670468 -151.20558088224118 139.74958637315927
    vertex -20.49300677696038 -151.20617476594055 139.87758325331927
    vertex -15.759898621541776 -151.20558898845195 140.37271188794344
  endloop
endfacet
facet normal -0.000123768139792793 0.9999999923407218 6.161576245837499e-08
  outer loop
    vertex -15.759898621541776 -151.20558898845195 140.37271188794344
    vertex -20.49300677696038 -151.20617476594055 139.87758325331927
    vertex -20.39469382603423 -151.20616263605527 140.49634738017446
  endloop
endfacet
facet normal -0.000123768139792793 0.9999999923407218 6.161576245837499e-08
  outer loop
    vertex -15.759898621541776 -151.20558898845195 140.37271188794344
    vertex -20.39469382603423 -151.20616263605527 140.49634738017446
    vertex -15.984139169576355 -151.20561677833453 140.9577338165878
  endloop
endfacet
facet normal -0.000123768139792793 0.9999999923407218 6.161576245837499e-08
  outer loop
    vertex -15.984139169576355 -151.20561677833453 140.9577338165878
    vertex -20.39469382603423 -151.20616263605527 140.49634738017446
    vertex -20.13958286844638 -151.2061310967048 141.06858236641165
  endloop
endfacet
facet normal -0.000123768139792793 0.9999999923407218 6.161576245837499e-08
  outer loop
    vertex -15.984139169576355 -151.20561677833453 140.9577338165878
    vertex -20.13958286844638 -151.2061310967048 141.06858236641165
    vertex -16.352153722000654 -151.20566235805364 141.4647838814496
  endloop
endfacet
facet normal -0.000123768139792793 0.9999999923407218 6.161576245837499e-08
  outer loop
    vertex -16.352153722000654 -151.20566235805364 141.4647838814496
    vertex -20.13958286844638 -151.2061310967048 141.06858236641165
    vertex -19.7450592943657 -151.20608229724476 141.55529134338147
  endloop
endfacet
facet normal -0.000123768139792793 0.9999999923407218 6.161576245837499e-08
  outer loop
    vertex -16.352153722000654 -151.20566235805364 141.4647838814496
    vertex -19.7450592943657 -151.20608229724476 141.55529134338147
    vertex -16.83886269523978 -151.20572262142733 141.85930745854833
  endloop
endfacet
facet normal -0.000123768139792793 0.9999999923407218 6.161576245837499e-08
  outer loop
    vertex -16.83886269523978 -151.20572262142733 141.85930745854833
    vertex -19.7450592943657 -151.20608229724476 141.55529134338147
    vertex -19.238009233384716 -151.20601956327704 141.92330589862834
  endloop
endfacet
facet normal -0.000123768139792793 0.9999999923407218 6.161576245837499e-08
  outer loop
    vertex -16.83886269523978 -151.20572262142733 141.85930745854833
    vertex -19.238009233384716 -151.20601956327704 141.92330589862834
    vertex -17.411097677092055 -151.20579346160594 142.1144184180859
  endloop
endfacet
facet normal -0.000123768139792793 0.9999999923407218 6.161576245837499e-08
  outer loop
    vertex -17.411097677092055 -151.20579346160594 142.1144184180859
    vertex -19.238009233384716 -151.20601956327704 141.92330589862834
    vertex -18.652987309219444 -151.20594717001774 142.14754644838493
  endloop
endfacet
facet normal -0.000123768139792793 0.9999999923407218 6.161576245837499e-08
  outer loop
    vertex -17.411097677092055 -151.20579346160594 142.1144184180859
    vertex -18.652987309219444 -151.20594717001774 142.14754644838493
    vertex -18.029861799207318 -151.20587005094853 142.2127313697602
  endloop
endfacet
facet normal -0.00012376813979973492 0.9999999923407218 6.16157550455677e-08
  outer loop
    vertex -5.9044003370654625 -151.20436036137977 137.5725951278992
    vertex -4.6688146815043785 -151.2042074272741 137.4433070279594
    vertex -5.29511805985307 -151.20428494265028 137.4266171085373
  endloop
endfacet
facet normal -0.00012376813979973492 0.9999999923407218 6.16157550455677e-08
  outer loop
    vertex -4.6688146815043785 -151.2042074272741 137.4433070279594
    vertex -5.9044003370654625 -151.20436036137977 137.5725951278992
    vertex -4.068171742238557 -151.20413309779536 137.62152749573792
  endloop
endfacet
facet normal -0.00012376813979973492 0.9999999923407218 6.16157550455677e-08
  outer loop
    vertex -4.068171742238557 -151.20413309779536 137.62152749573792
    vertex -5.9044003370654625 -151.20436036137977 137.5725951278992
    vertex -6.455139932836087 -151.2044285438 137.87129292526544
  endloop
endfacet
facet normal -0.00012376813979973492 0.9999999923407218 6.16157550455677e-08
  outer loop
    vertex -4.068171742238557 -151.20413309779536 137.62152749573792
    vertex -6.455139932836087 -151.2044285438 137.87129292526544
    vertex -3.534122065757246 -151.20406701964552 137.9491330815171
  endloop
endfacet
facet normal -0.00012376813979973492 0.9999999923407218 6.16157550455677e-08
  outer loop
    vertex -3.534122065757246 -151.20406701964552 137.9491330815171
    vertex -6.455139932836087 -151.2044285438 137.87129292526544
    vertex -6.90980485385343 -151.20448484339218 138.3023547393673
  endloop
endfacet
facet normal -0.00012376813979973492 0.9999999923407218 6.16157550455677e-08
  outer loop
    vertex -3.534122065757246 -151.20406701964552 137.9491330815171
    vertex -6.90980485385343 -151.20448484339218 138.3023547393673
    vertex -3.1030602549537574 -151.20401369594103 138.4037980060201
  endloop
endfacet
facet normal -0.00012376813979973492 0.9999999923407218 6.16157550455677e-08
  outer loop
    vertex -3.1030602549537574 -151.20401369594103 138.4037980060201
    vertex -6.90980485385343 -151.20448484339218 138.3023547393673
    vertex -7.237410437119432 -151.20452542343185 138.8364044199366
  endloop
endfacet
facet normal -0.00012376813979973492 0.9999999923407218 6.16157550455677e-08
  outer loop
    vertex -3.1030602549537574 -151.20401369594103 138.4037980060201
    vertex -7.237410437119432 -151.20452542343185 138.8364044199366
    vertex -2.80436245987104 -151.20397676060483 138.95453760601126
  endloop
endfacet
facet normal -0.00012376813979973492 0.9999999923407218 6.16157550455677e-08
  outer loop
    vertex -2.80436245987104 -151.20397676060483 138.95453760601126
    vertex -7.237410437119432 -151.20452542343185 138.8364044199366
    vertex -7.41563090352835 -151.20454751845688 139.43704736380153
  endloop
endfacet
facet normal -0.00012376813979973492 0.9999999923407218 6.16157550455677e-08
  outer loop
    vertex -2.80436245987104 -151.20397676060483 138.95453760601126
    vertex -7.41563090352835 -151.20454751845688 139.43704736380153
    vertex -2.658384441622574 -151.20395873071797 139.56381988789158
  endloop
endfacet
facet normal -0.00012376813979973492 0.9999999923407218 6.16157550455677e-08
  outer loop
    vertex -2.658384441622574 -151.20395873071797 139.56381988789158
    vertex -7.41563090352835 -151.20454751845688 139.43704736380153
    vertex -7.4323208228176485 -151.2045496227273 140.06335074694695
  endloop
endfacet
facet normal -0.00012376813979973492 0.9999999923407218 6.16157550455677e-08
  outer loop
    vertex -2.658384441622574 -151.20395873071797 139.56381988789158
    vertex -7.4323208228176485 -151.2045496227273 140.06335074694695
    vertex -2.6750743609118777 -151.20396083498864 140.19012327103707
  endloop
endfacet
facet normal -0.00012376813979973492 0.9999999923407218 6.16157550455677e-08
  outer loop
    vertex -2.6750743609118777 -151.20396083498864 140.19012327103707
    vertex -7.4323208228176485 -151.2045496227273 140.06335074694695
    vertex -7.286342804569177 -151.20453159284048 140.67263302882725
  endloop
endfacet
facet normal -0.00012376813979973492 0.9999999923407218 6.16157550455677e-08
  outer loop
    vertex -2.6750743609118777 -151.20396083498864 140.19012327103707
    vertex -7.286342804569177 -151.20453159284048 140.67263302882725
    vertex -2.8532948273207905 -151.20398293001344 140.7907662149019
  endloop
endfacet
facet normal -0.00012376813979973492 0.9999999923407218 6.16157550455677e-08
  outer loop
    vertex -2.8532948273207905 -151.20398293001344 140.7907662149019
    vertex -7.286342804569177 -151.20453159284048 140.67263302882725
    vertex -6.987645009486471 -151.20449465750426 141.22337262881834
  endloop
endfacet
facet normal -0.00012376813979973492 0.9999999923407218 6.16157550455677e-08
  outer loop
    vertex -2.8532948273207905 -151.20398293001344 140.7907662149019
    vertex -6.987645009486471 -151.20449465750426 141.22337262881834
    vertex -3.18090041058679 -151.20402351005345 141.3248158954712
  endloop
endfacet
facet normal -0.00012376813979973492 0.9999999923407218 6.16157550455677e-08
  outer loop
    vertex -3.18090041058679 -151.20402351005345 141.3248158954712
    vertex -6.987645009486471 -151.20449465750426 141.22337262881834
    vertex -6.556583198682991 -151.20444133379976 141.6780375533213
  endloop
endfacet
facet normal -0.00012376813979973492 0.9999999923407218 6.16157550455677e-08
  outer loop
    vertex -3.18090041058679 -151.20402351005345 141.3248158954712
    vertex -6.556583198682991 -151.20444133379976 141.6780375533213
    vertex -3.6355653316041363 -151.2040798096453 141.755877709573
  endloop
endfacet
facet normal -0.00012376813979973492 0.9999999923407218 6.16157550455677e-08
  outer loop
    vertex -3.6355653316041363 -151.2040798096453 141.755877709573
    vertex -6.556583198682991 -151.20444133379976 141.6780375533213
    vertex -6.022533522201665 -151.20437525564992 142.00564313910067
  endloop
endfacet
facet normal -0.00012376813979973492 0.9999999923407218 6.16157550455677e-08
  outer loop
    vertex -3.6355653316041363 -151.2040798096453 141.755877709573
    vertex -6.022533522201665 -151.20437525564992 142.00564313910067
    vertex -4.18630492737476 -151.2041479920655 142.0545755069393
  endloop
endfacet
facet normal -0.00012376813979973492 0.9999999923407218 6.16157550455677e-08
  outer loop
    vertex -4.18630492737476 -151.2041479920655 142.0545755069393
    vertex -6.022533522201665 -151.20437525564992 142.00564313910067
    vertex -5.421890582935862 -151.2043009261714 142.18386360687907
  endloop
endfacet
facet normal -0.00012376813979973492 0.9999999923407218 6.16157550455677e-08
  outer loop
    vertex -4.18630492737476 -151.2041479920655 142.0545755069393
    vertex -5.421890582935862 -151.2043009261714 142.18386360687907
    vertex -4.795587204587164 -151.204223410795 142.20055352630115
  endloop
endfacet
facet normal -0.0001237681397987615 0.9999999923407218 6.161574824778399e-08
  outer loop
    vertex -12.464270227118803 -151.20538377340793 126.28623437013061
    vertex -11.230902642713785 -151.20523111261613 126.13726549137758
    vertex -11.857392497317111 -151.20530865168763 126.13056196866697
  endloop
endfacet
facet normal -0.0001237681397987615 0.9999999923407218 6.161574824778399e-08
  outer loop
    vertex -11.230902642713785 -151.20523111261613 126.13726549137758
    vertex -12.464270227118803 -151.20538377340793 126.28623437013061
    vertex -10.6274949115766 -151.20515644035308 126.30588810426771
  endloop
endfacet
facet normal -0.0001237681397987615 0.9999999923407218 6.161574824778399e-08
  outer loop
    vertex -10.6274949115766 -151.20515644035308 126.30588810426771
    vertex -12.464270227118803 -151.20538377340793 126.28623437013061
    vertex -13.010178117745763 -151.20545135835567 126.59367387886914
  endloop
endfacet
facet normal -0.0001237681397987615 0.9999999923407218 6.161574824778399e-08
  outer loop
    vertex -10.6274949115766 -151.20515644035308 126.30588810426771
    vertex -13.010178117745763 -151.20545135835567 126.59367387886914
    vertex -10.08829054360415 -151.20508972368953 126.62493845493088
  endloop
endfacet
facet normal -0.0001237681397987615 0.9999999923407218 6.161574824778399e-08
  outer loop
    vertex -10.08829054360415 -151.20508972368953 126.62493845493088
    vertex -13.010178117745763 -151.20545135835567 126.59367387886914
    vertex -13.457913448607183 -151.2055068007283 127.03192900043014
  endloop
endfacet
facet normal -0.0001237681397987615 0.9999999923407218 6.161574824778399e-08
  outer loop
    vertex -10.08829054360415 -151.20508972368953 126.62493845493088
    vertex -13.457913448607183 -151.2055068007283 127.03192900043014
    vertex -9.650035425396398 -151.20503550925577 127.072673789225
  endloop
endfacet
facet normal -0.0001237681397987615 0.9999999923407218 6.161574824778399e-08
  outer loop
    vertex -9.650035425396398 -151.20503550925577 127.072673789225
    vertex -13.457913448607183 -151.2055068007283 127.03192900043014
    vertex -13.776963796822487 -151.20554632222033 127.57113337253004
  endloop
endfacet
facet normal -0.0001237681397987615 0.9999999923407218 6.161574824778399e-08
  outer loop
    vertex -9.650035425396398 -151.20503550925577 127.072673789225
    vertex -13.776963796822487 -151.20554632222033 127.57113337253004
    vertex -9.342595919008389 -151.20499749167635 127.61858168403542
  endloop
endfacet
facet normal -0.0001237681397987615 0.9999999923407218 6.161574824778399e-08
  outer loop
    vertex -9.342595919008389 -151.20499749167635 127.61858168403542
    vertex -13.776963796822487 -151.20554632222033 127.57113337253004
    vertex -13.945586408416434 -151.20556722950678 128.17454110828777
  endloop
endfacet
facet normal -0.0001237681397987615 0.9999999923407218 6.161574824778399e-08
  outer loop
    vertex -9.342595919008389 -151.20499749167635 127.61858168403542
    vertex -13.945586408416434 -151.20556722950678 128.17454110828777
    vertex -9.186923518732625 -151.20497826178584 128.22545941848662
  endloop
endfacet
facet normal -0.0001237681397987615 0.9999999923407218 6.161574824778399e-08
  outer loop
    vertex -9.186923518732625 -151.20497826178584 128.22545941848662
    vertex -13.945586408416434 -151.20556722950678 128.17454110828777
    vertex -13.95228993107093 -151.20556809779097 128.80103096768937
  endloop
endfacet
facet normal -0.0001237681397987615 0.9999999923407218 6.161574824778399e-08
  outer loop
    vertex -9.186923518732625 -151.20497826178584 128.22545941848662
    vertex -13.95228993107093 -151.20556809779097 128.80103096768937
    vertex -9.193627041387114 -151.20497913007003 128.85194927788845
  endloop
endfacet
facet normal -0.0001237681397987615 0.9999999923407218 6.161574824778399e-08
  outer loop
    vertex -9.193627041387114 -151.20497913007003 128.85194927788845
    vertex -13.95228993107093 -151.20556809779097 128.80103096768937
    vertex -13.79661753079518 -151.20554886790077 129.40790870214045
  endloop
endfacet
facet normal -0.0001237681397987615 0.9999999923407218 6.161574824778399e-08
  outer loop
    vertex -9.193627041387114 -151.20497913007003 128.85194927788845
    vertex -13.79661753079518 -151.20554886790077 129.40790870214045
    vertex -9.362249652981076 -151.20500003735665 129.45535701364585
  endloop
endfacet
facet normal -0.0001237681397987615 0.9999999923407218 6.161574824778399e-08
  outer loop
    vertex -9.362249652981076 -151.20500003735665 129.45535701364585
    vertex -13.79661753079518 -151.20554886790077 129.40790870214045
    vertex -13.48917802440715 -151.20551085032105 129.95381659695107
  endloop
endfacet
facet normal -0.0001237681397987615 0.9999999923407218 6.161574824778399e-08
  outer loop
    vertex -9.362249652981076 -151.20500003735665 129.45535701364585
    vertex -13.48917802440715 -151.20551085032105 129.95381659695107
    vertex -9.681300001196362 -151.20503955884865 129.99456138574584
  endloop
endfacet
facet normal -0.0001237681397987615 0.9999999923407218 6.161574824778399e-08
  outer loop
    vertex -9.681300001196362 -151.20503955884865 129.99456138574584
    vertex -13.48917802440715 -151.20551085032105 129.95381659695107
    vertex -13.050922906199396 -151.2054566358876 130.40155193124517
  endloop
endfacet
facet normal -0.0001237681397987615 0.9999999923407218 6.161574824778399e-08
  outer loop
    vertex -9.681300001196362 -151.20503955884865 129.99456138574584
    vertex -13.050922906199396 -151.2054566358876 130.40155193124517
    vertex -10.129035332057786 -151.20509500122145 130.432816507307
  endloop
endfacet
facet normal -0.0001237681397987615 0.9999999923407218 6.161574824778399e-08
  outer loop
    vertex -10.129035332057786 -151.20509500122145 130.432816507307
    vertex -13.050922906199396 -151.2054566358876 130.40155193124517
    vertex -12.511718538226953 -151.20538991922405 130.72060228190827
  endloop
endfacet
facet normal -0.0001237681397987615 0.9999999923407218 6.161574824778399e-08
  outer loop
    vertex -10.129035332057786 -151.20509500122145 130.432816507307
    vertex -12.511718538226953 -151.20538991922405 130.72060228190827
    vertex -10.674943222684737 -151.2051625861692 130.74025601604563
  endloop
endfacet
facet normal -0.0001237681397987615 0.9999999923407218 6.161574824778399e-08
  outer loop
    vertex -10.674943222684737 -151.2051625861692 130.74025601604563
    vertex -12.511718538226953 -151.20538991922405 130.72060228190827
    vertex -11.908310807089759 -151.2053152469607 130.88922489479828
  endloop
endfacet
facet normal -0.0001237681397987615 0.9999999923407218 6.161574824778399e-08
  outer loop
    vertex -10.674943222684737 -151.2051625861692 130.74025601604563
    vertex -11.908310807089759 -151.2053152469607 130.88922489479828
    vertex -11.281820952486433 -151.20523770788927 130.8959284175089
  endloop
endfacet
facet normal -0.5228924710019259 -6.476995012645801e-05 0.8523986506173936
  outer loop
    vertex -6.555102506661997 -163.16787563992457 141.6780368161853
    vertex -6.022533522201665 -151.20437525564992 142.00564313910067
    vertex -6.556583198682991 -151.20444133379976 141.6780375533213
  endloop
endfacet
facet normal -0.5228924710019259 -6.476995012645801e-05 0.8523986506173936
  outer loop
    vertex -6.022533522201665 -151.20437525564992 142.00564313910067
    vertex -6.555102506661997 -163.16787563992457 141.6780368161853
    vertex -6.021052830180639 -163.16780956177476 142.0056424019646
  endloop
endfacet
facet normal -0.7256923452236159 -8.985998514798273e-05 0.6880193398510186
  outer loop
    vertex -6.555102506661997 -163.16787563992457 141.6780368161853
    vertex -6.987645009486471 -151.20449465750426 141.22337262881834
    vertex -6.986164317465482 -163.16792896362912 141.2233718916823
  endloop
endfacet
facet normal -0.7256923452236159 -8.985998514798273e-05 0.6880193398510186
  outer loop
    vertex -6.987645009486471 -151.20449465750426 141.22337262881834
    vertex -6.555102506661997 -163.16787563992457 141.6780368161853
    vertex -6.556583198682991 -151.20444133379976 141.6780375533213
  endloop
endfacet
facet normal -0.8790374853816035 -0.00010882621068231729 0.4767526480795285
  outer loop
    vertex -6.986164317465482 -163.16792896362912 141.2233718916823
    vertex -7.286342804569177 -151.20453159284048 140.67263302882725
    vertex -7.2848621125481765 -163.16796589896524 140.67263229169134
  endloop
endfacet
facet normal -0.8790374853816035 -0.00010882621068231729 0.4767526480795285
  outer loop
    vertex -7.286342804569177 -151.20453159284048 140.67263302882725
    vertex -6.986164317465482 -163.16792896362912 141.2233718916823
    vertex -6.987645009486471 -151.20449465750426 141.22337262881834
  endloop
endfacet
facet normal -0.9724776735889684 -0.00012037610980246877 0.23299605121241837
  outer loop
    vertex -7.2848621125481765 -163.16796589896524 140.67263229169134
    vertex -7.4323208228176485 -151.2045496227273 140.06335074694695
    vertex -7.430840130796645 -163.16798392885207 140.06335000981096
  endloop
endfacet
facet normal -0.9724776735889684 -0.00012037610980246877 0.23299605121241837
  outer loop
    vertex -7.4323208228176485 -151.2045496227273 140.06335074694695
    vertex -7.2848621125481765 -163.16796589896524 140.67263229169134
    vertex -7.286342804569177 -151.20453159284048 140.67263302882725
  endloop
endfacet
facet normal -0.9996451154365872 -0.00012372257597050937 -0.026638841500640935
  outer loop
    vertex -7.4323208228176485 -151.2045496227273 140.06335074694695
    vertex -7.414150211507339 -163.16798182458163 139.43704662666536
    vertex -7.430840130796645 -163.16798392885207 140.06335000981096
  endloop
endfacet
facet normal -0.9996451154365872 -0.00012372257597050937 -0.026638841500640935
  outer loop
    vertex -7.414150211507339 -163.16798182458163 139.43704662666536
    vertex -7.4323208228176485 -151.2045496227273 140.06335074694695
    vertex -7.41563090352835 -151.20454751845688 139.43704736380153
  endloop
endfacet
facet normal -0.958688394658865 -0.00011863755304738367 -0.2844583411881943
  outer loop
    vertex -7.41563090352835 -151.20454751845688 139.43704736380153
    vertex -7.235929745098429 -163.16795972955669 138.83640368280047
    vertex -7.414150211507339 -163.16798182458163 139.43704662666536
  endloop
endfacet
facet normal -0.958688394658865 -0.00011863755304738367 -0.2844583411881943
  outer loop
    vertex -7.235929745098429 -163.16795972955669 138.83640368280047
    vertex -7.41563090352835 -151.20454751845688 139.43704736380153
    vertex -7.237410437119432 -151.20452542343185 138.8364044199366
  endloop
endfacet
facet normal -0.8523986440926207 -0.00010546757694190496 -0.5228924750134123
  outer loop
    vertex -7.237410437119432 -151.20452542343185 138.8364044199366
    vertex -6.908324161832407 -163.16791914951688 138.3023540022314
    vertex -7.235929745098429 -163.16795972955669 138.83640368280047
  endloop
endfacet
facet normal -0.8523986440926207 -0.00010546757694190496 -0.5228924750134123
  outer loop
    vertex -6.908324161832407 -163.16791914951688 138.3023540022314
    vertex -7.237410437119432 -151.20452542343185 138.8364044199366
    vertex -6.90980485385343 -151.20448484339218 138.3023547393673
  endloop
endfacet
facet normal -0.6880193345868231 -8.511015976124692e-05 -0.7256923507871402
  outer loop
    vertex -6.455139932836087 -151.2044285438 137.87129292526544
    vertex -6.908324161832407 -163.16791914951688 138.3023540022314
    vertex -6.90980485385343 -151.20448484339218 138.3023547393673
  endloop
endfacet
facet normal -0.6880193345868231 -8.511015976124692e-05 -0.7256923507871402
  outer loop
    vertex -6.908324161832407 -163.16791914951688 138.3023540022314
    vertex -6.455139932836087 -151.2044285438 137.87129292526544
    vertex -6.453659240815103 -163.16786284992486 137.87129218812956
  endloop
endfacet
facet normal -0.4767526444346651 -5.895262584405187e-05 -0.8790374921180221
  outer loop
    vertex -5.9044003370654625 -151.20436036137977 137.5725951278992
    vertex -6.453659240815103 -163.16786284992486 137.87129218812956
    vertex -6.455139932836087 -151.2044285438 137.87129292526544
  endloop
endfacet
facet normal -0.4767526444346651 -5.895262584405187e-05 -0.8790374921180221
  outer loop
    vertex -6.453659240815103 -163.16786284992486 137.87129218812956
    vertex -5.9044003370654625 -151.20436036137977 137.5725951278992
    vertex -5.90291964504444 -163.16779466750455 137.57259439076321
  endloop
endfacet
facet normal -0.23299604943525132 -2.8777567899401356e-05 -0.9724776810392192
  outer loop
    vertex -5.29511805985307 -151.20428494265028 137.4266171085373
    vertex -5.90291964504444 -163.16779466750455 137.57259439076321
    vertex -5.9044003370654625 -151.20436036137977 137.5725951278992
  endloop
endfacet
facet normal -0.23299604943525132 -2.8777567899401356e-05 -0.9724776810392192
  outer loop
    vertex -5.90291964504444 -163.16779466750455 137.57259439076321
    vertex -5.29511805985307 -151.20428494265028 137.4266171085373
    vertex -5.29363736783203 -163.16771924877503 137.4266163714014
  endloop
endfacet
facet normal 0.02663884128898111 3.3586337404117837e-06 -0.9996451230929404
  outer loop
    vertex -4.6688146815043785 -151.2042074272741 137.4433070279594
    vertex -5.29363736783203 -163.16771924877503 137.4266163714014
    vertex -5.29511805985307 -151.20428494265028 137.4266171085373
  endloop
endfacet
facet normal 0.02663884128898111 3.3586337404117837e-06 -0.9996451230929404
  outer loop
    vertex -5.29363736783203 -163.16771924877503 137.4266163714014
    vertex -4.6688146815043785 -151.2042074272741 137.4433070279594
    vertex -4.667333989483381 -163.16764173339865 137.4433062908233
  endloop
endfacet
facet normal 0.284458339002144 3.5265950041221516e-05 -0.9586884019995517
  outer loop
    vertex -4.068171742238557 -151.20413309779536 137.62152749573792
    vertex -4.667333989483381 -163.16764173339865 137.4433062908233
    vertex -4.6688146815043785 -151.2042074272741 137.4433070279594
  endloop
endfacet
facet normal 0.284458339002144 3.5265950041221516e-05 -0.9586884019995517
  outer loop
    vertex -4.667333989483381 -163.16764173339865 137.4433062908233
    vertex -4.068171742238557 -151.20413309779536 137.62152749573792
    vertex -4.06669105021758 -163.1675674039201 137.62152675860176
  endloop
endfacet
facet normal 0.5228924710019264 6.476995012645802e-05 -0.8523986506173933
  outer loop
    vertex -3.534122065757246 -151.20406701964552 137.9491330815171
    vertex -4.06669105021758 -163.1675674039201 137.62152675860176
    vertex -4.068171742238557 -151.20413309779536 137.62152749573792
  endloop
endfacet
facet normal 0.5228924710019264 6.476995012645802e-05 -0.8523986506173933
  outer loop
    vertex -4.06669105021758 -163.1675674039201 137.62152675860176
    vertex -3.534122065757246 -151.20406701964552 137.9491330815171
    vertex -3.5326413737362454 -163.16750132577027 137.94913234438124
  endloop
endfacet
facet normal 0.7256923452236158 8.985998514798274e-05 -0.6880193398510188
  outer loop
    vertex -3.534122065757246 -151.20406701964552 137.9491330815171
    vertex -3.101579562932723 -163.16744800206587 138.4037972688842
    vertex -3.5326413737362454 -163.16750132577027 137.94913234438124
  endloop
endfacet
facet normal 0.7256923452236158 8.985998514798274e-05 -0.6880193398510188
  outer loop
    vertex -3.101579562932723 -163.16744800206587 138.4037972688842
    vertex -3.534122065757246 -151.20406701964552 137.9491330815171
    vertex -3.1030602549537574 -151.20401369594103 138.4037980060201
  endloop
endfacet
facet normal 0.8790374853816035 0.00010882621068231729 -0.4767526480795285
  outer loop
    vertex -3.1030602549537574 -151.20401369594103 138.4037980060201
    vertex -2.8028817678500424 -163.16741106672967 138.95453686887524
    vertex -3.101579562932723 -163.16744800206587 138.4037972688842
  endloop
endfacet
facet normal 0.8790374853816035 0.00010882621068231729 -0.4767526480795285
  outer loop
    vertex -2.8028817678500424 -163.16741106672967 138.95453686887524
    vertex -3.1030602549537574 -151.20401369594103 138.4037980060201
    vertex -2.80436245987104 -151.20397676060483 138.95453760601126
  endloop
endfacet
facet normal 0.9724776735889684 0.00012037610980246877 -0.23299605121241837
  outer loop
    vertex -2.80436245987104 -151.20397676060483 138.95453760601126
    vertex -2.656903749601596 -163.16739303684278 139.5638191507554
    vertex -2.8028817678500424 -163.16741106672967 138.95453686887524
  endloop
endfacet
facet normal 0.9724776735889684 0.00012037610980246877 -0.23299605121241837
  outer loop
    vertex -2.656903749601596 -163.16739303684278 139.5638191507554
    vertex -2.80436245987104 -151.20397676060483 138.95453760601126
    vertex -2.658384441622574 -151.20395873071797 139.56381988789158
  endloop
endfacet
facet normal 0.9996451154365872 0.00012372257597050942 0.02663884150063974
  outer loop
    vertex -2.656903749601596 -163.16739303684278 139.5638191507554
    vertex -2.6750743609118777 -151.20396083498864 140.19012327103707
    vertex -2.6735936688908803 -163.1673951411132 140.190122533901
  endloop
endfacet
facet normal 0.9996451154365872 0.00012372257597050942 0.02663884150063974
  outer loop
    vertex -2.6750743609118777 -151.20396083498864 140.19012327103707
    vertex -2.656903749601596 -163.16739303684278 139.5638191507554
    vertex -2.658384441622574 -151.20395873071797 139.56381988789158
  endloop
endfacet
facet normal 0.9586883946588649 0.00011863755304738361 0.28445834118819435
  outer loop
    vertex -2.6735936688908803 -163.1673951411132 140.190122533901
    vertex -2.8532948273207905 -151.20398293001344 140.7907662149019
    vertex -2.8518141352998128 -163.1674172361382 140.79076547776606
  endloop
endfacet
facet normal 0.9586883946588649 0.00011863755304738361 0.28445834118819435
  outer loop
    vertex -2.8532948273207905 -151.20398293001344 140.7907662149019
    vertex -2.6735936688908803 -163.1673951411132 140.190122533901
    vertex -2.6750743609118777 -151.20396083498864 140.19012327103707
  endloop
endfacet
facet normal 0.8523986440926207 0.00010546757694190534 0.5228924750134123
  outer loop
    vertex -2.8518141352998128 -163.1674172361382 140.79076547776606
    vertex -3.18090041058679 -151.20402351005345 141.3248158954712
    vertex -3.1794197185658124 -163.16745781617826 141.3248151583352
  endloop
endfacet
facet normal 0.8523986440926207 0.00010546757694190534 0.5228924750134123
  outer loop
    vertex -3.18090041058679 -151.20402351005345 141.3248158954712
    vertex -2.8518141352998128 -163.1674172361382 140.79076547776606
    vertex -2.8532948273207905 -151.20398293001344 140.7907662149019
  endloop
endfacet
facet normal 0.6880193345868231 8.511015976124692e-05 0.7256923507871402
  outer loop
    vertex -3.6340846395831106 -163.16751411577008 141.7558769724369
    vertex -3.18090041058679 -151.20402351005345 141.3248158954712
    vertex -3.6355653316041363 -151.2040798096453 141.755877709573
  endloop
endfacet
facet normal 0.6880193345868231 8.511015976124692e-05 0.7256923507871402
  outer loop
    vertex -3.18090041058679 -151.20402351005345 141.3248158954712
    vertex -3.6340846395831106 -163.16751411577008 141.7558769724369
    vertex -3.1794197185658124 -163.16745781617826 141.3248151583352
  endloop
endfacet
facet normal 0.4767526444346636 5.895262584405169e-05 0.8790374921180228
  outer loop
    vertex -4.18482423535378 -163.16758229819033 142.05457476980314
    vertex -3.6355653316041363 -151.2040798096453 141.755877709573
    vertex -4.18630492737476 -151.2041479920655 142.0545755069393
  endloop
endfacet
facet normal 0.4767526444346636 5.895262584405169e-05 0.8790374921180228
  outer loop
    vertex -3.6355653316041363 -151.2040798096453 141.755877709573
    vertex -4.18482423535378 -163.16758229819033 142.05457476980314
    vertex -3.6340846395831106 -163.16751411577008 141.7558769724369
  endloop
endfacet
facet normal 0.23299604943525132 2.8777567899401356e-05 0.9724776810392192
  outer loop
    vertex -4.794106512566169 -163.16765771691985 142.20055278916507
    vertex -4.18630492737476 -151.2041479920655 142.0545755069393
    vertex -4.795587204587164 -151.204223410795 142.20055352630115
  endloop
endfacet
facet normal 0.23299604943525132 2.8777567899401356e-05 0.9724776810392192
  outer loop
    vertex -4.18630492737476 -151.2041479920655 142.0545755069393
    vertex -4.794106512566169 -163.16765771691985 142.20055278916507
    vertex -4.18482423535378 -163.16758229819033 142.05457476980314
  endloop
endfacet
facet normal -0.02663884128898111 -3.358633740411786e-06 0.9996451230929404
  outer loop
    vertex -5.420409890914819 -163.16773523229617 142.1838628697432
    vertex -4.795587204587164 -151.204223410795 142.20055352630115
    vertex -5.421890582935862 -151.2043009261714 142.18386360687907
  endloop
endfacet
facet normal -0.02663884128898111 -3.358633740411786e-06 0.9996451230929404
  outer loop
    vertex -4.795587204587164 -151.204223410795 142.20055352630115
    vertex -5.420409890914819 -163.16773523229617 142.1838628697432
    vertex -4.794106512566169 -163.16765771691985 142.20055278916507
  endloop
endfacet
facet normal -0.2844583390021438 -3.526595004122148e-05 0.9586884019995519
  outer loop
    vertex -6.021052830180639 -163.16780956177476 142.0056424019646
    vertex -5.421890582935862 -151.2043009261714 142.18386360687907
    vertex -6.022533522201665 -151.20437525564992 142.00564313910067
  endloop
endfacet
facet normal -0.2844583390021438 -3.526595004122148e-05 0.9586884019995519
  outer loop
    vertex -5.421890582935862 -151.2043009261714 142.18386360687907
    vertex -6.021052830180639 -163.16780956177476 142.0056424019646
    vertex -5.420409890914819 -163.16773523229617 142.1838628697432
  endloop
endfacet
facet normal 0.8093044589314967 0.00010012991573208881 0.5873893791409557
  outer loop
    vertex -15.98265871002006 -163.16717285734146 140.95773307956745
    vertex -16.352153722000654 -151.20566235805364 141.4647838814496
    vertex -16.35067326244438 -163.16721843706034 141.46478314442922
  endloop
endfacet
facet normal 0.8093044589314967 0.00010012991573208881 0.5873893791409557
  outer loop
    vertex -16.352153722000654 -151.20566235805364 141.4647838814496
    vertex -15.98265871002006 -163.16717285734146 140.95773307956745
    vertex -15.984139169576355 -151.20561677833453 140.9577338165878
  endloop
endfacet
facet normal 0.6297005211662454 7.788899726486715e-05 0.7768379802611758
  outer loop
    vertex -16.8373822356835 -163.16727870043385 141.85930672152804
    vertex -16.352153722000654 -151.20566235805364 141.4647838814496
    vertex -16.83886269523978 -151.20572262142733 141.85930745854833
  endloop
endfacet
facet normal 0.6297005211662454 7.788899726486715e-05 0.7768379802611758
  outer loop
    vertex -16.352153722000654 -151.20566235805364 141.4647838814496
    vertex -16.8373822356835 -163.16727870043385 141.85930672152804
    vertex -16.35067326244438 -163.16721843706034 141.46478314442922
  endloop
endfacet
facet normal 0.4071835335127782 5.034007235169258e-05 0.9133463568120942
  outer loop
    vertex -17.40961721753579 -163.16734954061286 142.11441768106565
    vertex -16.83886269523978 -151.20572262142733 141.85930745854833
    vertex -17.411097677092055 -151.20579346160594 142.1144184180859
  endloop
endfacet
facet normal 0.4071835335127782 5.034007235169258e-05 0.9133463568120942
  outer loop
    vertex -16.83886269523978 -151.20572262142733 141.85930745854833
    vertex -17.40961721753579 -163.16734954061286 142.11441768106565
    vertex -16.8373822356835 -163.16727870043385 141.85930672152804
  endloop
endfacet
facet normal 0.1569176609530783 1.936055469866018e-05 0.9876116885224595
  outer loop
    vertex -18.02838133965105 -163.16742612995543 142.21273063273986
    vertex -17.411097677092055 -151.20579346160594 142.1144184180859
    vertex -18.029861799207318 -151.20587005094853 142.2127313697602
  endloop
endfacet
facet normal 0.1569176609530783 1.936055469866018e-05 0.9876116885224595
  outer loop
    vertex -17.411097677092055 -151.20579346160594 142.1144184180859
    vertex -18.02838133965105 -163.16742612995543 142.21273063273986
    vertex -17.40961721753579 -163.16734954061286 142.11441768106565
  endloop
endfacet
facet normal -0.10404189088189339 -1.293835276225837e-05 0.9945729157655155
  outer loop
    vertex -18.651506849663182 -163.1675032490249 142.14754571136447
    vertex -18.029861799207318 -151.20587005094853 142.2127313697602
    vertex -18.652987309219444 -151.20594717001774 142.14754644838493
  endloop
endfacet
facet normal -0.10404189088189339 -1.293835276225837e-05 0.9945729157655155
  outer loop
    vertex -18.029861799207318 -151.20587005094853 142.2127313697602
    vertex -18.651506849663182 -163.1675032490249 142.14754571136447
    vertex -18.02838133965105 -163.16742612995543 142.21273063273986
  endloop
endfacet
facet normal -0.3579111597906764 -4.435553286407502e-05 0.9337556424085904
  outer loop
    vertex -19.23652877382842 -163.16757564228354 141.92330516160806
    vertex -18.652987309219444 -151.20594717001774 142.14754644838493
    vertex -19.238009233384716 -151.20601956327704 141.92330589862834
  endloop
endfacet
facet normal -0.3579111597906764 -4.435553286407502e-05 0.9337556424085904
  outer loop
    vertex -18.652987309219444 -151.20594717001774 142.14754644838493
    vertex -19.23652877382842 -163.16757564228354 141.92330516160806
    vertex -18.651506849663182 -163.1675032490249 142.14754571136447
  endloop
endfacet
facet normal -0.5873893746358 -7.274995670217861e-05 0.8093044651257075
  outer loop
    vertex -19.74357883480943 -163.16763837625174 141.55529060636118
    vertex -19.238009233384716 -151.20601956327704 141.92330589862834
    vertex -19.7450592943657 -151.20608229724476 141.55529134338147
  endloop
endfacet
facet normal -0.5873893746358 -7.274995670217861e-05 0.8093044651257075
  outer loop
    vertex -19.238009233384716 -151.20601956327704 141.92330589862834
    vertex -19.74357883480943 -163.16763837625174 141.55529060636118
    vertex -19.23652877382842 -163.16757564228354 141.92330516160806
  endloop
endfacet
facet normal -0.7768379743063742 -9.618659121602196e-05 0.6297005259833509
  outer loop
    vertex -19.74357883480943 -163.16763837625174 141.55529060636118
    vertex -20.13958286844638 -151.2061310967048 141.06858236641165
    vertex -20.1381024088901 -163.16768717571188 141.06858162939105
  endloop
endfacet
facet normal -0.7768379743063742 -9.618659121602196e-05 0.6297005259833509
  outer loop
    vertex -20.13958286844638 -151.2061310967048 141.06858236641165
    vertex -19.74357883480943 -163.16763837625174 141.55529060636118
    vertex -19.7450592943657 -151.20608229724476 141.55529134338147
  endloop
endfacet
facet normal -0.913346349813403 -0.0001130682684943488 0.40718353662457857
  outer loop
    vertex -20.1381024088901 -163.16768717571188 141.06858162939105
    vertex -20.39469382603423 -151.20616263605527 140.49634738017446
    vertex -20.39321336647795 -163.16771871506225 140.49634664315403
  endloop
endfacet
facet normal -0.913346349813403 -0.0001130682684943488 0.40718353662457857
  outer loop
    vertex -20.39469382603423 -151.20616263605527 140.49634738017446
    vertex -20.1381024088901 -163.16768717571188 141.06858162939105
    vertex -20.13958286844638 -151.2061310967048 141.06858236641165
  endloop
endfacet
facet normal -0.987611680956876 -0.00012224453012893647 0.15691766214741013
  outer loop
    vertex -20.39321336647795 -163.16771871506225 140.49634664315403
    vertex -20.49300677696038 -151.20617476594055 139.87758325331927
    vertex -20.4915263174041 -163.16773084494756 139.87758251629865
  endloop
endfacet
facet normal -0.987611680956876 -0.00012224453012893647 0.15691766214741013
  outer loop
    vertex -20.49300677696038 -151.20617476594055 139.87758325331927
    vertex -20.39321336647795 -163.16771871506225 140.49634664315403
    vertex -20.39469382603423 -151.20616263605527 140.49634738017446
  endloop
endfacet
facet normal -0.9945729081485994 -0.00012309002905387382 -0.10404189168638948
  outer loop
    vertex -20.49300677696038 -151.20617476594055 139.87758325331927
    vertex -20.426341396532766 -163.16772273873667 139.2544570015144
    vertex -20.4915263174041 -163.16773084494756 139.87758251629865
  endloop
endfacet
facet normal -0.9945729081485994 -0.00012309002905387382 -0.10404189168638948
  outer loop
    vertex -20.426341396532766 -163.16772273873667 139.2544570015144
    vertex -20.49300677696038 -151.20617476594055 139.87758325331927
    vertex -20.42782185608905 -151.20616665972994 139.25445773853482
  endloop
endfacet
facet normal -0.9337556352594425 -0.0001155471459146809 -0.3579111625391031
  outer loop
    vertex -20.42782185608905 -151.20616665972994 139.25445773853482
    vertex -20.202100848498212 -163.1676949488547 138.66943507287002
    vertex -20.426341396532766 -163.16772273873667 139.2544570015144
  endloop
endfacet
facet normal -0.9337556352594425 -0.0001155471459146809 -0.3579111625391031
  outer loop
    vertex -20.202100848498212 -163.1676949488547 138.66943507287002
    vertex -20.42782185608905 -151.20616665972994 139.25445773853482
    vertex -20.203581308054474 -151.2061388698478 138.66943580989033
  endloop
endfacet
facet normal -0.8093044589314967 -0.00010012991573208881 -0.5873893791409557
  outer loop
    vertex -20.203581308054474 -151.2061388698478 138.66943580989033
    vertex -19.834086296073917 -163.16764936913538 138.1623850080082
    vertex -20.202100848498212 -163.1676949488547 138.66943507287002
  endloop
endfacet
facet normal -0.8093044589314967 -0.00010012991573208881 -0.5873893791409557
  outer loop
    vertex -19.834086296073917 -163.16764936913538 138.1623850080082
    vertex -20.203581308054474 -151.2061388698478 138.66943580989033
    vertex -19.835566755630193 -151.20609329012825 138.16238574502853
  endloop
endfacet
facet normal -0.6297005211662479 -7.788899726486744e-05 -0.7768379802611738
  outer loop
    vertex -19.34885778239106 -151.20603302675482 137.7678621679298
    vertex -19.834086296073917 -163.16764936913538 138.1623850080082
    vertex -19.835566755630193 -151.20609329012825 138.16238574502853
  endloop
endfacet
facet normal -0.6297005211662479 -7.788899726486744e-05 -0.7768379802611738
  outer loop
    vertex -19.834086296073917 -163.16764936913538 138.1623850080082
    vertex -19.34885778239106 -151.20603302675482 137.7678621679298
    vertex -19.3473773228348 -163.16758910576195 137.76786143090945
  endloop
endfacet
facet normal -0.4071835335128066 -5.0340072351696034e-05 -0.9133463568120815
  outer loop
    vertex -18.776622800538767 -151.2059621865764 137.51275120839227
    vertex -19.3473773228348 -163.16758910576195 137.76786143090945
    vertex -19.34885778239106 -151.20603302675482 137.7678621679298
  endloop
endfacet
facet normal -0.4071835335128066 -5.0340072351696034e-05 -0.9133463568120815
  outer loop
    vertex -19.3473773228348 -163.16758910576195 137.76786143090945
    vertex -18.776622800538767 -151.2059621865764 137.51275120839227
    vertex -18.77514234098251 -163.16751826558328 137.51275047137196
  endloop
endfacet
facet normal -0.15691766095304321 -1.9360554698655838e-05 -0.9876116885224651
  outer loop
    vertex -18.157858678423523 -151.20588559723382 137.41443825671794
    vertex -18.77514234098251 -163.16751826558328 137.51275047137196
    vertex -18.776622800538767 -151.2059621865764 137.51275120839227
  endloop
endfacet
facet normal -0.15691766095304321 -1.9360554698655838e-05 -0.9876116885224651
  outer loop
    vertex -18.77514234098251 -163.16751826558328 137.51275047137196
    vertex -18.157858678423523 -151.20588559723382 137.41443825671794
    vertex -18.156378218867246 -163.1674416762407 137.41443751969766
  endloop
endfacet
facet normal 0.10404189088192989 1.2938352762262847e-05 -0.9945729157655118
  outer loop
    vertex -17.534733168411382 -151.2058084781644 137.47962317809333
    vertex -18.156378218867246 -163.1674416762407 137.41443751969766
    vertex -18.157858678423523 -151.20588559723382 137.41443825671794
  endloop
endfacet
facet normal 0.10404189088192989 1.2938352762262847e-05 -0.9945729157655118
  outer loop
    vertex -18.156378218867246 -163.1674416762407 137.41443751969766
    vertex -17.534733168411382 -151.2058084781644 137.47962317809333
    vertex -17.533252708855116 -163.1673645571709 137.47962244107293
  endloop
endfacet
facet normal 0.3579111597906119 4.4355532864067105e-05 -0.9337556424086153
  outer loop
    vertex -16.94971124424612 -151.20573608490508 137.70386372784975
    vertex -17.533252708855116 -163.1673645571709 137.47962244107293
    vertex -17.534733168411382 -151.2058084781644 137.47962317809333
  endloop
endfacet
facet normal 0.3579111597906119 4.4355532864067105e-05 -0.9337556424086153
  outer loop
    vertex -17.533252708855116 -163.1673645571709 137.47962244107293
    vertex -16.94971124424612 -151.20573608490508 137.70386372784975
    vertex -16.94823078468985 -163.16729216391226 137.70386299082946
  endloop
endfacet
facet normal 0.5873893746358 7.274995670217861e-05 -0.8093044651257075
  outer loop
    vertex -16.442661183265148 -151.2056733509375 138.07187828309665
    vertex -16.94823078468985 -163.16729216391226 137.70386299082946
    vertex -16.94971124424612 -151.20573608490508 137.70386372784975
  endloop
endfacet
facet normal 0.5873893746358 7.274995670217861e-05 -0.8093044651257075
  outer loop
    vertex -16.94823078468985 -163.16729216391226 137.70386299082946
    vertex -16.442661183265148 -151.2056733509375 138.07187828309665
    vertex -16.441180723708868 -163.1672294299444 138.07187754607634
  endloop
endfacet
facet normal 0.7768379743063742 9.618659121602196e-05 -0.6297005259833509
  outer loop
    vertex -16.442661183265148 -151.2056733509375 138.07187828309665
    vertex -16.046657149628185 -163.16718063048387 138.55858652304624
    vertex -16.441180723708868 -163.1672294299444 138.07187754607634
  endloop
endfacet
facet normal 0.7768379743063742 9.618659121602196e-05 -0.6297005259833509
  outer loop
    vertex -16.046657149628185 -163.16718063048387 138.55858652304624
    vertex -16.442661183265148 -151.2056733509375 138.07187828309665
    vertex -16.048137609184447 -151.2056245514771 138.55858726006684
  endloop
endfacet
facet normal 0.9133463498134167 0.00011306826849435049 -0.4071835366245476
  outer loop
    vertex -16.048137609184447 -151.2056245514771 138.55858726006684
    vertex -15.79154619204035 -163.1671490911339 139.13082150928335
    vertex -16.046657149628185 -163.16718063048387 138.55858652304624
  endloop
endfacet
facet normal 0.9133463498134167 0.00011306826849435049 -0.4071835366245476
  outer loop
    vertex -15.79154619204035 -163.1671490911339 139.13082150928335
    vertex -16.048137609184447 -151.2056245514771 138.55858726006684
    vertex -15.793026651596614 -151.205593012127 139.13082224630392
  endloop
endfacet
facet normal 0.9876116809568748 0.0001222445301289365 -0.1569176621474169
  outer loop
    vertex -15.793026651596614 -151.205593012127 139.13082224630392
    vertex -15.693233241114202 -163.16713696124816 139.74958563613865
    vertex -15.79154619204035 -163.1671490911339 139.13082150928335
  endloop
endfacet
facet normal 0.9876116809568748 0.0001222445301289365 -0.1569176621474169
  outer loop
    vertex -15.693233241114202 -163.16713696124816 139.74958563613865
    vertex -15.793026651596614 -151.205593012127 139.13082224630392
    vertex -15.694713700670468 -151.20558088224118 139.74958637315927
  endloop
endfacet
facet normal 0.9945729081486012 0.00012309002905387407 0.1040418916863731
  outer loop
    vertex -15.693233241114202 -163.16713696124816 139.74958563613865
    vertex -15.759898621541776 -151.20558898845195 140.37271188794344
    vertex -15.758418161985514 -163.16714506745907 140.372711150923
  endloop
endfacet
facet normal 0.9945729081486012 0.00012309002905387407 0.1040418916863731
  outer loop
    vertex -15.759898621541776 -151.20558898845195 140.37271188794344
    vertex -15.693233241114202 -163.16713696124816 139.74958563613865
    vertex -15.694713700670468 -151.20558088224118 139.74958637315927
  endloop
endfacet
facet normal 0.9337556352594377 0.0001155471459146804 0.3579111625391156
  outer loop
    vertex -15.758418161985514 -163.16714506745907 140.372711150923
    vertex -15.984139169576355 -151.20561677833453 140.9577338165878
    vertex -15.98265871002006 -163.16717285734146 140.95773307956745
  endloop
endfacet
facet normal 0.9337556352594377 0.0001155471459146804 0.3579111625391156
  outer loop
    vertex -15.984139169576355 -151.20561677833453 140.9577338165878
    vertex -15.758418161985514 -163.16714506745907 140.372711150923
    vertex -15.759898621541776 -151.20558898845195 140.37271188794344
  endloop
endfacet
facet normal 0.6995005988735951 8.653185598681847e-05 0.7146320064814615
  outer loop
    vertex -10.127554795320616 -163.16727467236655 130.43281577024825
    vertex -9.681300001196362 -151.20503955884865 129.99456138574584
    vertex -10.129035332057786 -151.20509500122145 130.432816507307
  endloop
endfacet
facet normal 0.6995005988735951 8.653185598681847e-05 0.7146320064814615
  outer loop
    vertex -9.681300001196362 -151.20503955884865 129.99456138574584
    vertex -10.127554795320616 -163.16727467236655 130.43281577024825
    vertex -9.679819464459197 -163.16721922999366 129.99456064868716
  endloop
endfacet
facet normal 0.4907053218574422 6.067999796172164e-05 0.8713255897876074
  outer loop
    vertex -10.673462685947566 -163.1673422573143 130.74025527898678
    vertex -10.129035332057786 -151.20509500122145 130.432816507307
    vertex -10.674943222684737 -151.2051625861692 130.74025601604563
  endloop
endfacet
facet normal 0.4907053218574422 6.067999796172164e-05 0.8713255897876074
  outer loop
    vertex -10.129035332057786 -151.20509500122145 130.432816507307
    vertex -10.673462685947566 -163.1673422573143 130.74025527898678
    vertex -10.127554795320616 -163.16727467236655 130.43281577024825
  endloop
endfacet
facet normal 0.24846928808567986 3.069289835398229e-05 0.9686397740832975
  outer loop
    vertex -11.28034041574926 -163.16741737903428 130.89592768045026
    vertex -10.674943222684737 -151.2051625861692 130.74025601604563
    vertex -11.281820952486433 -151.20523770788927 130.8959284175089
  endloop
endfacet
facet normal 0.24846928808567986 3.069289835398229e-05 0.9686397740832975
  outer loop
    vertex -10.674943222684737 -151.2051625861692 130.74025601604563
    vertex -11.28034041574926 -163.16741737903428 130.89592768045026
    vertex -10.673462685947566 -163.1673422573143 130.74025527898678
  endloop
endfacet
facet normal -0.01069951705426573 -1.3858715541753027e-06 0.9999427585281493
  outer loop
    vertex -11.906830270352586 -163.1674949181058 130.88922415773965
    vertex -11.281820952486433 -151.20523770788927 130.8959284175089
    vertex -11.908310807089759 -151.2053152469607 130.88922489479828
  endloop
endfacet
facet normal -0.01069951705426573 -1.3858715541753027e-06 0.9999427585281493
  outer loop
    vertex -11.281820952486433 -151.20523770788927 130.8959284175089
    vertex -11.906830270352586 -163.1674949181058 130.88922415773965
    vertex -11.28034041574926 -163.16741737903428 130.89592768045026
  endloop
endfacet
facet normal -0.2691391677887577 -3.3370196606177675e-05 0.9631012964628409
  outer loop
    vertex -12.510238001489792 -163.16756959036883 130.72060154484956
    vertex -11.908310807089759 -151.2053152469607 130.88922489479828
    vertex -12.511718538226953 -151.20538991922405 130.72060228190827
  endloop
endfacet
facet normal -0.2691391677887577 -3.3370196606177675e-05 0.9631012964628409
  outer loop
    vertex -11.908310807089759 -151.2053152469607 130.88922489479828
    vertex -12.510238001489792 -163.16756959036883 130.72060154484956
    vertex -11.906830270352586 -163.1674949181058 130.88922415773965
  endloop
endfacet
facet normal -0.5092374290119145 -6.308039790632195e-05 0.8606260726437462
  outer loop
    vertex -13.04944236946222 -163.1676363070324 130.40155119418648
    vertex -12.511718538226953 -151.20538991922405 130.72060228190827
    vertex -13.050922906199396 -151.2054566358876 130.40155193124517
  endloop
endfacet
facet normal -0.5092374290119145 -6.308039790632195e-05 0.8606260726437462
  outer loop
    vertex -12.511718538226953 -151.20538991922405 130.72060228190827
    vertex -13.04944236946222 -163.1676363070324 130.40155119418648
    vertex -12.510238001489792 -163.16756959036883 130.72060154484956
  endloop
endfacet
facet normal -0.7146320010025733 -8.849177433443955e-05 0.6995006042258032
  outer loop
    vertex -13.04944236946222 -163.1676363070324 130.40155119418648
    vertex -13.48917802440715 -151.20551085032105 129.95381659695107
    vertex -13.48769748766999 -163.16769052146614 129.95381585989236
  endloop
endfacet
facet normal -0.7146320010025733 -8.849177433443955e-05 0.6995006042258032
  outer loop
    vertex -13.48917802440715 -151.20551085032105 129.95381659695107
    vertex -13.04944236946222 -163.1676363070324 130.40155119418648
    vertex -13.050922906199396 -151.2054566358876 130.40155193124517
  endloop
endfacet
facet normal -0.8713255831101262 -0.0001078725825812365 0.49070532560927477
  outer loop
    vertex -13.48769748766999 -163.16769052146614 129.95381585989236
    vertex -13.79661753079518 -151.20554886790077 129.40790870214045
    vertex -13.79513699405802 -163.16772853904584 129.40790796508182
  endloop
endfacet
facet normal -0.8713255831101262 -0.0001078725825812365 0.49070532560927477
  outer loop
    vertex -13.79661753079518 -151.20554886790077 129.40790870214045
    vertex -13.48769748766999 -163.16769052146614 129.95381585989236
    vertex -13.48917802440715 -151.20551085032105 129.95381659695107
  endloop
endfacet
facet normal -0.9686397666623284 -0.00011990205259299328 0.24846928998137302
  outer loop
    vertex -13.79513699405802 -163.16772853904584 129.40790796508182
    vertex -13.95228993107093 -151.20556809779097 128.80103096768937
    vertex -13.950809394333753 -163.1677477689362 128.8010302306307
  endloop
endfacet
facet normal -0.9686397666623284 -0.00011990205259299328 0.24846928998137302
  outer loop
    vertex -13.95228993107093 -151.20556809779097 128.80103096768937
    vertex -13.79513699405802 -163.16772853904584 129.40790796508182
    vertex -13.79661753079518 -151.20554886790077 129.40790870214045
  endloop
endfacet
facet normal -0.999942750869395 -0.0001237603958680483 -0.010699517143845143
  outer loop
    vertex -13.95228993107093 -151.20556809779097 128.80103096768937
    vertex -13.944105871679273 -163.16774690065205 128.17454037122923
    vertex -13.950809394333753 -163.1677477689362 128.8010302306307
  endloop
endfacet
facet normal -0.999942750869395 -0.0001237603958680483 -0.010699517143845143
  outer loop
    vertex -13.944105871679273 -163.16774690065205 128.17454037122923
    vertex -13.95228993107093 -151.20556809779097 128.80103096768937
    vertex -13.945586408416434 -151.20556722950678 128.17454110828777
  endloop
endfacet
facet normal -0.9631012890882442 -0.00011918467268842046 -0.26913916985748504
  outer loop
    vertex -13.945586408416434 -151.20556722950678 128.17454110828777
    vertex -13.775483260085327 -163.16772599336548 127.5711326354714
    vertex -13.944105871679273 -163.16774690065205 128.17454037122923
  endloop
endfacet
facet normal -0.9631012890882442 -0.00011918467268842046 -0.26913916985748504
  outer loop
    vertex -13.775483260085327 -163.16772599336548 127.5711326354714
    vertex -13.945586408416434 -151.20556722950678 128.17454110828777
    vertex -13.776963796822487 -151.20554632222033 127.57113337253004
  endloop
endfacet
facet normal -0.8606260660558498 -0.0001064867110270599 -0.5092374329188817
  outer loop
    vertex -13.776963796822487 -151.20554632222033 127.57113337253004
    vertex -13.456432911870023 -163.16768647187328 127.03192826337155
    vertex -13.775483260085327 -163.16772599336548 127.5711326354714
  endloop
endfacet
facet normal -0.8606260660558498 -0.0001064867110270599 -0.5092374329188817
  outer loop
    vertex -13.456432911870023 -163.16768647187328 127.03192826337155
    vertex -13.776963796822487 -151.20554632222033 127.57113337253004
    vertex -13.457913448607183 -151.2055068007283 127.03192900043014
  endloop
endfacet
facet normal -0.6995005988735926 -8.653185598681846e-05 -0.7146320064814639
  outer loop
    vertex -13.010178117745763 -151.20545135835567 126.59367387886914
    vertex -13.456432911870023 -163.16768647187328 127.03192826337155
    vertex -13.457913448607183 -151.2055068007283 127.03192900043014
  endloop
endfacet
facet normal -0.6995005988735926 -8.653185598681846e-05 -0.7146320064814639
  outer loop
    vertex -13.456432911870023 -163.16768647187328 127.03192826337155
    vertex -13.010178117745763 -151.20545135835567 126.59367387886914
    vertex -13.008697581008587 -163.16763102950046 126.59367314181043
  endloop
endfacet
facet normal -0.4907053218574422 -6.067999796172164e-05 -0.8713255897876074
  outer loop
    vertex -12.464270227118803 -151.20538377340793 126.28623437013061
    vertex -13.008697581008587 -163.16763102950046 126.59367314181043
    vertex -13.010178117745763 -151.20545135835567 126.59367387886914
  endloop
endfacet
facet normal -0.4907053218574422 -6.067999796172164e-05 -0.8713255897876074
  outer loop
    vertex -13.008697581008587 -163.16763102950046 126.59367314181043
    vertex -12.464270227118803 -151.20538377340793 126.28623437013061
    vertex -12.462789690381655 -163.1675634445527 126.2862336330721
  endloop
endfacet
facet normal -0.2484692880857144 -3.069289835398653e-05 -0.9686397740832886
  outer loop
    vertex -11.857392497317111 -151.20530865168763 126.13056196866697
    vertex -12.462789690381655 -163.1675634445527 126.2862336330721
    vertex -12.464270227118803 -151.20538377340793 126.28623437013061
  endloop
endfacet
facet normal -0.2484692880857144 -3.069289835398653e-05 -0.9686397740832886
  outer loop
    vertex -12.462789690381655 -163.1675634445527 126.2862336330721
    vertex -11.857392497317111 -151.20530865168763 126.13056196866697
    vertex -11.855911960579942 -163.16748832283278 126.13056123160833
  endloop
endfacet
facet normal 0.01069951705426573 1.3858715541753027e-06 -0.9999427585281493
  outer loop
    vertex -11.230902642713785 -151.20523111261613 126.13726549137758
    vertex -11.855911960579942 -163.16748832283278 126.13056123160833
    vertex -11.857392497317111 -151.20530865168763 126.13056196866697
  endloop
endfacet
facet normal 0.01069951705426573 1.3858715541753027e-06 -0.9999427585281493
  outer loop
    vertex -11.855911960579942 -163.16748832283278 126.13056123160833
    vertex -11.230902642713785 -151.20523111261613 126.13726549137758
    vertex -11.229422105976614 -163.16741078376134 126.13726475431895
  endloop
endfacet
facet normal 0.2691391677887922 3.337019660618186e-05 -0.9631012964628313
  outer loop
    vertex -10.6274949115766 -151.20515644035308 126.30588810426771
    vertex -11.229422105976614 -163.16741078376134 126.13726475431895
    vertex -11.230902642713785 -151.20523111261613 126.13726549137758
  endloop
endfacet
facet normal 0.2691391677887922 3.337019660618186e-05 -0.9631012964628313
  outer loop
    vertex -11.229422105976614 -163.16741078376134 126.13726475431895
    vertex -10.6274949115766 -151.20515644035308 126.30588810426771
    vertex -10.62601437483946 -163.16733611149814 126.30588736720912
  endloop
endfacet
facet normal 0.5092374290119099 6.308039790632151e-05 -0.8606260726437489
  outer loop
    vertex -10.08829054360415 -151.20508972368953 126.62493845493088
    vertex -10.62601437483946 -163.16733611149814 126.30588736720912
    vertex -10.6274949115766 -151.20515644035308 126.30588810426771
  endloop
endfacet
facet normal 0.5092374290119099 6.308039790632151e-05 -0.8606260726437489
  outer loop
    vertex -10.62601437483946 -163.16733611149814 126.30588736720912
    vertex -10.08829054360415 -151.20508972368953 126.62493845493088
    vertex -10.086810006866981 -163.16726939483456 126.62493771787223
  endloop
endfacet
facet normal 0.7146320010025762 8.849177433443977e-05 -0.6995006042258002
  outer loop
    vertex -10.08829054360415 -151.20508972368953 126.62493845493088
    vertex -9.64855488865923 -163.167215180401 127.07267305216632
    vertex -10.086810006866981 -163.16726939483456 126.62493771787223
  endloop
endfacet
facet normal 0.7146320010025762 8.849177433443977e-05 -0.6995006042258002
  outer loop
    vertex -9.64855488865923 -163.167215180401 127.07267305216632
    vertex -10.08829054360415 -151.20508972368953 126.62493845493088
    vertex -9.650035425396398 -151.20503550925577 127.072673789225
  endloop
endfacet
facet normal 0.871325583110117 0.00010787258258123541 -0.490705325609291
  outer loop
    vertex -9.650035425396398 -151.20503550925577 127.072673789225
    vertex -9.341115382271223 -163.16717716282113 127.61858094697678
    vertex -9.64855488865923 -163.167215180401 127.07267305216632
  endloop
endfacet
facet normal 0.871325583110117 0.00010787258258123541 -0.490705325609291
  outer loop
    vertex -9.341115382271223 -163.16717716282113 127.61858094697678
    vertex -9.650035425396398 -151.20503550925577 127.072673789225
    vertex -9.342595919008389 -151.20499749167635 127.61858168403542
  endloop
endfacet
facet normal 0.9686397666623308 0.00011990205259299328 -0.24846928998136414
  outer loop
    vertex -9.342595919008389 -151.20499749167635 127.61858168403542
    vertex -9.185442981995452 -163.16715793293093 128.22545868142794
    vertex -9.341115382271223 -163.16717716282113 127.61858094697678
  endloop
endfacet
facet normal 0.9686397666623308 0.00011990205259299328 -0.24846928998136414
  outer loop
    vertex -9.185442981995452 -163.16715793293093 128.22545868142794
    vertex -9.342595919008389 -151.20499749167635 127.61858168403542
    vertex -9.186923518732625 -151.20497826178584 128.22545941848662
  endloop
endfacet
facet normal 0.999942750869395 0.0001237603958680483 0.010699517143845143
  outer loop
    vertex -9.185442981995452 -163.16715793293093 128.22545868142794
    vertex -9.193627041387114 -151.20497913007003 128.85194927788845
    vertex -9.192146504649974 -163.16715880121512 128.85194854082962
  endloop
endfacet
facet normal 0.999942750869395 0.0001237603958680483 0.010699517143845143
  outer loop
    vertex -9.193627041387114 -151.20497913007003 128.85194927788845
    vertex -9.185442981995452 -163.16715793293093 128.22545868142794
    vertex -9.186923518732625 -151.20497826178584 128.22545941848662
  endloop
endfacet
facet normal 0.9631012890882412 0.00011918467268842045 0.2691391698574949
  outer loop
    vertex -9.192146504649974 -163.16715880121512 128.85194854082962
    vertex -9.362249652981076 -151.20500003735665 129.45535701364585
    vertex -9.36076911624391 -163.16717970850172 129.4553562765872
  endloop
endfacet
facet normal 0.9631012890882412 0.00011918467268842045 0.2691391698574949
  outer loop
    vertex -9.362249652981076 -151.20500003735665 129.45535701364585
    vertex -9.192146504649974 -163.16715880121512 128.85194854082962
    vertex -9.193627041387114 -151.20497913007003 128.85194927788845
  endloop
endfacet
facet normal 0.8606260660558593 0.00010648671102706115 0.5092374329188653
  outer loop
    vertex -9.36076911624391 -163.16717970850172 129.4553562765872
    vertex -9.681300001196362 -151.20503955884865 129.99456138574584
    vertex -9.679819464459197 -163.16721922999366 129.99456064868716
  endloop
endfacet
facet normal 0.8606260660558593 0.00010648671102706115 0.5092374329188653
  outer loop
    vertex -9.681300001196362 -151.20503955884865 129.99456138574584
    vertex -9.36076911624391 -163.16717970850172 129.4553562765872
    vertex -9.362249652981076 -151.20500003735665 129.45535701364585
  endloop
endfacet
facet normal 0.00012376813980214944 -0.9999999923407218 -6.161575676511299e-08
  outer loop
    vertex -4.667333989483381 -163.16764173339865 137.4433062908233
    vertex -5.90291964504444 -163.16779466750455 137.57259439076321
    vertex -5.29363736783203 -163.16771924877503 137.4266163714014
  endloop
endfacet
facet normal 0.00012376813980214944 -0.9999999923407218 -6.161575676511299e-08
  outer loop
    vertex -5.90291964504444 -163.16779466750455 137.57259439076321
    vertex -4.667333989483381 -163.16764173339865 137.4433062908233
    vertex -4.06669105021758 -163.1675674039201 137.62152675860176
  endloop
endfacet
facet normal 0.00012376813980214944 -0.9999999923407218 -6.161575676511299e-08
  outer loop
    vertex -5.90291964504444 -163.16779466750455 137.57259439076321
    vertex -4.06669105021758 -163.1675674039201 137.62152675860176
    vertex -6.453659240815103 -163.16786284992486 137.87129218812956
  endloop
endfacet
facet normal 0.00012376813980214944 -0.9999999923407218 -6.161575676511299e-08
  outer loop
    vertex -6.453659240815103 -163.16786284992486 137.87129218812956
    vertex -4.06669105021758 -163.1675674039201 137.62152675860176
    vertex -3.5326413737362454 -163.16750132577027 137.94913234438124
  endloop
endfacet
facet normal 0.00012376813980214944 -0.9999999923407218 -6.161575676511299e-08
  outer loop
    vertex -6.453659240815103 -163.16786284992486 137.87129218812956
    vertex -3.5326413737362454 -163.16750132577027 137.94913234438124
    vertex -6.908324161832407 -163.16791914951688 138.3023540022314
  endloop
endfacet
facet normal 0.00012376813980214944 -0.9999999923407218 -6.161575676511299e-08
  outer loop
    vertex -6.908324161832407 -163.16791914951688 138.3023540022314
    vertex -3.5326413737362454 -163.16750132577027 137.94913234438124
    vertex -3.101579562932723 -163.16744800206587 138.4037972688842
  endloop
endfacet
facet normal 0.00012376813980214944 -0.9999999923407218 -6.161575676511299e-08
  outer loop
    vertex -6.908324161832407 -163.16791914951688 138.3023540022314
    vertex -3.101579562932723 -163.16744800206587 138.4037972688842
    vertex -7.235929745098429 -163.16795972955669 138.83640368280047
  endloop
endfacet
facet normal 0.00012376813980214944 -0.9999999923407218 -6.161575676511299e-08
  outer loop
    vertex -7.235929745098429 -163.16795972955669 138.83640368280047
    vertex -3.101579562932723 -163.16744800206587 138.4037972688842
    vertex -2.8028817678500424 -163.16741106672967 138.95453686887524
  endloop
endfacet
facet normal 0.00012376813980214944 -0.9999999923407218 -6.161575676511299e-08
  outer loop
    vertex -7.235929745098429 -163.16795972955669 138.83640368280047
    vertex -2.8028817678500424 -163.16741106672967 138.95453686887524
    vertex -7.414150211507339 -163.16798182458163 139.43704662666536
  endloop
endfacet
facet normal 0.00012376813980214944 -0.9999999923407218 -6.161575676511299e-08
  outer loop
    vertex -7.414150211507339 -163.16798182458163 139.43704662666536
    vertex -2.8028817678500424 -163.16741106672967 138.95453686887524
    vertex -2.656903749601596 -163.16739303684278 139.5638191507554
  endloop
endfacet
facet normal 0.00012376813980214944 -0.9999999923407218 -6.161575676511299e-08
  outer loop
    vertex -7.414150211507339 -163.16798182458163 139.43704662666536
    vertex -2.656903749601596 -163.16739303684278 139.5638191507554
    vertex -7.430840130796645 -163.16798392885207 140.06335000981096
  endloop
endfacet
facet normal 0.00012376813980214944 -0.9999999923407218 -6.161575676511299e-08
  outer loop
    vertex -7.430840130796645 -163.16798392885207 140.06335000981096
    vertex -2.656903749601596 -163.16739303684278 139.5638191507554
    vertex -2.6735936688908803 -163.1673951411132 140.190122533901
  endloop
endfacet
facet normal 0.00012376813980214944 -0.9999999923407218 -6.161575676511299e-08
  outer loop
    vertex -7.430840130796645 -163.16798392885207 140.06335000981096
    vertex -2.6735936688908803 -163.1673951411132 140.190122533901
    vertex -7.2848621125481765 -163.16796589896524 140.67263229169134
  endloop
endfacet
facet normal 0.00012376813980214944 -0.9999999923407218 -6.161575676511299e-08
  outer loop
    vertex -7.2848621125481765 -163.16796589896524 140.67263229169134
    vertex -2.6735936688908803 -163.1673951411132 140.190122533901
    vertex -2.8518141352998128 -163.1674172361382 140.79076547776606
  endloop
endfacet
facet normal 0.00012376813980214944 -0.9999999923407218 -6.161575676511299e-08
  outer loop
    vertex -7.2848621125481765 -163.16796589896524 140.67263229169134
    vertex -2.8518141352998128 -163.1674172361382 140.79076547776606
    vertex -6.986164317465482 -163.16792896362912 141.2233718916823
  endloop
endfacet
facet normal 0.00012376813980214944 -0.9999999923407218 -6.161575676511299e-08
  outer loop
    vertex -6.986164317465482 -163.16792896362912 141.2233718916823
    vertex -2.8518141352998128 -163.1674172361382 140.79076547776606
    vertex -3.1794197185658124 -163.16745781617826 141.3248151583352
  endloop
endfacet
facet normal 0.00012376813980214944 -0.9999999923407218 -6.161575676511299e-08
  outer loop
    vertex -6.986164317465482 -163.16792896362912 141.2233718916823
    vertex -3.1794197185658124 -163.16745781617826 141.3248151583352
    vertex -6.555102506661997 -163.16787563992457 141.6780368161853
  endloop
endfacet
facet normal 0.00012376813980214944 -0.9999999923407218 -6.161575676511299e-08
  outer loop
    vertex -6.555102506661997 -163.16787563992457 141.6780368161853
    vertex -3.1794197185658124 -163.16745781617826 141.3248151583352
    vertex -3.6340846395831106 -163.16751411577008 141.7558769724369
  endloop
endfacet
facet normal 0.00012376813980214944 -0.9999999923407218 -6.161575676511299e-08
  outer loop
    vertex -6.555102506661997 -163.16787563992457 141.6780368161853
    vertex -3.6340846395831106 -163.16751411577008 141.7558769724369
    vertex -6.021052830180639 -163.16780956177476 142.0056424019646
  endloop
endfacet
facet normal 0.00012376813980214944 -0.9999999923407218 -6.161575676511299e-08
  outer loop
    vertex -6.021052830180639 -163.16780956177476 142.0056424019646
    vertex -3.6340846395831106 -163.16751411577008 141.7558769724369
    vertex -4.18482423535378 -163.16758229819033 142.05457476980314
  endloop
endfacet
facet normal 0.00012376813980214944 -0.9999999923407218 -6.161575676511299e-08
  outer loop
    vertex -6.021052830180639 -163.16780956177476 142.0056424019646
    vertex -4.18482423535378 -163.16758229819033 142.05457476980314
    vertex -5.420409890914819 -163.16773523229617 142.1838628697432
  endloop
endfacet
facet normal 0.00012376813980214944 -0.9999999923407218 -6.161575676511299e-08
  outer loop
    vertex -5.420409890914819 -163.16773523229617 142.1838628697432
    vertex -4.18482423535378 -163.16758229819033 142.05457476980314
    vertex -4.794106512566169 -163.16765771691985 142.20055278916507
  endloop
endfacet
facet normal 0.00012376813979096874 -0.9999999923407218 -6.161576133927167e-08
  outer loop
    vertex -17.533252708855116 -163.1673645571709 137.47962244107293
    vertex -18.77514234098251 -163.16751826558328 137.51275047137196
    vertex -18.156378218867246 -163.1674416762407 137.41443751969766
  endloop
endfacet
facet normal 0.00012376813979096874 -0.9999999923407218 -6.161576133927167e-08
  outer loop
    vertex -18.77514234098251 -163.16751826558328 137.51275047137196
    vertex -17.533252708855116 -163.1673645571709 137.47962244107293
    vertex -16.94823078468985 -163.16729216391226 137.70386299082946
  endloop
endfacet
facet normal 0.00012376813979096874 -0.9999999923407218 -6.161576133927167e-08
  outer loop
    vertex -18.77514234098251 -163.16751826558328 137.51275047137196
    vertex -16.94823078468985 -163.16729216391226 137.70386299082946
    vertex -19.3473773228348 -163.16758910576195 137.76786143090945
  endloop
endfacet
facet normal 0.00012376813979096874 -0.9999999923407218 -6.161576133927167e-08
  outer loop
    vertex -19.3473773228348 -163.16758910576195 137.76786143090945
    vertex -16.94823078468985 -163.16729216391226 137.70386299082946
    vertex -16.441180723708868 -163.1672294299444 138.07187754607634
  endloop
endfacet
facet normal 0.00012376813979096874 -0.9999999923407218 -6.161576133927167e-08
  outer loop
    vertex -19.3473773228348 -163.16758910576195 137.76786143090945
    vertex -16.441180723708868 -163.1672294299444 138.07187754607634
    vertex -19.834086296073917 -163.16764936913538 138.1623850080082
  endloop
endfacet
facet normal 0.00012376813979096874 -0.9999999923407218 -6.161576133927167e-08
  outer loop
    vertex -19.834086296073917 -163.16764936913538 138.1623850080082
    vertex -16.441180723708868 -163.1672294299444 138.07187754607634
    vertex -16.046657149628185 -163.16718063048387 138.55858652304624
  endloop
endfacet
facet normal 0.00012376813979096874 -0.9999999923407218 -6.161576133927167e-08
  outer loop
    vertex -19.834086296073917 -163.16764936913538 138.1623850080082
    vertex -16.046657149628185 -163.16718063048387 138.55858652304624
    vertex -20.202100848498212 -163.1676949488547 138.66943507287002
  endloop
endfacet
facet normal 0.00012376813979096874 -0.9999999923407218 -6.161576133927167e-08
  outer loop
    vertex -20.202100848498212 -163.1676949488547 138.66943507287002
    vertex -16.046657149628185 -163.16718063048387 138.55858652304624
    vertex -15.79154619204035 -163.1671490911339 139.13082150928335
  endloop
endfacet
facet normal 0.00012376813979096874 -0.9999999923407218 -6.161576133927167e-08
  outer loop
    vertex -20.202100848498212 -163.1676949488547 138.66943507287002
    vertex -15.79154619204035 -163.1671490911339 139.13082150928335
    vertex -20.426341396532766 -163.16772273873667 139.2544570015144
  endloop
endfacet
facet normal 0.00012376813979096874 -0.9999999923407218 -6.161576133927167e-08
  outer loop
    vertex -20.426341396532766 -163.16772273873667 139.2544570015144
    vertex -15.79154619204035 -163.1671490911339 139.13082150928335
    vertex -15.693233241114202 -163.16713696124816 139.74958563613865
  endloop
endfacet
facet normal 0.00012376813979096874 -0.9999999923407218 -6.161576133927167e-08
  outer loop
    vertex -20.426341396532766 -163.16772273873667 139.2544570015144
    vertex -15.693233241114202 -163.16713696124816 139.74958563613865
    vertex -20.4915263174041 -163.16773084494756 139.87758251629865
  endloop
endfacet
facet normal 0.00012376813979096874 -0.9999999923407218 -6.161576133927167e-08
  outer loop
    vertex -20.4915263174041 -163.16773084494756 139.87758251629865
    vertex -15.693233241114202 -163.16713696124816 139.74958563613865
    vertex -15.758418161985514 -163.16714506745907 140.372711150923
  endloop
endfacet
facet normal 0.00012376813979096874 -0.9999999923407218 -6.161576133927167e-08
  outer loop
    vertex -20.4915263174041 -163.16773084494756 139.87758251629865
    vertex -15.758418161985514 -163.16714506745907 140.372711150923
    vertex -20.39321336647795 -163.16771871506225 140.49634664315403
  endloop
endfacet
facet normal 0.00012376813979096874 -0.9999999923407218 -6.161576133927167e-08
  outer loop
    vertex -20.39321336647795 -163.16771871506225 140.49634664315403
    vertex -15.758418161985514 -163.16714506745907 140.372711150923
    vertex -15.98265871002006 -163.16717285734146 140.95773307956745
  endloop
endfacet
facet normal 0.00012376813979096874 -0.9999999923407218 -6.161576133927167e-08
  outer loop
    vertex -20.39321336647795 -163.16771871506225 140.49634664315403
    vertex -15.98265871002006 -163.16717285734146 140.95773307956745
    vertex -20.1381024088901 -163.16768717571188 141.06858162939105
  endloop
endfacet
facet normal 0.00012376813979096874 -0.9999999923407218 -6.161576133927167e-08
  outer loop
    vertex -20.1381024088901 -163.16768717571188 141.06858162939105
    vertex -15.98265871002006 -163.16717285734146 140.95773307956745
    vertex -16.35067326244438 -163.16721843706034 141.46478314442922
  endloop
endfacet
facet normal 0.00012376813979096874 -0.9999999923407218 -6.161576133927167e-08
  outer loop
    vertex -20.1381024088901 -163.16768717571188 141.06858162939105
    vertex -16.35067326244438 -163.16721843706034 141.46478314442922
    vertex -19.74357883480943 -163.16763837625174 141.55529060636118
  endloop
endfacet
facet normal 0.00012376813979096874 -0.9999999923407218 -6.161576133927167e-08
  outer loop
    vertex -19.74357883480943 -163.16763837625174 141.55529060636118
    vertex -16.35067326244438 -163.16721843706034 141.46478314442922
    vertex -16.8373822356835 -163.16727870043385 141.85930672152804
  endloop
endfacet
facet normal 0.00012376813979096874 -0.9999999923407218 -6.161576133927167e-08
  outer loop
    vertex -19.74357883480943 -163.16763837625174 141.55529060636118
    vertex -16.8373822356835 -163.16727870043385 141.85930672152804
    vertex -19.23652877382842 -163.16757564228354 141.92330516160806
  endloop
endfacet
facet normal 0.00012376813979096874 -0.9999999923407218 -6.161576133927167e-08
  outer loop
    vertex -19.23652877382842 -163.16757564228354 141.92330516160806
    vertex -16.8373822356835 -163.16727870043385 141.85930672152804
    vertex -17.40961721753579 -163.16734954061286 142.11441768106565
  endloop
endfacet
facet normal 0.00012376813979096874 -0.9999999923407218 -6.161576133927167e-08
  outer loop
    vertex -19.23652877382842 -163.16757564228354 141.92330516160806
    vertex -17.40961721753579 -163.16734954061286 142.11441768106565
    vertex -18.651506849663182 -163.1675032490249 142.14754571136447
  endloop
endfacet
facet normal 0.00012376813979096874 -0.9999999923407218 -6.161576133927167e-08
  outer loop
    vertex -18.651506849663182 -163.1675032490249 142.14754571136447
    vertex -17.40961721753579 -163.16734954061286 142.11441768106565
    vertex -18.02838133965105 -163.16742612995543 142.21273063273986
  endloop
endfacet
facet normal 0.00012376813979905174 -0.9999999923407218 -6.161574769802852e-08
  outer loop
    vertex -11.229422105976614 -163.16741078376134 126.13726475431895
    vertex -12.462789690381655 -163.1675634445527 126.2862336330721
    vertex -11.855911960579942 -163.16748832283278 126.13056123160833
  endloop
endfacet
facet normal 0.00012376813979905174 -0.9999999923407218 -6.161574769802852e-08
  outer loop
    vertex -12.462789690381655 -163.1675634445527 126.2862336330721
    vertex -11.229422105976614 -163.16741078376134 126.13726475431895
    vertex -10.62601437483946 -163.16733611149814 126.30588736720912
  endloop
endfacet
facet normal 0.00012376813979905174 -0.9999999923407218 -6.161574769802852e-08
  outer loop
    vertex -12.462789690381655 -163.1675634445527 126.2862336330721
    vertex -10.62601437483946 -163.16733611149814 126.30588736720912
    vertex -13.008697581008587 -163.16763102950046 126.59367314181043
  endloop
endfacet
facet normal 0.00012376813979905174 -0.9999999923407218 -6.161574769802852e-08
  outer loop
    vertex -13.008697581008587 -163.16763102950046 126.59367314181043
    vertex -10.62601437483946 -163.16733611149814 126.30588736720912
    vertex -10.086810006866981 -163.16726939483456 126.62493771787223
  endloop
endfacet
facet normal 0.00012376813979905174 -0.9999999923407218 -6.161574769802852e-08
  outer loop
    vertex -13.008697581008587 -163.16763102950046 126.59367314181043
    vertex -10.086810006866981 -163.16726939483456 126.62493771787223
    vertex -13.456432911870023 -163.16768647187328 127.03192826337155
  endloop
endfacet
facet normal 0.00012376813979905174 -0.9999999923407218 -6.161574769802852e-08
  outer loop
    vertex -13.456432911870023 -163.16768647187328 127.03192826337155
    vertex -10.086810006866981 -163.16726939483456 126.62493771787223
    vertex -9.64855488865923 -163.167215180401 127.07267305216632
  endloop
endfacet
facet normal 0.00012376813979905174 -0.9999999923407218 -6.161574769802852e-08
  outer loop
    vertex -13.456432911870023 -163.16768647187328 127.03192826337155
    vertex -9.64855488865923 -163.167215180401 127.07267305216632
    vertex -13.775483260085327 -163.16772599336548 127.5711326354714
  endloop
endfacet
facet normal 0.00012376813979905174 -0.9999999923407218 -6.161574769802852e-08
  outer loop
    vertex -13.775483260085327 -163.16772599336548 127.5711326354714
    vertex -9.64855488865923 -163.167215180401 127.07267305216632
    vertex -9.341115382271223 -163.16717716282113 127.61858094697678
  endloop
endfacet
facet normal 0.00012376813979905174 -0.9999999923407218 -6.161574769802852e-08
  outer loop
    vertex -13.775483260085327 -163.16772599336548 127.5711326354714
    vertex -9.341115382271223 -163.16717716282113 127.61858094697678
    vertex -13.944105871679273 -163.16774690065205 128.17454037122923
  endloop
endfacet
facet normal 0.00012376813979905174 -0.9999999923407218 -6.161574769802852e-08
  outer loop
    vertex -13.944105871679273 -163.16774690065205 128.17454037122923
    vertex -9.341115382271223 -163.16717716282113 127.61858094697678
    vertex -9.185442981995452 -163.16715793293093 128.22545868142794
  endloop
endfacet
facet normal 0.00012376813979905174 -0.9999999923407218 -6.161574769802852e-08
  outer loop
    vertex -13.944105871679273 -163.16774690065205 128.17454037122923
    vertex -9.185442981995452 -163.16715793293093 128.22545868142794
    vertex -13.950809394333753 -163.1677477689362 128.8010302306307
  endloop
endfacet
facet normal 0.00012376813979905174 -0.9999999923407218 -6.161574769802852e-08
  outer loop
    vertex -13.950809394333753 -163.1677477689362 128.8010302306307
    vertex -9.185442981995452 -163.16715793293093 128.22545868142794
    vertex -9.192146504649974 -163.16715880121512 128.85194854082962
  endloop
endfacet
facet normal 0.00012376813979905174 -0.9999999923407218 -6.161574769802852e-08
  outer loop
    vertex -13.950809394333753 -163.1677477689362 128.8010302306307
    vertex -9.192146504649974 -163.16715880121512 128.85194854082962
    vertex -13.79513699405802 -163.16772853904584 129.40790796508182
  endloop
endfacet
facet normal 0.00012376813979905174 -0.9999999923407218 -6.161574769802852e-08
  outer loop
    vertex -13.79513699405802 -163.16772853904584 129.40790796508182
    vertex -9.192146504649974 -163.16715880121512 128.85194854082962
    vertex -9.36076911624391 -163.16717970850172 129.4553562765872
  endloop
endfacet
facet normal 0.00012376813979905174 -0.9999999923407218 -6.161574769802852e-08
  outer loop
    vertex -13.79513699405802 -163.16772853904584 129.40790796508182
    vertex -9.36076911624391 -163.16717970850172 129.4553562765872
    vertex -13.48769748766999 -163.16769052146614 129.95381585989236
  endloop
endfacet
facet normal 0.00012376813979905174 -0.9999999923407218 -6.161574769802852e-08
  outer loop
    vertex -13.48769748766999 -163.16769052146614 129.95381585989236
    vertex -9.36076911624391 -163.16717970850172 129.4553562765872
    vertex -9.679819464459197 -163.16721922999366 129.99456064868716
  endloop
endfacet
facet normal 0.00012376813979905174 -0.9999999923407218 -6.161574769802852e-08
  outer loop
    vertex -13.48769748766999 -163.16769052146614 129.95381585989236
    vertex -9.679819464459197 -163.16721922999366 129.99456064868716
    vertex -13.04944236946222 -163.1676363070324 130.40155119418648
  endloop
endfacet
facet normal 0.00012376813979905174 -0.9999999923407218 -6.161574769802852e-08
  outer loop
    vertex -13.04944236946222 -163.1676363070324 130.40155119418648
    vertex -9.679819464459197 -163.16721922999366 129.99456064868716
    vertex -10.127554795320616 -163.16727467236655 130.43281577024825
  endloop
endfacet
facet normal 0.00012376813979905174 -0.9999999923407218 -6.161574769802852e-08
  outer loop
    vertex -13.04944236946222 -163.1676363070324 130.40155119418648
    vertex -10.127554795320616 -163.16727467236655 130.43281577024825
    vertex -12.510238001489792 -163.16756959036883 130.72060154484956
  endloop
endfacet
facet normal 0.00012376813979905174 -0.9999999923407218 -6.161574769802852e-08
  outer loop
    vertex -12.510238001489792 -163.16756959036883 130.72060154484956
    vertex -10.127554795320616 -163.16727467236655 130.43281577024825
    vertex -10.673462685947566 -163.1673422573143 130.74025527898678
  endloop
endfacet
facet normal 0.00012376813979905174 -0.9999999923407218 -6.161574769802852e-08
  outer loop
    vertex -12.510238001489792 -163.16756959036883 130.72060154484956
    vertex -10.673462685947566 -163.1673422573143 130.74025527898678
    vertex -11.906830270352586 -163.1674949181058 130.88922415773965
  endloop
endfacet
facet normal 0.00012376813979905174 -0.9999999923407218 -6.161574769802852e-08
  outer loop
    vertex -11.906830270352586 -163.1674949181058 130.88922415773965
    vertex -10.673462685947566 -163.1673422573143 130.74025527898678
    vertex -11.28034041574926 -163.16741737903428 130.89592768045026
  endloop
endfacet
endsolid pedro_robot
