solid pedro_robot
facet normal 0.9999998860305055 -1.0940472227975828e-05 0.0004773041818786792
  outer loop
    vertex -2.8229103233388373 -409.36045646908116 71.15044134224964
    vertex -2.82442907922345 -407.68604011046943 74.37149844019967
    vertex -2.8244477022930337 -409.3606063874758 74.37140021327819
  endloop
endfacet
facet normal 0.9999998860305055 -1.0940472227975828e-05 0.0004773041818786792
  outer loop
    vertex -2.82442907922345 -407.68604011046943 74.37149844019967
    vertex -2.8229103233388373 -409.36045646908116 71.15044134224964
    vertex -2.8228917002692646 -407.6858901920748 71.15053956917102
  endloop
endfacet
facet normal -0.9999998860305055 1.0940472228590963e-05 -0.0004773041818783419
  outer loop
    vertex -20.39268474199947 -407.68584790543446 74.36311303734783
    vertex -20.391165986114867 -409.3602642640462 71.14205593939782
    vertex -20.392703365069053 -409.3604141824407 74.36301481042639
  endloop
endfacet
facet normal -0.9999998860305055 1.0940472228590963e-05 -0.0004773041818783419
  outer loop
    vertex -20.391165986114867 -409.3602642640462 71.14205593939782
    vertex -20.39268474199947 -407.68584790543446 74.36311303734783
    vertex -20.391147363045278 -407.6856979870397 71.1421541663192
  endloop
endfacet
facet normal -0.4995803554428452 4.249698356723099e-05 -0.8662675491149411
  outer loop
    vertex -11.599757975931796 -407.68508593338925 55.93179043344574
    vertex -8.824410827982188 -409.3596999495453 54.33116606491161
    vertex -11.59977659900137 -409.35965221039527 55.93169220652434
  endloop
endfacet
facet normal -0.4995803554428452 4.249698356723099e-05 -0.8662675491149411
  outer loop
    vertex -8.824410827982188 -409.3596999495453 54.33116606491161
    vertex -11.599757975931796 -407.68508593338925 55.93179043344574
    vertex -8.8243692908681 -407.68513367067294 54.331198246622314
  endloop
endfacet
facet normal 0.49958662888725136 -4.5750754542970796e-05 0.8662639309955946
  outer loop
    vertex -0.04594443652815065 -409.36041223989736 69.548978963941
    vertex -2.8228917002692646 -407.6858901920748 71.15053956917102
    vertex -2.8229103233388373 -409.36045646908116 71.15044134224964
  endloop
endfacet
facet normal 0.49958662888725136 -4.5750754542970796e-05 0.8662639309955946
  outer loop
    vertex -2.8228917002692646 -407.6858901920748 71.15053956917102
    vertex -0.04594443652815065 -409.36041223989736 69.548978963941
    vertex -0.04590289941405665 -407.68584596102494 69.54901114565155
  endloop
endfacet
facet normal -0.5004179007476321 -3.233749063189416e-05 0.8657839935951805
  outer loop
    vertex -23.162364311936052 -409.36030830381054 69.5403264477967
    vertex -20.391147363045278 -407.6856979870397 71.1421541663192
    vertex -23.162368541902612 -407.68550120674934 69.54035862115522
  endloop
endfacet
facet normal -0.5004179007476321 -3.233749063189416e-05 0.8657839935951805
  outer loop
    vertex -20.391147363045278 -407.6856979870397 71.1421541663192
    vertex -23.162364311936052 -409.36030830381054 69.5403264477967
    vertex -20.391165986114867 -409.3602642640462 71.14205593939782
  endloop
endfacet
facet normal 0.5004132645254102 3.4838607637713374e-05 -0.8657866731899337
  outer loop
    vertex -11.599757975931796 -407.68508593338925 55.93179043344574
    vertex -14.372566541270562 -409.35978815157756 54.329056213367245
    vertex -14.372570771237125 -407.6849810545162 54.329088386725765
  endloop
endfacet
facet normal 0.5004132645254102 3.4838607637713374e-05 -0.8657866731899337
  outer loop
    vertex -14.372566541270562 -409.35978815157756 54.329056213367245
    vertex -11.599757975931796 -407.68508593338925 55.93179043344574
    vertex -11.59977659900137 -409.35965221039527 55.93169220652434
  endloop
endfacet
facet normal -1.0912370102395857e-05 -0.9999999982070723 -5.88793301101107e-05
  outer loop
    vertex -0.04594443652815065 -409.36041223989736 69.548978963941
    vertex -11.59977659900137 -409.35965221039527 55.93169220652434
    vertex -8.824410827982188 -409.3596999495453 54.33116606491161
  endloop
endfacet
facet normal -1.0912370102395857e-05 -0.9999999982070723 -5.88793301101107e-05
  outer loop
    vertex -11.59977659900137 -409.35965221039527 55.93169220652434
    vertex -23.162364311936052 -409.36030830381054 69.5403264477967
    vertex -14.372566541270562 -409.35978815157756 54.329056213367245
  endloop
endfacet
facet normal -1.0912370102395857e-05 -0.9999999982070723 -5.88793301101107e-05
  outer loop
    vertex -23.162364311936052 -409.36030830381054 69.5403264477967
    vertex -11.59977659900137 -409.35965221039527 55.93169220652434
    vertex -0.04594443652815065 -409.36041223989736 69.548978963941
  endloop
endfacet
facet normal -1.0912370102395857e-05 -0.9999999982070723 -5.88793301101107e-05
  outer loop
    vertex -23.162364311936052 -409.36030830381054 69.5403264477967
    vertex -0.04594443652815065 -409.36041223989736 69.548978963941
    vertex -2.8229103233388373 -409.36045646908116 71.15044134224964
  endloop
endfacet
facet normal -1.0912370102395857e-05 -0.9999999982070723 -5.88793301101107e-05
  outer loop
    vertex -23.162364311936052 -409.36030830381054 69.5403264477967
    vertex -2.8229103233388373 -409.36045646908116 71.15044134224964
    vertex -20.391165986114867 -409.3602642640462 71.14205593939782
  endloop
endfacet
facet normal -1.0912370102395857e-05 -0.9999999982070723 -5.88793301101107e-05
  outer loop
    vertex -20.391165986114867 -409.3602642640462 71.14205593939782
    vertex -2.8229103233388373 -409.36045646908116 71.15044134224964
    vertex -2.8244477022930337 -409.3606063874758 74.37140021327819
  endloop
endfacet
facet normal -1.0912370102395857e-05 -0.9999999982070723 -5.88793301101107e-05
  outer loop
    vertex -20.391165986114867 -409.3602642640462 71.14205593939782
    vertex -2.8244477022930337 -409.3606063874758 74.37140021327819
    vertex -20.392703365069053 -409.3604141824407 74.36301481042639
  endloop
endfacet
facet normal 1.427964735365096e-05 0.9999999983683733 5.531134689803567e-05
  outer loop
    vertex -23.162368541902612 -407.68550120674934 69.54035862115522
    vertex -11.599757975931796 -407.68508593338925 55.93179043344574
    vertex -14.372570771237125 -407.6849810545162 54.329088386725765
  endloop
endfacet
facet normal 1.427964735365096e-05 0.9999999983683733 5.531134689803567e-05
  outer loop
    vertex -11.599757975931796 -407.68508593338925 55.93179043344574
    vertex -23.162368541902612 -407.68550120674934 69.54035862115522
    vertex -0.04590289941405665 -407.68584596102494 69.54901114565155
  endloop
endfacet
facet normal 1.427964735365096e-05 0.9999999983683733 5.531134689803567e-05
  outer loop
    vertex -0.04590289941405665 -407.68584596102494 69.54901114565155
    vertex -23.162368541902612 -407.68550120674934 69.54035862115522
    vertex -2.8228917002692646 -407.6858901920748 71.15053956917102
  endloop
endfacet
facet normal 1.427964735365096e-05 0.9999999983683733 5.531134689803567e-05
  outer loop
    vertex -2.8228917002692646 -407.6858901920748 71.15053956917102
    vertex -23.162368541902612 -407.68550120674934 69.54035862115522
    vertex -20.391147363045278 -407.6856979870397 71.1421541663192
  endloop
endfacet
facet normal 1.427964735365096e-05 0.9999999983683733 5.531134689803567e-05
  outer loop
    vertex -2.8228917002692646 -407.6858901920748 71.15053956917102
    vertex -20.391147363045278 -407.6856979870397 71.1421541663192
    vertex -2.82442907922345 -407.68604011046943 74.37149844019967
  endloop
endfacet
facet normal 1.427964735365096e-05 0.9999999983683733 5.531134689803567e-05
  outer loop
    vertex -2.82442907922345 -407.68604011046943 74.37149844019967
    vertex -20.391147363045278 -407.6856979870397 71.1421541663192
    vertex -20.39268474199947 -407.68584790543446 74.36311303734783
  endloop
endfacet
facet normal 1.427964735365096e-05 0.9999999983683733 5.531134689803567e-05
  outer loop
    vertex -0.04590289941405665 -407.68584596102494 69.54901114565155
    vertex -8.8243692908681 -407.68513367067294 54.331198246622314
    vertex -11.599757975931796 -407.68508593338925 55.93179043344574
  endloop
endfacet
facet normal -0.0004773046906110719 -4.6544641981502355e-05 0.9999998850069076
  outer loop
    vertex -2.8244477022930337 -409.3606063874758 74.37140021327819
    vertex -20.39268474199947 -407.68584790543446 74.36311303734783
    vertex -20.392703365069053 -409.3604141824407 74.36301481042639
  endloop
endfacet
facet normal -0.0004773046906110719 -4.6544641981502355e-05 0.9999998850069076
  outer loop
    vertex -20.39268474199947 -407.68584790543446 74.36311303734783
    vertex -2.8244477022930337 -409.3606063874758 74.37140021327819
    vertex -2.82442907922345 -407.68604011046943 74.37149844019967
  endloop
endfacet
facet normal 0.8662112346888257 1.7137542660753058e-06 -0.49967799320754847
  outer loop
    vertex -8.824410827982188 -409.3596999495453 54.33116606491161
    vertex -0.04590289941405665 -407.68584596102494 69.54901114565155
    vertex -0.04594443652815065 -409.36041223989736 69.548978963941
  endloop
endfacet
facet normal 0.8662112346888257 1.7137542660753058e-06 -0.49967799320754847
  outer loop
    vertex -0.04590289941405665 -407.68584596102494 69.54901114565155
    vertex -8.824410827982188 -409.3596999495453 54.33116606491161
    vertex -8.8243692908681 -407.68513367067294 54.331198246622314
  endloop
endfacet
facet normal -0.8658388410881666 2.065694028564002e-05 -0.5003229965096463
  outer loop
    vertex -23.162368541902612 -407.68550120674934 69.54035862115522
    vertex -14.372566541270562 -409.35978815157756 54.329056213367245
    vertex -23.162364311936052 -409.36030830381054 69.5403264477967
  endloop
endfacet
facet normal -0.8658388410881666 2.065694028564002e-05 -0.5003229965096463
  outer loop
    vertex -14.372566541270562 -409.35978815157756 54.329056213367245
    vertex -23.162368541902612 -407.68550120674934 69.54035862115522
    vertex -14.372570771237125 -407.6849810545162 54.329088386725765
  endloop
endfacet
facet normal -0.0001411593850664722 0.9999999897866297 2.2377851288767908e-05
  outer loop
    vertex -22.961055697546232 -398.622822546169 68.99721262377724
    vertex -21.288978473528257 -398.62267142832326 68.95340777429263
    vertex -22.12790059466062 -398.62274478322206 68.86524362697773
  endloop
endfacet
facet normal -0.0001411593850664722 0.9999999897866297 2.2377851288767908e-05
  outer loop
    vertex -21.288978473528257 -398.62267142832326 68.95340777429263
    vertex -22.961055697546232 -398.622822546169 68.99721262377724
    vertex -20.501460490319968 -398.622607480487 69.25569682478016
  endloop
endfacet
facet normal -0.0001411593850664722 0.9999999897866297 2.2377851288767908e-05
  outer loop
    vertex -20.501460490319968 -398.622607480487 69.25569682478016
    vertex -22.961055697546232 -398.622822546169 68.99721262377724
    vertex -23.731665638777436 -398.6228994177469 69.34032129564845
  endloop
endfacet
facet normal -0.0001411593850664722 0.9999999897866297 2.2377851288767908e-05
  outer loop
    vertex -20.501460490319968 -398.622607480487 69.25569682478016
    vertex -23.731665638777436 -398.6228994177469 69.34032129564845
    vertex -19.819014694156447 -398.6225572976536 69.75151027920639
  endloop
endfacet
facet normal -0.0001411593850664722 0.9999999897866297 2.2377851288767908e-05
  outer loop
    vertex -19.819014694156447 -398.6225572976536 69.75151027920639
    vertex -23.731665638777436 -398.6228994177469 69.34032129564845
    vertex -24.38721462435242 -398.6229701592859 69.8711873536169
  endloop
endfacet
facet normal -0.0001411593850664722 0.9999999897866297 2.2377851288767908e-05
  outer loop
    vertex -19.819014694156447 -398.6225572976536 69.75151027920639
    vertex -24.38721462435242 -398.6229701592859 69.8711873536169
    vertex -19.2881486382512 -398.6225242996992 70.40705927002267
  endloop
endfacet
facet normal -0.0001411593850664722 0.9999999897866297 2.2377851288767908e-05
  outer loop
    vertex -19.2881486382512 -398.6225242996992 70.40705927002267
    vertex -24.38721462435242 -398.6229701592859 69.8711873536169
    vertex -24.883028074250095 -398.6230299498667 70.55363315312985
  endloop
endfacet
facet normal -0.0001411593850664722 0.9999999897866297 2.2377851288767908e-05
  outer loop
    vertex -19.2881486382512 -398.6225242996992 70.40705927002267
    vertex -24.883028074250095 -398.6230299498667 70.55363315312985
    vertex -18.945039967016537 -398.62251073538044 71.1776692168503
  endloop
endfacet
facet normal -0.0001411593850664722 0.9999999897866297 2.2377851288767908e-05
  outer loop
    vertex -18.945039967016537 -398.62251073538044 71.1776692168503
    vertex -24.883028074250095 -398.6230299498667 70.55363315312985
    vertex -25.185317121230494 -398.6230747148591 71.34115114074562
  endloop
endfacet
facet normal -0.0001411593850664722 0.9999999897866297 2.2377851288767908e-05
  outer loop
    vertex -18.945039967016537 -398.62251073538044 71.1776692168503
    vertex -25.185317121230494 -398.6230747148591 71.34115114074562
    vertex -18.813070969383208 -398.6225175290836 72.01082432530649
  endloop
endfacet
facet normal -0.0001411593850664722 0.9999999897866297 2.2377851288767908e-05
  outer loop
    vertex -18.813070969383208 -398.6225175290836 72.01082432530649
    vertex -25.185317121230494 -398.6230747148591 71.34115114074562
    vertex -25.273481266298162 -398.6231014036037 72.180073267043
  endloop
endfacet
facet normal -0.0001411593850664722 0.9999999897866297 2.2377851288767908e-05
  outer loop
    vertex -18.813070969383208 -398.6225175290836 72.01082432530649
    vertex -25.273481266298162 -398.6231014036037 72.180073267043
    vertex -18.901235114450827 -398.6225442178279 72.84974645160364
  endloop
endfacet
facet normal -0.0001411593850664722 0.9999999897866297 2.2377851288767908e-05
  outer loop
    vertex -18.901235114450827 -398.6225442178279 72.84974645160364
    vertex -25.273481266298162 -398.6231014036037 72.180073267043
    vertex -25.141512268664826 -398.6231081973066 73.01322837549911
  endloop
endfacet
facet normal -0.0001411593850664722 0.9999999897866297 2.2377851288767908e-05
  outer loop
    vertex -18.901235114450827 -398.6225442178279 72.84974645160364
    vertex -25.141512268664826 -398.6231081973066 73.01322837549911
    vertex -19.20352416143125 -398.6225889828211 73.63726443921917
  endloop
endfacet
facet normal -0.0001411593850664722 0.9999999897866297 2.2377851288767908e-05
  outer loop
    vertex -19.20352416143125 -398.6225889828211 73.63726443921917
    vertex -25.141512268664826 -398.6231081973066 73.01322837549911
    vertex -24.79840359743013 -398.62309463298806 73.78383832232679
  endloop
endfacet
facet normal -0.0001411593850664722 0.9999999897866297 2.2377851288767908e-05
  outer loop
    vertex -19.20352416143125 -398.6225889828211 73.63726443921917
    vertex -24.79840359743013 -398.62309463298806 73.78383832232679
    vertex -19.699337611328936 -398.62264877340124 74.31971023873218
  endloop
endfacet
facet normal -0.0001411593850664722 0.9999999897866297 2.2377851288767908e-05
  outer loop
    vertex -19.699337611328936 -398.62264877340124 74.31971023873218
    vertex -24.79840359743013 -398.62309463298806 73.78383832232679
    vertex -24.26753754152486 -398.62306163503405 74.43938731314262
  endloop
endfacet
facet normal -0.0001411593850664722 0.9999999897866297 2.2377851288767908e-05
  outer loop
    vertex -19.699337611328936 -398.62264877340124 74.31971023873218
    vertex -24.26753754152486 -398.62306163503405 74.43938731314262
    vertex -20.354886596903885 -398.6227195149402 74.85057629670064
  endloop
endfacet
facet normal -0.0001411593850664722 0.9999999897866297 2.2377851288767908e-05
  outer loop
    vertex -20.354886596903885 -398.6227195149402 74.85057629670064
    vertex -24.26753754152486 -398.62306163503405 74.43938731314262
    vertex -23.585091745361353 -398.6230114522003 74.93520076756876
  endloop
endfacet
facet normal -0.0001411593850664722 0.9999999897866297 2.2377851288767908e-05
  outer loop
    vertex -20.354886596903885 -398.6227195149402 74.85057629670064
    vertex -23.585091745361353 -398.6230114522003 74.93520076756876
    vertex -21.125496538135046 -398.62279638651836 75.19368496857182
  endloop
endfacet
facet normal -0.0001411593850664722 0.9999999897866297 2.2377851288767908e-05
  outer loop
    vertex -21.125496538135046 -398.62279638651836 75.19368496857182
    vertex -23.585091745361353 -398.6230114522003 74.93520076756876
    vertex -22.79757376215307 -398.6229475043643 75.23748981805659
  endloop
endfacet
facet normal -0.0001411593850664722 0.9999999897866297 2.2377851288767908e-05
  outer loop
    vertex -21.125496538135046 -398.62279638651836 75.19368496857182
    vertex -22.79757376215307 -398.6229475043643 75.23748981805659
    vertex -21.95865164102071 -398.6228741494654 75.32565396537134
  endloop
endfacet
facet normal -0.00014115938512562241 0.9999999897866297 2.2377851266685952e-05
  outer loop
    vertex -2.3254986567924165 -398.62206639339183 69.08625206377613
    vertex -0.6618471879718568 -398.62191313493304 68.91297512444748
    vertex -1.50507909344804 -398.6219883378082 68.89010165789885
  endloop
endfacet
facet normal -0.00014115938512562241 0.9999999897866297 2.2377851266685952e-05
  outer loop
    vertex -0.6618471879718568 -398.62191313493304 68.91297512444748
    vertex -2.3254986567924165 -398.62206639339183 69.08625206377613
    vertex 0.1467321987845163 -398.62184590971697 69.15331367447651
  endloop
endfacet
facet normal -0.00014115938512562241 0.9999999897866297 2.2377851266685952e-05
  outer loop
    vertex 0.1467321987845163 -398.62184590971697 69.15331367447651
    vertex -2.3254986567924165 -398.62206639339183 69.08625206377613
    vertex -3.067195640570506 -398.62214198232357 69.48805901607241
  endloop
endfacet
facet normal -0.00014115938512562241 0.9999999897866297 2.2377851266685952e-05
  outer loop
    vertex 0.1467321987845163 -398.62184590971697 69.15331367447651
    vertex -3.067195640570506 -398.62214198232357 69.48805901607241
    vertex 0.8655557178542247 -398.62179124344755 69.59473863297976
  endloop
endfacet
facet normal -0.00014115938512562241 0.9999999897866297 2.2377851266685952e-05
  outer loop
    vertex 0.8655557178542247 -398.62179124344755 69.59473863297976
    vertex -3.067195640570506 -398.62214198232357 69.48805901607241
    vertex -3.6796246210501242 -398.62220995334366 70.0681400350064
  endloop
endfacet
facet normal -0.00014115938512562241 0.9999999897866297 2.2377851266685952e-05
  outer loop
    vertex 0.8655557178542247 -398.62179124344755 69.59473863297976
    vertex -3.6796246210501242 -398.62220995334366 70.0681400350064
    vertex 1.4456367343247198 -398.62175286154076 70.20716761852478
  endloop
endfacet
facet normal -0.00014115938512562241 0.9999999897866297 2.2377851266685952e-05
  outer loop
    vertex 1.4456367343247198 -398.62175286154076 70.20716761852478
    vertex -3.6796246210501242 -398.62220995334366 70.0681400350064
    vertex -4.1210495752982474 -398.6222656743388 70.78696355776648
  endloop
endfacet
facet normal -0.00014115938512562241 0.9999999897866297 2.2377851266685952e-05
  outer loop
    vertex 1.4456367343247198 -398.62175286154076 70.20716761852478
    vertex -4.1210495752982474 -398.6222656743388 70.78696355776648
    vertex 1.8474436855527794 -398.62173337966067 70.94886460783314
  endloop
endfacet
facet normal -0.00014115938512562241 0.9999999897866297 2.2377851266685952e-05
  outer loop
    vertex 1.8474436855527794 -398.62173337966067 70.94886460783314
    vertex -4.1210495752982474 -398.6222656743388 70.78696355776648
    vertex -4.361388122172155 -398.6223053480153 71.59554294918888
  endloop
endfacet
facet normal -0.00014115938512562241 0.9999999897866297 2.2377851266685952e-05
  outer loop
    vertex 1.8474436855527794 -398.62173337966067 70.94886460783314
    vertex -4.361388122172155 -398.6223053480153 71.59554294918888
    vertex 2.0435940918295086 -398.6217341254643 71.76928417679618
  endloop
endfacet
facet normal -0.00014115938512562241 0.9999999897866297 2.2377851266685952e-05
  outer loop
    vertex 2.0435940918295086 -398.6217341254643 71.76928417679618
    vertex -4.361388122172155 -398.6223053480153 71.59554294918888
    vertex -4.384261586880561 -398.6223262706781 72.43877485998831
  endloop
endfacet
facet normal -0.00014115938512562241 0.9999999897866297 2.2377851266685952e-05
  outer loop
    vertex 2.0435940918295086 -398.6217341254643 71.76928417679618
    vertex -4.384261586880561 -398.6223262706781 72.43877485998831
    vertex 2.0207206271211167 -398.62175504812683 72.61251608759572
  endloop
endfacet
facet normal -0.00014115938512562241 0.9999999897866297 2.2377851266685952e-05
  outer loop
    vertex 2.0207206271211167 -398.62175504812683 72.61251608759572
    vertex -4.384261586880561 -398.6223262706781 72.43877485998831
    vertex -4.188111180603784 -398.6223270164814 73.25919442895123
  endloop
endfacet
facet normal -0.00014115938512562241 0.9999999897866297 2.2377851266685952e-05
  outer loop
    vertex 2.0207206271211167 -398.62175504812683 72.61251608759572
    vertex -4.188111180603784 -398.6223270164814 73.25919442895123
    vertex 1.7803820802472325 -398.62179472180316 73.42109547901786
  endloop
endfacet
facet normal -0.00014115938512562241 0.9999999897866297 2.2377851266685952e-05
  outer loop
    vertex 1.7803820802472325 -398.62179472180316 73.42109547901786
    vertex -4.188111180603784 -398.6223270164814 73.25919442895123
    vertex -3.7863042293757663 -398.62230753460113 74.00089141825956
  endloop
endfacet
facet normal -0.00014115938512562241 0.9999999897866297 2.2377851266685952e-05
  outer loop
    vertex 1.7803820802472325 -398.62179472180316 73.42109547901786
    vertex -3.7863042293757663 -398.62230753460113 74.00089141825956
    vertex 1.3389571259991118 -398.62185044279835 74.13991900177788
  endloop
endfacet
facet normal -0.00014115938512562241 0.9999999897866297 2.2377851266685952e-05
  outer loop
    vertex 1.3389571259991118 -398.62185044279835 74.13991900177788
    vertex -3.7863042293757663 -398.62230753460113 74.00089141825956
    vertex -3.206223212905268 -398.6222691526945 74.61332040380455
  endloop
endfacet
facet normal -0.00014115938512562241 0.9999999897866297 2.2377851266685952e-05
  outer loop
    vertex 1.3389571259991118 -398.62185044279835 74.13991900177788
    vertex -3.206223212905268 -398.6222691526945 74.61332040380455
    vertex 0.7265281455194651 -398.6219184138184 74.72000002071202
  endloop
endfacet
facet normal -0.00014115938512562241 0.9999999897866297 2.2377851266685952e-05
  outer loop
    vertex 0.7265281455194651 -398.6219184138184 74.72000002071202
    vertex -3.206223212905268 -398.6222691526945 74.61332040380455
    vertex -2.4873996938355596 -398.6222144864251 75.05474536230803
  endloop
endfacet
facet normal -0.00014115938512562241 0.9999999897866297 2.2377851266685952e-05
  outer loop
    vertex 0.7265281455194651 -398.6219184138184 74.72000002071202
    vertex -2.4873996938355596 -398.6222144864251 75.05474536230803
    vertex -0.015168838258640904 -398.62199400275006 75.12180697300835
  endloop
endfacet
facet normal -0.00014115938512562241 0.9999999897866297 2.2377851266685952e-05
  outer loop
    vertex -0.015168838258640904 -398.62199400275006 75.12180697300835
    vertex -2.4873996938355596 -398.6222144864251 75.05474536230803
    vertex -1.6788203070792065 -398.62214726120914 75.29508391233693
  endloop
endfacet
facet normal -0.00014115938512562241 0.9999999897866297 2.2377851266685952e-05
  outer loop
    vertex -0.015168838258640904 -398.62199400275006 75.12180697300835
    vertex -1.6788203070792065 -398.62214726120914 75.29508391233693
    vertex -0.8355884016030373 -398.62207205833334 75.31795737888554
  endloop
endfacet
facet normal -0.000141159385085386 0.9999999897866297 2.2377851260515605e-05
  outer loop
    vertex -12.802497059257805 -398.6228923419125 51.0242692088012
    vertex -11.141819310575535 -398.62273875749895 50.82449302805192
    vertex -11.985308701629636 -398.6228142843588 50.815064931053
  endloop
endfacet
facet normal -0.000141159385085386 0.9999999897866297 2.2377851260515605e-05
  outer loop
    vertex -11.141819310575535 -398.62273875749895 50.82449302805192
    vertex -12.802497059257805 -398.6228923419125 51.0242692088012
    vertex -10.32951129416373 -398.62267090836394 51.051910990567954
  endloop
endfacet
facet normal -0.000141159385085386 0.9999999897866297 2.2377851260515605e-05
  outer loop
    vertex -10.32951129416373 -398.62267090836394 51.051910990567954
    vertex -12.802497059257805 -398.6228923419125 51.0242692088012
    vertex -13.537694347355355 -398.6229676106666 51.43784893549382
  endloop
endfacet
facet normal -0.000141159385085386 0.9999999897866297 2.2377851260515605e-05
  outer loop
    vertex -10.32951129416373 -398.62267090836394 51.051910990567954
    vertex -13.537694347355355 -398.6229676106666 51.43784893549382
    vertex -9.603742101310232 -398.6226153607597 51.48182066028161
  endloop
endfacet
facet normal -0.000141159385085386 0.9999999897866297 2.2377851260515605e-05
  outer loop
    vertex -9.603742101310232 -398.6226153607597 51.48182066028161
    vertex -13.537694347355355 -398.6229676106666 51.43784893549382
    vertex -14.140798085709331 -398.6230349611799 52.02761933622997
  endloop
endfacet
facet normal -0.000141159385085386 0.9999999897866297 2.2377851260515605e-05
  outer loop
    vertex -9.603742101310232 -398.6226153607597 51.48182066028161
    vertex -14.140798085709331 -398.6230349611799 52.02761933622997
    vertex -9.01397170311768 -398.6225759001637 52.08492440366113
  endloop
endfacet
facet normal -0.000141159385085386 0.9999999897866297 2.2377851260515605e-05
  outer loop
    vertex -9.01397170311768 -398.6225759001637 52.08492440366113
    vertex -14.140798085709331 -398.6230349611799 52.02761933622997
    vertex -14.570707751227 -398.62308980362684 52.75338853284117
  endloop
endfacet
facet normal -0.000141159385085386 0.9999999897866297 2.2377851260515605e-05
  outer loop
    vertex -9.01397170311768 -398.6225759001637 52.08492440366113
    vertex -14.570707751227 -398.62308980362684 52.75338853284117
    vertex -8.600391977581285 -398.6225552157508 52.82012169727107
  endloop
endfacet
facet normal -0.000141159385085386 0.9999999897866297 2.2377851260515605e-05
  outer loop
    vertex -8.600391977581285 -398.6225552157508 52.82012169727107
    vertex -14.570707751227 -398.62308980362684 52.75338853284117
    vertex -14.798125710662633 -398.6231284005843 53.56569655396889
  endloop
endfacet
facet normal -0.000141159385085386 0.9999999897866297 2.2377851260515605e-05
  outer loop
    vertex -8.600391977581285 -398.6225552157508 52.82012169727107
    vertex -14.798125710662633 -398.6231284005843 53.56569655396889
    vertex -8.391187699523453 -398.6225547171288 53.63731006052344
  endloop
endfacet
facet normal -0.000141159385085386 0.9999999897866297 2.2377851260515605e-05
  outer loop
    vertex -8.391187699523453 -398.6225547171288 53.63731006052344
    vertex -14.798125710662633 -398.6231284005843 53.56569655396889
    vertex -14.807553805906666 -398.62314812173423 54.40918595037498
  endloop
endfacet
facet normal -0.000141159385085386 0.9999999897866297 2.2377851260515605e-05
  outer loop
    vertex -8.391187699523453 -398.6225547171288 53.63731006052344
    vertex -14.807553805906666 -398.62314812173423 54.40918595037498
    vertex -8.400615794767461 -398.622574438279 54.48079945692986
  endloop
endfacet
facet normal -0.000141159385085386 0.9999999897866297 2.2377851260515605e-05
  outer loop
    vertex -8.400615794767461 -398.622574438279 54.48079945692986
    vertex -14.807553805906666 -398.62314812173423 54.40918595037498
    vertex -14.598349527848855 -398.62314762311286 55.226374313627176
  endloop
endfacet
facet normal -0.000141159385085386 0.9999999897866297 2.2377851260515605e-05
  outer loop
    vertex -8.400615794767461 -398.622574438279 54.48079945692986
    vertex -14.598349527848855 -398.62314762311286 55.226374313627176
    vertex -8.628033754203111 -398.6226130352368 55.293107478057095
  endloop
endfacet
facet normal -0.000141159385085386 0.9999999897866297 2.2377851260515605e-05
  outer loop
    vertex -8.628033754203111 -398.6226130352368 55.293107478057095
    vertex -14.598349527848855 -398.62314762311286 55.226374313627176
    vertex -14.184769802312422 -398.6231269386996 55.96157160723734
  endloop
endfacet
facet normal -0.000141159385085386 0.9999999897866297 2.2377851260515605e-05
  outer loop
    vertex -8.628033754203111 -398.6226130352368 55.293107478057095
    vertex -14.184769802312422 -398.6231269386996 55.96157160723734
    vertex -9.05794341972078 -398.6226678776837 56.01887667466836
  endloop
endfacet
facet normal -0.000141159385085386 0.9999999897866297 2.2377851260515605e-05
  outer loop
    vertex -9.05794341972078 -398.6226678776837 56.01887667466836
    vertex -14.184769802312422 -398.6231269386996 55.96157160723734
    vertex -13.594999404119871 -398.6230874781041 56.56467535061685
  endloop
endfacet
facet normal -0.000141159385085386 0.9999999897866297 2.2377851260515605e-05
  outer loop
    vertex -9.05794341972078 -398.6226678776837 56.01887667466836
    vertex -13.594999404119871 -398.6230874781041 56.56467535061685
    vertex -9.661047158074744 -398.62273522819703 56.608647075404775
  endloop
endfacet
facet normal -0.000141159385085386 0.9999999897866297 2.2377851260515605e-05
  outer loop
    vertex -9.661047158074744 -398.62273522819703 56.608647075404775
    vertex -13.594999404119871 -398.6230874781041 56.56467535061685
    vertex -12.869230211266368 -398.62303193049996 56.994585020330405
  endloop
endfacet
facet normal -0.000141159385085386 0.9999999897866297 2.2377851260515605e-05
  outer loop
    vertex -9.661047158074744 -398.62273522819703 56.608647075404775
    vertex -12.869230211266368 -398.62303193049996 56.994585020330405
    vertex -10.396244446172286 -398.6228104969512 57.02222680209752
  endloop
endfacet
facet normal -0.000141159385085386 0.9999999897866297 2.2377851260515605e-05
  outer loop
    vertex -10.396244446172286 -398.6228104969512 57.02222680209752
    vertex -12.869230211266368 -398.62303193049996 56.994585020330405
    vertex -12.056922194854561 -398.6229640813644 57.222002982846334
  endloop
endfacet
facet normal -0.000141159385085386 0.9999999897866297 2.2377851260515605e-05
  outer loop
    vertex -10.396244446172286 -398.6228104969512 57.02222680209752
    vertex -12.056922194854561 -398.6229640813644 57.222002982846334
    vertex -11.213432803800465 -398.6228885545047 57.231431079845244
  endloop
endfacet
facet normal -0.5232992660040833 -6.60559752017525e-05 0.852148973968869
  outer loop
    vertex -3.204585814454381 -409.35903704614196 74.61308013550679
    vertex -2.4873996938355596 -398.6222144864251 75.05474536230803
    vertex -3.206223212905268 -398.6222691526945 74.61332040380455
  endloop
endfacet
facet normal -0.5232992660040833 -6.60559752017525e-05 0.852148973968869
  outer loop
    vertex -2.4873996938355596 -398.6222144864251 75.05474536230803
    vertex -3.204585814454381 -409.35903704614196 74.61308013550679
    vertex -2.4857622953846557 -409.35898237987277 75.05450509401015
  endloop
endfacet
facet normal -0.7260206589825509 -8.057810161767761e-05 0.6876728846171792
  outer loop
    vertex -3.204585814454381 -409.35903704614196 74.61308013550679
    vertex -3.7863042293757663 -398.62230753460113 74.00089141825956
    vertex -3.7846668309248988 -409.359075428049 74.00065114996177
  endloop
endfacet
facet normal -0.7260206589825509 -8.057810161767761e-05 0.6876728846171792
  outer loop
    vertex -3.7863042293757663 -398.62230753460113 74.00089141825956
    vertex -3.204585814454381 -409.35903704614196 74.61308013550679
    vertex -3.206223212905268 -398.6222691526945 74.61332040380455
  endloop
endfacet
facet normal -0.8792649440738602 -8.960896358362478e-05 0.4763330243569357
  outer loop
    vertex -3.7846668309248988 -409.359075428049 74.00065114996177
    vertex -4.188111180603784 -398.6223270164814 73.25919442895123
    vertex -4.186473782152919 -409.35909490992884 73.25895416065367
  endloop
endfacet
facet normal -0.8792649440738602 -8.960896358362478e-05 0.4763330243569357
  outer loop
    vertex -4.188111180603784 -398.6223270164814 73.25919442895123
    vertex -3.7846668309248988 -409.359075428049 74.00065114996177
    vertex -3.7863042293757663 -398.62230753460113 74.00089141825956
  endloop
endfacet
facet normal -0.9725887762534858 -9.253312275994533e-05 0.2325318553303357
  outer loop
    vertex -4.186473782152919 -409.35909490992884 73.25895416065367
    vertex -4.384261586880561 -398.6223262706781 72.43877485998831
    vertex -4.382624188429688 -409.35909416412534 72.43853459169054
  endloop
endfacet
facet normal -0.9725887762534858 -9.253312275994533e-05 0.2325318553303357
  outer loop
    vertex -4.384261586880561 -398.6223262706781 72.43877485998831
    vertex -4.186473782152919 -409.35909490992884 73.25895416065367
    vertex -4.188111180603784 -398.6223270164814 73.25919442895123
  endloop
endfacet
facet normal -0.9996322903551006 -8.915130251082176e-05 -0.027115975576421678
  outer loop
    vertex -4.384261586880561 -398.6223262706781 72.43877485998831
    vertex -4.3597507237212705 -409.3590732414628 71.5953026808908
    vertex -4.382624188429688 -409.35909416412534 72.43853459169054
  endloop
endfacet
facet normal -0.9996322903551006 -8.915130251082176e-05 -0.027115975576421678
  outer loop
    vertex -4.3597507237212705 -409.3590732414628 71.5953026808908
    vertex -4.384261586880561 -398.6223262706781 72.43877485998831
    vertex -4.361388122172155 -398.6223053480153 71.59554294918888
  endloop
endfacet
facet normal -0.9585525155058321 -7.969396829163167e-05 -0.28491589753173274
  outer loop
    vertex -4.361388122172155 -398.6223053480153 71.59554294918888
    vertex -4.119412176847389 -409.3590335677861 70.78672328946858
    vertex -4.3597507237212705 -409.3590732414628 71.5953026808908
  endloop
endfacet
facet normal -0.9585525155058321 -7.969396829163167e-05 -0.28491589753173274
  outer loop
    vertex -4.119412176847389 -409.3590335677861 70.78672328946858
    vertex -4.361388122172155 -398.6223053480153 71.59554294918888
    vertex -4.1210495752982474 -398.6222656743388 70.78696355776648
  endloop
endfacet
facet normal -0.8521489705910246 -6.480562182594786e-05 -0.5232992716609576
  outer loop
    vertex -4.1210495752982474 -398.6222656743388 70.78696355776648
    vertex -3.6779872225992314 -409.35897784679105 70.06789976670885
    vertex -4.119412176847389 -409.3590335677861 70.78672328946858
  endloop
endfacet
facet normal -0.8521489705910246 -6.480562182594786e-05 -0.5232992716609576
  outer loop
    vertex -3.6779872225992314 -409.35897784679105 70.06789976670885
    vertex -4.1210495752982474 -398.6222656743388 70.78696355776648
    vertex -3.6796246210501242 -398.62220995334366 70.0681400350064
  endloop
endfacet
facet normal -0.6876728816006992 -4.550087934170613e-05 -0.7260206648854153
  outer loop
    vertex -3.067195640570506 -398.62214198232357 69.48805901607241
    vertex -3.6779872225992314 -409.35897784679105 70.06789976670885
    vertex -3.6796246210501242 -398.62220995334366 70.0681400350064
  endloop
endfacet
facet normal -0.6876728816006992 -4.550087934170613e-05 -0.7260206648854153
  outer loop
    vertex -3.6779872225992314 -409.35897784679105 70.06789976670885
    vertex -3.067195640570506 -398.62214198232357 69.48805901607241
    vertex -3.0655582421196637 -409.35890987577113 69.48781874777481
  endloop
endfacet
facet normal -0.47633302241727976 -2.309532714426215e-05 -0.8792649493875127
  outer loop
    vertex -2.3254986567924165 -398.62206639339183 69.08625206377613
    vertex -3.0655582421196637 -409.35890987577113 69.48781874777481
    vertex -3.067195640570506 -398.62214198232357 69.48805901607241
  endloop
endfacet
facet normal -0.47633302241727976 -2.309532714426215e-05 -0.8792649493875127
  outer loop
    vertex -3.0655582421196637 -409.35890987577113 69.48781874777481
    vertex -2.3254986567924165 -398.62206639339183 69.08625206377613
    vertex -2.3238612583414926 -409.3588342868393 69.08601179547838
  endloop
endfacet
facet normal -0.23253185526732748 8.841334007425112e-07 -0.9725887806699975
  outer loop
    vertex -1.50507909344804 -398.6219883378082 68.89010165789885
    vertex -2.3238612583414926 -409.3588342868393 69.08601179547838
    vertex -2.3254986567924165 -398.62206639339183 69.08625206377613
  endloop
endfacet
facet normal -0.23253185526732748 8.841334007425112e-07 -0.9725887806699975
  outer loop
    vertex -2.3238612583414926 -409.3588342868393 69.08601179547838
    vertex -1.50507909344804 -398.6219883378082 68.89010165789885
    vertex -1.503441694997074 -409.35875623125577 68.88986138960122
  endloop
endfacet
facet normal 0.027115973325189523 2.4803341704234494e-05 -0.9996322940838906
  outer loop
    vertex -0.6618471879718568 -398.62191313493304 68.91297512444748
    vertex -1.503441694997074 -409.35875623125577 68.88986138960122
    vertex -1.50507909344804 -398.6219883378082 68.89010165789885
  endloop
endfacet
facet normal 0.027115973325189523 2.4803341704234494e-05 -0.9996322940838906
  outer loop
    vertex -1.503441694997074 -409.35875623125577 68.88986138960122
    vertex -0.6618471879718568 -398.62191313493304 68.91297512444748
    vertex -0.6602097895209809 -409.3586810283804 68.91273485614953
  endloop
endfacet
facet normal 0.2849158931739605 4.7032243275342484e-05 -0.958552518960152
  outer loop
    vertex 0.1467321987845163 -398.62184590971697 69.15331367447651
    vertex -0.6602097895209809 -409.3586810283804 68.91273485614953
    vertex -0.6618471879718568 -398.62191313493304 68.91297512444748
  endloop
endfacet
facet normal 0.2849158931739605 4.7032243275342484e-05 -0.958552518960152
  outer loop
    vertex -0.6602097895209809 -409.3586810283804 68.91273485614953
    vertex 0.1467321987845163 -398.62184590971697 69.15331367447651
    vertex 0.14836959723535276 -409.3586138031643 69.15307340617848
  endloop
endfacet
facet normal 0.5232992660041348 6.605597520254112e-05 -0.852148973968837
  outer loop
    vertex 0.8655557178542247 -398.62179124344755 69.59473863297976
    vertex 0.14836959723535276 -409.3586138031643 69.15307340617848
    vertex 0.1467321987845163 -398.62184590971697 69.15331367447651
  endloop
endfacet
facet normal 0.5232992660041348 6.605597520254112e-05 -0.852148973968837
  outer loop
    vertex 0.14836959723535276 -409.3586138031643 69.15307340617848
    vertex 0.8655557178542247 -398.62179124344755 69.59473863297976
    vertex 0.8671931163050725 -409.35855913689494 69.59449836468215
  endloop
endfacet
facet normal 0.7260206589825379 8.057810161310644e-05 -0.6876728846171929
  outer loop
    vertex 0.8655557178542247 -398.62179124344755 69.59473863297976
    vertex 1.4472741327756269 -409.35852075498826 70.2069273502271
    vertex 0.8671931163050725 -409.35855913689494 69.59449836468215
  endloop
endfacet
facet normal 0.7260206589825379 8.057810161310644e-05 -0.6876728846171929
  outer loop
    vertex 1.4472741327756269 -409.35852075498826 70.2069273502271
    vertex 0.8655557178542247 -398.62179124344755 69.59473863297976
    vertex 1.4456367343247198 -398.62175286154076 70.20716761852478
  endloop
endfacet
facet normal 0.8792649440738818 8.960896358499814e-05 -0.4763330243568961
  outer loop
    vertex 1.4456367343247198 -398.62175286154076 70.20716761852478
    vertex 1.8490810840036498 -409.35850127310823 70.94862433953536
    vertex 1.4472741327756269 -409.35852075498826 70.2069273502271
  endloop
endfacet
facet normal 0.8792649440738818 8.960896358499814e-05 -0.4763330243568961
  outer loop
    vertex 1.8490810840036498 -409.35850127310823 70.94862433953536
    vertex 1.4456367343247198 -398.62175286154076 70.20716761852478
    vertex 1.8474436855527794 -398.62173337966067 70.94886460783314
  endloop
endfacet
facet normal 0.9725887762534853 9.253312276205642e-05 -0.23253185533033804
  outer loop
    vertex 1.8474436855527794 -398.62173337966067 70.94886460783314
    vertex 2.0452314902803566 -409.3585020189114 71.76904390849809
    vertex 1.8490810840036498 -409.35850127310823 70.94862433953536
  endloop
endfacet
facet normal 0.9725887762534853 9.253312276205642e-05 -0.23253185533033804
  outer loop
    vertex 2.0452314902803566 -409.3585020189114 71.76904390849809
    vertex 1.8474436855527794 -398.62173337966067 70.94886460783314
    vertex 2.0435940918295086 -398.6217341254643 71.76928417679618
  endloop
endfacet
facet normal 0.9996322903551014 8.915130250937255e-05 0.027115975576390377
  outer loop
    vertex 2.0452314902803566 -409.3585020189114 71.76904390849809
    vertex 2.0207206271211167 -398.62175504812683 72.61251608759572
    vertex 2.022358025571987 -409.358522941574 72.61227581929784
  endloop
endfacet
facet normal 0.9996322903551014 8.915130250937255e-05 0.027115975576390377
  outer loop
    vertex 2.0207206271211167 -398.62175504812683 72.61251608759572
    vertex 2.0452314902803566 -409.3585020189114 71.76904390849809
    vertex 2.0435940918295086 -398.6217341254643 71.76928417679618
  endloop
endfacet
facet normal 0.9585525155058292 7.969396829372916e-05 0.2849158975317421
  outer loop
    vertex 2.022358025571987 -409.358522941574 72.61227581929784
    vertex 1.7803820802472325 -398.62179472180316 73.42109547901786
    vertex 1.7820194786980803 -409.35856261525066 73.4208552107203
  endloop
endfacet
facet normal 0.9585525155058292 7.969396829372916e-05 0.2849158975317421
  outer loop
    vertex 1.7803820802472325 -398.62179472180316 73.42109547901786
    vertex 2.022358025571987 -409.358522941574 72.61227581929784
    vertex 2.0207206271211167 -398.62175504812683 72.61251608759572
  endloop
endfacet
facet normal 0.8521489705910495 6.48056218261288e-05 0.5232992716609168
  outer loop
    vertex 1.7820194786980803 -409.35856261525066 73.4208552107203
    vertex 1.3389571259991118 -398.62185044279835 74.13991900177788
    vertex 1.3405945244499595 -409.3586183362458 74.13967873348015
  endloop
endfacet
facet normal 0.8521489705910495 6.48056218261288e-05 0.5232992716609168
  outer loop
    vertex 1.3389571259991118 -398.62185044279835 74.13991900177788
    vertex 1.7820194786980803 -409.35856261525066 73.4208552107203
    vertex 1.7803820802472325 -398.62179472180316 73.42109547901786
  endloop
endfacet
facet normal 0.6876728816006475 4.550087933163161e-05 0.7260206648854642
  outer loop
    vertex 0.728165543970372 -409.3586863072657 74.71975975241396
    vertex 1.3389571259991118 -398.62185044279835 74.13991900177788
    vertex 0.7265281455194651 -398.6219184138184 74.72000002071202
  endloop
endfacet
facet normal 0.6876728816006475 4.550087933163161e-05 0.7260206648854642
  outer loop
    vertex 1.3389571259991118 -398.62185044279835 74.13991900177788
    vertex 0.728165543970372 -409.3586863072657 74.71975975241396
    vertex 1.3405945244499595 -409.3586183362458 74.13967873348015
  endloop
endfacet
facet normal 0.4763330224172129 2.3095327129604938e-05 0.8792649493875486
  outer loop
    vertex -0.013531439807781863 -409.35876189619756 75.12156670471025
    vertex 0.7265281455194651 -398.6219184138184 74.72000002071202
    vertex -0.015168838258640904 -398.62199400275006 75.12180697300835
  endloop
endfacet
facet normal 0.4763330224172129 2.3095327129604938e-05 0.8792649493875486
  outer loop
    vertex 0.7265281455194651 -398.6219184138184 74.72000002071202
    vertex -0.013531439807781863 -409.35876189619756 75.12156670471025
    vertex 0.728165543970372 -409.3586863072657 74.71975975241396
  endloop
endfacet
facet normal 0.23253185526740627 -8.841334138728717e-07 0.972588780669979
  outer loop
    vertex -0.8339510031521782 -409.35883995178096 75.3177171105876
    vertex -0.015168838258640904 -398.62199400275006 75.12180697300835
    vertex -0.8355884016030373 -398.62207205833334 75.31795737888554
  endloop
endfacet
facet normal 0.23253185526740627 -8.841334138728717e-07 0.972588780669979
  outer loop
    vertex -0.015168838258640904 -398.62199400275006 75.12180697300835
    vertex -0.8339510031521782 -409.35883995178096 75.3177171105876
    vertex -0.013531439807781863 -409.35876189619756 75.12156670471025
  endloop
endfacet
facet normal -0.02711597332516757 -2.4803341700987332e-05 0.9996322940838912
  outer loop
    vertex -1.67718290862826 -409.35891515465676 75.29484364403928
    vertex -0.8355884016030373 -398.62207205833334 75.31795737888554
    vertex -1.6788203070792065 -398.62214726120914 75.29508391233693
  endloop
endfacet
facet normal -0.02711597332516757 -2.4803341700987332e-05 0.9996322940838912
  outer loop
    vertex -0.8355884016030373 -398.62207205833334 75.31795737888554
    vertex -1.67718290862826 -409.35891515465676 75.29484364403928
    vertex -0.8339510031521782 -409.35883995178096 75.3177171105876
  endloop
endfacet
facet normal -0.28491589317402527 -4.703224326194729e-05 0.9585525189601327
  outer loop
    vertex -2.4857622953846557 -409.35898237987277 75.05450509401015
    vertex -1.6788203070792065 -398.62214726120914 75.29508391233693
    vertex -2.4873996938355596 -398.6222144864251 75.05474536230803
  endloop
endfacet
facet normal -0.28491589317402527 -4.703224326194729e-05 0.9585525189601327
  outer loop
    vertex -1.6788203070792065 -398.62214726120914 75.29508391233693
    vertex -2.4857622953846557 -409.35898237987277 75.05450509401015
    vertex -1.67718290862826 -409.35891515465676 75.29484364403928
  endloop
endfacet
facet normal 0.8090240054051057 5.9490610567912196e-05 0.5877755993056762
  outer loop
    vertex -19.20188678828725 -409.3602523372397 73.63702415088585
    vertex -19.699337611328936 -398.62264877340124 74.31971023873218
    vertex -19.697700238184968 -409.3603121278198 74.31946995039878
  endloop
endfacet
facet normal 0.8090240054051057 5.9490610567912196e-05 0.5877755993056762
  outer loop
    vertex -19.699337611328936 -398.62264877340124 74.31971023873218
    vertex -19.20188678828725 -409.3602523372397 73.63702415088585
    vertex -19.20352416143125 -398.6225889828211 73.63726443921917
  endloop
endfacet
facet normal 0.6293296625304963 3.911832583849881e-05 0.7771384524838598
  outer loop
    vertex -20.353249223759928 -409.36038286935866 74.85033600836734
    vertex -19.699337611328936 -398.62264877340124 74.31971023873218
    vertex -20.354886596903885 -398.6227195149402 74.85057629670064
  endloop
endfacet
facet normal 0.6293296625304963 3.911832583849881e-05 0.7771384524838598
  outer loop
    vertex -19.699337611328936 -398.62264877340124 74.31971023873218
    vertex -20.353249223759928 -409.36038286935866 74.85033600836734
    vertex -19.697700238184968 -409.3603121278198 74.31946995039878
  endloop
endfacet
facet normal 0.406747543469247 1.608019188539275e-05 0.9135406042553119
  outer loop
    vertex -21.12385916499111 -409.3604597409373 75.19344468023868
    vertex -20.354886596903885 -398.6227195149402 74.85057629670064
    vertex -21.125496538135046 -398.62279638651836 75.19368496857182
  endloop
endfacet
facet normal 0.406747543469247 1.608019188539275e-05 0.9135406042553119
  outer loop
    vertex -20.354886596903885 -398.6227195149402 74.85057629670064
    vertex -21.12385916499111 -409.3604597409373 75.19344468023868
    vertex -20.353249223759928 -409.36038286935866 74.85033600836734
  endloop
endfacet
facet normal 0.1564462518204969 -8.053780549747604e-06 0.9876864736476116
  outer loop
    vertex -21.957014267876747 -409.360537503884 75.325413677038
    vertex -21.125496538135046 -398.62279638651836 75.19368496857182
    vertex -21.95865164102071 -398.6228741494654 75.32565396537134
  endloop
endfacet
facet normal 0.1564462518204969 -8.053780549747604e-06 0.9876864736476116
  outer loop
    vertex -21.125496538135046 -398.62279638651836 75.19368496857182
    vertex -21.957014267876747 -409.360537503884 75.325413677038
    vertex -21.12385916499111 -409.3604597409373 75.19344468023868
  endloop
endfacet
facet normal -0.10451659319755834 -3.1638901148428344e-05 0.9945231423880271
  outer loop
    vertex -22.79593638900911 -409.36061085878265 75.23724952972313
    vertex -21.95865164102071 -398.6228741494654 75.32565396537134
    vertex -22.79757376215307 -398.6229475043643 75.23748981805659
  endloop
endfacet
facet normal -0.10451659319755834 -3.1638901148428344e-05 0.9945231423880271
  outer loop
    vertex -21.95865164102071 -398.6228741494654 75.32565396537134
    vertex -22.79593638900911 -409.36061085878265 75.23724952972313
    vertex -21.957014267876747 -409.360537503884 75.325413677038
  endloop
endfacet
facet normal -0.35835680521464136 -5.306788292592663e-05 0.9335847028203468
  outer loop
    vertex -23.583454372217364 -409.3606748066186 74.93496047923568
    vertex -22.79757376215307 -398.6229475043643 75.23748981805659
    vertex -23.585091745361353 -398.6230114522003 74.93520076756876
  endloop
endfacet
facet normal -0.35835680521464136 -5.306788292592663e-05 0.9335847028203468
  outer loop
    vertex -22.79757376215307 -398.6229475043643 75.23748981805659
    vertex -23.583454372217364 -409.3606748066186 74.93496047923568
    vertex -22.79593638900911 -409.36061085878265 75.23724952972313
  endloop
endfacet
facet normal -0.5877755934673483 -7.088037621023764e-05 0.8090240087290851
  outer loop
    vertex -24.26590016838094 -409.36072498945254 74.43914702480947
    vertex -23.585091745361353 -398.6230114522003 74.93520076756876
    vertex -24.26753754152486 -398.62306163503405 74.43938731314262
  endloop
endfacet
facet normal -0.5877755934673483 -7.088037621023764e-05 0.8090240087290851
  outer loop
    vertex -23.585091745361353 -398.6230114522003 74.93520076756876
    vertex -24.26590016838094 -409.36072498945254 74.43914702480947
    vertex -23.583454372217364 -409.3606748066186 74.93496047923568
  endloop
endfacet
facet normal -0.7771384466887455 -8.386248903193343e-05 0.6293296653148385
  outer loop
    vertex -24.26590016838094 -409.36072498945254 74.43914702480947
    vertex -24.79840359743013 -398.62309463298806 73.78383832232679
    vertex -24.79676622428616 -409.3607579874064 73.78359803399317
  endloop
endfacet
facet normal -0.7771384466887455 -8.386248903193343e-05 0.6293296653148385
  outer loop
    vertex -24.79840359743013 -398.62309463298806 73.78383832232679
    vertex -24.26590016838094 -409.36072498945254 74.43914702480947
    vertex -24.26753754152486 -398.62306163503405 74.43938731314262
  endloop
endfacet
facet normal -0.913540599202194 -9.112951181545345e-05 0.4067475449276963
  outer loop
    vertex -24.79676622428616 -409.3607579874064 73.78359803399317
    vertex -25.141512268664826 -398.6231081973066 73.01322837549911
    vertex -25.139874895520855 -409.36077155172507 73.01298808716567
  endloop
endfacet
facet normal -0.913540599202194 -9.112951181545345e-05 0.4067475449276963
  outer loop
    vertex -25.141512268664826 -398.6231081973066 73.01322837549911
    vertex -24.79676622428616 -409.3607579874064 73.78359803399317
    vertex -24.79840359743013 -398.62309463298806 73.78383832232679
  endloop
endfacet
facet normal -0.9876864694738773 -9.21862089450848e-05 0.15644625121724942
  outer loop
    vertex -25.139874895520855 -409.36077155172507 73.01298808716567
    vertex -25.273481266298162 -398.6231014036037 72.180073267043
    vertex -25.271843893154173 -409.3607647580224 72.17983297870931
  endloop
endfacet
facet normal -0.9876864694738773 -9.21862089450848e-05 0.15644625121724942
  outer loop
    vertex -25.273481266298162 -398.6231014036037 72.180073267043
    vertex -25.139874895520855 -409.36077155172507 73.01298808716567
    vertex -25.141512268664826 -398.6231081973066 73.01322837549911
  endloop
endfacet
facet normal -0.9945231387816527 -8.696056824978363e-05 -0.10451659612592164
  outer loop
    vertex -25.273481266298162 -398.6231014036037 72.180073267043
    vertex -25.183679748086515 -409.36073806927726 71.3409108524122
    vertex -25.271843893154173 -409.3607647580224 72.17983297870931
  endloop
endfacet
facet normal -0.9945231387816527 -8.696056824978363e-05 -0.10451659612592164
  outer loop
    vertex -25.183679748086515 -409.36073806927726 71.3409108524122
    vertex -25.273481266298162 -398.6231014036037 72.180073267043
    vertex -25.185317121230494 -398.6230747148591 71.34115114074562
  endloop
endfacet
facet normal -0.9335846993902913 -7.580870851460873e-05 -0.35835681006139564
  outer loop
    vertex -25.185317121230494 -398.6230747148591 71.34115114074562
    vertex -24.881390701106135 -409.3606933042854 70.5533928647966
    vertex -25.183679748086515 -409.36073806927726 71.3409108524122
  endloop
endfacet
facet normal -0.9335846993902913 -7.580870851460873e-05 -0.35835681006139564
  outer loop
    vertex -24.881390701106135 -409.3606933042854 70.5533928647966
    vertex -25.185317121230494 -398.6230747148591 71.34115114074562
    vertex -24.883028074250095 -398.6230299498667 70.55363315312985
  endloop
endfacet
facet normal -0.8090240054051238 -5.94906105690982e-05 -0.5877755993056514
  outer loop
    vertex -24.883028074250095 -398.6230299498667 70.55363315312985
    vertex -24.38557725120843 -409.3606335137047 69.87094706528369
    vertex -24.881390701106135 -409.3606933042854 70.5533928647966
  endloop
endfacet
facet normal -0.8090240054051238 -5.94906105690982e-05 -0.5877755993056514
  outer loop
    vertex -24.38557725120843 -409.3606335137047 69.87094706528369
    vertex -24.883028074250095 -398.6230299498667 70.55363315312985
    vertex -24.38721462435242 -398.6229701592859 69.8711873536169
  endloop
endfacet
facet normal -0.6293296625304706 -3.911832584016433e-05 -0.7771384524838806
  outer loop
    vertex -23.731665638777436 -398.6228994177469 69.34032129564845
    vertex -24.38557725120843 -409.3606335137047 69.87094706528369
    vertex -24.38721462435242 -398.6229701592859 69.8711873536169
  endloop
endfacet
facet normal -0.6293296625304706 -3.911832584016433e-05 -0.7771384524838806
  outer loop
    vertex -24.38557725120843 -409.3606335137047 69.87094706528369
    vertex -23.731665638777436 -398.6228994177469 69.34032129564845
    vertex -23.730028265633468 -409.36056277216613 69.34008100731515
  endloop
endfacet
facet normal -0.4067475434691746 -1.6080191880938962e-05 -0.9135406042553441
  outer loop
    vertex -22.961055697546232 -398.622822546169 68.99721262377724
    vertex -23.730028265633468 -409.36056277216613 69.34008100731515
    vertex -23.731665638777436 -398.6228994177469 69.34032129564845
  endloop
endfacet
facet normal -0.4067475434691746 -1.6080191880938962e-05 -0.9135406042553441
  outer loop
    vertex -23.730028265633468 -409.36056277216613 69.34008100731515
    vertex -22.961055697546232 -398.622822546169 68.99721262377724
    vertex -22.95941832440233 -409.3604859005875 68.99697233544394
  endloop
endfacet
facet normal -0.15644625182054306 8.053780549442476e-06 -0.9876864736476044
  outer loop
    vertex -22.12790059466062 -398.62274478322206 68.86524362697773
    vertex -22.95941832440233 -409.3604859005875 68.99697233544394
    vertex -22.961055697546232 -398.622822546169 68.99721262377724
  endloop
endfacet
facet normal -0.15644625182054306 8.053780549442476e-06 -0.9876864736476044
  outer loop
    vertex -22.95941832440233 -409.3604859005875 68.99697233544394
    vertex -22.12790059466062 -398.62274478322206 68.86524362697773
    vertex -22.126263221516652 -409.3604081376408 68.86500333864463
  endloop
endfacet
facet normal 0.10451659319755026 3.163890114412614e-05 -0.994523142388028
  outer loop
    vertex -21.288978473528257 -398.62267142832326 68.95340777429263
    vertex -22.126263221516652 -409.3604081376408 68.86500333864463
    vertex -22.12790059466062 -398.62274478322206 68.86524362697773
  endloop
endfacet
facet normal 0.10451659319755026 3.163890114412614e-05 -0.994523142388028
  outer loop
    vertex -22.126263221516652 -409.3604081376408 68.86500333864463
    vertex -21.288978473528257 -398.62267142832326 68.95340777429263
    vertex -21.287341100384296 -409.3603347827415 68.95316748595921
  endloop
endfacet
facet normal 0.35835680521460633 5.30678829286281e-05 -0.9335847028203603
  outer loop
    vertex -20.501460490319968 -398.622607480487 69.25569682478016
    vertex -21.287341100384296 -409.3603347827415 68.95316748595921
    vertex -21.288978473528257 -398.62267142832326 68.95340777429263
  endloop
endfacet
facet normal 0.35835680521460633 5.30678829286281e-05 -0.9335847028203603
  outer loop
    vertex -21.287341100384296 -409.3603347827415 68.95316748595921
    vertex -20.501460490319968 -398.622607480487 69.25569682478016
    vertex -20.49982311717602 -409.3602708349061 69.25545653644691
  endloop
endfacet
facet normal 0.587775593467355 7.08803762150101e-05 -0.8090240087290801
  outer loop
    vertex -19.819014694156447 -398.6225572976536 69.75151027920639
    vertex -20.49982311717602 -409.3602708349061 69.25545653644691
    vertex -20.501460490319968 -398.622607480487 69.25569682478016
  endloop
endfacet
facet normal 0.587775593467355 7.08803762150101e-05 -0.8090240087290801
  outer loop
    vertex -20.49982311717602 -409.3602708349061 69.25545653644691
    vertex -19.819014694156447 -398.6225572976536 69.75151027920639
    vertex -19.817377321012493 -409.3602206520723 69.7512699908731
  endloop
endfacet
facet normal 0.7771384466887592 8.386248903263683e-05 -0.6293296653148217
  outer loop
    vertex -19.819014694156447 -398.6225572976536 69.75151027920639
    vertex -19.286511265107244 -409.3601876541178 70.40681898168907
    vertex -19.817377321012493 -409.3602206520723 69.7512699908731
  endloop
endfacet
facet normal 0.7771384466887592 8.386248903263683e-05 -0.6293296653148217
  outer loop
    vertex -19.286511265107244 -409.3601876541178 70.40681898168907
    vertex -19.819014694156447 -398.6225572976536 69.75151027920639
    vertex -19.2881486382512 -398.6225242996992 70.40705927002267
  endloop
endfacet
facet normal 0.9135405992022138 9.112951181493512e-05 -0.40674754492765186
  outer loop
    vertex -19.2881486382512 -398.6225242996992 70.40705927002267
    vertex -18.943402593872584 -409.36017408979967 71.17742892851668
    vertex -19.286511265107244 -409.3601876541178 70.40681898168907
  endloop
endfacet
facet normal 0.9135405992022138 9.112951181493512e-05 -0.40674754492765186
  outer loop
    vertex -18.943402593872584 -409.36017408979967 71.17742892851668
    vertex -19.2881486382512 -398.6225242996992 70.40705927002267
    vertex -18.945039967016537 -398.62251073538044 71.1776692168503
  endloop
endfacet
facet normal 0.9876864694738756 9.218620894460337e-05 -0.15644625121725986
  outer loop
    vertex -18.945039967016537 -398.62251073538044 71.1776692168503
    vertex -18.811433596239247 -409.3601808835018 72.0105840369728
    vertex -18.943402593872584 -409.36017408979967 71.17742892851668
  endloop
endfacet
facet normal 0.9876864694738756 9.218620894460337e-05 -0.15644625121725986
  outer loop
    vertex -18.811433596239247 -409.3601808835018 72.0105840369728
    vertex -18.945039967016537 -398.62251073538044 71.1776692168503
    vertex -18.813070969383208 -398.6225175290836 72.01082432530649
  endloop
endfacet
facet normal 0.9945231387816564 8.696056824879597e-05 0.10451659612588717
  outer loop
    vertex -18.811433596239247 -409.3601808835018 72.0105840369728
    vertex -18.901235114450827 -398.6225442178279 72.84974645160364
    vertex -18.899597741306877 -409.3602075722469 72.84950616327019
  endloop
endfacet
facet normal 0.9945231387816564 8.696056824879597e-05 0.10451659612588717
  outer loop
    vertex -18.901235114450827 -398.6225442178279 72.84974645160364
    vertex -18.811433596239247 -409.3601808835018 72.0105840369728
    vertex -18.813070969383208 -398.6225175290836 72.01082432530649
  endloop
endfacet
facet normal 0.9335846993902824 7.580870851540401e-05 0.35835681006141873
  outer loop
    vertex -18.899597741306877 -409.3602075722469 72.84950616327019
    vertex -19.20352416143125 -398.6225889828211 73.63726443921917
    vertex -19.20188678828725 -409.3602523372397 73.63702415088585
  endloop
endfacet
facet normal 0.9335846993902824 7.580870851540401e-05 0.35835681006141873
  outer loop
    vertex -19.20352416143125 -398.6225889828211 73.63726443921917
    vertex -18.899597741306877 -409.3602075722469 72.84950616327019
    vertex -18.901235114450827 -398.6225442178279 72.84974645160364
  endloop
endfacet
facet normal 0.6991594237856267 4.677964088290264e-05 0.7149658019397962
  outer loop
    vertex -9.659409846939528 -409.3593171150491 56.60840681127051
    vertex -9.05794341972078 -398.6226678776837 56.01887667466836
    vertex -9.661047158074744 -398.62273522819703 56.608647075404775
  endloop
endfacet
facet normal 0.6991594237856267 4.677964088290264e-05 0.7149658019397962
  outer loop
    vertex -9.05794341972078 -398.6226678776837 56.01887667466836
    vertex -9.659409846939528 -409.3593171150491 56.60840681127051
    vertex -9.056306108585536 -409.35924976453606 56.01863641053426
  endloop
endfacet
facet normal 0.4902893792156245 2.4520902229193942e-05 0.8715597076661374
  outer loop
    vertex -10.394607135037068 -409.3593923838037 57.02198653796315
    vertex -9.661047158074744 -398.62273522819703 56.608647075404775
    vertex -10.396244446172286 -398.6228104969512 57.02222680209752
  endloop
endfacet
facet normal 0.4902893792156245 2.4520902229193942e-05 0.8715597076661374
  outer loop
    vertex -9.661047158074744 -398.62273522819703 56.608647075404775
    vertex -10.394607135037068 -409.3593923838037 57.02198653796315
    vertex -9.659409846939528 -409.3593171150491 56.60840681127051
  endloop
endfacet
facet normal 0.24800692402820923 5.911046501098719e-07 0.9687582596467071
  outer loop
    vertex -11.211795492665232 -409.35947044135685 57.231190815711166
    vertex -10.396244446172286 -398.6228104969512 57.02222680209752
    vertex -11.213432803800465 -398.6228885545047 57.231431079845244
  endloop
endfacet
facet normal 0.24800692402820923 5.911046501098719e-07 0.9687582596467071
  outer loop
    vertex -10.396244446172286 -398.6228104969512 57.02222680209752
    vertex -11.211795492665232 -409.35947044135685 57.231190815711166
    vertex -10.394607135037068 -409.3593923838037 57.02198653796315
  endloop
endfacet
facet normal -0.011176792952075517 -2.337897571522528e-05 0.9999375374255783
  outer loop
    vertex -12.05528488371932 -409.3595459682168 57.22176271871229
    vertex -11.213432803800465 -398.6228885545047 57.231431079845244
    vertex -12.056922194854561 -398.6229640813644 57.222002982846334
  endloop
endfacet
facet normal -0.011176792952075517 -2.337897571522528e-05 0.9999375374255783
  outer loop
    vertex -11.213432803800465 -398.6228885545047 57.231431079845244
    vertex -12.05528488371932 -409.3595459682168 57.22176271871229
    vertex -11.211795492665232 -409.35947044135685 57.231190815711166
  endloop
endfacet
facet normal -0.2695988299745657 -4.5755817538038486e-05 0.9629727248384298
  outer loop
    vertex -12.867592900131175 -409.3596138173519 56.99434475619626
    vertex -12.056922194854561 -398.6229640813644 57.222002982846334
    vertex -12.869230211266368 -398.62303193049996 56.994585020330405
  endloop
endfacet
facet normal -0.2695988299745657 -4.5755817538038486e-05 0.9629727248384298
  outer loop
    vertex -12.056922194854561 -398.6229640813644 57.222002982846334
    vertex -12.867592900131175 -409.3596138173519 56.99434475619626
    vertex -12.05528488371932 -409.3595459682168 57.22176271871229
  endloop
endfacet
facet normal -0.5096481525119643 -6.501447603696768e-05 0.8603829126698528
  outer loop
    vertex -13.593362092984638 -409.3596693649563 56.56443508648273
    vertex -12.869230211266368 -398.62303193049996 56.994585020330405
    vertex -13.594999404119871 -398.6230874781041 56.56467535061685
  endloop
endfacet
facet normal -0.5096481525119643 -6.501447603696768e-05 0.8603829126698528
  outer loop
    vertex -12.869230211266368 -398.62303193049996 56.994585020330405
    vertex -13.593362092984638 -409.3596693649563 56.56443508648273
    vertex -12.867592900131175 -409.3596138173519 56.99434475619626
  endloop
endfacet
facet normal -0.7149657960236662 -7.984250546440457e-05 0.6991594268415608
  outer loop
    vertex -13.593362092984638 -409.3596693649563 56.56443508648273
    vertex -14.184769802312422 -398.6231269386996 55.96157160723734
    vertex -14.183132491177199 -409.3597088255521 55.961331343103254
  endloop
endfacet
facet normal -0.7149657960236662 -7.984250546440457e-05 0.6991594268415608
  outer loop
    vertex -14.184769802312422 -398.6231269386996 55.96157160723734
    vertex -13.593362092984638 -409.3596693649563 56.56443508648273
    vertex -13.594999404119871 -398.6230874781041 56.56467535061685
  endloop
endfacet
facet normal -0.8715597023018167 -8.922940010517852e-05 0.4902893812450794
  outer loop
    vertex -14.183132491177199 -409.3597088255521 55.961331343103254
    vertex -14.598349527848855 -398.62314762311286 55.226374313627176
    vertex -14.596712216713646 -409.35972950996495 55.226134049493126
  endloop
endfacet
facet normal -0.8715597023018167 -8.922940010517852e-05 0.4902893812450794
  outer loop
    vertex -14.598349527848855 -398.62314762311286 55.226374313627176
    vertex -14.183132491177199 -409.3597088255521 55.961331343103254
    vertex -14.184769802312422 -398.6231269386996 55.96157160723734
  endloop
endfacet
facet normal -0.9687582551773711 -9.253545858022523e-05 0.2480069242236687
  outer loop
    vertex -14.596712216713646 -409.35972950996495 55.226134049493126
    vertex -14.807553805906666 -398.62314812173423 54.40918595037498
    vertex -14.805916494771427 -409.3597300085869 54.40894568624083
  endloop
endfacet
facet normal -0.9687582551773711 -9.253545858022523e-05 0.2480069242236687
  outer loop
    vertex -14.807553805906666 -398.62314812173423 54.40918595037498
    vertex -14.596712216713646 -409.35972950996495 55.226134049493126
    vertex -14.598349527848855 -398.62314762311286 55.226374313627176
  endloop
endfacet
facet normal -0.9999375336667644 -8.953537844684593e-05 -0.011176795061382817
  outer loop
    vertex -14.807553805906666 -398.62314812173423 54.40918595037498
    vertex -14.79648839952744 -409.35971028743694 53.565456289834906
    vertex -14.805916494771427 -409.3597300085869 54.40894568624083
  endloop
endfacet
facet normal -0.9999375336667644 -8.953537844684593e-05 -0.011176795061382817
  outer loop
    vertex -14.79648839952744 -409.35971028743694 53.565456289834906
    vertex -14.807553805906666 -398.62314812173423 54.40918595037498
    vertex -14.798125710662633 -398.6231284005843 53.56569655396889
  endloop
endfacet
facet normal -0.9629727213771178 -8.043361020765923e-05 -0.269598834222224
  outer loop
    vertex -14.798125710662633 -398.6231284005843 53.56569655396889
    vertex -14.569070440091794 -409.35967169047905 52.753148268707115
    vertex -14.79648839952744 -409.35971028743694 53.565456289834906
  endloop
endfacet
facet normal -0.9629727213771178 -8.043361020765923e-05 -0.269598834222224
  outer loop
    vertex -14.569070440091794 -409.35967169047905 52.753148268707115
    vertex -14.798125710662633 -398.6231284005843 53.56569655396889
    vertex -14.570707751227 -398.62308980362684 52.75338853284117
  endloop
endfacet
facet normal -0.860382909284571 -6.585042434178398e-05 -0.5096481581196379
  outer loop
    vertex -14.570707751227 -398.62308980362684 52.75338853284117
    vertex -14.139160774574103 -409.359616848032 52.02737907209604
    vertex -14.569070440091794 -409.35967169047905 52.753148268707115
  endloop
endfacet
facet normal -0.860382909284571 -6.585042434178398e-05 -0.5096481581196379
  outer loop
    vertex -14.139160774574103 -409.359616848032 52.02737907209604
    vertex -14.570707751227 -398.62308980362684 52.75338853284117
    vertex -14.140798085709331 -398.6230349611799 52.02761933622997
  endloop
endfacet
facet normal -0.6991594237855866 -4.677964088631082e-05 -0.7149658019398354
  outer loop
    vertex -13.537694347355355 -398.6229676106666 51.43784893549382
    vertex -14.139160774574103 -409.359616848032 52.02737907209604
    vertex -14.140798085709331 -398.6230349611799 52.02761933622997
  endloop
endfacet
facet normal -0.6991594237855866 -4.677964088631082e-05 -0.7149658019398354
  outer loop
    vertex -14.139160774574103 -409.359616848032 52.02737907209604
    vertex -13.537694347355355 -398.6229676106666 51.43784893549382
    vertex -13.536057036220106 -409.3595494975187 51.43760867135965
  endloop
endfacet
facet normal -0.49028937921543575 -2.4520902240501564e-05 -0.8715597076662436
  outer loop
    vertex -12.802497059257805 -398.6228923419125 51.0242692088012
    vertex -13.536057036220106 -409.3595494975187 51.43760867135965
    vertex -13.537694347355355 -398.6229676106666 51.43784893549382
  endloop
endfacet
facet normal -0.49028937921543575 -2.4520902240501564e-05 -0.8715597076662436
  outer loop
    vertex -13.536057036220106 -409.3595494975187 51.43760867135965
    vertex -12.802497059257805 -398.6228923419125 51.0242692088012
    vertex -12.80085974812262 -409.3594742287644 51.02402894466733
  endloop
endfacet
facet normal -0.2480069240286876 -5.91104661417315e-07 -0.9687582596465845
  outer loop
    vertex -11.985308701629636 -398.6228142843588 50.815064931053
    vertex -12.80085974812262 -409.3594742287644 51.02402894466733
    vertex -12.802497059257805 -398.6228923419125 51.0242692088012
  endloop
endfacet
facet normal -0.2480069240286876 -5.91104661417315e-07 -0.9687582596465845
  outer loop
    vertex -12.80085974812262 -409.3594742287644 51.02402894466733
    vertex -11.985308701629636 -398.6228142843588 50.815064931053
    vertex -11.983671390494408 -409.3593961712112 50.81482466691892
  endloop
endfacet
facet normal 0.011176792952095557 2.3378975714881072e-05 -0.9999375374255782
  outer loop
    vertex -11.141819310575535 -398.62273875749895 50.82449302805192
    vertex -11.983671390494408 -409.3593961712112 50.81482466691892
    vertex -11.985308701629636 -398.6228142843588 50.815064931053
  endloop
endfacet
facet normal 0.011176792952095557 2.3378975714881072e-05 -0.9999375374255782
  outer loop
    vertex -11.983671390494408 -409.3593961712112 50.81482466691892
    vertex -11.141819310575535 -398.62273875749895 50.82449302805192
    vertex -11.140181999440307 -409.35932064435144 50.82425276391783
  endloop
endfacet
facet normal 0.26959882997470913 4.575581753368451e-05 -0.9629727248383896
  outer loop
    vertex -10.32951129416373 -398.62267090836394 51.051910990567954
    vertex -11.140181999440307 -409.35932064435144 50.82425276391783
    vertex -11.141819310575535 -398.62273875749895 50.82449302805192
  endloop
endfacet
facet normal 0.26959882997470913 4.575581753368451e-05 -0.9629727248383896
  outer loop
    vertex -11.140181999440307 -409.35932064435144 50.82425276391783
    vertex -10.32951129416373 -398.62267090836394 51.051910990567954
    vertex -10.327873983028534 -409.35925279521626 51.05167072643401
  endloop
endfacet
facet normal 0.5096481525119941 6.501447603246696e-05 -0.860382912669835
  outer loop
    vertex -9.603742101310232 -398.6226153607597 51.48182066028161
    vertex -10.327873983028534 -409.35925279521626 51.05167072643401
    vertex -10.32951129416373 -398.62267090836394 51.051910990567954
  endloop
endfacet
facet normal 0.5096481525119941 6.501447603246696e-05 -0.860382912669835
  outer loop
    vertex -10.327873983028534 -409.35925279521626 51.05167072643401
    vertex -9.603742101310232 -398.6226153607597 51.48182066028161
    vertex -9.602104790174993 -409.35919724761186 51.481580396147564
  endloop
endfacet
facet normal 0.7149657960236792 7.984250546378548e-05 -0.6991594268415476
  outer loop
    vertex -9.603742101310232 -398.6226153607597 51.48182066028161
    vertex -9.01233439198245 -409.3591577870162 52.084684139527006
    vertex -9.602104790174993 -409.35919724761186 51.481580396147564
  endloop
endfacet
facet normal 0.7149657960236792 7.984250546378548e-05 -0.6991594268415476
  outer loop
    vertex -9.01233439198245 -409.3591577870162 52.084684139527006
    vertex -9.603742101310232 -398.6226153607597 51.48182066028161
    vertex -9.01397170311768 -398.6225759001637 52.08492440366113
  endloop
endfacet
facet normal 0.8715597023017795 8.922940010503311e-05 -0.4902893812451458
  outer loop
    vertex -9.01397170311768 -398.6225759001637 52.08492440366113
    vertex -8.598754666446043 -409.359137102603 52.81988143313705
    vertex -9.01233439198245 -409.3591577870162 52.084684139527006
  endloop
endfacet
facet normal 0.8715597023017795 8.922940010503311e-05 -0.4902893812451458
  outer loop
    vertex -8.598754666446043 -409.359137102603 52.81988143313705
    vertex -9.01397170311768 -398.6225759001637 52.08492440366113
    vertex -8.600391977581285 -398.6225552157508 52.82012169727107
  endloop
endfacet
facet normal 0.9687582551773676 9.253545858049643e-05 -0.2480069242236823
  outer loop
    vertex -8.600391977581285 -398.6225552157508 52.82012169727107
    vertex -8.389550388388216 -409.35913660398137 53.637069796389234
    vertex -8.598754666446043 -409.359137102603 52.81988143313705
  endloop
endfacet
facet normal 0.9687582551773676 9.253545858049643e-05 -0.2480069242236823
  outer loop
    vertex -8.389550388388216 -409.35913660398137 53.637069796389234
    vertex -8.600391977581285 -398.6225552157508 52.82012169727107
    vertex -8.391187699523453 -398.6225547171288 53.63731006052344
  endloop
endfacet
facet normal 0.9999375336667643 8.953537844644487e-05 0.011176795061402947
  outer loop
    vertex -8.389550388388216 -409.35913660398137 53.637069796389234
    vertex -8.400615794767461 -398.622574438279 54.48079945692986
    vertex -8.398978483632263 -409.35915632513127 54.480559192795546
  endloop
endfacet
facet normal 0.9999375336667643 8.953537844644487e-05 0.011176795061402947
  outer loop
    vertex -8.400615794767461 -398.622574438279 54.48079945692986
    vertex -8.389550388388216 -409.35913660398137 53.637069796389234
    vertex -8.391187699523453 -398.6225547171288 53.63731006052344
  endloop
endfacet
facet normal 0.9629727213770796 8.043361020479423e-05 0.26959883422236036
  outer loop
    vertex -8.398978483632263 -409.35915632513127 54.480559192795546
    vertex -8.628033754203111 -398.6226130352368 55.293107478057095
    vertex -8.626396443067899 -409.3591949220891 55.292867213922996
  endloop
endfacet
facet normal 0.9629727213770796 8.043361020479423e-05 0.26959883422236036
  outer loop
    vertex -8.628033754203111 -398.6226130352368 55.293107478057095
    vertex -8.398978483632263 -409.35915632513127 54.480559192795546
    vertex -8.400615794767461 -398.622574438279 54.48079945692986
  endloop
endfacet
facet normal 0.8603829092846297 6.585042433993384e-05 0.5096481581195387
  outer loop
    vertex -8.626396443067899 -409.3591949220891 55.292867213922996
    vertex -9.05794341972078 -398.6226678776837 56.01887667466836
    vertex -9.056306108585536 -409.35924976453606 56.01863641053426
  endloop
endfacet
facet normal 0.8603829092846297 6.585042433993384e-05 0.5096481581195387
  outer loop
    vertex -9.05794341972078 -398.6226678776837 56.01887667466836
    vertex -8.626396443067899 -409.3591949220891 55.292867213922996
    vertex -8.628033754203111 -398.6226130352368 55.293107478057095
  endloop
endfacet
facet normal 0.00014115938515058286 -0.9999999897866297 -2.237785128871941e-05
  outer loop
    vertex -0.6602097895209809 -409.3586810283804 68.91273485614953
    vertex -2.3238612583414926 -409.3588342868393 69.08601179547838
    vertex -1.503441694997074 -409.35875623125577 68.88986138960122
  endloop
endfacet
facet normal 0.00014115938515058286 -0.9999999897866297 -2.237785128871941e-05
  outer loop
    vertex -2.3238612583414926 -409.3588342868393 69.08601179547838
    vertex -0.6602097895209809 -409.3586810283804 68.91273485614953
    vertex 0.14836959723535276 -409.3586138031643 69.15307340617848
  endloop
endfacet
facet normal 0.00014115938515058286 -0.9999999897866297 -2.237785128871941e-05
  outer loop
    vertex -2.3238612583414926 -409.3588342868393 69.08601179547838
    vertex 0.14836959723535276 -409.3586138031643 69.15307340617848
    vertex -3.0655582421196637 -409.35890987577113 69.48781874777481
  endloop
endfacet
facet normal 0.00014115938515058286 -0.9999999897866297 -2.237785128871941e-05
  outer loop
    vertex -3.0655582421196637 -409.35890987577113 69.48781874777481
    vertex 0.14836959723535276 -409.3586138031643 69.15307340617848
    vertex 0.8671931163050725 -409.35855913689494 69.59449836468215
  endloop
endfacet
facet normal 0.00014115938515058286 -0.9999999897866297 -2.237785128871941e-05
  outer loop
    vertex -3.0655582421196637 -409.35890987577113 69.48781874777481
    vertex 0.8671931163050725 -409.35855913689494 69.59449836468215
    vertex -3.6779872225992314 -409.35897784679105 70.06789976670885
  endloop
endfacet
facet normal 0.00014115938515058286 -0.9999999897866297 -2.237785128871941e-05
  outer loop
    vertex -3.6779872225992314 -409.35897784679105 70.06789976670885
    vertex 0.8671931163050725 -409.35855913689494 69.59449836468215
    vertex 1.4472741327756269 -409.35852075498826 70.2069273502271
  endloop
endfacet
facet normal 0.00014115938515058286 -0.9999999897866297 -2.237785128871941e-05
  outer loop
    vertex -3.6779872225992314 -409.35897784679105 70.06789976670885
    vertex 1.4472741327756269 -409.35852075498826 70.2069273502271
    vertex -4.119412176847389 -409.3590335677861 70.78672328946858
  endloop
endfacet
facet normal 0.00014115938515058286 -0.9999999897866297 -2.237785128871941e-05
  outer loop
    vertex -4.119412176847389 -409.3590335677861 70.78672328946858
    vertex 1.4472741327756269 -409.35852075498826 70.2069273502271
    vertex 1.8490810840036498 -409.35850127310823 70.94862433953536
  endloop
endfacet
facet normal 0.00014115938515058286 -0.9999999897866297 -2.237785128871941e-05
  outer loop
    vertex -4.119412176847389 -409.3590335677861 70.78672328946858
    vertex 1.8490810840036498 -409.35850127310823 70.94862433953536
    vertex -4.3597507237212705 -409.3590732414628 71.5953026808908
  endloop
endfacet
facet normal 0.00014115938515058286 -0.9999999897866297 -2.237785128871941e-05
  outer loop
    vertex -4.3597507237212705 -409.3590732414628 71.5953026808908
    vertex 1.8490810840036498 -409.35850127310823 70.94862433953536
    vertex 2.0452314902803566 -409.3585020189114 71.76904390849809
  endloop
endfacet
facet normal 0.00014115938515058286 -0.9999999897866297 -2.237785128871941e-05
  outer loop
    vertex -4.3597507237212705 -409.3590732414628 71.5953026808908
    vertex 2.0452314902803566 -409.3585020189114 71.76904390849809
    vertex -4.382624188429688 -409.35909416412534 72.43853459169054
  endloop
endfacet
facet normal 0.00014115938515058286 -0.9999999897866297 -2.237785128871941e-05
  outer loop
    vertex -4.382624188429688 -409.35909416412534 72.43853459169054
    vertex 2.0452314902803566 -409.3585020189114 71.76904390849809
    vertex 2.022358025571987 -409.358522941574 72.61227581929784
  endloop
endfacet
facet normal 0.00014115938515058286 -0.9999999897866297 -2.237785128871941e-05
  outer loop
    vertex -4.382624188429688 -409.35909416412534 72.43853459169054
    vertex 2.022358025571987 -409.358522941574 72.61227581929784
    vertex -4.186473782152919 -409.35909490992884 73.25895416065367
  endloop
endfacet
facet normal 0.00014115938515058286 -0.9999999897866297 -2.237785128871941e-05
  outer loop
    vertex -4.186473782152919 -409.35909490992884 73.25895416065367
    vertex 2.022358025571987 -409.358522941574 72.61227581929784
    vertex 1.7820194786980803 -409.35856261525066 73.4208552107203
  endloop
endfacet
facet normal 0.00014115938515058286 -0.9999999897866297 -2.237785128871941e-05
  outer loop
    vertex -4.186473782152919 -409.35909490992884 73.25895416065367
    vertex 1.7820194786980803 -409.35856261525066 73.4208552107203
    vertex -3.7846668309248988 -409.359075428049 74.00065114996177
  endloop
endfacet
facet normal 0.00014115938515058286 -0.9999999897866297 -2.237785128871941e-05
  outer loop
    vertex -3.7846668309248988 -409.359075428049 74.00065114996177
    vertex 1.7820194786980803 -409.35856261525066 73.4208552107203
    vertex 1.3405945244499595 -409.3586183362458 74.13967873348015
  endloop
endfacet
facet normal 0.00014115938515058286 -0.9999999897866297 -2.237785128871941e-05
  outer loop
    vertex -3.7846668309248988 -409.359075428049 74.00065114996177
    vertex 1.3405945244499595 -409.3586183362458 74.13967873348015
    vertex -3.204585814454381 -409.35903704614196 74.61308013550679
  endloop
endfacet
facet normal 0.00014115938515058286 -0.9999999897866297 -2.237785128871941e-05
  outer loop
    vertex -3.204585814454381 -409.35903704614196 74.61308013550679
    vertex 1.3405945244499595 -409.3586183362458 74.13967873348015
    vertex 0.728165543970372 -409.3586863072657 74.71975975241396
  endloop
endfacet
facet normal 0.00014115938515058286 -0.9999999897866297 -2.237785128871941e-05
  outer loop
    vertex -3.204585814454381 -409.35903704614196 74.61308013550679
    vertex 0.728165543970372 -409.3586863072657 74.71975975241396
    vertex -2.4857622953846557 -409.35898237987277 75.05450509401015
  endloop
endfacet
facet normal 0.00014115938515058286 -0.9999999897866297 -2.237785128871941e-05
  outer loop
    vertex -2.4857622953846557 -409.35898237987277 75.05450509401015
    vertex 0.728165543970372 -409.3586863072657 74.71975975241396
    vertex -0.013531439807781863 -409.35876189619756 75.12156670471025
  endloop
endfacet
facet normal 0.00014115938515058286 -0.9999999897866297 -2.237785128871941e-05
  outer loop
    vertex -2.4857622953846557 -409.35898237987277 75.05450509401015
    vertex -0.013531439807781863 -409.35876189619756 75.12156670471025
    vertex -1.67718290862826 -409.35891515465676 75.29484364403928
  endloop
endfacet
facet normal 0.00014115938515058286 -0.9999999897866297 -2.237785128871941e-05
  outer loop
    vertex -1.67718290862826 -409.35891515465676 75.29484364403928
    vertex -0.013531439807781863 -409.35876189619756 75.12156670471025
    vertex -0.8339510031521782 -409.35883995178096 75.3177171105876
  endloop
endfacet
facet normal 0.00014115938507473896 -0.9999999897866297 -2.2377851256150367e-05
  outer loop
    vertex -21.287341100384296 -409.3603347827415 68.95316748595921
    vertex -22.95941832440233 -409.3604859005875 68.99697233544394
    vertex -22.126263221516652 -409.3604081376408 68.86500333864463
  endloop
endfacet
facet normal 0.00014115938507473896 -0.9999999897866297 -2.2377851256150367e-05
  outer loop
    vertex -22.95941832440233 -409.3604859005875 68.99697233544394
    vertex -21.287341100384296 -409.3603347827415 68.95316748595921
    vertex -20.49982311717602 -409.3602708349061 69.25545653644691
  endloop
endfacet
facet normal 0.00014115938507473896 -0.9999999897866297 -2.2377851256150367e-05
  outer loop
    vertex -22.95941832440233 -409.3604859005875 68.99697233544394
    vertex -20.49982311717602 -409.3602708349061 69.25545653644691
    vertex -23.730028265633468 -409.36056277216613 69.34008100731515
  endloop
endfacet
facet normal 0.00014115938507473896 -0.9999999897866297 -2.2377851256150367e-05
  outer loop
    vertex -23.730028265633468 -409.36056277216613 69.34008100731515
    vertex -20.49982311717602 -409.3602708349061 69.25545653644691
    vertex -19.817377321012493 -409.3602206520723 69.7512699908731
  endloop
endfacet
facet normal 0.00014115938507473896 -0.9999999897866297 -2.2377851256150367e-05
  outer loop
    vertex -23.730028265633468 -409.36056277216613 69.34008100731515
    vertex -19.817377321012493 -409.3602206520723 69.7512699908731
    vertex -24.38557725120843 -409.3606335137047 69.87094706528369
  endloop
endfacet
facet normal 0.00014115938507473896 -0.9999999897866297 -2.2377851256150367e-05
  outer loop
    vertex -24.38557725120843 -409.3606335137047 69.87094706528369
    vertex -19.817377321012493 -409.3602206520723 69.7512699908731
    vertex -19.286511265107244 -409.3601876541178 70.40681898168907
  endloop
endfacet
facet normal 0.00014115938507473896 -0.9999999897866297 -2.2377851256150367e-05
  outer loop
    vertex -24.38557725120843 -409.3606335137047 69.87094706528369
    vertex -19.286511265107244 -409.3601876541178 70.40681898168907
    vertex -24.881390701106135 -409.3606933042854 70.5533928647966
  endloop
endfacet
facet normal 0.00014115938507473896 -0.9999999897866297 -2.2377851256150367e-05
  outer loop
    vertex -24.881390701106135 -409.3606933042854 70.5533928647966
    vertex -19.286511265107244 -409.3601876541178 70.40681898168907
    vertex -18.943402593872584 -409.36017408979967 71.17742892851668
  endloop
endfacet
facet normal 0.00014115938507473896 -0.9999999897866297 -2.2377851256150367e-05
  outer loop
    vertex -24.881390701106135 -409.3606933042854 70.5533928647966
    vertex -18.943402593872584 -409.36017408979967 71.17742892851668
    vertex -25.183679748086515 -409.36073806927726 71.3409108524122
  endloop
endfacet
facet normal 0.00014115938507473896 -0.9999999897866297 -2.2377851256150367e-05
  outer loop
    vertex -25.183679748086515 -409.36073806927726 71.3409108524122
    vertex -18.943402593872584 -409.36017408979967 71.17742892851668
    vertex -18.811433596239247 -409.3601808835018 72.0105840369728
  endloop
endfacet
facet normal 0.00014115938507473896 -0.9999999897866297 -2.2377851256150367e-05
  outer loop
    vertex -25.183679748086515 -409.36073806927726 71.3409108524122
    vertex -18.811433596239247 -409.3601808835018 72.0105840369728
    vertex -25.271843893154173 -409.3607647580224 72.17983297870931
  endloop
endfacet
facet normal 0.00014115938507473896 -0.9999999897866297 -2.2377851256150367e-05
  outer loop
    vertex -25.271843893154173 -409.3607647580224 72.17983297870931
    vertex -18.811433596239247 -409.3601808835018 72.0105840369728
    vertex -18.899597741306877 -409.3602075722469 72.84950616327019
  endloop
endfacet
facet normal 0.00014115938507473896 -0.9999999897866297 -2.2377851256150367e-05
  outer loop
    vertex -25.271843893154173 -409.3607647580224 72.17983297870931
    vertex -18.899597741306877 -409.3602075722469 72.84950616327019
    vertex -25.139874895520855 -409.36077155172507 73.01298808716567
  endloop
endfacet
facet normal 0.00014115938507473896 -0.9999999897866297 -2.2377851256150367e-05
  outer loop
    vertex -25.139874895520855 -409.36077155172507 73.01298808716567
    vertex -18.899597741306877 -409.3602075722469 72.84950616327019
    vertex -19.20188678828725 -409.3602523372397 73.63702415088585
  endloop
endfacet
facet normal 0.00014115938507473896 -0.9999999897866297 -2.2377851256150367e-05
  outer loop
    vertex -25.139874895520855 -409.36077155172507 73.01298808716567
    vertex -19.20188678828725 -409.3602523372397 73.63702415088585
    vertex -24.79676622428616 -409.3607579874064 73.78359803399317
  endloop
endfacet
facet normal 0.00014115938507473896 -0.9999999897866297 -2.2377851256150367e-05
  outer loop
    vertex -24.79676622428616 -409.3607579874064 73.78359803399317
    vertex -19.20188678828725 -409.3602523372397 73.63702415088585
    vertex -19.697700238184968 -409.3603121278198 74.31946995039878
  endloop
endfacet
facet normal 0.00014115938507473896 -0.9999999897866297 -2.2377851256150367e-05
  outer loop
    vertex -24.79676622428616 -409.3607579874064 73.78359803399317
    vertex -19.697700238184968 -409.3603121278198 74.31946995039878
    vertex -24.26590016838094 -409.36072498945254 74.43914702480947
  endloop
endfacet
facet normal 0.00014115938507473896 -0.9999999897866297 -2.2377851256150367e-05
  outer loop
    vertex -24.26590016838094 -409.36072498945254 74.43914702480947
    vertex -19.697700238184968 -409.3603121278198 74.31946995039878
    vertex -20.353249223759928 -409.36038286935866 74.85033600836734
  endloop
endfacet
facet normal 0.00014115938507473896 -0.9999999897866297 -2.2377851256150367e-05
  outer loop
    vertex -24.26590016838094 -409.36072498945254 74.43914702480947
    vertex -20.353249223759928 -409.36038286935866 74.85033600836734
    vertex -23.583454372217364 -409.3606748066186 74.93496047923568
  endloop
endfacet
facet normal 0.00014115938507473896 -0.9999999897866297 -2.2377851256150367e-05
  outer loop
    vertex -23.583454372217364 -409.3606748066186 74.93496047923568
    vertex -20.353249223759928 -409.36038286935866 74.85033600836734
    vertex -21.12385916499111 -409.3604597409373 75.19344468023868
  endloop
endfacet
facet normal 0.00014115938507473896 -0.9999999897866297 -2.2377851256150367e-05
  outer loop
    vertex -23.583454372217364 -409.3606748066186 74.93496047923568
    vertex -21.12385916499111 -409.3604597409373 75.19344468023868
    vertex -22.79593638900911 -409.36061085878265 75.23724952972313
  endloop
endfacet
facet normal 0.00014115938507473896 -0.9999999897866297 -2.2377851256150367e-05
  outer loop
    vertex -22.79593638900911 -409.36061085878265 75.23724952972313
    vertex -21.12385916499111 -409.3604597409373 75.19344468023868
    vertex -21.957014267876747 -409.360537503884 75.325413677038
  endloop
endfacet
facet normal 0.0001411593850742399 -0.9999999897866297 -2.237785125046724e-05
  outer loop
    vertex -11.140181999440307 -409.35932064435144 50.82425276391783
    vertex -12.80085974812262 -409.3594742287644 51.02402894466733
    vertex -11.983671390494408 -409.3593961712112 50.81482466691892
  endloop
endfacet
facet normal 0.0001411593850742399 -0.9999999897866297 -2.237785125046724e-05
  outer loop
    vertex -12.80085974812262 -409.3594742287644 51.02402894466733
    vertex -11.140181999440307 -409.35932064435144 50.82425276391783
    vertex -10.327873983028534 -409.35925279521626 51.05167072643401
  endloop
endfacet
facet normal 0.0001411593850742399 -0.9999999897866297 -2.237785125046724e-05
  outer loop
    vertex -12.80085974812262 -409.3594742287644 51.02402894466733
    vertex -10.327873983028534 -409.35925279521626 51.05167072643401
    vertex -13.536057036220106 -409.3595494975187 51.43760867135965
  endloop
endfacet
facet normal 0.0001411593850742399 -0.9999999897866297 -2.237785125046724e-05
  outer loop
    vertex -13.536057036220106 -409.3595494975187 51.43760867135965
    vertex -10.327873983028534 -409.35925279521626 51.05167072643401
    vertex -9.602104790174993 -409.35919724761186 51.481580396147564
  endloop
endfacet
facet normal 0.0001411593850742399 -0.9999999897866297 -2.237785125046724e-05
  outer loop
    vertex -13.536057036220106 -409.3595494975187 51.43760867135965
    vertex -9.602104790174993 -409.35919724761186 51.481580396147564
    vertex -14.139160774574103 -409.359616848032 52.02737907209604
  endloop
endfacet
facet normal 0.0001411593850742399 -0.9999999897866297 -2.237785125046724e-05
  outer loop
    vertex -14.139160774574103 -409.359616848032 52.02737907209604
    vertex -9.602104790174993 -409.35919724761186 51.481580396147564
    vertex -9.01233439198245 -409.3591577870162 52.084684139527006
  endloop
endfacet
facet normal 0.0001411593850742399 -0.9999999897866297 -2.237785125046724e-05
  outer loop
    vertex -14.139160774574103 -409.359616848032 52.02737907209604
    vertex -9.01233439198245 -409.3591577870162 52.084684139527006
    vertex -14.569070440091794 -409.35967169047905 52.753148268707115
  endloop
endfacet
facet normal 0.0001411593850742399 -0.9999999897866297 -2.237785125046724e-05
  outer loop
    vertex -14.569070440091794 -409.35967169047905 52.753148268707115
    vertex -9.01233439198245 -409.3591577870162 52.084684139527006
    vertex -8.598754666446043 -409.359137102603 52.81988143313705
  endloop
endfacet
facet normal 0.0001411593850742399 -0.9999999897866297 -2.237785125046724e-05
  outer loop
    vertex -14.569070440091794 -409.35967169047905 52.753148268707115
    vertex -8.598754666446043 -409.359137102603 52.81988143313705
    vertex -14.79648839952744 -409.35971028743694 53.565456289834906
  endloop
endfacet
facet normal 0.0001411593850742399 -0.9999999897866297 -2.237785125046724e-05
  outer loop
    vertex -14.79648839952744 -409.35971028743694 53.565456289834906
    vertex -8.598754666446043 -409.359137102603 52.81988143313705
    vertex -8.389550388388216 -409.35913660398137 53.637069796389234
  endloop
endfacet
facet normal 0.0001411593850742399 -0.9999999897866297 -2.237785125046724e-05
  outer loop
    vertex -14.79648839952744 -409.35971028743694 53.565456289834906
    vertex -8.389550388388216 -409.35913660398137 53.637069796389234
    vertex -14.805916494771427 -409.3597300085869 54.40894568624083
  endloop
endfacet
facet normal 0.0001411593850742399 -0.9999999897866297 -2.237785125046724e-05
  outer loop
    vertex -14.805916494771427 -409.3597300085869 54.40894568624083
    vertex -8.389550388388216 -409.35913660398137 53.637069796389234
    vertex -8.398978483632263 -409.35915632513127 54.480559192795546
  endloop
endfacet
facet normal 0.0001411593850742399 -0.9999999897866297 -2.237785125046724e-05
  outer loop
    vertex -14.805916494771427 -409.3597300085869 54.40894568624083
    vertex -8.398978483632263 -409.35915632513127 54.480559192795546
    vertex -14.596712216713646 -409.35972950996495 55.226134049493126
  endloop
endfacet
facet normal 0.0001411593850742399 -0.9999999897866297 -2.237785125046724e-05
  outer loop
    vertex -14.596712216713646 -409.35972950996495 55.226134049493126
    vertex -8.398978483632263 -409.35915632513127 54.480559192795546
    vertex -8.626396443067899 -409.3591949220891 55.292867213922996
  endloop
endfacet
facet normal 0.0001411593850742399 -0.9999999897866297 -2.237785125046724e-05
  outer loop
    vertex -14.596712216713646 -409.35972950996495 55.226134049493126
    vertex -8.626396443067899 -409.3591949220891 55.292867213922996
    vertex -14.183132491177199 -409.3597088255521 55.961331343103254
  endloop
endfacet
facet normal 0.0001411593850742399 -0.9999999897866297 -2.237785125046724e-05
  outer loop
    vertex -14.183132491177199 -409.3597088255521 55.961331343103254
    vertex -8.626396443067899 -409.3591949220891 55.292867213922996
    vertex -9.056306108585536 -409.35924976453606 56.01863641053426
  endloop
endfacet
facet normal 0.0001411593850742399 -0.9999999897866297 -2.237785125046724e-05
  outer loop
    vertex -14.183132491177199 -409.3597088255521 55.961331343103254
    vertex -9.056306108585536 -409.35924976453606 56.01863641053426
    vertex -13.593362092984638 -409.3596693649563 56.56443508648273
  endloop
endfacet
facet normal 0.0001411593850742399 -0.9999999897866297 -2.237785125046724e-05
  outer loop
    vertex -13.593362092984638 -409.3596693649563 56.56443508648273
    vertex -9.056306108585536 -409.35924976453606 56.01863641053426
    vertex -9.659409846939528 -409.3593171150491 56.60840681127051
  endloop
endfacet
facet normal 0.0001411593850742399 -0.9999999897866297 -2.237785125046724e-05
  outer loop
    vertex -13.593362092984638 -409.3596693649563 56.56443508648273
    vertex -9.659409846939528 -409.3593171150491 56.60840681127051
    vertex -12.867592900131175 -409.3596138173519 56.99434475619626
  endloop
endfacet
facet normal 0.0001411593850742399 -0.9999999897866297 -2.237785125046724e-05
  outer loop
    vertex -12.867592900131175 -409.3596138173519 56.99434475619626
    vertex -9.659409846939528 -409.3593171150491 56.60840681127051
    vertex -10.394607135037068 -409.3593923838037 57.02198653796315
  endloop
endfacet
facet normal 0.0001411593850742399 -0.9999999897866297 -2.237785125046724e-05
  outer loop
    vertex -12.867592900131175 -409.3596138173519 56.99434475619626
    vertex -10.394607135037068 -409.3593923838037 57.02198653796315
    vertex -12.05528488371932 -409.3595459682168 57.22176271871229
  endloop
endfacet
facet normal 0.0001411593850742399 -0.9999999897866297 -2.237785125046724e-05
  outer loop
    vertex -12.05528488371932 -409.3595459682168 57.22176271871229
    vertex -10.394607135037068 -409.3593923838037 57.02198653796315
    vertex -11.211795492665232 -409.35947044135685 57.231190815711166
  endloop
endfacet
endsolid pedro_robot
