solid pedro_robot
facet normal -0.00011679841526243513 -0.9999999913846173 -5.990739357658578e-05
  outer loop
    vertex -117.43730539003946 -79.29992598469863 18.496431744449207
    vertex -156.00818353334313 -79.29239165346601 16.606317000802424
    vertex -117.4372689833536 -79.29238199430127 16.606253679074467
  endloop
endfacet
facet normal -0.00011679841526243513 -0.9999999913846173 -5.990739357658578e-05
  outer loop
    vertex -156.00818353334313 -79.29239165346601 16.606317000802424
    vertex -117.43730539003946 -79.29992598469863 18.496431744449207
    vertex -160.85304352141017 -79.29218364324711 17.15147997739856
  endloop
endfacet
facet normal -0.00011679841526243513 -0.9999999913846173 -5.990739357658578e-05
  outer loop
    vertex -160.85304352141017 -79.29218364324711 17.15147997739856
    vertex -117.43730539003946 -79.29992598469863 18.496431744449207
    vertex -160.8165543675333 -79.29220277287202 17.71211549549039
  endloop
endfacet
facet normal -0.00011679841526243513 -0.9999999913846173 -5.990739357658578e-05
  outer loop
    vertex -160.8165543675333 -79.29220277287202 17.71211549549039
    vertex -117.43730539003946 -79.29992598469863 18.496431744449207
    vertex -160.70717771718992 -79.2922341002095 18.263187532742275
  endloop
endfacet
facet normal -0.00011679841526243513 -0.9999999913846173 -5.990739357658578e-05
  outer loop
    vertex -160.70717771718992 -79.2922341002095 18.263187532742275
    vertex -117.43730539003946 -79.29992598469863 18.496431744449207
    vertex -120.61237061818916 -79.29833883618542 18.496583158833985
  endloop
endfacet
facet normal -0.00011679841526243513 -0.9999999913846173 -5.990739357658578e-05
  outer loop
    vertex -160.70717771718992 -79.2922341002095 18.263187532742275
    vertex -120.61237061818916 -79.29833883618542 18.496583158833985
    vertex -160.52678617774075 -79.29227708891291 18.795261337312485
  endloop
endfacet
facet normal -0.00011679841526243513 -0.9999999913846173 -5.990739357658578e-05
  outer loop
    vertex -160.52678617774075 -79.29227708891291 18.795261337312485
    vertex -120.61237061818916 -79.29833883618542 18.496583158833985
    vertex -120.61236438078419 -79.29833958464121 21.447139964819456
  endloop
endfacet
facet normal -0.00011679841526243513 -0.9999999913846173 -5.990739357658578e-05
  outer loop
    vertex -160.52678617774075 -79.29227708891291 18.795261337312485
    vertex -120.61236438078419 -79.29833958464121 21.447139964819456
    vertex -160.27846818280975 -79.29233100298451 19.299227420843316
  endloop
endfacet
facet normal -0.00011679841526243513 -0.9999999913846173 -5.990739357658578e-05
  outer loop
    vertex -160.27846818280975 -79.29233100298451 19.299227420843316
    vertex -120.61236438078419 -79.29833958464121 21.447139964819456
    vertex -159.9664751160666 -79.29239491937642 19.76645751949022
  endloop
endfacet
facet normal -0.00011679841526243513 -0.9999999913846173 -5.990739357658578e-05
  outer loop
    vertex -159.9664751160666 -79.29239491937642 19.76645751949022
    vertex -120.61236438078419 -79.29833958464121 21.447139964819456
    vertex -159.5961485244636 -79.29246774379384 20.18895231603923
  endloop
endfacet
facet normal -0.00011679841526243513 -0.9999999913846173 -5.990739357658578e-05
  outer loop
    vertex -159.5961485244636 -79.29246774379384 20.18895231603923
    vertex -120.61236438078419 -79.29833958464121 21.447139964819456
    vertex -159.17382866708843 -79.29254822942998 20.559478394003218
  endloop
endfacet
facet normal -0.00011679841526243513 -0.9999999913846173 -5.990739357658578e-05
  outer loop
    vertex -159.17382866708843 -79.29254822942998 20.559478394003218
    vertex -120.61236438078419 -79.29833958464121 21.447139964819456
    vertex -158.70674596534306 -79.2926349983126 20.87169207894369
  endloop
endfacet
facet normal -0.00011679841526243513 -0.9999999913846173 -5.990739357658578e-05
  outer loop
    vertex -158.70674596534306 -79.2926349983126 20.87169207894369
    vertex -120.61236438078419 -79.29833958464121 21.447139964819456
    vertex -158.2028972128999 -79.29272656489564 21.120248046765273
  endloop
endfacet
facet normal -0.00011679841526243513 -0.9999999913846173 -5.990739357658578e-05
  outer loop
    vertex -158.2028972128999 -79.29272656489564 21.120248046765273
    vertex -120.61236438078419 -79.29833958464121 21.447139964819456
    vertex -157.67090866481044 -79.29282136149301 21.30089083953026
  endloop
endfacet
facet normal -0.00011679841526243513 -0.9999999913846173 -5.990739357658578e-05
  outer loop
    vertex -157.67090866481044 -79.29282136149301 21.30089083953026
    vertex -120.61236438078419 -79.29833958464121 21.447139964819456
    vertex -157.1198883497797 -79.29291776511836 21.41052772197624
  endloop
endfacet
facet normal -0.00011679841526243513 -0.9999999913846173 -5.990739357658578e-05
  outer loop
    vertex -157.1198883497797 -79.29291776511836 21.41052772197624
    vertex -120.61236438078419 -79.29833958464121 21.447139964819456
    vertex -156.55927013412764 -79.29301412527192 21.447281631380648
  endloop
endfacet
facet normal -0.00011679841526243513 -0.9999999913846173 -5.990739357658578e-05
  outer loop
    vertex -156.00818353334313 -79.29239165346601 16.606317000802424
    vertex -157.90723607524626 -79.29154833938759 -0.8948206095825624
    vertex -156.0084132116007 -79.29196614178765 -0.894820609766606
  endloop
endfacet
facet normal -0.00011679841526243513 -0.9999999913846173 -5.990739357658578e-05
  outer loop
    vertex -157.90723607524626 -79.29154833938759 -0.8948206095825624
    vertex -156.00818353334313 -79.29239165346601 16.606317000802424
    vertex -157.90706456021206 -79.29166317832059 2.456202504824176
  endloop
endfacet
facet normal -0.00011679841526243513 -0.9999999913846173 -5.990739357658578e-05
  outer loop
    vertex -157.90706456021206 -79.29166317832059 2.456202504824176
    vertex -156.00818353334313 -79.29239165346601 16.606317000802424
    vertex -160.84670421464426 -79.29174524526825 2.456240967689873
  endloop
endfacet
facet normal -0.00011679841526243513 -0.9999999913846173 -5.990739357658578e-05
  outer loop
    vertex -160.84670421464426 -79.29174524526825 2.456240967689873
    vertex -156.00818353334313 -79.29239165346601 16.606317000802424
    vertex -160.85304352141017 -79.29218364324711 17.15147997739856
  endloop
endfacet
facet normal 0.00011679841526243513 0.9999999913846173 5.990739357658578e-05
  outer loop
    vertex -157.89773581856744 2.0473685936518495 -0.8899478070307814
    vertex -155.9986832766643 2.046525279573416 16.611189803354215
    vertex -155.99891295492188 2.046950791251777 -0.889947807214825
  endloop
endfacet
facet normal 0.00011679841526243513 0.9999999913846173 5.990739357658578e-05
  outer loop
    vertex -155.9986832766643 2.046525279573416 16.611189803354215
    vertex -157.89773581856744 2.0473685936518495 -0.8899478070307814
    vertex -157.89756430353322 2.047253754718846 2.4610753073759577
  endloop
endfacet
facet normal 0.00011679841526243513 0.9999999913846173 5.990739357658578e-05
  outer loop
    vertex -155.9986832766643 2.046525279573416 16.611189803354215
    vertex -157.89756430353322 2.047253754718846 2.4610753073759577
    vertex -160.83720395796544 2.0471716877711916 2.4611137702416546
  endloop
endfacet
facet normal 0.00011679841526243513 0.9999999913846173 5.990739357658578e-05
  outer loop
    vertex -155.9986832766643 2.046525279573416 16.611189803354215
    vertex -160.83720395796544 2.0471716877711916 2.4611137702416546
    vertex -160.84354326473135 2.0467332897923187 17.15635277995035
  endloop
endfacet
facet normal 0.00011679841526243513 0.9999999913846173 5.990739357658578e-05
  outer loop
    vertex -155.9986832766643 2.046525279573416 16.611189803354215
    vertex -117.42780513336064 2.038990948340807 18.501304547001
    vertex -117.42776872667477 2.04653493873817 16.611126481626258
  endloop
endfacet
facet normal 0.00011679841526243513 0.9999999913846173 5.990739357658578e-05
  outer loop
    vertex -117.42780513336064 2.038990948340807 18.501304547001
    vertex -155.9986832766643 2.046525279573416 16.611189803354215
    vertex -160.84354326473135 2.0467332897923187 17.15635277995035
  endloop
endfacet
facet normal 0.00011679841526243513 0.9999999913846173 5.990739357658578e-05
  outer loop
    vertex -117.42780513336064 2.038990948340807 18.501304547001
    vertex -160.84354326473135 2.0467332897923187 17.15635277995035
    vertex -160.8070541108545 2.0467141601674097 17.716988298042182
  endloop
endfacet
facet normal 0.00011679841526243513 0.9999999913846173 5.990739357658578e-05
  outer loop
    vertex -117.42780513336064 2.038990948340807 18.501304547001
    vertex -160.8070541108545 2.0467141601674097 17.716988298042182
    vertex -160.6976774605111 2.046682832829932 18.268060335294066
  endloop
endfacet
facet normal 0.00011679841526243513 0.9999999913846173 5.990739357658578e-05
  outer loop
    vertex -117.42780513336064 2.038990948340807 18.501304547001
    vertex -160.6976774605111 2.046682832829932 18.268060335294066
    vertex -120.60287036151033 2.040578096854011 18.501455961385776
  endloop
endfacet
facet normal 0.00011679841526243513 0.9999999913846173 5.990739357658578e-05
  outer loop
    vertex -120.60287036151033 2.040578096854011 18.501455961385776
    vertex -160.6976774605111 2.046682832829932 18.268060335294066
    vertex -160.51728592106193 2.0466398441265232 18.800134139864277
  endloop
endfacet
facet normal 0.00011679841526243513 0.9999999913846173 5.990739357658578e-05
  outer loop
    vertex -120.60287036151033 2.040578096854011 18.501455961385776
    vertex -160.51728592106193 2.0466398441265232 18.800134139864277
    vertex -120.60286412410537 2.0405773483982244 21.452012767371247
  endloop
endfacet
facet normal 0.00011679841526243513 0.9999999913846173 5.990739357658578e-05
  outer loop
    vertex -120.60286412410537 2.0405773483982244 21.452012767371247
    vertex -160.51728592106193 2.0466398441265232 18.800134139864277
    vertex -160.26896792613093 2.046585930054923 19.304100223395107
  endloop
endfacet
facet normal 0.00011679841526243513 0.9999999913846173 5.990739357658578e-05
  outer loop
    vertex -120.60286412410537 2.0405773483982244 21.452012767371247
    vertex -160.26896792613093 2.046585930054923 19.304100223395107
    vertex -159.95697485938777 2.0465220136630062 19.77133032204201
  endloop
endfacet
facet normal 0.00011679841526243513 0.9999999913846173 5.990739357658578e-05
  outer loop
    vertex -120.60286412410537 2.0405773483982244 21.452012767371247
    vertex -159.95697485938777 2.0465220136630062 19.77133032204201
    vertex -159.58664826778477 2.0464491892456014 20.193825118591022
  endloop
endfacet
facet normal 0.00011679841526243513 0.9999999913846173 5.990739357658578e-05
  outer loop
    vertex -120.60286412410537 2.0405773483982244 21.452012767371247
    vertex -159.58664826778477 2.0464491892456014 20.193825118591022
    vertex -159.1643284104096 2.0463687036094473 20.56435119655501
  endloop
endfacet
facet normal 0.00011679841526243513 0.9999999913846173 5.990739357658578e-05
  outer loop
    vertex -120.60286412410537 2.0405773483982244 21.452012767371247
    vertex -159.1643284104096 2.0463687036094473 20.56435119655501
    vertex -158.69724570866424 2.046281934726834 20.87656488149548
  endloop
endfacet
facet normal 0.00011679841526243513 0.9999999913846173 5.990739357658578e-05
  outer loop
    vertex -120.60286412410537 2.0405773483982244 21.452012767371247
    vertex -158.69724570866424 2.046281934726834 20.87656488149548
    vertex -158.19339695622108 2.0461903681437867 21.125120849317064
  endloop
endfacet
facet normal 0.00011679841526243513 0.9999999913846173 5.990739357658578e-05
  outer loop
    vertex -120.60286412410537 2.0405773483982244 21.452012767371247
    vertex -158.19339695622108 2.0461903681437867 21.125120849317064
    vertex -157.66140840813162 2.0460955715464277 21.305763642082052
  endloop
endfacet
facet normal 0.00011679841526243513 0.9999999913846173 5.990739357658578e-05
  outer loop
    vertex -120.60286412410537 2.0405773483982244 21.452012767371247
    vertex -157.66140840813162 2.0460955715464277 21.305763642082052
    vertex -157.11038809310088 2.0459991679210754 21.41540052452803
  endloop
endfacet
facet normal 0.00011679841526243513 0.9999999913846173 5.990739357658578e-05
  outer loop
    vertex -120.60286412410537 2.0405773483982244 21.452012767371247
    vertex -157.11038809310088 2.0459991679210754 21.41540052452803
    vertex -156.54976987744882 2.045902807767514 21.45215443393244
  endloop
endfacet
facet normal -0.9999999918693745 0.00011679534884597084 5.118688819005293e-05
  outer loop
    vertex -157.89756430353322 2.047253754718846 2.4610753073759577
    vertex -157.90723607524626 -79.29154833938759 -0.8948206095825624
    vertex -157.90706456021206 -79.29166317832059 2.456202504824176
  endloop
endfacet
facet normal -0.9999999918693745 0.00011679534884597084 5.118688819005293e-05
  outer loop
    vertex -157.90723607524626 -79.29154833938759 -0.8948206095825624
    vertex -157.89756430353322 2.047253754718846 2.4610753073759577
    vertex -157.89773581856744 2.0473685936518495 -0.8899478070307814
  endloop
endfacet
facet normal 1.3084637395167531e-08 5.9907392456945286e-05 -0.9999999982055521
  outer loop
    vertex -157.89773581856744 2.0473685936518495 -0.8899478070307814
    vertex -156.0084132116007 -79.29196614178765 -0.894820609766606
    vertex -157.90723607524626 -79.29154833938759 -0.8948206095825624
  endloop
endfacet
facet normal 1.3084637395167531e-08 5.9907392456945286e-05 -0.9999999982055521
  outer loop
    vertex -156.0084132116007 -79.29196614178765 -0.894820609766606
    vertex -157.89773581856744 2.0473685936518495 -0.8899478070307814
    vertex -155.99891295492188 2.046950791251777 -0.889947807214825
  endloop
endfacet
facet normal 0.999999993093005 -0.00011679762909005598 -1.3126458395702379e-05
  outer loop
    vertex -156.0084132116007 -79.29196614178765 -0.894820609766606
    vertex -155.9986832766643 2.046525279573416 16.611189803354215
    vertex -156.00818353334313 -79.29239165346601 16.606317000802424
  endloop
endfacet
facet normal 0.999999993093005 -0.00011679762909005598 -1.3126458395702379e-05
  outer loop
    vertex -155.9986832766643 2.046525279573416 16.611189803354215
    vertex -156.0084132116007 -79.29196614178765 -0.894820609766606
    vertex -155.99891295492188 2.046950791251777 -0.889947807214825
  endloop
endfacet
facet normal -1.6417113059581168e-06 5.99075857344093e-05 -0.999999998204193
  outer loop
    vertex -155.9986832766643 2.046525279573416 16.611189803354215
    vertex -117.4372689833536 -79.29238199430127 16.606253679074467
    vertex -156.00818353334313 -79.29239165346601 16.606317000802424
  endloop
endfacet
facet normal -1.6417113059581168e-06 5.99075857344093e-05 -0.999999998204193
  outer loop
    vertex -117.4372689833536 -79.29238199430127 16.606253679074467
    vertex -155.9986832766643 2.046525279573416 16.611189803354215
    vertex -117.42776872667477 2.04653493873817 16.611126481626258
  endloop
endfacet
facet normal 0.999999993002311 -0.00011679954139989272 1.879481707653426e-05
  outer loop
    vertex -117.4372689833536 -79.29238199430127 16.606253679074467
    vertex -117.42780513336064 2.038990948340807 18.501304547001
    vertex -117.43730539003946 -79.29992598469863 18.496431744449207
  endloop
endfacet
facet normal 0.999999993002311 -0.00011679954139989272 1.879481707653426e-05
  outer loop
    vertex -117.42780513336064 2.038990948340807 18.501304547001
    vertex -117.4372689833536 -79.29238199430127 16.606253679074467
    vertex -117.42776872667477 2.04653493873817 16.611126481626258
  endloop
endfacet
facet normal 4.7658640907880285e-05 -5.991296037093458e-05 0.9999999970695456
  outer loop
    vertex -117.43730539003946 -79.29992598469863 18.496431744449207
    vertex -120.60287036151033 2.040578096854011 18.501455961385776
    vertex -120.61237061818916 -79.29833883618542 18.496583158833985
  endloop
endfacet
facet normal 4.7658640907880285e-05 -5.991296037093458e-05 0.9999999970695456
  outer loop
    vertex -120.60287036151033 2.040578096854011 18.501455961385776
    vertex -117.43730539003946 -79.29992598469863 18.496431744449207
    vertex -117.42780513336064 2.038990948340807 18.501304547001
  endloop
endfacet
facet normal 0.9999999931768455 -0.00011679828882722361 -2.1140051716707898e-06
  outer loop
    vertex -120.61237061818916 -79.29833883618542 18.496583158833985
    vertex -120.60286412410537 2.0405773483982244 21.452012767371247
    vertex -120.61236438078419 -79.29833958464121 21.447139964819456
  endloop
endfacet
facet normal 0.9999999931768455 -0.00011679828882722361 -2.1140051716707898e-06
  outer loop
    vertex -120.60286412410537 2.0405773483982244 21.452012767371247
    vertex -120.61237061818916 -79.29833883618542 18.496583158833985
    vertex -120.60287036151033 2.040578096854011 18.501455961385776
  endloop
endfacet
facet normal 3.932119361442507e-06 -5.990785325005943e-05 0.9999999981977938
  outer loop
    vertex -120.61236438078419 -79.29833958464121 21.447139964819456
    vertex -156.54976987744882 2.045902807767514 21.45215443393244
    vertex -156.55927013412764 -79.29301412527192 21.447281631380648
  endloop
endfacet
facet normal 3.932119361442507e-06 -5.990785325005943e-05 0.9999999981977938
  outer loop
    vertex -156.54976987744882 2.045902807767514 21.45215443393244
    vertex -120.61236438078419 -79.29833958464121 21.447139964819456
    vertex -120.60286412410537 2.0405773483982244 21.452012767371247
  endloop
endfacet
facet normal -0.0654191778781282 -5.2138208288625145e-05 0.9978578698629165
  outer loop
    vertex -156.55927013412764 -79.29301412527192 21.447281631380648
    vertex -157.11038809310088 2.0459991679210754 21.41540052452803
    vertex -157.1198883497797 -79.29291776511836 21.41052772197624
  endloop
endfacet
facet normal -0.0654191778781282 -5.2138208288625145e-05 0.9978578698629165
  outer loop
    vertex -157.11038809310088 2.0459991679210754 21.41540052452803
    vertex -156.55927013412764 -79.29301412527192 21.447281631380648
    vertex -156.54976987744882 2.045902807767514 21.45215443393244
  endloop
endfacet
facet normal -0.19514533502140333 -3.596296855247331e-05 0.9807743353728469
  outer loop
    vertex -157.1198883497797 -79.29291776511836 21.41052772197624
    vertex -157.66140840813162 2.0460955715464277 21.305763642082052
    vertex -157.67090866481044 -79.29282136149301 21.30089083953026
  endloop
endfacet
facet normal -0.19514533502140333 -3.596296855247331e-05 0.9807743353728469
  outer loop
    vertex -157.66140840813162 2.0460955715464277 21.305763642082052
    vertex -157.1198883497797 -79.29291776511836 21.41052772197624
    vertex -157.11038809310088 2.0459991679210754 21.41540052452803
  endloop
endfacet
facet normal -0.3215304628201574 -1.9172016793504225e-05 0.9468992349300369
  outer loop
    vertex -157.67090866481044 -79.29282136149301 21.30089083953026
    vertex -158.19339695622108 2.0461903681437867 21.125120849317064
    vertex -158.2028972128999 -79.29272656489564 21.120248046765273
  endloop
endfacet
facet normal -0.3215304628201574 -1.9172016793504225e-05 0.9468992349300369
  outer loop
    vertex -158.19339695622108 2.0461903681437867 21.125120849317064
    vertex -157.67090866481044 -79.29282136149301 21.30089083953026
    vertex -157.66140840813162 2.0460955715464277 21.305763642082052
  endloop
endfacet
facet normal -0.4424107564895438 -2.052826250119925e-06 0.8968125347797807
  outer loop
    vertex -158.2028972128999 -79.29272656489564 21.120248046765273
    vertex -158.69724570866424 2.046281934726834 20.87656488149548
    vertex -158.70674596534306 -79.2926349983126 20.87169207894369
  endloop
endfacet
facet normal -0.4424107564895438 -2.052826250119925e-06 0.8968125347797807
  outer loop
    vertex -158.69724570866424 2.046281934726834 20.87656488149548
    vertex -158.2028972128999 -79.29272656489564 21.120248046765273
    vertex -158.19339695622108 2.0461903681437867 21.125120849317064
  endloop
endfacet
facet normal -0.5557166579953087 1.5101510155308317e-05 0.8313717554731275
  outer loop
    vertex -158.70674596534306 -79.2926349983126 20.87169207894369
    vertex -159.1643284104096 2.0463687036094473 20.56435119655501
    vertex -159.17382866708843 -79.29254822942998 20.559478394003218
  endloop
endfacet
facet normal -0.5557166579953087 1.5101510155308317e-05 0.8313717554731275
  outer loop
    vertex -159.1643284104096 2.0463687036094473 20.56435119655501
    vertex -158.70674596534306 -79.2926349983126 20.87169207894369
    vertex -158.69724570866424 2.046281934726834 20.87656488149548
  endloop
endfacet
facet normal -0.6595082883810148 3.199729777905906e-05 0.7516972904919355
  outer loop
    vertex -159.17382866708843 -79.29254822942998 20.559478394003218
    vertex -159.58664826778477 2.0464491892456014 20.193825118591022
    vertex -159.5961485244636 -79.29246774379384 20.18895231603923
  endloop
endfacet
facet normal -0.6595082883810148 3.199729777905906e-05 0.7516972904919355
  outer loop
    vertex -159.58664826778477 2.0464491892456014 20.193825118591022
    vertex -159.17382866708843 -79.29254822942998 20.559478394003218
    vertex -159.1643284104096 2.0463687036094473 20.56435119655501
  endloop
endfacet
facet normal -0.7520086598948329 4.8345268520403834e-05 0.6591532243006272
  outer loop
    vertex -159.58664826778477 2.0464491892456014 20.193825118591022
    vertex -159.9664751160666 -79.29239491937642 19.76645751949022
    vertex -159.5961485244636 -79.29246774379384 20.18895231603923
  endloop
endfacet
facet normal -0.7520086598948329 4.8345268520403834e-05 0.6591532243006272
  outer loop
    vertex -159.9664751160666 -79.29239491937642 19.76645751949022
    vertex -159.58664826778477 2.0464491892456014 20.193825118591022
    vertex -159.95697485938777 2.0465220136630062 19.77133032204201
  endloop
endfacet
facet normal -0.8316340993008571 6.386553330021016e-05 0.555323978233649
  outer loop
    vertex -159.95697485938777 2.0465220136630062 19.77133032204201
    vertex -160.27846818280975 -79.29233100298451 19.299227420843316
    vertex -159.9664751160666 -79.29239491937642 19.76645751949022
  endloop
endfacet
facet normal -0.8316340993008571 6.386553330021016e-05 0.555323978233649
  outer loop
    vertex -160.27846818280975 -79.29233100298451 19.299227420843316
    vertex -159.95697485938777 2.0465220136630062 19.77133032204201
    vertex -160.26896792613093 2.046585930054923 19.304100223395107
  endloop
endfacet
facet normal -0.8970213615063327 7.829237396383351e-05 0.44198718405812343
  outer loop
    vertex -160.26896792613093 2.046585930054923 19.304100223395107
    vertex -160.52678617774075 -79.29227708891291 18.795261337312485
    vertex -160.27846818280975 -79.29233100298451 19.299227420843316
  endloop
endfacet
facet normal -0.8970213615063327 7.829237396383351e-05 0.44198718405812343
  outer loop
    vertex -160.52678617774075 -79.29227708891291 18.795261337312485
    vertex -160.26896792613093 2.046585930054923 19.304100223395107
    vertex -160.51728592106193 2.0466398441265232 18.800134139864277
  endloop
endfacet
facet normal -0.9470509693007656 9.13787925675917e-05 0.32108324963535073
  outer loop
    vertex -160.51728592106193 2.0466398441265232 18.800134139864277
    vertex -160.70717771718992 -79.2922341002095 18.263187532742275
    vertex -160.52678617774075 -79.29227708891291 18.795261337312485
  endloop
endfacet
facet normal -0.9470509693007656 9.13787925675917e-05 0.32108324963535073
  outer loop
    vertex -160.70717771718992 -79.2922341002095 18.263187532742275
    vertex -160.51728592106193 2.0466398441265232 18.800134139864277
    vertex -160.6976774605111 2.046682832829932 18.268060335294066
  endloop
endfacet
facet normal -0.9808663796139194 0.0001029007401617922 0.19468213773872625
  outer loop
    vertex -160.6976774605111 2.046682832829932 18.268060335294066
    vertex -160.8165543675333 -79.29220277287202 17.71211549549039
    vertex -160.70717771718992 -79.2922341002095 18.263187532742275
  endloop
endfacet
facet normal -0.9808663796139194 0.0001029007401617922 0.19468213773872625
  outer loop
    vertex -160.8165543675333 -79.29220277287202 17.71211549549039
    vertex -160.6976774605111 2.046682832829932 18.268060335294066
    vertex -160.8070541108545 2.0467141601674097 17.716988298042182
  endloop
endfacet
facet normal -0.9978886481527406 0.00011266095267053817 0.06494792679836349
  outer loop
    vertex -160.8070541108545 2.0467141601674097 17.716988298042182
    vertex -160.85304352141017 -79.29218364324711 17.15147997739856
    vertex -160.8165543675333 -79.29220277287202 17.71211549549039
  endloop
endfacet
facet normal -0.9978886481527406 0.00011266095267053817 0.06494792679836349
  outer loop
    vertex -160.85304352141017 -79.29218364324711 17.15147997739856
    vertex -160.8070541108545 2.0467141601674097 17.716988298042182
    vertex -160.84354326473135 2.0467332897923187 17.15635277995035
  endloop
endfacet
facet normal -0.9999999001310238 0.00011682424754841793 -0.0004313815456235458
  outer loop
    vertex -160.84354326473135 2.0467332897923187 17.15635277995035
    vertex -160.84670421464426 -79.29174524526825 2.456240967689873
    vertex -160.85304352141017 -79.29218364324711 17.15147997739856
  endloop
endfacet
facet normal -0.9999999001310238 0.00011682424754841793 -0.0004313815456235458
  outer loop
    vertex -160.84670421464426 -79.29174524526825 2.456240967689873
    vertex -160.84354326473135 2.0467332897923187 17.15635277995035
    vertex -160.83720395796544 2.0471716877711916 2.4611137702416546
  endloop
endfacet
facet normal -1.3085883539774109e-05 5.990892239054838e-05 -0.9999999981198404
  outer loop
    vertex -160.83720395796544 2.0471716877711916 2.4611137702416546
    vertex -157.90706456021206 -79.29166317832059 2.456202504824176
    vertex -160.84670421464426 -79.29174524526825 2.456240967689873
  endloop
endfacet
facet normal -1.3085883539774109e-05 5.990892239054838e-05 -0.9999999981198404
  outer loop
    vertex -157.90706456021206 -79.29166317832059 2.456202504824176
    vertex -160.83720395796544 2.0471716877711916 2.4611137702416546
    vertex -157.89756430353322 2.047253754718846 2.4610753073759577
  endloop
endfacet
endsolid pedro_robot
