solid pedro_robot
facet normal -6.627347771405459e-05 -7.28936172840561e-05 0.9999999951471734
  outer loop
    vertex 54.38156075123885 -25.861836629550403 146.4787551936164
    vertex 50.781765250152944 -22.661626079736248 146.4787498975725
    vertex 50.781765234693005 -25.8618366469407 146.47851662264605
  endloop
endfacet
facet normal -6.627347771405459e-05 -7.28936172840561e-05 0.9999999951471734
  outer loop
    vertex 50.781765250152944 -22.661626079736248 146.4787498975725
    vertex 54.38156075123885 -25.861836629550403 146.4787551936164
    vertex 54.38156073577891 -22.66162609712655 146.4789884685383
  endloop
endfacet
facet normal 9.661824976012394e-09 -0.9999999973432604 -7.289361680381407e-05
  outer loop
    vertex 54.3835956333066 -25.859598480598837 115.77443533508051
    vertex 50.781765234693005 -25.8618366469407 146.47851662264605
    vertex 50.783800116760744 -25.859598497989133 115.77419676411013
  endloop
endfacet
facet normal 9.661824976012394e-09 -0.9999999973432604 -7.289361680381407e-05
  outer loop
    vertex 50.781765234693005 -25.8618366469407 146.47851662264605
    vertex 54.3835956333066 -25.859598480598837 115.77443533508051
    vertex 54.38156075123885 -25.861836629550403 146.4787551936164
  endloop
endfacet
facet normal 0.9999999978039131 -4.876495313508879e-15 6.62734778901256e-05
  outer loop
    vertex 54.3835956333066 -25.859598480598837 115.77443533508051
    vertex 54.38156073577891 -22.66162609712655 146.4789884685383
    vertex 54.38156075123885 -25.861836629550403 146.4787551936164
  endloop
endfacet
facet normal 0.9999999978039131 -4.876495313508879e-15 6.62734778901256e-05
  outer loop
    vertex 54.38156073577891 -22.66162609712655 146.4789884685383
    vertex 54.3835956333066 -25.859598480598837 115.77443533508051
    vertex 54.38359561784669 -22.659387948174956 115.77466861000241
  endloop
endfacet
facet normal 3.007999159473024e-16 0.9999999973432603 7.289361744413683e-05
  outer loop
    vertex 50.781765250152944 -22.661626079736248 146.4787498975725
    vertex 54.38359561784669 -22.659387948174956 115.77466861000241
    vertex 50.783800132220684 -22.659387930784654 115.77443003903659
  endloop
endfacet
facet normal 3.007999159473024e-16 0.9999999973432603 7.289361744413683e-05
  outer loop
    vertex 54.38359561784669 -22.659387948174956 115.77466861000241
    vertex 50.781765250152944 -22.661626079736248 146.4787498975725
    vertex 54.38156073577891 -22.66162609712655 146.4789884685383
  endloop
endfacet
facet normal -0.999999997803913 9.661827420452183e-09 -6.627347718584041e-05
  outer loop
    vertex 50.781765250152944 -22.661626079736248 146.4787498975725
    vertex 50.783800116760744 -25.859598497989133 115.77419676411013
    vertex 50.781765234693005 -25.8618366469407 146.47851662264605
  endloop
endfacet
facet normal -0.999999997803913 9.661827420452183e-09 -6.627347718584041e-05
  outer loop
    vertex 50.783800116760744 -25.859598497989133 115.77419676411013
    vertex 50.781765250152944 -22.661626079736248 146.4787498975725
    vertex 50.783800132220684 -22.659387930784654 115.77443003903659
  endloop
endfacet
facet normal 6.627347771405459e-05 7.289361728405611e-05 -0.9999999951471734
  outer loop
    vertex 50.783800132220684 -22.659387930784654 115.77443003903659
    vertex 54.3835956333066 -25.859598480598837 115.77443533508051
    vertex 50.783800116760744 -25.859598497989133 115.77419676411013
  endloop
endfacet
facet normal 6.627347771405459e-05 7.289361728405611e-05 -0.9999999951471734
  outer loop
    vertex 54.3835956333066 -25.859598480598837 115.77443533508051
    vertex 50.783800132220684 -22.659387930784654 115.77443003903659
    vertex 54.38359561784669 -22.659387948174956 115.77466861000241
  endloop
endfacet
endsolid pedro_robot
