solid pedro_robot
facet normal 0.999999999648029 2.6531907028091016e-05 -3.5716537805944164e-11
  outer loop
    vertex 68.4882689719361 -33.08963311512123 138.5540070266677
    vertex 68.48830193335769 -34.33196453104409 138.55398891780558
    vertex 68.48828545261222 -33.71079763104417 138.47221995533886
  endloop
endfacet
facet normal 0.999999999648029 2.6531907028091016e-05 -3.5716537805944164e-11
  outer loop
    vertex 68.48830193335769 -34.33196453104409 138.55398891780558
    vertex 68.4882689719361 -33.08963311512123 138.5540070266677
    vertex 68.4882536144596 -32.51080231851246 138.79377647803992
  endloop
endfacet
facet normal 0.999999999648029 2.6531907028091016e-05 -3.5716537805944164e-11
  outer loop
    vertex 68.48830193335769 -34.33196453104409 138.55398891780558
    vertex 68.4882536144596 -32.51080231851246 138.79377647803992
    vertex 68.48831729103661 -34.910802317412745 138.79374149440457
  endloop
endfacet
facet normal 0.999999999648029 2.6531907028091016e-05 -3.5716537805944164e-11
  outer loop
    vertex 68.48831729103661 -34.910802317412745 138.79374149440457
    vertex 68.4882536144596 -32.51080231851246 138.79377647803992
    vertex 68.48824042677003 -32.0137516034437 139.17518841758243
  endloop
endfacet
facet normal 0.999999999648029 2.6531907028091016e-05 -3.5716537805944164e-11
  outer loop
    vertex 68.48831729103661 -34.910802317412745 138.79374149440457
    vertex 68.48824042677003 -32.0137516034437 139.17518841758243
    vertex 68.48833047904856 -35.40786415158387 139.1751389432508
  endloop
endfacet
facet normal 0.999999999648029 2.6531907028091016e-05 -3.5716537805944164e-11
  outer loop
    vertex 68.48833047904856 -35.40786415158387 139.1751389432508
    vertex 68.48824042677003 -32.0137516034437 139.17518841758243
    vertex 68.48834059865248 -35.789276090992175 139.67218965849474
  endloop
endfacet
facet normal 0.999999999648029 2.6531907028091016e-05 -3.5716537805944164e-11
  outer loop
    vertex 68.48834059865248 -35.789276090992175 139.67218965849474
    vertex 68.48824042677003 -32.0137516034437 139.17518841758243
    vertex 68.48823030758606 -31.632354154731626 139.6722502519285
  endloop
endfacet
facet normal 0.999999999648029 2.6531907028091016e-05 -3.5716537805944164e-11
  outer loop
    vertex 68.48834059865248 -35.789276090992175 139.67218965849474
    vertex 68.48823030758606 -31.632354154731626 139.6722502519285
    vertex 68.48822394651364 -31.392601578216915 140.251088038501
  endloop
endfacet
facet normal 0.999999999648029 2.6531907028091016e-05 -3.5716537805944164e-11
  outer loop
    vertex 68.48834059865248 -35.789276090992175 139.67218965849474
    vertex 68.48822394651364 -31.392601578216915 140.251088038501
    vertex 68.48834696021393 -36.02904554227999 140.2510204553069
  endloop
endfacet
facet normal 0.999999999648029 2.6531907028091016e-05 -3.5716537805944164e-11
  outer loop
    vertex 68.48834696021393 -36.02904554227999 140.2510204553069
    vertex 68.48822394651364 -31.392601578216915 140.251088038501
    vertex 68.48834913020296 -36.11083261357988 140.8721849714485
  endloop
endfacet
facet normal 0.999999999648029 2.6531907028091016e-05 -3.5716537805944164e-11
  outer loop
    vertex 68.48834913020296 -36.11083261357988 140.8721849714485
    vertex 68.48822394651364 -31.392601578216915 140.251088038501
    vertex 68.4882217770493 -31.31083261577926 140.87225493871955
  endloop
endfacet
facet normal 0.999999999648029 2.6531907028091016e-05 -3.5716537805944164e-11
  outer loop
    vertex 68.48834913020296 -36.11083261357988 140.8721849714485
    vertex 68.4882217770493 -31.31083261577926 140.87225493871955
    vertex 68.48834696073888 -36.029063651142174 141.49335187166733
  endloop
endfacet
facet normal 0.999999999648029 2.6531907028091016e-05 -3.5716537805944164e-11
  outer loop
    vertex 68.48834696073888 -36.029063651142174 141.49335187166733
    vertex 68.4882217770493 -31.31083261577926 140.87225493871955
    vertex 68.48822394703834 -31.39261968707911 141.4934194548611
  endloop
endfacet
facet normal 0.999999999648029 2.6531907028091016e-05 -3.5716537805944164e-11
  outer loop
    vertex 68.48834696073888 -36.029063651142174 141.49335187166733
    vertex 68.48822394703834 -31.39261968707911 141.4934194548611
    vertex 68.48823030859997 -31.632389138366914 142.07225025167358
  endloop
endfacet
facet normal 0.999999999648029 2.6531907028091016e-05 -3.5716537805944164e-11
  outer loop
    vertex 68.48834696073888 -36.029063651142174 141.49335187166733
    vertex 68.48823030859997 -31.632389138366914 142.07225025167358
    vertex 68.48834059966642 -35.78931107462748 142.07218965823975
  endloop
endfacet
facet normal 0.999999999648029 2.6531907028091016e-05 -3.5716537805944164e-11
  outer loop
    vertex 68.48834059966642 -35.78931107462748 142.07218965823975
    vertex 68.48823030859997 -31.632389138366914 142.07225025167358
    vertex 68.48824042820384 -32.0138010777752 142.56930096691744
  endloop
endfacet
facet normal 0.999999999648029 2.6531907028091016e-05 -3.5716537805944164e-11
  outer loop
    vertex 68.48834059966642 -35.78931107462748 142.07218965823975
    vertex 68.48824042820384 -32.0138010777752 142.56930096691744
    vertex 68.4883304804824 -35.40791362591542 142.56925149258583
  endloop
endfacet
facet normal 0.999999999648029 2.6531907028091016e-05 -3.5716537805944164e-11
  outer loop
    vertex 68.4883304804824 -35.40791362591542 142.56925149258583
    vertex 68.48824042820384 -32.0138010777752 142.56930096691744
    vertex 68.48825361621586 -32.51086291194635 142.95069841576372
  endloop
endfacet
facet normal 0.999999999648029 2.6531907028091016e-05 -3.5716537805944164e-11
  outer loop
    vertex 68.4883304804824 -35.40791362591542 142.56925149258583
    vertex 68.48825361621586 -32.51086291194635 142.95069841576372
    vertex 68.48831729279264 -34.91086291084666 142.95066343212838
  endloop
endfacet
facet normal 0.999999999648029 2.6531907028091016e-05 -3.5716537805944164e-11
  outer loop
    vertex 68.48831729279264 -34.91086291084666 142.95066343212838
    vertex 68.48825361621586 -32.51086291194635 142.95069841576372
    vertex 68.48826897389475 -33.089700698315 143.19045099236266
  endloop
endfacet
facet normal 0.999999999648029 2.6531907028091016e-05 -3.5716537805944164e-11
  outer loop
    vertex 68.48831729279264 -34.91086291084666 142.95066343212838
    vertex 68.48826897389475 -33.089700698315 143.19045099236266
    vertex 68.48830193531643 -34.33203211423787 143.19043288350053
  endloop
endfacet
facet normal 0.999999999648029 2.6531907028091016e-05 -3.5716537805944164e-11
  outer loop
    vertex 68.48830193531643 -34.33203211423787 143.19043288350053
    vertex 68.48826897389475 -33.089700698315 143.19045099236266
    vertex 68.48828545464008 -33.71086759831489 143.2722199548288
  endloop
endfacet
facet normal 1.6151266473323223e-05 -0.6087498644031326 -0.7933622138268904
  outer loop
    vertex 62.094856215252705 -35.408033782648666 139.17513894347917
    vertex 68.48831729103661 -34.910802317412745 138.79374149440457
    vertex 68.48833047904856 -35.40786415158387 139.1751389432508
  endloop
endfacet
facet normal 1.6151266473323223e-05 -0.6087498644031326 -0.7933622138268904
  outer loop
    vertex 68.48831729103661 -34.910802317412745 138.79374149440457
    vertex 62.094856215252705 -35.408033782648666 139.17513894347917
    vertex 62.094843027240735 -34.91097194847758 138.79374149463294
  endloop
endfacet
facet normal 1.0152930943549485e-05 -0.3826699652461191 -0.9238851106038304
  outer loop
    vertex 62.094843027240735 -34.91097194847758 138.79374149463294
    vertex 68.48830193335769 -34.33196453104409 138.55398891780558
    vertex 68.48831729103661 -34.910802317412745 138.79374149440457
  endloop
endfacet
facet normal 1.0152930943549485e-05 -0.3826699652461191 -0.9238851106038304
  outer loop
    vertex 68.48830193335769 -34.33196453104409 138.55398891780558
    vertex 62.094843027240735 -34.91097194847758 138.79374149463294
    vertex 62.0948276695617 -34.332134162108886 138.55398891803375
  endloop
endfacet
facet normal 3.462689946507412e-06 -0.13051174034965296 -0.9914467638854416
  outer loop
    vertex 62.0948276695617 -34.332134162108886 138.55398891803375
    vertex 68.48828545261222 -33.71079763104417 138.47221995533886
    vertex 68.48830193335769 -34.33196453104409 138.55398891780558
  endloop
endfacet
facet normal 3.462689946507412e-06 -0.13051174034965296 -0.9914467638854416
  outer loop
    vertex 68.48828545261222 -33.71079763104417 138.47221995533886
    vertex 62.0948276695617 -34.332134162108886 138.55398891803375
    vertex 62.09481118881636 -33.71096726210898 138.47221995556743
  endloop
endfacet
facet normal -3.4635276458493256e-06 0.13054064397089793 -0.9914429586515139
  outer loop
    vertex 62.09481118881636 -33.71096726210898 138.47221995556743
    vertex 68.4882689719361 -33.08963311512123 138.5540070266677
    vertex 68.48828545261222 -33.71079763104417 138.47221995533886
  endloop
endfacet
facet normal -3.4635276458493256e-06 0.13054064397089793 -0.9914429586515139
  outer loop
    vertex 68.4882689719361 -33.08963311512123 138.5540070266677
    vertex 62.09481118881636 -33.71096726210898 138.47221995556743
    vertex 62.09479470814022 -33.08980274618606 138.55400702689593
  endloop
endfacet
facet normal -1.0153711550710759e-05 0.3826968991333473 -0.9238739542224483
  outer loop
    vertex 62.09479470814022 -33.08980274618606 138.55400702689593
    vertex 68.4882536144596 -32.51080231851246 138.79377647803992
    vertex 68.4882689719361 -33.08963311512123 138.5540070266677
  endloop
endfacet
facet normal -1.0153711550710759e-05 0.3826968991333473 -0.9238739542224483
  outer loop
    vertex 68.4882536144596 -32.51080231851246 138.79377647803992
    vertex 62.09479470814022 -33.08980274618606 138.55400702689593
    vertex 62.094779350663664 -32.510971949577254 138.79377647826823
  endloop
endfacet
facet normal -1.615193679553401e-05 0.6087729930564244 -0.7933444665870165
  outer loop
    vertex 62.094779350663664 -32.510971949577254 138.79377647826823
    vertex 68.48824042677003 -32.0137516034437 139.17518841758243
    vertex 68.4882536144596 -32.51080231851246 138.79377647803992
  endloop
endfacet
facet normal -1.615193679553401e-05 0.6087729930564244 -0.7933444665870165
  outer loop
    vertex 68.48824042677003 -32.0137516034437 139.17518841758243
    vertex 62.094779350663664 -32.510971949577254 138.79377647826823
    vertex 62.09476616297412 -32.01392123450845 139.17518841781094
  endloop
endfacet
facet normal -2.104943423487093e-05 0.7933622135475874 -0.6087498646174746
  outer loop
    vertex 62.09476616297412 -32.01392123450845 139.17518841781094
    vertex 68.48823030758606 -31.632354154731626 139.6722502519285
    vertex 68.48824042677003 -32.0137516034437 139.17518841758243
  endloop
endfacet
facet normal -2.104943423487093e-05 0.7933622135475874 -0.6087498646174746
  outer loop
    vertex 68.48823030758606 -31.632354154731626 139.6722502519285
    vertex 62.09476616297412 -32.01392123450845 139.17518841781094
    vertex 62.094762627284176 -31.88065919976104 139.34886412451505
  endloop
endfacet
facet normal -2.104943423487093e-05 0.7933622135475874 -0.6087498646174746
  outer loop
    vertex 68.48823030758606 -31.632354154731626 139.6722502519285
    vertex 62.094762627284176 -31.88065919976104 139.34886412451505
    vertex 59.2124762791618 -31.63260025817515 139.6722502522598
  endloop
endfacet
facet normal -2.104943423487093e-05 0.7933622135475874 -0.6087498646174746
  outer loop
    vertex 59.2124762791618 -31.63260025817515 139.6722502522598
    vertex 62.094762627284176 -31.88065919976104 139.34886412451505
    vertex 59.21248286265589 -31.880735672139824 139.348864124618
  endloop
endfacet
facet normal -2.4512447526991517e-05 0.9238851102786451 -0.3826699653808174
  outer loop
    vertex 59.2124762791618 -31.63260025817515 139.6722502522598
    vertex 68.48822394651364 -31.392601578216915 140.251088038501
    vertex 68.48823030758606 -31.632354154731626 139.6722502519285
  endloop
endfacet
facet normal -2.4512447526991517e-05 0.9238851102786451 -0.3826699653808174
  outer loop
    vertex 68.48822394651364 -31.392601578216915 140.251088038501
    vertex 59.2124762791618 -31.63260025817515 139.6722502522598
    vertex 59.21246991808951 -31.39284768166047 140.2510880388323
  endloop
endfacet
facet normal -2.630497802162056e-05 0.9914467635364866 -0.13051174039554544
  outer loop
    vertex 59.21246991808951 -31.39284768166047 140.2510880388323
    vertex 68.4882217770493 -31.31083261577926 140.87225493871955
    vertex 68.48822394651364 -31.392601578216915 140.251088038501
  endloop
endfacet
facet normal -2.630497802162056e-05 0.9914467635364866 -0.13051174039554544
  outer loop
    vertex 68.4882217770493 -31.31083261577926 140.87225493871955
    vertex 59.21246991808951 -31.39284768166047 140.2510880388323
    vertex 59.212467748625166 -31.311078719222802 140.87225493905075
  endloop
endfacet
facet normal -2.6304867738499145e-05 0.9914429583025587 0.13054064401681525
  outer loop
    vertex 59.212467748625166 -31.311078719222802 140.87225493905075
    vertex 68.48822394703834 -31.39261968707911 141.4934194548611
    vertex 68.4882217770493 -31.31083261577926 140.87225493871955
  endloop
endfacet
facet normal -2.6304867738499145e-05 0.9914429583025587 0.13054064401681525
  outer loop
    vertex 68.48822394703834 -31.39261968707911 141.4934194548611
    vertex 59.212467748625166 -31.311078719222802 140.87225493905075
    vertex 59.212469918614225 -31.392865790522638 141.49341945519242
  endloop
endfacet
facet normal -2.451212418856277e-05 0.9238739538972652 0.38269689926806283
  outer loop
    vertex 68.48822394703834 -31.39261968707911 141.4934194548611
    vertex 59.212476280175814 -31.632635241810508 142.07225025200492
    vertex 68.48823030859997 -31.632389138366914 142.07225025167358
  endloop
endfacet
facet normal -2.451212418856277e-05 0.9238739538972652 0.38269689926806283
  outer loop
    vertex 59.212476280175814 -31.632635241810508 142.07225025200492
    vertex 68.48822394703834 -31.39261968707911 141.4934194548611
    vertex 59.212469918614225 -31.392865790522638 141.49341945519242
  endloop
endfacet
facet normal -2.1048919883943444e-05 0.793344466307777 0.608772993270703
  outer loop
    vertex 59.212476280175814 -31.632635241810508 142.07225025200492
    vertex 68.48824042820384 -32.0138010777752 142.56930096691744
    vertex 68.48823030859997 -31.632389138366914 142.07225025167358
  endloop
endfacet
facet normal -2.1048919883943444e-05 0.793344466307777 0.608772993270703
  outer loop
    vertex 68.48824042820384 -32.0138010777752 142.56930096691744
    vertex 59.212476280175814 -31.632635241810508 142.07225025200492
    vertex 59.21248639977955 -32.0140471812188 142.56930096724855
  endloop
endfacet
facet normal -1.615126647260596e-05 0.6087498644031367 0.793362213826887
  outer loop
    vertex 68.48824042820384 -32.0138010777752 142.56930096691744
    vertex 59.21249958779161 -32.511109015389884 142.95069841609487
    vertex 68.48825361621586 -32.51086291194635 142.95069841576372
  endloop
endfacet
facet normal -1.615126647260596e-05 0.6087498644031367 0.793362213826887
  outer loop
    vertex 59.21249958779161 -32.511109015389884 142.95069841609487
    vertex 68.48824042820384 -32.0138010777752 142.56930096691744
    vertex 59.21248639977955 -32.0140471812188 142.56930096724855
  endloop
endfacet
facet normal -1.0152930943099282e-05 0.3826699652461191 0.9238851106038304
  outer loop
    vertex 68.48825361621586 -32.51086291194635 142.95069841576372
    vertex 59.21251494547056 -33.08994680175856 143.19045099269402
    vertex 68.48826897389475 -33.089700698315 143.19045099236266
  endloop
endfacet
facet normal -1.0152930943099282e-05 0.3826699652461191 0.9238851106038304
  outer loop
    vertex 59.21251494547056 -33.08994680175856 143.19045099269402
    vertex 68.48825361621586 -32.51086291194635 142.95069841576372
    vertex 59.21249958779161 -32.511109015389884 142.95069841609487
  endloop
endfacet
facet normal -3.4626899489181395e-06 0.13051174034959925 0.9914467638854486
  outer loop
    vertex 68.48826897389475 -33.089700698315 143.19045099236266
    vertex 59.21253142621586 -33.71111370175848 143.27221995516044
    vertex 68.48828545464008 -33.71086759831489 143.2722199548288
  endloop
endfacet
facet normal -3.4626899489181395e-06 0.13051174034959925 0.9914467638854486
  outer loop
    vertex 59.21253142621586 -33.71111370175848 143.27221995516044
    vertex 68.48826897389475 -33.089700698315 143.19045099236266
    vertex 59.21251494547056 -33.08994680175856 143.19045099269402
  endloop
endfacet
facet normal 3.463527643589715e-06 -0.13054064397084542 0.9914429586515209
  outer loop
    vertex 68.48828545464008 -33.71086759831489 143.2722199548288
    vertex 59.21254790689215 -34.33227821768141 143.1904328838319
    vertex 68.48830193531643 -34.33203211423787 143.19043288350053
  endloop
endfacet
facet normal 3.463527643589715e-06 -0.13054064397084542 0.9914429586515209
  outer loop
    vertex 59.21254790689215 -34.33227821768141 143.1904328838319
    vertex 68.48828545464008 -33.71086759831489 143.2722199548288
    vertex 59.21253142621586 -33.71111370175848 143.27221995516044
  endloop
endfacet
facet normal 1.015371155071089e-05 -0.3826968991333473 0.9238739542224483
  outer loop
    vertex 68.48830193531643 -34.33203211423787 143.19043288350053
    vertex 59.212563264368505 -34.911109014290155 142.9506634324594
    vertex 68.48831729279264 -34.91086291084666 142.95066343212838
  endloop
endfacet
facet normal 1.015371155071089e-05 -0.3826968991333473 0.9238739542224483
  outer loop
    vertex 59.212563264368505 -34.911109014290155 142.9506634324594
    vertex 68.48830193531643 -34.33203211423787 143.19043288350053
    vertex 59.21254790689215 -34.33227821768141 143.1904328838319
  endloop
endfacet
facet normal 1.615193679553523e-05 -0.60877299305642 0.7933444665870198
  outer loop
    vertex 68.48831729279264 -34.91086291084666 142.95066343212838
    vertex 59.21257645205823 -35.40815972935901 142.56925149291706
    vertex 68.4883304804824 -35.40791362591542 142.56925149258583
  endloop
endfacet
facet normal 1.615193679553523e-05 -0.60877299305642 0.7933444665870198
  outer loop
    vertex 59.21257645205823 -35.40815972935901 142.56925149291706
    vertex 68.48831729279264 -34.91086291084666 142.95066343212838
    vertex 59.212563264368505 -34.911109014290155 142.9506634324594
  endloop
endfacet
facet normal 2.1049434240544975e-05 -0.7933622135476536 0.6087498646173884
  outer loop
    vertex 68.4883304804824 -35.40791362591542 142.56925149258583
    vertex 59.2125865712422 -35.789557178071064 142.07218965857092
    vertex 68.48834059966642 -35.78931107462748 142.07218965823975
  endloop
endfacet
facet normal 2.1049434240544975e-05 -0.7933622135476536 0.6087498646173884
  outer loop
    vertex 59.2125865712422 -35.789557178071064 142.07218965857092
    vertex 68.4883304804824 -35.40791362591542 142.56925149258583
    vertex 59.21257645205823 -35.40815972935901 142.56925149291706
  endloop
endfacet
facet normal 2.4512447526994174e-05 -0.9238851102786462 0.38266996538081444
  outer loop
    vertex 68.48834059966642 -35.78931107462748 142.07218965823975
    vertex 59.21259293231461 -36.029309754585725 141.49335187199853
    vertex 68.48834696073888 -36.029063651142174 141.49335187166733
  endloop
endfacet
facet normal 2.4512447526994174e-05 -0.9238851102786462 0.38266996538081444
  outer loop
    vertex 59.21259293231461 -36.029309754585725 141.49335187199853
    vertex 68.48834059966642 -35.78931107462748 142.07218965823975
    vertex 59.2125865712422 -35.789557178071064 142.07218965857092
  endloop
endfacet
facet normal 2.6304978022511272e-05 -0.9914467635364853 0.1305117403955564
  outer loop
    vertex 59.21259293231461 -36.029309754585725 141.49335187199853
    vertex 68.48834913020296 -36.11083261357988 140.8721849714485
    vertex 68.48834696073888 -36.029063651142174 141.49335187166733
  endloop
endfacet
facet normal 2.6304978022511272e-05 -0.9914467635364853 0.1305117403955564
  outer loop
    vertex 68.48834913020296 -36.11083261357988 140.8721849714485
    vertex 59.21259293231461 -36.029309754585725 141.49335187199853
    vertex 59.21259510177874 -36.11107871702343 140.87218497178003
  endloop
endfacet
facet normal 2.6304867738499782e-05 -0.9914429583025587 -0.13054064401681528
  outer loop
    vertex 68.48834913020296 -36.11083261357988 140.8721849714485
    vertex 59.2125929317896 -36.02929164572354 140.25102045563844
    vertex 68.48834696021393 -36.02904554227999 140.2510204553069
  endloop
endfacet
facet normal 2.6304867738499782e-05 -0.9914429583025587 -0.13054064401681528
  outer loop
    vertex 59.2125929317896 -36.02929164572354 140.25102045563844
    vertex 68.48834913020296 -36.11083261357988 140.8721849714485
    vertex 59.21259510177874 -36.11107871702343 140.87218497178003
  endloop
endfacet
facet normal 2.4512124187829937e-05 -0.9238739538972663 -0.3826968992680604
  outer loop
    vertex 68.48834696021393 -36.02904554227999 140.2510204553069
    vertex 59.212586570228225 -35.78952219443571 139.67218965882589
    vertex 68.48834059865248 -35.789276090992175 139.67218965849474
  endloop
endfacet
facet normal 2.4512124187829937e-05 -0.9238739538972663 -0.3826968992680604
  outer loop
    vertex 59.212586570228225 -35.78952219443571 139.67218965882589
    vertex 68.48834696021393 -36.02904554227999 140.2510204553069
    vertex 59.2125929317896 -36.02929164572354 140.25102045563844
  endloop
endfacet
facet normal 2.104891988979322e-05 -0.793344466307801 -0.6087729932706718
  outer loop
    vertex 59.212586570228225 -35.78952219443571 139.67218965882589
    vertex 68.48833047904856 -35.40786415158387 139.1751389432508
    vertex 68.48834059865248 -35.789276090992175 139.67218965849474
  endloop
endfacet
facet normal 2.104891988979322e-05 -0.793344466307801 -0.6087729932706718
  outer loop
    vertex 68.48833047904856 -35.40786415158387 139.1751389432508
    vertex 59.212586570228225 -35.78952219443571 139.67218965882589
    vertex 62.094859751089004 -35.54130088051241 139.34881076511743
  endloop
endfacet
facet normal 2.104891988979322e-05 -0.793344466307801 -0.6087729932706718
  outer loop
    vertex 68.48833047904856 -35.40786415158387 139.1751389432508
    vertex 62.094859751089004 -35.54130088051241 139.34881076511743
    vertex 62.094856215252705 -35.408033782648666 139.17513894347917
  endloop
endfacet
facet normal 2.104891988979322e-05 -0.793344466307801 -0.6087729932706718
  outer loop
    vertex 62.094859751089004 -35.54130088051241 139.34881076511743
    vertex 59.212586570228225 -35.78952219443571 139.67218965882589
    vertex 59.2125799864607 -35.541377352891175 139.34881076522046
  endloop
endfacet
facet normal -0.999999999648029 -2.6531907043128514e-05 3.561699224822995e-11
  outer loop
    vertex 62.0948276695617 -34.332134162108886 138.55398891803375
    vertex 62.09479470814022 -33.08980274618606 138.55400702689593
    vertex 62.09481118881636 -33.71096726210898 138.47221995556743
  endloop
endfacet
facet normal -0.999999999648029 -2.6531907043128514e-05 3.561699224822995e-11
  outer loop
    vertex 62.09479470814022 -33.08980274618606 138.55400702689593
    vertex 62.0948276695617 -34.332134162108886 138.55398891803375
    vertex 62.094779350663664 -32.510971949577254 138.79377647826823
  endloop
endfacet
facet normal -0.999999999648029 -2.6531907043128514e-05 3.561699224822995e-11
  outer loop
    vertex 62.094779350663664 -32.510971949577254 138.79377647826823
    vertex 62.0948276695617 -34.332134162108886 138.55398891803375
    vertex 62.094843027240735 -34.91097194847758 138.79374149463294
  endloop
endfacet
facet normal -0.999999999648029 -2.6531907043128514e-05 3.561699224822995e-11
  outer loop
    vertex 62.094779350663664 -32.510971949577254 138.79377647826823
    vertex 62.094843027240735 -34.91097194847758 138.79374149463294
    vertex 62.09476616297412 -32.01392123450845 139.17518841781094
  endloop
endfacet
facet normal -0.999999999648029 -2.6531907043128514e-05 3.561699224822995e-11
  outer loop
    vertex 62.09476616297412 -32.01392123450845 139.17518841781094
    vertex 62.094843027240735 -34.91097194847758 138.79374149463294
    vertex 62.094856215252705 -35.408033782648666 139.17513894347917
  endloop
endfacet
facet normal -0.999999999648029 -2.6531907043128514e-05 3.561699224822995e-11
  outer loop
    vertex 62.09476616297412 -32.01392123450845 139.17518841781094
    vertex 62.094856215252705 -35.408033782648666 139.17513894347917
    vertex 62.094859751089004 -35.54130088051241 139.34881076511743
  endloop
endfacet
facet normal -0.999999999648029 -2.6531907043128514e-05 3.561699224822995e-11
  outer loop
    vertex 62.09476616297412 -32.01392123450845 139.17518841781094
    vertex 62.094859751089004 -35.54130088051241 139.34881076511743
    vertex 62.094762627284176 -31.88065919976104 139.34886412451505
  endloop
endfacet
facet normal -0.999999999648029 -2.653190702876424e-05 3.573752234297118e-11
  outer loop
    vertex 59.212586570228225 -35.78952219443571 139.67218965882589
    vertex 59.21248286265589 -31.880735672139824 139.348864124618
    vertex 59.2125799864607 -35.541377352891175 139.34881076522046
  endloop
endfacet
facet normal -0.999999999648029 -2.653190702876424e-05 3.573752234297118e-11
  outer loop
    vertex 59.21248286265589 -31.880735672139824 139.348864124618
    vertex 59.212586570228225 -35.78952219443571 139.67218965882589
    vertex 59.2124762791618 -31.63260025817515 139.6722502522598
  endloop
endfacet
facet normal -0.999999999648029 -2.653190702876424e-05 3.573752234297118e-11
  outer loop
    vertex 59.2124762791618 -31.63260025817515 139.6722502522598
    vertex 59.212586570228225 -35.78952219443571 139.67218965882589
    vertex 59.2125929317896 -36.02929164572354 140.25102045563844
  endloop
endfacet
facet normal -0.999999999648029 -2.653190702876424e-05 3.573752234297118e-11
  outer loop
    vertex 59.2124762791618 -31.63260025817515 139.6722502522598
    vertex 59.2125929317896 -36.02929164572354 140.25102045563844
    vertex 59.21246991808951 -31.39284768166047 140.2510880388323
  endloop
endfacet
facet normal -0.999999999648029 -2.653190702876424e-05 3.573752234297118e-11
  outer loop
    vertex 59.21246991808951 -31.39284768166047 140.2510880388323
    vertex 59.2125929317896 -36.02929164572354 140.25102045563844
    vertex 59.21259510177874 -36.11107871702343 140.87218497178003
  endloop
endfacet
facet normal -0.999999999648029 -2.653190702876424e-05 3.573752234297118e-11
  outer loop
    vertex 59.21246991808951 -31.39284768166047 140.2510880388323
    vertex 59.21259510177874 -36.11107871702343 140.87218497178003
    vertex 59.212467748625166 -31.311078719222802 140.87225493905075
  endloop
endfacet
facet normal -0.999999999648029 -2.653190702876424e-05 3.573752234297118e-11
  outer loop
    vertex 59.212467748625166 -31.311078719222802 140.87225493905075
    vertex 59.21259510177874 -36.11107871702343 140.87218497178003
    vertex 59.21259293231461 -36.029309754585725 141.49335187199853
  endloop
endfacet
facet normal -0.999999999648029 -2.653190702876424e-05 3.573752234297118e-11
  outer loop
    vertex 59.212467748625166 -31.311078719222802 140.87225493905075
    vertex 59.21259293231461 -36.029309754585725 141.49335187199853
    vertex 59.212469918614225 -31.392865790522638 141.49341945519242
  endloop
endfacet
facet normal -0.999999999648029 -2.653190702876424e-05 3.573752234297118e-11
  outer loop
    vertex 59.212469918614225 -31.392865790522638 141.49341945519242
    vertex 59.21259293231461 -36.029309754585725 141.49335187199853
    vertex 59.2125865712422 -35.789557178071064 142.07218965857092
  endloop
endfacet
facet normal -0.999999999648029 -2.653190702876424e-05 3.573752234297118e-11
  outer loop
    vertex 59.212469918614225 -31.392865790522638 141.49341945519242
    vertex 59.2125865712422 -35.789557178071064 142.07218965857092
    vertex 59.212476280175814 -31.632635241810508 142.07225025200492
  endloop
endfacet
facet normal -0.999999999648029 -2.653190702876424e-05 3.573752234297118e-11
  outer loop
    vertex 59.212476280175814 -31.632635241810508 142.07225025200492
    vertex 59.2125865712422 -35.789557178071064 142.07218965857092
    vertex 59.21257645205823 -35.40815972935901 142.56925149291706
  endloop
endfacet
facet normal -0.999999999648029 -2.653190702876424e-05 3.573752234297118e-11
  outer loop
    vertex 59.212476280175814 -31.632635241810508 142.07225025200492
    vertex 59.21257645205823 -35.40815972935901 142.56925149291706
    vertex 59.21248639977955 -32.0140471812188 142.56930096724855
  endloop
endfacet
facet normal -0.999999999648029 -2.653190702876424e-05 3.573752234297118e-11
  outer loop
    vertex 59.21248639977955 -32.0140471812188 142.56930096724855
    vertex 59.21257645205823 -35.40815972935901 142.56925149291706
    vertex 59.21249958779161 -32.511109015389884 142.95069841609487
  endloop
endfacet
facet normal -0.999999999648029 -2.653190702876424e-05 3.573752234297118e-11
  outer loop
    vertex 59.21249958779161 -32.511109015389884 142.95069841609487
    vertex 59.21257645205823 -35.40815972935901 142.56925149291706
    vertex 59.212563264368505 -34.911109014290155 142.9506634324594
  endloop
endfacet
facet normal -0.999999999648029 -2.653190702876424e-05 3.573752234297118e-11
  outer loop
    vertex 59.21249958779161 -32.511109015389884 142.95069841609487
    vertex 59.212563264368505 -34.911109014290155 142.9506634324594
    vertex 59.21254790689215 -34.33227821768141 143.1904328838319
  endloop
endfacet
facet normal -0.999999999648029 -2.653190702876424e-05 3.573752234297118e-11
  outer loop
    vertex 59.21249958779161 -32.511109015389884 142.95069841609487
    vertex 59.21254790689215 -34.33227821768141 143.1904328838319
    vertex 59.21251494547056 -33.08994680175856 143.19045099269402
  endloop
endfacet
facet normal -0.999999999648029 -2.653190702876424e-05 3.573752234297118e-11
  outer loop
    vertex 59.21251494547056 -33.08994680175856 143.19045099269402
    vertex 59.21254790689215 -34.33227821768141 143.1904328838319
    vertex 59.21253142621586 -33.71111370175848 143.27221995516044
  endloop
endfacet
facet normal -4.2248025698495597e-10 1.4576514763066151e-05 -0.9999999998937626
  outer loop
    vertex 59.2125799864607 -35.541377352891175 139.34881076522046
    vertex 62.094762627284176 -31.88065919976104 139.34886412451505
    vertex 62.094859751089004 -35.54130088051241 139.34881076511743
  endloop
endfacet
facet normal -4.2248025698495597e-10 1.4576514763066151e-05 -0.9999999998937626
  outer loop
    vertex 62.094762627284176 -31.88065919976104 139.34886412451505
    vertex 59.2125799864607 -35.541377352891175 139.34881076522046
    vertex 59.21248286265589 -31.880735672139824 139.348864124618
  endloop
endfacet
endsolid pedro_robot
