solid pedro_robot
facet normal 2.0023589289271386e-05 -0.7546993385090339 -0.6560708102431342
  outer loop
    vertex 57.664699578048314 -36.15104770472571 139.25708358963652
    vertex 58.71336960231899 -35.649843284333215 138.68056404253156
    vertex 58.713382899510755 -36.15101988115752 139.2570835895988
  endloop
endfacet
facet normal 2.0023589289271386e-05 -0.7546993385090339 -0.6560708102431342
  outer loop
    vertex 58.71336960231899 -35.649843284333215 138.68056404253156
    vertex 57.664699578048314 -36.15104770472571 139.25708358963652
    vertex 57.66468628085744 -35.6498711079017 138.68056404256853
  endloop
endfacet
facet normal 1.4836081316983249e-05 -0.5591799615819715 -0.8290463016895231
  outer loop
    vertex 57.664669477822585 -35.016557450895135 138.253402970959
    vertex 58.71336960231899 -35.649843284333215 138.68056404253156
    vertex 57.66468628085744 -35.6498711079017 138.68056404256853
  endloop
endfacet
facet normal 1.4836081316983249e-05 -0.5591799615819715 -0.8290463016895231
  outer loop
    vertex 58.71336960231899 -35.649843284333215 138.68056404253156
    vertex 57.664669477822585 -35.016557450895135 138.253402970959
    vertex 58.71335279928504 -35.01652962732676 138.2534029709218
  endloop
endfacet
facet normal 8.637518669285745e-06 -0.32555339436140135 -0.9455236577395424
  outer loop
    vertex 57.664669477822585 -35.016557450895135 138.253402970959
    vertex 58.71333363550656 -34.29423818926262 138.00471069588377
    vertex 58.71335279928504 -35.01652962732676 138.2534029709218
  endloop
endfacet
facet normal 8.637518669285745e-06 -0.32555339436140135 -0.9455236577395424
  outer loop
    vertex 58.71333363550656 -34.29423818926262 138.00471069588377
    vertex 57.664669477822585 -35.016557450895135 138.253402970959
    vertex 57.66465031404457 -34.29426601283086 138.00471069592123
  endloop
endfacet
facet normal 1.8503235077862938e-06 -0.06974090131849209 -0.9975651390660466
  outer loop
    vertex 57.66465031404457 -34.29426601283086 138.00471069592123
    vertex 58.71331341696427 -33.53219193800184 137.95143518497682
    vertex 58.71333363550656 -34.29423818926262 138.00471069588377
  endloop
endfacet
facet normal 1.8503235077862938e-06 -0.06974090131849209 -0.9975651390660466
  outer loop
    vertex 58.71331341696427 -33.53219193800184 137.95143518497682
    vertex 57.66465031404457 -34.29426601283086 138.00471069592123
    vertex 57.66463009550233 -33.53221976157023 137.95143518501416
  endloop
endfacet
facet normal -5.0629682860894424e-06 0.19082431889809748 -0.9816242047196287
  outer loop
    vertex 57.66463009550233 -33.53221976157023 137.95143518501416
    vertex 58.71329352151881 -32.782323066226894 138.09720707622782
    vertex 58.71331341696427 -33.53219193800184 137.95143518497682
  endloop
endfacet
facet normal -5.0629682860894424e-06 0.19082431889809748 -0.9816242047196287
  outer loop
    vertex 58.71329352151881 -32.782323066226894 138.09720707622782
    vertex 57.66463009550233 -33.53221976157023 137.95143518501416
    vertex 57.66461020005663 -32.78235088979533 138.09720707626596
  endloop
endfacet
facet normal -1.1631227052345422e-05 0.43838517713329483 -0.898787203032244
  outer loop
    vertex 57.6645919835483 -32.09576172190079 138.43209225618565
    vertex 58.71329352151881 -32.782323066226894 138.09720707622782
    vertex 57.66461020005663 -32.78235088979533 138.09720707626596
  endloop
endfacet
facet normal -1.1631227052345422e-05 0.43838517713329483 -0.898787203032244
  outer loop
    vertex 58.71329352151881 -32.782323066226894 138.09720707622782
    vertex 57.6645919835483 -32.09576172190079 138.43209225618565
    vertex 58.71327530501027 -32.095733898332526 138.43209225614794
  endloop
endfacet
facet normal -1.7406836710993855e-05 0.656070810012144 -0.7546993387747281
  outer loop
    vertex 57.6645919835483 -32.09576172190079 138.43209225618565
    vertex 58.71326000886535 -31.51921435146802 138.93326885314826
    vertex 58.71327530501027 -32.095733898332526 138.43209225614794
  endloop
endfacet
facet normal -1.7406836710993855e-05 0.656070810012144 -0.7546993387747281
  outer loop
    vertex 58.71326000886535 -31.51921435146802 138.93326885314826
    vertex 57.6645919835483 -32.09576172190079 138.43209225618565
    vertex 57.66457668740344 -31.51924217503644 138.93326885318575
  endloop
endfacet
facet normal -2.19961993488095e-05 0.8290463013977468 -0.5591799617787493
  outer loop
    vertex 58.71326000886535 -31.51921435146802 138.93326885314826
    vertex 57.6645653540277 -31.092081103577517 139.56658251041475
    vertex 58.71324867549015 -31.092053280008976 139.5665825103777
  endloop
endfacet
facet normal -2.19961993488095e-05 0.8290463013977468 -0.5591799617787493
  outer loop
    vertex 57.6645653540277 -31.092081103577517 139.56658251041475
    vertex 58.71326000886535 -31.51921435146802 138.93326885314826
    vertex 57.66457668740344 -31.51924217503644 138.93326885318575
  endloop
endfacet
facet normal -2.5086557419521308e-05 0.9455236574066378 -0.3255533944762978
  outer loop
    vertex 57.6645653540277 -31.092081103577517 139.56658251041475
    vertex 58.71324207723541 -30.843361005058288 140.2888739486959
    vertex 58.71324867549015 -31.092053280008976 139.5665825103777
  endloop
endfacet
facet normal -2.5086557419521308e-05 0.9455236574066378 -0.3255533944762978
  outer loop
    vertex 58.71324207723541 -30.843361005058288 140.2888739486959
    vertex 57.6645653540277 -31.092081103577517 139.56658251041475
    vertex 57.66455875577339 -30.843388828626733 140.28887394873334
  endloop
endfacet
facet normal -2.6467307976452144e-05 0.997565138714952 -0.0697409013427586
  outer loop
    vertex 58.71324207723541 -30.843361005058288 140.2888739486959
    vertex 57.664557342299695 -30.790113317738633 141.05092020026208
    vertex 58.71324066376176 -30.790085494170356 141.05092020022485
  endloop
endfacet
facet normal -2.6467307976452144e-05 0.997565138714952 -0.0697409013427586
  outer loop
    vertex 57.664557342299695 -30.790113317738633 141.05092020026208
    vertex 58.71324207723541 -30.843361005058288 140.2888739486959
    vertex 57.66455875577339 -30.843388828626733 140.28887394873334
  endloop
endfacet
facet normal -2.6044355342579187e-05 0.9816242043741925 0.1908243189649196
  outer loop
    vertex 58.71324066376176 -30.790085494170356 141.05092020022485
    vertex 57.66456120993279 -30.935885208938622 141.80078907230123
    vertex 58.713244531394906 -30.935857385370067 141.8007890722642
  endloop
endfacet
facet normal -2.6044355342579187e-05 0.9816242043741925 0.1908243189649196
  outer loop
    vertex 57.66456120993279 -30.935885208938622 141.80078907230123
    vertex 58.71324066376176 -30.790085494170356 141.05092020022485
    vertex 57.664557342299695 -30.790113317738633 141.05092020026208
  endloop
endfacet
facet normal -2.3846522856409724e-05 0.8987872027160344 0.43838517728731397
  outer loop
    vertex 58.713244531394906 -30.935857385370067 141.8007890722642
    vertex 57.664570095099734 -31.270770388740253 142.48737824043795
    vertex 58.71325341656191 -31.27074256517185 142.48737824039972
  endloop
endfacet
facet normal -2.3846522856409724e-05 0.8987872027160344 0.43838517728731397
  outer loop
    vertex 57.664570095099734 -31.270770388740253 142.48737824043795
    vertex 58.713244531394906 -30.935857385370067 141.8007890722642
    vertex 57.66456120993279 -30.935885208938622 141.80078907230123
  endloop
endfacet
facet normal -2.0023589110203624e-05 0.7546993385087424 0.6560708102434696
  outer loop
    vertex 57.664570095099734 -31.270770388740253 142.48737824043795
    vertex 58.71326671375321 -31.771919161996045 143.06389778746708
    vertex 58.71325341656191 -31.27074256517185 142.48737824039972
  endloop
endfacet
facet normal -2.0023589110203624e-05 0.7546993385087424 0.6560708102434696
  outer loop
    vertex 58.71326671375321 -31.771919161996045 143.06389778746708
    vertex 57.664570095099734 -31.270770388740253 142.48737824043795
    vertex 57.66458339229149 -31.77194698556441 143.0638977875046
  endloop
endfacet
facet normal -1.4836081163989822e-05 0.559179961581687 0.8290463016897148
  outer loop
    vertex 58.71328351678796 -32.40523281900259 143.4910588590765
    vertex 57.66458339229149 -31.77194698556441 143.0638977875046
    vertex 57.66460019532526 -32.40526064257113 143.49105885911388
  endloop
endfacet
facet normal -1.4836081163989822e-05 0.559179961581687 0.8290463016897148
  outer loop
    vertex 57.66458339229149 -31.77194698556441 143.0638977875046
    vertex 58.71328351678796 -32.40523281900259 143.4910588590765
    vertex 58.71326671375321 -31.771919161996045 143.06389778746708
  endloop
endfacet
facet normal -8.63751844691098e-06 0.32555339436232883 0.945523657739223
  outer loop
    vertex 58.71328351678796 -32.40523281900259 143.4910588590765
    vertex 57.66461935910388 -33.12755208063496 143.73975113415307
    vertex 58.71330268056587 -33.12752425706674 143.73975113411464
  endloop
endfacet
facet normal -8.63751844691098e-06 0.32555339436232883 0.945523657739223
  outer loop
    vertex 57.66461935910388 -33.12755208063496 143.73975113415307
    vertex 58.71328351678796 -32.40523281900259 143.4910588590765
    vertex 57.66460019532526 -32.40526064257113 143.49105885911388
  endloop
endfacet
facet normal -1.8503232638099152e-06 0.06974090131767559 0.9975651390661037
  outer loop
    vertex 58.71330268056587 -33.12752425706674 143.73975113411464
    vertex 57.664639577646284 -33.889598331895876 143.793026645059
    vertex 58.71332289910836 -33.88957050832749 143.79302664502146
  endloop
endfacet
facet normal -1.8503232638099152e-06 0.06974090131767559 0.9975651390661037
  outer loop
    vertex 57.664639577646284 -33.889598331895876 143.793026645059
    vertex 58.71330268056587 -33.12752425706674 143.73975113411464
    vertex 57.66461935910388 -33.12755208063496 143.73975113415307
  endloop
endfacet
facet normal 5.06296819611845e-06 -0.1908243188972083 0.9816242047198017
  outer loop
    vertex 58.713342794553995 -34.63943938010237 143.6472547537708
    vertex 57.664639577646284 -33.889598331895876 143.793026645059
    vertex 57.664659473092335 -34.63946720367078 143.6472547538085
  endloop
endfacet
facet normal 5.06296819611845e-06 -0.1908243188972083 0.9816242047198017
  outer loop
    vertex 57.664639577646284 -33.889598331895876 143.793026645059
    vertex 58.713342794553995 -34.63943938010237 143.6472547537708
    vertex 58.71332289910836 -33.88957050832749 143.79302664502146
  endloop
endfacet
facet normal 1.1631227096317877e-05 -0.43838517713324143 0.8987872030322701
  outer loop
    vertex 58.713361011062105 -35.32602854799691 143.31236957385065
    vertex 57.664659473092335 -34.63946720367078 143.6472547538085
    vertex 57.664677689599934 -35.32605637156541 143.31236957388882
  endloop
endfacet
facet normal 1.1631227096317877e-05 -0.43838517713324143 0.8987872030322701
  outer loop
    vertex 57.664659473092335 -34.63946720367078 143.6472547538085
    vertex 58.713361011062105 -35.32602854799691 143.31236957385065
    vertex 58.713342794553995 -34.63943938010237 143.6472547537708
  endloop
endfacet
facet normal 1.7406837040404815e-05 -0.6560708100124883 0.7546993387744286
  outer loop
    vertex 58.71337630720698 -35.902548094861295 142.8111929768499
    vertex 57.664677689599934 -35.32605637156541 143.31236957388882
    vertex 57.66469298574515 -35.90257591842973 142.81119297688826
  endloop
endfacet
facet normal 1.7406837040404815e-05 -0.6560708100124883 0.7546993387744286
  outer loop
    vertex 57.664677689599934 -35.32605637156541 143.31236957388882
    vertex 58.71337630720698 -35.902548094861295 142.8111929768499
    vertex 58.713361011062105 -35.32602854799691 143.31236957385065
  endloop
endfacet
facet normal 2.1996199469656403e-05 -0.8290463013978988 0.5591799617785244
  outer loop
    vertex 58.71337630720698 -35.902548094861295 142.8111929768499
    vertex 57.664704319120226 -36.32973698988868 142.17787931965816
    vertex 58.71338764058255 -36.329709166320285 142.1778793196209
  endloop
endfacet
facet normal 2.1996199469656403e-05 -0.8290463013978988 0.5591799617785244
  outer loop
    vertex 57.664704319120226 -36.32973698988868 142.17787931965816
    vertex 58.71337630720698 -35.902548094861295 142.8111929768499
    vertex 57.66469298574515 -35.90257591842973 142.81119297688826
  endloop
endfacet
facet normal 2.508655734660272e-05 -0.9455236574066451 0.32555339447627646
  outer loop
    vertex 57.664704319120226 -36.32973698988868 142.17787931965816
    vertex 58.713394238836784 -36.57840144127094 141.45558788130268
    vertex 58.71338764058255 -36.329709166320285 142.1778793196209
  endloop
endfacet
facet normal 2.508655734660272e-05 -0.9455236574066451 0.32555339447627646
  outer loop
    vertex 58.713394238836784 -36.57840144127094 141.45558788130268
    vertex 57.664704319120226 -36.32973698988868 142.17787931965816
    vertex 57.664710917374755 -36.57842926483943 141.4555878813396
  endloop
endfacet
facet normal 2.646730796293155e-05 -0.997565138714954 0.06974090134273013
  outer loop
    vertex 57.664710917374755 -36.57842926483943 141.4555878813396
    vertex 58.71339565231043 -36.63167695215904 140.6935416297735
    vertex 58.713394238836784 -36.57840144127094 141.45558788130268
  endloop
endfacet
facet normal 2.646730796293155e-05 -0.997565138714954 0.06974090134273013
  outer loop
    vertex 58.71339565231043 -36.63167695215904 140.6935416297735
    vertex 57.664710917374755 -36.57842926483943 141.4555878813396
    vertex 57.66471233084898 -36.63170477572726 140.69354162981074
  endloop
endfacet
facet normal 2.604435526254215e-05 -0.981624204374184 -0.19082431896496346
  outer loop
    vertex 58.71339565231043 -36.63167695215904 140.6935416297735
    vertex 57.66470846321552 -36.48593288452761 139.94367275777213
    vertex 58.71339178467758 -36.485905060959226 139.9436727577347
  endloop
endfacet
facet normal 2.604435526254215e-05 -0.981624204374184 -0.19082431896496346
  outer loop
    vertex 57.66470846321552 -36.48593288452761 139.94367275777213
    vertex 58.71339565231043 -36.63167695215904 140.6935416297735
    vertex 57.66471233084898 -36.63170477572726 140.69354162981074
  endloop
endfacet
facet normal 2.384652278001402e-05 -0.8987872027159162 -0.4383851772875562
  outer loop
    vertex 58.71339178467758 -36.485905060959226 139.9436727577347
    vertex 57.664699578048314 -36.15104770472571 139.25708358963652
    vertex 58.713382899510755 -36.15101988115752 139.2570835895988
  endloop
endfacet
facet normal 2.384652278001402e-05 -0.8987872027159162 -0.4383851772875562
  outer loop
    vertex 57.664699578048314 -36.15104770472571 139.25708358963652
    vertex 58.71339178467758 -36.485905060959226 139.9436727577347
    vertex 57.66470846321552 -36.48593288452761 139.94367275777213
  endloop
endfacet
facet normal -0.999999999648029 -2.6531907046803326e-05 3.571923335532046e-11
  outer loop
    vertex 57.66470846321552 -36.48593288452761 139.94367275777213
    vertex 57.664685094084604 -35.60514019716575 139.34882079292856
    vertex 57.664699578048314 -36.15104770472571 139.25708358963652
  endloop
endfacet
facet normal -0.999999999648029 -2.6531907046803326e-05 3.571923335532046e-11
  outer loop
    vertex 57.664685094084604 -35.60514019716575 139.34882079292856
    vertex 57.66470846321552 -36.48593288452761 139.94367275777213
    vertex 57.664689041189796 -35.75390820070913 139.5199534087857
  endloop
endfacet
facet normal -0.999999999648029 -2.6531907046803326e-05 3.571923335532046e-11
  outer loop
    vertex 57.664689041189796 -35.75390820070913 139.5199534087857
    vertex 57.66470846321552 -36.48593288452761 139.94367275777213
    vertex 57.66469648027063 -36.03428986540374 140.09479823780242
  endloop
endfacet
facet normal -0.999999999648029 -2.6531907046803326e-05 3.571923335532046e-11
  outer loop
    vertex 57.66469648027063 -36.03428986540374 140.09479823780242
    vertex 57.66470846321552 -36.48593288452761 139.94367275777213
    vertex 57.66471233084898 -36.63170477572726 140.69354162981074
  endloop
endfacet
facet normal -0.999999999648029 -2.6531907046803326e-05 3.571923335532046e-11
  outer loop
    vertex 57.66469648027063 -36.03428986540374 140.09479823780242
    vertex 57.66471233084898 -36.63170477572726 140.69354162981074
    vertex 57.66469971843518 -36.15633696687431 140.7226238190044
  endloop
endfacet
facet normal -0.999999999648029 -2.6531907046803326e-05 3.571923335532046e-11
  outer loop
    vertex 57.66469971843518 -36.15633696687431 140.7226238190044
    vertex 57.66471233084898 -36.63170477572726 140.69354162981074
    vertex 57.664710917374755 -36.57842926483943 141.4555878813396
  endloop
endfacet
facet normal -0.999999999648029 -2.6531907046803326e-05 3.571923335532046e-11
  outer loop
    vertex 57.66469971843518 -36.15633696687431 140.7226238190044
    vertex 57.664710917374755 -36.57842926483943 141.4555878813396
    vertex 57.664698792389906 -36.12143320686473 141.221882841323
  endloop
endfacet
facet normal -0.999999999648029 -2.6531907046803326e-05 3.571923335532046e-11
  outer loop
    vertex 57.664698792389906 -36.12143320686473 141.221882841323
    vertex 57.664710917374755 -36.57842926483943 141.4555878813396
    vertex 57.66469853500834 -36.11173219684795 141.3606448765641
  endloop
endfacet
facet normal -0.999999999648029 -2.6531907046803326e-05 3.571923335532046e-11
  outer loop
    vertex 57.66469853500834 -36.11173219684795 141.3606448765641
    vertex 57.664710917374755 -36.57842926483943 141.4555878813396
    vertex 57.66469301063848 -35.90351529668914 141.9653813297877
  endloop
endfacet
facet normal -0.999999999648029 -2.6531907046803326e-05 3.571923335532046e-11
  outer loop
    vertex 57.66469301063848 -35.90351529668914 141.9653813297877
    vertex 57.664710917374755 -36.57842926483943 141.4555878813396
    vertex 57.664704319120226 -36.32973698988868 142.17787931965816
  endloop
endfacet
facet normal -0.999999999648029 -2.6531907046803326e-05 3.571923335532046e-11
  outer loop
    vertex 57.66469301063848 -35.90351529668914 141.9653813297877
    vertex 57.664704319120226 -36.32973698988868 142.17787931965816
    vertex 57.664683521802324 -35.54587590404895 142.4956213887624
  endloop
endfacet
facet normal -0.999999999648029 -2.6531907046803326e-05 3.571923335532046e-11
  outer loop
    vertex 57.664683521802324 -35.54587590404895 142.4956213887624
    vertex 57.664704319120226 -36.32973698988868 142.17787931965816
    vertex 57.66469298574515 -35.90257591842973 142.81119297688826
  endloop
endfacet
facet normal -0.999999999648029 -2.6531907046803326e-05 3.571923335532046e-11
  outer loop
    vertex 57.664683521802324 -35.54587590404895 142.4956213887624
    vertex 57.66469298574515 -35.90257591842973 142.81119297688826
    vertex 57.664670715148176 -35.06318655250879 142.91523006973267
  endloop
endfacet
facet normal -0.999999999648029 -2.6531907046803326e-05 3.571923335532046e-11
  outer loop
    vertex 57.664670715148176 -35.06318655250879 142.91523006973267
    vertex 57.66469298574515 -35.90257591842973 142.81119297688826
    vertex 57.664677689599934 -35.32605637156541 143.31236957388882
  endloop
endfacet
facet normal -0.999999999648029 -2.6531907046803326e-05 3.571923335532046e-11
  outer loop
    vertex 57.664670715148176 -35.06318655250879 142.91523006973267
    vertex 57.664677689599934 -35.32605637156541 143.31236957388882
    vertex 57.66465546342853 -34.48834172369422 143.1956117345259
  endloop
endfacet
facet normal -0.999999999648029 -2.6531907046803326e-05 3.571923335532046e-11
  outer loop
    vertex 57.66465546342853 -34.48834172369422 143.1956117345259
    vertex 57.664677689599934 -35.32605637156541 143.31236957388882
    vertex 57.664638806022964 -33.86051614271305 143.3176588360396
  endloop
endfacet
facet normal -0.999999999648029 -2.6531907046803326e-05 3.571923335532046e-11
  outer loop
    vertex 57.664638806022964 -33.86051614271305 143.3176588360396
    vertex 57.664677689599934 -35.32605637156541 143.31236957388882
    vertex 57.664659473092335 -34.63946720367078 143.6472547538085
  endloop
endfacet
facet normal -0.999999999648029 -2.6531907046803326e-05 3.571923335532046e-11
  outer loop
    vertex 57.664638806022964 -33.86051614271305 143.3176588360396
    vertex 57.664659473092335 -34.63946720367078 143.6472547538085
    vertex 57.66460019532526 -32.40526064257113 143.49105885911388
  endloop
endfacet
facet normal -0.999999999648029 -2.6531907046803326e-05 3.571923335532046e-11
  outer loop
    vertex 57.66460019532526 -32.40526064257113 143.49105885911388
    vertex 57.664659473092335 -34.63946720367078 143.6472547538085
    vertex 57.66461935910388 -33.12755208063496 143.73975113415307
  endloop
endfacet
facet normal -0.999999999648029 -2.6531907046803326e-05 3.571923335532046e-11
  outer loop
    vertex 57.66461935910388 -33.12755208063496 143.73975113415307
    vertex 57.664659473092335 -34.63946720367078 143.6472547538085
    vertex 57.664639577646284 -33.889598331895876 143.793026645059
  endloop
endfacet
facet normal -0.999999999648029 -2.6531907046803326e-05 3.571923335532046e-11
  outer loop
    vertex 57.66465031404457 -34.29426601283086 138.00471069592123
    vertex 57.66461020005663 -32.78235088979533 138.09720707626596
    vertex 57.66463009550233 -33.53221976157023 137.95143518501416
  endloop
endfacet
facet normal -0.999999999648029 -2.6531907046803326e-05 3.571923335532046e-11
  outer loop
    vertex 57.66461020005663 -32.78235088979533 138.09720707626596
    vertex 57.66465031404457 -34.29426601283086 138.00471069592123
    vertex 57.664669477822585 -35.016557450895135 138.253402970959
  endloop
endfacet
facet normal -0.999999999648029 -2.6531907046803326e-05 3.571923335532046e-11
  outer loop
    vertex 57.66461020005663 -32.78235088979533 138.09720707626596
    vertex 57.664669477822585 -35.016557450895135 138.253402970959
    vertex 57.6645919835483 -32.09576172190079 138.43209225618565
  endloop
endfacet
facet normal -0.999999999648029 -2.6531907046803326e-05 3.571923335532046e-11
  outer loop
    vertex 57.6645919835483 -32.09576172190079 138.43209225618565
    vertex 57.664669477822585 -35.016557450895135 138.253402970959
    vertex 57.66468628085744 -35.6498711079017 138.68056404256853
  endloop
endfacet
facet normal -0.999999999648029 -2.6531907046803326e-05 3.571923335532046e-11
  outer loop
    vertex 57.6645919835483 -32.09576172190079 138.43209225618565
    vertex 57.66468628085744 -35.6498711079017 138.68056404256853
    vertex 57.66457668740344 -31.51924217503644 138.93326885318575
  endloop
endfacet
facet normal -0.999999999648029 -2.6531907046803326e-05 3.571923335532046e-11
  outer loop
    vertex 57.66457668740344 -31.51924217503644 138.93326885318575
    vertex 57.66468628085744 -35.6498711079017 138.68056404256853
    vertex 57.664699578048314 -36.15104770472571 139.25708358963652
  endloop
endfacet
facet normal -0.999999999648029 -2.6531907046803326e-05 3.571923335532046e-11
  outer loop
    vertex 57.66457668740344 -31.51924217503644 138.93326885318575
    vertex 57.664699578048314 -36.15104770472571 139.25708358963652
    vertex 57.66458436117139 -31.808469533999205 139.3488761351546
  endloop
endfacet
facet normal -0.999999999648029 -2.6531907046803326e-05 3.571923335532046e-11
  outer loop
    vertex 57.66457668740344 -31.51924217503644 138.93326885318575
    vertex 57.66458436117139 -31.808469533999205 139.3488761351546
    vertex 57.6645653540277 -31.092081103577517 139.56658251041475
  endloop
endfacet
facet normal -0.999999999648029 -2.6531907046803326e-05 3.571923335532046e-11
  outer loop
    vertex 57.66458436117139 -31.808469533999205 139.3488761351546
    vertex 57.664699578048314 -36.15104770472571 139.25708358963652
    vertex 57.664685094084604 -35.60514019716575 139.34882079292856
  endloop
endfacet
facet normal -0.999999999648029 -2.6531907046803326e-05 3.571923335532046e-11
  outer loop
    vertex 57.6645653540277 -31.092081103577517 139.56658251041475
    vertex 57.66458436117139 -31.808469533999205 139.3488761351546
    vertex 57.664576662509795 -31.518302796776677 139.77908050028705
  endloop
endfacet
facet normal -0.999999999648029 -2.6531907046803326e-05 3.571923335532046e-11
  outer loop
    vertex 57.6645653540277 -31.092081103577517 139.56658251041475
    vertex 57.664576662509795 -31.518302796776677 139.77908050028705
    vertex 57.66455875577339 -30.843388828626733 140.28887394873334
  endloop
endfacet
facet normal -0.999999999648029 -2.6531907046803326e-05 3.571923335532046e-11
  outer loop
    vertex 57.66455875577339 -30.843388828626733 140.28887394873334
    vertex 57.664576662509795 -31.518302796776677 139.77908050028705
    vertex 57.66457113814005 -31.31008589661788 140.38381695351057
  endloop
endfacet
facet normal -0.999999999648029 -2.6531907046803326e-05 3.571923335532046e-11
  outer loop
    vertex 57.66455875577339 -30.843388828626733 140.28887394873334
    vertex 57.66457113814005 -31.31008589661788 140.38381695351057
    vertex 57.664557342299695 -30.790113317738633 141.05092020026208
  endloop
endfacet
facet normal -0.999999999648029 -2.6531907046803326e-05 3.571923335532046e-11
  outer loop
    vertex 57.664557342299695 -30.790113317738633 141.05092020026208
    vertex 57.66457113814005 -31.31008589661788 140.38381695351057
    vertex 57.664569954713095 -31.265481126591578 141.02183801106997
  endloop
endfacet
facet normal -0.999999999648029 -2.6531907046803326e-05 3.571923335532046e-11
  outer loop
    vertex 57.664557342299695 -30.790113317738633 141.05092020026208
    vertex 57.664569954713095 -31.265481126591578 141.02183801106997
    vertex 57.664570986855594 -31.30438279301522 141.22195305712904
  endloop
endfacet
facet normal -0.999999999648029 -2.6531907046803326e-05 3.571923335532046e-11
  outer loop
    vertex 57.664557342299695 -30.790113317738633 141.05092020026208
    vertex 57.664570986855594 -31.30438279301522 141.22195305712904
    vertex 57.66456120993279 -30.935885208938622 141.80078907230123
  endloop
endfacet
facet normal -0.999999999648029 -2.6531907046803326e-05 3.571923335532046e-11
  outer loop
    vertex 57.66456120993279 -30.935885208938622 141.80078907230123
    vertex 57.664570986855594 -31.30438279301522 141.22195305712904
    vertex 57.66457319287783 -31.387528228062155 141.64966359227236
  endloop
endfacet
facet normal -0.999999999648029 -2.6531907046803326e-05 3.571923335532046e-11
  outer loop
    vertex 57.66456120993279 -30.935885208938622 141.80078907230123
    vertex 57.66457319287783 -31.387528228062155 141.64966359227236
    vertex 57.66458063195857 -31.667909892756796 142.22450842128927
  endloop
endfacet
facet normal -0.999999999648029 -2.6531907046803326e-05 3.571923335532046e-11
  outer loop
    vertex 57.66456120993279 -30.935885208938622 141.80078907230123
    vertex 57.66458063195857 -31.667909892756796 142.22450842128927
    vertex 57.664570095099734 -31.270770388740253 142.48737824043795
  endloop
endfacet
facet normal -0.999999999648029 -2.6531907046803326e-05 3.571923335532046e-11
  outer loop
    vertex 57.664570095099734 -31.270770388740253 142.48737824043795
    vertex 57.66458063195857 -31.667909892756796 142.22450842128927
    vertex 57.66459176499433 -32.087518573579196 142.7071977729994
  endloop
endfacet
facet normal -0.999999999648029 -2.6531907046803326e-05 3.571923335532046e-11
  outer loop
    vertex 57.664570095099734 -31.270770388740253 142.48737824043795
    vertex 57.66459176499433 -32.087518573579196 142.7071977729994
    vertex 57.66458339229149 -31.77194698556441 143.0638977875046
  endloop
endfacet
facet normal -0.999999999648029 -2.6531907046803326e-05 3.571923335532046e-11
  outer loop
    vertex 57.66458339229149 -31.77194698556441 143.0638977875046
    vertex 57.66459176499433 -32.087518573579196 142.7071977729994
    vertex 57.66460583328706 -32.617758632367405 143.06483716576554
  endloop
endfacet
facet normal -0.999999999648029 -2.6531907046803326e-05 3.571923335532046e-11
  outer loop
    vertex 57.66458339229149 -31.77194698556441 143.0638977875046
    vertex 57.66460583328706 -32.617758632367405 143.06483716576554
    vertex 57.66460019532526 -32.40526064257113 143.49105885911388
  endloop
endfacet
facet normal -0.999999999648029 -2.6531907046803326e-05 3.571923335532046e-11
  outer loop
    vertex 57.66460019532526 -32.40526064257113 143.49105885911388
    vertex 57.66460583328706 -32.617758632367405 143.06483716576554
    vertex 57.6646218781059 -33.22249508537815 143.2730540659974
  endloop
endfacet
facet normal -0.999999999648029 -2.6531907046803326e-05 3.571923335532046e-11
  outer loop
    vertex 57.66460019532526 -32.40526064257113 143.49105885911388
    vertex 57.6646218781059 -33.22249508537815 143.2730540659974
    vertex 57.664638806022964 -33.86051614271305 143.3176588360396
  endloop
endfacet
facet normal -0.999999999648029 -2.653190710986149e-05 3.573051171214443e-11
  outer loop
    vertex 53.70819263324865 -35.60524517045607 139.34882079306922
    vertex 53.708084201673735 -31.51840777006714 139.77908050042802
    vertex 53.70809190033543 -31.80857450728944 139.34887613529503
  endloop
endfacet
facet normal -0.999999999648029 -2.653190710986149e-05 3.573051171214443e-11
  outer loop
    vertex 53.708084201673735 -31.51840777006714 139.77908050042802
    vertex 53.70819263324865 -35.60524517045607 139.34882079306922
    vertex 53.70819658035375 -35.75401317399954 139.5199534089266
  endloop
endfacet
facet normal -0.999999999648029 -2.653190710986149e-05 3.573051171214443e-11
  outer loop
    vertex 53.708084201673735 -31.51840777006714 139.77908050042802
    vertex 53.70819658035375 -35.75401317399954 139.5199534089266
    vertex 53.70820401943439 -36.03439483869409 140.0947982379435
  endloop
endfacet
facet normal -0.999999999648029 -2.653190710986149e-05 3.573051171214443e-11
  outer loop
    vertex 53.708084201673735 -31.51840777006714 139.77908050042802
    vertex 53.70820401943439 -36.03439483869409 140.0947982379435
    vertex 53.70807867730396 -31.310190869908332 140.38381695365163
  endloop
endfacet
facet normal -0.999999999648029 -2.653190710986149e-05 3.573051171214443e-11
  outer loop
    vertex 53.70807867730396 -31.310190869908332 140.38381695365163
    vertex 53.70820401943439 -36.03439483869409 140.0947982379435
    vertex 53.708207257599284 -36.15644194016474 140.72262381914578
  endloop
endfacet
facet normal -0.999999999648029 -2.653190710986149e-05 3.573051171214443e-11
  outer loop
    vertex 53.70807867730396 -31.310190869908332 140.38381695365163
    vertex 53.708207257599284 -36.15644194016474 140.72262381914578
    vertex 53.70807749387692 -31.265586099881965 141.02183801121126
  endloop
endfacet
facet normal -0.999999999648029 -2.653190710986149e-05 3.573051171214443e-11
  outer loop
    vertex 53.70807749387692 -31.265586099881965 141.02183801121126
    vertex 53.708207257599284 -36.15644194016474 140.72262381914578
    vertex 53.70820633155368 -36.121538180155184 141.22188284146412
  endloop
endfacet
facet normal -0.999999999648029 -2.653190710986149e-05 3.573051171214443e-11
  outer loop
    vertex 53.70807749387692 -31.265586099881965 141.02183801121126
    vertex 53.70820633155368 -36.121538180155184 141.22188284146412
    vertex 53.70807852601934 -31.304487766305645 141.22195305727016
  endloop
endfacet
facet normal -0.999999999648029 -2.653190710986149e-05 3.573051171214443e-11
  outer loop
    vertex 53.70807852601934 -31.304487766305645 141.22195305727016
    vertex 53.70820633155368 -36.121538180155184 141.22188284146412
    vertex 53.70808073204206 -31.387633201352536 141.6496635924134
  endloop
endfacet
facet normal -0.999999999648029 -2.653190710986149e-05 3.573051171214443e-11
  outer loop
    vertex 53.70808073204206 -31.387633201352536 141.6496635924134
    vertex 53.70820633155368 -36.121538180155184 141.22188284146412
    vertex 53.70820607417259 -36.11183717013844 141.36064487670518
  endloop
endfacet
facet normal -0.999999999648029 -2.653190710986149e-05 3.573051171214443e-11
  outer loop
    vertex 53.70808073204206 -31.387633201352536 141.6496635924134
    vertex 53.70820607417259 -36.11183717013844 141.36064487670518
    vertex 53.70820054980262 -35.903620269979626 141.96538132992856
  endloop
endfacet
facet normal -0.999999999648029 -2.653190710986149e-05 3.573051171214443e-11
  outer loop
    vertex 53.70808073204206 -31.387633201352536 141.6496635924134
    vertex 53.70820054980262 -35.903620269979626 141.96538132992856
    vertex 53.708088171122725 -31.66801486604727 142.22450842143027
  endloop
endfacet
facet normal -0.999999999648029 -2.653190710986149e-05 3.573051171214443e-11
  outer loop
    vertex 53.708088171122725 -31.66801486604727 142.22450842143027
    vertex 53.70820054980262 -35.903620269979626 141.96538132992856
    vertex 53.70819106096642 -35.545980877339424 142.49562138890357
  endloop
endfacet
facet normal -0.999999999648029 -2.653190710986149e-05 3.573051171214443e-11
  outer loop
    vertex 53.708088171122725 -31.66801486604727 142.22450842143027
    vertex 53.70819106096642 -35.545980877339424 142.49562138890357
    vertex 53.708099304158544 -32.0876235468697 142.70719777314036
  endloop
endfacet
facet normal -0.999999999648029 -2.653190710986149e-05 3.573051171214443e-11
  outer loop
    vertex 53.708099304158544 -32.0876235468697 142.70719777314036
    vertex 53.70819106096642 -35.545980877339424 142.49562138890357
    vertex 53.70817825431246 -35.06329152579923 142.9152300698735
  endloop
endfacet
facet normal -0.999999999648029 -2.653190710986149e-05 3.573051171214443e-11
  outer loop
    vertex 53.708099304158544 -32.0876235468697 142.70719777314036
    vertex 53.70817825431246 -35.06329152579923 142.9152300698735
    vertex 53.708113372451265 -32.61786360565782 143.06483716590637
  endloop
endfacet
facet normal -0.999999999648029 -2.653190710986149e-05 3.573051171214443e-11
  outer loop
    vertex 53.708113372451265 -32.61786360565782 143.06483716590637
    vertex 53.70817825431246 -35.06329152579923 142.9152300698735
    vertex 53.70816300259266 -34.488446696984695 143.1956117346669
  endloop
endfacet
facet normal -0.999999999648029 -2.653190710986149e-05 3.573051171214443e-11
  outer loop
    vertex 53.708113372451265 -32.61786360565782 143.06483716590637
    vertex 53.70816300259266 -34.488446696984695 143.1956117346669
    vertex 53.7081294172701 -33.22260005866861 143.27305406613837
  endloop
endfacet
facet normal -0.999999999648029 -2.653190710986149e-05 3.573051171214443e-11
  outer loop
    vertex 53.7081294172701 -33.22260005866861 143.27305406613837
    vertex 53.70816300259266 -34.488446696984695 143.1956117346669
    vertex 53.70814634518715 -33.86062111600345 143.31765883618053
  endloop
endfacet
facet normal 0.999999999648029 2.6531907026801574e-05 -3.571613615486882e-11
  outer loop
    vertex 58.71327530501027 -32.095733898332526 138.43209225614794
    vertex 58.71330167634617 -33.08968172360644 138.55401798658286
    vertex 58.713318157022314 -33.71084623952938 138.47223091525436
  endloop
endfacet
facet normal 0.999999999648029 2.6531907026801574e-05 -3.571613615486882e-11
  outer loop
    vertex 58.71330167634617 -33.08968172360644 138.55401798658286
    vertex 58.71327530501027 -32.095733898332526 138.43209225614794
    vertex 58.71326000886535 -31.51921435146802 138.93326885314826
  endloop
endfacet
facet normal 0.999999999648029 2.6531907026801574e-05 -3.571613615486882e-11
  outer loop
    vertex 58.71330167634617 -33.08968172360644 138.55401798658286
    vertex 58.71326000886535 -31.51921435146802 138.93326885314826
    vertex 58.71328631886966 -32.51085092699764 138.79378743795516
  endloop
endfacet
facet normal 0.999999999648029 2.6531907026801574e-05 -3.571613615486882e-11
  outer loop
    vertex 58.71328631886966 -32.51085092699764 138.79378743795516
    vertex 58.71326000886535 -31.51921435146802 138.93326885314826
    vertex 58.71327313118007 -32.01380021192885 139.1751993774978
  endloop
endfacet
facet normal 0.999999999648029 2.6531907026801574e-05 -3.571613615486882e-11
  outer loop
    vertex 58.71327313118007 -32.01380021192885 139.1751993774978
    vertex 58.71326000886535 -31.51921435146802 138.93326885314826
    vertex 58.71324867549015 -31.092053280008976 139.5665825103777
  endloop
endfacet
facet normal 0.999999999648029 2.6531907026801574e-05 -3.571613615486882e-11
  outer loop
    vertex 58.71327313118007 -32.01380021192885 139.1751993774978
    vertex 58.71324867549015 -31.092053280008976 139.5665825103777
    vertex 58.7132630119961 -31.632402763216778 139.67226121184373
  endloop
endfacet
facet normal 0.999999999648029 2.6531907026801574e-05 -3.571613615486882e-11
  outer loop
    vertex 58.7132630119961 -31.632402763216778 139.67226121184373
    vertex 58.71324867549015 -31.092053280008976 139.5665825103777
    vertex 58.71324207723541 -30.843361005058288 140.2888739486959
  endloop
endfacet
facet normal 0.999999999648029 2.6531907026801574e-05 -3.571613615486882e-11
  outer loop
    vertex 58.7132630119961 -31.632402763216778 139.67226121184373
    vertex 58.71324207723541 -30.843361005058288 140.2888739486959
    vertex 58.713256650923746 -31.39265018670209 140.25109899841624
  endloop
endfacet
facet normal 0.999999999648029 2.6531907026801574e-05 -3.571613615486882e-11
  outer loop
    vertex 58.713256650923746 -31.39265018670209 140.25109899841624
    vertex 58.71324207723541 -30.843361005058288 140.2888739486959
    vertex 58.713254481459416 -31.310881224264424 140.87226589863465
  endloop
endfacet
facet normal 0.999999999648029 2.6531907026801574e-05 -3.571613615486882e-11
  outer loop
    vertex 58.713254481459416 -31.310881224264424 140.87226589863465
    vertex 58.71324207723541 -30.843361005058288 140.2888739486959
    vertex 58.71324066376176 -30.790085494170356 141.05092020022485
  endloop
endfacet
facet normal 0.999999999648029 2.6531907026801574e-05 -3.571613615486882e-11
  outer loop
    vertex 58.713254481459416 -31.310881224264424 140.87226589863465
    vertex 58.71324066376176 -30.790085494170356 141.05092020022485
    vertex 58.7132566514485 -31.39266829556427 141.4934304147763
  endloop
endfacet
facet normal 0.999999999648029 2.6531907026801574e-05 -3.571613615486882e-11
  outer loop
    vertex 58.7132566514485 -31.39266829556427 141.4934304147763
    vertex 58.71324066376176 -30.790085494170356 141.05092020022485
    vertex 58.713244531394906 -30.935857385370067 141.8007890722642
  endloop
endfacet
facet normal 0.999999999648029 2.6531907026801574e-05 -3.571613615486882e-11
  outer loop
    vertex 58.7132566514485 -31.39266829556427 141.4934304147763
    vertex 58.713244531394906 -30.935857385370067 141.8007890722642
    vertex 58.71326301301011 -31.632437746852137 142.07226121158882
  endloop
endfacet
facet normal 0.999999999648029 2.6531907026801574e-05 -3.571613615486882e-11
  outer loop
    vertex 58.71326301301011 -31.632437746852137 142.07226121158882
    vertex 58.713244531394906 -30.935857385370067 141.8007890722642
    vertex 58.71325341656191 -31.27074256517185 142.48737824039972
  endloop
endfacet
facet normal 0.999999999648029 2.6531907026801574e-05 -3.571613615486882e-11
  outer loop
    vertex 58.71326301301011 -31.632437746852137 142.07226121158882
    vertex 58.71325341656191 -31.27074256517185 142.48737824039972
    vertex 58.71327313261383 -32.013849686260414 142.56931192683246
  endloop
endfacet
facet normal 0.999999999648029 2.6531907026801574e-05 -3.571613615486882e-11
  outer loop
    vertex 58.71327313261383 -32.013849686260414 142.56931192683246
    vertex 58.71325341656191 -31.27074256517185 142.48737824039972
    vertex 58.71326671375321 -31.771919161996045 143.06389778746708
  endloop
endfacet
facet normal 0.999999999648029 2.6531907026801574e-05 -3.571613615486882e-11
  outer loop
    vertex 58.71327313261383 -32.013849686260414 142.56931192683246
    vertex 58.71326671375321 -31.771919161996045 143.06389778746708
    vertex 58.713286320625876 -32.510911520431506 142.95070937567877
  endloop
endfacet
facet normal 0.999999999648029 2.6531907026801574e-05 -3.571613615486882e-11
  outer loop
    vertex 58.713286320625876 -32.510911520431506 142.95070937567877
    vertex 58.71326671375321 -31.771919161996045 143.06389778746708
    vertex 58.713301678304845 -33.089749306800186 143.19046195227796
  endloop
endfacet
facet normal 0.999999999648029 2.6531907026801574e-05 -3.571613615486882e-11
  outer loop
    vertex 58.713301678304845 -33.089749306800186 143.19046195227796
    vertex 58.71326671375321 -31.771919161996045 143.06389778746708
    vertex 58.71328351678796 -32.40523281900259 143.4910588590765
  endloop
endfacet
facet normal 0.999999999648029 2.6531907026801574e-05 -3.571613615486882e-11
  outer loop
    vertex 58.713301678304845 -33.089749306800186 143.19046195227796
    vertex 58.71328351678796 -32.40523281900259 143.4910588590765
    vertex 58.71331815905014 -33.71091620680011 143.27223091474437
  endloop
endfacet
facet normal 0.999999999648029 2.6531907026801574e-05 -3.571613615486882e-11
  outer loop
    vertex 58.71331815905014 -33.71091620680011 143.27223091474437
    vertex 58.71328351678796 -32.40523281900259 143.4910588590765
    vertex 58.713361011062105 -35.32602854799691 143.31236957385065
  endloop
endfacet
facet normal 0.999999999648029 2.6531907026801574e-05 -3.571613615486882e-11
  outer loop
    vertex 58.713361011062105 -35.32602854799691 143.31236957385065
    vertex 58.71328351678796 -32.40523281900259 143.4910588590765
    vertex 58.713342794553995 -34.63943938010237 143.6472547537708
  endloop
endfacet
facet normal 0.999999999648029 2.6531907026801574e-05 -3.571613615486882e-11
  outer loop
    vertex 58.713342794553995 -34.63943938010237 143.6472547537708
    vertex 58.71328351678796 -32.40523281900259 143.4910588590765
    vertex 58.71330268056587 -33.12752425706674 143.73975113411464
  endloop
endfacet
facet normal 0.999999999648029 2.6531907026801574e-05 -3.571613615486882e-11
  outer loop
    vertex 58.713342794553995 -34.63943938010237 143.6472547537708
    vertex 58.71330268056587 -33.12752425706674 143.73975113411464
    vertex 58.71332289910836 -33.88957050832749 143.79302664502146
  endloop
endfacet
facet normal 0.999999999648029 2.6531907026801574e-05 -3.571613615486882e-11
  outer loop
    vertex 58.71329352151881 -32.782323066226894 138.09720707622782
    vertex 58.71333363550656 -34.29423818926262 138.00471069588377
    vertex 58.71331341696427 -33.53219193800184 137.95143518497682
  endloop
endfacet
facet normal 0.999999999648029 2.6531907026801574e-05 -3.571613615486882e-11
  outer loop
    vertex 58.71333363550656 -34.29423818926262 138.00471069588377
    vertex 58.71329352151881 -32.782323066226894 138.09720707622782
    vertex 58.71335279928504 -35.01652962732676 138.2534029709218
  endloop
endfacet
facet normal 0.999999999648029 2.6531907026801574e-05 -3.571613615486882e-11
  outer loop
    vertex 58.71335279928504 -35.01652962732676 138.2534029709218
    vertex 58.71329352151881 -32.782323066226894 138.09720707622782
    vertex 58.71327530501027 -32.095733898332526 138.43209225614794
  endloop
endfacet
facet normal 0.999999999648029 2.6531907026801574e-05 -3.571613615486882e-11
  outer loop
    vertex 58.71335279928504 -35.01652962732676 138.2534029709218
    vertex 58.71327530501027 -32.095733898332526 138.43209225614794
    vertex 58.713318157022314 -33.71084623952938 138.47223091525436
  endloop
endfacet
facet normal 0.999999999648029 2.6531907026801574e-05 -3.571613615486882e-11
  outer loop
    vertex 58.71335279928504 -35.01652962732676 138.2534029709218
    vertex 58.713318157022314 -33.71084623952938 138.47223091525436
    vertex 58.71336960231899 -35.649843284333215 138.68056404253156
  endloop
endfacet
facet normal 0.999999999648029 2.6531907026801574e-05 -3.571613615486882e-11
  outer loop
    vertex 58.71336960231899 -35.649843284333215 138.68056404253156
    vertex 58.713318157022314 -33.71084623952938 138.47223091525436
    vertex 58.71333463776765 -34.33201313952929 138.55399987772068
  endloop
endfacet
facet normal 0.999999999648029 2.6531907026801574e-05 -3.571613615486882e-11
  outer loop
    vertex 58.71336960231899 -35.649843284333215 138.68056404253156
    vertex 58.71333463776765 -34.33201313952929 138.55399987772068
    vertex 58.71334999544671 -34.91085092589796 138.79375245431987
  endloop
endfacet
facet normal 0.999999999648029 2.6531907026801574e-05 -3.571613615486882e-11
  outer loop
    vertex 58.71336960231899 -35.649843284333215 138.68056404253156
    vertex 58.71334999544671 -34.91085092589796 138.79375245431987
    vertex 58.713382899510755 -36.15101988115752 139.2570835895988
  endloop
endfacet
facet normal 0.999999999648029 2.6531907026801574e-05 -3.571613615486882e-11
  outer loop
    vertex 58.713382899510755 -36.15101988115752 139.2570835895988
    vertex 58.71334999544671 -34.91085092589796 138.79375245431987
    vertex 58.713363183458675 -35.40791276006905 139.1751499031661
  endloop
endfacet
facet normal 0.999999999648029 2.6531907026801574e-05 -3.571613615486882e-11
  outer loop
    vertex 58.713382899510755 -36.15101988115752 139.2570835895988
    vertex 58.713363183458675 -35.40791276006905 139.1751499031661
    vertex 58.713373303062504 -35.78932469947733 139.67220061840982
  endloop
endfacet
facet normal 0.999999999648029 2.6531907026801574e-05 -3.571613615486882e-11
  outer loop
    vertex 58.713382899510755 -36.15101988115752 139.2570835895988
    vertex 58.713373303062504 -35.78932469947733 139.67220061840982
    vertex 58.71339178467758 -36.485905060959226 139.9436727577347
  endloop
endfacet
facet normal 0.999999999648029 2.6531907026801574e-05 -3.571613615486882e-11
  outer loop
    vertex 58.71339178467758 -36.485905060959226 139.9436727577347
    vertex 58.713373303062504 -35.78932469947733 139.67220061840982
    vertex 58.71337966462389 -36.02909415076515 140.25103141522234
  endloop
endfacet
facet normal 0.999999999648029 2.6531907026801574e-05 -3.571613615486882e-11
  outer loop
    vertex 58.71339178467758 -36.485905060959226 139.9436727577347
    vertex 58.71337966462389 -36.02909415076515 140.25103141522234
    vertex 58.71339565231043 -36.63167695215904 140.6935416297735
  endloop
endfacet
facet normal 0.999999999648029 2.6531907026801574e-05 -3.571613615486882e-11
  outer loop
    vertex 58.71339565231043 -36.63167695215904 140.6935416297735
    vertex 58.71337966462389 -36.02909415076515 140.25103141522234
    vertex 58.71338183461302 -36.110881222065046 140.87219593136393
  endloop
endfacet
facet normal 0.999999999648029 2.6531907026801574e-05 -3.571613615486882e-11
  outer loop
    vertex 58.71339565231043 -36.63167695215904 140.6935416297735
    vertex 58.71338183461302 -36.110881222065046 140.87219593136393
    vertex 58.713394238836784 -36.57840144127094 141.45558788130268
  endloop
endfacet
facet normal 0.999999999648029 2.6531907026801574e-05 -3.571613615486882e-11
  outer loop
    vertex 58.713394238836784 -36.57840144127094 141.45558788130268
    vertex 58.71338183461302 -36.110881222065046 140.87219593136393
    vertex 58.71337966514888 -36.02911225962735 141.49336283158246
  endloop
endfacet
facet normal 0.999999999648029 2.6531907026801574e-05 -3.571613615486882e-11
  outer loop
    vertex 58.713394238836784 -36.57840144127094 141.45558788130268
    vertex 58.71337966514888 -36.02911225962735 141.49336283158246
    vertex 58.71338764058255 -36.329709166320285 142.1778793196209
  endloop
endfacet
facet normal 0.999999999648029 2.6531907026801574e-05 -3.571613615486882e-11
  outer loop
    vertex 58.71338764058255 -36.329709166320285 142.1778793196209
    vertex 58.71337966514888 -36.02911225962735 141.49336283158246
    vertex 58.71337330407644 -35.789359683112686 142.07220061815485
  endloop
endfacet
facet normal 0.999999999648029 2.6531907026801574e-05 -3.571613615486882e-11
  outer loop
    vertex 58.71338764058255 -36.329709166320285 142.1778793196209
    vertex 58.71337330407644 -35.789359683112686 142.07220061815485
    vertex 58.71336318489251 -35.40796223440063 142.56926245250094
  endloop
endfacet
facet normal 0.999999999648029 2.6531907026801574e-05 -3.571613615486882e-11
  outer loop
    vertex 58.71338764058255 -36.329709166320285 142.1778793196209
    vertex 58.71336318489251 -35.40796223440063 142.56926245250094
    vertex 58.71337630720698 -35.902548094861295 142.8111929768499
  endloop
endfacet
facet normal 0.999999999648029 2.6531907026801574e-05 -3.571613615486882e-11
  outer loop
    vertex 58.71337630720698 -35.902548094861295 142.8111929768499
    vertex 58.71336318489251 -35.40796223440063 142.56926245250094
    vertex 58.71334999720276 -34.91091151933178 142.95067439204337
  endloop
endfacet
facet normal 0.999999999648029 2.6531907026801574e-05 -3.571613615486882e-11
  outer loop
    vertex 58.71337630720698 -35.902548094861295 142.8111929768499
    vertex 58.71334999720276 -34.91091151933178 142.95067439204337
    vertex 58.713361011062105 -35.32602854799691 143.31236957385065
  endloop
endfacet
facet normal 0.999999999648029 2.6531907026801574e-05 -3.571613615486882e-11
  outer loop
    vertex 58.713361011062105 -35.32602854799691 143.31236957385065
    vertex 58.71334999720276 -34.91091151933178 142.95067439204337
    vertex 58.71333463972644 -34.332080722723035 143.19044384341578
  endloop
endfacet
facet normal 0.999999999648029 2.6531907026801574e-05 -3.571613615486882e-11
  outer loop
    vertex 58.713361011062105 -35.32602854799691 143.31236957385065
    vertex 58.71333463972644 -34.332080722723035 143.19044384341578
    vertex 58.71331815905014 -33.71091620680011 143.27223091474437
  endloop
endfacet
facet normal 1.7406836704522245e-05 -0.6560708100123112 0.7546993387745826
  outer loop
    vertex 57.664683521802324 -35.54587590404895 142.4956213887624
    vertex 53.70817825431246 -35.06329152579923 142.9152300698735
    vertex 53.70819106096642 -35.545980877339424 142.49562138890357
  endloop
endfacet
facet normal 1.7406836704522245e-05 -0.6560708100123112 0.7546993387745826
  outer loop
    vertex 53.70817825431246 -35.06329152579923 142.9152300698735
    vertex 57.664683521802324 -35.54587590404895 142.4956213887624
    vertex 57.664670715148176 -35.06318655250879 142.91523006973267
  endloop
endfacet
facet normal -2.0023589348082534e-05 0.7546993385089467 0.6560708102432345
  outer loop
    vertex 53.708088171122725 -31.66801486604727 142.22450842143027
    vertex 57.66459176499433 -32.087518573579196 142.7071977729994
    vertex 57.66458063195857 -31.667909892756796 142.22450842128927
  endloop
endfacet
facet normal -2.0023589348082534e-05 0.7546993385089467 0.6560708102432345
  outer loop
    vertex 57.66459176499433 -32.087518573579196 142.7071977729994
    vertex 53.708088171122725 -31.66801486604727 142.22450842143027
    vertex 53.708099304158544 -32.0876235468697 142.70719777314036
  endloop
endfacet
facet normal -2.3846522937645472e-05 0.8987872027160955 0.4383851772871885
  outer loop
    vertex 53.70808073204206 -31.387633201352536 141.6496635924134
    vertex 57.66458063195857 -31.667909892756796 142.22450842128927
    vertex 57.66457319287783 -31.387528228062155 141.64966359227236
  endloop
endfacet
facet normal -2.3846522937645472e-05 0.8987872027160955 0.4383851772871885
  outer loop
    vertex 57.66458063195857 -31.667909892756796 142.22450842128927
    vertex 53.70808073204206 -31.387633201352536 141.6496635924134
    vertex 53.708088171122725 -31.66801486604727 142.22450842143027
  endloop
endfacet
facet normal 2.0023589384367928e-05 -0.7546993385086841 -0.6560708102435365
  outer loop
    vertex 53.70819658035375 -35.75401317399954 139.5199534089266
    vertex 57.664685094084604 -35.60514019716575 139.34882079292856
    vertex 57.664689041189796 -35.75390820070913 139.5199534087857
  endloop
endfacet
facet normal 2.0023589384367928e-05 -0.7546993385086841 -0.6560708102435365
  outer loop
    vertex 57.664685094084604 -35.60514019716575 139.34882079292856
    vertex 53.70819658035375 -35.75401317399954 139.5199534089266
    vertex 53.70819263324865 -35.60524517045607 139.34882079306922
  endloop
endfacet
facet normal 2.199619940037768e-05 -0.8290463013977173 0.5591799617787935
  outer loop
    vertex 53.70819106096642 -35.545980877339424 142.49562138890357
    vertex 57.66469301063848 -35.90351529668914 141.9653813297877
    vertex 57.664683521802324 -35.54587590404895 142.4956213887624
  endloop
endfacet
facet normal 2.199619940037768e-05 -0.8290463013977173 0.5591799617787935
  outer loop
    vertex 57.66469301063848 -35.90351529668914 141.9653813297877
    vertex 53.70819106096642 -35.545980877339424 142.49562138890357
    vertex 53.70820054980262 -35.903620269979626 141.96538132992856
  endloop
endfacet
facet normal -2.6044355392303216e-05 0.9816242043742295 0.19082431896472854
  outer loop
    vertex 53.70807749387692 -31.265586099881965 141.02183801121126
    vertex 57.664570986855594 -31.30438279301522 141.22195305712904
    vertex 57.664569954713095 -31.265481126591578 141.02183801106997
  endloop
endfacet
facet normal -2.6044355392303216e-05 0.9816242043742295 0.19082431896472854
  outer loop
    vertex 57.664570986855594 -31.30438279301522 141.22195305712904
    vertex 53.70807749387692 -31.265586099881965 141.02183801121126
    vertex 53.70808073204206 -31.387633201352536 141.6496635924134
  endloop
endfacet
facet normal -2.6044355392303216e-05 0.9816242043742295 0.19082431896472854
  outer loop
    vertex 53.70808073204206 -31.387633201352536 141.6496635924134
    vertex 53.70807749387692 -31.265586099881965 141.02183801121126
    vertex 53.70807852601934 -31.304487766305645 141.22195305727016
  endloop
endfacet
facet normal -2.6044355392303216e-05 0.9816242043742295 0.19082431896472854
  outer loop
    vertex 53.70808073204206 -31.387633201352536 141.6496635924134
    vertex 57.66457319287783 -31.387528228062155 141.64966359227236
    vertex 57.664570986855594 -31.30438279301522 141.22195305712904
  endloop
endfacet
facet normal -2.646730807990368e-05 0.9975651387149361 -0.06974090134298641
  outer loop
    vertex 53.70807867730396 -31.310190869908332 140.38381695365163
    vertex 57.664569954713095 -31.265481126591578 141.02183801106997
    vertex 57.66457113814005 -31.31008589661788 140.38381695351057
  endloop
endfacet
facet normal -2.646730807990368e-05 0.9975651387149361 -0.06974090134298641
  outer loop
    vertex 57.664569954713095 -31.265481126591578 141.02183801106997
    vertex 53.70807867730396 -31.310190869908332 140.38381695365163
    vertex 53.70807749387692 -31.265586099881965 141.02183801121126
  endloop
endfacet
facet normal -8.637518697556468e-06 0.32555339436168523 0.9455236577394446
  outer loop
    vertex 57.6646218781059 -33.22249508537815 143.2730540659974
    vertex 53.708113372451265 -32.61786360565782 143.06483716590637
    vertex 53.7081294172701 -33.22260005866861 143.27305406613837
  endloop
endfacet
facet normal -8.637518697556468e-06 0.32555339436168523 0.9455236577394446
  outer loop
    vertex 53.708113372451265 -32.61786360565782 143.06483716590637
    vertex 57.6646218781059 -33.22249508537815 143.2730540659974
    vertex 57.66460583328706 -32.617758632367405 143.06483716576554
  endloop
endfacet
facet normal -1.8503235413476114e-06 0.0697409013186905 0.9975651390660326
  outer loop
    vertex 57.664638806022964 -33.86051614271305 143.3176588360396
    vertex 53.7081294172701 -33.22260005866861 143.27305406613837
    vertex 53.70814634518715 -33.86062111600345 143.31765883618053
  endloop
endfacet
facet normal -1.8503235413476114e-06 0.0697409013186905 0.9975651390660326
  outer loop
    vertex 53.7081294172701 -33.22260005866861 143.27305406613837
    vertex 57.664638806022964 -33.86051614271305 143.3176588360396
    vertex 57.6646218781059 -33.22249508537815 143.2730540659974
  endloop
endfacet
facet normal 2.384652293950614e-05 -0.8987872027160826 -0.4383851772872151
  outer loop
    vertex 53.70820401943439 -36.03439483869409 140.0947982379435
    vertex 57.664689041189796 -35.75390820070913 139.5199534087857
    vertex 57.66469648027063 -36.03428986540374 140.09479823780242
  endloop
endfacet
facet normal 2.384652293950614e-05 -0.8987872027160826 -0.4383851772872151
  outer loop
    vertex 57.664689041189796 -35.75390820070913 139.5199534087857
    vertex 53.70820401943439 -36.03439483869409 140.0947982379435
    vertex 53.70819658035375 -35.75401317399954 139.5199534089266
  endloop
endfacet
facet normal -2.1996199353054976e-05 0.8290463013974796 -0.5591799617791456
  outer loop
    vertex 53.70809190033543 -31.80857450728944 139.34887613529503
    vertex 57.664576662509795 -31.518302796776677 139.77908050028705
    vertex 57.66458436117139 -31.808469533999205 139.3488761351546
  endloop
endfacet
facet normal -2.1996199353054976e-05 0.8290463013974796 -0.5591799617791456
  outer loop
    vertex 57.664576662509795 -31.518302796776677 139.77908050028705
    vertex 53.70809190033543 -31.80857450728944 139.34887613529503
    vertex 53.708084201673735 -31.51840777006714 139.77908050042802
  endloop
endfacet
facet normal 2.508655747020795e-05 -0.9455236574065539 0.32555339447654147
  outer loop
    vertex 57.66469301063848 -35.90351529668914 141.9653813297877
    vertex 53.70820607417259 -36.11183717013844 141.36064487670518
    vertex 57.66469853500834 -36.11173219684795 141.3606448765641
  endloop
endfacet
facet normal 2.508655747020795e-05 -0.9455236574065539 0.32555339447654147
  outer loop
    vertex 53.70820607417259 -36.11183717013844 141.36064487670518
    vertex 57.66469301063848 -35.90351529668914 141.9653813297877
    vertex 53.70820054980262 -35.903620269979626 141.96538132992856
  endloop
endfacet
facet normal 5.062968108879671e-06 -0.1908243188976289 0.98162420471972
  outer loop
    vertex 57.66465546342853 -34.48834172369422 143.1956117345259
    vertex 53.70814634518715 -33.86062111600345 143.31765883618053
    vertex 53.70816300259266 -34.488446696984695 143.1956117346669
  endloop
endfacet
facet normal 5.062968108879671e-06 -0.1908243188976289 0.98162420471972
  outer loop
    vertex 53.70814634518715 -33.86062111600345 143.31765883618053
    vertex 57.66465546342853 -34.48834172369422 143.1956117345259
    vertex 57.664638806022964 -33.86051614271305 143.3176588360396
  endloop
endfacet
facet normal 2.6044355396341517e-05 -0.9816242043742196 -0.19082431896477955
  outer loop
    vertex 57.66469971843518 -36.15633696687431 140.7226238190044
    vertex 53.70820401943439 -36.03439483869409 140.0947982379435
    vertex 57.66469648027063 -36.03428986540374 140.09479823780242
  endloop
endfacet
facet normal 2.6044355396341517e-05 -0.9816242043742196 -0.19082431896477955
  outer loop
    vertex 53.70820401943439 -36.03439483869409 140.0947982379435
    vertex 57.66469971843518 -36.15633696687431 140.7226238190044
    vertex 53.708207257599284 -36.15644194016474 140.72262381914578
  endloop
endfacet
facet normal -2.508655744457359e-05 0.945523657406564 -0.3255533944765119
  outer loop
    vertex 57.664576662509795 -31.518302796776677 139.77908050028705
    vertex 53.70807867730396 -31.310190869908332 140.38381695365163
    vertex 57.66457113814005 -31.31008589661788 140.38381695351057
  endloop
endfacet
facet normal -2.508655744457359e-05 0.945523657406564 -0.3255533944765119
  outer loop
    vertex 53.70807867730396 -31.310190869908332 140.38381695365163
    vertex 57.664576662509795 -31.518302796776677 139.77908050028705
    vertex 53.708084201673735 -31.51840777006714 139.77908050042802
  endloop
endfacet
facet normal -1.4836081232860694e-05 0.5591799615820313 0.8290463016894827
  outer loop
    vertex 57.66460583328706 -32.617758632367405 143.06483716576554
    vertex 53.708099304158544 -32.0876235468697 142.70719777314036
    vertex 53.708113372451265 -32.61786360565782 143.06483716590637
  endloop
endfacet
facet normal -1.4836081232860694e-05 0.5591799615820313 0.8290463016894827
  outer loop
    vertex 53.708099304158544 -32.0876235468697 142.70719777314036
    vertex 57.66460583328706 -32.617758632367405 143.06483716576554
    vertex 57.66459176499433 -32.087518573579196 142.7071977729994
  endloop
endfacet
facet normal 2.646730808870277e-05 -0.9975651387149375 0.0697409013429667
  outer loop
    vertex 57.66469853500834 -36.11173219684795 141.3606448765641
    vertex 57.66469971843518 -36.15633696687431 140.7226238190044
    vertex 57.664698792389906 -36.12143320686473 141.221882841323
  endloop
endfacet
facet normal 2.646730808870277e-05 -0.9975651387149375 0.0697409013429667
  outer loop
    vertex 57.66469971843518 -36.15633696687431 140.7226238190044
    vertex 57.66469853500834 -36.11173219684795 141.3606448765641
    vertex 53.708207257599284 -36.15644194016474 140.72262381914578
  endloop
endfacet
facet normal 2.646730808870277e-05 -0.9975651387149375 0.0697409013429667
  outer loop
    vertex 53.708207257599284 -36.15644194016474 140.72262381914578
    vertex 57.66469853500834 -36.11173219684795 141.3606448765641
    vertex 53.70820607417259 -36.11183717013844 141.36064487670518
  endloop
endfacet
facet normal 2.646730808870277e-05 -0.9975651387149375 0.0697409013429667
  outer loop
    vertex 53.708207257599284 -36.15644194016474 140.72262381914578
    vertex 53.70820607417259 -36.11183717013844 141.36064487670518
    vertex 53.70820633155368 -36.121538180155184 141.22188284146412
  endloop
endfacet
facet normal 1.1631226853013888e-05 -0.43838517713288994 0.8987872030324415
  outer loop
    vertex 57.664670715148176 -35.06318655250879 142.91523006973267
    vertex 53.70816300259266 -34.488446696984695 143.1956117346669
    vertex 53.70817825431246 -35.06329152579923 142.9152300698735
  endloop
endfacet
facet normal 1.1631226853013888e-05 -0.43838517713288994 0.8987872030324415
  outer loop
    vertex 53.70816300259266 -34.488446696984695 143.1956117346669
    vertex 57.664670715148176 -35.06318655250879 142.91523006973267
    vertex 57.66465546342853 -34.48834172369422 143.1956117345259
  endloop
endfacet
facet normal -4.222972121314115e-10 1.457651472956204e-05 -0.9999999998937626
  outer loop
    vertex 53.70809190033543 -31.80857450728944 139.34887613529503
    vertex 57.664685094084604 -35.60514019716575 139.34882079292856
    vertex 53.70819263324865 -35.60524517045607 139.34882079306922
  endloop
endfacet
facet normal -4.222972121314115e-10 1.457651472956204e-05 -0.9999999998937626
  outer loop
    vertex 57.664685094084604 -35.60514019716575 139.34882079292856
    vertex 53.70809190033543 -31.80857450728944 139.34887613529503
    vertex 57.66458436117139 -31.808469533999205 139.3488761351546
  endloop
endfacet
facet normal 0.999999999648029 2.6531907028091016e-05 -3.5716537805944384e-11
  outer loop
    vertex 64.05809261868025 -33.08953991611003 138.55401798639207
    vertex 64.05812558010184 -34.33187133203288 138.55399987752998
    vertex 64.05810909935636 -33.710704432032976 138.47223091506325
  endloop
endfacet
facet normal 0.999999999648029 2.6531907028091016e-05 -3.5716537805944384e-11
  outer loop
    vertex 64.05812558010184 -34.33187133203288 138.55399987752998
    vertex 64.05809261868025 -33.08953991611003 138.55401798639207
    vertex 64.05807726120375 -32.51070911950126 138.7937874377643
  endloop
endfacet
facet normal 0.999999999648029 2.6531907028091016e-05 -3.5716537805944384e-11
  outer loop
    vertex 64.05812558010184 -34.33187133203288 138.55399987752998
    vertex 64.05807726120375 -32.51070911950126 138.7937874377643
    vertex 64.05814093778075 -34.910709118401556 138.79375245412896
  endloop
endfacet
facet normal 0.999999999648029 2.6531907028091016e-05 -3.5716537805944384e-11
  outer loop
    vertex 64.05814093778075 -34.910709118401556 138.79375245412896
    vertex 64.05807726120375 -32.51070911950126 138.7937874377643
    vertex 64.05806407351419 -32.0136584044325 139.17519937730682
  endloop
endfacet
facet normal 0.999999999648029 2.6531907028091016e-05 -3.5716537805944384e-11
  outer loop
    vertex 64.05814093778075 -34.910709118401556 138.79375245412896
    vertex 64.05806407351419 -32.0136584044325 139.17519937730682
    vertex 64.05815412579275 -35.407770952572655 139.17514990297516
  endloop
endfacet
facet normal 0.999999999648029 2.6531907028091016e-05 -3.5716537805944384e-11
  outer loop
    vertex 64.05815412579275 -35.407770952572655 139.17514990297516
    vertex 64.05806407351419 -32.0136584044325 139.17519937730682
    vertex 64.05816424539668 -35.78918289198097 139.67220061821908
  endloop
endfacet
facet normal 0.999999999648029 2.6531907028091016e-05 -3.5716537805944384e-11
  outer loop
    vertex 64.05816424539668 -35.78918289198097 139.67220061821908
    vertex 64.05806407351419 -32.0136584044325 139.17519937730682
    vertex 64.05805395433025 -31.632260955720398 139.67226121165285
  endloop
endfacet
facet normal 0.999999999648029 2.6531907028091016e-05 -3.5716537805944384e-11
  outer loop
    vertex 64.05816424539668 -35.78918289198097 139.67220061821908
    vertex 64.05805395433025 -31.632260955720398 139.67226121165285
    vertex 64.05804759325784 -31.392508379205715 140.2510989982254
  endloop
endfacet
facet normal 0.999999999648029 2.6531907028091016e-05 -3.5716537805944384e-11
  outer loop
    vertex 64.05816424539668 -35.78918289198097 139.67220061821908
    vertex 64.05804759325784 -31.392508379205715 140.2510989982254
    vertex 64.05817060695809 -36.02895234326877 140.25103141503132
  endloop
endfacet
facet normal 0.999999999648029 2.6531907028091016e-05 -3.5716537805944384e-11
  outer loop
    vertex 64.05817060695809 -36.02895234326877 140.25103141503132
    vertex 64.05804759325784 -31.392508379205715 140.2510989982254
    vertex 64.0581727769471 -36.11073941456868 140.87219593117294
  endloop
endfacet
facet normal 0.999999999648029 2.6531907028091016e-05 -3.5716537805944384e-11
  outer loop
    vertex 64.0581727769471 -36.11073941456868 140.87219593117294
    vertex 64.05804759325784 -31.392508379205715 140.2510989982254
    vertex 64.05804542379344 -31.310739416768058 140.87226589844394
  endloop
endfacet
facet normal 0.999999999648029 2.6531907028091016e-05 -3.5716537805944384e-11
  outer loop
    vertex 64.0581727769471 -36.11073941456868 140.87219593117294
    vertex 64.05804542379344 -31.310739416768058 140.87226589844394
    vertex 64.05817060748304 -36.02897045213097 141.4933628313917
  endloop
endfacet
facet normal 0.999999999648029 2.6531907028091016e-05 -3.5716537805944384e-11
  outer loop
    vertex 64.05817060748304 -36.02897045213097 141.4933628313917
    vertex 64.05804542379344 -31.310739416768058 140.87226589844394
    vertex 64.05804759378258 -31.39252648806791 141.49343041458542
  endloop
endfacet
facet normal 0.999999999648029 2.6531907028091016e-05 -3.5716537805944384e-11
  outer loop
    vertex 64.05817060748304 -36.02897045213097 141.4933628313917
    vertex 64.05804759378258 -31.39252648806791 141.49343041458542
    vertex 64.05805395534415 -31.632295939355725 142.07226121139797
  endloop
endfacet
facet normal 0.999999999648029 2.6531907028091016e-05 -3.5716537805944384e-11
  outer loop
    vertex 64.05817060748304 -36.02897045213097 141.4933628313917
    vertex 64.05805395534415 -31.632295939355725 142.07226121139797
    vertex 64.05816424641056 -35.78921787561628 142.0722006179641
  endloop
endfacet
facet normal 0.999999999648029 2.6531907028091016e-05 -3.5716537805944384e-11
  outer loop
    vertex 64.05816424641056 -35.78921787561628 142.0722006179641
    vertex 64.05805395534415 -31.632295939355725 142.07226121139797
    vertex 64.05806407494802 -32.013707878763995 142.56931192664177
  endloop
endfacet
facet normal 0.999999999648029 2.6531907028091016e-05 -3.5716537805944384e-11
  outer loop
    vertex 64.05816424641056 -35.78921787561628 142.0722006179641
    vertex 64.05806407494802 -32.013707878763995 142.56931192664177
    vertex 64.0581541272266 -35.407820426904216 142.5692624523101
  endloop
endfacet
facet normal 0.999999999648029 2.6531907028091016e-05 -3.5716537805944384e-11
  outer loop
    vertex 64.0581541272266 -35.407820426904216 142.5692624523101
    vertex 64.05806407494802 -32.013707878763995 142.56931192664177
    vertex 64.05814093953678 -34.91076971183542 142.95067439185271
  endloop
endfacet
facet normal 0.999999999648029 2.6531907028091016e-05 -3.5716537805944384e-11
  outer loop
    vertex 64.05814093953678 -34.91076971183542 142.95067439185271
    vertex 64.05806407494802 -32.013707878763995 142.56931192664177
    vertex 64.05807726296 -32.51076971293515 142.95070937548806
  endloop
endfacet
facet normal 0.999999999648029 2.6531907028091016e-05 -3.5716537805944384e-11
  outer loop
    vertex 64.05814093953678 -34.91076971183542 142.95067439185271
    vertex 64.05807726296 -32.51076971293515 142.95070937548806
    vertex 64.05809262063893 -33.08960749930379 143.19046195208705
  endloop
endfacet
facet normal 0.999999999648029 2.6531907028091016e-05 -3.5716537805944384e-11
  outer loop
    vertex 64.05814093953678 -34.91076971183542 142.95067439185271
    vertex 64.05809262063893 -33.08960749930379 143.19046195208705
    vertex 64.05812558206063 -34.33193891522665 143.19044384322487
  endloop
endfacet
facet normal 0.999999999648029 2.6531907028091016e-05 -3.5716537805944384e-11
  outer loop
    vertex 64.05812558206063 -34.33193891522665 143.19044384322487
    vertex 64.05809262063893 -33.08960749930379 143.19046195208705
    vertex 64.05810910138426 -33.71077439930368 143.2722309145533
  endloop
endfacet
facet normal 1.6151266473323233e-05 -0.6087498644031331 -0.79336221382689
  outer loop
    vertex 58.713363183458675 -35.40791276006905 139.1751499031661
    vertex 64.05814093778075 -34.910709118401556 138.79375245412896
    vertex 64.05815412579275 -35.407770952572655 139.17514990297516
  endloop
endfacet
facet normal 1.6151266473323233e-05 -0.6087498644031331 -0.79336221382689
  outer loop
    vertex 64.05814093778075 -34.910709118401556 138.79375245412896
    vertex 58.713363183458675 -35.40791276006905 139.1751499031661
    vertex 58.71334999544671 -34.91085092589796 138.79375245431987
  endloop
endfacet
facet normal 1.0152930943549485e-05 -0.38266996524611935 -0.9238851106038304
  outer loop
    vertex 58.71334999544671 -34.91085092589796 138.79375245431987
    vertex 64.05812558010184 -34.33187133203288 138.55399987752998
    vertex 64.05814093778075 -34.910709118401556 138.79375245412896
  endloop
endfacet
facet normal 1.0152930943549485e-05 -0.38266996524611935 -0.9238851106038304
  outer loop
    vertex 64.05812558010184 -34.33187133203288 138.55399987752998
    vertex 58.71334999544671 -34.91085092589796 138.79375245431987
    vertex 58.71333463776765 -34.33201313952929 138.55399987772068
  endloop
endfacet
facet normal 3.4626899465074164e-06 -0.13051174034965313 -0.9914467638854416
  outer loop
    vertex 58.71333463776765 -34.33201313952929 138.55399987772068
    vertex 64.05810909935636 -33.710704432032976 138.47223091506325
    vertex 64.05812558010184 -34.33187133203288 138.55399987752998
  endloop
endfacet
facet normal 3.4626899465074164e-06 -0.13051174034965313 -0.9914467638854416
  outer loop
    vertex 64.05810909935636 -33.710704432032976 138.47223091506325
    vertex 58.71333463776765 -34.33201313952929 138.55399987772068
    vertex 58.713318157022314 -33.71084623952938 138.47223091525436
  endloop
endfacet
facet normal -3.4635276458493265e-06 0.13054064397089793 -0.9914429586515139
  outer loop
    vertex 58.713318157022314 -33.71084623952938 138.47223091525436
    vertex 64.05809261868025 -33.08953991611003 138.55401798639207
    vertex 64.05810909935636 -33.710704432032976 138.47223091506325
  endloop
endfacet
facet normal -3.4635276458493265e-06 0.13054064397089793 -0.9914429586515139
  outer loop
    vertex 64.05809261868025 -33.08953991611003 138.55401798639207
    vertex 58.713318157022314 -33.71084623952938 138.47223091525436
    vertex 58.71330167634617 -33.08968172360644 138.55401798658286
  endloop
endfacet
facet normal -1.0153711550710759e-05 0.3826968991333474 -0.9238739542224483
  outer loop
    vertex 58.71330167634617 -33.08968172360644 138.55401798658286
    vertex 64.05807726120375 -32.51070911950126 138.7937874377643
    vertex 64.05809261868025 -33.08953991611003 138.55401798639207
  endloop
endfacet
facet normal -1.0153711550710759e-05 0.3826968991333474 -0.9238739542224483
  outer loop
    vertex 64.05807726120375 -32.51070911950126 138.7937874377643
    vertex 58.71330167634617 -33.08968172360644 138.55401798658286
    vertex 58.71328631886966 -32.51085092699764 138.79378743795516
  endloop
endfacet
facet normal -1.615193679553402e-05 0.6087729930564245 -0.7933444665870163
  outer loop
    vertex 58.71328631886966 -32.51085092699764 138.79378743795516
    vertex 64.05806407351419 -32.0136584044325 139.17519937730682
    vertex 64.05807726120375 -32.51070911950126 138.7937874377643
  endloop
endfacet
facet normal -1.615193679553402e-05 0.6087729930564245 -0.7933444665870163
  outer loop
    vertex 64.05806407351419 -32.0136584044325 139.17519937730682
    vertex 58.71328631886966 -32.51085092699764 138.79378743795516
    vertex 58.71327313118007 -32.01380021192885 139.1751993774978
  endloop
endfacet
facet normal -2.104943424053793e-05 0.7933622135476405 -0.6087498646174054
  outer loop
    vertex 58.71327313118007 -32.01380021192885 139.1751993774978
    vertex 64.05805395433025 -31.632260955720398 139.67226121165285
    vertex 64.05806407351419 -32.0136584044325 139.17519937730682
  endloop
endfacet
facet normal -2.104943424053793e-05 0.7933622135476405 -0.6087498646174054
  outer loop
    vertex 64.05805395433025 -31.632260955720398 139.67226121165285
    vertex 58.71327313118007 -32.01380021192885 139.1751993774978
    vertex 58.7132630119961 -31.632402763216778 139.67226121184373
  endloop
endfacet
facet normal -2.4512447526991504e-05 0.9238851102786453 -0.38266996538081716
  outer loop
    vertex 58.7132630119961 -31.632402763216778 139.67226121184373
    vertex 64.05804759325784 -31.392508379205715 140.2510989982254
    vertex 64.05805395433025 -31.632260955720398 139.67226121165285
  endloop
endfacet
facet normal -2.4512447526991504e-05 0.9238851102786453 -0.38266996538081716
  outer loop
    vertex 64.05804759325784 -31.392508379205715 140.2510989982254
    vertex 58.7132630119961 -31.632402763216778 139.67226121184373
    vertex 58.713256650923746 -31.39265018670209 140.25109899841624
  endloop
endfacet
facet normal -2.630497802162056e-05 0.9914467635364866 -0.1305117403955455
  outer loop
    vertex 58.713256650923746 -31.39265018670209 140.25109899841624
    vertex 64.05804542379344 -31.310739416768058 140.87226589844394
    vertex 64.05804759325784 -31.392508379205715 140.2510989982254
  endloop
endfacet
facet normal -2.630497802162056e-05 0.9914467635364866 -0.1305117403955455
  outer loop
    vertex 64.05804542379344 -31.310739416768058 140.87226589844394
    vertex 58.713256650923746 -31.39265018670209 140.25109899841624
    vertex 58.713254481459416 -31.310881224264424 140.87226589863465
  endloop
endfacet
facet normal -2.630486773849916e-05 0.9914429583025587 0.13054064401681514
  outer loop
    vertex 58.713254481459416 -31.310881224264424 140.87226589863465
    vertex 64.05804759378258 -31.39252648806791 141.49343041458542
    vertex 64.05804542379344 -31.310739416768058 140.87226589844394
  endloop
endfacet
facet normal -2.630486773849916e-05 0.9914429583025587 0.13054064401681514
  outer loop
    vertex 64.05804759378258 -31.39252648806791 141.49343041458542
    vertex 58.713254481459416 -31.310881224264424 140.87226589863465
    vertex 58.7132566514485 -31.39266829556427 141.4934304147763
  endloop
endfacet
facet normal -2.4512124188562783e-05 0.9238739538972652 0.3826968992680626
  outer loop
    vertex 64.05804759378258 -31.39252648806791 141.49343041458542
    vertex 58.71326301301011 -31.632437746852137 142.07226121158882
    vertex 64.05805395534415 -31.632295939355725 142.07226121139797
  endloop
endfacet
facet normal -2.4512124188562783e-05 0.9238739538972652 0.3826968992680626
  outer loop
    vertex 58.71326301301011 -31.632437746852137 142.07226121158882
    vertex 64.05804759378258 -31.39252648806791 141.49343041458542
    vertex 58.7132566514485 -31.39266829556427 141.4934304147763
  endloop
endfacet
facet normal -2.104891988394346e-05 0.7933444663077772 0.6087729932707028
  outer loop
    vertex 58.71326301301011 -31.632437746852137 142.07226121158882
    vertex 64.05806407494802 -32.013707878763995 142.56931192664177
    vertex 64.05805395534415 -31.632295939355725 142.07226121139797
  endloop
endfacet
facet normal -2.104891988394346e-05 0.7933444663077772 0.6087729932707028
  outer loop
    vertex 64.05806407494802 -32.013707878763995 142.56931192664177
    vertex 58.71326301301011 -31.632437746852137 142.07226121158882
    vertex 58.71327313261383 -32.013849686260414 142.56931192683246
  endloop
endfacet
facet normal -1.615126647260598e-05 0.6087498644031373 0.7933622138268868
  outer loop
    vertex 64.05806407494802 -32.013707878763995 142.56931192664177
    vertex 58.713286320625876 -32.510911520431506 142.95070937567877
    vertex 64.05807726296 -32.51076971293515 142.95070937548806
  endloop
endfacet
facet normal -1.615126647260598e-05 0.6087498644031373 0.7933622138268868
  outer loop
    vertex 58.713286320625876 -32.510911520431506 142.95070937567877
    vertex 64.05806407494802 -32.013707878763995 142.56931192664177
    vertex 58.71327313261383 -32.013849686260414 142.56931192683246
  endloop
endfacet
facet normal -1.0152930943099282e-05 0.38266996524611935 0.9238851106038304
  outer loop
    vertex 64.05807726296 -32.51076971293515 142.95070937548806
    vertex 58.713301678304845 -33.089749306800186 143.19046195227796
    vertex 64.05809262063893 -33.08960749930379 143.19046195208705
  endloop
endfacet
facet normal -1.0152930943099282e-05 0.38266996524611935 0.9238851106038304
  outer loop
    vertex 58.713301678304845 -33.089749306800186 143.19046195227796
    vertex 64.05807726296 -32.51076971293515 142.95070937548806
    vertex 58.713286320625876 -32.510911520431506 142.95070937567877
  endloop
endfacet
facet normal -3.4626899489181438e-06 0.13051174034959942 0.9914467638854486
  outer loop
    vertex 64.05809262063893 -33.08960749930379 143.19046195208705
    vertex 58.71331815905014 -33.71091620680011 143.27223091474437
    vertex 64.05810910138426 -33.71077439930368 143.2722309145533
  endloop
endfacet
facet normal -3.4626899489181438e-06 0.13051174034959942 0.9914467638854486
  outer loop
    vertex 58.71331815905014 -33.71091620680011 143.27223091474437
    vertex 64.05809262063893 -33.08960749930379 143.19046195208705
    vertex 58.713301678304845 -33.089749306800186 143.19046195227796
  endloop
endfacet
facet normal 3.4635276435897157e-06 -0.13054064397084542 0.9914429586515209
  outer loop
    vertex 64.05810910138426 -33.71077439930368 143.2722309145533
    vertex 58.71333463972644 -34.332080722723035 143.19044384341578
    vertex 64.05812558206063 -34.33193891522665 143.19044384322487
  endloop
endfacet
facet normal 3.4635276435897157e-06 -0.13054064397084542 0.9914429586515209
  outer loop
    vertex 58.71333463972644 -34.332080722723035 143.19044384341578
    vertex 64.05810910138426 -33.71077439930368 143.2722309145533
    vertex 58.71331815905014 -33.71091620680011 143.27223091474437
  endloop
endfacet
facet normal 1.015371155071089e-05 -0.3826968991333474 0.9238739542224483
  outer loop
    vertex 64.05812558206063 -34.33193891522665 143.19044384322487
    vertex 58.71334999720276 -34.91091151933178 142.95067439204337
    vertex 64.05814093953678 -34.91076971183542 142.95067439185271
  endloop
endfacet
facet normal 1.015371155071089e-05 -0.3826968991333474 0.9238739542224483
  outer loop
    vertex 58.71334999720276 -34.91091151933178 142.95067439204337
    vertex 64.05812558206063 -34.33193891522665 143.19044384322487
    vertex 58.71333463972644 -34.332080722723035 143.19044384341578
  endloop
endfacet
facet normal 1.6151936795535237e-05 -0.6087729930564202 0.7933444665870198
  outer loop
    vertex 64.05814093953678 -34.91076971183542 142.95067439185271
    vertex 58.71336318489251 -35.40796223440063 142.56926245250094
    vertex 64.0581541272266 -35.407820426904216 142.5692624523101
  endloop
endfacet
facet normal 1.6151936795535237e-05 -0.6087729930564202 0.7933444665870198
  outer loop
    vertex 58.71336318489251 -35.40796223440063 142.56926245250094
    vertex 64.05814093953678 -34.91076971183542 142.95067439185271
    vertex 58.71334999720276 -34.91091151933178 142.95067439204337
  endloop
endfacet
facet normal 2.1049434240544975e-05 -0.7933622135476538 0.6087498646173881
  outer loop
    vertex 64.0581541272266 -35.407820426904216 142.5692624523101
    vertex 58.71337330407644 -35.789359683112686 142.07220061815485
    vertex 64.05816424641056 -35.78921787561628 142.0722006179641
  endloop
endfacet
facet normal 2.1049434240544975e-05 -0.7933622135476538 0.6087498646173881
  outer loop
    vertex 58.71337330407644 -35.789359683112686 142.07220061815485
    vertex 64.0581541272266 -35.407820426904216 142.5692624523101
    vertex 58.71336318489251 -35.40796223440063 142.56926245250094
  endloop
endfacet
facet normal 2.4512447526994167e-05 -0.9238851102786464 0.3826699653808142
  outer loop
    vertex 64.05816424641056 -35.78921787561628 142.0722006179641
    vertex 58.71337966514888 -36.02911225962735 141.49336283158246
    vertex 64.05817060748304 -36.02897045213097 141.4933628313917
  endloop
endfacet
facet normal 2.4512447526994167e-05 -0.9238851102786464 0.3826699653808142
  outer loop
    vertex 58.71337966514888 -36.02911225962735 141.49336283158246
    vertex 64.05816424641056 -35.78921787561628 142.0722006179641
    vertex 58.71337330407644 -35.789359683112686 142.07220061815485
  endloop
endfacet
facet normal 2.6304978022511272e-05 -0.9914467635364853 0.13051174039555646
  outer loop
    vertex 58.71337966514888 -36.02911225962735 141.49336283158246
    vertex 64.0581727769471 -36.11073941456868 140.87219593117294
    vertex 64.05817060748304 -36.02897045213097 141.4933628313917
  endloop
endfacet
facet normal 2.6304978022511272e-05 -0.9914467635364853 0.13051174039555646
  outer loop
    vertex 64.0581727769471 -36.11073941456868 140.87219593117294
    vertex 58.71337966514888 -36.02911225962735 141.49336283158246
    vertex 58.71338183461302 -36.110881222065046 140.87219593136393
  endloop
endfacet
facet normal 2.6304867738499796e-05 -0.9914429583025587 -0.13054064401681517
  outer loop
    vertex 64.0581727769471 -36.11073941456868 140.87219593117294
    vertex 58.71337966462389 -36.02909415076515 140.25103141522234
    vertex 64.05817060695809 -36.02895234326877 140.25103141503132
  endloop
endfacet
facet normal 2.6304867738499796e-05 -0.9914429583025587 -0.13054064401681517
  outer loop
    vertex 58.71337966462389 -36.02909415076515 140.25103141522234
    vertex 64.0581727769471 -36.11073941456868 140.87219593117294
    vertex 58.71338183461302 -36.110881222065046 140.87219593136393
  endloop
endfacet
facet normal 2.4512124187829937e-05 -0.9238739538972663 -0.38269689926806016
  outer loop
    vertex 64.05817060695809 -36.02895234326877 140.25103141503132
    vertex 58.713373303062504 -35.78932469947733 139.67220061840982
    vertex 64.05816424539668 -35.78918289198097 139.67220061821908
  endloop
endfacet
facet normal 2.4512124187829937e-05 -0.9238739538972663 -0.38269689926806016
  outer loop
    vertex 58.713373303062504 -35.78932469947733 139.67220061840982
    vertex 64.05817060695809 -36.02895234326877 140.25103141503132
    vertex 58.71337966462389 -36.02909415076515 140.25103141522234
  endloop
endfacet
facet normal 2.1048919883009804e-05 -0.7933444663077682 -0.6087729932707145
  outer loop
    vertex 58.713373303062504 -35.78932469947733 139.67220061840982
    vertex 64.05815412579275 -35.407770952572655 139.17514990297516
    vertex 64.05816424539668 -35.78918289198097 139.67220061821908
  endloop
endfacet
facet normal 2.1048919883009804e-05 -0.7933444663077682 -0.6087729932707145
  outer loop
    vertex 64.05815412579275 -35.407770952572655 139.17514990297516
    vertex 58.713373303062504 -35.78932469947733 139.67220061840982
    vertex 58.713363183458675 -35.40791276006905 139.1751499031661
  endloop
endfacet
endsolid pedro_robot
