solid pedro_robot
facet normal 2.1476628264228404e-06 0.9999999999975323 5.684002426345438e-07
  outer loop
    vertex 63.71690566359817 -45.69263211398748 124.86379078655294
    vertex 57.261114221673104 -45.69330750488087 117.13060584316908
    vertex 57.26072581244592 -45.693285415082805 124.86381556102448
  endloop
endfacet
facet normal 2.1476628264228404e-06 0.9999999999975323 5.684002426345438e-07
  outer loop
    vertex 75.19924011411985 -45.693537250613055 148.06733220501542
    vertex 53.283083660263244 -45.69354078030656 145.0797161880836
    vertex 49.883337139118865 -45.69346828190393 148.06581664436519
  endloop
endfacet
facet normal 2.1476628264228404e-06 0.9999999999975323 5.684002426345438e-07
  outer loop
    vertex 53.283083660263244 -45.69354078030656 145.0797161880836
    vertex 75.19924011411985 -45.693537250613055 148.06733220501542
    vertex 63.71602784536088 -45.69370089746415 145.08377201856297
  endloop
endfacet
facet normal 2.1476628264228404e-06 0.9999999999975323 5.684002426345438e-07
  outer loop
    vertex 63.71602784536088 -45.69370089746415 145.08377201856297
    vertex 75.19924011411985 -45.693537250613055 148.06733220501542
    vertex 63.71690566359817 -45.69263211398748 124.86379078655294
  endloop
endfacet
facet normal 2.1476628264228404e-06 0.9999999999975323 5.684002426345438e-07
  outer loop
    vertex 53.28612357462756 -45.69367550120282 120.20182170934225
    vertex 49.88629050423049 -45.6937554203924 114.18692015635824
    vertex 49.88624713117933 -45.69375887967273 120.20190635842884
  endloop
endfacet
facet normal 2.1476628264228404e-06 0.9999999999975323 5.684002426345438e-07
  outer loop
    vertex 49.88629050423049 -45.6937554203924 114.18692015635824
    vertex 53.28612357462756 -45.69367550120282 120.20182170934225
    vertex 53.286157709821524 -45.69365952787243 117.13166370620341
  endloop
endfacet
facet normal 2.1476628264228404e-06 0.9999999999975323 5.684002426345438e-07
  outer loop
    vertex 49.88629050423049 -45.6937554203924 114.18692015635824
    vertex 53.286157709821524 -45.69365952787243 117.13166370620341
    vertex 75.1994147802361 -45.69412853159666 114.18853014761946
  endloop
endfacet
facet normal 2.1476628264228404e-06 0.9999999999975323 5.684002426345438e-07
  outer loop
    vertex 75.1994147802361 -45.69412853159666 114.18853014761946
    vertex 53.286157709821524 -45.69365952787243 117.13166370620341
    vertex 57.261114221673104 -45.69330750488087 117.13060584316908
  endloop
endfacet
facet normal 2.1476628264228404e-06 0.9999999999975323 5.684002426345438e-07
  outer loop
    vertex 75.1994147802361 -45.69412853159666 114.18853014761946
    vertex 57.261114221673104 -45.69330750488087 117.13060584316908
    vertex 63.71690566359817 -45.69263211398748 124.86379078655294
  endloop
endfacet
facet normal 2.1476628264228404e-06 0.9999999999975323 5.684002426345438e-07
  outer loop
    vertex 75.1994147802361 -45.69412853159666 114.18853014761946
    vertex 63.71690566359817 -45.69263211398748 124.86379078655294
    vertex 75.19924011411985 -45.693537250613055 148.06733220501542
  endloop
endfacet
facet normal 2.1476628264228404e-06 0.9999999999975323 5.684002426345438e-07
  outer loop
    vertex 49.883337139118865 -45.69346828190393 148.06581664436519
    vertex 53.28325209053506 -45.69356462300266 141.90910318173394
    vertex 49.88320673867751 -45.69360773642513 141.9089363426578
  endloop
endfacet
facet normal 2.1476628264228404e-06 0.9999999999975323 5.684002426345438e-07
  outer loop
    vertex 53.28325209053506 -45.69356462300266 141.90910318173394
    vertex 49.883337139118865 -45.69346828190393 148.06581664436519
    vertex 53.283083660263244 -45.69354078030656 145.0797161880836
  endloop
endfacet
facet normal -0.9999999968998049 -4.06579904156387e-05 -6.743380658996725e-05
  outer loop
    vertex 57.26146278257435 -54.26683723171051 117.13084195967625
    vertex 57.26072581244592 -45.693285415082805 124.86381556102448
    vertex 57.261114221673104 -45.69330750488087 117.13060584316908
  endloop
endfacet
facet normal -0.9999999968998049 -4.06579904156387e-05 -6.743380658996725e-05
  outer loop
    vertex 57.26072581244592 -45.693285415082805 124.86381556102448
    vertex 57.26146278257435 -54.26683723171051 117.13084195967625
    vertex 57.26107437334756 -54.26681514191257 124.86405167753162
  endloop
endfacet
facet normal -0.999999999857972 9.117295091957986e-06 1.417500914924735e-05
  outer loop
    vertex 49.883128512832606 -54.27371299502612 141.90904265760093
    vertex 49.883337139118865 -45.69346828190393 148.06581664436519
    vertex 49.88320673867751 -45.69360773642513 141.9089363426578
  endloop
endfacet
facet normal -0.999999999857972 9.117295091957986e-06 1.417500914924735e-05
  outer loop
    vertex 49.883337139118865 -45.69346828190393 148.06581664436519
    vertex 49.883128512832606 -54.27371299502612 141.90904265760093
    vertex 49.88325891327462 -54.27357354050476 148.06592295930847
  endloop
endfacet
facet normal 5.927435713787846e-05 -1.2391407397967743e-05 -0.9999999981665019
  outer loop
    vertex 53.28317386468994 -54.27366988160375 141.909209496677
    vertex 49.88320673867751 -45.69360773642513 141.9089363426578
    vertex 53.28325209053506 -45.69356462300266 141.90910318173394
  endloop
endfacet
facet normal 5.927435713787846e-05 -1.2391407397967743e-05 -0.9999999981665019
  outer loop
    vertex 49.88320673867751 -45.69360773642513 141.9089363426578
    vertex 53.28317386468994 -54.27366988160375 141.909209496677
    vertex 49.883128512832606 -54.27371299502612 141.90904265760093
  endloop
endfacet
facet normal 0.00029321030509495355 2.7552094201113333e-05 0.9999999566342986
  outer loop
    vertex 53.286157709821524 -45.69365952787243 117.13166370620341
    vertex 57.26146278257435 -54.26683723171051 117.13084195967625
    vertex 57.261114221673104 -45.69330750488087 117.13060584316908
  endloop
endfacet
facet normal 0.00029321030509495355 2.7552094201113333e-05 0.9999999566342986
  outer loop
    vertex 57.26146278257435 -54.26683723171051 117.13084195967625
    vertex 53.286157709821524 -45.69365952787243 117.13166370620341
    vertex 53.286506270722754 -54.267189254702046 117.13189982271057
  endloop
endfacet
facet normal 2.8242025284188973e-05 2.7541322973925127e-05 0.9999999992219317
  outer loop
    vertex 49.88624713117933 -45.69375887967273 120.20190635842884
    vertex 53.28647213552888 -54.26720522803232 120.2020578258496
    vertex 53.28612357462756 -45.69367550120282 120.20182170934225
  endloop
endfacet
facet normal 2.8242025284188973e-05 2.7541322973925127e-05 0.9999999992219317
  outer loop
    vertex 53.28647213552888 -54.26720522803232 120.2020578258496
    vertex 49.88624713117933 -45.69375887967273 120.20190635842884
    vertex 49.886595692080505 -54.2672886065022 120.20214247493604
  endloop
endfacet
facet normal 0.9999999999962881 -1.9304126921000347e-06 1.9228386291728497e-06
  outer loop
    vertex 75.1994147802361 -45.69412853159666 114.18853014761946
    vertex 75.19923582179742 -47.91706699177954 148.0673283829201
    vertex 75.19941048791296 -47.917658272763084 114.18852632552331
  endloop
endfacet
facet normal 0.9999999999962881 -1.9304126921000347e-06 1.9228386291728497e-06
  outer loop
    vertex 75.19923582179742 -47.91706699177954 148.0673283829201
    vertex 75.1994147802361 -45.69412853159666 114.18853014761946
    vertex 75.19924011411985 -45.693537250613055 148.06733220501542
  endloop
endfacet
facet normal 0.999999999771452 -9.116879897148028e-06 1.9338523486145565e-05
  outer loop
    vertex 53.283083660263244 -45.69354078030656 145.0797161880836
    vertex 53.28317386468994 -54.27366988160375 141.909209496677
    vertex 53.28325209053506 -45.69356462300266 141.90910318173394
  endloop
endfacet
facet normal 0.999999999771452 -9.116879897148028e-06 1.9338523486145565e-05
  outer loop
    vertex 53.28317386468994 -54.27366988160375 141.909209496677
    vertex 53.283083660263244 -45.69354078030656 145.0797161880836
    vertex 53.283005434418016 -54.273646038907515 145.07982250302638
  endloop
endfacet
facet normal 0.9999999983190853 4.065661080032855e-05 4.133847482615369e-05
  outer loop
    vertex 53.28612357462756 -45.69367550120282 120.20182170934225
    vertex 53.286506270722754 -54.267189254702046 117.13189982271057
    vertex 53.286157709821524 -45.69365952787243 117.13166370620341
  endloop
endfacet
facet normal 0.9999999983190853 4.065661080032855e-05 4.133847482615369e-05
  outer loop
    vertex 53.286506270722754 -54.267189254702046 117.13189982271057
    vertex 53.28612357462756 -45.69367550120282 120.20182170934225
    vertex 53.28647213552888 -54.26720522803232 120.2020578258496
  endloop
endfacet
facet normal -0.9999999990093059 -4.0654973151773494e-05 1.8126266848858632e-05
  outer loop
    vertex 49.88663906513165 -54.267285147221905 114.18715627286551
    vertex 49.88624713117933 -45.69375887967273 120.20190635842884
    vertex 49.88629050423049 -45.6937554203924 114.18692015635824
  endloop
endfacet
facet normal -0.9999999990093059 -4.0654973151773494e-05 1.8126266848858632e-05
  outer loop
    vertex 49.88624713117933 -45.69375887967273 120.20190635842884
    vertex 49.88663906513165 -54.267285147221905 114.18715627286551
    vertex 49.886595692080505 -54.2672886065022 120.20214247493604
  endloop
endfacet
facet normal 2.780807812035037e-06 2.8712466513043787e-05 0.9999999995839307
  outer loop
    vertex 57.26072581244592 -45.693285415082805 124.86381556102448
    vertex 63.71725422449919 -54.26616184081719 124.86402690306049
    vertex 63.71690566359817 -45.69263211398748 124.86379078655294
  endloop
endfacet
facet normal 2.780807812035037e-06 2.8712466513043787e-05 0.9999999995839307
  outer loop
    vertex 63.71725422449919 -54.26616184081719 124.86402690306049
    vertex 57.26072581244592 -45.693285415082805 124.86381556102448
    vertex 57.26107437334756 -54.26681514191257 124.86405167753162
  endloop
endfacet
facet normal 0.00038427032360542287 -1.2959740540452272e-05 -0.9999999260841792
  outer loop
    vertex 63.71602784536088 -45.69370089746415 145.08377201856297
    vertex 53.283005434418016 -54.273646038907515 145.07982250302638
    vertex 53.283083660263244 -45.69354078030656 145.0797161880836
  endloop
endfacet
facet normal 0.00038427032360542287 -1.2959740540452272e-05 -0.9999999260841792
  outer loop
    vertex 53.283005434418016 -54.273646038907515 145.07982250302638
    vertex 63.71602784536088 -45.69370089746415 145.08377201856297
    vertex 63.716023553037914 -47.91723063863047 145.08376819646693
  endloop
endfacet
facet normal 0.00038427032360542287 -1.2959740540452272e-05 -0.9999999260841792
  outer loop
    vertex 53.283005434418016 -54.273646038907515 145.07982250302638
    vertex 63.716023553037914 -47.91723063863047 145.08376819646693
    vertex 63.715949619516074 -54.27380615606517 145.08387833350602
  endloop
endfacet
facet normal 6.136694762554655e-05 -1.0779355927214356e-05 -0.9999999980589517
  outer loop
    vertex 75.1994147802361 -45.69412853159666 114.18853014761946
    vertex 49.88663906513165 -54.267285147221905 114.18715627286551
    vertex 49.88629050423049 -45.6937554203924 114.18692015635824
  endloop
endfacet
facet normal 6.136694762554655e-05 -1.0779355927214356e-05 -0.9999999980589517
  outer loop
    vertex 49.88663906513165 -54.267285147221905 114.18715627286551
    vertex 75.1994147802361 -45.69412853159666 114.18853014761946
    vertex 75.19941048791296 -47.917658272763084 114.18852632552331
  endloop
endfacet
facet normal 6.136694762554655e-05 -1.0779355927214356e-05 -0.9999999980589517
  outer loop
    vertex 49.88663906513165 -54.267285147221905 114.18715627286551
    vertex 75.19941048791296 -47.917658272763084 114.18852632552331
    vertex 63.71701553250819 -54.27374607716647 114.18778040249735
  endloop
endfacet
facet normal -5.899900022778786e-05 1.5950606495313326e-06 0.9999999982582869
  outer loop
    vertex 49.88325891327462 -54.27357354050476 148.06592295930847
    vertex 75.19924011411985 -45.693537250613055 148.06733220501542
    vertex 49.883337139118865 -45.69346828190393 148.06581664436519
  endloop
endfacet
facet normal -5.899900022778786e-05 1.5950606495313326e-06 0.9999999982582869
  outer loop
    vertex 75.19924011411985 -45.693537250613055 148.06733220501542
    vertex 49.88325891327462 -54.27357354050476 148.06592295930847
    vertex 75.19923582179742 -47.91706699177954 148.0673283829201
  endloop
endfacet
facet normal -5.899900022778786e-05 1.5950606495313326e-06 0.9999999982582869
  outer loop
    vertex 75.19923582179742 -47.91706699177954 148.0673283829201
    vertex 49.88325891327462 -54.27357354050476 148.06592295930847
    vertex 63.714821310741364 -54.27372621563879 148.06658232869808
  endloop
endfacet
facet normal 0.4841879662733332 -0.8749640065666942 -2.299677410164839e-05
  outer loop
    vertex 75.19941048791296 -47.917658272763084 114.18852632552331
    vertex 63.71725422449919 -54.26616184081719 124.86402690306049
    vertex 63.71701553250819 -54.27374607716647 114.18778040249735
  endloop
endfacet
facet normal 0.4841879662733332 -0.8749640065666942 -2.299677410164839e-05
  outer loop
    vertex 63.71725422449919 -54.26616184081719 124.86402690306049
    vertex 75.19941048791296 -47.917658272763084 114.18852632552331
    vertex 75.19923582179742 -47.91706699177954 148.0673283829201
  endloop
endfacet
facet normal 0.4841879662733332 -0.8749640065666942 -2.299677410164839e-05
  outer loop
    vertex 63.715949619516074 -54.27380615606517 145.08387833350602
    vertex 75.19923582179742 -47.91706699177954 148.0673283829201
    vertex 63.714821310741364 -54.27372621563879 148.06658232869808
  endloop
endfacet
facet normal 0.4841879662733332 -0.8749640065666942 -2.299677410164839e-05
  outer loop
    vertex 75.19923582179742 -47.91706699177954 148.0673283829201
    vertex 63.715949619516074 -54.27380615606517 145.08387833350602
    vertex 63.71725422449919 -54.26616184081719 124.86402690306049
  endloop
endfacet
facet normal -0.9999999988661236 -1.7115334985273134e-05 -4.443892951233252e-05
  outer loop
    vertex 63.715949619516074 -54.27380615606517 145.08387833350602
    vertex 63.716023553037914 -47.91723063863047 145.08376819646693
    vertex 63.71725422449919 -54.26616184081719 124.86402690306049
  endloop
endfacet
facet normal -0.9999999988661236 -1.7115334985273134e-05 -4.443892951233252e-05
  outer loop
    vertex 63.71725422449919 -54.26616184081719 124.86402690306049
    vertex 63.71602784536088 -45.69370089746415 145.08377201856297
    vertex 63.71690566359817 -45.69263211398748 124.86379078655294
  endloop
endfacet
facet normal -0.9999999988661236 -1.7115334985273134e-05 -4.443892951233252e-05
  outer loop
    vertex 63.71602784536088 -45.69370089746415 145.08377201856297
    vertex 63.71725422449919 -54.26616184081719 124.86402690306049
    vertex 63.716023553037914 -47.91723063863047 145.08376819646693
  endloop
endfacet
facet normal -1.2086187096955368e-05 -0.9999999997891119 1.660423221931634e-05
  outer loop
    vertex 53.283005434418016 -54.273646038907515 145.07982250302638
    vertex 63.714821310741364 -54.27372621563879 148.06658232869808
    vertex 49.88325891327462 -54.27357354050476 148.06592295930847
  endloop
endfacet
facet normal -1.2086187096955368e-05 -0.9999999997891119 1.660423221931634e-05
  outer loop
    vertex 63.714821310741364 -54.27372621563879 148.06658232869808
    vertex 53.283005434418016 -54.273646038907515 145.07982250302638
    vertex 63.715949619516074 -54.27380615606517 145.08387833350602
  endloop
endfacet
facet normal -1.2086187096955368e-05 -0.9999999997891119 1.660423221931634e-05
  outer loop
    vertex 53.28317386468994 -54.27366988160375 141.909209496677
    vertex 49.88325891327462 -54.27357354050476 148.06592295930847
    vertex 49.883128512832606 -54.27371299502612 141.90904265760093
  endloop
endfacet
facet normal -1.2086187096955368e-05 -0.9999999997891119 1.660423221931634e-05
  outer loop
    vertex 49.88325891327462 -54.27357354050476 148.06592295930847
    vertex 53.28317386468994 -54.27366988160375 141.909209496677
    vertex 53.283005434418016 -54.273646038907515 145.07982250302638
  endloop
endfacet
facet normal -0.00026994211809472227 -0.9999998660900834 0.00044153263567050247
  outer loop
    vertex 49.88663906513165 -54.267285147221905 114.18715627286551
    vertex 53.28647213552888 -54.26720522803232 120.2020578258496
    vertex 49.886595692080505 -54.2672886065022 120.20214247493604
  endloop
endfacet
facet normal -0.00026994211809472227 -0.9999998660900834 0.00044153263567050247
  outer loop
    vertex 53.28647213552888 -54.26720522803232 120.2020578258496
    vertex 49.88663906513165 -54.267285147221905 114.18715627286551
    vertex 53.286506270722754 -54.267189254702046 117.13189982271057
  endloop
endfacet
facet normal -0.00026994211809472227 -0.9999998660900834 0.00044153263567050247
  outer loop
    vertex 53.286506270722754 -54.267189254702046 117.13189982271057
    vertex 49.88663906513165 -54.267285147221905 114.18715627286551
    vertex 63.71701553250819 -54.27374607716647 114.18778040249735
  endloop
endfacet
facet normal -0.00026994211809472227 -0.9999998660900834 0.00044153263567050247
  outer loop
    vertex 53.286506270722754 -54.267189254702046 117.13189982271057
    vertex 63.71701553250819 -54.27374607716647 114.18778040249735
    vertex 57.26146278257435 -54.26683723171051 117.13084195967625
  endloop
endfacet
facet normal -0.00026994211809472227 -0.9999998660900834 0.00044153263567050247
  outer loop
    vertex 57.26146278257435 -54.26683723171051 117.13084195967625
    vertex 63.71725422449919 -54.26616184081719 124.86402690306049
    vertex 57.26107437334756 -54.26681514191257 124.86405167753162
  endloop
endfacet
facet normal -0.00026994211809472227 -0.9999998660900834 0.00044153263567050247
  outer loop
    vertex 63.71725422449919 -54.26616184081719 124.86402690306049
    vertex 57.26146278257435 -54.26683723171051 117.13084195967625
    vertex 63.71701553250819 -54.27374607716647 114.18778040249735
  endloop
endfacet
endsolid pedro_robot
