solid pedro_robot
facet normal 0.9999999996296342 2.714815012663254e-05 1.9260823207940916e-06
  outer loop
    vertex 80.62922687520525 -30.664745493478055 148.0672764385931
    vertex 80.62956243460444 -35.39428201490002 114.18835115808822
    vertex 80.62937720282335 -30.66545990507623 114.18773473044777
  endloop
endfacet
facet normal 0.9999999996296342 2.714815012663254e-05 1.9260823207940916e-06
  outer loop
    vertex 80.62956243460444 -35.39428201490002 114.18835115808822
    vertex 80.62922687520525 -30.664745493478055 148.0672764385931
    vertex 80.62941235191991 -35.393675270053 148.06740066623718
  endloop
endfacet
facet normal -3.0500338124783964e-06 1.2321626434890104e-05 0.9999999999194376
  outer loop
    vertex 55.31513357966167 -26.348500362970114 119.20165367958344
    vertex 58.71568022424856 -35.39379908389652 119.20158569449049
    vertex 58.71515017083702 -26.348429464378142 119.20158161424615
  endloop
endfacet
facet normal -3.0500338124783964e-06 1.2321626434890104e-05 0.9999999999194376
  outer loop
    vertex 58.71568022424856 -35.39379908389652 119.20158569449049
    vertex 55.31513357966167 -26.348500362970114 119.20165367958344
    vertex 55.31566363307371 -35.393869982489 119.20165775982642
  endloop
endfacet
facet normal -2.3739268234322213e-05 -9.64171109020211e-06 -0.9999999996717422
  outer loop
    vertex 58.712453789598726 -35.393713906446386 142.90908012769455
    vertex 55.31244147574279 -26.348631204436405 142.90911481616433
    vertex 58.712431943662395 -26.348584884770784 142.90890285125815
  endloop
endfacet
facet normal -2.3739268234322213e-05 -9.64171109020211e-06 -0.9999999996717422
  outer loop
    vertex 55.31244147574279 -26.348631204436405 142.90911481616433
    vertex 58.712453789598726 -35.393713906446386 142.90908012769455
    vertex 55.31247275019239 -35.393774596116685 142.9090258014527
  endloop
endfacet
facet normal -0.9999999998587629 -1.6527933553903455e-05 -3.049849284852549e-06
  outer loop
    vertex 55.3157075496491 -35.393898924340824 114.18673239519782
    vertex 55.31513357966167 -26.348500362970114 119.20165367958344
    vertex 55.31517749623344 -26.34852930482083 114.18672831495486
  endloop
endfacet
facet normal -0.9999999998587629 -1.6527933553903455e-05 -3.049849284852549e-06
  outer loop
    vertex 55.31513357966167 -26.348500362970114 119.20165367958344
    vertex 55.3157075496491 -35.393898924340824 114.18673239519782
    vertex 55.31566363307371 -35.393869982489 119.20165775982642
  endloop
endfacet
facet normal 0.9999999778124781 5.240464924039883e-05 0.00020403136133544735
  outer loop
    vertex 62.29047732229461 -18.323965753936253 146.42902827231336
    vertex 62.29184040266136 -35.393736808848516 145.08023623180253
    vertex 62.29174697354806 -18.323856093027704 145.08000938675727
  endloop
endfacet
facet normal 0.9999999778124781 5.240464924039883e-05 0.00020403136133544735
  outer loop
    vertex 62.29184040266136 -35.393736808848516 145.08023623180253
    vertex 62.29047732229461 -18.323965753936253 146.42902827231336
    vertex 62.29177038313025 -35.39371958264919 146.42733647290194
  endloop
endfacet
facet normal 0.999999999387506 1.6859689981971534e-05 -3.06714692349465e-05
  outer loop
    vertex 58.71242068486143 -26.348477249847313 145.08011660668046
    vertex 58.712453789598726 -35.393713906446386 142.90908012769455
    vertex 58.712431943662395 -26.348584884770784 142.90890285125815
  endloop
endfacet
facet normal 0.999999999387506 1.6859689981971534e-05 -3.06714692349465e-05
  outer loop
    vertex 58.712453789598726 -35.393713906446386 142.90908012769455
    vertex 58.71242068486143 -26.348477249847313 145.08011660668046
    vertex 58.71245754680637 -35.39367587601885 145.08017771007013
  endloop
endfacet
facet normal -3.0761111915970725e-05 -8.312271157119126e-05 0.9999999960721845
  outer loop
    vertex 59.51655227955042 -18.323914404313534 117.13184188918675
    vertex 62.692117280463634 -35.393214436272125 117.13069253948109
    vertex 62.68954871125757 -18.323375436201697 117.13334805445194
  endloop
endfacet
facet normal -3.0761111915970725e-05 -8.312271157119126e-05 0.9999999960721845
  outer loop
    vertex 62.692117280463634 -35.393214436272125 117.13069253948109
    vertex 59.51655227955042 -18.323914404313534 117.13184188918675
    vertex 59.51679122783749 -26.348359669597517 117.131861871338
  endloop
endfacet
facet normal -3.0761111915970725e-05 -8.312271157119126e-05 0.9999999960721845
  outer loop
    vertex 62.692117280463634 -35.393214436272125 117.13069253948109
    vertex 59.51679122783749 -26.348359669597517 117.131861871338
    vertex 58.71533883636983 -26.34838621989406 117.13177604157144
  endloop
endfacet
facet normal -3.0761111915970725e-05 -8.312271157119126e-05 0.9999999960721845
  outer loop
    vertex 62.692117280463634 -35.393214436272125 117.13069253948109
    vertex 58.71533883636983 -26.34838621989406 117.13177604157144
    vertex 58.71586888978381 -35.393755839413494 117.13178012181355
  endloop
endfacet
facet normal -0.9999999988227133 -4.14719294902072e-05 2.5192310246197746e-05
  outer loop
    vertex 55.31265936062561 -35.39362746858518 148.06588972911698
    vertex 55.31244147574279 -26.348631204436405 142.90911481616433
    vertex 55.31247275019239 -35.393774596116685 142.9090258014527
  endloop
endfacet
facet normal -0.9999999988227133 -4.14719294902072e-05 2.5192310246197746e-05
  outer loop
    vertex 55.31244147574279 -26.348631204436405 142.90911481616433
    vertex 55.31265936062561 -35.39362746858518 148.06588972911698
    vertex 55.31242110134209 -26.348427429491423 148.06586163569733
  endloop
endfacet
facet normal 2.6487210513647735e-05 -1.918535448313646e-05 0.999999999465175
  outer loop
    vertex 62.690007853773544 -18.32413050410729 124.86442201185935
    vertex 68.98942707331615 -35.39276623214011 124.86389035809104
    vertex 68.99053198208324 -18.323366957487455 124.86403344827657
  endloop
endfacet
facet normal 2.6487210513647735e-05 -1.918535448313646e-05 0.999999999465175
  outer loop
    vertex 68.98942707331615 -35.39276623214011 124.86389035809104
    vertex 62.690007853773544 -18.32413050410729 124.86442201185935
    vertex 62.69159946476651 -35.39323655462385 124.86390826790873
  endloop
endfacet
facet normal -0.9999998680198114 -0.0005137678587701539 -1.7166663237599738e-06
  outer loop
    vertex 62.691708555852635 -35.392917130570225 120.83724489090837
    vertex 62.68954871125757 -18.323375436201697 117.13334805445194
    vertex 62.692117280463634 -35.393214436272125 117.13069253948109
  endloop
endfacet
facet normal -0.9999998680198114 -0.0005137678587701539 -1.7166663237599738e-06
  outer loop
    vertex 62.68954871125757 -18.323375436201697 117.13334805445194
    vertex 62.691708555852635 -35.392917130570225 120.83724489090837
    vertex 62.690007853773544 -18.32413050410729 124.86442201185935
  endloop
endfacet
facet normal -0.9999998680198114 -0.0005137678587701539 -1.7166663237599738e-06
  outer loop
    vertex 62.690007853773544 -18.32413050410729 124.86442201185935
    vertex 62.691708555852635 -35.392917130570225 120.83724489090837
    vertex 62.69159946476651 -35.39323655462385 124.86390826790873
  endloop
endfacet
facet normal 4.1988348843453105e-05 -1.3861759571616352e-05 -0.9999999990224151
  outer loop
    vertex 62.29184040266136 -35.393736808848516 145.08023623180253
    vertex 59.51371929104509 -18.323934110258314 145.0799543239989
    vertex 62.29174697354806 -18.323856093027704 145.08000938675727
  endloop
endfacet
facet normal 4.1988348843453105e-05 -1.3861759571616352e-05 -0.9999999990224151
  outer loop
    vertex 59.51371929104509 -18.323934110258314 145.0799543239989
    vertex 62.29184040266136 -35.393736808848516 145.08023623180253
    vertex 59.51377585561532 -26.348472578371602 145.08012006391652
  endloop
endfacet
facet normal 4.1988348843453105e-05 -1.3861759571616352e-05 -0.9999999990224151
  outer loop
    vertex 59.51377585561532 -26.348472578371602 145.08012006391652
    vertex 62.29184040266136 -35.393736808848516 145.08023623180253
    vertex 58.71242068486143 -26.348477249847313 145.08011660668046
  endloop
endfacet
facet normal 4.1988348843453105e-05 -1.3861759571616352e-05 -0.9999999990224151
  outer loop
    vertex 58.71242068486143 -26.348477249847313 145.08011660668046
    vertex 62.29184040266136 -35.393736808848516 145.08023623180253
    vertex 58.71245754680637 -35.39367587601885 145.08017771007013
  endloop
endfacet
facet normal -6.148592826363265e-05 5.415609928362332e-06 0.9999999980950759
  outer loop
    vertex 59.51378940345818 -26.34848869665471 148.06604770665086
    vertex 69.1467325728359 -18.324319119060206 148.0665987833723
    vertex 59.51373283888783 -18.323950228541452 148.0658819667332
  endloop
endfacet
facet normal -6.148592826363265e-05 5.415609928362332e-06 0.9999999980950759
  outer loop
    vertex 55.31265936062561 -35.39362746858518 148.06588972911698
    vertex 59.51378940345818 -26.34848869665471 148.06604770665086
    vertex 55.31242110134209 -26.348427429491423 148.06586163569733
  endloop
endfacet
facet normal -6.148592826363265e-05 5.415609928362332e-06 0.9999999980950759
  outer loop
    vertex 59.51378940345818 -26.34848869665471 148.06604770665086
    vertex 55.31265936062561 -35.39362746858518 148.06588972911698
    vertex 80.62922687520525 -30.664745493478055 148.0672764385931
  endloop
endfacet
facet normal -6.148592826363265e-05 5.415609928362332e-06 0.9999999980950759
  outer loop
    vertex 80.62922687520525 -30.664745493478055 148.0672764385931
    vertex 55.31265936062561 -35.39362746858518 148.06588972911698
    vertex 80.62941235191991 -35.393675270053 148.06740066623718
  endloop
endfacet
facet normal -6.148592826363265e-05 5.415609928362332e-06 0.9999999980950759
  outer loop
    vertex 69.1467325728359 -18.324319119060206 148.0665987833723
    vertex 80.62922687520525 -30.664745493478055 148.0672764385931
    vertex 70.73238450214264 -18.323926170349306 148.06674792405025
  endloop
endfacet
facet normal -6.148592826363265e-05 5.415609928362332e-06 0.9999999980950759
  outer loop
    vertex 80.62922687520525 -30.664745493478055 148.0672764385931
    vertex 69.1467325728359 -18.324319119060206 148.0665987833723
    vertex 59.51378940345818 -26.34848869665471 148.06604770665086
  endloop
endfacet
facet normal 0.7801615363069199 0.6255781141484229 1.9124053299601666e-05
  outer loop
    vertex 70.73238450214264 -18.323926170349306 148.06674792405025
    vertex 80.62937720282335 -30.66545990507623 114.18773473044777
    vertex 70.73439226659127 -18.32379433446953 114.18720633159717
  endloop
endfacet
facet normal 0.7801615363069199 0.6255781141484229 1.9124053299601666e-05
  outer loop
    vertex 80.62937720282335 -30.66545990507623 114.18773473044777
    vertex 70.73238450214264 -18.323926170349306 148.06674792405025
    vertex 80.62922687520525 -30.664745493478055 148.0672764385931
  endloop
endfacet
facet normal 8.281677826956961e-06 0.9999999999058229 1.0943863617564215e-05
  outer loop
    vertex 69.14540469373098 -18.32385709365431 146.4309900949005
    vertex 68.99053198208324 -18.323366957487455 124.86403344827657
    vertex 68.98775386873305 -18.32385319263867 146.43097105237726
  endloop
endfacet
facet normal 8.281677826956961e-06 0.9999999999058229 1.0943863617564215e-05
  outer loop
    vertex 68.99053198208324 -18.323366957487455 124.86403344827657
    vertex 69.14540469373098 -18.32385709365431 146.4309900949005
    vertex 69.14818280708121 -18.323370858503104 124.86405249079985
  endloop
endfacet
facet normal 8.281677826956961e-06 0.9999999999058229 1.0943863617564215e-05
  outer loop
    vertex 69.14818280708121 -18.323370858503104 124.86405249079985
    vertex 69.14540469373098 -18.32385709365431 146.4309900949005
    vertex 69.1467325728359 -18.324319119060206 148.0665987833723
  endloop
endfacet
facet normal 8.281677826956961e-06 0.9999999999058229 1.0943863617564215e-05
  outer loop
    vertex 69.14818280708121 -18.323370858503104 124.86405249079985
    vertex 69.1467325728359 -18.324319119060206 148.0665987833723
    vertex 70.73238450214264 -18.323926170349306 148.06674792405025
  endloop
endfacet
facet normal 8.281677826956961e-06 0.9999999999058229 1.0943863617564215e-05
  outer loop
    vertex 69.14818280708121 -18.323370858503104 124.86405249079985
    vertex 70.73238450214264 -18.323926170349306 148.06674792405025
    vertex 69.14864114437579 -18.32383225105893 114.18711424389912
  endloop
endfacet
facet normal 8.281677826956961e-06 0.9999999999058229 1.0943863617564215e-05
  outer loop
    vertex 69.14864114437579 -18.32383225105893 114.18711424389912
    vertex 70.73238450214264 -18.323926170349306 148.06674792405025
    vertex 70.73439226659127 -18.32379433446953 114.18720633159717
  endloop
endfacet
facet normal 8.281677826956961e-06 0.9999999999058229 1.0943863617564215e-05
  outer loop
    vertex 69.14864114437579 -18.32383225105893 114.18711424389912
    vertex 69.14818246429223 -18.32374278150332 119.2952163893232
    vertex 69.14818280708121 -18.323370858503104 124.86405249079985
  endloop
endfacet
facet normal 8.395156307668675e-06 0.9999999981082558 6.093447232734443e-05
  outer loop
    vertex 69.1467325728359 -18.324319119060206 148.0665987833723
    vertex 62.29047732229461 -18.323965753936253 146.42902827231336
    vertex 59.51373283888783 -18.323950228541452 148.0658819667332
  endloop
endfacet
facet normal 8.395156307668675e-06 0.9999999981082558 6.093447232734443e-05
  outer loop
    vertex 62.29047732229461 -18.323965753936253 146.42902827231336
    vertex 69.1467325728359 -18.324319119060206 148.0665987833723
    vertex 68.98775386873305 -18.32385319263867 146.43097105237726
  endloop
endfacet
facet normal 8.395156307668675e-06 0.9999999981082558 6.093447232734443e-05
  outer loop
    vertex 68.98775386873305 -18.32385319263867 146.43097105237726
    vertex 69.1467325728359 -18.324319119060206 148.0665987833723
    vertex 69.14540469373098 -18.32385709365431 146.4309900949005
  endloop
endfacet
facet normal 8.395156307668675e-06 0.9999999981082558 6.093447232734443e-05
  outer loop
    vertex 59.51373283888783 -18.323950228541452 148.0658819667332
    vertex 62.29174697354806 -18.323856093027704 145.08000938675727
    vertex 59.51371929104509 -18.323934110258314 145.0799543239989
  endloop
endfacet
facet normal 8.395156307668675e-06 0.9999999981082558 6.093447232734443e-05
  outer loop
    vertex 62.29174697354806 -18.323856093027704 145.08000938675727
    vertex 59.51373283888783 -18.323950228541452 148.0658819667332
    vertex 62.29047732229461 -18.323965753936253 146.42902827231336
  endloop
endfacet
facet normal 4.801818649028009e-05 -1.916943217565987e-05 -0.9999999986633933
  outer loop
    vertex 80.62937720282335 -30.66545990507623 114.18773473044777
    vertex 69.14864114437579 -18.32383225105893 114.18711424389912
    vertex 70.73439226659127 -18.32379433446953 114.18720633159717
  endloop
endfacet
facet normal 4.801818649028009e-05 -1.916943217565987e-05 -0.9999999986633933
  outer loop
    vertex 69.14864114437579 -18.32383225105893 114.18711424389912
    vertex 80.62937720282335 -30.66545990507623 114.18773473044777
    vertex 59.51687193960516 -18.323951072496946 114.18689530065748
  endloop
endfacet
facet normal 4.801818649028009e-05 -1.916943217565987e-05 -0.9999999986633933
  outer loop
    vertex 59.51687193960516 -18.323951072496946 114.18689530065748
    vertex 80.62937720282335 -30.66545990507623 114.18773473044777
    vertex 59.51711088789236 -26.348396337780827 114.1869152828087
  endloop
endfacet
facet normal 4.801818649028009e-05 -1.916943217565987e-05 -0.9999999986633933
  outer loop
    vertex 59.51711088789236 -26.348396337780827 114.1869152828087
    vertex 80.62937720282335 -30.66545990507623 114.18773473044777
    vertex 55.31517749623344 -26.34852930482083 114.18672831495486
  endloop
endfacet
facet normal 4.801818649028009e-05 -1.916943217565987e-05 -0.9999999986633933
  outer loop
    vertex 55.31517749623344 -26.34852930482083 114.18672831495486
    vertex 80.62937720282335 -30.66545990507623 114.18773473044777
    vertex 55.3157075496491 -35.393898924340824 114.18673239519782
  endloop
endfacet
facet normal 4.801818649028009e-05 -1.916943217565987e-05 -0.9999999986633933
  outer loop
    vertex 55.3157075496491 -35.393898924340824 114.18673239519782
    vertex 80.62937720282335 -30.66545990507623 114.18773473044777
    vertex 80.62956243460444 -35.39428201490002 114.18835115808822
  endloop
endfacet
facet normal -3.337057917368538e-05 0.9999999994315878 4.819654602199989e-06
  outer loop
    vertex 69.14818280708121 -18.323370858503104 124.86405249079985
    vertex 69.14818246429223 -18.32374278150332 119.2952163893232
    vertex 68.99053198208324 -18.323366957487455 124.86403344827657
  endloop
endfacet
facet normal -3.337057917368538e-05 0.9999999994315878 4.819654602199989e-06
  outer loop
    vertex 62.68954871125757 -18.323375436201697 117.13334805445194
    vertex 59.51687193960516 -18.323951072496946 114.18689530065748
    vertex 59.51655227955042 -18.323914404313534 117.13184188918675
  endloop
endfacet
facet normal -3.337057917368538e-05 0.9999999994315878 4.819654602199989e-06
  outer loop
    vertex 59.51687193960516 -18.323951072496946 114.18689530065748
    vertex 62.68954871125757 -18.323375436201697 117.13334805445194
    vertex 69.14864114437579 -18.32383225105893 114.18711424389912
  endloop
endfacet
facet normal -3.337057917368538e-05 0.9999999994315878 4.819654602199989e-06
  outer loop
    vertex 69.14864114437579 -18.32383225105893 114.18711424389912
    vertex 62.68954871125757 -18.323375436201697 117.13334805445194
    vertex 62.690007853773544 -18.32413050410729 124.86442201185935
  endloop
endfacet
facet normal -3.337057917368538e-05 0.9999999994315878 4.819654602199989e-06
  outer loop
    vertex 69.14864114437579 -18.32383225105893 114.18711424389912
    vertex 62.690007853773544 -18.32413050410729 124.86442201185935
    vertex 68.99053198208324 -18.323366957487455 124.86403344827657
  endloop
endfacet
facet normal -3.337057917368538e-05 0.9999999994315878 4.819654602199989e-06
  outer loop
    vertex 69.14864114437579 -18.32383225105893 114.18711424389912
    vertex 68.99053198208324 -18.323366957487455 124.86403344827657
    vertex 69.14818246429223 -18.32374278150332 119.2952163893232
  endloop
endfacet
facet normal -2.9777545882894104e-05 0.9999999995535485 -2.49015979101642e-06
  outer loop
    vertex 58.71515017083702 -26.348429464378142 119.20158161424615
    vertex 55.31517749623344 -26.34852930482083 114.18672831495486
    vertex 55.31513357966167 -26.348500362970114 119.20165367958344
  endloop
endfacet
facet normal -2.9777545882894104e-05 0.9999999995535485 -2.49015979101642e-06
  outer loop
    vertex 55.31517749623344 -26.34852930482083 114.18672831495486
    vertex 58.71515017083702 -26.348429464378142 119.20158161424615
    vertex 58.71533883636983 -26.34838621989406 117.13177604157144
  endloop
endfacet
facet normal -2.9777545882894104e-05 0.9999999995535485 -2.49015979101642e-06
  outer loop
    vertex 55.31517749623344 -26.34852930482083 114.18672831495486
    vertex 58.71533883636983 -26.34838621989406 117.13177604157144
    vertex 59.51711088789236 -26.348396337780827 114.1869152828087
  endloop
endfacet
facet normal -2.9777545882894104e-05 0.9999999995535485 -2.49015979101642e-06
  outer loop
    vertex 59.51711088789236 -26.348396337780827 114.1869152828087
    vertex 58.71533883636983 -26.34838621989406 117.13177604157144
    vertex 59.51679122783749 -26.348359669597517 117.131861871338
  endloop
endfacet
facet normal -0.9999999944191059 -2.9777798147604e-05 -0.00010136602544879821
  outer loop
    vertex 59.51711088789236 -26.348396337780827 114.1869152828087
    vertex 59.51655227955042 -18.323914404313534 117.13184188918675
    vertex 59.51687193960516 -18.323951072496946 114.18689530065748
  endloop
endfacet
facet normal -0.9999999944191059 -2.9777798147604e-05 -0.00010136602544879821
  outer loop
    vertex 59.51655227955042 -18.323914404313534 117.13184188918675
    vertex 59.51711088789236 -26.348396337780827 114.1869152828087
    vertex 59.51679122783749 -26.348359669597517 117.131861871338
  endloop
endfacet
facet normal -1.0483497955391438e-05 0.9999999996770215 -2.3152831541442597e-05
  outer loop
    vertex 59.51378940345818 -26.34848869665471 148.06604770665086
    vertex 55.31244147574279 -26.348631204436405 142.90911481616433
    vertex 55.31242110134209 -26.348427429491423 148.06586163569733
  endloop
endfacet
facet normal -1.0483497955391438e-05 0.9999999996770215 -2.3152831541442597e-05
  outer loop
    vertex 55.31244147574279 -26.348631204436405 142.90911481616433
    vertex 59.51378940345818 -26.34848869665471 148.06604770665086
    vertex 58.71242068486143 -26.348477249847313 145.08011660668046
  endloop
endfacet
facet normal -1.0483497955391438e-05 0.9999999996770215 -2.3152831541442597e-05
  outer loop
    vertex 58.71242068486143 -26.348477249847313 145.08011660668046
    vertex 59.51378940345818 -26.34848869665471 148.06604770665086
    vertex 59.51377585561532 -26.348472578371602 145.08012006391652
  endloop
endfacet
facet normal -1.0483497955391438e-05 0.9999999996770215 -2.3152831541442597e-05
  outer loop
    vertex 58.712431943662395 -26.348584884770784 142.90890285125815
    vertex 55.31244147574279 -26.348631204436405 142.90911481616433
    vertex 58.71242068486143 -26.348477249847313 145.08011660668046
  endloop
endfacet
facet normal 0.9999999967652548 1.652872447207882e-05 7.871652816214565e-05
  outer loop
    vertex 58.71515017083702 -26.348429464378142 119.20158161424615
    vertex 58.71586888978381 -35.393755839413494 117.13178012181355
    vertex 58.71533883636983 -26.34838621989406 117.13177604157144
  endloop
endfacet
facet normal 0.9999999967652548 1.652872447207882e-05 7.871652816214565e-05
  outer loop
    vertex 58.71586888978381 -35.393755839413494 117.13178012181355
    vertex 58.71515017083702 -26.348429464378142 119.20158161424615
    vertex 58.71568022424856 -35.39379908389652 119.20158569449049
  endloop
endfacet
facet normal -0.9999999999750565 -7.04895919851004e-06 -4.4625441380791547e-07
  outer loop
    vertex 59.51377585561532 -26.348472578371602 145.08012006391652
    vertex 59.51373283888783 -18.323950228541452 148.0658819667332
    vertex 59.51371929104509 -18.323934110258314 145.0799543239989
  endloop
endfacet
facet normal -0.9999999999750565 -7.04895919851004e-06 -4.4625441380791547e-07
  outer loop
    vertex 59.51373283888783 -18.323950228541452 148.0658819667332
    vertex 59.51377585561532 -26.348472578371602 145.08012006391652
    vertex 59.51378940345818 -26.34848869665471 148.06604770665086
  endloop
endfacet
facet normal 0.0004335333802416094 3.963769616520788e-05 -0.9999999052388262
  outer loop
    vertex 68.98769106382366 -35.39384194233842 146.43131920667514
    vertex 62.29047732229461 -18.323965753936253 146.42902827231336
    vertex 68.98775386873305 -18.32385319263867 146.43097105237726
  endloop
endfacet
facet normal 0.0004335333802416094 3.963769616520788e-05 -0.9999999052388262
  outer loop
    vertex 62.29047732229461 -18.323965753936253 146.42902827231336
    vertex 68.98769106382366 -35.39384194233842 146.43131920667514
    vertex 62.29177038313025 -35.39371958264919 146.42733647290194
  endloop
endfacet
facet normal -0.999999992398831 2.4744657110524287e-05 -0.00012078923841112331
  outer loop
    vertex 68.98769106382366 -35.39384194233842 146.43131920667514
    vertex 68.99053198208324 -18.323366957487455 124.86403344827657
    vertex 68.98942707331615 -35.39276623214011 124.86389035809104
  endloop
endfacet
facet normal -0.999999992398831 2.4744657110524287e-05 -0.00012078923841112331
  outer loop
    vertex 68.99053198208324 -18.323366957487455 124.86403344827657
    vertex 68.98769106382366 -35.39384194233842 146.43131920667514
    vertex 68.98775386873305 -18.32385319263867 146.43097105237726
  endloop
endfacet
facet normal -9.909509315824663e-07 -0.9999999999944764 -3.1726044345504237e-06
  outer loop
    vertex 62.29184040266136 -35.393736808848516 145.08023623180253
    vertex 62.29177038313025 -35.39371958264919 146.42733647290194
    vertex 58.71245754680637 -35.39367587601885 145.08017771007013
  endloop
endfacet
facet normal -9.909509315824663e-07 -0.9999999999944764 -3.1726044345504237e-06
  outer loop
    vertex 55.3157075496491 -35.393898924340824 114.18673239519782
    vertex 58.71568022424856 -35.39379908389652 119.20158569449049
    vertex 55.31566363307371 -35.393869982489 119.20165775982642
  endloop
endfacet
facet normal -9.909509315824663e-07 -0.9999999999944764 -3.1726044345504237e-06
  outer loop
    vertex 58.71568022424856 -35.39379908389652 119.20158569449049
    vertex 55.3157075496491 -35.393898924340824 114.18673239519782
    vertex 58.71586888978381 -35.393755839413494 117.13178012181355
  endloop
endfacet
facet normal -9.909509315824663e-07 -0.9999999999944764 -3.1726044345504237e-06
  outer loop
    vertex 58.71586888978381 -35.393755839413494 117.13178012181355
    vertex 55.3157075496491 -35.393898924340824 114.18673239519782
    vertex 80.62956243460444 -35.39428201490002 114.18835115808822
  endloop
endfacet
facet normal -9.909509315824663e-07 -0.9999999999944764 -3.1726044345504237e-06
  outer loop
    vertex 58.71586888978381 -35.393755839413494 117.13178012181355
    vertex 80.62956243460444 -35.39428201490002 114.18835115808822
    vertex 62.692117280463634 -35.393214436272125 117.13069253948109
  endloop
endfacet
facet normal -9.909509315824663e-07 -0.9999999999944764 -3.1726044345504237e-06
  outer loop
    vertex 62.692117280463634 -35.393214436272125 117.13069253948109
    vertex 80.62956243460444 -35.39428201490002 114.18835115808822
    vertex 68.98942707331615 -35.39276623214011 124.86389035809104
  endloop
endfacet
facet normal -9.909509315824663e-07 -0.9999999999944764 -3.1726044345504237e-06
  outer loop
    vertex 68.98942707331615 -35.39276623214011 124.86389035809104
    vertex 80.62956243460444 -35.39428201490002 114.18835115808822
    vertex 80.62941235191991 -35.393675270053 148.06740066623718
  endloop
endfacet
facet normal -9.909509315824663e-07 -0.9999999999944764 -3.1726044345504237e-06
  outer loop
    vertex 58.712453789598726 -35.393713906446386 142.90908012769455
    vertex 55.31265936062561 -35.39362746858518 148.06588972911698
    vertex 55.31247275019239 -35.393774596116685 142.9090258014527
  endloop
endfacet
facet normal -9.909509315824663e-07 -0.9999999999944764 -3.1726044345504237e-06
  outer loop
    vertex 55.31265936062561 -35.39362746858518 148.06588972911698
    vertex 58.712453789598726 -35.393713906446386 142.90908012769455
    vertex 58.71245754680637 -35.39367587601885 145.08017771007013
  endloop
endfacet
facet normal -9.909509315824663e-07 -0.9999999999944764 -3.1726044345504237e-06
  outer loop
    vertex 55.31265936062561 -35.39362746858518 148.06588972911698
    vertex 58.71245754680637 -35.39367587601885 145.08017771007013
    vertex 62.29177038313025 -35.39371958264919 146.42733647290194
  endloop
endfacet
facet normal -9.909509315824663e-07 -0.9999999999944764 -3.1726044345504237e-06
  outer loop
    vertex 55.31265936062561 -35.39362746858518 148.06588972911698
    vertex 62.29177038313025 -35.39371958264919 146.42733647290194
    vertex 80.62941235191991 -35.393675270053 148.06740066623718
  endloop
endfacet
facet normal -9.909509315824663e-07 -0.9999999999944764 -3.1726044345504237e-06
  outer loop
    vertex 80.62941235191991 -35.393675270053 148.06740066623718
    vertex 62.29177038313025 -35.39371958264919 146.42733647290194
    vertex 68.98769106382366 -35.39384194233842 146.43131920667514
  endloop
endfacet
facet normal -9.909509315824663e-07 -0.9999999999944764 -3.1726044345504237e-06
  outer loop
    vertex 80.62941235191991 -35.393675270053 148.06740066623718
    vertex 68.98769106382366 -35.39384194233842 146.43131920667514
    vertex 68.98942707331615 -35.39276623214011 124.86389035809104
  endloop
endfacet
facet normal -9.909509315824663e-07 -0.9999999999944764 -3.1726044345504237e-06
  outer loop
    vertex 62.691708555852635 -35.392917130570225 120.83724489090837
    vertex 68.98942707331615 -35.39276623214011 124.86389035809104
    vertex 62.69159946476651 -35.39323655462385 124.86390826790873
  endloop
endfacet
facet normal -9.909509315824663e-07 -0.9999999999944764 -3.1726044345504237e-06
  outer loop
    vertex 68.98942707331615 -35.39276623214011 124.86389035809104
    vertex 62.691708555852635 -35.392917130570225 120.83724489090837
    vertex 62.692117280463634 -35.393214436272125 117.13069253948109
  endloop
endfacet
facet normal 1.3483609525098398e-15 -0.9574378188771844 -0.2886396074410093
  outer loop
    vertex 70.14577479312342 -34.35445592043854 146.81546015630067
    vertex 59.51372697451969 -34.35445592043853 146.81546015630053
    vertex 70.14577479312335 -33.73206502078035 145.39909793630065
  endloop
endfacet
facet normal 1.3483609525098398e-15 -0.9574378188771844 -0.2886396074410093
  outer loop
    vertex 59.51372697451967 -33.73206502078033 145.3990979363005
    vertex 70.14577479312335 -33.73206502078035 145.39909793630065
    vertex 59.51372697451969 -34.35445592043853 146.81546015630053
  endloop
endfacet
facet normal 2.0381591858264254e-15 -4.8736523314941506e-14 -1.0
  outer loop
    vertex 59.51372697451967 -33.73206502078033 145.3990979363005
    vertex 59.51372697451967 -33.26477681277252 145.3990979363005
    vertex 70.14577479312335 -33.73206502078035 145.39909793630065
  endloop
endfacet
facet normal 2.0381591858264254e-15 -4.8736523314941506e-14 -1.0
  outer loop
    vertex 70.14577479312335 -33.26477681277252 145.39909793630068
    vertex 70.14577479312335 -33.73206502078035 145.39909793630065
    vertex 59.51372697451967 -33.26477681277252 145.3990979363005
  endloop
endfacet
facet normal -1.1222446303752665e-15 0.9574378188771842 -0.2886396074410101
  outer loop
    vertex 70.14577479312342 -32.64238591311433 146.81546015630073
    vertex 70.14577479312335 -33.26477681277252 145.39909793630068
    vertex 59.51372697451969 -32.64238591311433 146.81546015630053
  endloop
endfacet
facet normal -1.1222446303752665e-15 0.9574378188771842 -0.2886396074410101
  outer loop
    vertex 59.51372697451967 -33.26477681277252 145.3990979363005
    vertex 59.51372697451969 -32.64238591311433 146.81546015630053
    vertex 70.14577479312335 -33.26477681277252 145.39909793630068
  endloop
endfacet
facet normal -6.1697963514403654e-15 -3.259208626949397e-15 -1.0
  outer loop
    vertex 59.51372697451969 -32.64238591311433 146.81546015630053
    vertex 59.51372697451969 -31.96805348513582 146.81546015630053
    vertex 70.14577479312342 -32.64238591311433 146.81546015630073
  endloop
endfacet
facet normal -6.1697963514403654e-15 -3.259208626949397e-15 -1.0
  outer loop
    vertex 70.14577479312342 -31.96805348513582 146.81546015630073
    vertex 70.14577479312342 -32.64238591311433 146.81546015630073
    vertex 59.51372697451969 -31.96805348513582 146.81546015630053
  endloop
endfacet
facet normal -1.192013281791731e-15 -0.9574381904398797 -0.2886383749386223
  outer loop
    vertex 70.14577479312342 -31.96805348513582 146.81546015630073
    vertex 59.51372697451969 -31.96805348513582 146.81546015630053
    vertex 70.14577479312335 -31.345665484647533 145.39909793630068
  endloop
endfacet
facet normal -1.192013281791731e-15 -0.9574381904398797 -0.2886383749386223
  outer loop
    vertex 59.51372697451967 -31.345665484647533 145.3990979363005
    vertex 70.14577479312335 -31.345665484647533 145.39909793630068
    vertex 59.51372697451969 -31.96805348513582 146.81546015630053
  endloop
endfacet
facet normal -1.899227072698056e-15 -8.443864206825877e-16 -1.0
  outer loop
    vertex 59.51372697451967 -31.345665484647533 145.3990979363005
    vertex 59.51372697451967 -30.878374377469804 145.3990979363005
    vertex 70.14577479312335 -31.345665484647533 145.39909793630068
  endloop
endfacet
facet normal -1.899227072698056e-15 -8.443864206825877e-16 -1.0
  outer loop
    vertex 70.14577479312335 -30.87837437746982 145.39909793630068
    vertex 70.14577479312335 -31.345665484647533 145.39909793630068
    vertex 59.51372697451967 -30.878374377469804 145.3990979363005
  endloop
endfacet
facet normal -1.1173981857994613e-15 0.9574381904398815 -0.2886383749386158
  outer loop
    vertex 70.14577479312342 -30.25598637698153 146.81546015630073
    vertex 70.14577479312335 -30.87837437746982 145.39909793630068
    vertex 59.51372697451969 -30.25598637698153 146.81546015630053
  endloop
endfacet
facet normal -1.1173981857994613e-15 0.9574381904398815 -0.2886383749386158
  outer loop
    vertex 59.51372697451967 -30.878374377469804 145.3990979363005
    vertex 59.51372697451969 -30.25598637698153 146.81546015630053
    vertex 70.14577479312335 -30.87837437746982 145.39909793630068
  endloop
endfacet
facet normal -6.1697963514403654e-15 -3.2592190090839174e-15 -1.0
  outer loop
    vertex 59.51372697451969 -30.25598637698153 146.81546015630053
    vertex 59.51372697451969 -29.581656848172916 146.81546015630053
    vertex 70.14577479312342 -30.25598637698153 146.81546015630073
  endloop
endfacet
facet normal -6.1697963514403654e-15 -3.2592190090839174e-15 -1.0
  outer loop
    vertex 70.14577479312342 -29.58165684817293 146.81546015630073
    vertex 70.14577479312342 -30.25598637698153 146.81546015630073
    vertex 59.51372697451969 -29.581656848172916 146.81546015630053
  endloop
endfacet
facet normal -1.1864053931381371e-15 -0.9574378188771845 -0.2886396074410089
  outer loop
    vertex 70.14577479312342 -29.58165684817293 146.81546015630073
    vertex 59.51372697451969 -29.581656848172916 146.81546015630053
    vertex 70.14577479312335 -28.95926594851452 145.39909793630068
  endloop
endfacet
facet normal -1.1864053931381371e-15 -0.9574378188771845 -0.2886396074410089
  outer loop
    vertex 59.51372697451967 -28.95926594851452 145.3990979363005
    vertex 70.14577479312335 -28.95926594851452 145.39909793630068
    vertex 59.51372697451969 -29.581656848172916 146.81546015630053
  endloop
endfacet
facet normal -1.899227072698056e-15 -8.443864206825877e-16 -1.0
  outer loop
    vertex 59.51372697451967 -28.95926594851452 145.3990979363005
    vertex 59.51372697451967 -28.491977740506737 145.3990979363005
    vertex 70.14577479312335 -28.95926594851452 145.39909793630068
  endloop
endfacet
facet normal -1.899227072698056e-15 -8.443864206825877e-16 -1.0
  outer loop
    vertex 70.14577479312335 -28.491977740506737 145.39909793630068
    vertex 70.14577479312335 -28.95926594851452 145.39909793630068
    vertex 59.51372697451967 -28.491977740506737 145.3990979363005
  endloop
endfacet
facet normal -1.1222467483952434e-15 0.9574374473131905 -0.28864083994196243
  outer loop
    vertex 70.14577479312342 -27.8695839416786 146.81546015630073
    vertex 70.14577479312335 -28.491977740506737 145.39909793630068
    vertex 59.51372697451969 -27.869583941678567 146.81546015630053
  endloop
endfacet
facet normal -1.1222467483952434e-15 0.9574374473131905 -0.28864083994196243
  outer loop
    vertex 59.51372697451967 -28.491977740506737 145.3990979363005
    vertex 59.51372697451969 -27.869583941678567 146.81546015630053
    vertex 70.14577479312335 -28.491977740506737 145.39909793630068
  endloop
endfacet
facet normal -6.1697963514403654e-15 -3.2592190090839174e-15 -1.0
  outer loop
    vertex 59.51372697451969 -27.869583941678567 146.81546015630053
    vertex 59.51372697451969 -27.195254412870074 146.81546015630053
    vertex 70.14577479312342 -27.8695839416786 146.81546015630073
  endloop
endfacet
facet normal -6.1697963514403654e-15 -3.2592190090839174e-15 -1.0
  outer loop
    vertex 70.14577479312342 -27.195254412870074 146.81546015630073
    vertex 70.14577479312342 -27.8695839416786 146.81546015630073
    vertex 59.51372697451969 -27.195254412870074 146.81546015630053
  endloop
endfacet
facet normal -1.1836013946729212e-15 -0.9574374473131905 -0.28864083994196194
  outer loop
    vertex 70.14577479312342 -27.195254412870074 146.81546015630073
    vertex 59.51372697451969 -27.195254412870074 146.81546015630053
    vertex 70.14577479312335 -26.57286061404181 145.39909793630068
  endloop
endfacet
facet normal -1.1836013946729212e-15 -0.9574374473131905 -0.28864083994196194
  outer loop
    vertex 59.51372697451967 -26.57286061404181 145.3990979363004
    vertex 70.14577479312335 -26.57286061404181 145.39909793630068
    vertex 59.51372697451969 -27.195254412870074 146.81546015630053
  endloop
endfacet
facet normal -1.899227072698056e-15 -8.443864206825877e-16 -1.0
  outer loop
    vertex 59.51372697451967 -26.57286061404181 145.3990979363004
    vertex 59.51372697451967 -26.105578204373874 145.3990979363004
    vertex 70.14577479312335 -26.57286061404181 145.39909793630068
  endloop
endfacet
facet normal -1.899227072698056e-15 -8.443864206825877e-16 -1.0
  outer loop
    vertex 70.14577479312335 -26.10557820437391 145.39909793630068
    vertex 70.14577479312335 -26.57286061404181 145.39909793630068
    vertex 59.51372697451967 -26.105578204373874 145.3990979363004
  endloop
endfacet
facet normal -1.1222467483952434e-15 0.9574374473131905 -0.28864083994196243
  outer loop
    vertex 70.14577479312342 -25.483184405545796 146.81546015630073
    vertex 70.14577479312335 -26.10557820437391 145.39909793630068
    vertex 59.51372697451969 -25.48318440554577 146.81546015630053
  endloop
endfacet
facet normal -1.1222467483952434e-15 0.9574374473131905 -0.28864083994196243
  outer loop
    vertex 59.51372697451967 -26.105578204373874 145.3990979363004
    vertex 59.51372697451969 -25.48318440554577 146.81546015630053
    vertex 70.14577479312335 -26.10557820437391 145.39909793630068
  endloop
endfacet
facet normal -1.5660440524802307e-15 -2.6636044740573448e-14 -1.0
  outer loop
    vertex 59.51372697451969 -25.48318440554577 146.81546015630053
    vertex 59.51372697451969 -24.808854876737122 146.81546015630053
    vertex 70.14577479312342 -25.483184405545796 146.81546015630073
  endloop
endfacet
facet normal -1.5660440524802307e-15 -2.6636044740573448e-14 -1.0
  outer loop
    vertex 70.14577479312342 -24.808854876737122 146.81546015630073
    vertex 70.14577479312342 -25.483184405545796 146.81546015630073
    vertex 59.51372697451969 -24.808854876737122 146.81546015630053
  endloop
endfacet
facet normal 1.3572705919174814e-15 -0.9574381904398797 -0.2886383749386223
  outer loop
    vertex 70.14577479312342 -24.808854876737122 146.81546015630073
    vertex 59.51372697451969 -24.808854876737122 146.81546015630053
    vertex 70.14577479312335 -24.186466876248886 145.39909793630068
  endloop
endfacet
facet normal 1.3572705919174814e-15 -0.9574381904398797 -0.2886383749386223
  outer loop
    vertex 59.51372697451967 -24.186466876248886 145.39909793630036
    vertex 70.14577479312335 -24.186466876248886 145.39909793630068
    vertex 59.51372697451969 -24.808854876737122 146.81546015630053
  endloop
endfacet
facet normal 2.5723286721062748e-14 2.397266415449696e-13 -1.0
  outer loop
    vertex 59.51372697451967 -24.186466876248886 145.39909793630036
    vertex 59.51372697451967 -23.719172869901225 145.39909793630036
    vertex 70.14577479312335 -24.186466876248886 145.39909793630068
  endloop
endfacet
facet normal 2.5723286721062748e-14 2.397266415449696e-13 -1.0
  outer loop
    vertex 70.14577479312335 -23.71917286990126 145.39909793630088
    vertex 70.14577479312335 -24.186466876248886 145.39909793630068
    vertex 59.51372697451967 -23.719172869901225 145.39909793630036
  endloop
endfacet
facet normal 9.607940801015849e-15 0.9574381904398813 -0.2886383749386171
  outer loop
    vertex 70.14577479312342 -23.096784869413035 146.81546015630082
    vertex 70.14577479312335 -23.71917286990126 145.39909793630088
    vertex 59.51372697451969 -23.096784869413035 146.81546015630053
  endloop
endfacet
facet normal 9.607940801015849e-15 0.9574381904398813 -0.2886383749386171
  outer loop
    vertex 59.51372697451967 -23.719172869901225 145.39909793630036
    vertex 59.51372697451969 -23.096784869413035 146.81546015630053
    vertex 70.14577479312335 -23.71917286990126 145.39909793630088
  endloop
endfacet
facet normal 3.2931693197676056e-14 2.828487542801489e-14 -1.0
  outer loop
    vertex 59.51372697451969 -23.096784869413035 146.81546015630053
    vertex 59.51372697451969 -22.42244954226452 146.81546015630056
    vertex 70.14577479312342 -23.096784869413035 146.81546015630082
  endloop
endfacet
facet normal 3.2931693197676056e-14 2.828487542801489e-14 -1.0
  outer loop
    vertex 70.14577479312342 -22.42244954226452 146.81546015630082
    vertex 70.14577479312342 -23.096784869413035 146.81546015630082
    vertex 59.51372697451969 -22.42244954226452 146.81546015630056
  endloop
endfacet
facet normal 1.1308217454575248e-14 -0.9574389335613789 -0.2886359099295331
  outer loop
    vertex 70.14577479312342 -22.42244954226452 146.81546015630082
    vertex 59.51372697451969 -22.42244954226452 146.81546015630056
    vertex 70.14577479312335 -21.800067340116094 145.39909793630088
  endloop
endfacet
facet normal 1.1308217454575248e-14 -0.9574389335613789 -0.2886359099295331
  outer loop
    vertex 59.51372697451967 -21.800067340116094 145.39909793630045
    vertex 70.14577479312335 -21.800067340116094 145.39909793630088
    vertex 59.51372697451969 -22.42244954226452 146.81546015630056
  endloop
endfacet
facet normal 4.147283175516067e-14 4.8160471014346386e-14 -1.0
  outer loop
    vertex 59.51372697451967 -21.800067340116094 145.39909793630045
    vertex 59.51372697451967 -21.33277333376841 145.39909793630048
    vertex 70.14577479312335 -21.800067340116094 145.39909793630088
  endloop
endfacet
facet normal 4.147283175516067e-14 4.8160471014346386e-14 -1.0
  outer loop
    vertex 70.14577479312335 -21.33277333376841 145.39909793630088
    vertex 70.14577479312335 -21.800067340116094 145.39909793630088
    vertex 59.51372697451967 -21.33277333376841 145.39909793630048
  endloop
endfacet
facet normal 8.337783596604428e-15 0.9574381904398946 -0.2886383749385727
  outer loop
    vertex 70.14577479312342 -20.710385333280254 146.81546015630084
    vertex 70.14577479312335 -21.33277333376841 145.39909793630088
    vertex 59.51372697451969 -20.710385333280254 146.81546015630056
  endloop
endfacet
facet normal 8.337783596604428e-15 0.9574381904398946 -0.2886383749385727
  outer loop
    vertex 59.51372697451967 -21.33277333376841 145.39909793630048
    vertex 59.51372697451969 -20.710385333280254 146.81546015630056
    vertex 70.14577479312335 -21.33277333376841 145.39909793630088
  endloop
endfacet
facet normal 1.6392317303233187e-29 -1.0 -1.801796802737119e-15
  outer loop
    vertex 70.14577479312328 -34.354455920438504 148.0661633316647
    vertex 59.51372697451959 -34.35445592043848 148.0661633316644
    vertex 70.14577479312342 -34.35445592043854 146.81546015630067
  endloop
endfacet
facet normal 1.6392317303233187e-29 -1.0 -1.801796802737119e-15
  outer loop
    vertex 59.51372697451969 -34.35445592043853 146.81546015630053
    vertex 70.14577479312342 -34.35445592043854 146.81546015630067
    vertex 59.51372697451959 -34.35445592043848 148.0661633316644
  endloop
endfacet
facet normal 1.0 3.6151285224107614e-16 1.2963598411511578e-15
  outer loop
    vertex 70.14577479312342 -34.35445592043854 146.81546015630067
    vertex 70.14577479312335 -33.73206502078035 145.39909793630065
    vertex 70.14577479312328 -34.354455920438504 148.0661633316647
  endloop
endfacet
facet normal 1.0 3.6151285224107614e-16 1.2963598411511578e-15
  outer loop
    vertex 70.14577479312342 -32.64238591311433 146.81546015630073
    vertex 70.14577479312328 -34.354455920438504 148.0661633316647
    vertex 70.14577479312335 -33.73206502078035 145.39909793630065
  endloop
endfacet
facet normal 1.0 3.6151285224107614e-16 1.2963598411511578e-15
  outer loop
    vertex 70.14577479312328 -18.323985797147415 148.0661633316648
    vertex 70.14577479312328 -34.354455920438504 148.0661633316647
    vertex 70.14577479312342 -32.64238591311433 146.81546015630073
  endloop
endfacet
facet normal 1.0 3.6151285224107614e-16 1.2963598411511578e-15
  outer loop
    vertex 70.14577479312335 -33.26477681277252 145.39909793630068
    vertex 70.14577479312342 -32.64238591311433 146.81546015630073
    vertex 70.14577479312335 -33.73206502078035 145.39909793630065
  endloop
endfacet
facet normal 1.0 3.6151285224107614e-16 1.2963598411511578e-15
  outer loop
    vertex 70.14577479312342 -31.96805348513582 146.81546015630073
    vertex 70.14577479312328 -18.323985797147415 148.0661633316648
    vertex 70.14577479312342 -32.64238591311433 146.81546015630073
  endloop
endfacet
facet normal 1.0 3.6151285224107614e-16 1.2963598411511578e-15
  outer loop
    vertex 70.14577479312342 -30.25598637698153 146.81546015630073
    vertex 70.14577479312328 -18.323985797147415 148.0661633316648
    vertex 70.14577479312342 -31.96805348513582 146.81546015630073
  endloop
endfacet
facet normal 1.0 3.6151285224107614e-16 1.2963598411511578e-15
  outer loop
    vertex 70.14577479312335 -31.345665484647533 145.39909793630068
    vertex 70.14577479312342 -30.25598637698153 146.81546015630073
    vertex 70.14577479312342 -31.96805348513582 146.81546015630073
  endloop
endfacet
facet normal 1.0 3.6151285224107614e-16 1.2963598411511578e-15
  outer loop
    vertex 70.14577479312335 -30.87837437746982 145.39909793630068
    vertex 70.14577479312342 -30.25598637698153 146.81546015630073
    vertex 70.14577479312335 -31.345665484647533 145.39909793630068
  endloop
endfacet
facet normal 1.0 3.6151285224107614e-16 1.2963598411511578e-15
  outer loop
    vertex 70.14577479312342 -29.58165684817293 146.81546015630073
    vertex 70.14577479312328 -18.323985797147415 148.0661633316648
    vertex 70.14577479312342 -30.25598637698153 146.81546015630073
  endloop
endfacet
facet normal 1.0 3.6151285224107614e-16 1.2963598411511578e-15
  outer loop
    vertex 70.14577479312342 -27.8695839416786 146.81546015630073
    vertex 70.14577479312328 -18.323985797147415 148.0661633316648
    vertex 70.14577479312342 -29.58165684817293 146.81546015630073
  endloop
endfacet
facet normal 1.0 3.6151285224107614e-16 1.2963598411511578e-15
  outer loop
    vertex 70.14577479312335 -28.95926594851452 145.39909793630068
    vertex 70.14577479312342 -27.8695839416786 146.81546015630073
    vertex 70.14577479312342 -29.58165684817293 146.81546015630073
  endloop
endfacet
facet normal 1.0 3.6151285224107614e-16 1.2963598411511578e-15
  outer loop
    vertex 70.14577479312335 -28.491977740506737 145.39909793630068
    vertex 70.14577479312342 -27.8695839416786 146.81546015630073
    vertex 70.14577479312335 -28.95926594851452 145.39909793630068
  endloop
endfacet
facet normal 1.0 3.6151285224107614e-16 1.2963598411511578e-15
  outer loop
    vertex 70.14577479312342 -27.195254412870074 146.81546015630073
    vertex 70.14577479312328 -18.323985797147415 148.0661633316648
    vertex 70.14577479312342 -27.8695839416786 146.81546015630073
  endloop
endfacet
facet normal 1.0 3.6151285224107614e-16 1.2963598411511578e-15
  outer loop
    vertex 70.14577479312342 -25.483184405545796 146.81546015630073
    vertex 70.14577479312328 -18.323985797147415 148.0661633316648
    vertex 70.14577479312342 -27.195254412870074 146.81546015630073
  endloop
endfacet
facet normal 1.0 3.6151285224107614e-16 1.2963598411511578e-15
  outer loop
    vertex 70.14577479312335 -26.57286061404181 145.39909793630068
    vertex 70.14577479312342 -25.483184405545796 146.81546015630073
    vertex 70.14577479312342 -27.195254412870074 146.81546015630073
  endloop
endfacet
facet normal 1.0 3.6151285224107614e-16 1.2963598411511578e-15
  outer loop
    vertex 70.14577479312335 -26.10557820437391 145.39909793630068
    vertex 70.14577479312342 -25.483184405545796 146.81546015630073
    vertex 70.14577479312335 -26.57286061404181 145.39909793630068
  endloop
endfacet
facet normal 1.0 3.6151285224107614e-16 1.2963598411511578e-15
  outer loop
    vertex 70.14577479312342 -24.808854876737122 146.81546015630073
    vertex 70.14577479312328 -18.323985797147415 148.0661633316648
    vertex 70.14577479312342 -25.483184405545796 146.81546015630073
  endloop
endfacet
facet normal 1.0 3.6151285224107614e-16 1.2963598411511578e-15
  outer loop
    vertex 70.14577479312342 -23.096784869413035 146.81546015630082
    vertex 70.14577479312328 -18.323985797147415 148.0661633316648
    vertex 70.14577479312342 -24.808854876737122 146.81546015630073
  endloop
endfacet
facet normal 1.0 3.6151285224107614e-16 1.2963598411511578e-15
  outer loop
    vertex 70.14577479312335 -24.186466876248886 145.39909793630068
    vertex 70.14577479312342 -23.096784869413035 146.81546015630082
    vertex 70.14577479312342 -24.808854876737122 146.81546015630073
  endloop
endfacet
facet normal 1.0 3.6151285224107614e-16 1.2963598411511578e-15
  outer loop
    vertex 70.14577479312335 -23.71917286990126 145.39909793630088
    vertex 70.14577479312342 -23.096784869413035 146.81546015630082
    vertex 70.14577479312335 -24.186466876248886 145.39909793630068
  endloop
endfacet
facet normal 1.0 3.6151285224107614e-16 1.2963598411511578e-15
  outer loop
    vertex 70.14577479312342 -22.42244954226452 146.81546015630082
    vertex 70.14577479312328 -18.323985797147415 148.0661633316648
    vertex 70.14577479312342 -23.096784869413035 146.81546015630082
  endloop
endfacet
facet normal 1.0 3.6151285224107614e-16 1.2963598411511578e-15
  outer loop
    vertex 70.14577479312342 -20.710385333280254 146.81546015630084
    vertex 70.14577479312328 -18.323985797147415 148.0661633316648
    vertex 70.14577479312342 -22.42244954226452 146.81546015630082
  endloop
endfacet
facet normal 1.0 3.6151285224107614e-16 1.2963598411511578e-15
  outer loop
    vertex 70.14577479312335 -21.800067340116094 145.39909793630088
    vertex 70.14577479312342 -20.710385333280254 146.81546015630084
    vertex 70.14577479312342 -22.42244954226452 146.81546015630082
  endloop
endfacet
facet normal 1.0 3.6151285224107614e-16 1.2963598411511578e-15
  outer loop
    vertex 70.14577479312335 -21.33277333376841 145.39909793630088
    vertex 70.14577479312342 -20.710385333280254 146.81546015630084
    vertex 70.14577479312335 -21.800067340116094 145.39909793630088
  endloop
endfacet
facet normal 1.0 3.6151285224107614e-16 1.2963598411511578e-15
  outer loop
    vertex 70.14577479312342 -20.036050006131727 146.81546015630073
    vertex 70.14577479312328 -18.323985797147415 148.0661633316648
    vertex 70.14577479312342 -20.710385333280254 146.81546015630084
  endloop
endfacet
facet normal 1.0 3.6151285224107614e-16 1.2963598411511578e-15
  outer loop
    vertex 70.14577479312341 -19.413667803983277 145.39909793630088
    vertex 70.14577479312328 -18.323985797147415 148.0661633316648
    vertex 70.14577479312342 -20.036050006131727 146.81546015630073
  endloop
endfacet
facet normal 1.0 3.6151285224107614e-16 1.2963598411511578e-15
  outer loop
    vertex 70.14577479312341 -18.946373797635605 145.39909793630088
    vertex 70.14577479312328 -18.323985797147415 148.0661633316648
    vertex 70.14577479312341 -19.413667803983277 145.39909793630088
  endloop
endfacet
facet normal 1.0 3.6151285224107614e-16 1.2963598411511578e-15
  outer loop
    vertex 70.14577479312342 -18.323985797147447 146.81546015630082
    vertex 70.14577479312328 -18.323985797147415 148.0661633316648
    vertex 70.14577479312341 -18.946373797635605 145.39909793630088
  endloop
endfacet
facet normal -1.0 -2.2680589111898726e-15 -1.0099079974709945e-14
  outer loop
    vertex 59.51372697451969 -34.35445592043853 146.81546015630053
    vertex 59.51372697451959 -34.35445592043848 148.0661633316644
    vertex 59.51372697451967 -33.73206502078033 145.3990979363005
  endloop
endfacet
facet normal -1.0 -2.2680589111898726e-15 -1.0099079974709945e-14
  outer loop
    vertex 59.51372697451969 -32.64238591311433 146.81546015630053
    vertex 59.51372697451967 -33.73206502078033 145.3990979363005
    vertex 59.51372697451959 -34.35445592043848 148.0661633316644
  endloop
endfacet
facet normal -1.0 -2.2680589111898726e-15 -1.0099079974709945e-14
  outer loop
    vertex 59.513726974519514 -18.32398579714755 148.06616333166411
    vertex 59.51372697451969 -32.64238591311433 146.81546015630053
    vertex 59.51372697451959 -34.35445592043848 148.0661633316644
  endloop
endfacet
facet normal -1.0 -2.2680589111898726e-15 -1.0099079974709945e-14
  outer loop
    vertex 59.51372697451967 -33.26477681277252 145.3990979363005
    vertex 59.51372697451967 -33.73206502078033 145.3990979363005
    vertex 59.51372697451969 -32.64238591311433 146.81546015630053
  endloop
endfacet
facet normal -1.0 -2.2680589111898726e-15 -1.0099079974709945e-14
  outer loop
    vertex 59.51372697451969 -31.96805348513582 146.81546015630053
    vertex 59.51372697451969 -32.64238591311433 146.81546015630053
    vertex 59.513726974519514 -18.32398579714755 148.06616333166411
  endloop
endfacet
facet normal -1.0 -2.2680589111898726e-15 -1.0099079974709945e-14
  outer loop
    vertex 59.51372697451969 -30.25598637698153 146.81546015630053
    vertex 59.51372697451969 -31.96805348513582 146.81546015630053
    vertex 59.513726974519514 -18.32398579714755 148.06616333166411
  endloop
endfacet
facet normal -1.0 -2.2680589111898726e-15 -1.0099079974709945e-14
  outer loop
    vertex 59.51372697451967 -31.345665484647533 145.3990979363005
    vertex 59.51372697451969 -31.96805348513582 146.81546015630053
    vertex 59.51372697451969 -30.25598637698153 146.81546015630053
  endloop
endfacet
facet normal -1.0 -2.2680589111898726e-15 -1.0099079974709945e-14
  outer loop
    vertex 59.51372697451967 -30.878374377469804 145.3990979363005
    vertex 59.51372697451967 -31.345665484647533 145.3990979363005
    vertex 59.51372697451969 -30.25598637698153 146.81546015630053
  endloop
endfacet
facet normal -1.0 -2.2680589111898726e-15 -1.0099079974709945e-14
  outer loop
    vertex 59.51372697451969 -29.581656848172916 146.81546015630053
    vertex 59.51372697451969 -30.25598637698153 146.81546015630053
    vertex 59.513726974519514 -18.32398579714755 148.06616333166411
  endloop
endfacet
facet normal -1.0 -2.2680589111898726e-15 -1.0099079974709945e-14
  outer loop
    vertex 59.51372697451969 -27.869583941678567 146.81546015630053
    vertex 59.51372697451969 -29.581656848172916 146.81546015630053
    vertex 59.513726974519514 -18.32398579714755 148.06616333166411
  endloop
endfacet
facet normal -1.0 -2.2680589111898726e-15 -1.0099079974709945e-14
  outer loop
    vertex 59.51372697451967 -28.95926594851452 145.3990979363005
    vertex 59.51372697451969 -29.581656848172916 146.81546015630053
    vertex 59.51372697451969 -27.869583941678567 146.81546015630053
  endloop
endfacet
facet normal -1.0 -2.2680589111898726e-15 -1.0099079974709945e-14
  outer loop
    vertex 59.51372697451967 -28.491977740506737 145.3990979363005
    vertex 59.51372697451967 -28.95926594851452 145.3990979363005
    vertex 59.51372697451969 -27.869583941678567 146.81546015630053
  endloop
endfacet
facet normal -1.0 -2.2680589111898726e-15 -1.0099079974709945e-14
  outer loop
    vertex 59.51372697451969 -27.195254412870074 146.81546015630053
    vertex 59.51372697451969 -27.869583941678567 146.81546015630053
    vertex 59.513726974519514 -18.32398579714755 148.06616333166411
  endloop
endfacet
facet normal -1.0 -2.2680589111898726e-15 -1.0099079974709945e-14
  outer loop
    vertex 59.51372697451969 -25.48318440554577 146.81546015630053
    vertex 59.51372697451969 -27.195254412870074 146.81546015630053
    vertex 59.513726974519514 -18.32398579714755 148.06616333166411
  endloop
endfacet
facet normal -1.0 -2.2680589111898726e-15 -1.0099079974709945e-14
  outer loop
    vertex 59.51372697451967 -26.57286061404181 145.3990979363004
    vertex 59.51372697451969 -27.195254412870074 146.81546015630053
    vertex 59.51372697451969 -25.48318440554577 146.81546015630053
  endloop
endfacet
facet normal -1.0 -2.2680589111898726e-15 -1.0099079974709945e-14
  outer loop
    vertex 59.51372697451967 -26.105578204373874 145.3990979363004
    vertex 59.51372697451967 -26.57286061404181 145.3990979363004
    vertex 59.51372697451969 -25.48318440554577 146.81546015630053
  endloop
endfacet
facet normal -1.0 -2.2680589111898726e-15 -1.0099079974709945e-14
  outer loop
    vertex 59.51372697451969 -24.808854876737122 146.81546015630053
    vertex 59.51372697451969 -25.48318440554577 146.81546015630053
    vertex 59.513726974519514 -18.32398579714755 148.06616333166411
  endloop
endfacet
facet normal -1.0 -2.2680589111898726e-15 -1.0099079974709945e-14
  outer loop
    vertex 59.51372697451969 -23.096784869413035 146.81546015630053
    vertex 59.51372697451969 -24.808854876737122 146.81546015630053
    vertex 59.513726974519514 -18.32398579714755 148.06616333166411
  endloop
endfacet
facet normal -1.0 -2.2680589111898726e-15 -1.0099079974709945e-14
  outer loop
    vertex 59.51372697451967 -24.186466876248886 145.39909793630036
    vertex 59.51372697451969 -24.808854876737122 146.81546015630053
    vertex 59.51372697451969 -23.096784869413035 146.81546015630053
  endloop
endfacet
facet normal -1.0 -2.2680589111898726e-15 -1.0099079974709945e-14
  outer loop
    vertex 59.51372697451967 -23.719172869901225 145.39909793630036
    vertex 59.51372697451967 -24.186466876248886 145.39909793630036
    vertex 59.51372697451969 -23.096784869413035 146.81546015630053
  endloop
endfacet
facet normal -1.0 -2.2680589111898726e-15 -1.0099079974709945e-14
  outer loop
    vertex 59.51372697451969 -22.42244954226452 146.81546015630056
    vertex 59.51372697451969 -23.096784869413035 146.81546015630053
    vertex 59.513726974519514 -18.32398579714755 148.06616333166411
  endloop
endfacet
facet normal -1.0 -2.2680589111898726e-15 -1.0099079974709945e-14
  outer loop
    vertex 59.51372697451969 -20.710385333280254 146.81546015630056
    vertex 59.51372697451969 -22.42244954226452 146.81546015630056
    vertex 59.513726974519514 -18.32398579714755 148.06616333166411
  endloop
endfacet
facet normal -1.0 -2.2680589111898726e-15 -1.0099079974709945e-14
  outer loop
    vertex 59.51372697451967 -21.800067340116094 145.39909793630045
    vertex 59.51372697451969 -22.42244954226452 146.81546015630056
    vertex 59.51372697451969 -20.710385333280254 146.81546015630056
  endloop
endfacet
facet normal -1.0 -2.2680589111898726e-15 -1.0099079974709945e-14
  outer loop
    vertex 59.51372697451967 -21.33277333376841 145.39909793630048
    vertex 59.51372697451967 -21.800067340116094 145.39909793630045
    vertex 59.51372697451969 -20.710385333280254 146.81546015630056
  endloop
endfacet
facet normal -1.0 -2.2680589111898726e-15 -1.0099079974709945e-14
  outer loop
    vertex 59.51372697451969 -20.036050006131852 146.81546015630005
    vertex 59.51372697451969 -20.710385333280254 146.81546015630056
    vertex 59.513726974519514 -18.32398579714755 148.06616333166411
  endloop
endfacet
facet normal -1.0 -2.2680589111898726e-15 -1.0099079974709945e-14
  outer loop
    vertex 59.51372697451963 -19.41366780398341 145.39909793630017
    vertex 59.51372697451969 -20.036050006131852 146.81546015630005
    vertex 59.513726974519514 -18.32398579714755 148.06616333166411
  endloop
endfacet
facet normal -1.0 -2.2680589111898726e-15 -1.0099079974709945e-14
  outer loop
    vertex 59.51372697451963 -18.94637379763574 145.39909793630017
    vertex 59.51372697451963 -19.41366780398341 145.39909793630017
    vertex 59.513726974519514 -18.32398579714755 148.06616333166411
  endloop
endfacet
facet normal -1.0 -2.2680589111898726e-15 -1.0099079974709945e-14
  outer loop
    vertex 59.51372697451969 -18.323985797147618 146.81546015630016
    vertex 59.51372697451963 -18.94637379763574 145.39909793630017
    vertex 59.513726974519514 -18.32398579714755 148.06616333166411
  endloop
endfacet
facet normal -3.765576169519875e-14 5.858798020406933e-15 1.0
  outer loop
    vertex 59.513726974519514 -18.32398579714755 148.06616333166411
    vertex 59.51372697451959 -34.35445592043848 148.0661633316644
    vertex 70.14577479312328 -18.323985797147415 148.0661633316648
  endloop
endfacet
facet normal -3.765576169519875e-14 5.858798020406933e-15 1.0
  outer loop
    vertex 70.14577479312328 -34.354455920438504 148.0661633316647
    vertex 70.14577479312328 -18.323985797147415 148.0661633316648
    vertex 59.51372697451959 -34.35445592043848 148.0661633316644
  endloop
endfacet
facet normal 4.423141179006487e-14 -4.874674715538621e-13 -1.0
  outer loop
    vertex 59.51372697451969 -20.710385333280254 146.81546015630056
    vertex 59.51372697451969 -20.036050006131852 146.81546015630005
    vertex 70.14577479312342 -20.710385333280254 146.81546015630084
  endloop
endfacet
facet normal 4.423141179006487e-14 -4.874674715538621e-13 -1.0
  outer loop
    vertex 70.14577479312342 -20.036050006131727 146.81546015630073
    vertex 70.14577479312342 -20.710385333280254 146.81546015630084
    vertex 59.51372697451969 -20.036050006131852 146.81546015630005
  endloop
endfacet
facet normal 2.6670534305318775e-14 -0.957438933561378 -0.2886359099295356
  outer loop
    vertex 70.14577479312342 -20.036050006131727 146.81546015630073
    vertex 59.51372697451969 -20.036050006131852 146.81546015630005
    vertex 70.14577479312341 -19.413667803983277 145.39909793630088
  endloop
endfacet
facet normal 2.6670534305318775e-14 -0.957438933561378 -0.2886359099295356
  outer loop
    vertex 59.51372697451963 -19.41366780398341 145.39909793630017
    vertex 70.14577479312341 -19.413667803983277 145.39909793630088
    vertex 59.51372697451969 -20.036050006131852 146.81546015630005
  endloop
endfacet
facet normal 6.045786420201484e-14 1.7505674080418588e-16 -1.0
  outer loop
    vertex 59.51372697451963 -19.41366780398341 145.39909793630017
    vertex 59.51372697451963 -18.94637379763574 145.39909793630017
    vertex 70.14577479312341 -19.413667803983277 145.39909793630088
  endloop
endfacet
facet normal 6.045786420201484e-14 1.7505674080418588e-16 -1.0
  outer loop
    vertex 70.14577479312341 -18.946373797635605 145.39909793630088
    vertex 70.14577479312341 -19.413667803983277 145.39909793630088
    vertex 59.51372697451963 -18.94637379763574 145.39909793630017
  endloop
endfacet
facet normal 8.230243172880005e-15 0.9574381904398933 -0.2886383749385768
  outer loop
    vertex 70.14577479312342 -18.323985797147447 146.81546015630082
    vertex 70.14577479312341 -18.946373797635605 145.39909793630088
    vertex 59.51372697451969 -18.323985797147618 146.81546015630016
  endloop
endfacet
facet normal 8.230243172880005e-15 0.9574381904398933 -0.2886383749385768
  outer loop
    vertex 59.51372697451963 -18.94637379763574 145.39909793630017
    vertex 59.51372697451969 -18.323985797147618 146.81546015630016
    vertex 70.14577479312341 -18.946373797635605 145.39909793630088
  endloop
endfacet
facet normal -9.63009058413422e-15 1.0 -1.7311314332894772e-14
  outer loop
    vertex 70.14577479312328 -18.323985797147415 148.0661633316648
    vertex 70.14577479312342 -18.323985797147447 146.81546015630082
    vertex 59.513726974519514 -18.32398579714755 148.06616333166411
  endloop
endfacet
facet normal -9.63009058413422e-15 1.0 -1.7311314332894772e-14
  outer loop
    vertex 59.51372697451969 -18.323985797147618 146.81546015630016
    vertex 59.513726974519514 -18.32398579714755 148.06616333166411
    vertex 70.14577479312342 -18.323985797147447 146.81546015630082
  endloop
endfacet
facet normal 1.845065176409491e-15 -0.9574378188771842 0.2886396074410101
  outer loop
    vertex 70.14806450300864 -33.73185159066741 126.5516815544225
    vertex 64.59049453907772 -34.35424249032558 125.13531933442253
    vertex 70.1480645030087 -34.35424249032558 125.13531933442248
  endloop
endfacet
facet normal 1.845065176409491e-15 -0.9574378188771842 0.2886396074410101
  outer loop
    vertex 64.59049453907772 -34.35424249032558 125.13531933442253
    vertex 70.14806450300864 -33.73185159066741 126.5516815544225
    vertex 64.59049453907775 -33.73185159066741 126.55168155442257
  endloop
endfacet
facet normal 3.7590048739954184e-15 -4.797144432461526e-14 1.0
  outer loop
    vertex 70.14806450300864 -33.73185159066741 126.5516815544225
    vertex 64.59049453907775 -33.26456338265956 126.55168155442257
    vertex 64.59049453907775 -33.73185159066741 126.55168155442257
  endloop
endfacet
facet normal 3.7590048739954184e-15 -4.797144432461526e-14 1.0
  outer loop
    vertex 64.59049453907775 -33.26456338265956 126.55168155442257
    vertex 70.14806450300864 -33.73185159066741 126.5516815544225
    vertex 70.14806450300864 -33.26456338265956 126.5516815544225
  endloop
endfacet
facet normal -6.255404064756145e-16 0.9574378188771844 0.2886396074410093
  outer loop
    vertex 64.59049453907772 -32.64217248300135 125.13531933442253
    vertex 70.14806450300864 -33.26456338265956 126.5516815544225
    vertex 70.1480645030087 -32.64217248300135 125.13531933442248
  endloop
endfacet
facet normal -6.255404064756145e-16 0.9574378188771844 0.2886396074410093
  outer loop
    vertex 70.14806450300864 -33.26456338265956 126.5516815544225
    vertex 64.59049453907772 -32.64217248300135 125.13531933442253
    vertex 64.59049453907775 -33.26456338265956 126.55168155442257
  endloop
endfacet
facet normal -4.448950663271371e-15 -2.494129636623161e-15 1.0
  outer loop
    vertex 70.1480645030087 -32.64217248300135 125.13531933442248
    vertex 64.59049453907772 -31.9678400550229 125.13531933442253
    vertex 64.59049453907772 -32.64217248300135 125.13531933442253
  endloop
endfacet
facet normal -4.448950663271371e-15 -2.494129636623161e-15 1.0
  outer loop
    vertex 64.59049453907772 -31.9678400550229 125.13531933442253
    vertex 70.1480645030087 -32.64217248300135 125.13531933442248
    vertex 70.1480645030087 -31.9678400550229 125.13531933442248
  endloop
endfacet
facet normal -6.953111788384974e-16 -0.9574381904398794 0.28863837493862265
  outer loop
    vertex 70.14806450300864 -31.34545205453455 126.5516815544225
    vertex 64.59049453907772 -31.9678400550229 125.13531933442253
    vertex 70.1480645030087 -31.9678400550229 125.13531933442248
  endloop
endfacet
facet normal -6.953111788384974e-16 -0.9574381904398794 0.28863837493862265
  outer loop
    vertex 64.59049453907772 -31.9678400550229 125.13531933442253
    vertex 70.14806450300864 -31.34545205453455 126.5516815544225
    vertex 64.59049453907775 -31.34545205453455 126.55168155442257
  endloop
endfacet
facet normal -1.7838138452906377e-16 -7.930743035635242e-17 1.0
  outer loop
    vertex 70.14806450300864 -31.34545205453455 126.5516815544225
    vertex 64.59049453907775 -30.87816094735686 126.55168155442257
    vertex 64.59049453907775 -31.34545205453455 126.55168155442257
  endloop
endfacet
facet normal -1.7838138452906377e-16 -7.930743035635242e-17 1.0
  outer loop
    vertex 64.59049453907775 -30.87816094735686 126.55168155442257
    vertex 70.14806450300864 -31.34545205453455 126.5516815544225
    vertex 70.14806450300864 -30.87816094735686 126.5516815544225
  endloop
endfacet
facet normal -6.206960828462403e-16 0.9574381904398819 0.288638374938615
  outer loop
    vertex 64.59049453907772 -30.25577294686861 125.13531933442253
    vertex 70.14806450300864 -30.87816094735686 126.5516815544225
    vertex 70.1480645030087 -30.255772946868618 125.13531933442248
  endloop
endfacet
facet normal -6.206960828462403e-16 0.9574381904398819 0.288638374938615
  outer loop
    vertex 70.14806450300864 -30.87816094735686 126.5516815544225
    vertex 64.59049453907772 -30.25577294686861 125.13531933442253
    vertex 64.59049453907775 -30.87816094735686 126.55168155442257
  endloop
endfacet
facet normal -4.448950663271371e-15 -2.4941400187576825e-15 1.0
  outer loop
    vertex 70.1480645030087 -30.255772946868618 125.13531933442248
    vertex 64.59049453907772 -29.58144341805995 125.13531933442253
    vertex 64.59049453907772 -30.25577294686861 125.13531933442253
  endloop
endfacet
facet normal -4.448950663271371e-15 -2.4941400187576825e-15 1.0
  outer loop
    vertex 64.59049453907772 -29.58144341805995 125.13531933442253
    vertex 70.1480645030087 -30.255772946868618 125.13531933442248
    vertex 70.1480645030087 -29.58144341805995 125.13531933442248
  endloop
endfacet
facet normal -6.897011692384862e-16 -0.9574378188771842 0.2886396074410097
  outer loop
    vertex 70.14806450300864 -28.959052518401837 126.5516815544225
    vertex 64.59049453907772 -29.58144341805995 125.13531933442253
    vertex 70.1480645030087 -29.58144341805995 125.13531933442248
  endloop
endfacet
facet normal -6.897011692384862e-16 -0.9574378188771842 0.2886396074410097
  outer loop
    vertex 64.59049453907772 -29.58144341805995 125.13531933442253
    vertex 70.14806450300864 -28.959052518401837 126.5516815544225
    vertex 64.59049453907775 -28.959052518401826 126.55168155442257
  endloop
endfacet
facet normal -1.7838138452906377e-16 -7.930743035635242e-17 1.0
  outer loop
    vertex 70.14806450300864 -28.959052518401837 126.5516815544225
    vertex 64.59049453907775 -28.491764310394046 126.55168155442257
    vertex 64.59049453907775 -28.959052518401826 126.55168155442257
  endloop
endfacet
facet normal -1.7838138452906377e-16 -7.930743035635242e-17 1.0
  outer loop
    vertex 64.59049453907775 -28.491764310394046 126.55168155442257
    vertex 70.14806450300864 -28.959052518401837 126.5516815544225
    vertex 70.14806450300864 -28.491764310394057 126.5516815544225
  endloop
endfacet
facet normal -6.255404035516419e-16 0.9574374473131905 0.2886408399419618
  outer loop
    vertex 64.59049453907775 -28.491764310394046 126.55168155442257
    vertex 70.1480645030087 -27.869370511565883 125.13531933442248
    vertex 64.59049453907772 -27.869370511565883 125.13531933442248
  endloop
endfacet
facet normal -6.255404035516419e-16 0.9574374473131905 0.2886408399419618
  outer loop
    vertex 70.1480645030087 -27.869370511565883 125.13531933442248
    vertex 64.59049453907775 -28.491764310394046 126.55168155442257
    vertex 70.14806450300864 -28.491764310394057 126.5516815544225
  endloop
endfacet
facet normal -4.448950663271371e-15 -2.4941400187576825e-15 1.0
  outer loop
    vertex 70.1480645030087 -27.869370511565883 125.13531933442248
    vertex 64.59049453907772 -27.19504098275729 125.13531933442248
    vertex 64.59049453907772 -27.869370511565883 125.13531933442248
  endloop
endfacet
facet normal -4.448950663271371e-15 -2.4941400187576825e-15 1.0
  outer loop
    vertex 64.59049453907772 -27.19504098275729 125.13531933442248
    vertex 70.1480645030087 -27.869370511565883 125.13531933442248
    vertex 70.1480645030087 -27.195040982757316 125.13531933442248
  endloop
endfacet
facet normal -6.868950498293202e-16 -0.9574374473131905 0.2886408399419622
  outer loop
    vertex 70.14806450300864 -26.57264718392912 126.5516815544225
    vertex 64.59049453907772 -27.19504098275729 125.13531933442248
    vertex 70.1480645030087 -27.195040982757316 125.13531933442248
  endloop
endfacet
facet normal -6.868950498293202e-16 -0.9574374473131905 0.2886408399419622
  outer loop
    vertex 64.59049453907772 -27.19504098275729 125.13531933442248
    vertex 70.14806450300864 -26.57264718392912 126.5516815544225
    vertex 64.59049453907775 -26.57264718392912 126.5516815544225
  endloop
endfacet
facet normal -1.7838138452906377e-16 -7.930743035635242e-17 1.0
  outer loop
    vertex 70.14806450300864 -26.57264718392912 126.5516815544225
    vertex 64.59049453907775 -26.105364774261194 126.5516815544225
    vertex 64.59049453907775 -26.57264718392912 126.5516815544225
  endloop
endfacet
facet normal -1.7838138452906377e-16 -7.930743035635242e-17 1.0
  outer loop
    vertex 64.59049453907775 -26.105364774261194 126.5516815544225
    vertex 70.14806450300864 -26.57264718392912 126.5516815544225
    vertex 70.14806450300864 -26.105364774261194 126.5516815544225
  endloop
endfacet
facet normal -6.255404035516419e-16 0.9574374473131905 0.2886408399419618
  outer loop
    vertex 64.59049453907775 -26.105364774261194 126.5516815544225
    vertex 70.1480645030087 -25.482970975433112 125.13531933442248
    vertex 64.59049453907772 -25.4829709754331 125.13531933442248
  endloop
endfacet
facet normal -6.255404035516419e-16 0.9574374473131905 0.2886408399419618
  outer loop
    vertex 70.1480645030087 -25.482970975433112 125.13531933442248
    vertex 64.59049453907775 -26.105364774261194 126.5516815544225
    vertex 70.14806450300864 -26.105364774261194 126.5516815544225
  endloop
endfacet
facet normal 1.54801635688762e-16 -2.5870965750247216e-14 1.0
  outer loop
    vertex 70.1480645030087 -25.482970975433112 125.13531933442248
    vertex 64.59049453907772 -24.80864144662443 125.13531933442248
    vertex 64.59049453907772 -25.4829709754331 125.13531933442248
  endloop
endfacet
facet normal 1.54801635688762e-16 -2.5870965750247216e-14 1.0
  outer loop
    vertex 64.59049453907772 -24.80864144662443 125.13531933442248
    vertex 70.1480645030087 -25.482970975433112 125.13531933442248
    vertex 70.1480645030087 -24.80864144662443 125.13531933442248
  endloop
endfacet
facet normal 1.853972694870715e-15 -0.9574381904398794 0.28863837493862265
  outer loop
    vertex 70.14806450300864 -24.186253446136206 126.5516815544225
    vertex 64.59049453907772 -24.80864144662443 125.13531933442248
    vertex 70.1480645030087 -24.80864144662443 125.13531933442248
  endloop
endfacet
facet normal 1.853972694870715e-15 -0.9574381904398794 0.28863837493862265
  outer loop
    vertex 64.59049453907772 -24.80864144662443 125.13531933442248
    vertex 70.14806450300864 -24.186253446136206 126.5516815544225
    vertex 64.59049453907775 -24.186253446136206 126.55168155442253
  endloop
endfacet
facet normal 2.7444132409231747e-14 2.404917205352959e-13 1.0
  outer loop
    vertex 70.14806450300864 -24.186253446136206 126.5516815544225
    vertex 64.59049453907775 -23.718959439788556 126.55168155442253
    vertex 64.59049453907775 -24.186253446136206 126.55168155442253
  endloop
endfacet
facet normal 2.7444132409231747e-14 2.404917205352959e-13 1.0
  outer loop
    vertex 64.59049453907775 -23.718959439788556 126.55168155442253
    vertex 70.14806450300864 -24.186253446136206 126.5516815544225
    vertex 70.14806450300864 -23.71895943978857 126.55168155442233
  endloop
endfacet
facet normal 1.010464290396907e-14 0.9574381904398814 0.28863837493861627
  outer loop
    vertex 64.59049453907772 -23.096571439300263 125.13531933442248
    vertex 70.14806450300864 -23.71895943978857 126.55168155442233
    vertex 70.1480645030087 -23.096571439300277 125.13531933442236
  endloop
endfacet
facet normal 1.010464290396907e-14 0.9574381904398814 0.28863837493861627
  outer loop
    vertex 70.14806450300864 -23.71895943978857 126.55168155442233
    vertex 64.59049453907772 -23.096571439300263 125.13531933442248
    vertex 64.59049453907775 -23.718959439788556 126.55168155442253
  endloop
endfacet
facet normal 3.4652538885845036e-14 2.9049954418341125e-14 1.0
  outer loop
    vertex 70.1480645030087 -23.096571439300277 125.13531933442236
    vertex 64.59049453907772 -22.42223611215184 125.13531933442248
    vertex 64.59049453907772 -23.096571439300263 125.13531933442248
  endloop
endfacet
facet normal 3.4652538885845036e-14 2.9049954418341125e-14 1.0
  outer loop
    vertex 64.59049453907772 -22.42223611215184 125.13531933442248
    vertex 70.1480645030087 -23.096571439300277 125.13531933442236
    vertex 70.1480645030087 -22.42223611215186 125.13531933442236
  endloop
endfacet
facet normal 1.180491531562822e-14 -0.9574389335613788 0.2886359099295335
  outer loop
    vertex 70.14806450300864 -21.799853910003424 126.55168155442233
    vertex 64.59049453907772 -22.42223611215184 125.13531933442248
    vertex 70.1480645030087 -22.42223611215186 125.13531933442236
  endloop
endfacet
facet normal 1.180491531562822e-14 -0.9574389335613788 0.2886359099295335
  outer loop
    vertex 64.59049453907772 -22.42223611215184 125.13531933442248
    vertex 70.14806450300864 -21.799853910003424 126.55168155442233
    vertex 64.59049453907775 -21.799853910003403 126.5516815544225
  endloop
endfacet
facet normal 4.319367744332966e-14 4.892555000467263e-14 1.0
  outer loop
    vertex 70.14806450300864 -21.799853910003424 126.55168155442233
    vertex 64.59049453907775 -21.33255990365573 126.5516815544225
    vertex 64.59049453907775 -21.799853910003403 126.5516815544225
  endloop
endfacet
facet normal 4.319367744332966e-14 4.892555000467263e-14 1.0
  outer loop
    vertex 64.59049453907775 -21.33255990365573 126.5516815544225
    vertex 70.14806450300864 -21.799853910003424 126.55168155442233
    vertex 70.14806450300864 -21.332559903655763 126.55168155442233
  endloop
endfacet
facet normal 1.2459262209899952e-14 0.9574381904398847 0.288638374938606
  outer loop
    vertex 64.59049453907772 -20.71017190316747 125.13531933442248
    vertex 70.14806450300864 -21.332559903655763 126.55168155442233
    vertex 70.1480645030087 -20.710171903167492 125.13531933442236
  endloop
endfacet
facet normal 1.2459262209899952e-14 0.9574381904398847 0.288638374938606
  outer loop
    vertex 70.14806450300864 -21.332559903655763 126.55168155442233
    vertex 64.59049453907772 -20.71017190316747 125.13531933442248
    vertex 64.59049453907775 -21.33255990365573 126.5516815544225
  endloop
endfacet
facet normal 2.0151223002985826e-29 -1.0 2.566875793063354e-15
  outer loop
    vertex 70.1480645030087 -34.35424249032558 125.13531933442248
    vertex 64.59049453907754 -34.35424249032564 115.92996993475442
    vertex 70.14806450300844 -34.35424249032564 115.92996993475433
  endloop
endfacet
facet normal 2.0151223002985826e-29 -1.0 2.566875793063354e-15
  outer loop
    vertex 64.59049453907754 -34.35424249032564 115.92996993475442
    vertex 70.1480645030087 -34.35424249032558 125.13531933442248
    vertex 64.59049453907772 -34.35424249032558 125.13531933442253
  endloop
endfacet
facet normal 1.0 2.2649989073023705e-16 -1.4171733782761212e-14
  outer loop
    vertex 70.14806450300844 -18.323772367034767 115.9299699347541
    vertex 70.1480645030087 -34.35424249032558 125.13531933442248
    vertex 70.14806450300844 -34.35424249032564 115.92996993475433
  endloop
endfacet
facet normal 1.0 2.2649989073023705e-16 -1.4171733782761212e-14
  outer loop
    vertex 70.1480645030087 -34.35424249032558 125.13531933442248
    vertex 70.14806450300844 -18.323772367034767 115.9299699347541
    vertex 70.1480645030087 -32.64217248300135 125.13531933442248
  endloop
endfacet
facet normal 1.0 2.2649989073023705e-16 -1.4171733782761212e-14
  outer loop
    vertex 70.1480645030087 -34.35424249032558 125.13531933442248
    vertex 70.1480645030087 -32.64217248300135 125.13531933442248
    vertex 70.14806450300864 -33.73185159066741 126.5516815544225
  endloop
endfacet
facet normal 1.0 2.2649989073023705e-16 -1.4171733782761212e-14
  outer loop
    vertex 70.14806450300864 -33.73185159066741 126.5516815544225
    vertex 70.1480645030087 -32.64217248300135 125.13531933442248
    vertex 70.14806450300864 -33.26456338265956 126.5516815544225
  endloop
endfacet
facet normal 1.0 2.2649989073023705e-16 -1.4171733782761212e-14
  outer loop
    vertex 70.1480645030087 -32.64217248300135 125.13531933442248
    vertex 70.14806450300844 -18.323772367034767 115.9299699347541
    vertex 70.1480645030087 -31.9678400550229 125.13531933442248
  endloop
endfacet
facet normal 1.0 2.2649989073023705e-16 -1.4171733782761212e-14
  outer loop
    vertex 70.1480645030087 -31.9678400550229 125.13531933442248
    vertex 70.14806450300844 -18.323772367034767 115.9299699347541
    vertex 70.1480645030087 -30.255772946868618 125.13531933442248
  endloop
endfacet
facet normal 1.0 2.2649989073023705e-16 -1.4171733782761212e-14
  outer loop
    vertex 70.1480645030087 -31.9678400550229 125.13531933442248
    vertex 70.1480645030087 -30.255772946868618 125.13531933442248
    vertex 70.14806450300864 -31.34545205453455 126.5516815544225
  endloop
endfacet
facet normal 1.0 2.2649989073023705e-16 -1.4171733782761212e-14
  outer loop
    vertex 70.14806450300864 -31.34545205453455 126.5516815544225
    vertex 70.1480645030087 -30.255772946868618 125.13531933442248
    vertex 70.14806450300864 -30.87816094735686 126.5516815544225
  endloop
endfacet
facet normal 1.0 2.2649989073023705e-16 -1.4171733782761212e-14
  outer loop
    vertex 70.1480645030087 -30.255772946868618 125.13531933442248
    vertex 70.14806450300844 -18.323772367034767 115.9299699347541
    vertex 70.1480645030087 -29.58144341805995 125.13531933442248
  endloop
endfacet
facet normal 1.0 2.2649989073023705e-16 -1.4171733782761212e-14
  outer loop
    vertex 70.1480645030087 -29.58144341805995 125.13531933442248
    vertex 70.14806450300844 -18.323772367034767 115.9299699347541
    vertex 70.1480645030087 -27.869370511565883 125.13531933442248
  endloop
endfacet
facet normal 1.0 2.2649989073023705e-16 -1.4171733782761212e-14
  outer loop
    vertex 70.1480645030087 -29.58144341805995 125.13531933442248
    vertex 70.1480645030087 -27.869370511565883 125.13531933442248
    vertex 70.14806450300864 -28.959052518401837 126.5516815544225
  endloop
endfacet
facet normal 1.0 2.2649989073023705e-16 -1.4171733782761212e-14
  outer loop
    vertex 70.14806450300864 -28.959052518401837 126.5516815544225
    vertex 70.1480645030087 -27.869370511565883 125.13531933442248
    vertex 70.14806450300864 -28.491764310394057 126.5516815544225
  endloop
endfacet
facet normal 1.0 2.2649989073023705e-16 -1.4171733782761212e-14
  outer loop
    vertex 70.1480645030087 -27.869370511565883 125.13531933442248
    vertex 70.14806450300844 -18.323772367034767 115.9299699347541
    vertex 70.1480645030087 -27.195040982757316 125.13531933442248
  endloop
endfacet
facet normal 1.0 2.2649989073023705e-16 -1.4171733782761212e-14
  outer loop
    vertex 70.1480645030087 -27.195040982757316 125.13531933442248
    vertex 70.14806450300844 -18.323772367034767 115.9299699347541
    vertex 70.1480645030087 -25.482970975433112 125.13531933442248
  endloop
endfacet
facet normal 1.0 2.2649989073023705e-16 -1.4171733782761212e-14
  outer loop
    vertex 70.1480645030087 -27.195040982757316 125.13531933442248
    vertex 70.1480645030087 -25.482970975433112 125.13531933442248
    vertex 70.14806450300864 -26.57264718392912 126.5516815544225
  endloop
endfacet
facet normal 1.0 2.2649989073023705e-16 -1.4171733782761212e-14
  outer loop
    vertex 70.14806450300864 -26.57264718392912 126.5516815544225
    vertex 70.1480645030087 -25.482970975433112 125.13531933442248
    vertex 70.14806450300864 -26.105364774261194 126.5516815544225
  endloop
endfacet
facet normal 1.0 2.2649989073023705e-16 -1.4171733782761212e-14
  outer loop
    vertex 70.1480645030087 -25.482970975433112 125.13531933442248
    vertex 70.14806450300844 -18.323772367034767 115.9299699347541
    vertex 70.1480645030087 -24.80864144662443 125.13531933442248
  endloop
endfacet
facet normal 1.0 2.2649989073023705e-16 -1.4171733782761212e-14
  outer loop
    vertex 70.1480645030087 -24.80864144662443 125.13531933442248
    vertex 70.14806450300844 -18.323772367034767 115.9299699347541
    vertex 70.14806450300864 -24.186253446136206 126.5516815544225
  endloop
endfacet
facet normal 1.0 2.2649989073023705e-16 -1.4171733782761212e-14
  outer loop
    vertex 70.14806450300864 -24.186253446136206 126.5516815544225
    vertex 70.14806450300844 -18.323772367034767 115.9299699347541
    vertex 70.1480645030087 -23.096571439300277 125.13531933442236
  endloop
endfacet
facet normal 1.0 2.2649989073023705e-16 -1.4171733782761212e-14
  outer loop
    vertex 70.14806450300864 -24.186253446136206 126.5516815544225
    vertex 70.1480645030087 -23.096571439300277 125.13531933442236
    vertex 70.14806450300864 -23.71895943978857 126.55168155442233
  endloop
endfacet
facet normal 1.0 2.2649989073023705e-16 -1.4171733782761212e-14
  outer loop
    vertex 70.1480645030087 -23.096571439300277 125.13531933442236
    vertex 70.14806450300844 -18.323772367034767 115.9299699347541
    vertex 70.1480645030087 -22.42223611215186 125.13531933442236
  endloop
endfacet
facet normal 1.0 2.2649989073023705e-16 -1.4171733782761212e-14
  outer loop
    vertex 70.1480645030087 -22.42223611215186 125.13531933442236
    vertex 70.14806450300844 -18.323772367034767 115.9299699347541
    vertex 70.14806450300864 -21.799853910003424 126.55168155442233
  endloop
endfacet
facet normal 1.0 2.2649989073023705e-16 -1.4171733782761212e-14
  outer loop
    vertex 70.14806450300864 -21.799853910003424 126.55168155442233
    vertex 70.14806450300844 -18.323772367034767 115.9299699347541
    vertex 70.14806450300864 -21.332559903655763 126.55168155442233
  endloop
endfacet
facet normal 1.0 2.2649989073023705e-16 -1.4171733782761212e-14
  outer loop
    vertex 70.14806450300864 -21.332559903655763 126.55168155442233
    vertex 70.14806450300844 -18.323772367034767 115.9299699347541
    vertex 70.1480645030087 -20.710171903167492 125.13531933442236
  endloop
endfacet
facet normal 1.0 2.2649989073023705e-16 -1.4171733782761212e-14
  outer loop
    vertex 70.1480645030087 -20.710171903167492 125.13531933442236
    vertex 70.14806450300844 -18.323772367034767 115.9299699347541
    vertex 70.1480645030087 -20.0358365760191 125.13531933442236
  endloop
endfacet
facet normal 1.0 2.2649989073023705e-16 -1.4171733782761212e-14
  outer loop
    vertex 70.1480645030087 -20.0358365760191 125.13531933442236
    vertex 70.14806450300844 -18.323772367034767 115.9299699347541
    vertex 70.14806450300864 -19.413454373870664 126.55168155442233
  endloop
endfacet
facet normal 1.0 2.2649989073023705e-16 -1.4171733782761212e-14
  outer loop
    vertex 70.14806450300864 -19.413454373870664 126.55168155442233
    vertex 70.14806450300844 -18.323772367034767 115.9299699347541
    vertex 70.14806450300864 -18.946160367522992 126.55168155442233
  endloop
endfacet
facet normal 1.0 2.2649989073023705e-16 -1.4171733782761212e-14
  outer loop
    vertex 70.14806450300864 -18.946160367522992 126.55168155442233
    vertex 70.14806450300844 -18.323772367034767 115.9299699347541
    vertex 70.1480645030087 -18.323772367034735 125.13531933442235
  endloop
endfacet
facet normal -1.0 -2.2248612936403375e-16 1.5060207828933842e-14
  outer loop
    vertex 64.59049453907772 -34.35424249032558 125.13531933442253
    vertex 64.59049453907751 -18.32377236703486 115.92996993475421
    vertex 64.59049453907754 -34.35424249032564 115.92996993475442
  endloop
endfacet
facet normal -1.0 -2.2248612936403375e-16 1.5060207828933842e-14
  outer loop
    vertex 64.59049453907751 -18.32377236703486 115.92996993475421
    vertex 64.59049453907772 -34.35424249032558 125.13531933442253
    vertex 64.59049453907772 -32.64217248300135 125.13531933442253
  endloop
endfacet
facet normal -1.0 -2.2248612936403375e-16 1.5060207828933842e-14
  outer loop
    vertex 64.59049453907772 -32.64217248300135 125.13531933442253
    vertex 64.59049453907772 -34.35424249032558 125.13531933442253
    vertex 64.59049453907775 -33.73185159066741 126.55168155442257
  endloop
endfacet
facet normal -1.0 -2.2248612936403375e-16 1.5060207828933842e-14
  outer loop
    vertex 64.59049453907772 -32.64217248300135 125.13531933442253
    vertex 64.59049453907775 -33.73185159066741 126.55168155442257
    vertex 64.59049453907775 -33.26456338265956 126.55168155442257
  endloop
endfacet
facet normal -1.0 -2.2248612936403375e-16 1.5060207828933842e-14
  outer loop
    vertex 64.59049453907751 -18.32377236703486 115.92996993475421
    vertex 64.59049453907772 -32.64217248300135 125.13531933442253
    vertex 64.59049453907772 -31.9678400550229 125.13531933442253
  endloop
endfacet
facet normal -1.0 -2.2248612936403375e-16 1.5060207828933842e-14
  outer loop
    vertex 64.59049453907751 -18.32377236703486 115.92996993475421
    vertex 64.59049453907772 -31.9678400550229 125.13531933442253
    vertex 64.59049453907772 -30.25577294686861 125.13531933442253
  endloop
endfacet
facet normal -1.0 -2.2248612936403375e-16 1.5060207828933842e-14
  outer loop
    vertex 64.59049453907772 -30.25577294686861 125.13531933442253
    vertex 64.59049453907772 -31.9678400550229 125.13531933442253
    vertex 64.59049453907775 -31.34545205453455 126.55168155442257
  endloop
endfacet
facet normal -1.0 -2.2248612936403375e-16 1.5060207828933842e-14
  outer loop
    vertex 64.59049453907772 -30.25577294686861 125.13531933442253
    vertex 64.59049453907775 -31.34545205453455 126.55168155442257
    vertex 64.59049453907775 -30.87816094735686 126.55168155442257
  endloop
endfacet
facet normal -1.0 -2.2248612936403375e-16 1.5060207828933842e-14
  outer loop
    vertex 64.59049453907751 -18.32377236703486 115.92996993475421
    vertex 64.59049453907772 -30.25577294686861 125.13531933442253
    vertex 64.59049453907772 -29.58144341805995 125.13531933442253
  endloop
endfacet
facet normal -1.0 -2.2248612936403375e-16 1.5060207828933842e-14
  outer loop
    vertex 64.59049453907751 -18.32377236703486 115.92996993475421
    vertex 64.59049453907772 -29.58144341805995 125.13531933442253
    vertex 64.59049453907772 -27.869370511565883 125.13531933442248
  endloop
endfacet
facet normal -1.0 -2.2248612936403375e-16 1.5060207828933842e-14
  outer loop
    vertex 64.59049453907772 -27.869370511565883 125.13531933442248
    vertex 64.59049453907772 -29.58144341805995 125.13531933442253
    vertex 64.59049453907775 -28.959052518401826 126.55168155442257
  endloop
endfacet
facet normal -1.0 -2.2248612936403375e-16 1.5060207828933842e-14
  outer loop
    vertex 64.59049453907772 -27.869370511565883 125.13531933442248
    vertex 64.59049453907775 -28.959052518401826 126.55168155442257
    vertex 64.59049453907775 -28.491764310394046 126.55168155442257
  endloop
endfacet
facet normal -1.0 -2.2248612936403375e-16 1.5060207828933842e-14
  outer loop
    vertex 64.59049453907751 -18.32377236703486 115.92996993475421
    vertex 64.59049453907772 -27.869370511565883 125.13531933442248
    vertex 64.59049453907772 -27.19504098275729 125.13531933442248
  endloop
endfacet
facet normal -1.0 -2.2248612936403375e-16 1.5060207828933842e-14
  outer loop
    vertex 64.59049453907751 -18.32377236703486 115.92996993475421
    vertex 64.59049453907772 -27.19504098275729 125.13531933442248
    vertex 64.59049453907772 -25.4829709754331 125.13531933442248
  endloop
endfacet
facet normal -1.0 -2.2248612936403375e-16 1.5060207828933842e-14
  outer loop
    vertex 64.59049453907772 -25.4829709754331 125.13531933442248
    vertex 64.59049453907772 -27.19504098275729 125.13531933442248
    vertex 64.59049453907775 -26.57264718392912 126.5516815544225
  endloop
endfacet
facet normal -1.0 -2.2248612936403375e-16 1.5060207828933842e-14
  outer loop
    vertex 64.59049453907772 -25.4829709754331 125.13531933442248
    vertex 64.59049453907775 -26.57264718392912 126.5516815544225
    vertex 64.59049453907775 -26.105364774261194 126.5516815544225
  endloop
endfacet
facet normal -1.0 -2.2248612936403375e-16 1.5060207828933842e-14
  outer loop
    vertex 64.59049453907751 -18.32377236703486 115.92996993475421
    vertex 64.59049453907772 -25.4829709754331 125.13531933442248
    vertex 64.59049453907772 -24.80864144662443 125.13531933442248
  endloop
endfacet
facet normal -1.0 -2.2248612936403375e-16 1.5060207828933842e-14
  outer loop
    vertex 64.59049453907751 -18.32377236703486 115.92996993475421
    vertex 64.59049453907772 -24.80864144662443 125.13531933442248
    vertex 64.59049453907775 -24.186253446136206 126.55168155442253
  endloop
endfacet
facet normal -1.0 -2.2248612936403375e-16 1.5060207828933842e-14
  outer loop
    vertex 64.59049453907751 -18.32377236703486 115.92996993475421
    vertex 64.59049453907775 -24.186253446136206 126.55168155442253
    vertex 64.59049453907772 -23.096571439300263 125.13531933442248
  endloop
endfacet
facet normal -1.0 -2.2248612936403375e-16 1.5060207828933842e-14
  outer loop
    vertex 64.59049453907772 -23.096571439300263 125.13531933442248
    vertex 64.59049453907775 -24.186253446136206 126.55168155442253
    vertex 64.59049453907775 -23.718959439788556 126.55168155442253
  endloop
endfacet
facet normal -1.0 -2.2248612936403375e-16 1.5060207828933842e-14
  outer loop
    vertex 64.59049453907751 -18.32377236703486 115.92996993475421
    vertex 64.59049453907772 -23.096571439300263 125.13531933442248
    vertex 64.59049453907772 -22.42223611215184 125.13531933442248
  endloop
endfacet
facet normal -1.0 -2.2248612936403375e-16 1.5060207828933842e-14
  outer loop
    vertex 64.59049453907751 -18.32377236703486 115.92996993475421
    vertex 64.59049453907772 -22.42223611215184 125.13531933442248
    vertex 64.59049453907775 -21.799853910003403 126.5516815544225
  endloop
endfacet
facet normal -1.0 -2.2248612936403375e-16 1.5060207828933842e-14
  outer loop
    vertex 64.59049453907751 -18.32377236703486 115.92996993475421
    vertex 64.59049453907775 -21.799853910003403 126.5516815544225
    vertex 64.59049453907775 -21.33255990365573 126.5516815544225
  endloop
endfacet
facet normal -1.0 -2.2248612936403375e-16 1.5060207828933842e-14
  outer loop
    vertex 64.59049453907751 -18.32377236703486 115.92996993475421
    vertex 64.59049453907775 -21.33255990365573 126.5516815544225
    vertex 64.59049453907772 -20.71017190316747 125.13531933442248
  endloop
endfacet
facet normal -1.0 -2.2248612936403375e-16 1.5060207828933842e-14
  outer loop
    vertex 64.59049453907751 -18.32377236703486 115.92996993475421
    vertex 64.59049453907772 -20.71017190316747 125.13531933442248
    vertex 64.59049453907778 -20.035836576019168 125.13531933442248
  endloop
endfacet
facet normal -1.0 -2.2248612936403375e-16 1.5060207828933842e-14
  outer loop
    vertex 64.59049453907751 -18.32377236703486 115.92996993475421
    vertex 64.59049453907778 -20.035836576019168 125.13531933442248
    vertex 64.59049453907772 -19.413454373870756 126.55168155442244
  endloop
endfacet
facet normal -1.0 -2.2248612936403375e-16 1.5060207828933842e-14
  outer loop
    vertex 64.59049453907751 -18.32377236703486 115.92996993475421
    vertex 64.59049453907772 -19.413454373870756 126.55168155442244
    vertex 64.59049453907772 -18.946160367523095 126.55168155442244
  endloop
endfacet
facet normal -1.0 -2.2248612936403375e-16 1.5060207828933842e-14
  outer loop
    vertex 64.59049453907751 -18.32377236703486 115.92996993475421
    vertex 64.59049453907772 -18.946160367523095 126.55168155442244
    vertex 64.59049453907778 -18.323772367034824 125.13531933442248
  endloop
endfacet
facet normal 3.4396150757040165e-14 -2.4557183155543473e-14 1.0
  outer loop
    vertex 70.1480645030087 -20.710171903167492 125.13531933442236
    vertex 64.59049453907778 -20.035836576019168 125.13531933442248
    vertex 64.59049453907772 -20.71017190316747 125.13531933442248
  endloop
endfacet
facet normal 3.4396150757040165e-14 -2.4557183155543473e-14 1.0
  outer loop
    vertex 64.59049453907778 -20.035836576019168 125.13531933442248
    vertex 70.1480645030087 -20.710171903167492 125.13531933442236
    vertex 70.1480645030087 -20.0358365760191 125.13531933442236
  endloop
endfacet
facet normal -3.7072296545348685e-14 -1.7067551184599024e-14 -1.0
  outer loop
    vertex 70.14806450300844 -18.323772367034767 115.9299699347541
    vertex 64.59049453907754 -34.35424249032564 115.92996993475442
    vertex 64.59049453907751 -18.32377236703486 115.92996993475421
  endloop
endfacet
facet normal -3.7072296545348685e-14 -1.7067551184599024e-14 -1.0
  outer loop
    vertex 64.59049453907754 -34.35424249032564 115.92996993475442
    vertex 70.14806450300844 -18.323772367034767 115.9299699347541
    vertex 70.14806450300844 -34.35424249032564 115.92996993475433
  endloop
endfacet
facet normal -1.3897588718984685e-14 1.0 -3.482735727470279e-15
  outer loop
    vertex 64.59049453907751 -18.32377236703486 115.92996993475421
    vertex 70.1480645030087 -18.323772367034735 125.13531933442235
    vertex 70.14806450300844 -18.323772367034767 115.9299699347541
  endloop
endfacet
facet normal -1.3897588718984685e-14 1.0 -3.482735727470279e-15
  outer loop
    vertex 70.1480645030087 -18.323772367034735 125.13531933442235
    vertex 64.59049453907751 -18.32377236703486 115.92996993475421
    vertex 64.59049453907778 -18.323772367034824 125.13531933442248
  endloop
endfacet
facet normal -4.2077327462572295e-15 0.9574381904398833 0.2886383749386101
  outer loop
    vertex 64.59049453907778 -18.323772367034824 125.13531933442248
    vertex 70.14806450300864 -18.946160367522992 126.55168155442233
    vertex 70.1480645030087 -18.323772367034735 125.13531933442235
  endloop
endfacet
facet normal -4.2077327462572295e-15 0.9574381904398833 0.2886383749386101
  outer loop
    vertex 70.14806450300864 -18.946160367522992 126.55168155442233
    vertex 64.59049453907778 -18.323772367034824 125.13531933442248
    vertex 64.59049453907772 -18.946160367523095 126.55168155442244
  endloop
endfacet
facet normal 3.1521620956535e-14 -1.7505674080418588e-16 1.0
  outer loop
    vertex 70.14806450300864 -19.413454373870664 126.55168155442233
    vertex 64.59049453907772 -18.946160367523095 126.55168155442244
    vertex 64.59049453907772 -19.413454373870756 126.55168155442244
  endloop
endfacet
facet normal 3.1521620956535e-14 -1.7505674080418588e-16 1.0
  outer loop
    vertex 64.59049453907772 -18.946160367523095 126.55168155442244
    vertex 70.14806450300864 -19.413454373870664 126.55168155442233
    vertex 70.14806450300864 -18.946160367522992 126.55168155442233
  endloop
endfacet
facet normal 2.2404364269422635e-14 -0.957438933561378 0.28863590992953564
  outer loop
    vertex 70.14806450300864 -19.413454373870664 126.55168155442233
    vertex 64.59049453907778 -20.035836576019168 125.13531933442248
    vertex 70.1480645030087 -20.0358365760191 125.13531933442236
  endloop
endfacet
facet normal 2.2404364269422635e-14 -0.957438933561378 0.28863590992953564
  outer loop
    vertex 64.59049453907778 -20.035836576019168 125.13531933442248
    vertex 70.14806450300864 -19.413454373870664 126.55168155442233
    vertex 64.59049453907772 -19.413454373870756 126.55168155442244
  endloop
endfacet
endsolid pedro_robot
