solid pedro_robot
facet normal 0.999999999629634 2.7148150126632512e-05 1.9260823207940933e-06
  outer loop
    vertex 80.6292268752051 -30.664745493478055 148.0672764385931
    vertex 80.6295624346044 -35.39428201490002 114.18835115808804
    vertex 80.6293772028233 -30.66545990507623 114.1877347304476
  endloop
endfacet
facet normal 0.999999999629634 2.7148150126632512e-05 1.9260823207940933e-06
  outer loop
    vertex 80.6295624346044 -35.39428201490002 114.18835115808804
    vertex 80.6292268752051 -30.664745493478055 148.0672764385931
    vertex 80.6294123519199 -35.39367527005305 148.06740066623718
  endloop
endfacet
facet normal -3.050033812478388e-06 1.232162643489006e-05 0.9999999999194374
  outer loop
    vertex 55.612489549450544 -26.348498174033345 118.98043932670731
    vertex 58.41476345680798 -35.39380678340984 118.98034674754925
    vertex 58.41423340339651 -26.348437163891447 118.98034266730491
  endloop
endfacet
facet normal -3.050033812478388e-06 1.232162643489006e-05 0.9999999999194374
  outer loop
    vertex 58.41476345680798 -35.39380678340984 118.98034674754925
    vertex 55.612489549450544 -26.348498174033345 118.98043932670731
    vertex 55.61301960286266 -35.39386779355226 118.98044340695039
  endloop
endfacet
facet normal -2.3739268234322182e-05 -9.641711090202097e-06 -0.9999999996717424
  outer loop
    vertex 58.41246241249056 -35.39371546223782 143.27231485229876
    vertex 55.612450098097725 -26.348615260741948 143.2723327816347
    vertex 58.41244056655416 -26.34858644056221 143.27213757586236
  endloop
endfacet
facet normal -2.3739268234322182e-05 -9.641711090202097e-06 -0.9999999996717424
  outer loop
    vertex 55.612450098097725 -26.348615260741948 143.2723327816347
    vertex 58.41246241249056 -35.39371546223782 143.27231485229876
    vertex 55.61248137254731 -35.39375865242228 143.27224376692308
  endloop
endfacet
facet normal -0.999999999858763 -1.6527933553903486e-05 -3.0498492848525535e-06
  outer loop
    vertex 55.61306284472401 -35.393894009672266 114.18673330208648
    vertex 55.612489549450544 -26.348498174033345 118.98043932670731
    vertex 55.61253279130837 -26.348524390152267 114.18672922184352
  endloop
endfacet
facet normal -0.999999999858763 -1.6527933553903486e-05 -3.0498492848525535e-06
  outer loop
    vertex 55.612489549450544 -26.348498174033345 118.98043932670731
    vertex 55.61306284472401 -35.393894009672266 114.18673330208648
    vertex 55.61301960286266 -35.39386779355226 118.98044340695039
  endloop
endfacet
facet normal 0.999999977812478 5.240464924039883e-05 0.00020403136133544737
  outer loop
    vertex 62.29047732229452 -18.323965753936253 146.42902827231336
    vertex 62.29184040266136 -35.393736808848516 145.08023623180253
    vertex 62.29174697354806 -18.323856093027725 145.08000938675727
  endloop
endfacet
facet normal 0.999999977812478 5.240464924039883e-05 0.00020403136133544737
  outer loop
    vertex 62.29184040266136 -35.393736808848516 145.08023623180253
    vertex 62.29047732229452 -18.323965753936253 146.42902827231336
    vertex 62.29177038313016 -35.39371958264919 146.42733647290194
  endloop
endfacet
facet normal 0.9999999993875061 1.6859689981971564e-05 -3.067146923494654e-05
  outer loop
    vertex 58.41242068504513 -26.34848230775426 145.08012580812127
    vertex 58.41246241249056 -35.39371546223782 143.27231485229876
    vertex 58.41244056655416 -26.34858644056221 143.27213757586236
  endloop
endfacet
facet normal 0.9999999993875061 1.6859689981971564e-05 -3.067146923494654e-05
  outer loop
    vertex 58.41246241249056 -35.39371546223782 143.27231485229876
    vertex 58.41242068504513 -26.34848230775426 145.08012580812127
    vertex 58.41245754699006 -35.39368093392584 145.0801869115109
  endloop
endfacet
facet normal -3.076111191597069e-05 -8.312271157119114e-05 0.9999999960721844
  outer loop
    vertex 59.51655227955042 -18.323914404313534 117.13184188918683
    vertex 62.692117280463634 -35.393214436272125 117.13069253948119
    vertex 62.68954871125757 -18.323375436201697 117.13334805445186
  endloop
endfacet
facet normal -3.076111191597069e-05 -8.312271157119114e-05 0.9999999960721844
  outer loop
    vertex 62.692117280463634 -35.393214436272125 117.13069253948119
    vertex 59.51655227955042 -18.323914404313534 117.13184188918683
    vertex 59.51679122783749 -26.348359669597517 117.1318618713381
  endloop
endfacet
facet normal -3.076111191597069e-05 -8.312271157119114e-05 0.9999999960721844
  outer loop
    vertex 62.692117280463634 -35.393214436272125 117.13069253948119
    vertex 59.51679122783749 -26.348359669597517 117.1318618713381
    vertex 58.414421394215225 -26.348391193675564 117.13175235439519
  endloop
endfacet
facet normal -3.076111191597069e-05 -8.312271157119114e-05 0.9999999960721844
  outer loop
    vertex 62.692117280463634 -35.393214436272125 117.13069253948119
    vertex 58.414421394215225 -26.348391193675564 117.13175235439519
    vertex 58.4149514476292 -35.39376081319501 117.13175643463711
  endloop
endfacet
facet normal -0.9999999988227134 -4.147192949020718e-05 2.5192310246197756e-05
  outer loop
    vertex 55.61265936027233 -35.393615027006376 148.0658821714239
    vertex 55.612450098097725 -26.348615260741948 143.2723327816347
    vertex 55.61248137254731 -35.39375865242228 143.27224376692308
  endloop
endfacet
facet normal -0.9999999988227134 -4.147192949020718e-05 2.5192310246197756e-05
  outer loop
    vertex 55.612450098097725 -26.348615260741948 143.2723327816347
    vertex 55.61265936027233 -35.393615027006376 148.0658821714239
    vertex 55.61242110098881 -26.348414987912577 148.06585407800426
  endloop
endfacet
facet normal 2.648721051364766e-05 -1.9185354483136458e-05 0.9999999994651749
  outer loop
    vertex 62.69000785377345 -18.32413050410729 124.86442201185935
    vertex 70.14784565841029 -18.32339559481776 124.86417323931519
    vertex 69.14818280708121 -18.323370858503104 124.86405249079985
  endloop
endfacet
facet normal 2.648721051364766e-05 -1.9185354483136458e-05 0.9999999994651749
  outer loop
    vertex 70.14784565841029 -18.32339559481776 124.86417323931519
    vertex 62.69000785377345 -18.32413050410729 124.86442201185935
    vertex 70.14674074964317 -35.392794869470414 124.86403014912959
  endloop
endfacet
facet normal 2.648721051364766e-05 -1.9185354483136458e-05 0.9999999994651749
  outer loop
    vertex 70.14674074964317 -35.392794869470414 124.86403014912959
    vertex 62.69000785377345 -18.32413050410729 124.86442201185935
    vertex 62.69159946476651 -35.39323655462385 124.86390826790873
  endloop
endfacet
facet normal -0.9999998680198116 -0.0005137678587701536 -1.7166663237599746e-06
  outer loop
    vertex 62.69170855585254 -35.392917130570225 120.83724489090837
    vertex 62.68954871125757 -18.323375436201697 117.13334805445186
    vertex 62.692117280463634 -35.393214436272125 117.13069253948119
  endloop
endfacet
facet normal -0.9999998680198116 -0.0005137678587701536 -1.7166663237599746e-06
  outer loop
    vertex 62.68954871125757 -18.323375436201697 117.13334805445186
    vertex 62.69170855585254 -35.392917130570225 120.83724489090837
    vertex 62.69000785377345 -18.32413050410729 124.86442201185935
  endloop
endfacet
facet normal -0.9999998680198116 -0.0005137678587701536 -1.7166663237599746e-06
  outer loop
    vertex 62.69000785377345 -18.32413050410729 124.86442201185935
    vertex 62.69170855585254 -35.392917130570225 120.83724489090837
    vertex 62.69159946476651 -35.39323655462385 124.86390826790873
  endloop
endfacet
facet normal 4.198834884345308e-05 -1.3861759571616338e-05 -0.9999999990224152
  outer loop
    vertex 62.29184040266136 -35.393736808848516 145.08023623180253
    vertex 59.51371929104509 -18.323934110258314 145.0799543239989
    vertex 62.29174697354806 -18.323856093027725 145.08000938675727
  endloop
endfacet
facet normal 4.198834884345308e-05 -1.3861759571616338e-05 -0.9999999990224152
  outer loop
    vertex 59.51371929104509 -18.323934110258314 145.0799543239989
    vertex 62.29184040266136 -35.393736808848516 145.08023623180253
    vertex 59.513775855615236 -26.348472578371602 145.08012006391652
  endloop
endfacet
facet normal 4.198834884345308e-05 -1.3861759571616338e-05 -0.9999999990224152
  outer loop
    vertex 59.513775855615236 -26.348472578371602 145.08012006391652
    vertex 62.29184040266136 -35.393736808848516 145.08023623180253
    vertex 58.41242068504513 -26.34848230775426 145.08012580812127
  endloop
endfacet
facet normal 4.198834884345308e-05 -1.3861759571616338e-05 -0.9999999990224152
  outer loop
    vertex 58.41242068504513 -26.34848230775426 145.08012580812127
    vertex 62.29184040266136 -35.393736808848516 145.08023623180253
    vertex 58.41245754699006 -35.39368093392584 145.0801869115109
  endloop
endfacet
facet normal -6.148592826363242e-05 5.415609928362328e-06 0.999999998095076
  outer loop
    vertex 59.51378940345818 -26.34848869665471 148.06604770665086
    vertex 69.1467325728359 -18.324319119060206 148.0665987833723
    vertex 59.51373283888774 -18.323950228541452 148.0658819667332
  endloop
endfacet
facet normal -6.148592826363242e-05 5.415609928362328e-06 0.999999998095076
  outer loop
    vertex 55.61265936027233 -35.393615027006376 148.0658821714239
    vertex 59.51378940345818 -26.34848869665471 148.06604770665086
    vertex 55.61242110098881 -26.348414987912577 148.06585407800426
  endloop
endfacet
facet normal -6.148592826363242e-05 5.415609928362328e-06 0.999999998095076
  outer loop
    vertex 59.51378940345818 -26.34848869665471 148.06604770665086
    vertex 55.61265936027233 -35.393615027006376 148.0658821714239
    vertex 80.6292268752051 -30.664745493478055 148.0672764385931
  endloop
endfacet
facet normal -6.148592826363242e-05 5.415609928362328e-06 0.999999998095076
  outer loop
    vertex 80.6292268752051 -30.664745493478055 148.0672764385931
    vertex 55.61265936027233 -35.393615027006376 148.0658821714239
    vertex 80.6294123519199 -35.39367527005305 148.06740066623718
  endloop
endfacet
facet normal -6.148592826363242e-05 5.415609928362328e-06 0.999999998095076
  outer loop
    vertex 69.1467325728359 -18.324319119060206 148.0665987833723
    vertex 80.6292268752051 -30.664745493478055 148.0672764385931
    vertex 70.73238450214264 -18.323926170349306 148.06674792405025
  endloop
endfacet
facet normal -6.148592826363242e-05 5.415609928362328e-06 0.999999998095076
  outer loop
    vertex 80.6292268752051 -30.664745493478055 148.0672764385931
    vertex 69.1467325728359 -18.324319119060206 148.0665987833723
    vertex 59.51378940345818 -26.34848869665471 148.06604770665086
  endloop
endfacet
facet normal 0.7801615363069206 0.625578114148422 1.9124053299601717e-05
  outer loop
    vertex 70.73238450214264 -18.323926170349306 148.06674792405025
    vertex 80.6293772028233 -30.66545990507623 114.1877347304476
    vertex 70.73439226659117 -18.32379433446953 114.18720633159698
  endloop
endfacet
facet normal 0.7801615363069206 0.625578114148422 1.9124053299601717e-05
  outer loop
    vertex 80.6293772028233 -30.66545990507623 114.1877347304476
    vertex 70.73238450214264 -18.323926170349306 148.06674792405025
    vertex 80.6292268752051 -30.664745493478055 148.0672764385931
  endloop
endfacet
facet normal 8.281677826956966e-06 0.9999999999058229 1.0943863617564216e-05
  outer loop
    vertex 69.1467325728359 -18.324319119060206 148.0665987833723
    vertex 70.1450675450601 -18.32388182996895 146.43111084341592
    vertex 69.14540469373098 -18.32385709365431 146.4309900949005
  endloop
endfacet
facet normal 8.281677826956966e-06 0.9999999999058229 1.0943863617564216e-05
  outer loop
    vertex 70.1450675450601 -18.32388182996895 146.43111084341592
    vertex 69.1467325728359 -18.324319119060206 148.0665987833723
    vertex 70.73238450214264 -18.323926170349306 148.06674792405025
  endloop
endfacet
facet normal 8.281677826956966e-06 0.9999999999058229 1.0943863617564216e-05
  outer loop
    vertex 70.1450675450601 -18.32388182996895 146.43111084341592
    vertex 70.73238450214264 -18.323926170349306 148.06674792405025
    vertex 70.14784565841029 -18.32339559481776 124.86417323931519
  endloop
endfacet
facet normal 8.281677826956966e-06 0.9999999999058229 1.0943863617564216e-05
  outer loop
    vertex 69.14818280708121 -18.323370858503104 124.86405249079985
    vertex 69.1486411443757 -18.32383225105893 114.18711424389893
    vertex 69.14818246429223 -18.32374278150332 119.2952163893232
  endloop
endfacet
facet normal 8.281677826956966e-06 0.9999999999058229 1.0943863617564216e-05
  outer loop
    vertex 69.1486411443757 -18.32383225105893 114.18711424389893
    vertex 69.14818280708121 -18.323370858503104 124.86405249079985
    vertex 70.14784565841029 -18.32339559481776 124.86417323931519
  endloop
endfacet
facet normal 8.281677826956966e-06 0.9999999999058229 1.0943863617564216e-05
  outer loop
    vertex 69.1486411443757 -18.32383225105893 114.18711424389893
    vertex 70.14784565841029 -18.32339559481776 124.86417323931519
    vertex 70.73439226659117 -18.32379433446953 114.18720633159698
  endloop
endfacet
facet normal 8.281677826956966e-06 0.9999999999058229 1.0943863617564216e-05
  outer loop
    vertex 70.73439226659117 -18.32379433446953 114.18720633159698
    vertex 70.14784565841029 -18.32339559481776 124.86417323931519
    vertex 70.73238450214264 -18.323926170349306 148.06674792405025
  endloop
endfacet
facet normal 8.395156307668669e-06 0.9999999981082558 6.093447232734438e-05
  outer loop
    vertex 69.1467325728359 -18.324319119060206 148.0665987833723
    vertex 62.29047732229452 -18.323965753936253 146.42902827231336
    vertex 59.51373283888774 -18.323950228541452 148.0658819667332
  endloop
endfacet
facet normal 8.395156307668669e-06 0.9999999981082558 6.093447232734438e-05
  outer loop
    vertex 62.29047732229452 -18.323965753936253 146.42902827231336
    vertex 69.1467325728359 -18.324319119060206 148.0665987833723
    vertex 69.14540469373098 -18.32385709365431 146.4309900949005
  endloop
endfacet
facet normal 8.395156307668669e-06 0.9999999981082558 6.093447232734438e-05
  outer loop
    vertex 59.51373283888774 -18.323950228541452 148.0658819667332
    vertex 62.29174697354806 -18.323856093027725 145.08000938675727
    vertex 59.51371929104509 -18.323934110258314 145.0799543239989
  endloop
endfacet
facet normal 8.395156307668669e-06 0.9999999981082558 6.093447232734438e-05
  outer loop
    vertex 62.29174697354806 -18.323856093027725 145.08000938675727
    vertex 59.51373283888774 -18.323950228541452 148.0658819667332
    vertex 62.29047732229452 -18.323965753936253 146.42902827231336
  endloop
endfacet
facet normal 4.801818649027992e-05 -1.916943217565984e-05 -0.9999999986633934
  outer loop
    vertex 80.6293772028233 -30.66545990507623 114.1877347304476
    vertex 69.1486411443757 -18.32383225105893 114.18711424389893
    vertex 70.73439226659117 -18.32379433446953 114.18720633159698
  endloop
endfacet
facet normal 4.801818649027992e-05 -1.916943217565984e-05 -0.9999999986633934
  outer loop
    vertex 69.1486411443757 -18.32383225105893 114.18711424389893
    vertex 80.6293772028233 -30.66545990507623 114.1877347304476
    vertex 59.516871939605075 -18.323951072496946 114.1868953006573
  endloop
endfacet
facet normal 4.801818649027992e-05 -1.916943217565984e-05 -0.9999999986633934
  outer loop
    vertex 59.516871939605075 -18.323951072496946 114.1868953006573
    vertex 80.6293772028233 -30.66545990507623 114.1877347304476
    vertex 59.517110887892265 -26.34839633778078 114.1869152828087
  endloop
endfacet
facet normal 4.801818649027992e-05 -1.916943217565984e-05 -0.9999999986633934
  outer loop
    vertex 59.517110887892265 -26.34839633778078 114.1869152828087
    vertex 80.6293772028233 -30.66545990507623 114.1877347304476
    vertex 55.61253279130837 -26.348524390152267 114.18672922184352
  endloop
endfacet
facet normal 4.801818649027992e-05 -1.916943217565984e-05 -0.9999999986633934
  outer loop
    vertex 55.61253279130837 -26.348524390152267 114.18672922184352
    vertex 80.6293772028233 -30.66545990507623 114.1877347304476
    vertex 55.61306284472401 -35.393894009672266 114.18673330208648
  endloop
endfacet
facet normal 4.801818649027992e-05 -1.916943217565984e-05 -0.9999999986633934
  outer loop
    vertex 55.61306284472401 -35.393894009672266 114.18673330208648
    vertex 80.6293772028233 -30.66545990507623 114.1877347304476
    vertex 80.6295624346044 -35.39428201490002 114.18835115808804
  endloop
endfacet
facet normal -3.337057917368543e-05 0.9999999994315878 4.819654602199996e-06
  outer loop
    vertex 69.14818280708121 -18.323370858503104 124.86405249079985
    vertex 69.14818246429223 -18.32374278150332 119.2952163893232
    vertex 62.69000785377345 -18.32413050410729 124.86442201185935
  endloop
endfacet
facet normal -3.337057917368543e-05 0.9999999994315878 4.819654602199996e-06
  outer loop
    vertex 62.68954871125757 -18.323375436201697 117.13334805445186
    vertex 59.516871939605075 -18.323951072496946 114.1868953006573
    vertex 59.51655227955042 -18.323914404313534 117.13184188918683
  endloop
endfacet
facet normal -3.337057917368543e-05 0.9999999994315878 4.819654602199996e-06
  outer loop
    vertex 59.516871939605075 -18.323951072496946 114.1868953006573
    vertex 62.68954871125757 -18.323375436201697 117.13334805445186
    vertex 69.1486411443757 -18.32383225105893 114.18711424389893
  endloop
endfacet
facet normal -3.337057917368543e-05 0.9999999994315878 4.819654602199996e-06
  outer loop
    vertex 69.1486411443757 -18.32383225105893 114.18711424389893
    vertex 62.68954871125757 -18.323375436201697 117.13334805445186
    vertex 62.69000785377345 -18.32413050410729 124.86442201185935
  endloop
endfacet
facet normal -3.337057917368543e-05 0.9999999994315878 4.819654602199996e-06
  outer loop
    vertex 69.1486411443757 -18.32383225105893 114.18711424389893
    vertex 62.69000785377345 -18.32413050410729 124.86442201185935
    vertex 69.14818246429223 -18.32374278150332 119.2952163893232
  endloop
endfacet
facet normal -2.97775458828941e-05 0.9999999995535485 -2.490159791016424e-06
  outer loop
    vertex 58.41423340339651 -26.348437163891447 118.98034266730491
    vertex 55.61253279130837 -26.348524390152267 114.18672922184352
    vertex 55.612489549450544 -26.348498174033345 118.98043932670731
  endloop
endfacet
facet normal -2.97775458828941e-05 0.9999999995535485 -2.490159791016424e-06
  outer loop
    vertex 55.61253279130837 -26.348524390152267 114.18672922184352
    vertex 58.41423340339651 -26.348437163891447 118.98034266730491
    vertex 58.414421394215225 -26.348391193675564 117.13175235439519
  endloop
endfacet
facet normal -2.97775458828941e-05 0.9999999995535485 -2.490159791016424e-06
  outer loop
    vertex 55.61253279130837 -26.348524390152267 114.18672922184352
    vertex 58.414421394215225 -26.348391193675564 117.13175235439519
    vertex 59.517110887892265 -26.34839633778078 114.1869152828087
  endloop
endfacet
facet normal -2.97775458828941e-05 0.9999999995535485 -2.490159791016424e-06
  outer loop
    vertex 59.517110887892265 -26.34839633778078 114.1869152828087
    vertex 58.414421394215225 -26.348391193675564 117.13175235439519
    vertex 59.51679122783749 -26.348359669597517 117.1318618713381
  endloop
endfacet
facet normal -0.9999999944191058 -2.977779814760403e-05 -0.00010136602544879833
  outer loop
    vertex 59.517110887892265 -26.34839633778078 114.1869152828087
    vertex 59.51655227955042 -18.323914404313534 117.13184188918683
    vertex 59.516871939605075 -18.323951072496946 114.1868953006573
  endloop
endfacet
facet normal -0.9999999944191058 -2.977779814760403e-05 -0.00010136602544879833
  outer loop
    vertex 59.51655227955042 -18.323914404313534 117.13184188918683
    vertex 59.517110887892265 -26.34839633778078 114.1869152828087
    vertex 59.51679122783749 -26.348359669597517 117.1318618713381
  endloop
endfacet
facet normal -1.0483497955391445e-05 0.9999999996770215 -2.3152831541442628e-05
  outer loop
    vertex 59.51378940345818 -26.34848869665471 148.06604770665086
    vertex 55.612450098097725 -26.348615260741948 143.2723327816347
    vertex 55.61242110098881 -26.348414987912577 148.06585407800426
  endloop
endfacet
facet normal -1.0483497955391445e-05 0.9999999996770215 -2.3152831541442628e-05
  outer loop
    vertex 55.612450098097725 -26.348615260741948 143.2723327816347
    vertex 59.51378940345818 -26.34848869665471 148.06604770665086
    vertex 58.41242068504513 -26.34848230775426 145.08012580812127
  endloop
endfacet
facet normal -1.0483497955391445e-05 0.9999999996770215 -2.3152831541442628e-05
  outer loop
    vertex 58.41242068504513 -26.34848230775426 145.08012580812127
    vertex 59.51378940345818 -26.34848869665471 148.06604770665086
    vertex 59.513775855615236 -26.348472578371602 145.08012006391652
  endloop
endfacet
facet normal -1.0483497955391445e-05 0.9999999996770215 -2.3152831541442628e-05
  outer loop
    vertex 58.41244056655416 -26.34858644056221 143.27213757586236
    vertex 55.612450098097725 -26.348615260741948 143.2723327816347
    vertex 58.41242068504513 -26.34848230775426 145.08012580812127
  endloop
endfacet
facet normal 0.9999999967652549 1.6528724472078836e-05 7.871652816214562e-05
  outer loop
    vertex 58.41423340339651 -26.348437163891447 118.98034266730491
    vertex 58.4149514476292 -35.39376081319501 117.13175643463711
    vertex 58.414421394215225 -26.348391193675564 117.13175235439519
  endloop
endfacet
facet normal 0.9999999967652549 1.6528724472078836e-05 7.871652816214562e-05
  outer loop
    vertex 58.4149514476292 -35.39376081319501 117.13175643463711
    vertex 58.41423340339651 -26.348437163891447 118.98034266730491
    vertex 58.41476345680798 -35.39380678340984 118.98034674754925
  endloop
endfacet
facet normal -0.9999999999750566 -7.0489591985100555e-06 -4.4625441380791637e-07
  outer loop
    vertex 59.513775855615236 -26.348472578371602 145.08012006391652
    vertex 59.51373283888774 -18.323950228541452 148.0658819667332
    vertex 59.51371929104509 -18.323934110258314 145.0799543239989
  endloop
endfacet
facet normal -0.9999999999750566 -7.0489591985100555e-06 -4.4625441380791637e-07
  outer loop
    vertex 59.51373283888774 -18.323950228541452 148.0658819667332
    vertex 59.513775855615236 -26.348472578371602 145.08012006391652
    vertex 59.51378940345818 -26.34848869665471 148.06604770665086
  endloop
endfacet
facet normal 0.00043353338024160925 3.963769616520782e-05 -0.9999999052388261
  outer loop
    vertex 70.1450675450601 -18.32388182996895 146.43111084341592
    vertex 62.29047732229452 -18.323965753936253 146.42902827231336
    vertex 69.14540469373098 -18.32385709365431 146.4309900949005
  endloop
endfacet
facet normal 0.00043353338024160925 3.963769616520782e-05 -0.9999999052388261
  outer loop
    vertex 62.29047732229452 -18.323965753936253 146.42902827231336
    vertex 70.1450675450601 -18.32388182996895 146.43111084341592
    vertex 70.1450047401507 -35.39387057966873 146.43145899771378
  endloop
endfacet
facet normal 0.00043353338024160925 3.963769616520782e-05 -0.9999999052388261
  outer loop
    vertex 62.29047732229452 -18.323965753936253 146.42902827231336
    vertex 70.1450047401507 -35.39387057966873 146.43145899771378
    vertex 62.29177038313016 -35.39371958264919 146.42733647290194
  endloop
endfacet
facet normal -0.9999999923988309 2.474465711052426e-05 -0.00012078923841112343
  outer loop
    vertex 70.1450047401507 -35.39387057966873 146.43145899771378
    vertex 70.14784565841029 -18.32339559481776 124.86417323931519
    vertex 70.14674074964317 -35.392794869470414 124.86403014912959
  endloop
endfacet
facet normal -0.9999999923988309 2.474465711052426e-05 -0.00012078923841112343
  outer loop
    vertex 70.14784565841029 -18.32339559481776 124.86417323931519
    vertex 70.1450047401507 -35.39387057966873 146.43145899771378
    vertex 70.1450675450601 -18.32388182996895 146.43111084341592
  endloop
endfacet
facet normal -9.909509315824663e-07 -0.9999999999944764 -3.172604434550424e-06
  outer loop
    vertex 58.41246241249056 -35.39371546223782 143.27231485229876
    vertex 55.61265936027233 -35.393615027006376 148.0658821714239
    vertex 55.61248137254731 -35.39375865242228 143.27224376692308
  endloop
endfacet
facet normal -9.909509315824663e-07 -0.9999999999944764 -3.172604434550424e-06
  outer loop
    vertex 55.61265936027233 -35.393615027006376 148.0658821714239
    vertex 58.41246241249056 -35.39371546223782 143.27231485229876
    vertex 58.41245754699006 -35.39368093392584 145.0801869115109
  endloop
endfacet
facet normal -9.909509315824663e-07 -0.9999999999944764 -3.172604434550424e-06
  outer loop
    vertex 55.61306284472401 -35.393894009672266 114.18673330208648
    vertex 58.41476345680798 -35.39380678340984 118.98034674754925
    vertex 55.61301960286266 -35.39386779355226 118.98044340695039
  endloop
endfacet
facet normal -9.909509315824663e-07 -0.9999999999944764 -3.172604434550424e-06
  outer loop
    vertex 58.41476345680798 -35.39380678340984 118.98034674754925
    vertex 55.61306284472401 -35.393894009672266 114.18673330208648
    vertex 58.4149514476292 -35.39376081319501 117.13175643463711
  endloop
endfacet
facet normal -9.909509315824663e-07 -0.9999999999944764 -3.172604434550424e-06
  outer loop
    vertex 58.4149514476292 -35.39376081319501 117.13175643463711
    vertex 55.61306284472401 -35.393894009672266 114.18673330208648
    vertex 80.6295624346044 -35.39428201490002 114.18835115808804
  endloop
endfacet
facet normal -9.909509315824663e-07 -0.9999999999944764 -3.172604434550424e-06
  outer loop
    vertex 58.4149514476292 -35.39376081319501 117.13175643463711
    vertex 80.6295624346044 -35.39428201490002 114.18835115808804
    vertex 62.692117280463634 -35.393214436272125 117.13069253948119
  endloop
endfacet
facet normal -9.909509315824663e-07 -0.9999999999944764 -3.172604434550424e-06
  outer loop
    vertex 62.692117280463634 -35.393214436272125 117.13069253948119
    vertex 80.6295624346044 -35.39428201490002 114.18835115808804
    vertex 70.14674074964317 -35.392794869470414 124.86403014912959
  endloop
endfacet
facet normal -9.909509315824663e-07 -0.9999999999944764 -3.172604434550424e-06
  outer loop
    vertex 70.14674074964317 -35.392794869470414 124.86403014912959
    vertex 80.6295624346044 -35.39428201490002 114.18835115808804
    vertex 80.6294123519199 -35.39367527005305 148.06740066623718
  endloop
endfacet
facet normal -9.909509315824663e-07 -0.9999999999944764 -3.172604434550424e-06
  outer loop
    vertex 55.61265936027233 -35.393615027006376 148.0658821714239
    vertex 62.29177038313016 -35.39371958264919 146.42733647290194
    vertex 80.6294123519199 -35.39367527005305 148.06740066623718
  endloop
endfacet
facet normal -9.909509315824663e-07 -0.9999999999944764 -3.172604434550424e-06
  outer loop
    vertex 62.29177038313016 -35.39371958264919 146.42733647290194
    vertex 55.61265936027233 -35.393615027006376 148.0658821714239
    vertex 58.41245754699006 -35.39368093392584 145.0801869115109
  endloop
endfacet
facet normal -9.909509315824663e-07 -0.9999999999944764 -3.172604434550424e-06
  outer loop
    vertex 80.6294123519199 -35.39367527005305 148.06740066623718
    vertex 62.29177038313016 -35.39371958264919 146.42733647290194
    vertex 70.1450047401507 -35.39387057966873 146.43145899771378
  endloop
endfacet
facet normal -9.909509315824663e-07 -0.9999999999944764 -3.172604434550424e-06
  outer loop
    vertex 80.6294123519199 -35.39367527005305 148.06740066623718
    vertex 70.1450047401507 -35.39387057966873 146.43145899771378
    vertex 70.14674074964317 -35.392794869470414 124.86403014912959
  endloop
endfacet
facet normal -9.909509315824663e-07 -0.9999999999944764 -3.172604434550424e-06
  outer loop
    vertex 62.69170855585254 -35.392917130570225 120.83724489090837
    vertex 70.14674074964317 -35.392794869470414 124.86403014912959
    vertex 62.69159946476651 -35.39323655462385 124.86390826790873
  endloop
endfacet
facet normal -9.909509315824663e-07 -0.9999999999944764 -3.172604434550424e-06
  outer loop
    vertex 70.14674074964317 -35.392794869470414 124.86403014912959
    vertex 62.69170855585254 -35.392917130570225 120.83724489090837
    vertex 62.692117280463634 -35.393214436272125 117.13069253948119
  endloop
endfacet
facet normal -9.909509315824663e-07 -0.9999999999944764 -3.172604434550424e-06
  outer loop
    vertex 62.29184040266136 -35.393736808848516 145.08023623180253
    vertex 62.29177038313016 -35.39371958264919 146.42733647290194
    vertex 58.41245754699006 -35.39368093392584 145.0801869115109
  endloop
endfacet
facet normal 1.3483609525098392e-15 -0.9574378188771843 -0.28863960744100925
  outer loop
    vertex 70.14577479312342 -34.35445592043854 146.81546015630067
    vertex 59.51372697451969 -34.35445592043853 146.81546015630053
    vertex 70.14577479312335 -33.73206502078035 145.39909793630065
  endloop
endfacet
facet normal 1.3483609525098392e-15 -0.9574378188771843 -0.28863960744100925
  outer loop
    vertex 59.51372697451967 -33.73206502078033 145.3990979363005
    vertex 70.14577479312335 -33.73206502078035 145.39909793630065
    vertex 59.51372697451969 -34.35445592043853 146.81546015630053
  endloop
endfacet
facet normal 2.0381591858264254e-15 -4.8736523314941506e-14 -1.0
  outer loop
    vertex 59.51372697451967 -33.73206502078033 145.3990979363005
    vertex 59.51372697451967 -33.26477681277252 145.3990979363005
    vertex 70.14577479312335 -33.73206502078035 145.39909793630065
  endloop
endfacet
facet normal 2.0381591858264254e-15 -4.8736523314941506e-14 -1.0
  outer loop
    vertex 70.14577479312335 -33.26477681277252 145.39909793630068
    vertex 70.14577479312335 -33.73206502078035 145.39909793630065
    vertex 59.51372697451967 -33.26477681277252 145.3990979363005
  endloop
endfacet
facet normal -1.1222446303752667e-15 0.9574378188771842 -0.28863960744101
  outer loop
    vertex 70.14577479312342 -32.64238591311433 146.81546015630073
    vertex 70.14577479312335 -33.26477681277252 145.39909793630068
    vertex 59.51372697451969 -32.64238591311433 146.81546015630053
  endloop
endfacet
facet normal -1.1222446303752667e-15 0.9574378188771842 -0.28863960744101
  outer loop
    vertex 59.51372697451967 -33.26477681277252 145.3990979363005
    vertex 59.51372697451969 -32.64238591311433 146.81546015630053
    vertex 70.14577479312335 -33.26477681277252 145.39909793630068
  endloop
endfacet
facet normal -6.1697963514403654e-15 -3.259208626949397e-15 -1.0
  outer loop
    vertex 59.51372697451969 -32.64238591311433 146.81546015630053
    vertex 59.51372697451969 -31.96805348513582 146.81546015630053
    vertex 70.14577479312342 -32.64238591311433 146.81546015630073
  endloop
endfacet
facet normal -6.1697963514403654e-15 -3.259208626949397e-15 -1.0
  outer loop
    vertex 70.14577479312342 -31.96805348513582 146.81546015630073
    vertex 70.14577479312342 -32.64238591311433 146.81546015630073
    vertex 59.51372697451969 -31.96805348513582 146.81546015630053
  endloop
endfacet
facet normal -1.192013281791731e-15 -0.9574381904398797 -0.2886383749386223
  outer loop
    vertex 70.14577479312342 -31.96805348513582 146.81546015630073
    vertex 59.51372697451969 -31.96805348513582 146.81546015630053
    vertex 70.14577479312335 -31.345665484647533 145.39909793630068
  endloop
endfacet
facet normal -1.192013281791731e-15 -0.9574381904398797 -0.2886383749386223
  outer loop
    vertex 59.51372697451967 -31.345665484647533 145.3990979363005
    vertex 70.14577479312335 -31.345665484647533 145.39909793630068
    vertex 59.51372697451969 -31.96805348513582 146.81546015630053
  endloop
endfacet
facet normal -1.899227072698056e-15 -8.443864206825877e-16 -1.0
  outer loop
    vertex 59.51372697451967 -31.345665484647533 145.3990979363005
    vertex 59.51372697451967 -30.878374377469804 145.3990979363005
    vertex 70.14577479312335 -31.345665484647533 145.39909793630068
  endloop
endfacet
facet normal -1.899227072698056e-15 -8.443864206825877e-16 -1.0
  outer loop
    vertex 70.14577479312335 -30.87837437746982 145.39909793630068
    vertex 70.14577479312335 -31.345665484647533 145.39909793630068
    vertex 59.51372697451967 -30.878374377469804 145.3990979363005
  endloop
endfacet
facet normal -1.1173981857994613e-15 0.9574381904398815 -0.28863837493861577
  outer loop
    vertex 70.14577479312342 -30.25598637698153 146.81546015630073
    vertex 70.14577479312335 -30.87837437746982 145.39909793630068
    vertex 59.51372697451969 -30.25598637698153 146.81546015630053
  endloop
endfacet
facet normal -1.1173981857994613e-15 0.9574381904398815 -0.28863837493861577
  outer loop
    vertex 59.51372697451967 -30.878374377469804 145.3990979363005
    vertex 59.51372697451969 -30.25598637698153 146.81546015630053
    vertex 70.14577479312335 -30.87837437746982 145.39909793630068
  endloop
endfacet
facet normal -6.1697963514403654e-15 -3.2592190090839174e-15 -1.0
  outer loop
    vertex 59.51372697451969 -30.25598637698153 146.81546015630053
    vertex 59.51372697451969 -29.581656848172916 146.81546015630053
    vertex 70.14577479312342 -30.25598637698153 146.81546015630073
  endloop
endfacet
facet normal -6.1697963514403654e-15 -3.2592190090839174e-15 -1.0
  outer loop
    vertex 70.14577479312342 -29.58165684817293 146.81546015630073
    vertex 70.14577479312342 -30.25598637698153 146.81546015630073
    vertex 59.51372697451969 -29.581656848172916 146.81546015630053
  endloop
endfacet
facet normal -1.1864053931381371e-15 -0.9574378188771845 -0.2886396074410089
  outer loop
    vertex 70.14577479312342 -29.58165684817293 146.81546015630073
    vertex 59.51372697451969 -29.581656848172916 146.81546015630053
    vertex 70.14577479312335 -28.95926594851452 145.39909793630068
  endloop
endfacet
facet normal -1.1864053931381371e-15 -0.9574378188771845 -0.2886396074410089
  outer loop
    vertex 59.51372697451967 -28.95926594851452 145.3990979363005
    vertex 70.14577479312335 -28.95926594851452 145.39909793630068
    vertex 59.51372697451969 -29.581656848172916 146.81546015630053
  endloop
endfacet
facet normal -1.899227072698056e-15 -8.443864206825877e-16 -1.0
  outer loop
    vertex 59.51372697451967 -28.95926594851452 145.3990979363005
    vertex 59.51372697451967 -28.491977740506737 145.3990979363005
    vertex 70.14577479312335 -28.95926594851452 145.39909793630068
  endloop
endfacet
facet normal -1.899227072698056e-15 -8.443864206825877e-16 -1.0
  outer loop
    vertex 70.14577479312335 -28.491977740506737 145.39909793630068
    vertex 70.14577479312335 -28.95926594851452 145.39909793630068
    vertex 59.51372697451967 -28.491977740506737 145.3990979363005
  endloop
endfacet
facet normal -1.1222467483952434e-15 0.9574374473131905 -0.28864083994196243
  outer loop
    vertex 70.14577479312342 -27.8695839416786 146.81546015630073
    vertex 70.14577479312335 -28.491977740506737 145.39909793630068
    vertex 59.51372697451969 -27.869583941678567 146.81546015630053
  endloop
endfacet
facet normal -1.1222467483952434e-15 0.9574374473131905 -0.28864083994196243
  outer loop
    vertex 59.51372697451967 -28.491977740506737 145.3990979363005
    vertex 59.51372697451969 -27.869583941678567 146.81546015630053
    vertex 70.14577479312335 -28.491977740506737 145.39909793630068
  endloop
endfacet
facet normal -6.1697963514403654e-15 -3.2592190090839174e-15 -1.0
  outer loop
    vertex 59.51372697451969 -27.869583941678567 146.81546015630053
    vertex 59.51372697451969 -27.195254412870074 146.81546015630053
    vertex 70.14577479312342 -27.8695839416786 146.81546015630073
  endloop
endfacet
facet normal -6.1697963514403654e-15 -3.2592190090839174e-15 -1.0
  outer loop
    vertex 70.14577479312342 -27.195254412870074 146.81546015630073
    vertex 70.14577479312342 -27.8695839416786 146.81546015630073
    vertex 59.51372697451969 -27.195254412870074 146.81546015630053
  endloop
endfacet
facet normal -1.1836013946729212e-15 -0.9574374473131905 -0.28864083994196194
  outer loop
    vertex 70.14577479312342 -27.195254412870074 146.81546015630073
    vertex 59.51372697451969 -27.195254412870074 146.81546015630053
    vertex 70.14577479312335 -26.57286061404181 145.39909793630068
  endloop
endfacet
facet normal -1.1836013946729212e-15 -0.9574374473131905 -0.28864083994196194
  outer loop
    vertex 59.51372697451967 -26.57286061404181 145.3990979363004
    vertex 70.14577479312335 -26.57286061404181 145.39909793630068
    vertex 59.51372697451969 -27.195254412870074 146.81546015630053
  endloop
endfacet
facet normal -1.899227072698056e-15 -8.443864206825877e-16 -1.0
  outer loop
    vertex 59.51372697451967 -26.57286061404181 145.3990979363004
    vertex 59.51372697451967 -26.105578204373874 145.3990979363004
    vertex 70.14577479312335 -26.57286061404181 145.39909793630068
  endloop
endfacet
facet normal -1.899227072698056e-15 -8.443864206825877e-16 -1.0
  outer loop
    vertex 70.14577479312335 -26.10557820437391 145.39909793630068
    vertex 70.14577479312335 -26.57286061404181 145.39909793630068
    vertex 59.51372697451967 -26.105578204373874 145.3990979363004
  endloop
endfacet
facet normal -1.1222467483952434e-15 0.9574374473131905 -0.28864083994196243
  outer loop
    vertex 70.14577479312342 -25.483184405545796 146.81546015630073
    vertex 70.14577479312335 -26.10557820437391 145.39909793630068
    vertex 59.51372697451969 -25.48318440554577 146.81546015630053
  endloop
endfacet
facet normal -1.1222467483952434e-15 0.9574374473131905 -0.28864083994196243
  outer loop
    vertex 59.51372697451967 -26.105578204373874 145.3990979363004
    vertex 59.51372697451969 -25.48318440554577 146.81546015630053
    vertex 70.14577479312335 -26.10557820437391 145.39909793630068
  endloop
endfacet
facet normal -1.5660440524802307e-15 -2.6636044740573448e-14 -1.0
  outer loop
    vertex 59.51372697451969 -25.48318440554577 146.81546015630053
    vertex 59.51372697451969 -24.808854876737122 146.81546015630053
    vertex 70.14577479312342 -25.483184405545796 146.81546015630073
  endloop
endfacet
facet normal -1.5660440524802307e-15 -2.6636044740573448e-14 -1.0
  outer loop
    vertex 70.14577479312342 -24.808854876737122 146.81546015630073
    vertex 70.14577479312342 -25.483184405545796 146.81546015630073
    vertex 59.51372697451969 -24.808854876737122 146.81546015630053
  endloop
endfacet
facet normal 1.3572705919174814e-15 -0.9574381904398797 -0.2886383749386223
  outer loop
    vertex 70.14577479312342 -24.808854876737122 146.81546015630073
    vertex 59.51372697451969 -24.808854876737122 146.81546015630053
    vertex 70.14577479312335 -24.186466876248886 145.39909793630068
  endloop
endfacet
facet normal 1.3572705919174814e-15 -0.9574381904398797 -0.2886383749386223
  outer loop
    vertex 59.51372697451967 -24.186466876248886 145.39909793630036
    vertex 70.14577479312335 -24.186466876248886 145.39909793630068
    vertex 59.51372697451969 -24.808854876737122 146.81546015630053
  endloop
endfacet
facet normal 2.5723286721062748e-14 2.397266415449696e-13 -1.0
  outer loop
    vertex 59.51372697451967 -24.186466876248886 145.39909793630036
    vertex 59.51372697451967 -23.719172869901225 145.39909793630036
    vertex 70.14577479312335 -24.186466876248886 145.39909793630068
  endloop
endfacet
facet normal 2.5723286721062748e-14 2.397266415449696e-13 -1.0
  outer loop
    vertex 70.14577479312335 -23.71917286990126 145.39909793630088
    vertex 70.14577479312335 -24.186466876248886 145.39909793630068
    vertex 59.51372697451967 -23.719172869901225 145.39909793630036
  endloop
endfacet
facet normal 9.607940801015849e-15 0.9574381904398813 -0.2886383749386171
  outer loop
    vertex 70.14577479312342 -23.096784869413035 146.81546015630082
    vertex 70.14577479312335 -23.71917286990126 145.39909793630088
    vertex 59.51372697451969 -23.096784869413035 146.81546015630053
  endloop
endfacet
facet normal 9.607940801015849e-15 0.9574381904398813 -0.2886383749386171
  outer loop
    vertex 59.51372697451967 -23.719172869901225 145.39909793630036
    vertex 59.51372697451969 -23.096784869413035 146.81546015630053
    vertex 70.14577479312335 -23.71917286990126 145.39909793630088
  endloop
endfacet
facet normal 3.2931693197676056e-14 2.828487542801489e-14 -1.0
  outer loop
    vertex 59.51372697451969 -23.096784869413035 146.81546015630053
    vertex 59.51372697451969 -22.42244954226452 146.81546015630056
    vertex 70.14577479312342 -23.096784869413035 146.81546015630082
  endloop
endfacet
facet normal 3.2931693197676056e-14 2.828487542801489e-14 -1.0
  outer loop
    vertex 70.14577479312342 -22.42244954226452 146.81546015630082
    vertex 70.14577479312342 -23.096784869413035 146.81546015630082
    vertex 59.51372697451969 -22.42244954226452 146.81546015630056
  endloop
endfacet
facet normal 1.1308217454575248e-14 -0.9574389335613789 -0.2886359099295331
  outer loop
    vertex 70.14577479312342 -22.42244954226452 146.81546015630082
    vertex 59.51372697451969 -22.42244954226452 146.81546015630056
    vertex 70.14577479312335 -21.800067340116094 145.39909793630088
  endloop
endfacet
facet normal 1.1308217454575248e-14 -0.9574389335613789 -0.2886359099295331
  outer loop
    vertex 59.51372697451967 -21.800067340116094 145.39909793630045
    vertex 70.14577479312335 -21.800067340116094 145.39909793630088
    vertex 59.51372697451969 -22.42244954226452 146.81546015630056
  endloop
endfacet
facet normal 4.147283175516067e-14 4.8160471014346386e-14 -1.0
  outer loop
    vertex 59.51372697451967 -21.800067340116094 145.39909793630045
    vertex 59.51372697451967 -21.33277333376841 145.39909793630048
    vertex 70.14577479312335 -21.800067340116094 145.39909793630088
  endloop
endfacet
facet normal 4.147283175516067e-14 4.8160471014346386e-14 -1.0
  outer loop
    vertex 70.14577479312335 -21.33277333376841 145.39909793630088
    vertex 70.14577479312335 -21.800067340116094 145.39909793630088
    vertex 59.51372697451967 -21.33277333376841 145.39909793630048
  endloop
endfacet
facet normal 8.337783596604426e-15 0.9574381904398946 -0.28863837493857264
  outer loop
    vertex 70.14577479312342 -20.710385333280254 146.81546015630084
    vertex 70.14577479312335 -21.33277333376841 145.39909793630088
    vertex 59.51372697451969 -20.710385333280254 146.81546015630056
  endloop
endfacet
facet normal 8.337783596604426e-15 0.9574381904398946 -0.28863837493857264
  outer loop
    vertex 59.51372697451967 -21.33277333376841 145.39909793630048
    vertex 59.51372697451969 -20.710385333280254 146.81546015630056
    vertex 70.14577479312335 -21.33277333376841 145.39909793630088
  endloop
endfacet
facet normal 1.6392317303233187e-29 -1.0 -1.801796802737119e-15
  outer loop
    vertex 70.14577479312328 -34.354455920438504 148.0661633316647
    vertex 59.51372697451959 -34.35445592043848 148.0661633316644
    vertex 70.14577479312342 -34.35445592043854 146.81546015630067
  endloop
endfacet
facet normal 1.6392317303233187e-29 -1.0 -1.801796802737119e-15
  outer loop
    vertex 59.51372697451969 -34.35445592043853 146.81546015630053
    vertex 70.14577479312342 -34.35445592043854 146.81546015630067
    vertex 59.51372697451959 -34.35445592043848 148.0661633316644
  endloop
endfacet
facet normal 1.0 3.6151285224107614e-16 1.2963598411511578e-15
  outer loop
    vertex 70.14577479312342 -34.35445592043854 146.81546015630067
    vertex 70.14577479312335 -33.73206502078035 145.39909793630065
    vertex 70.14577479312328 -34.354455920438504 148.0661633316647
  endloop
endfacet
facet normal 1.0 3.6151285224107614e-16 1.2963598411511578e-15
  outer loop
    vertex 70.14577479312342 -32.64238591311433 146.81546015630073
    vertex 70.14577479312328 -34.354455920438504 148.0661633316647
    vertex 70.14577479312335 -33.73206502078035 145.39909793630065
  endloop
endfacet
facet normal 1.0 3.6151285224107614e-16 1.2963598411511578e-15
  outer loop
    vertex 70.14577479312328 -18.323985797147415 148.0661633316648
    vertex 70.14577479312328 -34.354455920438504 148.0661633316647
    vertex 70.14577479312342 -32.64238591311433 146.81546015630073
  endloop
endfacet
facet normal 1.0 3.6151285224107614e-16 1.2963598411511578e-15
  outer loop
    vertex 70.14577479312335 -33.26477681277252 145.39909793630068
    vertex 70.14577479312342 -32.64238591311433 146.81546015630073
    vertex 70.14577479312335 -33.73206502078035 145.39909793630065
  endloop
endfacet
facet normal 1.0 3.6151285224107614e-16 1.2963598411511578e-15
  outer loop
    vertex 70.14577479312342 -31.96805348513582 146.81546015630073
    vertex 70.14577479312328 -18.323985797147415 148.0661633316648
    vertex 70.14577479312342 -32.64238591311433 146.81546015630073
  endloop
endfacet
facet normal 1.0 3.6151285224107614e-16 1.2963598411511578e-15
  outer loop
    vertex 70.14577479312342 -30.25598637698153 146.81546015630073
    vertex 70.14577479312328 -18.323985797147415 148.0661633316648
    vertex 70.14577479312342 -31.96805348513582 146.81546015630073
  endloop
endfacet
facet normal 1.0 3.6151285224107614e-16 1.2963598411511578e-15
  outer loop
    vertex 70.14577479312335 -31.345665484647533 145.39909793630068
    vertex 70.14577479312342 -30.25598637698153 146.81546015630073
    vertex 70.14577479312342 -31.96805348513582 146.81546015630073
  endloop
endfacet
facet normal 1.0 3.6151285224107614e-16 1.2963598411511578e-15
  outer loop
    vertex 70.14577479312335 -30.87837437746982 145.39909793630068
    vertex 70.14577479312342 -30.25598637698153 146.81546015630073
    vertex 70.14577479312335 -31.345665484647533 145.39909793630068
  endloop
endfacet
facet normal 1.0 3.6151285224107614e-16 1.2963598411511578e-15
  outer loop
    vertex 70.14577479312342 -29.58165684817293 146.81546015630073
    vertex 70.14577479312328 -18.323985797147415 148.0661633316648
    vertex 70.14577479312342 -30.25598637698153 146.81546015630073
  endloop
endfacet
facet normal 1.0 3.6151285224107614e-16 1.2963598411511578e-15
  outer loop
    vertex 70.14577479312342 -27.8695839416786 146.81546015630073
    vertex 70.14577479312328 -18.323985797147415 148.0661633316648
    vertex 70.14577479312342 -29.58165684817293 146.81546015630073
  endloop
endfacet
facet normal 1.0 3.6151285224107614e-16 1.2963598411511578e-15
  outer loop
    vertex 70.14577479312335 -28.95926594851452 145.39909793630068
    vertex 70.14577479312342 -27.8695839416786 146.81546015630073
    vertex 70.14577479312342 -29.58165684817293 146.81546015630073
  endloop
endfacet
facet normal 1.0 3.6151285224107614e-16 1.2963598411511578e-15
  outer loop
    vertex 70.14577479312335 -28.491977740506737 145.39909793630068
    vertex 70.14577479312342 -27.8695839416786 146.81546015630073
    vertex 70.14577479312335 -28.95926594851452 145.39909793630068
  endloop
endfacet
facet normal 1.0 3.6151285224107614e-16 1.2963598411511578e-15
  outer loop
    vertex 70.14577479312342 -27.195254412870074 146.81546015630073
    vertex 70.14577479312328 -18.323985797147415 148.0661633316648
    vertex 70.14577479312342 -27.8695839416786 146.81546015630073
  endloop
endfacet
facet normal 1.0 3.6151285224107614e-16 1.2963598411511578e-15
  outer loop
    vertex 70.14577479312342 -25.483184405545796 146.81546015630073
    vertex 70.14577479312328 -18.323985797147415 148.0661633316648
    vertex 70.14577479312342 -27.195254412870074 146.81546015630073
  endloop
endfacet
facet normal 1.0 3.6151285224107614e-16 1.2963598411511578e-15
  outer loop
    vertex 70.14577479312335 -26.57286061404181 145.39909793630068
    vertex 70.14577479312342 -25.483184405545796 146.81546015630073
    vertex 70.14577479312342 -27.195254412870074 146.81546015630073
  endloop
endfacet
facet normal 1.0 3.6151285224107614e-16 1.2963598411511578e-15
  outer loop
    vertex 70.14577479312335 -26.10557820437391 145.39909793630068
    vertex 70.14577479312342 -25.483184405545796 146.81546015630073
    vertex 70.14577479312335 -26.57286061404181 145.39909793630068
  endloop
endfacet
facet normal 1.0 3.6151285224107614e-16 1.2963598411511578e-15
  outer loop
    vertex 70.14577479312342 -24.808854876737122 146.81546015630073
    vertex 70.14577479312328 -18.323985797147415 148.0661633316648
    vertex 70.14577479312342 -25.483184405545796 146.81546015630073
  endloop
endfacet
facet normal 1.0 3.6151285224107614e-16 1.2963598411511578e-15
  outer loop
    vertex 70.14577479312342 -23.096784869413035 146.81546015630082
    vertex 70.14577479312328 -18.323985797147415 148.0661633316648
    vertex 70.14577479312342 -24.808854876737122 146.81546015630073
  endloop
endfacet
facet normal 1.0 3.6151285224107614e-16 1.2963598411511578e-15
  outer loop
    vertex 70.14577479312335 -24.186466876248886 145.39909793630068
    vertex 70.14577479312342 -23.096784869413035 146.81546015630082
    vertex 70.14577479312342 -24.808854876737122 146.81546015630073
  endloop
endfacet
facet normal 1.0 3.6151285224107614e-16 1.2963598411511578e-15
  outer loop
    vertex 70.14577479312335 -23.71917286990126 145.39909793630088
    vertex 70.14577479312342 -23.096784869413035 146.81546015630082
    vertex 70.14577479312335 -24.186466876248886 145.39909793630068
  endloop
endfacet
facet normal 1.0 3.6151285224107614e-16 1.2963598411511578e-15
  outer loop
    vertex 70.14577479312342 -22.42244954226452 146.81546015630082
    vertex 70.14577479312328 -18.323985797147415 148.0661633316648
    vertex 70.14577479312342 -23.096784869413035 146.81546015630082
  endloop
endfacet
facet normal 1.0 3.6151285224107614e-16 1.2963598411511578e-15
  outer loop
    vertex 70.14577479312342 -20.710385333280254 146.81546015630084
    vertex 70.14577479312328 -18.323985797147415 148.0661633316648
    vertex 70.14577479312342 -22.42244954226452 146.81546015630082
  endloop
endfacet
facet normal 1.0 3.6151285224107614e-16 1.2963598411511578e-15
  outer loop
    vertex 70.14577479312335 -21.800067340116094 145.39909793630088
    vertex 70.14577479312342 -20.710385333280254 146.81546015630084
    vertex 70.14577479312342 -22.42244954226452 146.81546015630082
  endloop
endfacet
facet normal 1.0 3.6151285224107614e-16 1.2963598411511578e-15
  outer loop
    vertex 70.14577479312335 -21.33277333376841 145.39909793630088
    vertex 70.14577479312342 -20.710385333280254 146.81546015630084
    vertex 70.14577479312335 -21.800067340116094 145.39909793630088
  endloop
endfacet
facet normal 1.0 3.6151285224107614e-16 1.2963598411511578e-15
  outer loop
    vertex 70.14577479312342 -20.036050006131727 146.81546015630073
    vertex 70.14577479312328 -18.323985797147415 148.0661633316648
    vertex 70.14577479312342 -20.710385333280254 146.81546015630084
  endloop
endfacet
facet normal 1.0 3.6151285224107614e-16 1.2963598411511578e-15
  outer loop
    vertex 70.14577479312341 -19.413667803983277 145.39909793630088
    vertex 70.14577479312328 -18.323985797147415 148.0661633316648
    vertex 70.14577479312342 -20.036050006131727 146.81546015630073
  endloop
endfacet
facet normal 1.0 3.6151285224107614e-16 1.2963598411511578e-15
  outer loop
    vertex 70.14577479312341 -18.946373797635605 145.39909793630088
    vertex 70.14577479312328 -18.323985797147415 148.0661633316648
    vertex 70.14577479312341 -19.413667803983277 145.39909793630088
  endloop
endfacet
facet normal 1.0 3.6151285224107614e-16 1.2963598411511578e-15
  outer loop
    vertex 70.14577479312342 -18.323985797147447 146.81546015630082
    vertex 70.14577479312328 -18.323985797147415 148.0661633316648
    vertex 70.14577479312341 -18.946373797635605 145.39909793630088
  endloop
endfacet
facet normal -1.0 -2.2680589111898726e-15 -1.0099079974709945e-14
  outer loop
    vertex 59.51372697451969 -34.35445592043853 146.81546015630053
    vertex 59.51372697451959 -34.35445592043848 148.0661633316644
    vertex 59.51372697451967 -33.73206502078033 145.3990979363005
  endloop
endfacet
facet normal -1.0 -2.2680589111898726e-15 -1.0099079974709945e-14
  outer loop
    vertex 59.51372697451969 -32.64238591311433 146.81546015630053
    vertex 59.51372697451967 -33.73206502078033 145.3990979363005
    vertex 59.51372697451959 -34.35445592043848 148.0661633316644
  endloop
endfacet
facet normal -1.0 -2.2680589111898726e-15 -1.0099079974709945e-14
  outer loop
    vertex 59.513726974519514 -18.32398579714755 148.06616333166411
    vertex 59.51372697451969 -32.64238591311433 146.81546015630053
    vertex 59.51372697451959 -34.35445592043848 148.0661633316644
  endloop
endfacet
facet normal -1.0 -2.2680589111898726e-15 -1.0099079974709945e-14
  outer loop
    vertex 59.51372697451967 -33.26477681277252 145.3990979363005
    vertex 59.51372697451967 -33.73206502078033 145.3990979363005
    vertex 59.51372697451969 -32.64238591311433 146.81546015630053
  endloop
endfacet
facet normal -1.0 -2.2680589111898726e-15 -1.0099079974709945e-14
  outer loop
    vertex 59.51372697451969 -31.96805348513582 146.81546015630053
    vertex 59.51372697451969 -32.64238591311433 146.81546015630053
    vertex 59.513726974519514 -18.32398579714755 148.06616333166411
  endloop
endfacet
facet normal -1.0 -2.2680589111898726e-15 -1.0099079974709945e-14
  outer loop
    vertex 59.51372697451969 -30.25598637698153 146.81546015630053
    vertex 59.51372697451969 -31.96805348513582 146.81546015630053
    vertex 59.513726974519514 -18.32398579714755 148.06616333166411
  endloop
endfacet
facet normal -1.0 -2.2680589111898726e-15 -1.0099079974709945e-14
  outer loop
    vertex 59.51372697451967 -31.345665484647533 145.3990979363005
    vertex 59.51372697451969 -31.96805348513582 146.81546015630053
    vertex 59.51372697451969 -30.25598637698153 146.81546015630053
  endloop
endfacet
facet normal -1.0 -2.2680589111898726e-15 -1.0099079974709945e-14
  outer loop
    vertex 59.51372697451967 -30.878374377469804 145.3990979363005
    vertex 59.51372697451967 -31.345665484647533 145.3990979363005
    vertex 59.51372697451969 -30.25598637698153 146.81546015630053
  endloop
endfacet
facet normal -1.0 -2.2680589111898726e-15 -1.0099079974709945e-14
  outer loop
    vertex 59.51372697451969 -29.581656848172916 146.81546015630053
    vertex 59.51372697451969 -30.25598637698153 146.81546015630053
    vertex 59.513726974519514 -18.32398579714755 148.06616333166411
  endloop
endfacet
facet normal -1.0 -2.2680589111898726e-15 -1.0099079974709945e-14
  outer loop
    vertex 59.51372697451969 -27.869583941678567 146.81546015630053
    vertex 59.51372697451969 -29.581656848172916 146.81546015630053
    vertex 59.513726974519514 -18.32398579714755 148.06616333166411
  endloop
endfacet
facet normal -1.0 -2.2680589111898726e-15 -1.0099079974709945e-14
  outer loop
    vertex 59.51372697451967 -28.95926594851452 145.3990979363005
    vertex 59.51372697451969 -29.581656848172916 146.81546015630053
    vertex 59.51372697451969 -27.869583941678567 146.81546015630053
  endloop
endfacet
facet normal -1.0 -2.2680589111898726e-15 -1.0099079974709945e-14
  outer loop
    vertex 59.51372697451967 -28.491977740506737 145.3990979363005
    vertex 59.51372697451967 -28.95926594851452 145.3990979363005
    vertex 59.51372697451969 -27.869583941678567 146.81546015630053
  endloop
endfacet
facet normal -1.0 -2.2680589111898726e-15 -1.0099079974709945e-14
  outer loop
    vertex 59.51372697451969 -27.195254412870074 146.81546015630053
    vertex 59.51372697451969 -27.869583941678567 146.81546015630053
    vertex 59.513726974519514 -18.32398579714755 148.06616333166411
  endloop
endfacet
facet normal -1.0 -2.2680589111898726e-15 -1.0099079974709945e-14
  outer loop
    vertex 59.51372697451969 -25.48318440554577 146.81546015630053
    vertex 59.51372697451969 -27.195254412870074 146.81546015630053
    vertex 59.513726974519514 -18.32398579714755 148.06616333166411
  endloop
endfacet
facet normal -1.0 -2.2680589111898726e-15 -1.0099079974709945e-14
  outer loop
    vertex 59.51372697451967 -26.57286061404181 145.3990979363004
    vertex 59.51372697451969 -27.195254412870074 146.81546015630053
    vertex 59.51372697451969 -25.48318440554577 146.81546015630053
  endloop
endfacet
facet normal -1.0 -2.2680589111898726e-15 -1.0099079974709945e-14
  outer loop
    vertex 59.51372697451967 -26.105578204373874 145.3990979363004
    vertex 59.51372697451967 -26.57286061404181 145.3990979363004
    vertex 59.51372697451969 -25.48318440554577 146.81546015630053
  endloop
endfacet
facet normal -1.0 -2.2680589111898726e-15 -1.0099079974709945e-14
  outer loop
    vertex 59.51372697451969 -24.808854876737122 146.81546015630053
    vertex 59.51372697451969 -25.48318440554577 146.81546015630053
    vertex 59.513726974519514 -18.32398579714755 148.06616333166411
  endloop
endfacet
facet normal -1.0 -2.2680589111898726e-15 -1.0099079974709945e-14
  outer loop
    vertex 59.51372697451969 -23.096784869413035 146.81546015630053
    vertex 59.51372697451969 -24.808854876737122 146.81546015630053
    vertex 59.513726974519514 -18.32398579714755 148.06616333166411
  endloop
endfacet
facet normal -1.0 -2.2680589111898726e-15 -1.0099079974709945e-14
  outer loop
    vertex 59.51372697451967 -24.186466876248886 145.39909793630036
    vertex 59.51372697451969 -24.808854876737122 146.81546015630053
    vertex 59.51372697451969 -23.096784869413035 146.81546015630053
  endloop
endfacet
facet normal -1.0 -2.2680589111898726e-15 -1.0099079974709945e-14
  outer loop
    vertex 59.51372697451967 -23.719172869901225 145.39909793630036
    vertex 59.51372697451967 -24.186466876248886 145.39909793630036
    vertex 59.51372697451969 -23.096784869413035 146.81546015630053
  endloop
endfacet
facet normal -1.0 -2.2680589111898726e-15 -1.0099079974709945e-14
  outer loop
    vertex 59.51372697451969 -22.42244954226452 146.81546015630056
    vertex 59.51372697451969 -23.096784869413035 146.81546015630053
    vertex 59.513726974519514 -18.32398579714755 148.06616333166411
  endloop
endfacet
facet normal -1.0 -2.2680589111898726e-15 -1.0099079974709945e-14
  outer loop
    vertex 59.51372697451969 -20.710385333280254 146.81546015630056
    vertex 59.51372697451969 -22.42244954226452 146.81546015630056
    vertex 59.513726974519514 -18.32398579714755 148.06616333166411
  endloop
endfacet
facet normal -1.0 -2.2680589111898726e-15 -1.0099079974709945e-14
  outer loop
    vertex 59.51372697451967 -21.800067340116094 145.39909793630045
    vertex 59.51372697451969 -22.42244954226452 146.81546015630056
    vertex 59.51372697451969 -20.710385333280254 146.81546015630056
  endloop
endfacet
facet normal -1.0 -2.2680589111898726e-15 -1.0099079974709945e-14
  outer loop
    vertex 59.51372697451967 -21.33277333376841 145.39909793630048
    vertex 59.51372697451967 -21.800067340116094 145.39909793630045
    vertex 59.51372697451969 -20.710385333280254 146.81546015630056
  endloop
endfacet
facet normal -1.0 -2.2680589111898726e-15 -1.0099079974709945e-14
  outer loop
    vertex 59.51372697451969 -20.036050006131852 146.81546015630005
    vertex 59.51372697451969 -20.710385333280254 146.81546015630056
    vertex 59.513726974519514 -18.32398579714755 148.06616333166411
  endloop
endfacet
facet normal -1.0 -2.2680589111898726e-15 -1.0099079974709945e-14
  outer loop
    vertex 59.51372697451963 -19.41366780398341 145.39909793630017
    vertex 59.51372697451969 -20.036050006131852 146.81546015630005
    vertex 59.513726974519514 -18.32398579714755 148.06616333166411
  endloop
endfacet
facet normal -1.0 -2.2680589111898726e-15 -1.0099079974709945e-14
  outer loop
    vertex 59.51372697451963 -18.94637379763574 145.39909793630017
    vertex 59.51372697451963 -19.41366780398341 145.39909793630017
    vertex 59.513726974519514 -18.32398579714755 148.06616333166411
  endloop
endfacet
facet normal -1.0 -2.2680589111898726e-15 -1.0099079974709945e-14
  outer loop
    vertex 59.51372697451969 -18.323985797147618 146.81546015630016
    vertex 59.51372697451963 -18.94637379763574 145.39909793630017
    vertex 59.513726974519514 -18.32398579714755 148.06616333166411
  endloop
endfacet
facet normal -3.765576169519875e-14 5.858798020406933e-15 1.0
  outer loop
    vertex 59.513726974519514 -18.32398579714755 148.06616333166411
    vertex 59.51372697451959 -34.35445592043848 148.0661633316644
    vertex 70.14577479312328 -18.323985797147415 148.0661633316648
  endloop
endfacet
facet normal -3.765576169519875e-14 5.858798020406933e-15 1.0
  outer loop
    vertex 70.14577479312328 -34.354455920438504 148.0661633316647
    vertex 70.14577479312328 -18.323985797147415 148.0661633316648
    vertex 59.51372697451959 -34.35445592043848 148.0661633316644
  endloop
endfacet
facet normal 4.423141179006487e-14 -4.874674715538621e-13 -1.0
  outer loop
    vertex 59.51372697451969 -20.710385333280254 146.81546015630056
    vertex 59.51372697451969 -20.036050006131852 146.81546015630005
    vertex 70.14577479312342 -20.710385333280254 146.81546015630084
  endloop
endfacet
facet normal 4.423141179006487e-14 -4.874674715538621e-13 -1.0
  outer loop
    vertex 70.14577479312342 -20.036050006131727 146.81546015630073
    vertex 70.14577479312342 -20.710385333280254 146.81546015630084
    vertex 59.51372697451969 -20.036050006131852 146.81546015630005
  endloop
endfacet
facet normal 2.6670534305318775e-14 -0.957438933561378 -0.2886359099295356
  outer loop
    vertex 70.14577479312342 -20.036050006131727 146.81546015630073
    vertex 59.51372697451969 -20.036050006131852 146.81546015630005
    vertex 70.14577479312341 -19.413667803983277 145.39909793630088
  endloop
endfacet
facet normal 2.6670534305318775e-14 -0.957438933561378 -0.2886359099295356
  outer loop
    vertex 59.51372697451963 -19.41366780398341 145.39909793630017
    vertex 70.14577479312341 -19.413667803983277 145.39909793630088
    vertex 59.51372697451969 -20.036050006131852 146.81546015630005
  endloop
endfacet
facet normal 6.045786420201484e-14 1.7505674080418588e-16 -1.0
  outer loop
    vertex 59.51372697451963 -19.41366780398341 145.39909793630017
    vertex 59.51372697451963 -18.94637379763574 145.39909793630017
    vertex 70.14577479312341 -19.413667803983277 145.39909793630088
  endloop
endfacet
facet normal 6.045786420201484e-14 1.7505674080418588e-16 -1.0
  outer loop
    vertex 70.14577479312341 -18.946373797635605 145.39909793630088
    vertex 70.14577479312341 -19.413667803983277 145.39909793630088
    vertex 59.51372697451963 -18.94637379763574 145.39909793630017
  endloop
endfacet
facet normal 8.230243172880005e-15 0.9574381904398933 -0.2886383749385768
  outer loop
    vertex 70.14577479312342 -18.323985797147447 146.81546015630082
    vertex 70.14577479312341 -18.946373797635605 145.39909793630088
    vertex 59.51372697451969 -18.323985797147618 146.81546015630016
  endloop
endfacet
facet normal 8.230243172880005e-15 0.9574381904398933 -0.2886383749385768
  outer loop
    vertex 59.51372697451963 -18.94637379763574 145.39909793630017
    vertex 59.51372697451969 -18.323985797147618 146.81546015630016
    vertex 70.14577479312341 -18.946373797635605 145.39909793630088
  endloop
endfacet
facet normal -9.63009058413422e-15 1.0 -1.7311314332894772e-14
  outer loop
    vertex 70.14577479312328 -18.323985797147415 148.0661633316648
    vertex 70.14577479312342 -18.323985797147447 146.81546015630082
    vertex 59.513726974519514 -18.32398579714755 148.06616333166411
  endloop
endfacet
facet normal -9.63009058413422e-15 1.0 -1.7311314332894772e-14
  outer loop
    vertex 59.51372697451969 -18.323985797147618 146.81546015630016
    vertex 59.513726974519514 -18.32398579714755 148.06616333166411
    vertex 70.14577479312342 -18.323985797147447 146.81546015630082
  endloop
endfacet
facet normal 1.845065176409491e-15 -0.9574378188771842 0.2886396074410101
  outer loop
    vertex 70.14806450300864 -33.73185159066742 126.5516815544225
    vertex 62.68992836920016 -34.35424249032559 125.13531933442258
    vertex 70.1480645030087 -34.35424249032559 125.13531933442248
  endloop
endfacet
facet normal 1.845065176409491e-15 -0.9574378188771842 0.2886396074410101
  outer loop
    vertex 62.68992836920016 -34.35424249032559 125.13531933442258
    vertex 70.14806450300864 -33.73185159066742 126.5516815544225
    vertex 62.68992836920019 -33.73185159066742 126.55168155442261
  endloop
endfacet
facet normal 3.7590048739954184e-15 -4.797144432461526e-14 1.0
  outer loop
    vertex 70.14806450300864 -33.73185159066742 126.5516815544225
    vertex 62.68992836920019 -33.26456338265956 126.55168155442261
    vertex 62.68992836920019 -33.73185159066742 126.55168155442261
  endloop
endfacet
facet normal 3.7590048739954184e-15 -4.797144432461526e-14 1.0
  outer loop
    vertex 62.68992836920019 -33.26456338265956 126.55168155442261
    vertex 70.14806450300864 -33.73185159066742 126.5516815544225
    vertex 70.14806450300864 -33.26456338265956 126.5516815544225
  endloop
endfacet
facet normal -6.255404064756145e-16 0.9574378188771844 0.2886396074410093
  outer loop
    vertex 62.68992836920016 -32.64217248300135 125.13531933442258
    vertex 70.14806450300864 -33.26456338265956 126.5516815544225
    vertex 70.1480645030087 -32.64217248300135 125.13531933442248
  endloop
endfacet
facet normal -6.255404064756145e-16 0.9574378188771844 0.2886396074410093
  outer loop
    vertex 70.14806450300864 -33.26456338265956 126.5516815544225
    vertex 62.68992836920016 -32.64217248300135 125.13531933442258
    vertex 62.68992836920019 -33.26456338265956 126.55168155442261
  endloop
endfacet
facet normal -4.448950663271371e-15 -2.494129636623161e-15 1.0
  outer loop
    vertex 70.1480645030087 -32.64217248300135 125.13531933442248
    vertex 62.68992836920016 -31.967840055022908 125.13531933442258
    vertex 62.68992836920016 -32.64217248300135 125.13531933442258
  endloop
endfacet
facet normal -4.448950663271371e-15 -2.494129636623161e-15 1.0
  outer loop
    vertex 62.68992836920016 -31.967840055022908 125.13531933442258
    vertex 70.1480645030087 -32.64217248300135 125.13531933442248
    vertex 70.1480645030087 -31.967840055022908 125.13531933442248
  endloop
endfacet
facet normal -6.953111788384974e-16 -0.9574381904398794 0.28863837493862265
  outer loop
    vertex 70.14806450300864 -31.34545205453455 126.5516815544225
    vertex 62.68992836920016 -31.967840055022908 125.13531933442258
    vertex 70.1480645030087 -31.967840055022908 125.13531933442248
  endloop
endfacet
facet normal -6.953111788384974e-16 -0.9574381904398794 0.28863837493862265
  outer loop
    vertex 62.68992836920016 -31.967840055022908 125.13531933442258
    vertex 70.14806450300864 -31.34545205453455 126.5516815544225
    vertex 62.68992836920019 -31.34545205453455 126.55168155442261
  endloop
endfacet
facet normal -1.7838138452906377e-16 -7.930743035635242e-17 1.0
  outer loop
    vertex 70.14806450300864 -31.34545205453455 126.5516815544225
    vertex 62.68992836920019 -30.87816094735686 126.55168155442261
    vertex 62.68992836920019 -31.34545205453455 126.55168155442261
  endloop
endfacet
facet normal -1.7838138452906377e-16 -7.930743035635242e-17 1.0
  outer loop
    vertex 62.68992836920019 -30.87816094735686 126.55168155442261
    vertex 70.14806450300864 -31.34545205453455 126.5516815544225
    vertex 70.14806450300864 -30.87816094735686 126.5516815544225
  endloop
endfacet
facet normal -6.206960828462403e-16 0.9574381904398819 0.288638374938615
  outer loop
    vertex 62.68992836920016 -30.255772946868618 125.13531933442258
    vertex 70.14806450300864 -30.87816094735686 126.5516815544225
    vertex 70.1480645030087 -30.255772946868618 125.13531933442248
  endloop
endfacet
facet normal -6.206960828462403e-16 0.9574381904398819 0.288638374938615
  outer loop
    vertex 70.14806450300864 -30.87816094735686 126.5516815544225
    vertex 62.68992836920016 -30.255772946868618 125.13531933442258
    vertex 62.68992836920019 -30.87816094735686 126.55168155442261
  endloop
endfacet
facet normal -4.448950663271371e-15 -2.4941400187576825e-15 1.0
  outer loop
    vertex 70.1480645030087 -30.255772946868618 125.13531933442248
    vertex 62.68992836920016 -29.58144341805995 125.13531933442258
    vertex 62.68992836920016 -30.255772946868618 125.13531933442258
  endloop
endfacet
facet normal -4.448950663271371e-15 -2.4941400187576825e-15 1.0
  outer loop
    vertex 62.68992836920016 -29.58144341805995 125.13531933442258
    vertex 70.1480645030087 -30.255772946868618 125.13531933442248
    vertex 70.1480645030087 -29.58144341805995 125.13531933442248
  endloop
endfacet
facet normal -6.897011692384862e-16 -0.9574378188771842 0.2886396074410097
  outer loop
    vertex 70.14806450300864 -28.95905251840185 126.5516815544225
    vertex 62.68992836920016 -29.58144341805995 125.13531933442258
    vertex 70.1480645030087 -29.58144341805995 125.13531933442248
  endloop
endfacet
facet normal -6.897011692384862e-16 -0.9574378188771842 0.2886396074410097
  outer loop
    vertex 62.68992836920016 -29.58144341805995 125.13531933442258
    vertex 70.14806450300864 -28.95905251840185 126.5516815544225
    vertex 62.68992836920019 -28.959052518401837 126.55168155442261
  endloop
endfacet
facet normal -1.7838138452906377e-16 -7.930743035635242e-17 1.0
  outer loop
    vertex 70.14806450300864 -28.95905251840185 126.5516815544225
    vertex 62.68992836920019 -28.491764310394057 126.55168155442261
    vertex 62.68992836920019 -28.959052518401837 126.55168155442261
  endloop
endfacet
facet normal -1.7838138452906377e-16 -7.930743035635242e-17 1.0
  outer loop
    vertex 62.68992836920019 -28.491764310394057 126.55168155442261
    vertex 70.14806450300864 -28.95905251840185 126.5516815544225
    vertex 70.14806450300864 -28.491764310394068 126.5516815544225
  endloop
endfacet
facet normal -6.255404035516418e-16 0.9574374473131905 0.2886408399419618
  outer loop
    vertex 62.68992836920016 -27.869370511565897 125.13531933442253
    vertex 70.14806450300864 -28.491764310394068 126.5516815544225
    vertex 70.1480645030087 -27.869370511565897 125.13531933442248
  endloop
endfacet
facet normal -6.255404035516418e-16 0.9574374473131905 0.2886408399419618
  outer loop
    vertex 70.14806450300864 -28.491764310394068 126.5516815544225
    vertex 62.68992836920016 -27.869370511565897 125.13531933442253
    vertex 62.68992836920019 -28.491764310394057 126.55168155442261
  endloop
endfacet
facet normal -4.448950663271371e-15 -2.4941400187576825e-15 1.0
  outer loop
    vertex 70.1480645030087 -27.869370511565897 125.13531933442248
    vertex 62.68992836920016 -27.195040982757305 125.13531933442253
    vertex 62.68992836920016 -27.869370511565897 125.13531933442253
  endloop
endfacet
facet normal -4.448950663271371e-15 -2.4941400187576825e-15 1.0
  outer loop
    vertex 62.68992836920016 -27.195040982757305 125.13531933442253
    vertex 70.1480645030087 -27.869370511565897 125.13531933442248
    vertex 70.1480645030087 -27.195040982757327 125.13531933442248
  endloop
endfacet
facet normal -6.868950498293202e-16 -0.9574374473131905 0.2886408399419622
  outer loop
    vertex 70.14806450300864 -26.57264718392912 126.5516815544225
    vertex 62.68992836920016 -27.195040982757305 125.13531933442253
    vertex 70.1480645030087 -27.195040982757327 125.13531933442248
  endloop
endfacet
facet normal -6.868950498293202e-16 -0.9574374473131905 0.2886408399419622
  outer loop
    vertex 62.68992836920016 -27.195040982757305 125.13531933442253
    vertex 70.14806450300864 -26.57264718392912 126.5516815544225
    vertex 62.68992836920019 -26.57264718392912 126.55168155442256
  endloop
endfacet
facet normal -1.7838138452906377e-16 -7.930743035635242e-17 1.0
  outer loop
    vertex 70.14806450300864 -26.57264718392912 126.5516815544225
    vertex 62.68992836920019 -26.105364774261208 126.55168155442256
    vertex 62.68992836920019 -26.57264718392912 126.55168155442256
  endloop
endfacet
facet normal -1.7838138452906377e-16 -7.930743035635242e-17 1.0
  outer loop
    vertex 62.68992836920019 -26.105364774261208 126.55168155442256
    vertex 70.14806450300864 -26.57264718392912 126.5516815544225
    vertex 70.14806450300864 -26.105364774261208 126.5516815544225
  endloop
endfacet
facet normal -6.255404035516418e-16 0.9574374473131905 0.2886408399419618
  outer loop
    vertex 62.68992836920016 -25.482970975433112 125.13531933442253
    vertex 70.14806450300864 -26.105364774261208 126.5516815544225
    vertex 70.1480645030087 -25.482970975433126 125.13531933442248
  endloop
endfacet
facet normal -6.255404035516418e-16 0.9574374473131905 0.2886408399419618
  outer loop
    vertex 70.14806450300864 -26.105364774261208 126.5516815544225
    vertex 62.68992836920016 -25.482970975433112 125.13531933442253
    vertex 62.68992836920019 -26.105364774261208 126.55168155442256
  endloop
endfacet
facet normal 1.54801635688762e-16 -2.5870965750247216e-14 1.0
  outer loop
    vertex 70.1480645030087 -25.482970975433126 125.13531933442248
    vertex 62.68992836920016 -24.80864144662443 125.13531933442253
    vertex 62.68992836920016 -25.482970975433112 125.13531933442253
  endloop
endfacet
facet normal 1.54801635688762e-16 -2.5870965750247216e-14 1.0
  outer loop
    vertex 62.68992836920016 -24.80864144662443 125.13531933442253
    vertex 70.1480645030087 -25.482970975433126 125.13531933442248
    vertex 70.1480645030087 -24.80864144662443 125.13531933442248
  endloop
endfacet
facet normal 1.853972694870715e-15 -0.9574381904398794 0.28863837493862265
  outer loop
    vertex 70.14806450300864 -24.186253446136217 126.5516815544225
    vertex 62.68992836920016 -24.80864144662443 125.13531933442253
    vertex 70.1480645030087 -24.80864144662443 125.13531933442248
  endloop
endfacet
facet normal 1.853972694870715e-15 -0.9574381904398794 0.28863837493862265
  outer loop
    vertex 62.68992836920016 -24.80864144662443 125.13531933442253
    vertex 70.14806450300864 -24.186253446136217 126.5516815544225
    vertex 62.68992836920019 -24.186253446136217 126.55168155442257
  endloop
endfacet
facet normal 2.7444132409231747e-14 2.404917205352959e-13 1.0
  outer loop
    vertex 70.14806450300864 -24.186253446136217 126.5516815544225
    vertex 62.68992836920019 -23.71895943978857 126.55168155442257
    vertex 62.68992836920019 -24.186253446136217 126.55168155442257
  endloop
endfacet
facet normal 2.7444132409231747e-14 2.404917205352959e-13 1.0
  outer loop
    vertex 62.68992836920019 -23.71895943978857 126.55168155442257
    vertex 70.14806450300864 -24.186253446136217 126.5516815544225
    vertex 70.14806450300864 -23.71895943978858 126.55168155442234
  endloop
endfacet
facet normal 1.010464290396907e-14 0.9574381904398814 0.28863837493861627
  outer loop
    vertex 62.68992836920016 -23.096571439300277 125.13531933442253
    vertex 70.14806450300864 -23.71895943978858 126.55168155442234
    vertex 70.1480645030087 -23.096571439300288 125.13531933442239
  endloop
endfacet
facet normal 1.010464290396907e-14 0.9574381904398814 0.28863837493861627
  outer loop
    vertex 70.14806450300864 -23.71895943978858 126.55168155442234
    vertex 62.68992836920016 -23.096571439300277 125.13531933442253
    vertex 62.68992836920019 -23.71895943978857 126.55168155442257
  endloop
endfacet
facet normal 3.4652538885845036e-14 2.9049954418341125e-14 1.0
  outer loop
    vertex 70.1480645030087 -23.096571439300288 125.13531933442239
    vertex 62.68992836920016 -22.42223611215185 125.13531933442253
    vertex 62.68992836920016 -23.096571439300277 125.13531933442253
  endloop
endfacet
facet normal 3.4652538885845036e-14 2.9049954418341125e-14 1.0
  outer loop
    vertex 62.68992836920016 -22.42223611215185 125.13531933442253
    vertex 70.1480645030087 -23.096571439300288 125.13531933442239
    vertex 70.1480645030087 -22.42223611215187 125.13531933442239
  endloop
endfacet
facet normal 1.180491531562822e-14 -0.9574389335613788 0.2886359099295335
  outer loop
    vertex 70.14806450300864 -21.799853910003435 126.55168155442234
    vertex 62.68992836920016 -22.42223611215185 125.13531933442253
    vertex 70.1480645030087 -22.42223611215187 125.13531933442239
  endloop
endfacet
facet normal 1.180491531562822e-14 -0.9574389335613788 0.2886359099295335
  outer loop
    vertex 62.68992836920016 -22.42223611215185 125.13531933442253
    vertex 70.14806450300864 -21.799853910003435 126.55168155442234
    vertex 62.68992836920019 -21.799853910003414 126.55168155442256
  endloop
endfacet
facet normal 4.319367744332966e-14 4.892555000467263e-14 1.0
  outer loop
    vertex 70.14806450300864 -21.799853910003435 126.55168155442234
    vertex 62.68992836920019 -21.332559903655742 126.55168155442256
    vertex 62.68992836920019 -21.799853910003414 126.55168155442256
  endloop
endfacet
facet normal 4.319367744332966e-14 4.892555000467263e-14 1.0
  outer loop
    vertex 62.68992836920019 -21.332559903655742 126.55168155442256
    vertex 70.14806450300864 -21.799853910003435 126.55168155442234
    vertex 70.14806450300864 -21.332559903655774 126.55168155442234
  endloop
endfacet
facet normal 1.2459262209899952e-14 0.9574381904398847 0.288638374938606
  outer loop
    vertex 62.68992836920016 -20.71017190316748 125.13531933442253
    vertex 70.14806450300864 -21.332559903655774 126.55168155442234
    vertex 70.1480645030087 -20.710171903167506 125.13531933442239
  endloop
endfacet
facet normal 1.2459262209899952e-14 0.9574381904398847 0.288638374938606
  outer loop
    vertex 70.14806450300864 -21.332559903655774 126.55168155442234
    vertex 62.68992836920016 -20.71017190316748 125.13531933442253
    vertex 62.68992836920019 -21.332559903655742 126.55168155442256
  endloop
endfacet
facet normal 2.0151223002985826e-29 -1.0 2.566875793063354e-15
  outer loop
    vertex 70.1480645030087 -34.35424249032559 125.13531933442248
    vertex 62.68992836919999 -34.354242490325646 115.92996993475447
    vertex 70.14806450300844 -34.354242490325646 115.92996993475433
  endloop
endfacet
facet normal 2.0151223002985826e-29 -1.0 2.566875793063354e-15
  outer loop
    vertex 62.68992836919999 -34.354242490325646 115.92996993475447
    vertex 70.1480645030087 -34.35424249032559 125.13531933442248
    vertex 62.68992836920016 -34.35424249032559 125.13531933442258
  endloop
endfacet
facet normal 1.0 2.2649989073023705e-16 -1.4171733782761212e-14
  outer loop
    vertex 70.14806450300844 -18.323772367034778 115.92996993475413
    vertex 70.1480645030087 -34.35424249032559 125.13531933442248
    vertex 70.14806450300844 -34.354242490325646 115.92996993475433
  endloop
endfacet
facet normal 1.0 2.2649989073023705e-16 -1.4171733782761212e-14
  outer loop
    vertex 70.1480645030087 -34.35424249032559 125.13531933442248
    vertex 70.14806450300844 -18.323772367034778 115.92996993475413
    vertex 70.1480645030087 -32.64217248300135 125.13531933442248
  endloop
endfacet
facet normal 1.0 2.2649989073023705e-16 -1.4171733782761212e-14
  outer loop
    vertex 70.1480645030087 -34.35424249032559 125.13531933442248
    vertex 70.1480645030087 -32.64217248300135 125.13531933442248
    vertex 70.14806450300864 -33.73185159066742 126.5516815544225
  endloop
endfacet
facet normal 1.0 2.2649989073023705e-16 -1.4171733782761212e-14
  outer loop
    vertex 70.14806450300864 -33.73185159066742 126.5516815544225
    vertex 70.1480645030087 -32.64217248300135 125.13531933442248
    vertex 70.14806450300864 -33.26456338265956 126.5516815544225
  endloop
endfacet
facet normal 1.0 2.2649989073023705e-16 -1.4171733782761212e-14
  outer loop
    vertex 70.1480645030087 -32.64217248300135 125.13531933442248
    vertex 70.14806450300844 -18.323772367034778 115.92996993475413
    vertex 70.1480645030087 -31.967840055022908 125.13531933442248
  endloop
endfacet
facet normal 1.0 2.2649989073023705e-16 -1.4171733782761212e-14
  outer loop
    vertex 70.1480645030087 -31.967840055022908 125.13531933442248
    vertex 70.14806450300844 -18.323772367034778 115.92996993475413
    vertex 70.1480645030087 -30.255772946868618 125.13531933442248
  endloop
endfacet
facet normal 1.0 2.2649989073023705e-16 -1.4171733782761212e-14
  outer loop
    vertex 70.1480645030087 -31.967840055022908 125.13531933442248
    vertex 70.1480645030087 -30.255772946868618 125.13531933442248
    vertex 70.14806450300864 -31.34545205453455 126.5516815544225
  endloop
endfacet
facet normal 1.0 2.2649989073023705e-16 -1.4171733782761212e-14
  outer loop
    vertex 70.14806450300864 -31.34545205453455 126.5516815544225
    vertex 70.1480645030087 -30.255772946868618 125.13531933442248
    vertex 70.14806450300864 -30.87816094735686 126.5516815544225
  endloop
endfacet
facet normal 1.0 2.2649989073023705e-16 -1.4171733782761212e-14
  outer loop
    vertex 70.1480645030087 -30.255772946868618 125.13531933442248
    vertex 70.14806450300844 -18.323772367034778 115.92996993475413
    vertex 70.1480645030087 -29.58144341805995 125.13531933442248
  endloop
endfacet
facet normal 1.0 2.2649989073023705e-16 -1.4171733782761212e-14
  outer loop
    vertex 70.1480645030087 -29.58144341805995 125.13531933442248
    vertex 70.14806450300844 -18.323772367034778 115.92996993475413
    vertex 70.1480645030087 -27.869370511565897 125.13531933442248
  endloop
endfacet
facet normal 1.0 2.2649989073023705e-16 -1.4171733782761212e-14
  outer loop
    vertex 70.1480645030087 -29.58144341805995 125.13531933442248
    vertex 70.1480645030087 -27.869370511565897 125.13531933442248
    vertex 70.14806450300864 -28.95905251840185 126.5516815544225
  endloop
endfacet
facet normal 1.0 2.2649989073023705e-16 -1.4171733782761212e-14
  outer loop
    vertex 70.14806450300864 -28.95905251840185 126.5516815544225
    vertex 70.1480645030087 -27.869370511565897 125.13531933442248
    vertex 70.14806450300864 -28.491764310394068 126.5516815544225
  endloop
endfacet
facet normal 1.0 2.2649989073023705e-16 -1.4171733782761212e-14
  outer loop
    vertex 70.1480645030087 -27.869370511565897 125.13531933442248
    vertex 70.14806450300844 -18.323772367034778 115.92996993475413
    vertex 70.1480645030087 -27.195040982757327 125.13531933442248
  endloop
endfacet
facet normal 1.0 2.2649989073023705e-16 -1.4171733782761212e-14
  outer loop
    vertex 70.1480645030087 -27.195040982757327 125.13531933442248
    vertex 70.14806450300844 -18.323772367034778 115.92996993475413
    vertex 70.1480645030087 -25.482970975433126 125.13531933442248
  endloop
endfacet
facet normal 1.0 2.2649989073023705e-16 -1.4171733782761212e-14
  outer loop
    vertex 70.1480645030087 -27.195040982757327 125.13531933442248
    vertex 70.1480645030087 -25.482970975433126 125.13531933442248
    vertex 70.14806450300864 -26.57264718392912 126.5516815544225
  endloop
endfacet
facet normal 1.0 2.2649989073023705e-16 -1.4171733782761212e-14
  outer loop
    vertex 70.14806450300864 -26.57264718392912 126.5516815544225
    vertex 70.1480645030087 -25.482970975433126 125.13531933442248
    vertex 70.14806450300864 -26.105364774261208 126.5516815544225
  endloop
endfacet
facet normal 1.0 2.2649989073023705e-16 -1.4171733782761212e-14
  outer loop
    vertex 70.1480645030087 -25.482970975433126 125.13531933442248
    vertex 70.14806450300844 -18.323772367034778 115.92996993475413
    vertex 70.1480645030087 -24.80864144662443 125.13531933442248
  endloop
endfacet
facet normal 1.0 2.2649989073023705e-16 -1.4171733782761212e-14
  outer loop
    vertex 70.1480645030087 -24.80864144662443 125.13531933442248
    vertex 70.14806450300844 -18.323772367034778 115.92996993475413
    vertex 70.14806450300864 -24.186253446136217 126.5516815544225
  endloop
endfacet
facet normal 1.0 2.2649989073023705e-16 -1.4171733782761212e-14
  outer loop
    vertex 70.14806450300864 -24.186253446136217 126.5516815544225
    vertex 70.14806450300844 -18.323772367034778 115.92996993475413
    vertex 70.1480645030087 -23.096571439300288 125.13531933442239
  endloop
endfacet
facet normal 1.0 2.2649989073023705e-16 -1.4171733782761212e-14
  outer loop
    vertex 70.14806450300864 -24.186253446136217 126.5516815544225
    vertex 70.1480645030087 -23.096571439300288 125.13531933442239
    vertex 70.14806450300864 -23.71895943978858 126.55168155442234
  endloop
endfacet
facet normal 1.0 2.2649989073023705e-16 -1.4171733782761212e-14
  outer loop
    vertex 70.1480645030087 -23.096571439300288 125.13531933442239
    vertex 70.14806450300844 -18.323772367034778 115.92996993475413
    vertex 70.1480645030087 -22.42223611215187 125.13531933442239
  endloop
endfacet
facet normal 1.0 2.2649989073023705e-16 -1.4171733782761212e-14
  outer loop
    vertex 70.1480645030087 -22.42223611215187 125.13531933442239
    vertex 70.14806450300844 -18.323772367034778 115.92996993475413
    vertex 70.14806450300864 -21.799853910003435 126.55168155442234
  endloop
endfacet
facet normal 1.0 2.2649989073023705e-16 -1.4171733782761212e-14
  outer loop
    vertex 70.14806450300864 -21.799853910003435 126.55168155442234
    vertex 70.14806450300844 -18.323772367034778 115.92996993475413
    vertex 70.14806450300864 -21.332559903655774 126.55168155442234
  endloop
endfacet
facet normal 1.0 2.2649989073023705e-16 -1.4171733782761212e-14
  outer loop
    vertex 70.14806450300864 -21.332559903655774 126.55168155442234
    vertex 70.14806450300844 -18.323772367034778 115.92996993475413
    vertex 70.1480645030087 -20.710171903167506 125.13531933442239
  endloop
endfacet
facet normal 1.0 2.2649989073023705e-16 -1.4171733782761212e-14
  outer loop
    vertex 70.1480645030087 -20.710171903167506 125.13531933442239
    vertex 70.14806450300844 -18.323772367034778 115.92996993475413
    vertex 70.1480645030087 -20.035836576019115 125.13531933442239
  endloop
endfacet
facet normal 1.0 2.2649989073023705e-16 -1.4171733782761212e-14
  outer loop
    vertex 70.1480645030087 -20.035836576019115 125.13531933442239
    vertex 70.14806450300844 -18.323772367034778 115.92996993475413
    vertex 70.14806450300864 -19.413454373870675 126.55168155442234
  endloop
endfacet
facet normal 1.0 2.2649989073023705e-16 -1.4171733782761212e-14
  outer loop
    vertex 70.14806450300864 -19.413454373870675 126.55168155442234
    vertex 70.14806450300844 -18.323772367034778 115.92996993475413
    vertex 70.14806450300864 -18.946160367523014 126.55168155442234
  endloop
endfacet
facet normal 1.0 2.2649989073023705e-16 -1.4171733782761212e-14
  outer loop
    vertex 70.14806450300864 -18.946160367523014 126.55168155442234
    vertex 70.14806450300844 -18.323772367034778 115.92996993475413
    vertex 70.1480645030087 -18.323772367034746 125.13531933442235
  endloop
endfacet
facet normal -1.0 -2.2248612936403375e-16 1.5060207828933842e-14
  outer loop
    vertex 62.68992836920016 -34.35424249032559 125.13531933442258
    vertex 62.68992836919997 -18.32377236703487 115.92996993475425
    vertex 62.68992836919999 -34.354242490325646 115.92996993475447
  endloop
endfacet
facet normal -1.0 -2.2248612936403375e-16 1.5060207828933842e-14
  outer loop
    vertex 62.68992836919997 -18.32377236703487 115.92996993475425
    vertex 62.68992836920016 -34.35424249032559 125.13531933442258
    vertex 62.68992836920016 -32.64217248300135 125.13531933442258
  endloop
endfacet
facet normal -1.0 -2.2248612936403375e-16 1.5060207828933842e-14
  outer loop
    vertex 62.68992836920016 -32.64217248300135 125.13531933442258
    vertex 62.68992836920016 -34.35424249032559 125.13531933442258
    vertex 62.68992836920019 -33.73185159066742 126.55168155442261
  endloop
endfacet
facet normal -1.0 -2.2248612936403375e-16 1.5060207828933842e-14
  outer loop
    vertex 62.68992836920016 -32.64217248300135 125.13531933442258
    vertex 62.68992836920019 -33.73185159066742 126.55168155442261
    vertex 62.68992836920019 -33.26456338265956 126.55168155442261
  endloop
endfacet
facet normal -1.0 -2.2248612936403375e-16 1.5060207828933842e-14
  outer loop
    vertex 62.68992836919997 -18.32377236703487 115.92996993475425
    vertex 62.68992836920016 -32.64217248300135 125.13531933442258
    vertex 62.68992836920016 -31.967840055022908 125.13531933442258
  endloop
endfacet
facet normal -1.0 -2.2248612936403375e-16 1.5060207828933842e-14
  outer loop
    vertex 62.68992836919997 -18.32377236703487 115.92996993475425
    vertex 62.68992836920016 -31.967840055022908 125.13531933442258
    vertex 62.68992836920016 -30.255772946868618 125.13531933442258
  endloop
endfacet
facet normal -1.0 -2.2248612936403375e-16 1.5060207828933842e-14
  outer loop
    vertex 62.68992836920016 -30.255772946868618 125.13531933442258
    vertex 62.68992836920016 -31.967840055022908 125.13531933442258
    vertex 62.68992836920019 -31.34545205453455 126.55168155442261
  endloop
endfacet
facet normal -1.0 -2.2248612936403375e-16 1.5060207828933842e-14
  outer loop
    vertex 62.68992836920016 -30.255772946868618 125.13531933442258
    vertex 62.68992836920019 -31.34545205453455 126.55168155442261
    vertex 62.68992836920019 -30.87816094735686 126.55168155442261
  endloop
endfacet
facet normal -1.0 -2.2248612936403375e-16 1.5060207828933842e-14
  outer loop
    vertex 62.68992836919997 -18.32377236703487 115.92996993475425
    vertex 62.68992836920016 -30.255772946868618 125.13531933442258
    vertex 62.68992836920016 -29.58144341805995 125.13531933442258
  endloop
endfacet
facet normal -1.0 -2.2248612936403375e-16 1.5060207828933842e-14
  outer loop
    vertex 62.68992836919997 -18.32377236703487 115.92996993475425
    vertex 62.68992836920016 -29.58144341805995 125.13531933442258
    vertex 62.68992836920016 -27.869370511565897 125.13531933442253
  endloop
endfacet
facet normal -1.0 -2.2248612936403375e-16 1.5060207828933842e-14
  outer loop
    vertex 62.68992836920016 -27.869370511565897 125.13531933442253
    vertex 62.68992836920016 -29.58144341805995 125.13531933442258
    vertex 62.68992836920019 -28.959052518401837 126.55168155442261
  endloop
endfacet
facet normal -1.0 -2.2248612936403375e-16 1.5060207828933842e-14
  outer loop
    vertex 62.68992836920016 -27.869370511565897 125.13531933442253
    vertex 62.68992836920019 -28.959052518401837 126.55168155442261
    vertex 62.68992836920019 -28.491764310394057 126.55168155442261
  endloop
endfacet
facet normal -1.0 -2.2248612936403375e-16 1.5060207828933842e-14
  outer loop
    vertex 62.68992836919997 -18.32377236703487 115.92996993475425
    vertex 62.68992836920016 -27.869370511565897 125.13531933442253
    vertex 62.68992836920016 -27.195040982757305 125.13531933442253
  endloop
endfacet
facet normal -1.0 -2.2248612936403375e-16 1.5060207828933842e-14
  outer loop
    vertex 62.68992836919997 -18.32377236703487 115.92996993475425
    vertex 62.68992836920016 -27.195040982757305 125.13531933442253
    vertex 62.68992836920016 -25.482970975433112 125.13531933442253
  endloop
endfacet
facet normal -1.0 -2.2248612936403375e-16 1.5060207828933842e-14
  outer loop
    vertex 62.68992836920016 -25.482970975433112 125.13531933442253
    vertex 62.68992836920016 -27.195040982757305 125.13531933442253
    vertex 62.68992836920019 -26.57264718392912 126.55168155442256
  endloop
endfacet
facet normal -1.0 -2.2248612936403375e-16 1.5060207828933842e-14
  outer loop
    vertex 62.68992836920016 -25.482970975433112 125.13531933442253
    vertex 62.68992836920019 -26.57264718392912 126.55168155442256
    vertex 62.68992836920019 -26.105364774261208 126.55168155442256
  endloop
endfacet
facet normal -1.0 -2.2248612936403375e-16 1.5060207828933842e-14
  outer loop
    vertex 62.68992836919997 -18.32377236703487 115.92996993475425
    vertex 62.68992836920016 -25.482970975433112 125.13531933442253
    vertex 62.68992836920016 -24.80864144662443 125.13531933442253
  endloop
endfacet
facet normal -1.0 -2.2248612936403375e-16 1.5060207828933842e-14
  outer loop
    vertex 62.68992836919997 -18.32377236703487 115.92996993475425
    vertex 62.68992836920016 -24.80864144662443 125.13531933442253
    vertex 62.68992836920019 -24.186253446136217 126.55168155442257
  endloop
endfacet
facet normal -1.0 -2.2248612936403375e-16 1.5060207828933842e-14
  outer loop
    vertex 62.68992836919997 -18.32377236703487 115.92996993475425
    vertex 62.68992836920019 -24.186253446136217 126.55168155442257
    vertex 62.68992836920016 -23.096571439300277 125.13531933442253
  endloop
endfacet
facet normal -1.0 -2.2248612936403375e-16 1.5060207828933842e-14
  outer loop
    vertex 62.68992836920016 -23.096571439300277 125.13531933442253
    vertex 62.68992836920019 -24.186253446136217 126.55168155442257
    vertex 62.68992836920019 -23.71895943978857 126.55168155442257
  endloop
endfacet
facet normal -1.0 -2.2248612936403375e-16 1.5060207828933842e-14
  outer loop
    vertex 62.68992836919997 -18.32377236703487 115.92996993475425
    vertex 62.68992836920016 -23.096571439300277 125.13531933442253
    vertex 62.68992836920016 -22.42223611215185 125.13531933442253
  endloop
endfacet
facet normal -1.0 -2.2248612936403375e-16 1.5060207828933842e-14
  outer loop
    vertex 62.68992836919997 -18.32377236703487 115.92996993475425
    vertex 62.68992836920016 -22.42223611215185 125.13531933442253
    vertex 62.68992836920019 -21.799853910003414 126.55168155442256
  endloop
endfacet
facet normal -1.0 -2.2248612936403375e-16 1.5060207828933842e-14
  outer loop
    vertex 62.68992836919997 -18.32377236703487 115.92996993475425
    vertex 62.68992836920019 -21.799853910003414 126.55168155442256
    vertex 62.68992836920019 -21.332559903655742 126.55168155442256
  endloop
endfacet
facet normal -1.0 -2.2248612936403375e-16 1.5060207828933842e-14
  outer loop
    vertex 62.68992836919997 -18.32377236703487 115.92996993475425
    vertex 62.68992836920019 -21.332559903655742 126.55168155442256
    vertex 62.68992836920016 -20.71017190316748 125.13531933442253
  endloop
endfacet
facet normal -1.0 -2.2248612936403375e-16 1.5060207828933842e-14
  outer loop
    vertex 62.68992836919997 -18.32377236703487 115.92996993475425
    vertex 62.68992836920016 -20.71017190316748 125.13531933442253
    vertex 62.689928369200224 -20.035836576019168 125.13531933442253
  endloop
endfacet
facet normal -1.0 -2.2248612936403375e-16 1.5060207828933842e-14
  outer loop
    vertex 62.68992836919997 -18.32377236703487 115.92996993475425
    vertex 62.689928369200224 -20.035836576019168 125.13531933442253
    vertex 62.68992836920017 -19.413454373870767 126.55168155442249
  endloop
endfacet
facet normal -1.0 -2.2248612936403375e-16 1.5060207828933842e-14
  outer loop
    vertex 62.68992836919997 -18.32377236703487 115.92996993475425
    vertex 62.68992836920017 -19.413454373870767 126.55168155442249
    vertex 62.68992836920017 -18.946160367523106 126.55168155442249
  endloop
endfacet
facet normal -1.0 -2.2248612936403375e-16 1.5060207828933842e-14
  outer loop
    vertex 62.68992836919997 -18.32377236703487 115.92996993475425
    vertex 62.68992836920017 -18.946160367523106 126.55168155442249
    vertex 62.689928369200224 -18.323772367034834 125.13531933442253
  endloop
endfacet
facet normal 3.4396150757040165e-14 -2.4557183155543473e-14 1.0
  outer loop
    vertex 70.1480645030087 -20.710171903167506 125.13531933442239
    vertex 62.689928369200224 -20.035836576019168 125.13531933442253
    vertex 62.68992836920016 -20.71017190316748 125.13531933442253
  endloop
endfacet
facet normal 3.4396150757040165e-14 -2.4557183155543473e-14 1.0
  outer loop
    vertex 62.689928369200224 -20.035836576019168 125.13531933442253
    vertex 70.1480645030087 -20.710171903167506 125.13531933442239
    vertex 70.1480645030087 -20.035836576019115 125.13531933442239
  endloop
endfacet
facet normal -3.7072296545348685e-14 -1.7067551184599024e-14 -1.0
  outer loop
    vertex 70.14806450300844 -18.323772367034778 115.92996993475413
    vertex 62.68992836919999 -34.354242490325646 115.92996993475447
    vertex 62.68992836919997 -18.32377236703487 115.92996993475425
  endloop
endfacet
facet normal -3.7072296545348685e-14 -1.7067551184599024e-14 -1.0
  outer loop
    vertex 62.68992836919999 -34.354242490325646 115.92996993475447
    vertex 70.14806450300844 -18.323772367034778 115.92996993475413
    vertex 70.14806450300844 -34.354242490325646 115.92996993475433
  endloop
endfacet
facet normal -1.3897588718984685e-14 1.0 -3.482735727470279e-15
  outer loop
    vertex 62.68992836919997 -18.32377236703487 115.92996993475425
    vertex 70.1480645030087 -18.323772367034746 125.13531933442235
    vertex 70.14806450300844 -18.323772367034778 115.92996993475413
  endloop
endfacet
facet normal -1.3897588718984685e-14 1.0 -3.482735727470279e-15
  outer loop
    vertex 70.1480645030087 -18.323772367034746 125.13531933442235
    vertex 62.68992836919997 -18.32377236703487 115.92996993475425
    vertex 62.689928369200224 -18.323772367034834 125.13531933442253
  endloop
endfacet
facet normal -4.2077327462572295e-15 0.9574381904398833 0.2886383749386101
  outer loop
    vertex 62.689928369200224 -18.323772367034834 125.13531933442253
    vertex 70.14806450300864 -18.946160367523014 126.55168155442234
    vertex 70.1480645030087 -18.323772367034746 125.13531933442235
  endloop
endfacet
facet normal -4.2077327462572295e-15 0.9574381904398833 0.2886383749386101
  outer loop
    vertex 70.14806450300864 -18.946160367523014 126.55168155442234
    vertex 62.689928369200224 -18.323772367034834 125.13531933442253
    vertex 62.68992836920017 -18.946160367523106 126.55168155442249
  endloop
endfacet
facet normal 3.1521620956535e-14 -1.7505674080418588e-16 1.0
  outer loop
    vertex 70.14806450300864 -19.413454373870675 126.55168155442234
    vertex 62.68992836920017 -18.946160367523106 126.55168155442249
    vertex 62.68992836920017 -19.413454373870767 126.55168155442249
  endloop
endfacet
facet normal 3.1521620956535e-14 -1.7505674080418588e-16 1.0
  outer loop
    vertex 62.68992836920017 -18.946160367523106 126.55168155442249
    vertex 70.14806450300864 -19.413454373870675 126.55168155442234
    vertex 70.14806450300864 -18.946160367523014 126.55168155442234
  endloop
endfacet
facet normal 2.2404364269422635e-14 -0.957438933561378 0.28863590992953564
  outer loop
    vertex 70.14806450300864 -19.413454373870675 126.55168155442234
    vertex 62.689928369200224 -20.035836576019168 125.13531933442253
    vertex 70.1480645030087 -20.035836576019115 125.13531933442239
  endloop
endfacet
facet normal 2.2404364269422635e-14 -0.957438933561378 0.28863590992953564
  outer loop
    vertex 62.689928369200224 -20.035836576019168 125.13531933442253
    vertex 70.14806450300864 -19.413454373870675 126.55168155442234
    vertex 62.68992836920017 -19.413454373870767 126.55168155442249
  endloop
endfacet
endsolid pedro_robot
