solid pedro_robot
facet normal -3.182664097159348e-05 -0.9999999975783886 -6.188932033471495e-05
  outer loop
    vertex -7.016827341368275 39.2419705538251 54.13111198671659
    vertex -15.875077921007067 39.24225297071931 54.123218335765415
    vertex -11.445433020846243 39.2421478337322 53.544059753678624
  endloop
endfacet
facet normal -3.182664097159348e-05 -0.9999999975783886 -6.188932033471495e-05
  outer loop
    vertex -15.875077921007067 39.24225297071931 54.123218335765415
    vertex -7.016827341368275 39.2419705538251 54.13111198671659
    vertex -20.003889062292085 39.24227879987451 55.829119032717635
  endloop
endfacet
facet normal -3.182664097159348e-05 -0.9999999975783886 -6.188932033471495e-05
  outer loop
    vertex -20.003889062292085 39.24227879987451 55.829119032717635
    vertex -7.016827341368275 39.2419705538251 54.13111198671659
    vertex -2.891063040994248 39.24173321233072 55.84436839536639
  endloop
endfacet
facet normal -3.182664097159348e-05 -0.9999999975783886 -6.188932033471495e-05
  outer loop
    vertex -20.003889062292085 39.24227879987451 55.829119032717635
    vertex -2.891063040994248 39.24173321233072 55.84436839536639
    vertex -23.550494788609985 39.24222356098357 58.545507531207214
  endloop
endfacet
facet normal -3.182664097159348e-05 -0.9999999975783886 -6.188932033471495e-05
  outer loop
    vertex -23.550494788609985 39.24222356098357 58.545507531207214
    vertex -2.891063040994248 39.24173321233072 55.84436839536639
    vertex -2.0298735192812085 39.24166483072313 56.50640245040259
  endloop
endfacet
facet normal -3.182664097159348e-05 -0.9999999975783886 -6.188932033471495e-05
  outer loop
    vertex -23.550494788609985 39.24222356098357 58.545507531207214
    vertex -2.0298735192812085 39.24166483072313 56.50640245040259
    vertex -2.005266331759411 39.241662876822154 56.525319071817734
  endloop
endfacet
facet normal -3.182664097159348e-05 -0.9999999975783886 -6.188932033471495e-05
  outer loop
    vertex -23.550494788609985 39.24222356098357 58.545507531207214
    vertex -2.005266331759411 39.241662876822154 56.525319071817734
    vertex 0.6506958613339459 39.24145198367966 58.5670733866831
  endloop
endfacet
facet normal -3.182664097159348e-05 -0.9999999975783886 -6.188932033471495e-05
  outer loop
    vertex -23.550494788609985 39.24222356098357 58.545507531207214
    vertex 0.6506958613339459 39.24145198367966 58.5670733866831
    vertex -26.27319978075296 39.24209101848559 62.0872664441313
  endloop
endfacet
facet normal -3.182664097159348e-05 -0.9999999975783886 -6.188932033471495e-05
  outer loop
    vertex -26.27319978075296 39.24209101848559 62.0872664441313
    vertex 0.6506958613339459 39.24145198367966 58.5670733866831
    vertex 3.367084349478984 39.241146033139735 62.113679115040576
  endloop
endfacet
facet normal -3.182664097159348e-05 -0.9999999975783886 -6.188932033471495e-05
  outer loop
    vertex -26.27319978075296 39.24209101848559 62.0872664441313
    vertex 3.367084349478984 39.241146033139735 62.113679115040576
    vertex -27.986456192960205 39.24189020493279 66.2130307546243
  endloop
endfacet
facet normal -3.182664097159348e-05 -0.9999999975783886 -6.188932033471495e-05
  outer loop
    vertex -27.986456192960205 39.24189020493279 66.2130307546243
    vertex 3.367084349478984 39.241146033139735 62.113679115040576
    vertex 5.072985036967313 39.240836210734656 66.24249026109241
  endloop
endfacet
facet normal -3.182664097159348e-05 -0.9999999975783886 -6.188932033471495e-05
  outer loop
    vertex -27.986456192960205 39.24189020493279 66.2130307546243
    vertex 5.072985036967313 39.240836210734656 66.24249026109241
    vertex -28.573508431993705 39.241634805436924 70.64163644306232
  endloop
endfacet
facet normal -3.182664097159348e-05 -0.9999999975783886 -6.188932033471495e-05
  outer loop
    vertex -28.573508431993705 39.241634805436924 70.64163644306232
    vertex 5.072985036967313 39.240836210734656 66.24249026109241
    vertex 5.6521436110580225 39.2405436303493 70.67213516840476
  endloop
endfacet
facet normal -3.182664097159348e-05 -0.9999999975783886 -6.188932033471495e-05
  outer loop
    vertex -28.573508431993705 39.241634805436924 70.64163644306232
    vertex 5.6521436110580225 39.2405436303493 70.67213516840476
    vertex -27.99434985789703 39.24134222505157 75.07128135037388
  endloop
endfacet
facet normal -3.182664097159348e-05 -0.9999999975783886 -6.188932033471495e-05
  outer loop
    vertex -27.99434985789703 39.24134222505157 75.07128135037388
    vertex 5.6521436110580225 39.2405436303493 70.67213516840476
    vertex 5.065091372023202 39.240288230853444 75.100740856846
  endloop
endfacet
facet normal -3.182664097159348e-05 -0.9999999975783886 -6.188932033471495e-05
  outer loop
    vertex -27.99434985789703 39.24134222505157 75.07128135037388
    vertex 5.065091372023202 39.240288230853444 75.100740856846
    vertex -26.28844917040778 39.24103240264649 79.20009249642641
  endloop
endfacet
facet normal -3.182664097159348e-05 -0.9999999975783886 -6.188932033471495e-05
  outer loop
    vertex -26.28844917040778 39.24103240264649 79.20009249642641
    vertex 5.065091372023202 39.240288230853444 75.100740856846
    vertex 3.3518349598212143 39.24008741730065 79.22650516733555
  endloop
endfacet
facet normal -3.182664097159348e-05 -0.9999999975783886 -6.188932033471495e-05
  outer loop
    vertex -26.28844917040778 39.24103240264649 79.20009249642641
    vertex 3.3518349598212143 39.24008741730065 79.22650516733555
    vertex -23.03382044040685 39.24066582937411 83.44944230329834
  endloop
endfacet
facet normal -3.182664097159348e-05 -0.9999999975783886 -6.188932033471495e-05
  outer loop
    vertex -23.03382044040685 39.24066582937411 83.44944230329834
    vertex 3.3518349598212143 39.24008741730065 79.22650516733555
    vertex 0.08963813875211817 39.23992861209891 83.47004778398765
  endloop
endfacet
facet normal -3.182664097159348e-05 -0.9999999975783886 -6.188932033471495e-05
  outer loop
    vertex -23.03382044040685 39.24066582937411 83.44944230329834
    vertex 0.08963813875211817 39.23992861209891 83.47004778398765
    vertex -22.414128857180046 39.240483720167596 86.0732634030954
  endloop
endfacet
facet normal -3.182664097159348e-05 -0.9999999975783886 -6.188932033471495e-05
  outer loop
    vertex -22.414128857180046 39.240483720167596 86.0732634030954
    vertex 0.08963813875211817 39.23992861209891 83.47004778398765
    vertex -0.5347411963324173 39.23978616284602 86.09281288439377
  endloop
endfacet
facet normal -3.182664097159348e-05 -0.9999999975783886 -6.188932033471495e-05
  outer loop
    vertex -22.414128857180046 39.240483720167596 86.0732634030954
    vertex -0.5347411963324173 39.23978616284602 86.09281288439377
    vertex -21.844933023210658 39.24028818788576 88.939940383002
  endloop
endfacet
facet normal -3.182664097159348e-05 -0.9999999975783886 -6.188932033471495e-05
  outer loop
    vertex -21.844933023210658 39.24028818788576 88.939940383002
    vertex -0.5347411963324173 39.23978616284602 86.09281288439377
    vertex -1.1077971835893352 39.23962702725804 88.95880064780663
  endloop
endfacet
facet normal -3.182664097159348e-05 -0.9999999975783886 -6.188932033471495e-05
  outer loop
    vertex -21.844933023210658 39.24028818788576 88.939940383002
    vertex -1.1077971835893352 39.23962702725804 88.95880064780663
    vertex -21.397438929392184 39.240095148961764 91.82891522869829
  endloop
endfacet
facet normal -3.182664097159348e-05 -0.9999999975783886 -6.188932033471495e-05
  outer loop
    vertex -21.397438929392184 39.240095148961764 91.82891522869829
    vertex -1.1077971835893352 39.23962702725804 88.95880064780663
    vertex -1.559169827473935 39.23946263207302 91.84719655737237
  endloop
endfacet
facet normal -3.182664097159348e-05 -0.9999999975783886 -6.188932033471495e-05
  outer loop
    vertex -21.397438929392184 39.240095148961764 91.82891522869829
    vertex -1.559169827473935 39.23946263207302 91.84719655737237
    vertex -21.072601725639448 39.23990500194898 94.73423935073338
  endloop
endfacet
facet normal -3.182664097159348e-05 -0.9999999975783886 -6.188932033471495e-05
  outer loop
    vertex -21.072601725639448 39.23990500194898 94.73423935073338
    vertex -1.559169827473935 39.23946263207302 91.84719655737237
    vertex -1.8879066143929881 39.23929331176526 94.75210638784995
  endloop
endfacet
facet normal -3.182664097159348e-05 -0.9999999975783886 -6.188932033471495e-05
  outer loop
    vertex -21.072601725639448 39.23990500194898 94.73423935073338
    vertex -1.8879066143929881 39.23929331176526 94.75210638784995
    vertex -20.871003403269565 39.23971808752243 97.65070745378735
  endloop
endfacet
facet normal -3.182664097159348e-05 -0.9999999975783886 -6.188932033471495e-05
  outer loop
    vertex -20.871003403269565 39.23971808752243 97.65070745378735
    vertex -1.8879066143929881 39.23929331176526 94.75210638784995
    vertex -2.093418566364019 39.239119369695814 97.66832558617043
  endloop
endfacet
facet normal -3.182664097159348e-05 -0.9999999975783886 -6.188932033471495e-05
  outer loop
    vertex -20.871003403269565 39.23971808752243 97.65070745378735
    vertex -2.093418566364019 39.239119369695814 97.66832558617043
    vertex -20.7930051539302 39.23953474056549 100.57309427653068
  endloop
endfacet
facet normal -3.182664097159348e-05 -0.9999999975783886 -6.188932033471495e-05
  outer loop
    vertex -20.7930051539302 39.23953474056549 100.57309427653068
    vertex -2.093418566364019 39.239119369695814 97.66832558617043
    vertex -2.1753374799609193 39.238941117506286 100.59062933696474
  endloop
endfacet
facet normal -3.182664097159348e-05 -0.9999999975783886 -6.188932033471495e-05
  outer loop
    vertex -20.7930051539302 39.23953474056549 100.57309427653068
    vertex -2.1753374799609193 39.238941117506286 100.59062933696474
    vertex -20.838746722375518 39.23935528956994 103.49616395340715
  endloop
endfacet
facet normal -3.182664097159348e-05 -0.9999999975783886 -6.188932033471495e-05
  outer loop
    vertex -20.838746722375518 39.23935528956994 103.49616395340715
    vertex -2.1753374799609193 39.238941117506286 100.59062933696474
    vertex -2.133516585987967 39.23875887456045 103.51378192354055
  endloop
endfacet
facet normal -3.182664097159348e-05 -0.9999999975783886 -6.188932033471495e-05
  outer loop
    vertex -20.838746722375518 39.23935528956994 103.49616395340715
    vertex -2.133516585987967 39.23875887456045 103.51378192354055
    vertex -21.00814615617307 39.239180056047374 106.41467939546682
  endloop
endfacet
facet normal -3.182664097159348e-05 -0.9999999975783886 -6.188932033471495e-05
  outer loop
    vertex -21.00814615617307 39.239180056047374 106.41467939546682
    vertex -2.133516585987967 39.23875887456045 103.51378192354055
    vertex -1.968030812422181 39.238572967372086 106.43254610839158
  endloop
endfacet
facet normal -3.182664097159348e-05 -0.9999999975783886 -6.188932033471495e-05
  outer loop
    vertex -21.00814615617307 39.239180056047374 106.41467939546682
    vertex -1.968030812422181 39.238572967372086 106.43254610839158
    vertex -21.300899952511422 39.23900935395323 109.3234116732926
  endloop
endfacet
facet normal -3.182664097159348e-05 -0.9999999975783886 -6.188932033471495e-05
  outer loop
    vertex -21.300899952511422 39.23900935395323 109.3234116732926
    vertex -1.968030812422181 39.238572967372086 106.43254610839158
    vertex -1.6791766502055119 39.23838372901997 109.34169251642886
  endloop
endfacet
facet normal -3.182664097159348e-05 -0.9999999975783886 -6.188932033471495e-05
  outer loop
    vertex -21.300899952511422 39.23900935395323 109.3234116732926
    vertex -1.6791766502055119 39.23838372901997 109.34169251642886
    vertex -21.71648360196475 39.2388434891242 112.2171493853713
  endloop
endfacet
facet normal -3.182664097159348e-05 -0.9999999975783886 -6.188932033471495e-05
  outer loop
    vertex -21.71648360196475 39.2388434891242 112.2171493853713
    vertex -1.6791766502055119 39.23838372901997 109.34169251642886
    vertex -1.2674716220330506 39.23819149855112 112.23600900417848
  endloop
endfacet
facet normal -3.182664097159348e-05 -0.9999999975783886 -6.188932033471495e-05
  outer loop
    vertex -21.71648360196475 39.2388434891242 112.2171493853713
    vertex -1.2674716220330506 39.23819149855112 112.23600900417848
    vertex -22.25415252821814 39.23868275873039 115.09070799505358
  endloop
endfacet
facet normal -3.182664097159348e-05 -0.9999999975783886 -6.188932033471495e-05
  outer loop
    vertex -22.25415252821814 39.23868275873039 115.09070799505358
    vertex -1.2674716220330506 39.23819149855112 112.23600900417848
    vertex -0.7336533551130593 39.23799662037338 115.1103099980358
  endloop
endfacet
facet normal -3.182664097159348e-05 -0.9999999975783886 -6.188932033471495e-05
  outer loop
    vertex -22.25415252821814 39.23868275873039 115.09070799505358
    vertex -0.7336533551130593 39.23799662037338 115.1103099980358
    vertex -23.05748117195762 39.238493376399575 118.56383682451482
  endloop
endfacet
facet normal -3.182664097159348e-05 -0.9999999975783886 -6.188932033471495e-05
  outer loop
    vertex -23.05748117195762 39.238493376399575 118.56383682451482
    vertex -0.7336533551130593 39.23799662037338 115.1103099980358
    vertex 0.06500952968352958 39.23775618720098 118.58448637879359
  endloop
endfacet
facet normal -3.182664097159348e-05 -0.9999999975783886 -6.188932033471495e-05
  outer loop
    vertex -23.05748117195762 39.238493376399575 118.56383682451482
    vertex 0.06500952968352958 39.23775618720098 118.58448637879359
    vertex -26.32017973408506 39.238334546772855 122.80803211777666
  endloop
endfacet
facet normal -3.182664097159348e-05 -0.9999999975783886 -6.188932033471495e-05
  outer loop
    vertex -26.32017973408506 39.238334546772855 122.80803211777666
    vertex 0.06500952968352958 39.23775618720098 118.58448637879359
    vertex 3.3201043961442465 39.23738956142701 122.83444478868579
  endloop
endfacet
facet normal -3.182664097159348e-05 -0.9999999975783886 -6.188932033471495e-05
  outer loop
    vertex -26.32017973408506 39.238334546772855 122.80803211777666
    vertex 3.3201043961442465 39.23738956142701 122.83444478868579
    vertex -28.033436146286697 39.23813373322006 126.93379642826612
  endloop
endfacet
facet normal -3.182664097159348e-05 -0.9999999975783886 -6.188932033471495e-05
  outer loop
    vertex -28.033436146286697 39.23813373322006 126.93379642826612
    vertex 3.3201043961442465 39.23738956142701 122.83444478868579
    vertex 5.026005083633353 39.23707973902192 126.96325593473827
  endloop
endfacet
facet normal -3.182664097159348e-05 -0.9999999975783886 -6.188932033471495e-05
  outer loop
    vertex -28.033436146286697 39.23813373322006 126.93379642826612
    vertex 5.026005083633353 39.23707973902192 126.96325593473827
    vertex -28.620488385321522 39.23787833372419 131.3624021167074
  endloop
endfacet
facet normal -3.182664097159348e-05 -0.9999999975783886 -6.188932033471495e-05
  outer loop
    vertex -28.620488385321522 39.23787833372419 131.3624021167074
    vertex 5.026005083633353 39.23707973902192 126.96325593473827
    vertex 5.605163657730182 39.23678715863658 131.39290084204984
  endloop
endfacet
facet normal -3.182664097159348e-05 -0.9999999975783886 -6.188932033471495e-05
  outer loop
    vertex -28.620488385321522 39.23787833372419 131.3624021167074
    vertex 5.605163657730182 39.23678715863658 131.39290084204984
    vertex -28.041329811230813 39.23758575333884 135.79204702401975
  endloop
endfacet
facet normal -3.182664097159348e-05 -0.9999999975783886 -6.188932033471495e-05
  outer loop
    vertex -28.041329811230813 39.23758575333884 135.79204702401975
    vertex 5.605163657730182 39.23678715863658 131.39290084204984
    vertex 5.018111418696535 39.23653175914072 135.82150653048785
  endloop
endfacet
facet normal -3.182664097159348e-05 -0.9999999975783886 -6.188932033471495e-05
  outer loop
    vertex -28.041329811230813 39.23758575333884 135.79204702401975
    vertex 5.018111418696535 39.23653175914072 135.82150653048785
    vertex -26.33542912374249 39.237275930933755 139.92085817007163
  endloop
endfacet
facet normal -3.182664097159348e-05 -0.9999999975783886 -6.188932033471495e-05
  outer loop
    vertex -26.33542912374249 39.237275930933755 139.92085817007163
    vertex 5.018111418696535 39.23653175914072 135.82150653048785
    vertex 3.304855006489449 39.23633094558791 139.94727084098088
  endloop
endfacet
facet normal -3.182664097159348e-05 -0.9999999975783886 -6.188932033471495e-05
  outer loop
    vertex -26.33542912374249 39.237275930933755 139.92085817007163
    vertex 3.304855006489449 39.23633094558791 139.94727084098088
    vertex -23.619040635597457 39.236969980393845 143.46746389842912
  endloop
endfacet
facet normal -3.182664097159348e-05 -0.9999999975783886 -6.188932033471495e-05
  outer loop
    vertex -23.619040635597457 39.236969980393845 143.46746389842912
    vertex 3.304855006489449 39.23633094558791 139.94727084098088
    vertex 0.582150014346169 39.23619840308994 143.48902975390493
  endloop
endfacet
facet normal -3.182664097159348e-05 -0.9999999975783886 -6.188932033471495e-05
  outer loop
    vertex -23.619040635597457 39.236969980393845 143.46746389842912
    vertex 0.582150014346169 39.23619840308994 143.48902975390493
    vertex -20.963078442504127 39.236759087251336 145.50921821329447
  endloop
endfacet
facet normal -3.182664097159348e-05 -0.9999999975783886 -6.188932033471495e-05
  outer loop
    vertex -20.963078442504127 39.236759087251336 145.50921821329447
    vertex 0.582150014346169 39.23619840308994 143.48902975390493
    vertex -2.9644557119721067 39.236143164198985 146.20541825239485
  endloop
endfacet
facet normal -3.182664097159348e-05 -0.9999999975783886 -6.188932033471495e-05
  outer loop
    vertex -20.963078442504127 39.236759087251336 145.50921821329447
    vertex -2.9644557119721067 39.236143164198985 146.20541825239485
    vertex -20.93847125498337 39.23675713335037 145.52813483470882
  endloop
endfacet
facet normal -3.182664097159348e-05 -0.9999999975783886 -6.188932033471495e-05
  outer loop
    vertex -20.93847125498337 39.23675713335037 145.52813483470882
    vertex -2.9644557119721067 39.236143164198985 146.20541825239485
    vertex -20.07728173326926 39.23668875174278 146.19016888974588
  endloop
endfacet
facet normal -3.182664097159348e-05 -0.9999999975783886 -6.188932033471495e-05
  outer loop
    vertex -20.07728173326926 39.23668875174278 146.19016888974588
    vertex -2.9644557119721067 39.236143164198985 146.20541825239485
    vertex -15.951517432895248 39.23645141024839 147.9034252983956
  endloop
endfacet
facet normal -3.182664097159348e-05 -0.9999999975783886 -6.188932033471495e-05
  outer loop
    vertex -15.951517432895248 39.23645141024839 147.9034252983956
    vertex -2.9644557119721067 39.236143164198985 146.20541825239485
    vertex -7.093266853256444 39.236168993354184 147.91131894934676
  endloop
endfacet
facet normal -3.182664097159348e-05 -0.9999999975783886 -6.188932033471495e-05
  outer loop
    vertex -15.951517432895248 39.23645141024839 147.9034252983956
    vertex -7.093266853256444 39.236168993354184 147.91131894934676
    vertex -11.522911753417262 39.2362741303413 148.4904775314336
  endloop
endfacet
facet normal 3.182664097159348e-05 0.9999999975783886 6.188932033471495e-05
  outer loop
    vertex -15.874982415043881 42.2430711544259 54.123404054363704
    vertex -7.01673183540509 42.242788737531676 54.13129770531488
    vertex -11.445337514883061 42.24296601743878 53.54424547227691
  endloop
endfacet
facet normal 3.182664097159348e-05 0.9999999975783886 6.188932033471495e-05
  outer loop
    vertex -7.01673183540509 42.242788737531676 54.13129770531488
    vertex -15.874982415043881 42.2430711544259 54.123404054363704
    vertex -20.0037935563289 42.2430969835811 55.829304751315924
  endloop
endfacet
facet normal 3.182664097159348e-05 0.9999999975783886 6.188932033471495e-05
  outer loop
    vertex -7.01673183540509 42.242788737531676 54.13129770531488
    vertex -20.0037935563289 42.2430969835811 55.829304751315924
    vertex -2.890967535031066 42.2425513960373 55.844554113964676
  endloop
endfacet
facet normal 3.182664097159348e-05 0.9999999975783886 6.188932033471495e-05
  outer loop
    vertex -2.890967535031066 42.2425513960373 55.844554113964676
    vertex -20.0037935563289 42.2430969835811 55.829304751315924
    vertex -23.550399282646797 42.243041744690146 58.5456932498055
  endloop
endfacet
facet normal 3.182664097159348e-05 0.9999999975783886 6.188932033471495e-05
  outer loop
    vertex -2.890967535031066 42.2425513960373 55.844554113964676
    vertex -23.550399282646797 42.243041744690146 58.5456932498055
    vertex -2.029778013318026 42.242483014429716 56.50658816900088
  endloop
endfacet
facet normal 3.182664097159348e-05 0.9999999975783886 6.188932033471495e-05
  outer loop
    vertex -2.029778013318026 42.242483014429716 56.50658816900088
    vertex -23.550399282646797 42.243041744690146 58.5456932498055
    vertex -2.0051708257962284 42.24248106052874 56.52550479041602
  endloop
endfacet
facet normal 3.182664097159348e-05 0.9999999975783886 6.188932033471495e-05
  outer loop
    vertex -2.0051708257962284 42.24248106052874 56.52550479041602
    vertex -23.550399282646797 42.243041744690146 58.5456932498055
    vertex 0.6507913672971337 42.24227016738624 58.56725910528139
  endloop
endfacet
facet normal 3.182664097159348e-05 0.9999999975783886 6.188932033471495e-05
  outer loop
    vertex 0.6507913672971337 42.24227016738624 58.56725910528139
    vertex -23.550399282646797 42.243041744690146 58.5456932498055
    vertex -26.273104274789777 42.24290920219217 62.08745216272959
  endloop
endfacet
facet normal 3.182664097159348e-05 0.9999999975783886 6.188932033471495e-05
  outer loop
    vertex 0.6507913672971337 42.24227016738624 58.56725910528139
    vertex -26.273104274789777 42.24290920219217 62.08745216272959
    vertex 3.367179855442172 42.24196421684632 62.113864833638864
  endloop
endfacet
facet normal 3.182664097159348e-05 0.9999999975783886 6.188932033471495e-05
  outer loop
    vertex 3.367179855442172 42.24196421684632 62.113864833638864
    vertex -26.273104274789777 42.24290920219217 62.08745216272959
    vertex -27.98636068699702 42.24270838863937 66.21321647322259
  endloop
endfacet
facet normal 3.182664097159348e-05 0.9999999975783886 6.188932033471495e-05
  outer loop
    vertex 3.367179855442172 42.24196421684632 62.113864833638864
    vertex -27.98636068699702 42.24270838863937 66.21321647322259
    vertex 5.073080542930494 42.241654394441234 66.2426759796907
  endloop
endfacet
facet normal 3.182664097159348e-05 0.9999999975783886 6.188932033471495e-05
  outer loop
    vertex 5.073080542930494 42.241654394441234 66.2426759796907
    vertex -27.98636068699702 42.24270838863937 66.21321647322259
    vertex -28.57341292603052 42.2424529891435 70.64182216166061
  endloop
endfacet
facet normal 3.182664097159348e-05 0.9999999975783886 6.188932033471495e-05
  outer loop
    vertex 5.073080542930494 42.241654394441234 66.2426759796907
    vertex -28.57341292603052 42.2424529891435 70.64182216166061
    vertex 5.652239117021205 42.241361814055885 70.67232088700305
  endloop
endfacet
facet normal 3.182664097159348e-05 0.9999999975783886 6.188932033471495e-05
  outer loop
    vertex 5.652239117021205 42.241361814055885 70.67232088700305
    vertex -28.57341292603052 42.2424529891435 70.64182216166061
    vertex -27.99425435193385 42.24216040875815 75.07146706897217
  endloop
endfacet
facet normal 3.182664097159348e-05 0.9999999975783886 6.188932033471495e-05
  outer loop
    vertex 5.652239117021205 42.241361814055885 70.67232088700305
    vertex -27.99425435193385 42.24216040875815 75.07146706897217
    vertex 5.065186877986385 42.24110641456003 75.10092657544429
  endloop
endfacet
facet normal 3.182664097159348e-05 0.9999999975783886 6.188932033471495e-05
  outer loop
    vertex 5.065186877986385 42.24110641456003 75.10092657544429
    vertex -27.99425435193385 42.24216040875815 75.07146706897217
    vertex -26.288353664444596 42.241850586353074 79.2002782150247
  endloop
endfacet
facet normal 3.182664097159348e-05 0.9999999975783886 6.188932033471495e-05
  outer loop
    vertex 5.065186877986385 42.24110641456003 75.10092657544429
    vertex -26.288353664444596 42.241850586353074 79.2002782150247
    vertex 3.3519304657844025 42.240905601007235 79.22669088593383
  endloop
endfacet
facet normal 3.182664097159348e-05 0.9999999975783886 6.188932033471495e-05
  outer loop
    vertex 3.3519304657844025 42.240905601007235 79.22669088593383
    vertex -26.288353664444596 42.241850586353074 79.2002782150247
    vertex -23.033724934443665 42.241484013080694 83.44962802189663
  endloop
endfacet
facet normal 3.182664097159348e-05 0.9999999975783886 6.188932033471495e-05
  outer loop
    vertex 3.3519304657844025 42.240905601007235 79.22669088593383
    vertex -23.033724934443665 42.241484013080694 83.44962802189663
    vertex 0.08973364471530036 42.240746795805485 83.47023350258594
  endloop
endfacet
facet normal 3.182664097159348e-05 0.9999999975783886 6.188932033471495e-05
  outer loop
    vertex 0.08973364471530036 42.240746795805485 83.47023350258594
    vertex -23.033724934443665 42.241484013080694 83.44962802189663
    vertex -22.41403335121686 42.241301903874174 86.07344912169368
  endloop
endfacet
facet normal 3.182664097159348e-05 0.9999999975783886 6.188932033471495e-05
  outer loop
    vertex 0.08973364471530036 42.240746795805485 83.47023350258594
    vertex -22.41403335121686 42.241301903874174 86.07344912169368
    vertex -0.5346456903692295 42.2406043465526 86.09299860299205
  endloop
endfacet
facet normal 3.182664097159348e-05 0.9999999975783886 6.188932033471495e-05
  outer loop
    vertex -0.5346456903692295 42.2406043465526 86.09299860299205
    vertex -22.41403335121686 42.241301903874174 86.07344912169368
    vertex -21.844837517247473 42.24110637159234 88.94012610160028
  endloop
endfacet
facet normal 3.182664097159348e-05 0.9999999975783886 6.188932033471495e-05
  outer loop
    vertex -0.5346456903692295 42.2406043465526 86.09299860299205
    vertex -21.844837517247473 42.24110637159234 88.94012610160028
    vertex -1.107701677626153 42.24044521096462 88.95898636640491
  endloop
endfacet
facet normal 3.182664097159348e-05 0.9999999975783886 6.188932033471495e-05
  outer loop
    vertex -1.107701677626153 42.24044521096462 88.95898636640491
    vertex -21.844837517247473 42.24110637159234 88.94012610160028
    vertex -21.397343423429 42.24091333266835 91.82910094729658
  endloop
endfacet
facet normal 3.182664097159348e-05 0.9999999975783886 6.188932033471495e-05
  outer loop
    vertex -1.107701677626153 42.24044521096462 88.95898636640491
    vertex -21.397343423429 42.24091333266835 91.82910094729658
    vertex -1.5590743215107472 42.240280815779606 91.84738227597066
  endloop
endfacet
facet normal 3.182664097159348e-05 0.9999999975783886 6.188932033471495e-05
  outer loop
    vertex -1.5590743215107472 42.240280815779606 91.84738227597066
    vertex -21.397343423429 42.24091333266835 91.82910094729658
    vertex -21.072506219676264 42.24072318565557 94.73442506933166
  endloop
endfacet
facet normal 3.182664097159348e-05 0.9999999975783886 6.188932033471495e-05
  outer loop
    vertex -1.5590743215107472 42.240280815779606 91.84738227597066
    vertex -21.072506219676264 42.24072318565557 94.73442506933166
    vertex -1.8878111084298002 42.240111495471844 94.75229210644824
  endloop
endfacet
facet normal 3.182664097159348e-05 0.9999999975783886 6.188932033471495e-05
  outer loop
    vertex -1.8878111084298002 42.240111495471844 94.75229210644824
    vertex -21.072506219676264 42.24072318565557 94.73442506933166
    vertex -20.87090789730638 42.24053627122901 97.65089317238564
  endloop
endfacet
facet normal 3.182664097159348e-05 0.9999999975783886 6.188932033471495e-05
  outer loop
    vertex -1.8878111084298002 42.240111495471844 94.75229210644824
    vertex -20.87090789730638 42.24053627122901 97.65089317238564
    vertex -2.093323060400837 42.2399375534024 97.66851130476871
  endloop
endfacet
facet normal 3.182664097159348e-05 0.9999999975783886 6.188932033471495e-05
  outer loop
    vertex -2.093323060400837 42.2399375534024 97.66851130476871
    vertex -20.87090789730638 42.24053627122901 97.65089317238564
    vertex -20.792909647967015 42.24035292427207 100.57327999512897
  endloop
endfacet
facet normal 3.182664097159348e-05 0.9999999975783886 6.188932033471495e-05
  outer loop
    vertex -2.093323060400837 42.2399375534024 97.66851130476871
    vertex -20.792909647967015 42.24035292427207 100.57327999512897
    vertex -2.1752419739977373 42.23975930121287 100.59081505556301
  endloop
endfacet
facet normal 3.182664097159348e-05 0.9999999975783886 6.188932033471495e-05
  outer loop
    vertex -2.1752419739977373 42.23975930121287 100.59081505556301
    vertex -20.792909647967015 42.24035292427207 100.57327999512897
    vertex -20.838651216412334 42.24017347327652 103.49634967200544
  endloop
endfacet
facet normal 3.182664097159348e-05 0.9999999975783886 6.188932033471495e-05
  outer loop
    vertex -2.1752419739977373 42.23975930121287 100.59081505556301
    vertex -20.838651216412334 42.24017347327652 103.49634967200544
    vertex -2.133421080024779 42.23957705826704 103.51396764213884
  endloop
endfacet
facet normal 3.182664097159348e-05 0.9999999975783886 6.188932033471495e-05
  outer loop
    vertex -2.133421080024779 42.23957705826704 103.51396764213884
    vertex -20.838651216412334 42.24017347327652 103.49634967200544
    vertex -21.008050650209885 42.23999823975396 106.41486511406511
  endloop
endfacet
facet normal 3.182664097159348e-05 0.9999999975783886 6.188932033471495e-05
  outer loop
    vertex -2.133421080024779 42.23957705826704 103.51396764213884
    vertex -21.008050650209885 42.23999823975396 106.41486511406511
    vertex -1.967935306458993 42.23939115107867 106.43273182698987
  endloop
endfacet
facet normal 3.182664097159348e-05 0.9999999975783886 6.188932033471495e-05
  outer loop
    vertex -1.967935306458993 42.23939115107867 106.43273182698987
    vertex -21.008050650209885 42.23999823975396 106.41486511406511
    vertex -21.300804446548238 42.239827537659814 109.32359739189089
  endloop
endfacet
facet normal 3.182664097159348e-05 0.9999999975783886 6.188932033471495e-05
  outer loop
    vertex -1.967935306458993 42.23939115107867 106.43273182698987
    vertex -21.300804446548238 42.239827537659814 109.32359739189089
    vertex -1.6790811442423297 42.23920191272655 109.34187823502715
  endloop
endfacet
facet normal 3.182664097159348e-05 0.9999999975783886 6.188932033471495e-05
  outer loop
    vertex -1.6790811442423297 42.23920191272655 109.34187823502715
    vertex -21.300804446548238 42.239827537659814 109.32359739189089
    vertex -21.716388096001563 42.23966167283078 112.21733510396959
  endloop
endfacet
facet normal 3.182664097159348e-05 0.9999999975783886 6.188932033471495e-05
  outer loop
    vertex -1.6790811442423297 42.23920191272655 109.34187823502715
    vertex -21.716388096001563 42.23966167283078 112.21733510396959
    vertex -1.2673761160698627 42.239009682257695 112.23619472277677
  endloop
endfacet
facet normal 3.182664097159348e-05 0.9999999975783886 6.188932033471495e-05
  outer loop
    vertex -1.2673761160698627 42.239009682257695 112.23619472277677
    vertex -21.716388096001563 42.23966167283078 112.21733510396959
    vertex -22.254057022254955 42.239500942436976 115.09089371365187
  endloop
endfacet
facet normal 3.182664097159348e-05 0.9999999975783886 6.188932033471495e-05
  outer loop
    vertex -1.2673761160698627 42.239009682257695 112.23619472277677
    vertex -22.254057022254955 42.239500942436976 115.09089371365187
    vertex -0.7335578491498771 42.238814804079965 115.11049571663409
  endloop
endfacet
facet normal 3.182664097159348e-05 0.9999999975783886 6.188932033471495e-05
  outer loop
    vertex -0.7335578491498771 42.238814804079965 115.11049571663409
    vertex -22.254057022254955 42.239500942436976 115.09089371365187
    vertex -23.057385665994435 42.23931156010616 118.56402254311311
  endloop
endfacet
facet normal 3.182664097159348e-05 0.9999999975783886 6.188932033471495e-05
  outer loop
    vertex -0.7335578491498771 42.238814804079965 115.11049571663409
    vertex -23.057385665994435 42.23931156010616 118.56402254311311
    vertex 0.06510503564671177 42.23857437090756 118.58467209739187
  endloop
endfacet
facet normal 3.182664097159348e-05 0.9999999975783886 6.188932033471495e-05
  outer loop
    vertex 0.06510503564671177 42.23857437090756 118.58467209739187
    vertex -23.057385665994435 42.23931156010616 118.56402254311311
    vertex -26.320084228121875 42.23915273047943 122.80821783637495
  endloop
endfacet
facet normal 3.182664097159348e-05 0.9999999975783886 6.188932033471495e-05
  outer loop
    vertex 0.06510503564671177 42.23857437090756 118.58467209739187
    vertex -26.320084228121875 42.23915273047943 122.80821783637495
    vertex 3.3201999021074284 42.238207745133586 122.83463050728407
  endloop
endfacet
facet normal 3.182664097159348e-05 0.9999999975783886 6.188932033471495e-05
  outer loop
    vertex 3.3201999021074284 42.238207745133586 122.83463050728407
    vertex -26.320084228121875 42.23915273047943 122.80821783637495
    vertex -28.033340640323512 42.23895191692664 126.93398214686441
  endloop
endfacet
facet normal 3.182664097159348e-05 0.9999999975783886 6.188932033471495e-05
  outer loop
    vertex 3.3201999021074284 42.238207745133586 122.83463050728407
    vertex -28.033340640323512 42.23895191692664 126.93398214686441
    vertex 5.026100589596535 42.2378979227285 126.96344165333656
  endloop
endfacet
facet normal 3.182664097159348e-05 0.9999999975783886 6.188932033471495e-05
  outer loop
    vertex 5.026100589596535 42.2378979227285 126.96344165333656
    vertex -28.033340640323512 42.23895191692664 126.93398214686441
    vertex -28.620392879358338 42.238696517430775 131.36258783530567
  endloop
endfacet
facet normal 3.182664097159348e-05 0.9999999975783886 6.188932033471495e-05
  outer loop
    vertex 5.026100589596535 42.2378979227285 126.96344165333656
    vertex -28.620392879358338 42.238696517430775 131.36258783530567
    vertex 5.605259163693365 42.237605342343166 131.39308656064813
  endloop
endfacet
facet normal 3.182664097159348e-05 0.9999999975783886 6.188932033471495e-05
  outer loop
    vertex 5.605259163693365 42.237605342343166 131.39308656064813
    vertex -28.620392879358338 42.238696517430775 131.36258783530567
    vertex -28.04123430526763 42.238403937045426 135.79223274261804
  endloop
endfacet
facet normal 3.182664097159348e-05 0.9999999975783886 6.188932033471495e-05
  outer loop
    vertex 5.605259163693365 42.237605342343166 131.39308656064813
    vertex -28.04123430526763 42.238403937045426 135.79223274261804
    vertex 5.018206924659717 42.237349942847295 135.82169224908614
  endloop
endfacet
facet normal 3.182664097159348e-05 0.9999999975783886 6.188932033471495e-05
  outer loop
    vertex 5.018206924659717 42.237349942847295 135.82169224908614
    vertex -28.04123430526763 42.238403937045426 135.79223274261804
    vertex -26.335333617779305 42.23809411464033 139.9210438886699
  endloop
endfacet
facet normal 3.182664097159348e-05 0.9999999975783886 6.188932033471495e-05
  outer loop
    vertex 5.018206924659717 42.237349942847295 135.82169224908614
    vertex -26.335333617779305 42.23809411464033 139.9210438886699
    vertex 3.3049505124526366 42.237149129294494 139.94745655957917
  endloop
endfacet
facet normal 3.182664097159348e-05 0.9999999975783886 6.188932033471495e-05
  outer loop
    vertex 3.3049505124526366 42.237149129294494 139.94745655957917
    vertex -26.335333617779305 42.23809411464033 139.9210438886699
    vertex -23.618945129634273 42.23778816410042 143.4676496170274
  endloop
endfacet
facet normal 3.182664097159348e-05 0.9999999975783886 6.188932033471495e-05
  outer loop
    vertex 3.3049505124526366 42.237149129294494 139.94745655957917
    vertex -23.618945129634273 42.23778816410042 143.4676496170274
    vertex 0.5822455203093568 42.23701658679652 143.48921547250322
  endloop
endfacet
facet normal 3.182664097159348e-05 0.9999999975783886 6.188932033471495e-05
  outer loop
    vertex 0.5822455203093568 42.23701658679652 143.48921547250322
    vertex -23.618945129634273 42.23778816410042 143.4676496170274
    vertex -20.962982936540943 42.23757727095792 145.50940393189276
  endloop
endfacet
facet normal 3.182664097159348e-05 0.9999999975783886 6.188932033471495e-05
  outer loop
    vertex 0.5822455203093568 42.23701658679652 143.48921547250322
    vertex -20.962982936540943 42.23757727095792 145.50940393189276
    vertex -2.964360206008919 42.23696134790557 146.20560397099314
  endloop
endfacet
facet normal 3.182664097159348e-05 0.9999999975783886 6.188932033471495e-05
  outer loop
    vertex -2.964360206008919 42.23696134790557 146.20560397099314
    vertex -20.962982936540943 42.23757727095792 145.50940393189276
    vertex -20.938375749020185 42.23757531705695 145.5283205533071
  endloop
endfacet
facet normal 3.182664097159348e-05 0.9999999975783886 6.188932033471495e-05
  outer loop
    vertex -2.964360206008919 42.23696134790557 146.20560397099314
    vertex -20.938375749020185 42.23757531705695 145.5283205533071
    vertex -20.077186227306075 42.23750693544936 146.19035460834417
  endloop
endfacet
facet normal 3.182664097159348e-05 0.9999999975783886 6.188932033471495e-05
  outer loop
    vertex -2.964360206008919 42.23696134790557 146.20560397099314
    vertex -20.077186227306075 42.23750693544936 146.19035460834417
    vertex -15.951421926932062 42.23726959395498 147.9036110169939
  endloop
endfacet
facet normal 3.182664097159348e-05 0.9999999975783886 6.188932033471495e-05
  outer loop
    vertex -2.964360206008919 42.23696134790557 146.20560397099314
    vertex -15.951421926932062 42.23726959395498 147.9036110169939
    vertex -7.093171347293262 42.23698717706077 147.91150466794505
  endloop
endfacet
facet normal 3.182664097159348e-05 0.9999999975783886 6.188932033471495e-05
  outer loop
    vertex -7.093171347293262 42.23698717706077 147.91150466794505
    vertex -15.951421926932062 42.23726959395498 147.9036110169939
    vertex -11.522816247454077 42.23709231404788 148.4906632500319
  endloop
endfacet
facet normal 0.990034018867129 -2.279368276597663e-05 -0.14082840965603918
  outer loop
    vertex -1.6791766502055119 39.23838372901997 109.34169251642886
    vertex -1.2673761160698627 42.239009682257695 112.23619472277677
    vertex -1.2674716220330506 39.23819149855112 112.23600900417848
  endloop
endfacet
facet normal 0.990034018867129 -2.279368276597663e-05 -0.14082840965603918
  outer loop
    vertex -1.2673761160698627 42.239009682257695 112.23619472277677
    vertex -1.6791766502055119 39.23838372901997 109.34169251642886
    vertex -1.6790811442423297 42.23920191272655 109.34187823502715
  endloop
endfacet
facet normal 0.9951067282121207 -2.5555876844505247e-05 -0.09880586426860499
  outer loop
    vertex -1.968030812422181 39.238572967372086 106.43254610839158
    vertex -1.6790811442423297 42.23920191272655 109.34187823502715
    vertex -1.6791766502055119 39.23838372901997 109.34169251642886
  endloop
endfacet
facet normal 0.9951067282121207 -2.5555876844505247e-05 -0.09880586426860499
  outer loop
    vertex -1.6790811442423297 42.23920191272655 109.34187823502715
    vertex -1.968030812422181 39.238572967372086 106.43254610839158
    vertex -1.967935306458993 42.23939115107867 106.43273182698987
  endloop
endfacet
facet normal 0.9983965776322264 -2.827228418239148e-05 -0.056606297997093644
  outer loop
    vertex -2.133516585987967 39.23875887456045 103.51378192354055
    vertex -1.967935306458993 42.23939115107867 106.43273182698987
    vertex -1.968030812422181 39.238572967372086 106.43254610839158
  endloop
endfacet
facet normal 0.9983965776322264 -2.827228418239148e-05 -0.056606297997093644
  outer loop
    vertex -1.967935306458993 42.23939115107867 106.43273182698987
    vertex -2.133516585987967 39.23875887456045 103.51378192354055
    vertex -2.133421080024779 42.23957705826704 103.51396764213884
  endloop
endfacet
facet normal 0.999897673259234 -3.093803807222547e-05 -0.014305315571775718
  outer loop
    vertex -2.1753374799609193 39.238941117506286 100.59062933696474
    vertex -2.133421080024779 42.23957705826704 103.51396764213884
    vertex -2.133516585987967 39.23875887456045 103.51378192354055
  endloop
endfacet
facet normal 0.999897673259234 -3.093803807222547e-05 -0.014305315571775718
  outer loop
    vertex -2.133421080024779 42.23957705826704 103.51396764213884
    vertex -2.1753374799609193 39.238941117506286 100.59062933696474
    vertex -2.1752419739977373 42.23975930121287 100.59081505556301
  endloop
endfacet
facet normal 0.9996073258090042 -3.3548362554242106e-05 0.028021296605956522
  outer loop
    vertex -2.093418566364019 39.239119369695814 97.66832558617043
    vertex -2.1752419739977373 42.23975930121287 100.59081505556301
    vertex -2.1753374799609193 39.238941117506286 100.59062933696474
  endloop
endfacet
facet normal 0.9996073258090042 -3.3548362554242106e-05 0.028021296605956522
  outer loop
    vertex -2.1752419739977373 42.23975930121287 100.59081505556301
    vertex -2.093418566364019 39.239119369695814 97.66832558617043
    vertex -2.093323060400837 42.2399375534024 97.66851130476871
  endloop
endfacet
facet normal 0.997526055396856 -3.6098580972105425e-05 0.07029770623058121
  outer loop
    vertex -1.8879066143929881 39.23929331176526 94.75210638784995
    vertex -2.093323060400837 42.2399375534024 97.66851130476871
    vertex -2.093418566364019 39.239119369695814 97.66832558617043
  endloop
endfacet
facet normal 0.997526055396856 -3.6098580972105425e-05 0.07029770623058121
  outer loop
    vertex -2.093323060400837 42.2399375534024 97.66851130476871
    vertex -1.8879066143929881 39.23929331176526 94.75210638784995
    vertex -1.8878111084298002 42.240111495471844 94.75229210644824
  endloop
endfacet
facet normal 0.9915607802757419 -2.3534553095966412e-05 -0.12964265681127804
  outer loop
    vertex 5.072985036967313 39.240836210734656 66.24249026109241
    vertex 5.652239117021205 42.241361814055885 70.67232088700305
    vertex 5.6521436110580225 39.2405436303493 70.67213516840476
  endloop
endfacet
facet normal 0.9915607802757419 -2.3534553095966412e-05 -0.12964265681127804
  outer loop
    vertex 5.652239117021205 42.241361814055885 70.67232088700305
    vertex 5.072985036967313 39.240836210734656 66.24249026109241
    vertex 5.073080542930494 42.241654394441234 66.2426759796907
  endloop
endfacet
facet normal 0.9242201781125101 -5.781767716797334e-06 -0.3818600035827939
  outer loop
    vertex 3.367084349478984 39.241146033139735 62.113679115040576
    vertex 5.073080542930494 42.241654394441234 66.2426759796907
    vertex 5.072985036967313 39.240836210734656 66.24249026109241
  endloop
endfacet
facet normal 0.9242201781125101 -5.781767716797334e-06 -0.3818600035827939
  outer loop
    vertex 5.073080542930494 42.241654394441234 66.2426759796907
    vertex 3.367084349478984 39.241146033139735 62.113679115040576
    vertex 3.367179855442172 42.24196421684632 62.113864833638864
  endloop
endfacet
facet normal 0.7938954983610833 1.2365035593247257e-05 -0.6080542225238741
  outer loop
    vertex 0.6506958613339459 39.24145198367966 58.5670733866831
    vertex 3.367179855442172 42.24196421684632 62.113864833638864
    vertex 3.367084349478984 39.241146033139735 62.113679115040576
  endloop
endfacet
facet normal 0.7938954983610833 1.2365035593247257e-05 -0.6080542225238741
  outer loop
    vertex 3.367179855442172 42.24196421684632 62.113864833638864
    vertex 0.6506958613339459 39.24145198367966 58.5670733866831
    vertex 0.6507913672971337 42.24227016738624 58.56725910528139
  endloop
endfacet
facet normal 0.6094681523231369 2.9669182185020555e-05 -0.7928105514078135
  outer loop
    vertex -2.0051708257962284 42.24248106052874 56.52550479041602
    vertex 0.6506958613339459 39.24145198367966 58.5670733866831
    vertex -2.005266331759411 39.241662876822154 56.525319071817734
  endloop
endfacet
facet normal 0.6094681523231369 2.9669182185020555e-05 -0.7928105514078135
  outer loop
    vertex 0.6506958613339459 39.24145198367966 58.5670733866831
    vertex -2.0051708257962284 42.24248106052874 56.52550479041602
    vertex 0.6507913672971337 42.24227016738624 58.56725910528139
  endloop
endfacet
facet normal 0.6094681523259385 2.96691821847981e-05 -0.7928105514056597
  outer loop
    vertex -2.029778013318026 42.242483014429716 56.50658816900088
    vertex -2.005266331759411 39.241662876822154 56.525319071817734
    vertex -2.0298735192812085 39.24166483072313 56.50640245040259
  endloop
endfacet
facet normal 0.6094681523259385 2.96691821847981e-05 -0.7928105514056597
  outer loop
    vertex -2.005266331759411 39.241662876822154 56.525319071817734
    vertex -2.029778013318026 42.242483014429716 56.50658816900088
    vertex -2.0051708257962284 42.24248106052874 56.52550479041602
  endloop
endfacet
facet normal 0.609468152070847 2.9669182205053284e-05 -0.7928105516017596
  outer loop
    vertex -2.890967535031066 42.2425513960373 55.844554113964676
    vertex -2.0298735192812085 39.24166483072313 56.50640245040259
    vertex -2.891063040994248 39.24173321233072 55.84436839536639
  endloop
endfacet
facet normal 0.609468152070847 2.9669182205053284e-05 -0.7928105516017596
  outer loop
    vertex -2.0298735192812085 39.24166483072313 56.50640245040259
    vertex -2.890967535031066 42.2425513960373 55.844554113964676
    vertex -2.029778013318026 42.242483014429716 56.50658816900088
  endloop
endfacet
facet normal 0.3835065584193646 4.495142307509745e-05 -0.9235381516909327
  outer loop
    vertex -7.01673183540509 42.242788737531676 54.13129770531488
    vertex -2.891063040994248 39.24173321233072 55.84436839536639
    vertex -7.016827341368275 39.2419705538251 54.13111198671659
  endloop
endfacet
facet normal 0.3835065584193646 4.495142307509745e-05 -0.9235381516909327
  outer loop
    vertex -2.891063040994248 39.24173321233072 55.84436839536639
    vertex -7.01673183540509 42.242788737531676 54.13129770531488
    vertex -2.890967535031066 42.2425513960373 55.844554113964676
  endloop
endfacet
facet normal 0.1314096259965047 5.7170298769367424e-05 -0.9913281529982975
  outer loop
    vertex -11.445337514883061 42.24296601743878 53.54424547227691
    vertex -7.016827341368275 39.2419705538251 54.13111198671659
    vertex -11.445433020846243 39.2421478337322 53.544059753678624
  endloop
endfacet
facet normal 0.1314096259965047 5.7170298769367424e-05 -0.9913281529982975
  outer loop
    vertex -7.016827341368275 39.2419705538251 54.13111198671659
    vertex -11.445337514883061 42.24296601743878 53.54424547227691
    vertex -7.01673183540509 42.242788737531676 54.13129770531488
  endloop
endfacet
facet normal -0.12964265547805148 6.549311306514835e-05 -0.9915607785664233
  outer loop
    vertex -15.874982415043881 42.2430711544259 54.123404054363704
    vertex -11.445433020846243 39.2421478337322 53.544059753678624
    vertex -15.875077921007067 39.24225297071931 54.123218335765415
  endloop
endfacet
facet normal -0.12964265547805148 6.549311306514835e-05 -0.9915607785664233
  outer loop
    vertex -11.445433020846243 39.2421478337322 53.544059753678624
    vertex -15.874982415043881 42.2430711544259 54.123404054363704
    vertex -11.445337514883061 42.24296601743878 53.54424547227691
  endloop
endfacet
facet normal -0.3818600041157869 6.935267990983583e-05 -0.9242201753082959
  outer loop
    vertex -20.0037935563289 42.2430969835811 55.829304751315924
    vertex -15.875077921007067 39.24225297071931 54.123218335765415
    vertex -20.003889062292085 39.24227879987451 55.829119032717635
  endloop
endfacet
facet normal -0.3818600041157869 6.935267990983583e-05 -0.9242201753082959
  outer loop
    vertex -15.875077921007067 39.24225297071931 54.123218335765415
    vertex -20.0037935563289 42.2430969835811 55.829304751315924
    vertex -15.874982415043881 42.2430711544259 54.123404054363704
  endloop
endfacet
facet normal -0.608054224168802 6.848597620529003e-05 -0.7938954942435104
  outer loop
    vertex -23.550399282646797 42.243041744690146 58.5456932498055
    vertex -20.003889062292085 39.24227879987451 55.829119032717635
    vertex -23.550494788609985 39.24222356098357 58.545507531207214
  endloop
endfacet
facet normal -0.608054224168802 6.848597620529003e-05 -0.7938954942435104
  outer loop
    vertex -20.003889062292085 39.24227879987451 55.829119032717635
    vertex -23.550399282646797 42.243041744690146 58.5456932498055
    vertex -20.0037935563289 42.2430969835811 55.829304751315924
  endloop
endfacet
facet normal -0.7928105533012678 6.295206639488392e-05 -0.6094681473310767
  outer loop
    vertex -26.273104274789777 42.24290920219217 62.08745216272959
    vertex -23.550494788609985 39.24222356098357 58.545507531207214
    vertex -26.27319978075296 39.24209101848559 62.0872664441313
  endloop
endfacet
facet normal -0.7928105533012678 6.295206639488392e-05 -0.6094681473310767
  outer loop
    vertex -23.550494788609985 39.24222356098357 58.545507531207214
    vertex -26.273104274789777 42.24290920219217 62.08745216272959
    vertex -23.550399282646797 42.243041744690146 58.5456932498055
  endloop
endfacet
facet normal -0.9235381532034798 5.312807730863313e-05 -0.3835065537313719
  outer loop
    vertex -27.98636068699702 42.24270838863937 66.21321647322259
    vertex -26.27319978075296 39.24209101848559 62.0872664441313
    vertex -27.986456192960205 39.24189020493279 66.2130307546243
  endloop
endfacet
facet normal -0.9235381532034798 5.312807730863313e-05 -0.3835065537313719
  outer loop
    vertex -26.27319978075296 39.24209101848559 62.0872664441313
    vertex -27.98636068699702 42.24270838863937 66.21321647322259
    vertex -26.273104274789777 42.24290920219217 62.08745216272959
  endloop
endfacet
facet normal -0.99132815429385 3.968349758022548e-05 -0.13140962266732467
  outer loop
    vertex -28.57341292603052 42.2424529891435 70.64182216166061
    vertex -27.986456192960205 39.24189020493279 66.2130307546243
    vertex -28.573508431993705 39.241634805436924 70.64163644306232
  endloop
endfacet
facet normal -0.99132815429385 3.968349758022548e-05 -0.13140962266732467
  outer loop
    vertex -27.986456192960205 39.24189020493279 66.2130307546243
    vertex -28.57341292603052 42.2424529891435 70.64182216166061
    vertex -27.98636068699702 42.24270838863937 66.21321647322259
  endloop
endfacet
facet normal -0.9915607802755675 2.353455309587829e-05 0.12964265681261233
  outer loop
    vertex -27.99425435193385 42.24216040875815 75.07146706897217
    vertex -28.573508431993705 39.241634805436924 70.64163644306232
    vertex -27.99434985789703 39.24134222505157 75.07128135037388
  endloop
endfacet
facet normal -0.9915607802755675 2.353455309587829e-05 0.12964265681261233
  outer loop
    vertex -28.573508431993705 39.241634805436924 70.64163644306232
    vertex -27.99425435193385 42.24216040875815 75.07146706897217
    vertex -28.57341292603052 42.2424529891435 70.64182216166061
  endloop
endfacet
facet normal -0.9242201781124593 5.781767716788106e-06 0.38186000358291683
  outer loop
    vertex -26.288353664444596 42.241850586353074 79.2002782150247
    vertex -27.99434985789703 39.24134222505157 75.07128135037388
    vertex -26.28844917040778 39.24103240264649 79.20009249642641
  endloop
endfacet
facet normal -0.9242201781124593 5.781767716788106e-06 0.38186000358291683
  outer loop
    vertex -27.99434985789703 39.24134222505157 75.07128135037388
    vertex -26.288353664444596 42.241850586353074 79.2002782150247
    vertex -27.99425435193385 42.24216040875815 75.07146706897217
  endloop
endfacet
facet normal -0.7938954983608326 -1.2365035593275512e-05 0.6080542225242016
  outer loop
    vertex -23.033724934443665 42.241484013080694 83.44962802189663
    vertex -26.28844917040778 39.24103240264649 79.20009249642641
    vertex -23.03382044040685 39.24066582937411 83.44944230329834
  endloop
endfacet
facet normal -0.7938954983608326 -1.2365035593275512e-05 0.6080542225242016
  outer loop
    vertex -26.28844917040778 39.24103240264649 79.20009249642641
    vertex -23.033724934443665 42.241484013080694 83.44962802189663
    vertex -26.288353664444596 42.241850586353074 79.2002782150247
  endloop
endfacet
facet normal -0.9732248114167649 1.674888743332819e-05 0.22985531571464135
  outer loop
    vertex -22.41403335121686 42.241301903874174 86.07344912169368
    vertex -23.03382044040685 39.24066582937411 83.44944230329834
    vertex -22.414128857180046 39.240483720167596 86.0732634030954
  endloop
endfacet
facet normal -0.9732248114167649 1.674888743332819e-05 0.22985531571464135
  outer loop
    vertex -23.03382044040685 39.24066582937411 83.44944230329834
    vertex -22.41403335121686 42.241301903874174 86.07344912169368
    vertex -23.033724934443665 42.241484013080694 83.44962802189663
  endloop
endfacet
facet normal -0.9808521098861187 1.9164032497360185e-05 0.19475404531020452
  outer loop
    vertex -21.844837517247473 42.24110637159234 88.94012610160028
    vertex -22.414128857180046 39.240483720167596 86.0732634030954
    vertex -21.844933023210658 39.24028818788576 88.939940383002
  endloop
endfacet
facet normal -0.9808521098861187 1.9164032497360185e-05 0.19475404531020452
  outer loop
    vertex -22.414128857180046 39.240483720167596 86.0732634030954
    vertex -21.844837517247473 42.24110637159234 88.94012610160028
    vertex -22.41403335121686 42.241301903874174 86.07344912169368
  endloop
endfacet
facet normal -0.9882150783112944 2.1978060414649424e-05 0.15307174303302104
  outer loop
    vertex -21.397343423429 42.24091333266835 91.82910094729658
    vertex -21.844933023210658 39.24028818788576 88.939940383002
    vertex -21.397438929392184 39.240095148961764 91.82891522869829
  endloop
endfacet
facet normal -0.9882150783112944 2.1978060414649424e-05 0.15307174303302104
  outer loop
    vertex -21.844933023210658 39.24028818788576 88.939940383002
    vertex -21.397343423429 42.24091333266835 91.82910094729658
    vertex -21.844837517247473 42.24110637159234 88.94012610160028
  endloop
endfacet
facet normal -0.9938075327687129 2.4752711524772325e-05 0.11111519787799827
  outer loop
    vertex -21.072506219676264 42.24072318565557 94.73442506933166
    vertex -21.397438929392184 39.240095148961764 91.82891522869829
    vertex -21.072601725639448 39.23990500194898 94.73423935073338
  endloop
endfacet
facet normal -0.9938075327687129 2.4752711524772325e-05 0.11111519787799827
  outer loop
    vertex -21.397438929392184 39.240095148961764 91.82891522869829
    vertex -21.072506219676264 42.24072318565557 94.73442506933166
    vertex -21.397343423429 42.24091333266835 91.82910094729658
  endloop
endfacet
facet normal -0.9976194543333375 2.7483014771121976e-05 0.06895957932251322
  outer loop
    vertex -20.87090789730638 42.24053627122901 97.65089317238564
    vertex -21.072601725639448 39.23990500194898 94.73423935073338
    vertex -20.871003403269565 39.23971808752243 97.65070745378735
  endloop
endfacet
facet normal -0.9976194543333375 2.7483014771121976e-05 0.06895957932251322
  outer loop
    vertex -21.072601725639448 39.23990500194898 94.73423935073338
    vertex -20.87090789730638 42.24053627122901 97.65089317238564
    vertex -21.072506219676264 42.24072318565557 94.73442506933166
  endloop
endfacet
facet normal -0.9996440139521064 3.0164078552231012e-05 0.026680413412259612
  outer loop
    vertex -20.792909647967015 42.24035292427207 100.57327999512897
    vertex -20.871003403269565 39.23971808752243 97.65070745378735
    vertex -20.7930051539302 39.23953474056549 100.57309427653068
  endloop
endfacet
facet normal -0.9996440139521064 3.0164078552231012e-05 0.026680413412259612
  outer loop
    vertex -20.871003403269565 39.23971808752243 97.65070745378735
    vertex -20.792909647967015 42.24035292427207 100.57327999512897
    vertex -20.87090789730638 42.24053627122901 97.65089317238564
  endloop
endfacet
facet normal -0.9998775846674157 3.2791099480574066e-05 -0.015646552476463797
  outer loop
    vertex -20.838651216412334 42.24017347327652 103.49634967200544
    vertex -20.7930051539302 39.23953474056549 100.57309427653068
    vertex -20.838746722375518 39.23935528956994 103.49616395340715
  endloop
endfacet
facet normal -0.9998775846674157 3.2791099480574066e-05 -0.015646552476463797
  outer loop
    vertex -20.7930051539302 39.23953474056549 100.57309427653068
    vertex -20.838651216412334 42.24017347327652 103.49634967200544
    vertex -20.792909647967015 42.24035292427207 100.57327999512897
  endloop
endfacet
facet normal -0.9983197481136145 3.535937099047235e-05 -0.05794548538138461
  outer loop
    vertex -21.008050650209885 42.23999823975396 106.41486511406511
    vertex -20.838746722375518 39.23935528956994 103.49616395340715
    vertex -21.00814615617307 39.239180056047374 106.41467939546682
  endloop
endfacet
facet normal -0.9983197481136145 3.535937099047235e-05 -0.05794548538138461
  outer loop
    vertex -20.838746722375518 39.23935528956994 103.49616395340715
    vertex -21.008050650209885 42.23999823975396 106.41486511406511
    vertex -20.838651216412334 42.24017347327652 103.49634967200544
  endloop
endfacet
facet normal -0.9949732952626006 3.786429176659334e-05 -0.10014060255748981
  outer loop
    vertex -21.300804446548238 42.239827537659814 109.32359739189089
    vertex -21.00814615617307 39.239180056047374 106.41467939546682
    vertex -21.300899952511422 39.23900935395323 109.3234116732926
  endloop
endfacet
facet normal -0.9949732952626006 3.786429176659334e-05 -0.10014060255748981
  outer loop
    vertex -21.00814615617307 39.239180056047374 106.41467939546682
    vertex -21.300804446548238 42.239827537659814 109.32359739189089
    vertex -21.008050650209885 42.23999823975396 106.41486511406511
  endloop
endfacet
facet normal -0.9898442214258172 4.030137398663769e-05 -0.1421563072315725
  outer loop
    vertex -21.716388096001563 42.23966167283078 112.21733510396959
    vertex -21.300899952511422 39.23900935395323 109.3234116732926
    vertex -21.71648360196475 39.2388434891242 112.2171493853713
  endloop
endfacet
facet normal -0.9898442214258172 4.030137398663769e-05 -0.1421563072315725
  outer loop
    vertex -21.300899952511422 39.23900935395323 109.3234116732926
    vertex -21.716388096001563 42.23966167283078 112.21733510396959
    vertex -21.300804446548238 42.239827537659814 109.32359739189089
  endloop
endfacet
facet normal -0.9829417155185406 4.2666251360299045e-05 -0.18391732401560087
  outer loop
    vertex -22.254057022254955 42.239500942436976 115.09089371365187
    vertex -21.71648360196475 39.2388434891242 112.2171493853713
    vertex -22.25415252821814 39.23868275873039 115.09070799505358
  endloop
endfacet
facet normal -0.9829417155185406 4.2666251360299045e-05 -0.18391732401560087
  outer loop
    vertex -21.71648360196475 39.2388434891242 112.2171493853713
    vertex -22.254057022254955 42.239500942436976 115.09089371365187
    vertex -21.716388096001563 42.23966167283078 112.21733510396959
  endloop
endfacet
facet normal -0.9742781436031308 4.495468695138571e-05 -0.22534883375849457
  outer loop
    vertex -23.057385665994435 42.23931156010616 118.56402254311311
    vertex -22.25415252821814 39.23868275873039 115.09070799505358
    vertex -23.05748117195762 39.238493376399575 118.56383682451482
  endloop
endfacet
facet normal -0.9742781436031308 4.495468695138571e-05 -0.22534883375849457
  outer loop
    vertex -22.25415252821814 39.23868275873039 115.09070799505358
    vertex -23.057385665994435 42.23931156010616 118.56402254311311
    vertex -22.254057022254955 42.239500942436976 115.09089371365187
  endloop
endfacet
facet normal -0.7928105533011216 6.295206639489103e-05 -0.6094681473312668
  outer loop
    vertex -26.320084228121875 42.23915273047943 122.80821783637495
    vertex -23.05748117195762 39.238493376399575 118.56383682451482
    vertex -26.32017973408506 39.238334546772855 122.80803211777666
  endloop
endfacet
facet normal -0.7928105533011216 6.295206639489103e-05 -0.6094681473312668
  outer loop
    vertex -23.05748117195762 39.238493376399575 118.56383682451482
    vertex -26.320084228121875 42.23915273047943 122.80821783637495
    vertex -23.057385665994435 42.23931156010616 118.56402254311311
  endloop
endfacet
facet normal -0.9235381532038076 5.312807730859472e-05 -0.3835065537305824
  outer loop
    vertex -28.033340640323512 42.23895191692664 126.93398214686441
    vertex -26.32017973408506 39.238334546772855 122.80803211777666
    vertex -28.033436146286697 39.23813373322006 126.93379642826612
  endloop
endfacet
facet normal -0.9235381532038076 5.312807730859472e-05 -0.3835065537305824
  outer loop
    vertex -26.32017973408506 39.238334546772855 122.80803211777666
    vertex -28.033340640323512 42.23895191692664 126.93398214686441
    vertex -26.320084228121875 42.23915273047943 122.80821783637495
  endloop
endfacet
facet normal -0.991328154293824 3.968349758023683e-05 -0.13140962266752151
  outer loop
    vertex -28.620392879358338 42.238696517430775 131.36258783530567
    vertex -28.033436146286697 39.23813373322006 126.93379642826612
    vertex -28.620488385321522 39.23787833372419 131.3624021167074
  endloop
endfacet
facet normal -0.991328154293824 3.968349758023683e-05 -0.13140962266752151
  outer loop
    vertex -28.033436146286697 39.23813373322006 126.93379642826612
    vertex -28.620392879358338 42.238696517430775 131.36258783530567
    vertex -28.033340640323512 42.23895191692664 126.93398214686441
  endloop
endfacet
facet normal -0.9915607802757419 2.353455309596646e-05 0.12964265681127726
  outer loop
    vertex -28.04123430526763 42.238403937045426 135.79223274261804
    vertex -28.620488385321522 39.23787833372419 131.3624021167074
    vertex -28.041329811230813 39.23758575333884 135.79204702401975
  endloop
endfacet
facet normal -0.9915607802757419 2.353455309596646e-05 0.12964265681127726
  outer loop
    vertex -28.620488385321522 39.23787833372419 131.3624021167074
    vertex -28.04123430526763 42.238403937045426 135.79223274261804
    vertex -28.620392879358338 42.238696517430775 131.36258783530567
  endloop
endfacet
facet normal -0.924220178112511 5.781767716797515e-06 0.38186000358279143
  outer loop
    vertex -26.335333617779305 42.23809411464033 139.9210438886699
    vertex -28.041329811230813 39.23758575333884 135.79204702401975
    vertex -26.33542912374249 39.237275930933755 139.92085817007163
  endloop
endfacet
facet normal -0.924220178112511 5.781767716797515e-06 0.38186000358279143
  outer loop
    vertex -28.041329811230813 39.23758575333884 135.79204702401975
    vertex -26.335333617779305 42.23809411464033 139.9210438886699
    vertex -28.04123430526763 42.238403937045426 135.79223274261804
  endloop
endfacet
facet normal -0.793895498361085 -1.236503559324706e-05 0.6080542225238719
  outer loop
    vertex -23.618945129634273 42.23778816410042 143.4676496170274
    vertex -26.33542912374249 39.237275930933755 139.92085817007163
    vertex -23.619040635597457 39.236969980393845 143.46746389842912
  endloop
endfacet
facet normal -0.793895498361085 -1.236503559324706e-05 0.6080542225238719
  outer loop
    vertex -26.33542912374249 39.237275930933755 139.92085817007163
    vertex -23.618945129634273 42.23778816410042 143.4676496170274
    vertex -26.335333617779305 42.23809411464033 139.9210438886699
  endloop
endfacet
facet normal -0.6094681523231432 -2.966918218502006e-05 0.7928105514078088
  outer loop
    vertex -20.963078442504127 39.236759087251336 145.50921821329447
    vertex -23.618945129634273 42.23778816410042 143.4676496170274
    vertex -23.619040635597457 39.236969980393845 143.46746389842912
  endloop
endfacet
facet normal -0.6094681523231432 -2.966918218502006e-05 0.7928105514078088
  outer loop
    vertex -23.618945129634273 42.23778816410042 143.4676496170274
    vertex -20.963078442504127 39.236759087251336 145.50921821329447
    vertex -20.962982936540943 42.23757727095792 145.50940393189276
  endloop
endfacet
facet normal -0.6094681523256745 -2.966918218481905e-05 0.7928105514058627
  outer loop
    vertex -20.93847125498337 39.23675713335037 145.52813483470882
    vertex -20.962982936540943 42.23757727095792 145.50940393189276
    vertex -20.963078442504127 39.236759087251336 145.50921821329447
  endloop
endfacet
facet normal -0.6094681523256745 -2.966918218481905e-05 0.7928105514058627
  outer loop
    vertex -20.962982936540943 42.23757727095792 145.50940393189276
    vertex -20.93847125498337 39.23675713335037 145.52813483470882
    vertex -20.938375749020185 42.23757531705695 145.5283205533071
  endloop
endfacet
facet normal 0.7938954983608231 1.236503559327658e-05 -0.608054222524214
  outer loop
    vertex 0.06500952968352958 39.23775618720098 118.58448637879359
    vertex 3.3201999021074284 42.238207745133586 122.83463050728407
    vertex 3.3201043961442465 39.23738956142701 122.83444478868579
  endloop
endfacet
facet normal 0.7938954983608231 1.236503559327658e-05 -0.608054222524214
  outer loop
    vertex 3.3201999021074284 42.238207745133586 122.83463050728407
    vertex 0.06500952968352958 39.23775618720098 118.58448637879359
    vertex 0.06510503564671177 42.23857437090756 118.58467209739187
  endloop
endfacet
facet normal 0.9831875374938708 -1.9990650683825644e-05 -0.18259864653691235
  outer loop
    vertex -1.2674716220330506 39.23819149855112 112.23600900417848
    vertex -0.7335578491498771 42.238814804079965 115.11049571663409
    vertex -0.7336533551130593 39.23799662037338 115.1103099980358
  endloop
endfacet
facet normal 0.9831875374938708 -1.9990650683825644e-05 -0.18259864653691235
  outer loop
    vertex -0.7335578491498771 42.238814804079965 115.11049571663409
    vertex -1.2674716220330506 39.23819149855112 112.23600900417848
    vertex -1.2673761160698627 42.239009682257695 112.23619472277677
  endloop
endfacet
facet normal 0.3818600041157866 -6.93526799098358e-05 0.9242201753082959
  outer loop
    vertex -2.9644557119721067 39.236143164198985 146.20541825239485
    vertex -7.093171347293262 42.23698717706077 147.91150466794505
    vertex -7.093266853256444 39.236168993354184 147.91131894934676
  endloop
endfacet
facet normal 0.3818600041157866 -6.93526799098358e-05 0.9242201753082959
  outer loop
    vertex -7.093171347293262 42.23698717706077 147.91150466794505
    vertex -2.9644557119721067 39.236143164198985 146.20541825239485
    vertex -2.964360206008919 42.23696134790557 146.20560397099314
  endloop
endfacet
facet normal 0.9936575906064815 -3.8584124349036705e-05 0.11244817091170214
  outer loop
    vertex -1.559169827473935 39.23946263207302 91.84719655737237
    vertex -1.8878111084298002 42.240111495471844 94.75229210644824
    vertex -1.8879066143929881 39.23929331176526 94.75210638784995
  endloop
endfacet
facet normal 0.9936575906064815 -3.8584124349036705e-05 0.11244817091170214
  outer loop
    vertex -1.8878111084298002 42.240111495471844 94.75229210644824
    vertex -1.559169827473935 39.23946263207302 91.84719655737237
    vertex -1.5590743215107472 42.240280815779606 91.84738227597066
  endloop
endfacet
facet normal 0.1296426554780591 -6.549311306514853e-05 0.9915607785664222
  outer loop
    vertex -7.093266853256444 39.236168993354184 147.91131894934676
    vertex -11.522816247454077 42.23709231404788 148.4906632500319
    vertex -11.522911753417262 39.2362741303413 148.4904775314336
  endloop
endfacet
facet normal 0.1296426554780591 -6.549311306514853e-05 0.9915607785664222
  outer loop
    vertex -11.522816247454077 42.23709231404788 148.4906632500319
    vertex -7.093266853256444 39.236168993354184 147.91131894934676
    vertex -7.093171347293262 42.23698717706077 147.91150466794505
  endloop
endfacet
facet normal 0.6080542241688075 -6.848597620528995e-05 0.7938954942435061
  outer loop
    vertex 0.582150014346169 39.23619840308994 143.48902975390493
    vertex -2.964360206008919 42.23696134790557 146.20560397099314
    vertex -2.9644557119721067 39.236143164198985 146.20541825239485
  endloop
endfacet
facet normal 0.6080542241688075 -6.848597620528995e-05 0.7938954942435061
  outer loop
    vertex -2.964360206008919 42.23696134790557 146.20560397099314
    vertex 0.582150014346169 39.23619840308994 143.48902975390493
    vertex 0.5822455203093568 42.23701658679652 143.48921547250322
  endloop
endfacet
facet normal -0.1314096259965092 -5.7170298769367255e-05 0.9913281529982969
  outer loop
    vertex -11.522911753417262 39.2362741303413 148.4904775314336
    vertex -15.951421926932062 42.23726959395498 147.9036110169939
    vertex -15.951517432895248 39.23645141024839 147.9034252983956
  endloop
endfacet
facet normal -0.1314096259965092 -5.7170298769367255e-05 0.9913281529982969
  outer loop
    vertex -15.951421926932062 42.23726959395498 147.9036110169939
    vertex -11.522911753417262 39.2362741303413 148.4904775314336
    vertex -11.522816247454077 42.23709231404788 148.4906632500319
  endloop
endfacet
facet normal 0.9805899887859212 -4.334349737081918e-05 0.19606955912167565
  outer loop
    vertex -0.5347411963324173 39.23978616284602 86.09281288439377
    vertex -1.107701677626153 42.24044521096462 88.95898636640491
    vertex -1.1077971835893352 39.23962702725804 88.95880064780663
  endloop
endfacet
facet normal 0.9805899887859212 -4.334349737081918e-05 0.19606955912167565
  outer loop
    vertex -1.107701677626153 42.24044521096462 88.95898636640491
    vertex -0.5347411963324173 39.23978616284602 86.09281288439377
    vertex -0.5346456903692295 42.2406043465526 86.09299860299205
  endloop
endfacet
facet normal 0.991560780275563 -2.3534553095876e-05 -0.12964265681264692
  outer loop
    vertex 5.026005083633353 39.23707973902192 126.96325593473827
    vertex 5.605259163693365 42.237605342343166 131.39308656064813
    vertex 5.605163657730182 39.23678715863658 131.39290084204984
  endloop
endfacet
facet normal 0.991560780275563 -2.3534553095876e-05 -0.12964265681264692
  outer loop
    vertex 5.605259163693365 42.237605342343166 131.39308656064813
    vertex 5.026005083633353 39.23707973902192 126.96325593473827
    vertex 5.026100589596535 42.2378979227285 126.96344165333656
  endloop
endfacet
facet normal 0.9880088618154617 -4.1000539572321536e-05 0.1543971738506627
  outer loop
    vertex -1.1077971835893352 39.23962702725804 88.95880064780663
    vertex -1.5590743215107472 42.240280815779606 91.84738227597066
    vertex -1.559169827473935 39.23946263207302 91.84719655737237
  endloop
endfacet
facet normal 0.9880088618154617 -4.1000539572321536e-05 0.1543971738506627
  outer loop
    vertex -1.5590743215107472 42.240280815779606 91.84738227597066
    vertex -1.1077971835893352 39.23962702725804 88.95880064780663
    vertex -1.107701677626153 42.24044521096462 88.95898636640491
  endloop
endfacet
facet normal 0.9745795497454727 -1.715180250114945e-05 -0.22404173924456
  outer loop
    vertex -0.7336533551130593 39.23799662037338 115.1103099980358
    vertex 0.06510503564671177 42.23857437090756 118.58467209739187
    vertex 0.06500952968352958 39.23775618720098 118.58448637879359
  endloop
endfacet
facet normal 0.9745795497454727 -1.715180250114945e-05 -0.22404173924456
  outer loop
    vertex 0.06510503564671177 42.23857437090756 118.58467209739187
    vertex -0.7336533551130593 39.23799662037338 115.1103099980358
    vertex -0.7335578491498771 42.238814804079965 115.11049571663409
  endloop
endfacet
facet normal 0.9913281542938459 -3.968349758022733e-05 0.13140962266735662
  outer loop
    vertex 5.605163657730182 39.23678715863658 131.39290084204984
    vertex 5.018206924659717 42.237349942847295 135.82169224908614
    vertex 5.018111418696535 39.23653175914072 135.82150653048785
  endloop
endfacet
facet normal 0.9913281542938459 -3.968349758022733e-05 0.13140962266735662
  outer loop
    vertex 5.018206924659717 42.237349942847295 135.82169224908614
    vertex 5.605163657730182 39.23678715863658 131.39290084204984
    vertex 5.605259163693365 42.237605342343166 131.39308656064813
  endloop
endfacet
facet normal 0.9728136139271637 -4.529430300954307e-05 0.23158944385786956
  outer loop
    vertex 0.08963813875211817 39.23992861209891 83.47004778398765
    vertex -0.5346456903692295 42.2406043465526 86.09299860299205
    vertex -0.5347411963324173 39.23978616284602 86.09281288439377
  endloop
endfacet
facet normal 0.9728136139271637 -4.529430300954307e-05 0.23158944385786956
  outer loop
    vertex -0.5346456903692295 42.2406043465526 86.09299860299205
    vertex 0.08963813875211817 39.23992861209891 83.47004778398765
    vertex 0.08973364471530036 42.240746795805485 83.47023350258594
  endloop
endfacet
facet normal 0.9235381532034923 -5.312807730863167e-05 0.3835065537313416
  outer loop
    vertex 5.018111418696535 39.23653175914072 135.82150653048785
    vertex 3.3049505124526366 42.237149129294494 139.94745655957917
    vertex 3.304855006489449 39.23633094558791 139.94727084098088
  endloop
endfacet
facet normal 0.9235381532034923 -5.312807730863167e-05 0.3835065537313416
  outer loop
    vertex 3.3049505124526366 42.237149129294494 139.94745655957917
    vertex 5.018111418696535 39.23653175914072 135.82150653048785
    vertex 5.018206924659717 42.237349942847295 135.82169224908614
  endloop
endfacet
facet normal 0.7928105533012332 -6.295206639488562e-05 0.6094681473311219
  outer loop
    vertex 3.304855006489449 39.23633094558791 139.94727084098088
    vertex 0.5822455203093568 42.23701658679652 143.48921547250322
    vertex 0.582150014346169 39.23619840308994 143.48902975390493
  endloop
endfacet
facet normal 0.7928105533012332 -6.295206639488562e-05 0.6094681473311219
  outer loop
    vertex 0.5822455203093568 42.23701658679652 143.48921547250322
    vertex 3.304855006489449 39.23633094558791 139.94727084098088
    vertex 3.3049505124526366 42.237149129294494 139.94745655957917
  endloop
endfacet
facet normal -0.38350655841935466 -4.4951423075098017e-05 0.9235381516909367
  outer loop
    vertex -15.951517432895248 39.23645141024839 147.9034252983956
    vertex -20.077186227306075 42.23750693544936 146.19035460834417
    vertex -20.07728173326926 39.23668875174278 146.19016888974588
  endloop
endfacet
facet normal -0.38350655841935466 -4.4951423075098017e-05 0.9235381516909367
  outer loop
    vertex -20.077186227306075 42.23750693544936 146.19035460834417
    vertex -15.951517432895248 39.23645141024839 147.9034252983956
    vertex -15.951421926932062 42.23726959395498 147.9036110169939
  endloop
endfacet
facet normal 0.991328154293824 -3.9683497580236846e-05 0.13140962266752174
  outer loop
    vertex 5.6521436110580225 39.2405436303493 70.67213516840476
    vertex 5.065186877986385 42.24110641456003 75.10092657544429
    vertex 5.065091372023202 39.240288230853444 75.100740856846
  endloop
endfacet
facet normal 0.991328154293824 -3.9683497580236846e-05 0.13140962266752174
  outer loop
    vertex 5.065186877986385 42.24110641456003 75.10092657544429
    vertex 5.6521436110580225 39.2405436303493 70.67213516840476
    vertex 5.652239117021205 42.241361814055885 70.67232088700305
  endloop
endfacet
facet normal -0.6094681520708674 -2.966918220505169e-05 0.7928105516017442
  outer loop
    vertex -20.07728173326926 39.23668875174278 146.19016888974588
    vertex -20.938375749020185 42.23757531705695 145.5283205533071
    vertex -20.93847125498337 39.23675713335037 145.52813483470882
  endloop
endfacet
facet normal -0.6094681520708674 -2.966918220505169e-05 0.7928105516017442
  outer loop
    vertex -20.938375749020185 42.23757531705695 145.5283205533071
    vertex -20.07728173326926 39.23668875174278 146.19016888974588
    vertex -20.077186227306075 42.23750693544936 146.19035460834417
  endloop
endfacet
facet normal 0.92422017811247 -5.781767716790052e-06 -0.381860003582891
  outer loop
    vertex 3.3201043961442465 39.23738956142701 122.83444478868579
    vertex 5.026100589596535 42.2378979227285 126.96344165333656
    vertex 5.026005083633353 39.23707973902192 126.96325593473827
  endloop
endfacet
facet normal 0.92422017811247 -5.781767716790052e-06 -0.381860003582891
  outer loop
    vertex 5.026100589596535 42.2378979227285 126.96344165333656
    vertex 3.3201043961442465 39.23738956142701 122.83444478868579
    vertex 3.3201999021074284 42.238207745133586 122.83463050728407
  endloop
endfacet
facet normal 0.7928105533011668 -6.295206639488883e-05 0.609468147331208
  outer loop
    vertex 3.3518349598212143 39.24008741730065 79.22650516733555
    vertex 0.08973364471530036 42.240746795805485 83.47023350258594
    vertex 0.08963813875211817 39.23992861209891 83.47004778398765
  endloop
endfacet
facet normal 0.7928105533011668 -6.295206639488883e-05 0.609468147331208
  outer loop
    vertex 0.08973364471530036 42.240746795805485 83.47023350258594
    vertex 3.3518349598212143 39.24008741730065 79.22650516733555
    vertex 3.3519304657844025 42.240905601007235 79.22669088593383
  endloop
endfacet
facet normal 0.9235381532037831 -5.3128077308597577e-05 0.38350655373064124
  outer loop
    vertex 5.065091372023202 39.240288230853444 75.100740856846
    vertex 3.3519304657844025 42.240905601007235 79.22669088593383
    vertex 3.3518349598212143 39.24008741730065 79.22650516733555
  endloop
endfacet
facet normal 0.9235381532037831 -5.3128077308597577e-05 0.38350655373064124
  outer loop
    vertex 3.3519304657844025 42.240905601007235 79.22669088593383
    vertex 5.065091372023202 39.240288230853444 75.100740856846
    vertex 5.065186877986385 42.24110641456003 75.10092657544429
  endloop
endfacet
endsolid pedro_robot
