solid pedro_robot
facet normal 1.0 7.559003193215455e-16 3.6088495049345375e-16
  outer loop
    vertex -5.04292148817713 -319.0850279699103 139.81077651816844
    vertex -5.04292148817713 -316.4426472328686 142.20316459951417
    vertex -5.04292148817713 -319.0850990381619 142.20308610029664
  endloop
endfacet
facet normal 1.0 7.559003193215455e-16 3.6088495049345375e-16
  outer loop
    vertex -5.04292148817713 -316.4426472328686 142.20316459951417
    vertex -5.04292148817713 -319.0850279699103 139.81077651816844
    vertex -5.04292148817713 -318.68812067372886 139.81078879333046
  endloop
endfacet
facet normal 1.0 7.559003193215455e-16 3.6088495049345375e-16
  outer loop
    vertex -5.04292148817713 -316.4426472328686 142.20316459951417
    vertex -5.04292148817713 -318.68812067372886 139.81078879333046
    vertex -5.04292148817713 -316.44257616461687 139.81085501738585
  endloop
endfacet
facet normal -1.0 0.0 0.0
  outer loop
    vertex -18.09142909584404 -316.4426472328686 142.20316459951417
    vertex -18.09142909584404 -319.0850279699103 139.81077651816844
    vertex -18.09142909584404 -319.0850990381619 142.20308610029664
  endloop
endfacet
facet normal -1.0 0.0 0.0
  outer loop
    vertex -18.09142909584404 -319.0850279699103 139.81077651816844
    vertex -18.09142909584404 -316.4426472328686 142.20316459951417
    vertex -18.09142909584404 -318.6887914928711 139.81078828915076
  endloop
endfacet
facet normal -1.0 0.0 0.0
  outer loop
    vertex -18.09142909584404 -318.6887914928711 139.81078828915076
    vertex -18.09142909584404 -316.4426472328686 142.20316459951417
    vertex -18.09142909584404 -316.44257616461687 139.81085501738585
  endloop
endfacet
facet normal -0.4999937720549423 2.1693854972082813e-05 -0.8660289991886223
  outer loop
    vertex -9.506373205356313 -316.4422890350676 127.32072055508743
    vertex -11.567175607122971 -318.68845579410277 128.51044866901228
    vertex -11.567175607122971 -316.4422404658483 128.51051539724745
  endloop
endfacet
facet normal -0.4999937720549423 2.1693854972082813e-05 -0.8660289991886223
  outer loop
    vertex -11.567175607122971 -318.68845579410277 128.51044866901228
    vertex -9.506373205356313 -316.4422890350676 127.32072055508743
    vertex -11.567175607122971 -319.08469227114153 128.51043689802998
  endloop
endfacet
facet normal -0.4999937720549423 2.1693854972082813e-05 -0.8660289991886223
  outer loop
    vertex -11.567175607122971 -319.08469227114153 128.51043689802998
    vertex -9.506373205356313 -316.4422890350676 127.32072055508743
    vertex -9.506390200935432 -319.08474084094377 127.3206911178808
  endloop
endfacet
facet normal 0.5000000437912895 -2.5692179429013775e-05 0.8660253781204224
  outer loop
    vertex -2.9809479575332354 -319.08499260462776 138.62033479633683
    vertex -5.04292148817713 -318.68812067372886 139.81078879333046
    vertex -5.04292148817713 -319.0850279699103 139.81077651816844
  endloop
endfacet
facet normal 0.5000000437912895 -2.5692179429013775e-05 0.8660253781204224
  outer loop
    vertex -5.04292148817713 -318.68812067372886 139.81078879333046
    vertex -2.980930961954114 -316.4425407987514 138.62036423354334
    vertex -5.04292148817713 -316.44257616461687 139.81085501738585
  endloop
endfacet
facet normal 0.5000000437912895 -2.5692179429013775e-05 0.8660253781204224
  outer loop
    vertex -2.980930961954114 -316.4425407987514 138.62036423354334
    vertex -5.04292148817713 -318.68812067372886 139.81078879333046
    vertex -2.9809479575332354 -319.08499260462776 138.62033479633683
  endloop
endfacet
facet normal -0.5000046009973894 -2.2653690427836452e-05 0.8660227470847701
  outer loop
    vertex -20.150254435392576 -319.08512851751146 138.62210327995
    vertex -18.09142909584404 -316.44257616461687 139.81085501738585
    vertex -20.150271434445923 -316.4424569206207 138.62213272317695
  endloop
endfacet
facet normal -0.5000046009973894 -2.2653690427836452e-05 0.8660227470847701
  outer loop
    vertex -18.09142909584404 -316.44257616461687 139.81085501738585
    vertex -20.150254435392576 -319.08512851751146 138.62210327995
    vertex -18.09142909584404 -319.0850279699103 139.81077651816844
  endloop
endfacet
facet normal -0.5000046009973894 -2.2653690427836452e-05 0.8660227470847701
  outer loop
    vertex -18.09142909584404 -316.44257616461687 139.81085501738585
    vertex -18.09142909584404 -319.0850279699103 139.81077651816844
    vertex -18.09142909584404 -318.6887914928711 139.81078828915076
  endloop
endfacet
facet normal 0.49999996345679637 2.5726985067290322e-05 -0.8660254245005307
  outer loop
    vertex -11.567175607122971 -316.4422404658483 128.51051539724745
    vertex -13.627183411661996 -319.08487673030004 127.32109093792093
    vertex -13.627200410715341 -316.4422051334093 127.32112038114788
  endloop
endfacet
facet normal 0.49999996345679637 2.5726985067290322e-05 -0.8660254245005307
  outer loop
    vertex -13.627183411661996 -319.08487673030004 127.32109093792093
    vertex -11.567175607122971 -316.4422404658483 128.51051539724745
    vertex -11.567175607122971 -319.08469227114153 128.51043689802998
  endloop
endfacet
facet normal 0.49999996345679637 2.5726985067290322e-05 -0.8660254245005307
  outer loop
    vertex -11.567175607122971 -319.08469227114153 128.51043689802998
    vertex -11.567175607122971 -316.4422404658483 128.51051539724745
    vertex -11.567175607122971 -318.68845579410277 128.51044866901228
  endloop
endfacet
facet normal -1.8783728766453783e-16 -0.9999999995587482 -2.9706962775432183e-05
  outer loop
    vertex -2.9809479575332354 -319.08499260462776 138.62033479633683
    vertex -11.567175607122971 -319.08469227114153 128.51043689802998
    vertex -9.506390200935432 -319.08474084094377 127.3206911178808
  endloop
endfacet
facet normal -1.8783728766453783e-16 -0.9999999995587482 -2.9706962775432183e-05
  outer loop
    vertex -11.567175607122971 -319.08469227114153 128.51043689802998
    vertex -20.150254435392576 -319.08512851751146 138.62210327995
    vertex -13.627183411661996 -319.08487673030004 127.32109093792093
  endloop
endfacet
facet normal -1.8783728766453783e-16 -0.9999999995587482 -2.9706962775432183e-05
  outer loop
    vertex -20.150254435392576 -319.08512851751146 138.62210327995
    vertex -11.567175607122971 -319.08469227114153 128.51043689802998
    vertex -2.9809479575332354 -319.08499260462776 138.62033479633683
  endloop
endfacet
facet normal -1.8783728766453783e-16 -0.9999999995587482 -2.9706962775432183e-05
  outer loop
    vertex -20.150254435392576 -319.08512851751146 138.62210327995
    vertex -2.9809479575332354 -319.08499260462776 138.62033479633683
    vertex -5.04292148817713 -319.0850279699103 139.81077651816844
  endloop
endfacet
facet normal -1.8783728766453783e-16 -0.9999999995587482 -2.9706962775432183e-05
  outer loop
    vertex -20.150254435392576 -319.08512851751146 138.62210327995
    vertex -5.04292148817713 -319.0850279699103 139.81077651816844
    vertex -18.09142909584404 -319.0850279699103 139.81077651816844
  endloop
endfacet
facet normal -1.8783728766453783e-16 -0.9999999995587482 -2.9706962775432183e-05
  outer loop
    vertex -18.09142909584404 -319.0850279699103 139.81077651816844
    vertex -5.04292148817713 -319.0850279699103 139.81077651816844
    vertex -5.04292148817713 -319.0850990381619 142.20308610029664
  endloop
endfacet
facet normal -1.8783728766453783e-16 -0.9999999995587482 -2.9706962775432183e-05
  outer loop
    vertex -18.09142909584404 -319.0850279699103 139.81077651816844
    vertex -5.04292148817713 -319.0850990381619 142.20308610029664
    vertex -18.09142909584404 -319.0850990381619 142.20308610029664
  endloop
endfacet
facet normal 2.738859320007418e-06 0.9999999996370736 2.6802077801934727e-05
  outer loop
    vertex -20.150271434445923 -316.4424569206207 138.62213272317695
    vertex -11.567175607122971 -316.4422404658483 128.51051539724745
    vertex -13.627200410715341 -316.4422051334093 127.32112038114788
  endloop
endfacet
facet normal 2.738859320007418e-06 0.9999999996370736 2.6802077801934727e-05
  outer loop
    vertex -11.567175607122971 -316.4422404658483 128.51051539724745
    vertex -20.150271434445923 -316.4424569206207 138.62213272317695
    vertex -2.980930961954114 -316.4425407987514 138.62036423354334
  endloop
endfacet
facet normal 2.738859320007418e-06 0.9999999996370736 2.6802077801934727e-05
  outer loop
    vertex -2.980930961954114 -316.4425407987514 138.62036423354334
    vertex -20.150271434445923 -316.4424569206207 138.62213272317695
    vertex -5.04292148817713 -316.44257616461687 139.81085501738585
  endloop
endfacet
facet normal 2.738859320007418e-06 0.9999999996370736 2.6802077801934727e-05
  outer loop
    vertex -5.04292148817713 -316.44257616461687 139.81085501738585
    vertex -20.150271434445923 -316.4424569206207 138.62213272317695
    vertex -18.09142909584404 -316.44257616461687 139.81085501738585
  endloop
endfacet
facet normal 2.738859320007418e-06 0.9999999996370736 2.6802077801934727e-05
  outer loop
    vertex -5.04292148817713 -316.44257616461687 139.81085501738585
    vertex -18.09142909584404 -316.44257616461687 139.81085501738585
    vertex -18.09142909584404 -316.4426472328686 142.20316459951417
  endloop
endfacet
facet normal 2.738859320007418e-06 0.9999999996370736 2.6802077801934727e-05
  outer loop
    vertex -5.04292148817713 -316.44257616461687 139.81085501738585
    vertex -18.09142909584404 -316.4426472328686 142.20316459951417
    vertex -5.04292148817713 -316.4426472328686 142.20316459951417
  endloop
endfacet
facet normal 2.738859320007418e-06 0.9999999996370736 2.6802077801934727e-05
  outer loop
    vertex -2.980930961954114 -316.4425407987514 138.62036423354334
    vertex -9.506373205356313 -316.4422890350676 127.32072055508743
    vertex -11.567175607122971 -316.4422404658483 128.51051539724745
  endloop
endfacet
facet normal 0.0 -2.9706962775439132e-05 0.9999999995587482
  outer loop
    vertex -5.04292148817713 -319.0850990381619 142.20308610029664
    vertex -18.09142909584404 -316.4426472328686 142.20316459951417
    vertex -18.09142909584404 -319.0850990381619 142.20308610029664
  endloop
endfacet
facet normal 0.0 -2.9706962775439132e-05 0.9999999995587482
  outer loop
    vertex -18.09142909584404 -316.4426472328686 142.20316459951417
    vertex -5.04292148817713 -319.0850990381619 142.20308610029664
    vertex -5.04292148817713 -316.4426472328686 142.20316459951417
  endloop
endfacet
facet normal 0.8659726375526693 1.3573990056984377e-09 -0.5000913826592827
  outer loop
    vertex -9.506390200935432 -319.08474084094377 127.3206911178808
    vertex -2.980930961954114 -316.4425407987514 138.62036423354334
    vertex -2.9809479575332354 -319.08499260462776 138.62033479633683
  endloop
endfacet
facet normal 0.8659726375526693 1.3573990056984377e-09 -0.5000913826592827
  outer loop
    vertex -2.980930961954114 -316.4425407987514 138.62036423354334
    vertex -9.506390200935432 -319.08474084094377 127.3206911178808
    vertex -9.506373205356313 -316.4422890350676 127.32072055508743
  endloop
endfacet
facet normal -0.8660775488934722 -1.3412763656305025e-09 -0.499909671143373
  outer loop
    vertex -20.150271434445923 -316.4424569206207 138.62213272317695
    vertex -13.627183411661996 -319.08487673030004 127.32109093792093
    vertex -20.150254435392576 -319.08512851751146 138.62210327995
  endloop
endfacet
facet normal -0.8660775488934722 -1.3412763656305025e-09 -0.499909671143373
  outer loop
    vertex -13.627183411661996 -319.08487673030004 127.32109093792093
    vertex -20.150271434445923 -316.4424569206207 138.62213272317695
    vertex -13.627200410715341 -316.4422051334093 127.32112038114788
  endloop
endfacet
facet normal -0.00012376813978013832 0.9999999923407218 6.161576625381083e-08
  outer loop
    vertex -19.442748799478036 -307.12370976084594 137.89570292000036
    vertex -18.20085916735065 -307.12355605243397 137.86257488970142
    vertex -18.82398467736279 -307.12363317150334 137.79738996832597
  endloop
endfacet
facet normal -0.00012376813978013832 0.9999999923407218 6.161576625381083e-08
  outer loop
    vertex -18.20085916735065 -307.12355605243397 137.86257488970142
    vertex -19.442748799478036 -307.12370976084594 137.89570292000036
    vertex -17.61583724318539 -307.1234836591746 138.08681543945784
  endloop
endfacet
facet normal -0.00012376813978013832 0.9999999923407218 6.161576625381083e-08
  outer loop
    vertex -17.61583724318539 -307.1234836591746 138.08681543945784
    vertex -19.442748799478036 -307.12370976084594 137.89570292000036
    vertex -20.014983781330333 -307.12378060102435 138.15081387953785
  endloop
endfacet
facet normal -0.00012376813978013832 0.9999999923407218 6.161576625381083e-08
  outer loop
    vertex -17.61583724318539 -307.1234836591746 138.08681543945784
    vertex -20.014983781330333 -307.12378060102435 138.15081387953785
    vertex -17.108787182204416 -307.1234209252071 138.4548299947047
  endloop
endfacet
facet normal -0.00012376813978013832 0.9999999923407218 6.161576625381083e-08
  outer loop
    vertex -17.108787182204416 -307.1234209252071 138.4548299947047
    vertex -20.014983781330333 -307.12378060102435 138.15081387953785
    vertex -20.50169275456946 -307.12384086439783 138.5453374566366
  endloop
endfacet
facet normal -0.00012376813978013832 0.9999999923407218 6.161576625381083e-08
  outer loop
    vertex -17.108787182204416 -307.1234209252071 138.4548299947047
    vertex -20.50169275456946 -307.12384086439783 138.5453374566366
    vertex -16.714263608123716 -307.12337212574664 138.94153897167487
  endloop
endfacet
facet normal -0.00012376813978013832 0.9999999923407218 6.161576625381083e-08
  outer loop
    vertex -16.714263608123716 -307.12337212574664 138.94153897167487
    vertex -20.50169275456946 -307.12384086439783 138.5453374566366
    vertex -20.869707306993742 -307.1238864441174 139.05238752149842
  endloop
endfacet
facet normal -0.00012376813978013832 0.9999999923407218 6.161576625381083e-08
  outer loop
    vertex -16.714263608123716 -307.12337212574664 138.94153897167487
    vertex -20.869707306993742 -307.1238864441174 139.05238752149842
    vertex -16.459152650535884 -307.1233405863966 139.51377395791198
  endloop
endfacet
facet normal -0.00012376813978013832 0.9999999923407218 6.161576625381083e-08
  outer loop
    vertex -16.459152650535884 -307.1233405863966 139.51377395791198
    vertex -20.869707306993742 -307.1238864441174 139.05238752149842
    vertex -21.09394785502832 -307.1239142339996 139.6374094501429
  endloop
endfacet
facet normal -0.00012376813978013832 0.9999999923407218 6.161576625381083e-08
  outer loop
    vertex -16.459152650535884 -307.1233405863966 139.51377395791198
    vertex -21.09394785502832 -307.1239142339996 139.6374094501429
    vertex -16.360839699609734 -307.1233284565108 140.1325380847673
  endloop
endfacet
facet normal -0.00012376813978013832 0.9999999923407218 6.161576625381083e-08
  outer loop
    vertex -16.360839699609734 -307.1233284565108 140.1325380847673
    vertex -21.09394785502832 -307.1239142339996 139.6374094501429
    vertex -21.15913277589965 -307.12392234021013 140.2605349649273
  endloop
endfacet
facet normal -0.00012376813978013832 0.9999999923407218 6.161576625381083e-08
  outer loop
    vertex -16.360839699609734 -307.1233284565108 140.1325380847673
    vertex -21.15913277589965 -307.12392234021013 140.2605349649273
    vertex -16.426024620481044 -307.1233365627215 140.7556635995515
  endloop
endfacet
facet normal -0.00012376813978013832 0.9999999923407218 6.161576625381083e-08
  outer loop
    vertex -16.426024620481044 -307.1233365627215 140.7556635995515
    vertex -21.15913277589965 -307.12392234021013 140.2605349649273
    vertex -21.060819824973503 -307.1239102103248 140.87929909178254
  endloop
endfacet
facet normal -0.00012376813978013832 0.9999999923407218 6.161576625381083e-08
  outer loop
    vertex -16.426024620481044 -307.1233365627215 140.7556635995515
    vertex -21.060819824973503 -307.1239102103248 140.87929909178254
    vertex -16.65026516851562 -307.1233643526041 141.34068552819588
  endloop
endfacet
facet normal -0.00012376813978013832 0.9999999923407218 6.161576625381083e-08
  outer loop
    vertex -16.65026516851562 -307.1233643526041 141.34068552819588
    vertex -21.060819824973503 -307.1239102103248 140.87929909178254
    vertex -20.805708867385647 -307.12387867097436 141.45153407801968
  endloop
endfacet
facet normal -0.00012376813978013832 0.9999999923407218 6.161576625381083e-08
  outer loop
    vertex -16.65026516851562 -307.1233643526041 141.34068552819588
    vertex -20.805708867385647 -307.12387867097436 141.45153407801968
    vertex -17.018279720939923 -307.1234099323233 141.84773559305768
  endloop
endfacet
facet normal -0.00012376813978013832 0.9999999923407218 6.161576625381083e-08
  outer loop
    vertex -17.018279720939923 -307.1234099323233 141.84773559305768
    vertex -20.805708867385647 -307.12387867097436 141.45153407801968
    vertex -20.41118529330497 -307.12382987151426 141.9382430549895
  endloop
endfacet
facet normal -0.00012376813978013832 0.9999999923407218 6.161576625381083e-08
  outer loop
    vertex -17.018279720939923 -307.1234099323233 141.84773559305768
    vertex -20.41118529330497 -307.12382987151426 141.9382430549895
    vertex -17.504988694179048 -307.12347019569694 142.24225917015642
  endloop
endfacet
facet normal -0.00012376813978013832 0.9999999923407218 6.161576625381083e-08
  outer loop
    vertex -17.504988694179048 -307.12347019569694 142.24225917015642
    vertex -20.41118529330497 -307.12382987151426 141.9382430549895
    vertex -19.904135232323988 -307.1237671375466 142.30625761023637
  endloop
endfacet
facet normal -0.00012376813978013832 0.9999999923407218 6.161576625381083e-08
  outer loop
    vertex -17.504988694179048 -307.12347019569694 142.24225917015642
    vertex -19.904135232323988 -307.1237671375466 142.30625761023637
    vertex -18.077223676031323 -307.1235410358755 142.49737012969393
  endloop
endfacet
facet normal -0.00012376813978013832 0.9999999923407218 6.161576625381083e-08
  outer loop
    vertex -18.077223676031323 -307.1235410358755 142.49737012969393
    vertex -19.904135232323988 -307.1237671375466 142.30625761023637
    vertex -19.31911330815871 -307.12369474428726 142.530498159993
  endloop
endfacet
facet normal -0.00012376813978013832 0.9999999923407218 6.161576625381083e-08
  outer loop
    vertex -18.077223676031323 -307.1235410358755 142.49737012969393
    vertex -19.31911330815871 -307.12369474428726 142.530498159993
    vertex -18.695987798146586 -307.1236176252181 142.59568308136826
  endloop
endfacet
facet normal -0.00012376813983363115 0.9999999923407218 6.16157565105009e-08
  outer loop
    vertex -5.234359157089369 -307.1216879809436 137.95554679519546
    vertex -3.9987735015282846 -307.121535046838 137.82625869525566
    vertex -4.625076879876976 -307.1216125622141 137.80956877583358
  endloop
endfacet
facet normal -0.00012376813983363115 0.9999999923407218 6.16157565105009e-08
  outer loop
    vertex -3.9987735015282846 -307.121535046838 137.82625869525566
    vertex -5.234359157089369 -307.1216879809436 137.95554679519546
    vertex -3.398130562262464 -307.1214607173593 138.0044791630342
  endloop
endfacet
facet normal -0.00012376813983363115 0.9999999923407218 6.16157565105009e-08
  outer loop
    vertex -3.398130562262464 -307.1214607173593 138.0044791630342
    vertex -5.234359157089369 -307.1216879809436 137.95554679519546
    vertex -5.785098752859993 -307.12175616336384 138.25424459256172
  endloop
endfacet
facet normal -0.00012376813983363115 0.9999999923407218 6.16157565105009e-08
  outer loop
    vertex -3.398130562262464 -307.1214607173593 138.0044791630342
    vertex -5.785098752859993 -307.12175616336384 138.25424459256172
    vertex -2.8640808857811466 -307.1213946392094 138.33208474881337
  endloop
endfacet
facet normal -0.00012376813983363115 0.9999999923407218 6.16157565105009e-08
  outer loop
    vertex -2.8640808857811466 -307.1213946392094 138.33208474881337
    vertex -5.785098752859993 -307.12175616336384 138.25424459256172
    vertex -6.239763673877336 -307.12181246295614 138.68530640666359
  endloop
endfacet
facet normal -0.00012376813983363115 0.9999999923407218 6.16157565105009e-08
  outer loop
    vertex -2.8640808857811466 -307.1213946392094 138.33208474881337
    vertex -6.239763673877336 -307.12181246295614 138.68530640666359
    vertex -2.433019074977664 -307.12134131550494 138.78674967331642
  endloop
endfacet
facet normal -0.00012376813983363115 0.9999999923407218 6.16157565105009e-08
  outer loop
    vertex -2.433019074977664 -307.12134131550494 138.78674967331642
    vertex -6.239763673877336 -307.12181246295614 138.68530640666359
    vertex -6.5673692571433415 -307.12185304299567 139.21935608723285
  endloop
endfacet
facet normal -0.00012376813983363115 0.9999999923407218 6.16157565105009e-08
  outer loop
    vertex -2.433019074977664 -307.12134131550494 138.78674967331642
    vertex -6.5673692571433415 -307.12185304299567 139.21935608723285
    vertex -2.1343212798949436 -307.1213043801687 139.3374892733075
  endloop
endfacet
facet normal -0.00012376813983363115 0.9999999923407218 6.16157565105009e-08
  outer loop
    vertex -2.1343212798949436 -307.1213043801687 139.3374892733075
    vertex -6.5673692571433415 -307.12185304299567 139.21935608723285
    vertex -6.745589723552257 -307.1218751380207 139.81999903109784
  endloop
endfacet
facet normal -0.00012376813983363115 0.9999999923407218 6.16157565105009e-08
  outer loop
    vertex -2.1343212798949436 -307.1213043801687 139.3374892733075
    vertex -6.745589723552257 -307.1218751380207 139.81999903109784
    vertex -1.9883432616464802 -307.1212863502818 139.94677155518787
  endloop
endfacet
facet normal -0.00012376813983363115 0.9999999923407218 6.16157565105009e-08
  outer loop
    vertex -1.9883432616464802 -307.1212863502818 139.94677155518787
    vertex -6.745589723552257 -307.1218751380207 139.81999903109784
    vertex -6.7622796428415555 -307.12187724229113 140.4463024142432
  endloop
endfacet
facet normal -0.00012376813983363115 0.9999999923407218 6.16157565105009e-08
  outer loop
    vertex -1.9883432616464802 -307.1212863502818 139.94677155518787
    vertex -6.7622796428415555 -307.12187724229113 140.4463024142432
    vertex -2.005033180935784 -307.12128845455254 140.5730749383333
  endloop
endfacet
facet normal -0.00012376813983363115 0.9999999923407218 6.16157565105009e-08
  outer loop
    vertex -2.005033180935784 -307.12128845455254 140.5730749383333
    vertex -6.7622796428415555 -307.12187724229113 140.4463024142432
    vertex -6.616301624593083 -307.1218592124044 141.05558469612353
  endloop
endfacet
facet normal -0.00012376813983363115 0.9999999923407218 6.16157565105009e-08
  outer loop
    vertex -2.005033180935784 -307.12128845455254 140.5730749383333
    vertex -6.616301624593083 -307.1218592124044 141.05558469612353
    vertex -2.1832536473446944 -307.1213105495773 141.1737178821982
  endloop
endfacet
facet normal -0.00012376813983363115 0.9999999923407218 6.16157565105009e-08
  outer loop
    vertex -2.1832536473446944 -307.1213105495773 141.1737178821982
    vertex -6.616301624593083 -307.1218592124044 141.05558469612353
    vertex -6.317603829510377 -307.1218222770681 141.6063242961146
  endloop
endfacet
facet normal -0.00012376813983363115 0.9999999923407218 6.16157565105009e-08
  outer loop
    vertex -2.1832536473446944 -307.1213105495773 141.1737178821982
    vertex -6.317603829510377 -307.1218222770681 141.6063242961146
    vertex -2.5108592306106905 -307.12135112961727 141.70776756276743
  endloop
endfacet
facet normal -0.00012376813983363115 0.9999999923407218 6.16157565105009e-08
  outer loop
    vertex -2.5108592306106905 -307.12135112961727 141.70776756276743
    vertex -6.317603829510377 -307.1218222770681 141.6063242961146
    vertex -5.886542018706897 -307.1217689533636 142.06098922061759
  endloop
endfacet
facet normal -0.00012376813983363115 0.9999999923407218 6.16157565105009e-08
  outer loop
    vertex -2.5108592306106905 -307.12135112961727 141.70776756276743
    vertex -5.886542018706897 -307.1217689533636 142.06098922061759
    vertex -2.9655241516280424 -307.12140742920917 142.1388293768693
  endloop
endfacet
facet normal -0.00012376813983363115 0.9999999923407218 6.16157565105009e-08
  outer loop
    vertex -2.9655241516280424 -307.12140742920917 142.1388293768693
    vertex -5.886542018706897 -307.1217689533636 142.06098922061759
    vertex -5.352492342225571 -307.12170287521377 142.38859480639692
  endloop
endfacet
facet normal -0.00012376813983363115 0.9999999923407218 6.16157565105009e-08
  outer loop
    vertex -2.9655241516280424 -307.12140742920917 142.1388293768693
    vertex -5.352492342225571 -307.12170287521377 142.38859480639692
    vertex -3.5162637473986664 -307.1214756116294 142.4375271742356
  endloop
endfacet
facet normal -0.00012376813983363115 0.9999999923407218 6.16157565105009e-08
  outer loop
    vertex -3.5162637473986664 -307.1214756116294 142.4375271742356
    vertex -5.352492342225571 -307.12170287521377 142.38859480639692
    vertex -4.751849402959768 -307.12162854573523 142.56681527417535
  endloop
endfacet
facet normal -0.00012376813983363115 0.9999999923407218 6.16157565105009e-08
  outer loop
    vertex -3.5162637473986664 -307.1214756116294 142.4375271742356
    vertex -4.751849402959768 -307.12162854573523 142.56681527417535
    vertex -4.1255460246110705 -307.12155103035883 142.58350519359743
  endloop
endfacet
facet normal -0.00012376813979593032 0.9999999923407218 6.16157473008168e-08
  outer loop
    vertex -12.462290031120357 -307.1227724235016 125.51203216551245
    vertex -11.228922446715337 -307.12261976270975 125.36306328675944
    vertex -11.855412301318665 -307.1226973017813 125.35635976404882
  endloop
endfacet
facet normal -0.00012376813979593032 0.9999999923407218 6.16157473008168e-08
  outer loop
    vertex -11.228922446715337 -307.12261976270975 125.36306328675944
    vertex -12.462290031120357 -307.1227724235016 125.51203216551245
    vertex -10.625514715578152 -307.1225450904467 125.53168589964955
  endloop
endfacet
facet normal -0.00012376813979593032 0.9999999923407218 6.16157473008168e-08
  outer loop
    vertex -10.625514715578152 -307.1225450904467 125.53168589964955
    vertex -12.462290031120357 -307.1227724235016 125.51203216551245
    vertex -13.008197921747318 -307.1228400084494 125.819471674251
  endloop
endfacet
facet normal -0.00012376813979593032 0.9999999923407218 6.16157473008168e-08
  outer loop
    vertex -10.625514715578152 -307.1225450904467 125.53168589964955
    vertex -13.008197921747318 -307.1228400084494 125.819471674251
    vertex -10.086310347605703 -307.1224783737831 125.85073625031272
  endloop
endfacet
facet normal -0.00012376813979593032 0.9999999923407218 6.16157473008168e-08
  outer loop
    vertex -10.086310347605703 -307.1224783737831 125.85073625031272
    vertex -13.008197921747318 -307.1228400084494 125.819471674251
    vertex -13.455933252608734 -307.12289545082183 126.25772679581198
  endloop
endfacet
facet normal -0.00012376813979593032 0.9999999923407218 6.16157473008168e-08
  outer loop
    vertex -10.086310347605703 -307.1224783737831 125.85073625031272
    vertex -13.455933252608734 -307.12289545082183 126.25772679581198
    vertex -9.648055229397952 -307.1224241593494 126.29847158460683
  endloop
endfacet
facet normal -0.00012376813979593032 0.9999999923407218 6.16157473008168e-08
  outer loop
    vertex -9.648055229397952 -307.1224241593494 126.29847158460683
    vertex -13.455933252608734 -307.12289545082183 126.25772679581198
    vertex -13.774983600824037 -307.12293497231406 126.7969311679119
  endloop
endfacet
facet normal -0.00012376813979593032 0.9999999923407218 6.16157473008168e-08
  outer loop
    vertex -9.648055229397952 -307.1224241593494 126.29847158460683
    vertex -13.774983600824037 -307.12293497231406 126.7969311679119
    vertex -9.340615723009941 -307.12238614177005 126.84437947941727
  endloop
endfacet
facet normal -0.00012376813979593032 0.9999999923407218 6.16157473008168e-08
  outer loop
    vertex -9.340615723009941 -307.12238614177005 126.84437947941727
    vertex -13.774983600824037 -307.12293497231406 126.7969311679119
    vertex -13.943606212417983 -307.1229558796004 127.40033890366962
  endloop
endfacet
facet normal -0.00012376813979593032 0.9999999923407218 6.16157473008168e-08
  outer loop
    vertex -9.340615723009941 -307.12238614177005 126.84437947941727
    vertex -13.943606212417983 -307.1229558796004 127.40033890366962
    vertex -9.184943322734178 -307.12236691187957 127.45125721386849
  endloop
endfacet
facet normal -0.00012376813979593032 0.9999999923407218 6.16157473008168e-08
  outer loop
    vertex -9.184943322734178 -307.12236691187957 127.45125721386849
    vertex -13.943606212417983 -307.1229558796004 127.40033890366962
    vertex -13.950309735072484 -307.1229567478846 128.02682876307122
  endloop
endfacet
facet normal -0.00012376813979593032 0.9999999923407218 6.16157473008168e-08
  outer loop
    vertex -9.184943322734178 -307.12236691187957 127.45125721386849
    vertex -13.950309735072484 -307.1229567478846 128.02682876307122
    vertex -9.191646845388666 -307.12236778016353 128.07774707327033
  endloop
endfacet
facet normal -0.00012376813979593032 0.9999999923407218 6.16157473008168e-08
  outer loop
    vertex -9.191646845388666 -307.12236778016353 128.07774707327033
    vertex -13.950309735072484 -307.1229567478846 128.02682876307122
    vertex -13.794637334796732 -307.12293751799444 128.6337064975223
  endloop
endfacet
facet normal -0.00012376813979593032 0.9999999923407218 6.16157473008168e-08
  outer loop
    vertex -9.191646845388666 -307.12236778016353 128.07774707327033
    vertex -13.794637334796732 -307.12293751799444 128.6337064975223
    vertex -9.360269456982628 -307.1223886874504 128.6811548090277
  endloop
endfacet
facet normal -0.00012376813979593032 0.9999999923407218 6.16157473008168e-08
  outer loop
    vertex -9.360269456982628 -307.1223886874504 128.6811548090277
    vertex -13.794637334796732 -307.12293751799444 128.6337064975223
    vertex -13.487197828408704 -307.12289950041463 129.1796143923329
  endloop
endfacet
facet normal -0.00012376813979593032 0.9999999923407218 6.16157473008168e-08
  outer loop
    vertex -9.360269456982628 -307.1223886874504 128.6811548090277
    vertex -13.487197828408704 -307.12289950041463 129.1796143923329
    vertex -9.679319805197915 -307.12242820894227 129.22035918112766
  endloop
endfacet
facet normal -0.00012376813979593032 0.9999999923407218 6.16157473008168e-08
  outer loop
    vertex -9.679319805197915 -307.12242820894227 129.22035918112766
    vertex -13.487197828408704 -307.12289950041463 129.1796143923329
    vertex -13.04894271020095 -307.1228452859813 129.627349726627
  endloop
endfacet
facet normal -0.00012376813979593032 0.9999999923407218 6.16157473008168e-08
  outer loop
    vertex -9.679319805197915 -307.12242820894227 129.22035918112766
    vertex -13.04894271020095 -307.1228452859813 129.627349726627
    vertex -10.127055136059338 -307.12248365131506 129.65861430268885
  endloop
endfacet
facet normal -0.00012376813979593032 0.9999999923407218 6.16157473008168e-08
  outer loop
    vertex -10.127055136059338 -307.12248365131506 129.65861430268885
    vertex -13.04894271020095 -307.1228452859813 129.627349726627
    vertex -12.509738342228507 -307.12277856931763 129.9464000772901
  endloop
endfacet
facet normal -0.00012376813979593032 0.9999999923407218 6.16157473008168e-08
  outer loop
    vertex -10.127055136059338 -307.12248365131506 129.65861430268885
    vertex -12.509738342228507 -307.12277856931763 129.9464000772901
    vertex -10.67296302668629 -307.1225512362628 129.96605381142749
  endloop
endfacet
facet normal -0.00012376813979593032 0.9999999923407218 6.16157473008168e-08
  outer loop
    vertex -10.67296302668629 -307.1225512362628 129.96605381142749
    vertex -12.509738342228507 -307.12277856931763 129.9464000772901
    vertex -11.906330611091313 -307.1227038970544 130.11502269018013
  endloop
endfacet
facet normal -0.00012376813979593032 0.9999999923407218 6.16157473008168e-08
  outer loop
    vertex -10.67296302668629 -307.1225512362628 129.96605381142749
    vertex -11.906330611091313 -307.1227038970544 130.11502269018013
    vertex -11.279840756487985 -307.1226263579828 130.12172621289076
  endloop
endfacet
facet normal -0.5228924710019722 -6.476995013084033e-05 0.8523986506173653
  outer loop
    vertex -5.885061326685903 -319.0852032594885 142.0609884834816
    vertex -5.352492342225571 -307.12170287521377 142.38859480639692
    vertex -5.886542018706897 -307.1217689533636 142.06098922061759
  endloop
endfacet
facet normal -0.5228924710019722 -6.476995013084033e-05 0.8523986506173653
  outer loop
    vertex -5.352492342225571 -307.12170287521377 142.38859480639692
    vertex -5.885061326685903 -319.0852032594885 142.0609884834816
    vertex -5.351011650204546 -319.08513718133867 142.38859406926088
  endloop
endfacet
facet normal -0.7256923452235964 -8.985998515064892e-05 0.6880193398510388
  outer loop
    vertex -5.885061326685903 -319.0852032594885 142.0609884834816
    vertex -6.317603829510377 -307.1218222770681 141.6063242961146
    vertex -6.316123137489391 -319.08525658319303 141.60632355897857
  endloop
endfacet
facet normal -0.7256923452235964 -8.985998515064892e-05 0.6880193398510388
  outer loop
    vertex -6.317603829510377 -307.1218222770681 141.6063242961146
    vertex -5.885061326685903 -319.0852032594885 142.0609884834816
    vertex -5.886542018706897 -307.1217689533636 142.06098922061759
  endloop
endfacet
facet normal -0.8790374853815365 -0.00010882621068235895 0.4767526480796525
  outer loop
    vertex -6.316123137489391 -319.08525658319303 141.60632355897857
    vertex -6.616301624593083 -307.1218592124044 141.05558469612353
    vertex -6.6148209325720835 -319.0852935185291 141.05558395898763
  endloop
endfacet
facet normal -0.8790374853815365 -0.00010882621068235895 0.4767526480796525
  outer loop
    vertex -6.616301624593083 -307.1218592124044 141.05558469612353
    vertex -6.316123137489391 -319.08525658319303 141.60632355897857
    vertex -6.317603829510377 -307.1218222770681 141.6063242961146
  endloop
endfacet
facet normal -0.9724776735889845 -0.00012037610980256984 0.232996051212351
  outer loop
    vertex -6.6148209325720835 -319.0852935185291 141.05558395898763
    vertex -6.7622796428415555 -307.12187724229113 140.4463024142432
    vertex -6.760798950820552 -319.0853115484159 140.44630167710724
  endloop
endfacet
facet normal -0.9724776735889845 -0.00012037610980256984 0.232996051212351
  outer loop
    vertex -6.7622796428415555 -307.12187724229113 140.4463024142432
    vertex -6.6148209325720835 -319.0852935185291 141.05558395898763
    vertex -6.616301624593083 -307.1218592124044 141.05558469612353
  endloop
endfacet
facet normal -0.9996451154365873 -0.000123722575971073 -0.026638841500639724
  outer loop
    vertex -6.7622796428415555 -307.12187724229113 140.4463024142432
    vertex -6.744109031531245 -319.0853094441455 139.81999829396162
    vertex -6.760798950820552 -319.0853115484159 140.44630167710724
  endloop
endfacet
facet normal -0.9996451154365873 -0.000123722575971073 -0.026638841500639724
  outer loop
    vertex -6.744109031531245 -319.0853094441455 139.81999829396162
    vertex -6.7622796428415555 -307.12187724229113 140.4463024142432
    vertex -6.745589723552257 -307.1218751380207 139.81999903109784
  endloop
endfacet
facet normal -0.958688394658863 -0.00011863755304356247 -0.28445834118820146
  outer loop
    vertex -6.745589723552257 -307.1218751380207 139.81999903109784
    vertex -6.565888565122335 -319.08528734912056 139.21935535009675
    vertex -6.744109031531245 -319.0853094441455 139.81999829396162
  endloop
endfacet
facet normal -0.958688394658863 -0.00011863755304356247 -0.28445834118820146
  outer loop
    vertex -6.565888565122335 -319.08528734912056 139.21935535009675
    vertex -6.745589723552257 -307.1218751380207 139.81999903109784
    vertex -6.5673692571433415 -307.12185304299567 139.21935608723285
  endloop
endfacet
facet normal -0.8523986440925599 -0.00010546757694079684 -0.5228924750135113
  outer loop
    vertex -6.5673692571433415 -307.12185304299567 139.21935608723285
    vertex -6.2382829818563135 -319.0852467690808 138.6853056695277
    vertex -6.565888565122335 -319.08528734912056 139.21935535009675
  endloop
endfacet
facet normal -0.8523986440925599 -0.00010546757694079684 -0.5228924750135113
  outer loop
    vertex -6.2382829818563135 -319.0852467690808 138.6853056695277
    vertex -6.5673692571433415 -307.12185304299567 139.21935608723285
    vertex -6.239763673877336 -307.12181246295614 138.68530640666359
  endloop
endfacet
facet normal -0.6880193345870174 -8.511015976650836e-05 -0.7256923507869559
  outer loop
    vertex -5.785098752859993 -307.12175616336384 138.25424459256172
    vertex -6.2382829818563135 -319.0852467690808 138.6853056695277
    vertex -6.239763673877336 -307.12181246295614 138.68530640666359
  endloop
endfacet
facet normal -0.6880193345870174 -8.511015976650836e-05 -0.7256923507869559
  outer loop
    vertex -6.2382829818563135 -319.0852467690808 138.6853056695277
    vertex -5.785098752859993 -307.12175616336384 138.25424459256172
    vertex -5.783618060839013 -319.0851904694887 138.25424385542587
  endloop
endfacet
facet normal -0.4767526444346459 -5.895262584776873e-05 -0.8790374921180324
  outer loop
    vertex -5.234359157089369 -307.1216879809436 137.95554679519546
    vertex -5.783618060839013 -319.0851904694887 138.25424385542587
    vertex -5.785098752859993 -307.12175616336384 138.25424459256172
  endloop
endfacet
facet normal -0.4767526444346459 -5.895262584776873e-05 -0.8790374921180324
  outer loop
    vertex -5.783618060839013 -319.0851904694887 138.25424385542587
    vertex -5.234359157089369 -307.1216879809436 137.95554679519546
    vertex -5.232878465068346 -319.0851222870684 137.9555460580595
  endloop
endfacet
facet normal -0.2329960494351628 -2.877756790213273e-05 -0.9724776810392405
  outer loop
    vertex -4.625076879876976 -307.1216125622141 137.80956877583358
    vertex -5.232878465068346 -319.0851222870684 137.9555460580595
    vertex -5.234359157089369 -307.1216879809436 137.95554679519546
  endloop
endfacet
facet normal -0.2329960494351628 -2.877756790213273e-05 -0.9724776810392405
  outer loop
    vertex -5.232878465068346 -319.0851222870684 137.9555460580595
    vertex -4.625076879876976 -307.1216125622141 137.80956877583358
    vertex -4.623596187855936 -319.0850468683389 137.80956803869768
  endloop
endfacet
facet normal 0.026638841289108123 3.3586337439966474e-06 -0.999645123092937
  outer loop
    vertex -3.9987735015282846 -307.121535046838 137.82625869525566
    vertex -4.623596187855936 -319.0850468683389 137.80956803869768
    vertex -4.625076879876976 -307.1216125622141 137.80956877583358
  endloop
endfacet
facet normal 0.026638841289108123 3.3586337439966474e-06 -0.999645123092937
  outer loop
    vertex -4.623596187855936 -319.0850468683389 137.80956803869768
    vertex -3.9987735015282846 -307.121535046838 137.82625869525566
    vertex -3.9972928095072873 -319.08496935296256 137.82625795811958
  endloop
endfacet
facet normal 0.28445833900207385 3.5265950056115784e-05 -0.9586884019995725
  outer loop
    vertex -3.398130562262464 -307.1214607173593 138.0044791630342
    vertex -3.9972928095072873 -319.08496935296256 137.82625795811958
    vertex -3.9987735015282846 -307.121535046838 137.82625869525566
  endloop
endfacet
facet normal 0.28445833900207385 3.5265950056115784e-05 -0.9586884019995725
  outer loop
    vertex -3.9972928095072873 -319.08496935296256 137.82625795811958
    vertex -3.398130562262464 -307.1214607173593 138.0044791630342
    vertex -3.396649870241486 -319.084895023484 138.004478425898
  endloop
endfacet
facet normal 0.5228924710019973 6.476995013066332e-05 -0.8523986506173499
  outer loop
    vertex -2.8640808857811466 -307.1213946392094 138.33208474881337
    vertex -3.396649870241486 -319.084895023484 138.004478425898
    vertex -3.398130562262464 -307.1214607173593 138.0044791630342
  endloop
endfacet
facet normal 0.5228924710019973 6.476995013066332e-05 -0.8523986506173499
  outer loop
    vertex -3.396649870241486 -319.084895023484 138.004478425898
    vertex -2.8640808857811466 -307.1213946392094 138.33208474881337
    vertex -2.862600193760152 -319.0848289453342 138.33208401167752
  endloop
endfacet
facet normal 0.7256923452235807 8.98599851444023e-05 -0.6880193398510555
  outer loop
    vertex -2.8640808857811466 -307.1213946392094 138.33208474881337
    vertex -2.4315383829566297 -319.0847756216298 138.78674893618052
    vertex -2.862600193760152 -319.0848289453342 138.33208401167752
  endloop
endfacet
facet normal 0.7256923452235807 8.98599851444023e-05 -0.6880193398510555
  outer loop
    vertex -2.4315383829566297 -319.0847756216298 138.78674893618052
    vertex -2.8640808857811466 -307.1213946392094 138.33208474881337
    vertex -2.433019074977664 -307.12134131550494 138.78674967331642
  endloop
endfacet
facet normal 0.879037485381556 0.0001088262106834651 -0.4767526480796165
  outer loop
    vertex -2.433019074977664 -307.12134131550494 138.78674967331642
    vertex -2.132840587873949 -319.0847386862936 139.3374885361715
    vertex -2.4315383829566297 -319.0847756216298 138.78674893618052
  endloop
endfacet
facet normal 0.879037485381556 0.0001088262106834651 -0.4767526480796165
  outer loop
    vertex -2.132840587873949 -319.0847386862936 139.3374885361715
    vertex -2.433019074977664 -307.12134131550494 138.78674967331642
    vertex -2.1343212798949436 -307.1213043801687 139.3374892733075
  endloop
endfacet
facet normal 0.9724776735889824 0.00012037610980438322 -0.23299605121236025
  outer loop
    vertex -2.1343212798949436 -307.1213043801687 139.3374892733075
    vertex -1.9868625696255025 -319.08472065640666 139.94677081805165
    vertex -2.132840587873949 -319.0847386862936 139.3374885361715
  endloop
endfacet
facet normal 0.9724776735889824 0.00012037610980438322 -0.23299605121236025
  outer loop
    vertex -1.9868625696255025 -319.08472065640666 139.94677081805165
    vertex -2.1343212798949436 -307.1213043801687 139.3374892733075
    vertex -1.9883432616464802 -307.1212863502818 139.94677155518787
  endloop
endfacet
facet normal 0.9996451154365877 0.00012372257596937426 0.026638841500625295
  outer loop
    vertex -1.9868625696255025 -319.08472065640666 139.94677081805165
    vertex -2.005033180935784 -307.12128845455254 140.5730749383333
    vertex -2.003552488914787 -319.0847227606771 140.57307420119727
  endloop
endfacet
facet normal 0.9996451154365877 0.00012372257596937426 0.026638841500625295
  outer loop
    vertex -2.005033180935784 -307.12128845455254 140.5730749383333
    vertex -1.9868625696255025 -319.08472065640666 139.94677081805165
    vertex -1.9883432616464802 -307.1212863502818 139.94677155518787
  endloop
endfacet
facet normal 0.9586883946588644 0.00011863755304696547 0.28445834118819696
  outer loop
    vertex -2.003552488914787 -319.0847227606771 140.57307420119727
    vertex -2.1832536473446944 -307.1213105495773 141.1737178821982
    vertex -2.1817729553237166 -319.08474485570207 141.17371714506234
  endloop
endfacet
facet normal 0.9586883946588644 0.00011863755304696547 0.28445834118819696
  outer loop
    vertex -2.1832536473446944 -307.1213105495773 141.1737178821982
    vertex -2.003552488914787 -319.0847227606771 140.57307420119727
    vertex -2.005033180935784 -307.12128845455254 140.5730749383333
  endloop
endfacet
facet normal 0.8523986440925886 0.0001054675769420321 0.5228924750134645
  outer loop
    vertex -2.1817729553237166 -319.08474485570207 141.17371714506234
    vertex -2.5108592306106905 -307.12135112961727 141.70776756276743
    vertex -2.5093785385897185 -319.0847854357421 141.70776682563147
  endloop
endfacet
facet normal 0.8523986440925886 0.0001054675769420321 0.5228924750134645
  outer loop
    vertex -2.5108592306106905 -307.12135112961727 141.70776756276743
    vertex -2.1817729553237166 -319.08474485570207 141.17371714506234
    vertex -2.1832536473446944 -307.1213105495773 141.1737178821982
  endloop
endfacet
facet normal 0.6880193345869405 8.511015975546766e-05 0.7256923507870289
  outer loop
    vertex -2.9640434596070167 -319.08484173533395 142.13882863973316
    vertex -2.5108592306106905 -307.12135112961727 141.70776756276743
    vertex -2.9655241516280424 -307.12140742920917 142.1388293768693
  endloop
endfacet
facet normal 0.6880193345869405 8.511015975546766e-05 0.7256923507870289
  outer loop
    vertex -2.5108592306106905 -307.12135112961727 141.70776756276743
    vertex -2.9640434596070167 -319.08484173533395 142.13882863973316
    vertex -2.5093785385897185 -319.0847854357421 141.70776682563147
  endloop
endfacet
facet normal 0.47675264443461723 5.8952625829588084e-05 0.8790374921180479
  outer loop
    vertex -3.514783055377686 -319.0849099177542 142.4375264370994
    vertex -2.9655241516280424 -307.12140742920917 142.1388293768693
    vertex -3.5162637473986664 -307.1214756116294 142.4375271742356
  endloop
endfacet
facet normal 0.47675264443461723 5.8952625829588084e-05 0.8790374921180479
  outer loop
    vertex -2.9655241516280424 -307.12140742920917 142.1388293768693
    vertex -3.514783055377686 -319.0849099177542 142.4375264370994
    vertex -2.9640434596070167 -319.08484173533395 142.13882863973316
  endloop
endfacet
facet normal 0.23299604943519842 2.8777567884782414e-05 0.972477681039232
  outer loop
    vertex -4.124065332590076 -319.0849853364837 142.58350445646136
    vertex -3.5162637473986664 -307.1214756116294 142.4375271742356
    vertex -4.1255460246110705 -307.12155103035883 142.58350519359743
  endloop
endfacet
facet normal 0.23299604943519842 2.8777567884782414e-05 0.972477681039232
  outer loop
    vertex -3.5162637473986664 -307.1214756116294 142.4375271742356
    vertex -4.124065332590076 -319.0849853364837 142.58350445646136
    vertex -3.514783055377686 -319.0849099177542 142.4375264370994
  endloop
endfacet
facet normal -0.026638841289054027 -3.3586337411623358e-06 0.9996451230929385
  outer loop
    vertex -4.750368710938725 -319.08506285186 142.5668145370395
    vertex -4.1255460246110705 -307.12155103035883 142.58350519359743
    vertex -4.751849402959768 -307.12162854573523 142.56681527417535
  endloop
endfacet
facet normal -0.026638841289054027 -3.3586337411623358e-06 0.9996451230929385
  outer loop
    vertex -4.1255460246110705 -307.12155103035883 142.58350519359743
    vertex -4.750368710938725 -319.08506285186 142.5668145370395
    vertex -4.124065332590076 -319.0849853364837 142.58350445646136
  endloop
endfacet
facet normal -0.28445833900210626 -3.526595004095522e-05 0.958688401999563
  outer loop
    vertex -5.351011650204546 -319.08513718133867 142.38859406926088
    vertex -4.751849402959768 -307.12162854573523 142.56681527417535
    vertex -5.352492342225571 -307.12170287521377 142.38859480639692
  endloop
endfacet
facet normal -0.28445833900210626 -3.526595004095522e-05 0.958688401999563
  outer loop
    vertex -4.751849402959768 -307.12162854573523 142.56681527417535
    vertex -5.351011650204546 -319.08513718133867 142.38859406926088
    vertex -4.750368710938725 -319.08506285186 142.5668145370395
  endloop
endfacet
facet normal 0.8093044589314745 0.00010012991573346047 0.5873893791409862
  outer loop
    vertex -16.648784708959326 -319.084920431611 141.34068479117553
    vertex -17.018279720939923 -307.1234099323233 141.84773559305768
    vertex -17.016799261383646 -319.0849660113299 141.84773485603728
  endloop
endfacet
facet normal 0.8093044589314745 0.00010012991573346047 0.5873893791409862
  outer loop
    vertex -17.018279720939923 -307.1234099323233 141.84773559305768
    vertex -16.648784708959326 -319.084920431611 141.34068479117553
    vertex -16.65026516851562 -307.1233643526041 141.34068552819588
  endloop
endfacet
facet normal 0.6297005211662638 7.788899726765863e-05 0.7768379802611609
  outer loop
    vertex -17.50350823462277 -319.0850262747034 142.2422584331361
    vertex -17.018279720939923 -307.1234099323233 141.84773559305768
    vertex -17.504988694179048 -307.12347019569694 142.24225917015642
  endloop
endfacet
facet normal 0.6297005211662638 7.788899726765863e-05 0.7768379802611609
  outer loop
    vertex -17.018279720939923 -307.1234099323233 141.84773559305768
    vertex -17.50350823462277 -319.0850262747034 142.2422584331361
    vertex -17.016799261383646 -319.0849660113299 141.84773485603728
  endloop
endfacet
facet normal 0.40718353351297937 5.0340072361127096e-05 0.9133463568120046
  outer loop
    vertex -18.075743216475054 -319.08509711488244 142.4973693926737
    vertex -17.504988694179048 -307.12347019569694 142.24225917015642
    vertex -18.077223676031323 -307.1235410358755 142.49737012969393
  endloop
endfacet
facet normal 0.40718353351297937 5.0340072361127096e-05 0.9133463568120046
  outer loop
    vertex -17.504988694179048 -307.12347019569694 142.24225917015642
    vertex -18.075743216475054 -319.08509711488244 142.4973693926737
    vertex -17.50350823462277 -319.0850262747034 142.2422584331361
  endloop
endfacet
facet normal 0.1569176609528146 1.9360554707099445e-05 0.9876116885225015
  outer loop
    vertex -18.694507338590316 -319.085173704225 142.59568234434792
    vertex -18.077223676031323 -307.1235410358755 142.49737012969393
    vertex -18.695987798146586 -307.1236176252181 142.59568308136826
  endloop
endfacet
facet normal 0.1569176609528146 1.9360554707099445e-05 0.9876116885225015
  outer loop
    vertex -18.077223676031323 -307.1235410358755 142.49737012969393
    vertex -18.694507338590316 -319.085173704225 142.59568234434792
    vertex -18.075743216475054 -319.08509711488244 142.4973693926737
  endloop
endfacet
facet normal -0.10404189088189396 -1.2938352761777326e-05 0.9945729157655154
  outer loop
    vertex -19.31763284860245 -319.0852508232944 142.53049742297256
    vertex -18.695987798146586 -307.1236176252181 142.59568308136826
    vertex -19.31911330815871 -307.12369474428726 142.530498159993
  endloop
endfacet
facet normal -0.10404189088189396 -1.2938352761777326e-05 0.9945729157655154
  outer loop
    vertex -18.695987798146586 -307.1236176252181 142.59568308136826
    vertex -19.31763284860245 -319.0852508232944 142.53049742297256
    vertex -18.694507338590316 -319.085173704225 142.59568234434792
  endloop
endfacet
facet normal -0.3579111597905991 -4.4355532859128944e-05 0.9337556424086201
  outer loop
    vertex -19.902654772767693 -319.0853232165531 142.30625687321614
    vertex -19.31911330815871 -307.12369474428726 142.530498159993
    vertex -19.904135232323988 -307.1237671375466 142.30625761023637
  endloop
endfacet
facet normal -0.3579111597905991 -4.4355532859128944e-05 0.9337556424086201
  outer loop
    vertex -19.31911330815871 -307.12369474428726 142.530498159993
    vertex -19.902654772767693 -319.0853232165531 142.30625687321614
    vertex -19.31763284860245 -319.0852508232944 142.53049742297256
  endloop
endfacet
facet normal -0.5873893746357907 -7.27499566911129e-05 0.8093044651257144
  outer loop
    vertex -20.409704833748698 -319.08538595052124 141.93824231796927
    vertex -19.904135232323988 -307.1237671375466 142.30625761023637
    vertex -20.41118529330497 -307.12382987151426 141.9382430549895
  endloop
endfacet
facet normal -0.5873893746357907 -7.27499566911129e-05 0.8093044651257144
  outer loop
    vertex -19.904135232323988 -307.1237671375466 142.30625761023637
    vertex -20.409704833748698 -319.08538595052124 141.93824231796927
    vertex -19.902654772767693 -319.0853232165531 142.30625687321614
  endloop
endfacet
facet normal -0.7768379743064008 -9.618659121656254e-05 0.6297005259833183
  outer loop
    vertex -20.409704833748698 -319.08538595052124 141.93824231796927
    vertex -20.805708867385647 -307.12387867097436 141.45153407801968
    vertex -20.804228407829363 -319.0854347499814 141.45153334099908
  endloop
endfacet
facet normal -0.7768379743064008 -9.618659121656254e-05 0.6297005259833183
  outer loop
    vertex -20.805708867385647 -307.12387867097436 141.45153407801968
    vertex -20.409704833748698 -319.08538595052124 141.93824231796927
    vertex -20.41118529330497 -307.12382987151426 141.9382430549895
  endloop
endfacet
facet normal -0.9133463498133758 -0.00011306826849833387 0.40718353662463974
  outer loop
    vertex -20.804228407829363 -319.0854347499814 141.45153334099908
    vertex -21.060819824973503 -307.1239102103248 140.87929909178254
    vertex -21.05933936541722 -319.0854662893318 140.87929835476208
  endloop
endfacet
facet normal -0.9133463498133758 -0.00011306826849833387 0.40718353662463974
  outer loop
    vertex -21.060819824973503 -307.1239102103248 140.87929909178254
    vertex -20.804228407829363 -319.0854347499814 141.45153334099908
    vertex -20.805708867385647 -307.12387867097436 141.45153407801968
  endloop
endfacet
facet normal -0.9876116809568768 -0.0001222445301301622 0.1569176621474051
  outer loop
    vertex -21.05933936541722 -319.0854662893318 140.87929835476208
    vertex -21.15913277589965 -307.12392234021013 140.2605349649273
    vertex -21.15765231634337 -319.08547841921717 140.2605342279067
  endloop
endfacet
facet normal -0.9876116809568768 -0.0001222445301301622 0.1569176621474051
  outer loop
    vertex -21.15913277589965 -307.12392234021013 140.2605349649273
    vertex -21.05933936541722 -319.0854662893318 140.87929835476208
    vertex -21.060819824973503 -307.1239102103248 140.87929909178254
  endloop
endfacet
facet normal -0.9945729081485966 -0.00012309002905244991 -0.10404189168641614
  outer loop
    vertex -21.15913277589965 -307.12392234021013 140.2605349649273
    vertex -21.09246739547204 -319.0854703130062 139.63740871312245
    vertex -21.15765231634337 -319.08547841921717 140.2605342279067
  endloop
endfacet
facet normal -0.9945729081485966 -0.00012309002905244991 -0.10404189168641614
  outer loop
    vertex -21.09246739547204 -319.0854703130062 139.63740871312245
    vertex -21.15913277589965 -307.12392234021013 140.2605349649273
    vertex -21.09394785502832 -307.1239142339996 139.6374094501429
  endloop
endfacet
facet normal -0.9337556352594547 -0.00011554714591436033 -0.3579111625390711
  outer loop
    vertex -21.09394785502832 -307.1239142339996 139.6374094501429
    vertex -20.86822684743748 -319.0854425231243 139.05238678447807
    vertex -21.09246739547204 -319.0854703130062 139.63740871312245
  endloop
endfacet
facet normal -0.9337556352594547 -0.00011554714591436033 -0.3579111625390711
  outer loop
    vertex -20.86822684743748 -319.0854425231243 139.05238678447807
    vertex -21.09394785502832 -307.1239142339996 139.6374094501429
    vertex -20.869707306993742 -307.1238864441174 139.05238752149842
  endloop
endfacet
facet normal -0.809304458931504 -0.0001001299157345321 -0.5873893791409456
  outer loop
    vertex -20.869707306993742 -307.1238864441174 139.05238752149842
    vertex -20.500212295013185 -319.085396943405 138.54533671961627
    vertex -20.86822684743748 -319.0854425231243 139.05238678447807
  endloop
endfacet
facet normal -0.809304458931504 -0.0001001299157345321 -0.5873893791409456
  outer loop
    vertex -20.500212295013185 -319.085396943405 138.54533671961627
    vertex -20.869707306993742 -307.1238864441174 139.05238752149842
    vertex -20.50169275456946 -307.12384086439783 138.5453374566366
  endloop
endfacet
facet normal -0.6297005211662301 -7.788899726801269e-05 -0.7768379802611881
  outer loop
    vertex -20.014983781330333 -307.12378060102435 138.15081387953785
    vertex -20.500212295013185 -319.085396943405 138.54533671961627
    vertex -20.50169275456946 -307.12384086439783 138.5453374566366
  endloop
endfacet
facet normal -0.6297005211662301 -7.788899726801269e-05 -0.7768379802611881
  outer loop
    vertex -20.500212295013185 -319.085396943405 138.54533671961627
    vertex -20.014983781330333 -307.12378060102435 138.15081387953785
    vertex -20.013503321774067 -319.0853366800315 138.1508131425175
  endloop
endfacet
facet normal -0.40718353351289666 -5.034007235465427e-05 -0.9133463568120415
  outer loop
    vertex -19.442748799478036 -307.12370976084594 137.89570292000036
    vertex -20.013503321774067 -319.0853366800315 138.1508131425175
    vertex -20.014983781330333 -307.12378060102435 138.15081387953785
  endloop
endfacet
facet normal -0.40718353351289666 -5.034007235465427e-05 -0.9133463568120415
  outer loop
    vertex -20.013503321774067 -319.0853366800315 138.1508131425175
    vertex -19.442748799478036 -307.12370976084594 137.89570292000036
    vertex -19.441268339921777 -319.0852658398528 137.89570218298002
  endloop
endfacet
facet normal -0.15691766095288726 -1.9360554707089945e-05 -0.9876116885224898
  outer loop
    vertex -18.82398467736279 -307.12363317150334 137.79738996832597
    vertex -19.441268339921777 -319.0852658398528 137.89570218298002
    vertex -19.442748799478036 -307.12370976084594 137.89570292000036
  endloop
endfacet
facet normal -0.15691766095288726 -1.9360554707089945e-05 -0.9876116885224898
  outer loop
    vertex -19.441268339921777 -319.0852658398528 137.89570218298002
    vertex -18.82398467736279 -307.12363317150334 137.79738996832597
    vertex -18.822504217806515 -319.0851892505102 137.79738923130574
  endloop
endfacet
facet normal 0.1040418908819284 1.293835275621614e-05 -0.9945729157655118
  outer loop
    vertex -18.20085916735065 -307.12355605243397 137.86257488970142
    vertex -18.822504217806515 -319.0851892505102 137.79738923130574
    vertex -18.82398467736279 -307.12363317150334 137.79738996832597
  endloop
endfacet
facet normal 0.1040418908819284 1.293835275621614e-05 -0.9945729157655118
  outer loop
    vertex -18.822504217806515 -319.0851892505102 137.79738923130574
    vertex -18.20085916735065 -307.12355605243397 137.86257488970142
    vertex -18.199378707794384 -319.0851121314405 137.86257415268096
  endloop
endfacet
facet normal 0.35791115979053484 4.4355532860629507e-05 -0.9337556424086447
  outer loop
    vertex -17.61583724318539 -307.1234836591746 138.08681543945784
    vertex -18.199378707794384 -319.0851121314405 137.86257415268096
    vertex -18.20085916735065 -307.12355605243397 137.86257488970142
  endloop
endfacet
facet normal 0.35791115979053484 4.4355532860629507e-05 -0.9337556424086447
  outer loop
    vertex -18.199378707794384 -319.0851121314405 137.86257415268096
    vertex -17.61583724318539 -307.1234836591746 138.08681543945784
    vertex -17.61435678362912 -319.0850397381818 138.08681470243752
  endloop
endfacet
facet normal 0.5873893746358014 7.274995669541231e-05 -0.8093044651257065
  outer loop
    vertex -17.108787182204416 -307.1234209252071 138.4548299947047
    vertex -17.61435678362912 -319.0850397381818 138.08681470243752
    vertex -17.61583724318539 -307.1234836591746 138.08681543945784
  endloop
endfacet
facet normal 0.5873893746358014 7.274995669541231e-05 -0.8093044651257065
  outer loop
    vertex -17.61435678362912 -319.0850397381818 138.08681470243752
    vertex -17.108787182204416 -307.1234209252071 138.4548299947047
    vertex -17.107306722648133 -319.08497700421395 138.45482925768442
  endloop
endfacet
facet normal 0.7768379743064138 9.618659121738666e-05 -0.6297005259833021
  outer loop
    vertex -17.108787182204416 -307.1234209252071 138.4548299947047
    vertex -16.712783148567453 -319.0849282047534 138.9415382346543
    vertex -17.107306722648133 -319.08497700421395 138.45482925768442
  endloop
endfacet
facet normal 0.7768379743064138 9.618659121738666e-05 -0.6297005259833021
  outer loop
    vertex -16.712783148567453 -319.0849282047534 138.9415382346543
    vertex -17.108787182204416 -307.1234209252071 138.4548299947047
    vertex -16.714263608123716 -307.12337212574664 138.94153897167487
  endloop
endfacet
facet normal 0.9133463498134002 0.00011306826849847424 -0.4071835366245848
  outer loop
    vertex -16.714263608123716 -307.12337212574664 138.94153897167487
    vertex -16.457672190979615 -319.08489666540345 139.51377322089144
    vertex -16.712783148567453 -319.0849282047534 138.9415382346543
  endloop
endfacet
facet normal 0.9133463498134002 0.00011306826849847424 -0.4071835366245848
  outer loop
    vertex -16.457672190979615 -319.08489666540345 139.51377322089144
    vertex -16.714263608123716 -307.12337212574664 138.94153897167487
    vertex -16.459152650535884 -307.1233405863966 139.51377395791198
  endloop
endfacet
facet normal 0.9876116809568752 0.00012224453013000292 -0.15691766214741415
  outer loop
    vertex -16.459152650535884 -307.1233405863966 139.51377395791198
    vertex -16.359359240053468 -319.0848845355178 140.13253734774668
    vertex -16.457672190979615 -319.08489666540345 139.51377322089144
  endloop
endfacet
facet normal 0.9876116809568752 0.00012224453013000292 -0.15691766214741415
  outer loop
    vertex -16.359359240053468 -319.0848845355178 140.13253734774668
    vertex -16.459152650535884 -307.1233405863966 139.51377395791198
    vertex -16.360839699609734 -307.1233284565108 140.1325380847673
  endloop
endfacet
facet normal 0.9945729081485999 0.00012309002905107924 0.10404189168638496
  outer loop
    vertex -16.359359240053468 -319.0848845355178 140.13253734774668
    vertex -16.426024620481044 -307.1233365627215 140.7556635995515
    vertex -16.424544160924782 -319.08489264172863 140.75566286253107
  endloop
endfacet
facet normal 0.9945729081485999 0.00012309002905107924 0.10404189168638496
  outer loop
    vertex -16.426024620481044 -307.1233365627215 140.7556635995515
    vertex -16.359359240053468 -319.0848845355178 140.13253734774668
    vertex -16.360839699609734 -307.1233284565108 140.1325380847673
  endloop
endfacet
facet normal 0.9337556352594485 0.00011554714591434193 0.3579111625390874
  outer loop
    vertex -16.424544160924782 -319.08489264172863 140.75566286253107
    vertex -16.65026516851562 -307.1233643526041 141.34068552819588
    vertex -16.648784708959326 -319.084920431611 141.34068479117553
  endloop
endfacet
facet normal 0.9337556352594485 0.00011554714591434193 0.3579111625390874
  outer loop
    vertex -16.65026516851562 -307.1233643526041 141.34068552819588
    vertex -16.424544160924782 -319.08489264172863 140.75566286253107
    vertex -16.426024620481044 -307.1233365627215 140.7556635995515
  endloop
endfacet
facet normal 0.6995005988736497 8.653185598461457e-05 0.714632006481408
  outer loop
    vertex -10.125574599322167 -319.0846633224601 129.6586135656301
    vertex -9.679319805197915 -307.12242820894227 129.22035918112766
    vertex -10.127055136059338 -307.12248365131506 129.65861430268885
  endloop
endfacet
facet normal 0.6995005988736497 8.653185598461457e-05 0.714632006481408
  outer loop
    vertex -9.679319805197915 -307.12242820894227 129.22035918112766
    vertex -10.125574599322167 -319.0846633224601 129.6586135656301
    vertex -9.67783926846075 -319.08460788008733 129.22035844406903
  endloop
endfacet
facet normal 0.49070532185739857 6.067999795306113e-05 0.871325589787632
  outer loop
    vertex -10.671482489949119 -319.08473090740785 129.96605307436866
    vertex -10.127055136059338 -307.12248365131506 129.65861430268885
    vertex -10.67296302668629 -307.1225512362628 129.96605381142749
  endloop
endfacet
facet normal 0.49070532185739857 6.067999795306113e-05 0.871325589787632
  outer loop
    vertex -10.127055136059338 -307.12248365131506 129.65861430268885
    vertex -10.671482489949119 -319.08473090740785 129.96605307436866
    vertex -10.125574599322167 -319.0846633224601 129.6586135656301
  endloop
endfacet
facet normal 0.24846928808554566 3.069289834866288e-05 0.9686397740833319
  outer loop
    vertex -11.27836021975081 -319.08480602912783 130.12172547583214
    vertex -10.67296302668629 -307.1225512362628 129.96605381142749
    vertex -11.279840756487985 -307.1226263579828 130.12172621289076
  endloop
endfacet
facet normal 0.24846928808554566 3.069289834866288e-05 0.9686397740833319
  outer loop
    vertex -10.67296302668629 -307.1225512362628 129.96605381142749
    vertex -11.27836021975081 -319.08480602912783 130.12172547583214
    vertex -10.671482489949119 -319.08473090740785 129.96605307436866
  endloop
endfacet
facet normal -0.010699517054265768 -1.3858715505327637e-06 0.9999427585281493
  outer loop
    vertex -11.904850074354139 -319.08488356819953 130.11502195312153
    vertex -11.279840756487985 -307.1226263579828 130.12172621289076
    vertex -11.906330611091313 -307.1227038970544 130.11502269018013
  endloop
endfacet
facet normal -0.010699517054265768 -1.3858715505327637e-06 0.9999427585281493
  outer loop
    vertex -11.279840756487985 -307.1226263579828 130.12172621289076
    vertex -11.904850074354139 -319.08488356819953 130.11502195312153
    vertex -11.27836021975081 -319.08480602912783 130.12172547583214
  endloop
endfacet
facet normal -0.2691391677886811 -3.3370196606480595e-05 0.9631012964628624
  outer loop
    vertex -12.508257805491347 -319.0849582404624 129.94639934023144
    vertex -11.906330611091313 -307.1227038970544 130.11502269018013
    vertex -12.509738342228507 -307.12277856931763 129.9464000772901
  endloop
endfacet
facet normal -0.2691391677886811 -3.3370196606480595e-05 0.9631012964628624
  outer loop
    vertex -11.906330611091313 -307.1227038970544 130.11502269018013
    vertex -12.508257805491347 -319.0849582404624 129.94639934023144
    vertex -11.904850074354139 -319.08488356819953 130.11502195312153
  endloop
endfacet
facet normal -0.5092374290119099 -6.308039790929846e-05 0.8606260726437489
  outer loop
    vertex -13.047462173463774 -319.0850249571261 129.62734898956836
    vertex -12.509738342228507 -307.12277856931763 129.9464000772901
    vertex -13.04894271020095 -307.1228452859813 129.627349726627
  endloop
endfacet
facet normal -0.5092374290119099 -6.308039790929846e-05 0.8606260726437489
  outer loop
    vertex -12.509738342228507 -307.12277856931763 129.9464000772901
    vertex -13.047462173463774 -319.0850249571261 129.62734898956836
    vertex -12.508257805491347 -319.0849582404624 129.94639934023144
  endloop
endfacet
facet normal -0.7146320010025754 -8.849177433711867e-05 0.6995006042258012
  outer loop
    vertex -13.047462173463774 -319.0850249571261 129.62734898956836
    vertex -13.487197828408704 -307.12289950041463 129.1796143923329
    vertex -13.48571729167154 -319.0850791715597 129.17961365527424
  endloop
endfacet
facet normal -0.7146320010025754 -8.849177433711867e-05 0.6995006042258012
  outer loop
    vertex -13.487197828408704 -307.12289950041463 129.1796143923329
    vertex -13.047462173463774 -319.0850249571261 129.62734898956836
    vertex -13.04894271020095 -307.1228452859813 129.627349726627
  endloop
endfacet
facet normal -0.8713255831101393 -0.00010787258258143427 0.49070532560925145
  outer loop
    vertex -13.48571729167154 -319.0850791715597 129.17961365527424
    vertex -13.794637334796732 -307.12293751799444 128.6337064975223
    vertex -13.793156798059572 -319.0851171891394 128.6337057604637
  endloop
endfacet
facet normal -0.8713255831101393 -0.00010787258258143427 0.49070532560925145
  outer loop
    vertex -13.794637334796732 -307.12293751799444 128.6337064975223
    vertex -13.48571729167154 -319.0850791715597 129.17961365527424
    vertex -13.487197828408704 -307.12289950041463 129.1796143923329
  endloop
endfacet
facet normal -0.9686397666623316 -0.00011990205259340018 0.24846928998136028
  outer loop
    vertex -13.793156798059572 -319.0851171891394 128.6337057604637
    vertex -13.950309735072484 -307.1229567478846 128.02682876307122
    vertex -13.94882919833531 -319.08513641902977 128.02682802601254
  endloop
endfacet
facet normal -0.9686397666623316 -0.00011990205259340018 0.24846928998136028
  outer loop
    vertex -13.950309735072484 -307.1229567478846 128.02682876307122
    vertex -13.793156798059572 -319.0851171891394 128.6337057604637
    vertex -13.794637334796732 -307.12293751799444 128.6337064975223
  endloop
endfacet
facet normal -0.999942750869395 -0.00012376039586870744 -0.010699517143834911
  outer loop
    vertex -13.950309735072484 -307.1229567478846 128.02682876307122
    vertex -13.942125675680828 -319.08513555074575 127.40033816661109
    vertex -13.94882919833531 -319.08513641902977 128.02682802601254
  endloop
endfacet
facet normal -0.999942750869395 -0.00012376039586870744 -0.010699517143834911
  outer loop
    vertex -13.942125675680828 -319.08513555074575 127.40033816661109
    vertex -13.950309735072484 -307.1229567478846 128.02682876307122
    vertex -13.943606212417983 -307.1229558796004 127.40033890366962
  endloop
endfacet
facet normal -0.9631012890882662 -0.00011918467269006918 -0.2691391698574057
  outer loop
    vertex -13.943606212417983 -307.1229558796004 127.40033890366962
    vertex -13.773503064086881 -319.08511464345906 126.79693043085328
    vertex -13.942125675680828 -319.08513555074575 127.40033816661109
  endloop
endfacet
facet normal -0.9631012890882662 -0.00011918467269006918 -0.2691391698574057
  outer loop
    vertex -13.773503064086881 -319.08511464345906 126.79693043085328
    vertex -13.943606212417983 -307.1229558796004 127.40033890366962
    vertex -13.774983600824037 -307.12293497231406 126.7969311679119
  endloop
endfacet
facet normal -0.8606260660558245 -0.00010648671102953742 -0.5092374329189243
  outer loop
    vertex -13.774983600824037 -307.12293497231406 126.7969311679119
    vertex -13.454452715871573 -319.0850751219669 126.25772605875343
    vertex -13.773503064086881 -319.08511464345906 126.79693043085328
  endloop
endfacet
facet normal -0.8606260660558245 -0.00010648671102953742 -0.5092374329189243
  outer loop
    vertex -13.454452715871573 -319.0850751219669 126.25772605875343
    vertex -13.774983600824037 -307.12293497231406 126.7969311679119
    vertex -13.455933252608734 -307.12289545082183 126.25772679581198
  endloop
endfacet
facet normal -0.6995005988736079 -8.653185598734428e-05 -0.7146320064814491
  outer loop
    vertex -13.008197921747318 -307.1228400084494 125.819471674251
    vertex -13.454452715871573 -319.0850751219669 126.25772605875343
    vertex -13.455933252608734 -307.12289545082183 126.25772679581198
  endloop
endfacet
facet normal -0.6995005988736079 -8.653185598734428e-05 -0.7146320064814491
  outer loop
    vertex -13.454452715871573 -319.0850751219669 126.25772605875343
    vertex -13.008197921747318 -307.1228400084494 125.819471674251
    vertex -13.006717385010141 -319.08501967959415 125.81947093719228
  endloop
endfacet
facet normal -0.4907053218572109 -6.067999796425421e-05 -0.8713255897877377
  outer loop
    vertex -12.462290031120357 -307.1227724235016 125.51203216551245
    vertex -13.006717385010141 -319.08501967959415 125.81947093719228
    vertex -13.008197921747318 -307.1228400084494 125.819471674251
  endloop
endfacet
facet normal -0.4907053218572109 -6.067999796425421e-05 -0.8713255897877377
  outer loop
    vertex -13.006717385010141 -319.08501967959415 125.81947093719228
    vertex -12.462290031120357 -307.1227724235016 125.51203216551245
    vertex -12.460809494383206 -319.0849520946464 125.51203142845398
  endloop
endfacet
facet normal -0.24846928808604948 -3.0692898361263584e-05 -0.9686397740832026
  outer loop
    vertex -11.855412301318665 -307.1226973017813 125.35635976404882
    vertex -12.460809494383206 -319.0849520946464 125.51203142845398
    vertex -12.462290031120357 -307.1227724235016 125.51203216551245
  endloop
endfacet
facet normal -0.24846928808604948 -3.0692898361263584e-05 -0.9686397740832026
  outer loop
    vertex -12.460809494383206 -319.0849520946464 125.51203142845398
    vertex -11.855412301318665 -307.1226973017813 125.35635976404882
    vertex -11.853931764581494 -319.08487697292645 125.3563590269902
  endloop
endfacet
facet normal 0.010699517054265771 1.3858715505301764e-06 -0.9999427585281493
  outer loop
    vertex -11.228922446715337 -307.12261976270975 125.36306328675944
    vertex -11.853931764581494 -319.08487697292645 125.3563590269902
    vertex -11.855412301318665 -307.1226973017813 125.35635976404882
  endloop
endfacet
facet normal 0.010699517054265771 1.3858715505301764e-06 -0.9999427585281493
  outer loop
    vertex -11.853931764581494 -319.08487697292645 125.3563590269902
    vertex -11.228922446715337 -307.12261976270975 125.36306328675944
    vertex -11.227441909978166 -319.08479943385487 125.36306254970083
  endloop
endfacet
facet normal 0.26913916778887786 3.337019660169387e-05 -0.9631012964628072
  outer loop
    vertex -10.625514715578152 -307.1225450904467 125.53168589964955
    vertex -11.227441909978166 -319.08479943385487 125.36306254970083
    vertex -11.228922446715337 -307.12261976270975 125.36306328675944
  endloop
endfacet
facet normal 0.26913916778887786 3.337019660169387e-05 -0.9631012964628072
  outer loop
    vertex -11.227441909978166 -319.08479943385487 125.36306254970083
    vertex -10.625514715578152 -307.1225450904467 125.53168589964955
    vertex -10.624034178841013 -319.0847247615918 125.531685162591
  endloop
endfacet
facet normal 0.5092374290119416 6.308039790383157e-05 -0.8606260726437303
  outer loop
    vertex -10.086310347605703 -307.1224783737831 125.85073625031272
    vertex -10.624034178841013 -319.0847247615918 125.531685162591
    vertex -10.625514715578152 -307.1225450904467 125.53168589964955
  endloop
endfacet
facet normal 0.5092374290119416 6.308039790383157e-05 -0.8606260726437303
  outer loop
    vertex -10.624034178841013 -319.0847247615918 125.531685162591
    vertex -10.086310347605703 -307.1224783737831 125.85073625031272
    vertex -10.084829810868532 -319.0846580449281 125.85073551325411
  endloop
endfacet
facet normal 0.7146320010025845 8.849177433588526e-05 -0.6995006042257919
  outer loop
    vertex -10.086310347605703 -307.1224783737831 125.85073625031272
    vertex -9.64657469266078 -319.0846038304947 126.2984708475482
    vertex -10.084829810868532 -319.0846580449281 125.85073551325411
  endloop
endfacet
facet normal 0.7146320010025845 8.849177433588526e-05 -0.6995006042257919
  outer loop
    vertex -9.64657469266078 -319.0846038304947 126.2984708475482
    vertex -10.086310347605703 -307.1224783737831 125.85073625031272
    vertex -9.648055229397952 -307.1224241593494 126.29847158460683
  endloop
endfacet
facet normal 0.8713255831100882 0.00010787258258152988 -0.4907053256093423
  outer loop
    vertex -9.648055229397952 -307.1224241593494 126.29847158460683
    vertex -9.339135186272776 -319.08456581291483 126.84437874235866
    vertex -9.64657469266078 -319.0846038304947 126.2984708475482
  endloop
endfacet
facet normal 0.8713255831100882 0.00010787258258152988 -0.4907053256093423
  outer loop
    vertex -9.339135186272776 -319.08456581291483 126.84437874235866
    vertex -9.648055229397952 -307.1224241593494 126.29847158460683
    vertex -9.340615723009941 -307.12238614177005 126.84437947941727
  endloop
endfacet
facet normal 0.9686397666623291 0.00011990205259374353 -0.24846928998137022
  outer loop
    vertex -9.340615723009941 -307.12238614177005 126.84437947941727
    vertex -9.183462785997001 -319.08454658302463 127.45125647680976
    vertex -9.339135186272776 -319.08456581291483 126.84437874235866
  endloop
endfacet
facet normal 0.9686397666623291 0.00011990205259374353 -0.24846928998137022
  outer loop
    vertex -9.183462785997001 -319.08454658302463 127.45125647680976
    vertex -9.340615723009941 -307.12238614177005 126.84437947941727
    vertex -9.184943322734178 -307.12236691187957 127.45125721386849
  endloop
endfacet
facet normal 0.9999427508693948 0.00012376039586782156 0.010699517143856543
  outer loop
    vertex -9.183462785997001 -319.08454658302463 127.45125647680976
    vertex -9.191646845388666 -307.12236778016353 128.07774707327033
    vertex -9.190166308651527 -319.0845474513087 128.07774633621148
  endloop
endfacet
facet normal 0.9999427508693948 0.00012376039586782156 0.010699517143856543
  outer loop
    vertex -9.191646845388666 -307.12236778016353 128.07774707327033
    vertex -9.183462785997001 -319.08454658302463 127.45125647680976
    vertex -9.184943322734178 -307.12236691187957 127.45125721386849
  endloop
endfacet
facet normal 0.9631012890882288 0.00011918467268588802 0.26913916985753955
  outer loop
    vertex -9.190166308651527 -319.0845474513087 128.07774633621148
    vertex -9.360269456982628 -307.1223886874504 128.6811548090277
    vertex -9.358788920245463 -319.08456835859533 128.68115407196905
  endloop
endfacet
facet normal 0.9631012890882288 0.00011918467268588802 0.26913916985753955
  outer loop
    vertex -9.360269456982628 -307.1223886874504 128.6811548090277
    vertex -9.190166308651527 -319.0845474513087 128.07774633621148
    vertex -9.191646845388666 -307.12236778016353 128.07774707327033
  endloop
endfacet
facet normal 0.8606260660558934 0.00010648671102706947 0.5092374329188081
  outer loop
    vertex -9.358788920245463 -319.08456835859533 128.68115407196905
    vertex -9.679319805197915 -307.12242820894227 129.22035918112766
    vertex -9.67783926846075 -319.08460788008733 129.22035844406903
  endloop
endfacet
facet normal 0.8606260660558934 0.00010648671102706947 0.5092374329188081
  outer loop
    vertex -9.679319805197915 -307.12242820894227 129.22035918112766
    vertex -9.358788920245463 -319.08456835859533 128.68115407196905
    vertex -9.360269456982628 -307.1223886874504 128.6811548090277
  endloop
endfacet
facet normal 0.0001237681398439665 -0.9999999923407218 -6.161577272779091e-08
  outer loop
    vertex -3.9972928095072873 -319.08496935296256 137.82625795811958
    vertex -5.232878465068346 -319.0851222870684 137.9555460580595
    vertex -4.623596187855936 -319.0850468683389 137.80956803869768
  endloop
endfacet
facet normal 0.0001237681398439665 -0.9999999923407218 -6.161577272779091e-08
  outer loop
    vertex -5.232878465068346 -319.0851222870684 137.9555460580595
    vertex -3.9972928095072873 -319.08496935296256 137.82625795811958
    vertex -3.396649870241486 -319.084895023484 138.004478425898
  endloop
endfacet
facet normal 0.0001237681398439665 -0.9999999923407218 -6.161577272779091e-08
  outer loop
    vertex -5.232878465068346 -319.0851222870684 137.9555460580595
    vertex -3.396649870241486 -319.084895023484 138.004478425898
    vertex -5.783618060839013 -319.0851904694887 138.25424385542587
  endloop
endfacet
facet normal 0.0001237681398439665 -0.9999999923407218 -6.161577272779091e-08
  outer loop
    vertex -5.783618060839013 -319.0851904694887 138.25424385542587
    vertex -3.396649870241486 -319.084895023484 138.004478425898
    vertex -2.862600193760152 -319.0848289453342 138.33208401167752
  endloop
endfacet
facet normal 0.0001237681398439665 -0.9999999923407218 -6.161577272779091e-08
  outer loop
    vertex -5.783618060839013 -319.0851904694887 138.25424385542587
    vertex -2.862600193760152 -319.0848289453342 138.33208401167752
    vertex -6.2382829818563135 -319.0852467690808 138.6853056695277
  endloop
endfacet
facet normal 0.0001237681398439665 -0.9999999923407218 -6.161577272779091e-08
  outer loop
    vertex -6.2382829818563135 -319.0852467690808 138.6853056695277
    vertex -2.862600193760152 -319.0848289453342 138.33208401167752
    vertex -2.4315383829566297 -319.0847756216298 138.78674893618052
  endloop
endfacet
facet normal 0.0001237681398439665 -0.9999999923407218 -6.161577272779091e-08
  outer loop
    vertex -6.2382829818563135 -319.0852467690808 138.6853056695277
    vertex -2.4315383829566297 -319.0847756216298 138.78674893618052
    vertex -6.565888565122335 -319.08528734912056 139.21935535009675
  endloop
endfacet
facet normal 0.0001237681398439665 -0.9999999923407218 -6.161577272779091e-08
  outer loop
    vertex -6.565888565122335 -319.08528734912056 139.21935535009675
    vertex -2.4315383829566297 -319.0847756216298 138.78674893618052
    vertex -2.132840587873949 -319.0847386862936 139.3374885361715
  endloop
endfacet
facet normal 0.0001237681398439665 -0.9999999923407218 -6.161577272779091e-08
  outer loop
    vertex -6.565888565122335 -319.08528734912056 139.21935535009675
    vertex -2.132840587873949 -319.0847386862936 139.3374885361715
    vertex -6.744109031531245 -319.0853094441455 139.81999829396162
  endloop
endfacet
facet normal 0.0001237681398439665 -0.9999999923407218 -6.161577272779091e-08
  outer loop
    vertex -6.744109031531245 -319.0853094441455 139.81999829396162
    vertex -2.132840587873949 -319.0847386862936 139.3374885361715
    vertex -1.9868625696255025 -319.08472065640666 139.94677081805165
  endloop
endfacet
facet normal 0.0001237681398439665 -0.9999999923407218 -6.161577272779091e-08
  outer loop
    vertex -6.744109031531245 -319.0853094441455 139.81999829396162
    vertex -1.9868625696255025 -319.08472065640666 139.94677081805165
    vertex -6.760798950820552 -319.0853115484159 140.44630167710724
  endloop
endfacet
facet normal 0.0001237681398439665 -0.9999999923407218 -6.161577272779091e-08
  outer loop
    vertex -6.760798950820552 -319.0853115484159 140.44630167710724
    vertex -1.9868625696255025 -319.08472065640666 139.94677081805165
    vertex -2.003552488914787 -319.0847227606771 140.57307420119727
  endloop
endfacet
facet normal 0.0001237681398439665 -0.9999999923407218 -6.161577272779091e-08
  outer loop
    vertex -6.760798950820552 -319.0853115484159 140.44630167710724
    vertex -2.003552488914787 -319.0847227606771 140.57307420119727
    vertex -6.6148209325720835 -319.0852935185291 141.05558395898763
  endloop
endfacet
facet normal 0.0001237681398439665 -0.9999999923407218 -6.161577272779091e-08
  outer loop
    vertex -6.6148209325720835 -319.0852935185291 141.05558395898763
    vertex -2.003552488914787 -319.0847227606771 140.57307420119727
    vertex -2.1817729553237166 -319.08474485570207 141.17371714506234
  endloop
endfacet
facet normal 0.0001237681398439665 -0.9999999923407218 -6.161577272779091e-08
  outer loop
    vertex -6.6148209325720835 -319.0852935185291 141.05558395898763
    vertex -2.1817729553237166 -319.08474485570207 141.17371714506234
    vertex -6.316123137489391 -319.08525658319303 141.60632355897857
  endloop
endfacet
facet normal 0.0001237681398439665 -0.9999999923407218 -6.161577272779091e-08
  outer loop
    vertex -6.316123137489391 -319.08525658319303 141.60632355897857
    vertex -2.1817729553237166 -319.08474485570207 141.17371714506234
    vertex -2.5093785385897185 -319.0847854357421 141.70776682563147
  endloop
endfacet
facet normal 0.0001237681398439665 -0.9999999923407218 -6.161577272779091e-08
  outer loop
    vertex -6.316123137489391 -319.08525658319303 141.60632355897857
    vertex -2.5093785385897185 -319.0847854357421 141.70776682563147
    vertex -5.885061326685903 -319.0852032594885 142.0609884834816
  endloop
endfacet
facet normal 0.0001237681398439665 -0.9999999923407218 -6.161577272779091e-08
  outer loop
    vertex -5.885061326685903 -319.0852032594885 142.0609884834816
    vertex -2.5093785385897185 -319.0847854357421 141.70776682563147
    vertex -2.9640434596070167 -319.08484173533395 142.13882863973316
  endloop
endfacet
facet normal 0.0001237681398439665 -0.9999999923407218 -6.161577272779091e-08
  outer loop
    vertex -5.885061326685903 -319.0852032594885 142.0609884834816
    vertex -2.9640434596070167 -319.08484173533395 142.13882863973316
    vertex -5.351011650204546 -319.08513718133867 142.38859406926088
  endloop
endfacet
facet normal 0.0001237681398439665 -0.9999999923407218 -6.161577272779091e-08
  outer loop
    vertex -5.351011650204546 -319.08513718133867 142.38859406926088
    vertex -2.9640434596070167 -319.08484173533395 142.13882863973316
    vertex -3.514783055377686 -319.0849099177542 142.4375264370994
  endloop
endfacet
facet normal 0.0001237681398439665 -0.9999999923407218 -6.161577272779091e-08
  outer loop
    vertex -5.351011650204546 -319.08513718133867 142.38859406926088
    vertex -3.514783055377686 -319.0849099177542 142.4375264370994
    vertex -4.750368710938725 -319.08506285186 142.5668145370395
  endloop
endfacet
facet normal 0.0001237681398439665 -0.9999999923407218 -6.161577272779091e-08
  outer loop
    vertex -4.750368710938725 -319.08506285186 142.5668145370395
    vertex -3.514783055377686 -319.0849099177542 142.4375264370994
    vertex -4.124065332590076 -319.0849853364837 142.58350445646136
  endloop
endfacet
facet normal 0.0001237681397935279 -0.9999999923407218 -6.161574874726037e-08
  outer loop
    vertex -18.199378707794384 -319.0851121314405 137.86257415268096
    vertex -19.441268339921777 -319.0852658398528 137.89570218298002
    vertex -18.822504217806515 -319.0851892505102 137.79738923130574
  endloop
endfacet
facet normal 0.0001237681397935279 -0.9999999923407218 -6.161574874726037e-08
  outer loop
    vertex -19.441268339921777 -319.0852658398528 137.89570218298002
    vertex -18.199378707794384 -319.0851121314405 137.86257415268096
    vertex -17.61435678362912 -319.0850397381818 138.08681470243752
  endloop
endfacet
facet normal 0.0001237681397935279 -0.9999999923407218 -6.161574874726037e-08
  outer loop
    vertex -19.441268339921777 -319.0852658398528 137.89570218298002
    vertex -17.61435678362912 -319.0850397381818 138.08681470243752
    vertex -20.013503321774067 -319.0853366800315 138.1508131425175
  endloop
endfacet
facet normal 0.0001237681397935279 -0.9999999923407218 -6.161574874726037e-08
  outer loop
    vertex -20.013503321774067 -319.0853366800315 138.1508131425175
    vertex -17.61435678362912 -319.0850397381818 138.08681470243752
    vertex -17.107306722648133 -319.08497700421395 138.45482925768442
  endloop
endfacet
facet normal 0.0001237681397935279 -0.9999999923407218 -6.161574874726037e-08
  outer loop
    vertex -20.013503321774067 -319.0853366800315 138.1508131425175
    vertex -17.107306722648133 -319.08497700421395 138.45482925768442
    vertex -20.500212295013185 -319.085396943405 138.54533671961627
  endloop
endfacet
facet normal 0.0001237681397935279 -0.9999999923407218 -6.161574874726037e-08
  outer loop
    vertex -20.500212295013185 -319.085396943405 138.54533671961627
    vertex -17.107306722648133 -319.08497700421395 138.45482925768442
    vertex -16.712783148567453 -319.0849282047534 138.9415382346543
  endloop
endfacet
facet normal 0.0001237681397935279 -0.9999999923407218 -6.161574874726037e-08
  outer loop
    vertex -20.500212295013185 -319.085396943405 138.54533671961627
    vertex -16.712783148567453 -319.0849282047534 138.9415382346543
    vertex -20.86822684743748 -319.0854425231243 139.05238678447807
  endloop
endfacet
facet normal 0.0001237681397935279 -0.9999999923407218 -6.161574874726037e-08
  outer loop
    vertex -20.86822684743748 -319.0854425231243 139.05238678447807
    vertex -16.712783148567453 -319.0849282047534 138.9415382346543
    vertex -16.457672190979615 -319.08489666540345 139.51377322089144
  endloop
endfacet
facet normal 0.0001237681397935279 -0.9999999923407218 -6.161574874726037e-08
  outer loop
    vertex -20.86822684743748 -319.0854425231243 139.05238678447807
    vertex -16.457672190979615 -319.08489666540345 139.51377322089144
    vertex -21.09246739547204 -319.0854703130062 139.63740871312245
  endloop
endfacet
facet normal 0.0001237681397935279 -0.9999999923407218 -6.161574874726037e-08
  outer loop
    vertex -21.09246739547204 -319.0854703130062 139.63740871312245
    vertex -16.457672190979615 -319.08489666540345 139.51377322089144
    vertex -16.359359240053468 -319.0848845355178 140.13253734774668
  endloop
endfacet
facet normal 0.0001237681397935279 -0.9999999923407218 -6.161574874726037e-08
  outer loop
    vertex -21.09246739547204 -319.0854703130062 139.63740871312245
    vertex -16.359359240053468 -319.0848845355178 140.13253734774668
    vertex -21.15765231634337 -319.08547841921717 140.2605342279067
  endloop
endfacet
facet normal 0.0001237681397935279 -0.9999999923407218 -6.161574874726037e-08
  outer loop
    vertex -21.15765231634337 -319.08547841921717 140.2605342279067
    vertex -16.359359240053468 -319.0848845355178 140.13253734774668
    vertex -16.424544160924782 -319.08489264172863 140.75566286253107
  endloop
endfacet
facet normal 0.0001237681397935279 -0.9999999923407218 -6.161574874726037e-08
  outer loop
    vertex -21.15765231634337 -319.08547841921717 140.2605342279067
    vertex -16.424544160924782 -319.08489264172863 140.75566286253107
    vertex -21.05933936541722 -319.0854662893318 140.87929835476208
  endloop
endfacet
facet normal 0.0001237681397935279 -0.9999999923407218 -6.161574874726037e-08
  outer loop
    vertex -21.05933936541722 -319.0854662893318 140.87929835476208
    vertex -16.424544160924782 -319.08489264172863 140.75566286253107
    vertex -16.648784708959326 -319.084920431611 141.34068479117553
  endloop
endfacet
facet normal 0.0001237681397935279 -0.9999999923407218 -6.161574874726037e-08
  outer loop
    vertex -21.05933936541722 -319.0854662893318 140.87929835476208
    vertex -16.648784708959326 -319.084920431611 141.34068479117553
    vertex -20.804228407829363 -319.0854347499814 141.45153334099908
  endloop
endfacet
facet normal 0.0001237681397935279 -0.9999999923407218 -6.161574874726037e-08
  outer loop
    vertex -20.804228407829363 -319.0854347499814 141.45153334099908
    vertex -16.648784708959326 -319.084920431611 141.34068479117553
    vertex -17.016799261383646 -319.0849660113299 141.84773485603728
  endloop
endfacet
facet normal 0.0001237681397935279 -0.9999999923407218 -6.161574874726037e-08
  outer loop
    vertex -20.804228407829363 -319.0854347499814 141.45153334099908
    vertex -17.016799261383646 -319.0849660113299 141.84773485603728
    vertex -20.409704833748698 -319.08538595052124 141.93824231796927
  endloop
endfacet
facet normal 0.0001237681397935279 -0.9999999923407218 -6.161574874726037e-08
  outer loop
    vertex -20.409704833748698 -319.08538595052124 141.93824231796927
    vertex -17.016799261383646 -319.0849660113299 141.84773485603728
    vertex -17.50350823462277 -319.0850262747034 142.2422584331361
  endloop
endfacet
facet normal 0.0001237681397935279 -0.9999999923407218 -6.161574874726037e-08
  outer loop
    vertex -20.409704833748698 -319.08538595052124 141.93824231796927
    vertex -17.50350823462277 -319.0850262747034 142.2422584331361
    vertex -19.902654772767693 -319.0853232165531 142.30625687321614
  endloop
endfacet
facet normal 0.0001237681397935279 -0.9999999923407218 -6.161574874726037e-08
  outer loop
    vertex -19.902654772767693 -319.0853232165531 142.30625687321614
    vertex -17.50350823462277 -319.0850262747034 142.2422584331361
    vertex -18.075743216475054 -319.08509711488244 142.4973693926737
  endloop
endfacet
facet normal 0.0001237681397935279 -0.9999999923407218 -6.161574874726037e-08
  outer loop
    vertex -19.902654772767693 -319.0853232165531 142.30625687321614
    vertex -18.075743216475054 -319.08509711488244 142.4973693926737
    vertex -19.31763284860245 -319.0852508232944 142.53049742297256
  endloop
endfacet
facet normal 0.0001237681397935279 -0.9999999923407218 -6.161574874726037e-08
  outer loop
    vertex -19.31763284860245 -319.0852508232944 142.53049742297256
    vertex -18.075743216475054 -319.08509711488244 142.4973693926737
    vertex -18.694507338590316 -319.085173704225 142.59568234434792
  endloop
endfacet
facet normal 0.00012376813979212575 -0.9999999923407218 -6.161573815820002e-08
  outer loop
    vertex -11.227441909978166 -319.08479943385487 125.36306254970083
    vertex -12.460809494383206 -319.0849520946464 125.51203142845398
    vertex -11.853931764581494 -319.08487697292645 125.3563590269902
  endloop
endfacet
facet normal 0.00012376813979212575 -0.9999999923407218 -6.161573815820002e-08
  outer loop
    vertex -12.460809494383206 -319.0849520946464 125.51203142845398
    vertex -11.227441909978166 -319.08479943385487 125.36306254970083
    vertex -10.624034178841013 -319.0847247615918 125.531685162591
  endloop
endfacet
facet normal 0.00012376813979212575 -0.9999999923407218 -6.161573815820002e-08
  outer loop
    vertex -12.460809494383206 -319.0849520946464 125.51203142845398
    vertex -10.624034178841013 -319.0847247615918 125.531685162591
    vertex -13.006717385010141 -319.08501967959415 125.81947093719228
  endloop
endfacet
facet normal 0.00012376813979212575 -0.9999999923407218 -6.161573815820002e-08
  outer loop
    vertex -13.006717385010141 -319.08501967959415 125.81947093719228
    vertex -10.624034178841013 -319.0847247615918 125.531685162591
    vertex -10.084829810868532 -319.0846580449281 125.85073551325411
  endloop
endfacet
facet normal 0.00012376813979212575 -0.9999999923407218 -6.161573815820002e-08
  outer loop
    vertex -13.006717385010141 -319.08501967959415 125.81947093719228
    vertex -10.084829810868532 -319.0846580449281 125.85073551325411
    vertex -13.454452715871573 -319.0850751219669 126.25772605875343
  endloop
endfacet
facet normal 0.00012376813979212575 -0.9999999923407218 -6.161573815820002e-08
  outer loop
    vertex -13.454452715871573 -319.0850751219669 126.25772605875343
    vertex -10.084829810868532 -319.0846580449281 125.85073551325411
    vertex -9.64657469266078 -319.0846038304947 126.2984708475482
  endloop
endfacet
facet normal 0.00012376813979212575 -0.9999999923407218 -6.161573815820002e-08
  outer loop
    vertex -13.454452715871573 -319.0850751219669 126.25772605875343
    vertex -9.64657469266078 -319.0846038304947 126.2984708475482
    vertex -13.773503064086881 -319.08511464345906 126.79693043085328
  endloop
endfacet
facet normal 0.00012376813979212575 -0.9999999923407218 -6.161573815820002e-08
  outer loop
    vertex -13.773503064086881 -319.08511464345906 126.79693043085328
    vertex -9.64657469266078 -319.0846038304947 126.2984708475482
    vertex -9.339135186272776 -319.08456581291483 126.84437874235866
  endloop
endfacet
facet normal 0.00012376813979212575 -0.9999999923407218 -6.161573815820002e-08
  outer loop
    vertex -13.773503064086881 -319.08511464345906 126.79693043085328
    vertex -9.339135186272776 -319.08456581291483 126.84437874235866
    vertex -13.942125675680828 -319.08513555074575 127.40033816661109
  endloop
endfacet
facet normal 0.00012376813979212575 -0.9999999923407218 -6.161573815820002e-08
  outer loop
    vertex -13.942125675680828 -319.08513555074575 127.40033816661109
    vertex -9.339135186272776 -319.08456581291483 126.84437874235866
    vertex -9.183462785997001 -319.08454658302463 127.45125647680976
  endloop
endfacet
facet normal 0.00012376813979212575 -0.9999999923407218 -6.161573815820002e-08
  outer loop
    vertex -13.942125675680828 -319.08513555074575 127.40033816661109
    vertex -9.183462785997001 -319.08454658302463 127.45125647680976
    vertex -13.94882919833531 -319.08513641902977 128.02682802601254
  endloop
endfacet
facet normal 0.00012376813979212575 -0.9999999923407218 -6.161573815820002e-08
  outer loop
    vertex -13.94882919833531 -319.08513641902977 128.02682802601254
    vertex -9.183462785997001 -319.08454658302463 127.45125647680976
    vertex -9.190166308651527 -319.0845474513087 128.07774633621148
  endloop
endfacet
facet normal 0.00012376813979212575 -0.9999999923407218 -6.161573815820002e-08
  outer loop
    vertex -13.94882919833531 -319.08513641902977 128.02682802601254
    vertex -9.190166308651527 -319.0845474513087 128.07774633621148
    vertex -13.793156798059572 -319.0851171891394 128.6337057604637
  endloop
endfacet
facet normal 0.00012376813979212575 -0.9999999923407218 -6.161573815820002e-08
  outer loop
    vertex -13.793156798059572 -319.0851171891394 128.6337057604637
    vertex -9.190166308651527 -319.0845474513087 128.07774633621148
    vertex -9.358788920245463 -319.08456835859533 128.68115407196905
  endloop
endfacet
facet normal 0.00012376813979212575 -0.9999999923407218 -6.161573815820002e-08
  outer loop
    vertex -13.793156798059572 -319.0851171891394 128.6337057604637
    vertex -9.358788920245463 -319.08456835859533 128.68115407196905
    vertex -13.48571729167154 -319.0850791715597 129.17961365527424
  endloop
endfacet
facet normal 0.00012376813979212575 -0.9999999923407218 -6.161573815820002e-08
  outer loop
    vertex -13.48571729167154 -319.0850791715597 129.17961365527424
    vertex -9.358788920245463 -319.08456835859533 128.68115407196905
    vertex -9.67783926846075 -319.08460788008733 129.22035844406903
  endloop
endfacet
facet normal 0.00012376813979212575 -0.9999999923407218 -6.161573815820002e-08
  outer loop
    vertex -13.48571729167154 -319.0850791715597 129.17961365527424
    vertex -9.67783926846075 -319.08460788008733 129.22035844406903
    vertex -13.047462173463774 -319.0850249571261 129.62734898956836
  endloop
endfacet
facet normal 0.00012376813979212575 -0.9999999923407218 -6.161573815820002e-08
  outer loop
    vertex -13.047462173463774 -319.0850249571261 129.62734898956836
    vertex -9.67783926846075 -319.08460788008733 129.22035844406903
    vertex -10.125574599322167 -319.0846633224601 129.6586135656301
  endloop
endfacet
facet normal 0.00012376813979212575 -0.9999999923407218 -6.161573815820002e-08
  outer loop
    vertex -13.047462173463774 -319.0850249571261 129.62734898956836
    vertex -10.125574599322167 -319.0846633224601 129.6586135656301
    vertex -12.508257805491347 -319.0849582404624 129.94639934023144
  endloop
endfacet
facet normal 0.00012376813979212575 -0.9999999923407218 -6.161573815820002e-08
  outer loop
    vertex -12.508257805491347 -319.0849582404624 129.94639934023144
    vertex -10.125574599322167 -319.0846633224601 129.6586135656301
    vertex -10.671482489949119 -319.08473090740785 129.96605307436866
  endloop
endfacet
facet normal 0.00012376813979212575 -0.9999999923407218 -6.161573815820002e-08
  outer loop
    vertex -12.508257805491347 -319.0849582404624 129.94639934023144
    vertex -10.671482489949119 -319.08473090740785 129.96605307436866
    vertex -11.904850074354139 -319.08488356819953 130.11502195312153
  endloop
endfacet
facet normal 0.00012376813979212575 -0.9999999923407218 -6.161573815820002e-08
  outer loop
    vertex -11.904850074354139 -319.08488356819953 130.11502195312153
    vertex -10.671482489949119 -319.08473090740785 129.96605307436866
    vertex -11.27836021975081 -319.08480602912783 130.12172547583214
  endloop
endfacet
endsolid pedro_robot
