solid pedro_robot
facet normal 3.5636205471544642e-06 -5.861351330357045e-05 0.9999999982758784
  outer loop
    vertex -117.06749978456702 -77.24450520624359 -23.90662149597236
    vertex -156.66942503308718 0.028261996725841686 -23.901746089769734
    vertex -156.67856999298385 -77.23941259101754 -23.906476596584884
  endloop
endfacet
facet normal 3.5636205471544642e-06 -5.861351330357045e-05 0.9999999982758784
  outer loop
    vertex -156.66942503308718 0.028261996725841686 -23.901746089769734
    vertex -117.06749978456702 -77.24450520624359 -23.90662149597236
    vertex -117.05835482467036 0.023169381499785667 -23.90189098915721
  endloop
endfacet
facet normal -0.9806431706525292 0.00010126398484860634 0.19580337483853502
  outer loop
    vertex -160.88341712476202 0.029042021788259386 -27.155940132153
    vertex -161.003681324982 -77.23860123861765 -27.723874892672825
    vertex -160.89256208465875 -77.23863256595511 -27.160670638968146
  endloop
endfacet
facet normal -0.9806431706525292 0.00010126398484860634 0.19580337483853502
  outer loop
    vertex -161.003681324982 -77.23860123861765 -27.723874892672825
    vertex -160.88341712476202 0.029042021788259386 -27.155940132153
    vertex -160.99453636508528 0.02907334912573729 -27.719144385857675
  endloop
endfacet
facet normal -0.00010476666343531189 -0.9999999925883531 -6.20261249400987e-05
  outer loop
    vertex -112.19138431894673 -77.24630726606688 -26.694375389362815
    vertex -156.0636498333659 -77.23878895558774 -28.99188902135096
    vertex -112.19138575646015 -77.23874131077542 -28.99196222506786
  endloop
endfacet
facet normal -0.00010476666343531189 -0.9999999925883531 -6.20261249400987e-05
  outer loop
    vertex -156.0636498333659 -77.23878895558774 -28.99188902135096
    vertex -112.19138431894673 -77.24630726606688 -26.694375389362815
    vertex -161.0407518244543 -77.23858210899273 -28.296853173592055
  endloop
endfacet
facet normal -0.00010476666343531189 -0.9999999925883531 -6.20261249400987e-05
  outer loop
    vertex -161.0407518244543 -77.23858210899273 -28.296853173592055
    vertex -112.19138431894673 -77.24630726606688 -26.694375389362815
    vertex -161.003681324982 -77.23860123861765 -27.723874892672825
  endloop
endfacet
facet normal -0.00010476666343531189 -0.9999999925883531 -6.20261249400987e-05
  outer loop
    vertex -161.003681324982 -77.23860123861765 -27.723874892672825
    vertex -112.19138431894673 -77.24630726606688 -26.694375389362815
    vertex -160.89256208465875 -77.23863256595511 -27.160670638968146
  endloop
endfacet
facet normal -0.00010476666343531189 -0.9999999925883531 -6.20261249400987e-05
  outer loop
    vertex -160.89256208465875 -77.23863256595511 -27.160670638968146
    vertex -112.19138431894673 -77.24630726606688 -26.694375389362815
    vertex -117.06746791072861 -77.24451849943812 -26.694211558208877
  endloop
endfacet
facet normal -0.00010476666343531189 -0.9999999925883531 -6.20261249400987e-05
  outer loop
    vertex -160.89256208465875 -77.23863256595511 -27.160670638968146
    vertex -117.06746791072861 -77.24451849943812 -26.694211558208877
    vertex -160.70929654524608 -77.23867555465853 -26.61688287664008
  endloop
endfacet
facet normal -0.00010476666343531189 -0.9999999925883531 -6.20261249400987e-05
  outer loop
    vertex -160.70929654524608 -77.23867555465853 -26.61688287664008
    vertex -117.06746791072861 -77.24451849943812 -26.694211558208877
    vertex -117.06749978456702 -77.24450520624359 -23.90662149597236
  endloop
endfacet
facet normal -0.00010476666343531189 -0.9999999925883531 -6.20261249400987e-05
  outer loop
    vertex -160.70929654524608 -77.23867555465853 -26.61688287664008
    vertex -117.06749978456702 -77.24450520624359 -23.90662149597236
    vertex -160.45702234532573 -77.23872946873013 -26.10182164547528
  endloop
endfacet
facet normal -0.00010476666343531189 -0.9999999925883531 -6.20261249400987e-05
  outer loop
    vertex -160.45702234532573 -77.23872946873013 -26.10182164547528
    vertex -117.06749978456702 -77.24450520624359 -23.90662149597236
    vertex -160.1400586016587 -77.23879338512205 -25.624305166270375
  endloop
endfacet
facet normal -0.00010476666343531189 -0.9999999925883531 -6.20261249400987e-05
  outer loop
    vertex -160.1400586016587 -77.23879338512205 -25.624305166270375
    vertex -117.06749978456702 -77.24450520624359 -23.90662149597236
    vertex -159.7638319627807 -77.23886620953945 -25.192508866514153
  endloop
endfacet
facet normal -0.00010476666343531189 -0.9999999925883531 -6.20261249400987e-05
  outer loop
    vertex -159.7638319627807 -77.23886620953945 -25.192508866514153
    vertex -117.06749978456702 -77.24450520624359 -23.90662149597236
    vertex -159.33478370085626 -77.2389466951756 -24.813825411155918
  endloop
endfacet
facet normal -0.00010476666343531189 -0.9999999925883531 -6.20261249400987e-05
  outer loop
    vertex -159.33478370085626 -77.2389466951756 -24.813825411155918
    vertex -117.06749978456702 -77.24450520624359 -23.90662149597236
    vertex -158.86025943243928 -77.23903346405822 -24.4947381348351
  endloop
endfacet
facet normal -0.00010476666343531189 -0.9999999925883531 -6.20261249400987e-05
  outer loop
    vertex -158.86025943243928 -77.23903346405822 -24.4947381348351
    vertex -117.06749978456702 -77.24450520624359 -23.90662149597236
    vertex -158.34838335620628 -77.23912503064126 -24.240710042502755
  endloop
endfacet
facet normal -0.00010476666343531189 -0.9999999925883531 -6.20261249400987e-05
  outer loop
    vertex -158.34838335620628 -77.23912503064126 -24.240710042502755
    vertex -117.06749978456702 -77.24450520624359 -23.90662149597236
    vertex -157.8079191607973 -77.23921982723863 -24.05609027882596
  endloop
endfacet
facet normal -0.00010476666343531189 -0.9999999925883531 -6.20261249400987e-05
  outer loop
    vertex -157.8079191607973 -77.23921982723863 -24.05609027882596
    vertex -117.06749978456702 -77.24450520624359 -23.90662149597236
    vertex -157.24811998412966 -77.23931623086398 -23.94403966768549
  endloop
endfacet
facet normal -0.00010476666343531189 -0.9999999925883531 -6.20261249400987e-05
  outer loop
    vertex -157.24811998412966 -77.23931623086398 -23.94403966768549
    vertex -117.06749978456702 -77.24450520624359 -23.90662149597236
    vertex -156.67856999298385 -77.23941259101754 -23.906476596584884
  endloop
endfacet
facet normal -0.00010476666343531189 -0.9999999925883531 -6.20261249400987e-05
  outer loop
    vertex -156.0636498333659 -77.23878895558774 -28.99188902135096
    vertex -158.0552926067935 -77.23787331979933 -47.92776091942225
    vertex -156.06388576837836 -77.23829817810379 -47.92776252486151
  endloop
endfacet
facet normal -0.00010476666343531189 -0.9999999925883531 -6.20261249400987e-05
  outer loop
    vertex -158.0552926067935 -77.23787331979933 -47.92776091942225
    vertex -156.0636498333659 -77.23878895558774 -28.99188902135096
    vertex -158.0551144801296 -77.23806950320414 -43.2546354844218
  endloop
endfacet
facet normal -0.00010476666343531189 -0.9999999925883531 -6.20261249400987e-05
  outer loop
    vertex -158.0551144801296 -77.23806950320414 -43.2546354844218
    vertex -156.0636498333659 -77.23878895558774 -28.99188902135096
    vertex -161.03431045186534 -77.2381518664363 -43.25459707071687
  endloop
endfacet
facet normal -0.00010476666343531189 -0.9999999925883531 -6.20261249400987e-05
  outer loop
    vertex -161.03431045186534 -77.2381518664363 -43.25459707071687
    vertex -156.0636498333659 -77.23878895558774 -28.99188902135096
    vertex -161.0407518244543 -77.23858210899273 -28.296853173592055
  endloop
endfacet
facet normal -0.3198128043124524 -1.8770544805733165e-05 0.9474807490632577
  outer loop
    vertex -157.8079191607973 -77.23921982723863 -24.05609027882596
    vertex -158.33923839630958 0.028549557102114684 -24.23597953568761
    vertex -158.34838335620628 -77.23912503064126 -24.240710042502755
  endloop
endfacet
facet normal -0.3198128043124524 -1.8770544805733165e-05 0.9474807490632577
  outer loop
    vertex -158.33923839630958 0.028549557102114684 -24.23597953568761
    vertex -157.8079191607973 -77.23921982723863 -24.05609027882596
    vertex -157.7987742009006 0.028454760504755414 -24.051359772010812
  endloop
endfacet
facet normal -2.1594005622006347e-06 5.859737631204167e-05 -0.9999999982808423
  outer loop
    vertex -158.04614764689683 0.029801267944040075 -47.9230304126071
    vertex -156.06388576837836 -77.23829817810379 -47.92776252486151
    vertex -158.0552926067935 -77.23787331979933 -47.92776091942225
  endloop
endfacet
facet normal -2.1594005622006347e-06 5.859737631204167e-05 -0.9999999982808423
  outer loop
    vertex -156.06388576837836 -77.23829817810379 -47.92776252486151
    vertex -158.04614764689683 0.029801267944040075 -47.9230304126071
    vertex -156.0547408084816 0.029376409639573175 -47.923032018046364
  endloop
endfacet
facet normal -0.4402890067759461 -2.010942775861851e-06 0.8978561079082811
  outer loop
    vertex -158.34838335620628 -77.23912503064126 -24.240710042502755
    vertex -158.85111447254275 0.02864112368516194 -24.490007628019953
    vertex -158.86025943243928 -77.23903346405822 -24.4947381348351
  endloop
endfacet
facet normal -0.4402890067759461 -2.010942775861851e-06 0.8978561079082811
  outer loop
    vertex -158.85111447254275 0.02864112368516194 -24.490007628019953
    vertex -158.34838335620628 -77.23912503064126 -24.240710042502755
    vertex -158.33923839630958 0.028549557102114684 -24.23597953568761
  endloop
endfacet
facet normal -0.1940275697425917 -3.51962309479818e-05 0.9809960759050002
  outer loop
    vertex -157.24811998412966 -77.23931623086398 -23.94403966768549
    vertex -157.7987742009006 0.028454760504755414 -24.051359772010812
    vertex -157.8079191607973 -77.23921982723863 -24.05609027882596
  endloop
endfacet
facet normal -0.1940275697425917 -3.51962309479818e-05 0.9809960759050002
  outer loop
    vertex -157.7987742009006 0.028454760504755414 -24.051359772010812
    vertex -157.24811998412966 -77.23931623086398 -23.94403966768549
    vertex -157.2389750242328 0.02835835687940298 -23.939309160870337
  endloop
endfacet
facet normal -0.7500538802721747 4.74634117048443e-05 0.6613767265604974
  outer loop
    vertex -159.75468700288403 0.028808378203929317 -25.187778359699003
    vertex -160.1400586016587 -77.23879338512205 -25.624305166270375
    vertex -159.7638319627807 -77.23886620953945 -25.192508866514153
  endloop
endfacet
facet normal -0.7500538802721747 4.74634117048443e-05 0.6613767265604974
  outer loop
    vertex -160.1400586016587 -77.23879338512205 -25.624305166270375
    vertex -159.75468700288403 0.028808378203929317 -25.187778359699003
    vertex -160.130913641762 0.028881202621333823 -25.61957465945523
  endloop
endfacet
facet normal -0.8300980020789284 6.274786863440819e-05 0.5576175239420624
  outer loop
    vertex -160.130913641762 0.028881202621333823 -25.61957465945523
    vertex -160.45702234532573 -77.23872946873013 -26.10182164547528
    vertex -160.1400586016587 -77.23879338512205 -25.624305166270375
  endloop
endfacet
facet normal -0.8300980020789284 6.274786863440819e-05 0.5576175239420624
  outer loop
    vertex -160.45702234532573 -77.23872946873013 -26.10182164547528
    vertex -160.130913641762 0.028881202621333823 -25.61957465945523
    vertex -160.4478773854292 0.028945119013250763 -26.09709113866013
  endloop
endfacet
facet normal -0.657281390177874 3.138916309433169e-05 0.7536452568288092
  outer loop
    vertex -159.33478370085626 -77.2389466951756 -24.813825411155918
    vertex -159.75468700288403 0.028808378203929317 -25.187778359699003
    vertex -159.7638319627807 -77.23886620953945 -25.192508866514153
  endloop
endfacet
facet normal -0.657281390177874 3.138916309433169e-05 0.7536452568288092
  outer loop
    vertex -159.75468700288403 0.028808378203929317 -25.187778359699003
    vertex -159.33478370085626 -77.2389466951756 -24.813825411155918
    vertex -159.32563874095953 0.02872789256777528 -24.80909490434077
  endloop
endfacet
facet normal -0.5534239541014382 1.4803359021875674e-05 0.8328997099336687
  outer loop
    vertex -158.86025943243928 -77.23903346405822 -24.4947381348351
    vertex -159.32563874095953 0.02872789256777528 -24.80909490434077
    vertex -159.33478370085626 -77.2389466951756 -24.813825411155918
  endloop
endfacet
facet normal -0.5534239541014382 1.4803359021875674e-05 0.8328997099336687
  outer loop
    vertex -159.32563874095953 0.02872789256777528 -24.80909490434077
    vertex -158.86025943243928 -77.23903346405822 -24.4947381348351
    vertex -158.85111447254275 0.02864112368516194 -24.490007628019953
  endloop
endfacet
facet normal -0.8959707147696346 7.697431744663357e-05 0.44411313012581
  outer loop
    vertex -160.4478773854292 0.028945119013250763 -26.09709113866013
    vertex -160.70929654524608 -77.23867555465853 -26.61688287664008
    vertex -160.45702234532573 -77.23872946873013 -26.10182164547528
  endloop
endfacet
facet normal -0.8959707147696346 7.697431744663357e-05 0.44411313012581
  outer loop
    vertex -160.70929654524608 -77.23867555465853 -26.61688287664008
    vertex -160.4478773854292 0.028945119013250763 -26.09709113866013
    vertex -160.70015158534935 0.028999033084850988 -26.61215236982493
  endloop
endfacet
facet normal -0.9464650962006812 8.989013244036706e-05 0.3228061548260803
  outer loop
    vertex -160.70015158534935 0.028999033084850988 -26.61215236982493
    vertex -160.89256208465875 -77.23863256595511 -27.160670638968146
    vertex -160.70929654524608 -77.23867555465853 -26.61688287664008
  endloop
endfacet
facet normal -0.9464650962006812 8.989013244036706e-05 0.3228061548260803
  outer loop
    vertex -160.89256208465875 -77.23863256595511 -27.160670638968146
    vertex -160.70015158534935 0.028999033084850988 -26.61215236982493
    vertex -160.88341712476202 0.029042021788259386 -27.155940132153
  endloop
endfacet
facet normal -1.3007988484021787e-05 5.861839944695176e-05 -0.9999999981973376
  outer loop
    vertex -161.02516549196864 0.02952272130706399 -43.249866563901726
    vertex -158.0551144801296 -77.23806950320414 -43.2546354844218
    vertex -161.03431045186534 -77.2381518664363 -43.25459707071687
  endloop
endfacet
facet normal -1.3007988484021787e-05 5.861839944695176e-05 -0.9999999981973376
  outer loop
    vertex -158.0551144801296 -77.23806950320414 -43.2546354844218
    vertex -161.02516549196864 0.02952272130706399 -43.249866563901726
    vertex -158.04596952023277 0.029605084539234647 -43.249904977606676
  endloop
endfacet
facet normal -0.9999998992256843 0.00011499219061427439 -0.00043396476476730207
  outer loop
    vertex -161.03160686455757 0.02909247875064631 -28.29212266677691
    vertex -161.03431045186534 -77.2381518664363 -43.25459707071687
    vertex -161.0407518244543 -77.23858210899273 -28.296853173592055
  endloop
endfacet
facet normal -0.9999998992256843 0.00011499219061427439 -0.00043396476476730207
  outer loop
    vertex -161.03431045186534 -77.2381518664363 -43.25459707071687
    vertex -161.03160686455757 0.02909247875064631 -28.29212266677691
    vertex -161.02516549196864 0.02952272130706399 -43.249866563901726
  endloop
endfacet
facet normal -0.9978633673464503 0.00011089137588106636 0.06533519580674467
  outer loop
    vertex -160.99453636508528 0.02907334912573729 -27.719144385857675
    vertex -161.0407518244543 -77.23858210899273 -28.296853173592055
    vertex -161.003681324982 -77.23860123861765 -27.723874892672825
  endloop
endfacet
facet normal -0.9978633673464503 0.00011089137588106636 0.06533519580674467
  outer loop
    vertex -161.0407518244543 -77.23858210899273 -28.296853173592055
    vertex -160.99453636508528 0.02907334912573729 -27.719144385857675
    vertex -161.03160686455757 0.02909247875064631 -28.29212266677691
  endloop
endfacet
facet normal -0.9999999884537598 0.00011496093783076979 9.938039678629558e-05
  outer loop
    vertex -158.04596952023277 0.029605084539234647 -43.249904977606676
    vertex -158.0552926067935 -77.23787331979933 -47.92776091942225
    vertex -158.0551144801296 -77.23806950320414 -43.2546354844218
  endloop
endfacet
facet normal -0.9999999884537598 0.00011496093783076979 9.938039678629558e-05
  outer loop
    vertex -158.0552926067935 -77.23787331979933 -47.92776091942225
    vertex -158.04596952023277 0.029605084539234647 -43.249904977606676
    vertex -158.04614764689683 0.029801267944040075 -47.9230304126071
  endloop
endfacet
facet normal -0.06503141532790949 -5.1016373318144465e-05 0.9978832158212596
  outer loop
    vertex -156.67856999298385 -77.23941259101754 -23.906476596584884
    vertex -157.2389750242328 0.02835835687940298 -23.939309160870337
    vertex -157.24811998412966 -77.23931623086398 -23.94403966768549
  endloop
endfacet
facet normal -0.06503141532790949 -5.1016373318144465e-05 0.9978832158212596
  outer loop
    vertex -157.2389750242328 0.02835835687940298 -23.939309160870337
    vertex -156.67856999298385 -77.23941259101754 -23.906476596584884
    vertex -156.66942503308718 0.028261996725841686 -23.901746089769734
  endloop
endfacet
facet normal 0.9999999933030259 -0.000114970236680346 -1.325868102023074e-05
  outer loop
    vertex -156.06388576837836 -77.23829817810379 -47.92776252486151
    vertex -156.0545048734692 0.02888563215564055 -28.98715851453583
    vertex -156.0636498333659 -77.23878895558774 -28.99188902135096
  endloop
endfacet
facet normal 0.9999999933030259 -0.000114970236680346 -1.325868102023074e-05
  outer loop
    vertex -156.0545048734692 0.02888563215564055 -28.98715851453583
    vertex -156.06388576837836 -77.23829817810379 -47.92776252486151
    vertex -156.0547408084816 0.029376409639573175 -47.923032018046364
  endloop
endfacet
facet normal 0.00010472678131055702 0.9999999925348368 6.294940727259707e-05
  outer loop
    vertex -158.04614764689683 0.029801267944040075 -47.9230304126071
    vertex -156.0545048734692 0.02888563215564055 -28.98715851453583
    vertex -156.0547408084816 0.029376409639573175 -47.923032018046364
  endloop
endfacet
facet normal 0.00010472678131055702 0.9999999925348368 6.294940727259707e-05
  outer loop
    vertex -156.0545048734692 0.02888563215564055 -28.98715851453583
    vertex -158.04614764689683 0.029801267944040075 -47.9230304126071
    vertex -158.04596952023277 0.029605084539234647 -43.249904977606676
  endloop
endfacet
facet normal 0.00010472678131055702 0.9999999925348368 6.294940727259707e-05
  outer loop
    vertex -156.0545048734692 0.02888563215564055 -28.98715851453583
    vertex -158.04596952023277 0.029605084539234647 -43.249904977606676
    vertex -161.02516549196864 0.02952272130706399 -43.249866563901726
  endloop
endfacet
facet normal 0.00010472678131055702 0.9999999925348368 6.294940727259707e-05
  outer loop
    vertex -156.0545048734692 0.02888563215564055 -28.98715851453583
    vertex -161.02516549196864 0.02952272130706399 -43.249866563901726
    vertex -161.03160686455757 0.02909247875064631 -28.29212266677691
  endloop
endfacet
facet normal 0.00010472678131055702 0.9999999925348368 6.294940727259707e-05
  outer loop
    vertex -156.0545048734692 0.02888563215564055 -28.98715851453583
    vertex -112.29581373586787 0.021392548775820773 -26.889642622474778
    vertex -112.29580818851157 0.02894625877526806 -28.987229458676673
  endloop
endfacet
facet normal 0.00010472678131055702 0.9999999925348368 6.294940727259707e-05
  outer loop
    vertex -112.29581373586787 0.021392548775820773 -26.889642622474778
    vertex -156.0545048734692 0.02888563215564055 -28.98715851453583
    vertex -161.03160686455757 0.02909247875064631 -28.29212266677691
  endloop
endfacet
facet normal 0.00010472678131055702 0.9999999925348368 6.294940727259707e-05
  outer loop
    vertex -112.29581373586787 0.021392548775820773 -26.889642622474778
    vertex -161.03160686455757 0.02909247875064631 -28.29212266677691
    vertex -160.99453636508528 0.02907334912573729 -27.719144385857675
  endloop
endfacet
facet normal 0.00010472678131055702 0.9999999925348368 6.294940727259707e-05
  outer loop
    vertex -112.29581373586787 0.021392548775820773 -26.889642622474778
    vertex -160.99453636508528 0.02907334912573729 -27.719144385857675
    vertex -160.88341712476202 0.029042021788259386 -27.155940132153
  endloop
endfacet
facet normal 0.00010472678131055702 0.9999999925348368 6.294940727259707e-05
  outer loop
    vertex -112.29581373586787 0.021392548775820773 -26.889642622474778
    vertex -160.88341712476202 0.029042021788259386 -27.155940132153
    vertex -117.05832993570154 0.023168333597262867 -26.889481050896883
  endloop
endfacet
facet normal 0.00010472678131055702 0.9999999925348368 6.294940727259707e-05
  outer loop
    vertex -117.05832993570154 0.023168333597262867 -26.889481050896883
    vertex -160.88341712476202 0.029042021788259386 -27.155940132153
    vertex -160.70015158534935 0.028999033084850988 -26.61215236982493
  endloop
endfacet
facet normal 0.00010472678131055702 0.9999999925348368 6.294940727259707e-05
  outer loop
    vertex -117.05832993570154 0.023168333597262867 -26.889481050896883
    vertex -160.70015158534935 0.028999033084850988 -26.61215236982493
    vertex -117.05835482467036 0.023169381499785667 -23.90189098915721
  endloop
endfacet
facet normal 0.00010472678131055702 0.9999999925348368 6.294940727259707e-05
  outer loop
    vertex -117.05835482467036 0.023169381499785667 -23.90189098915721
    vertex -160.70015158534935 0.028999033084850988 -26.61215236982493
    vertex -160.4478773854292 0.028945119013250763 -26.09709113866013
  endloop
endfacet
facet normal 0.00010472678131055702 0.9999999925348368 6.294940727259707e-05
  outer loop
    vertex -117.05835482467036 0.023169381499785667 -23.90189098915721
    vertex -160.4478773854292 0.028945119013250763 -26.09709113866013
    vertex -160.130913641762 0.028881202621333823 -25.61957465945523
  endloop
endfacet
facet normal 0.00010472678131055702 0.9999999925348368 6.294940727259707e-05
  outer loop
    vertex -117.05835482467036 0.023169381499785667 -23.90189098915721
    vertex -160.130913641762 0.028881202621333823 -25.61957465945523
    vertex -159.75468700288403 0.028808378203929317 -25.187778359699003
  endloop
endfacet
facet normal 0.00010472678131055702 0.9999999925348368 6.294940727259707e-05
  outer loop
    vertex -117.05835482467036 0.023169381499785667 -23.90189098915721
    vertex -159.75468700288403 0.028808378203929317 -25.187778359699003
    vertex -159.32563874095953 0.02872789256777528 -24.80909490434077
  endloop
endfacet
facet normal 0.00010472678131055702 0.9999999925348368 6.294940727259707e-05
  outer loop
    vertex -117.05835482467036 0.023169381499785667 -23.90189098915721
    vertex -159.32563874095953 0.02872789256777528 -24.80909490434077
    vertex -158.85111447254275 0.02864112368516194 -24.490007628019953
  endloop
endfacet
facet normal 0.00010472678131055702 0.9999999925348368 6.294940727259707e-05
  outer loop
    vertex -117.05835482467036 0.023169381499785667 -23.90189098915721
    vertex -158.85111447254275 0.02864112368516194 -24.490007628019953
    vertex -158.33923839630958 0.028549557102114684 -24.23597953568761
  endloop
endfacet
facet normal 0.00010472678131055702 0.9999999925348368 6.294940727259707e-05
  outer loop
    vertex -117.05835482467036 0.023169381499785667 -23.90189098915721
    vertex -158.33923839630958 0.028549557102114684 -24.23597953568761
    vertex -157.7987742009006 0.028454760504755414 -24.051359772010812
  endloop
endfacet
facet normal 0.00010472678131055702 0.9999999925348368 6.294940727259707e-05
  outer loop
    vertex -117.05835482467036 0.023169381499785667 -23.90189098915721
    vertex -157.7987742009006 0.028454760504755414 -24.051359772010812
    vertex -157.2389750242328 0.02835835687940298 -23.939309160870337
  endloop
endfacet
facet normal 0.00010472678131055702 0.9999999925348368 6.294940727259707e-05
  outer loop
    vertex -117.05835482467036 0.023169381499785667 -23.90189098915721
    vertex -157.2389750242328 0.02835835687940298 -23.939309160870337
    vertex -156.66942503308718 0.028261996725841686 -23.901746089769734
  endloop
endfacet
facet normal 0.9996651696516203 -0.025875612263440564 -3.571258797743826e-05
  outer loop
    vertex -116.96297600460042 -38.611764520205895 -28.989432294819746
    vertex -116.83173336329475 -33.702058695141474 -26.89154897598047
    vertex -116.96290255982048 -38.61189292630805 -26.89184500675152
  endloop
endfacet
facet normal 0.9996651696516203 -0.025875612263440564 -3.571258797743826e-05
  outer loop
    vertex -116.83173336329475 -33.702058695141474 -26.89154897598047
    vertex -116.96297600460042 -38.611764520205895 -28.989432294819746
    vertex -116.83180680807457 -33.701930289039325 -28.98913626404868
  endloop
endfacet
facet normal 0.9996710785733481 0.025646317884394754 -3.229507111978242e-05
  outer loop
    vertex -116.83296901151142 -43.52162966213346 -28.98973744889156
    vertex -116.96289557495082 -38.611905171600036 -26.691845007248364
    vertex -116.8328885818619 -43.521770313527604 -26.69215016132019
  endloop
endfacet
facet normal 0.9996710785733481 0.025646317884394754 -3.229507111978242e-05
  outer loop
    vertex -116.96289557495082 -38.611905171600036 -26.691845007248364
    vertex -116.83296901151142 -43.52162966213346 -28.98973744889156
    vertex -116.96297600460042 -38.611764520205895 -28.989432294819746
  endloop
endfacet
facet normal 0.9996710785733481 0.025646317884394754 -3.229507111978242e-05
  outer loop
    vertex -116.96289557495082 -38.611905171600036 -26.691845007248364
    vertex -116.96297600460042 -38.611764520205895 -28.989432294819746
    vertex -116.96290255982048 -38.61189292630805 -26.89184500675152
  endloop
endfacet
facet normal 0.9970226683746587 0.0771090001948819 -2.891403358289244e-05
  outer loop
    vertex -116.44215344138973 -48.417642398555635 -28.990050863399247
    vertex -116.8328885818619 -43.521770313527604 -26.69215016132019
    vertex -116.44207301174025 -48.417783049949776 -26.69246357582787
  endloop
endfacet
facet normal 0.9970226683746587 0.0771090001948819 -2.891403358289244e-05
  outer loop
    vertex -116.8328885818619 -43.521770313527604 -26.69215016132019
    vertex -116.44215344138973 -48.417642398555635 -28.990050863399247
    vertex -116.83296901151142 -43.52162966213346 -28.98973744889156
  endloop
endfacet
facet normal 0.9917233232132342 0.1283933391846004 -2.545441184515641e-05
  outer loop
    vertex -115.79163437879562 -53.28595858278016 -28.99037165212029
    vertex -116.44207301174025 -48.417783049949776 -26.69246357582787
    vertex -115.79155394914608 -53.28609923417433 -26.692784364548917
  endloop
endfacet
facet normal 0.9917233232132342 0.1283933391846004 -2.545441184515641e-05
  outer loop
    vertex -116.44207301174025 -48.417783049949776 -26.69246357582787
    vertex -115.79163437879562 -53.28595858278016 -28.99037165212029
    vertex -116.44215344138973 -48.417642398555635 -28.990050863399247
  endloop
endfacet
facet normal 0.9837798950393045 0.17937981390276297 -2.192408207669799e-05
  outer loop
    vertex -114.8832512554899 -58.112812383910196 -28.990698907980686
    vertex -115.79155394914608 -53.28609923417433 -26.692784364548917
    vertex -114.88317082584035 -58.11295303530436 -26.69311162040931
  endloop
endfacet
facet normal 0.9837798950393045 0.17937981390276297 -2.192408207669799e-05
  outer loop
    vertex -115.79155394914608 -53.28609923417433 -26.692784364548917
    vertex -114.8832512554899 -58.112812383910196 -28.990698907980686
    vertex -115.79163437879562 -53.28595858278016 -28.99037165212029
  endloop
endfacet
facet normal 0.9732028575271142 0.22994825018910428 -1.833108515762335e-05
  outer loop
    vertex -113.71957264918852 -62.884555211616714 -28.991031705619637
    vertex -114.88317082584035 -58.11295303530436 -26.69311162040931
    vertex -113.71949221953899 -62.88469586301088 -26.693444418048262
  endloop
endfacet
facet normal 0.9732028575271142 0.22994825018910428 -1.833108515762335e-05
  outer loop
    vertex -114.88317082584035 -58.11295303530436 -26.69311162040931
    vertex -113.71957264918852 -62.884555211616714 -28.991031705619637
    vertex -114.8832512554899 -58.112812383910196 -28.990698907980686
  endloop
endfacet
facet normal 0.9600065328190657 0.2799776004060087 -1.4683648511082063e-05
  outer loop
    vertex -112.30388902055735 -67.58769430939749 -28.991369104006235
    vertex -113.71949221953899 -62.88469586301088 -26.693444418048262
    vertex -112.30380859090779 -67.58783496079165 -26.693781816434853
  endloop
endfacet
facet normal 0.9600065328190657 0.2799776004060087 -1.4683648511082063e-05
  outer loop
    vertex -113.71949221953899 -62.88469586301088 -26.693444418048262
    vertex -112.30388902055735 -67.58769430939749 -28.991369104006235
    vertex -113.71957264918852 -62.884555211616714 -28.991031705619637
  endloop
endfacet
facet normal 0.9599419676628222 -0.28019888678170884 -5.065491263373633e-05
  outer loop
    vertex -113.71382716286176 -14.339742236242648 -28.98805967922121
    vertex -112.29695685585497 -9.637066774692105 -26.890233935826664
    vertex -113.71375371808189 -14.33987064234482 -26.890472391153
  endloop
endfacet
facet normal 0.9599419676628222 -0.28019888678170884 -5.065491263373633e-05
  outer loop
    vertex -112.29695685585497 -9.637066774692105 -26.890233935826664
    vertex -113.71382716286176 -14.339742236242648 -28.98805967922121
    vertex -112.29703030063477 -9.636938368589943 -28.987821223894876
  endloop
endfacet
facet normal 0.9731499125737086 -0.2301722080590875 -4.790602677569829e-05
  outer loop
    vertex -114.87863524890835 -19.11120948256582 -28.988311139106948
    vertex -113.71375371808189 -14.33987064234482 -26.890472391153
    vertex -114.87856180412855 -19.111337888667972 -26.89072385103874
  endloop
endfacet
facet normal 0.9731499125737086 -0.2301722080590875 -4.790602677569829e-05
  outer loop
    vertex -113.71375371808189 -14.33987064234482 -26.890472391153
    vertex -114.87863524890835 -19.11120948256582 -28.988311139106948
    vertex -113.71382716286176 -14.339742236242648 -28.98805967922121
  endloop
endfacet
facet normal 0.9837386430573032 -0.17960590226319664 -4.5033311041901884e-05
  outer loop
    vertex -115.78816090435032 -23.93784813030126 -28.988574892514833
    vertex -114.87856180412855 -19.111337888667972 -26.89072385103874
    vertex -115.78808745957046 -23.93797653640342 -26.890987604446618
  endloop
endfacet
facet normal 0.9837386430573032 -0.17960590226319664 -4.5033311041901884e-05
  outer loop
    vertex -114.87856180412855 -19.111337888667972 -26.89072385103874
    vertex -115.78816090435032 -23.93784813030126 -28.988574892514833
    vertex -114.87863524890835 -19.11120948256582 -28.988311139106948
  endloop
endfacet
facet normal 0.9916938192294986 -0.12862102135464132 -4.204401793757179e-05
  outer loop
    vertex -116.43983232080548 -28.80601019749573 -28.988850193645966
    vertex -115.78808745957046 -23.93797653640342 -26.890987604446618
    vertex -116.43975887602559 -28.806138603597883 -26.89126290557775
  endloop
endfacet
facet normal 0.9916938192294986 -0.12862102135464132 -4.204401793757179e-05
  outer loop
    vertex -115.78808745957046 -23.93797653640342 -26.890987604446618
    vertex -116.43983232080548 -28.80601019749573 -28.988850193645966
    vertex -115.78816090435032 -23.93784813030126 -28.988574892514833
  endloop
endfacet
facet normal 0.9970049508419483 -0.0773377429195731 -3.894547527410084e-05
  outer loop
    vertex -116.83180680807457 -33.701930289039325 -28.98913626404868
    vertex -116.43975887602559 -28.806138603597883 -26.89126290557775
    vertex -116.83173336329475 -33.702058695141474 -26.89154897598047
  endloop
endfacet
facet normal 0.9970049508419483 -0.0773377429195731 -3.894547527410084e-05
  outer loop
    vertex -116.43975887602559 -28.806138603597883 -26.89126290557775
    vertex -116.83180680807457 -33.701930289039325 -28.98913626404868
    vertex -116.43983232080548 -28.80601019749573 -28.988850193645966
  endloop
endfacet
facet normal 0.9999999927789172 -0.00011858808202451364 -1.9468764226265276e-05
  outer loop
    vertex -112.29703030063477 -9.636938368589943 -28.987821223894876
    vertex -112.29581373586787 0.021392548775820773 -26.889642622474778
    vertex -112.29695685585497 -9.637066774692105 -26.890233935826664
  endloop
endfacet
facet normal 0.9999999927789172 -0.00011858808202451364 -1.9468764226265276e-05
  outer loop
    vertex -112.29581373586787 0.021392548775820773 -26.889642622474778
    vertex -112.29703030063477 -9.636938368589943 -28.987821223894876
    vertex -112.29580818851157 0.02894625877526806 -28.987229458676673
  endloop
endfacet
facet normal 0.9999999937143755 -0.00011075231855936885 -1.746919454920669e-05
  outer loop
    vertex -112.19138575646015 -77.23874131077542 -28.99196222506786
    vertex -112.19024119895964 -67.58784794259897 -26.693784076010918
    vertex -112.19138431894673 -77.24630726606688 -26.694375389362815
  endloop
endfacet
facet normal 0.9999999937143755 -0.00011075231855936885 -1.746919454920669e-05
  outer loop
    vertex -112.19024119895964 -67.58784794259897 -26.693784076010918
    vertex -112.19138575646015 -77.23874131077542 -28.99196222506786
    vertex -112.19032162860921 -67.5877072912048 -28.9913713635823
  endloop
endfacet
facet normal 0.00011798190910300222 0.9999999909954712 6.394784186695377e-05
  outer loop
    vertex -112.30388902055735 -67.58769430939749 -28.991369104006235
    vertex -112.19024119895964 -67.58784794259897 -26.693784076010918
    vertex -112.19032162860921 -67.5877072912048 -28.9913713635823
  endloop
endfacet
facet normal 0.00011798190910300222 0.9999999909954712 6.394784186695377e-05
  outer loop
    vertex -112.19024119895964 -67.58784794259897 -26.693784076010918
    vertex -112.30388902055735 -67.58769430939749 -28.991369104006235
    vertex -112.30380859090779 -67.58783496079165 -26.693781816434853
  endloop
endfacet
facet normal 0.9999999933182976 -0.00011476360033662088 1.3882398970387391e-05
  outer loop
    vertex -117.06289557423987 -38.611893326643994 -26.691846379010176
    vertex -117.06749978456702 -77.24450520624359 -23.90662149597236
    vertex -117.06746791072861 -77.24451849943812 -26.694211558208877
  endloop
endfacet
facet normal 0.9999999933182976 -0.00011476360033662088 1.3882398970387391e-05
  outer loop
    vertex -117.06749978456702 -77.24450520624359 -23.90662149597236
    vertex -117.06289557423987 -38.611893326643994 -26.691846379010176
    vertex -117.05835482467036 0.023169381499785667 -23.90189098915721
  endloop
endfacet
facet normal 0.9999999933182976 -0.00011476360033662088 1.3882398970387391e-05
  outer loop
    vertex -117.05835482467036 0.023169381499785667 -23.90189098915721
    vertex -117.06289557423987 -38.611893326643994 -26.691846379010176
    vertex -117.06290255910953 -38.611881081352 -26.891846378513335
  endloop
endfacet
facet normal 0.9999999933182976 -0.00011476360033662088 1.3882398970387391e-05
  outer loop
    vertex -117.05835482467036 0.023169381499785667 -23.90189098915721
    vertex -117.06290255910953 -38.611881081352 -26.891846378513335
    vertex -117.05832993570154 0.023168333597262867 -26.889481050896883
  endloop
endfacet
facet normal 0.0001222530386659106 0.9999999904824433 6.394769670739573e-05
  outer loop
    vertex -117.06289557423987 -38.611893326643994 -26.691846379010176
    vertex -116.96290255982048 -38.61189292630805 -26.89184500675152
    vertex -117.06290255910953 -38.611881081352 -26.891846378513335
  endloop
endfacet
facet normal 0.0001222530386659106 0.9999999904824433 6.394769670739573e-05
  outer loop
    vertex -116.96290255982048 -38.61189292630805 -26.89184500675152
    vertex -117.06289557423987 -38.611893326643994 -26.691846379010176
    vertex -116.96289557495082 -38.611905171600036 -26.691845007248364
  endloop
endfacet
facet normal 3.4307919559896235e-05 -5.860962858615114e-05 0.9999999976939392
  outer loop
    vertex -117.06746791072861 -77.24451849943812 -26.694211558208877
    vertex -116.8328885818619 -43.521770313527604 -26.69215016132019
    vertex -117.06289557423987 -38.611893326643994 -26.691846379010176
  endloop
endfacet
facet normal 3.4307919559896235e-05 -5.860962858615114e-05 0.9999999976939392
  outer loop
    vertex -116.8328885818619 -43.521770313527604 -26.69215016132019
    vertex -117.06746791072861 -77.24451849943812 -26.694211558208877
    vertex -116.44207301174025 -48.417783049949776 -26.69246357582787
  endloop
endfacet
facet normal 3.4307919559896235e-05 -5.860962858615114e-05 0.9999999976939392
  outer loop
    vertex -116.44207301174025 -48.417783049949776 -26.69246357582787
    vertex -117.06746791072861 -77.24451849943812 -26.694211558208877
    vertex -115.79155394914608 -53.28609923417433 -26.692784364548917
  endloop
endfacet
facet normal 3.4307919559896235e-05 -5.860962858615114e-05 0.9999999976939392
  outer loop
    vertex -115.79155394914608 -53.28609923417433 -26.692784364548917
    vertex -117.06746791072861 -77.24451849943812 -26.694211558208877
    vertex -112.19138431894673 -77.24630726606688 -26.694375389362815
  endloop
endfacet
facet normal 3.4307919559896235e-05 -5.860962858615114e-05 0.9999999976939392
  outer loop
    vertex -117.06289557423987 -38.611893326643994 -26.691846379010176
    vertex -116.8328885818619 -43.521770313527604 -26.69215016132019
    vertex -116.96289557495082 -38.611905171600036 -26.691845007248364
  endloop
endfacet
facet normal 3.4307919559896235e-05 -5.860962858615114e-05 0.9999999976939392
  outer loop
    vertex -115.79155394914608 -53.28609923417433 -26.692784364548917
    vertex -112.19138431894673 -77.24630726606688 -26.694375389362815
    vertex -114.88317082584035 -58.11295303530436 -26.69311162040931
  endloop
endfacet
facet normal 3.4307919559896235e-05 -5.860962858615114e-05 0.9999999976939392
  outer loop
    vertex -114.88317082584035 -58.11295303530436 -26.69311162040931
    vertex -112.19138431894673 -77.24630726606688 -26.694375389362815
    vertex -113.71949221953899 -62.88469586301088 -26.693444418048262
  endloop
endfacet
facet normal 3.4307919559896235e-05 -5.860962858615114e-05 0.9999999976939392
  outer loop
    vertex -113.71949221953899 -62.88469586301088 -26.693444418048262
    vertex -112.19138431894673 -77.24630726606688 -26.694375389362815
    vertex -112.30380859090779 -67.58783496079165 -26.693781816434853
  endloop
endfacet
facet normal 3.4307919559896235e-05 -5.860962858615114e-05 0.9999999976939392
  outer loop
    vertex -112.30380859090779 -67.58783496079165 -26.693781816434853
    vertex -112.19138431894673 -77.24630726606688 -26.694375389362815
    vertex -112.19024119895964 -67.58784794259897 -26.693784076010918
  endloop
endfacet
facet normal -3.0735574797311766e-07 5.88191873461996e-05 -0.9999999982701043
  outer loop
    vertex -156.0545048734692 0.02888563215564055 -28.98715851453583
    vertex -116.83180680807457 -33.701930289039325 -28.98913626404868
    vertex -116.96297600460042 -38.611764520205895 -28.989432294819746
  endloop
endfacet
facet normal -3.0735574797311766e-07 5.88191873461996e-05 -0.9999999982701043
  outer loop
    vertex -116.83180680807457 -33.701930289039325 -28.98913626404868
    vertex -156.0545048734692 0.02888563215564055 -28.98715851453583
    vertex -116.43983232080548 -28.80601019749573 -28.988850193645966
  endloop
endfacet
facet normal -3.0735574797311766e-07 5.88191873461996e-05 -0.9999999982701043
  outer loop
    vertex -116.43983232080548 -28.80601019749573 -28.988850193645966
    vertex -156.0545048734692 0.02888563215564055 -28.98715851453583
    vertex -115.78816090435032 -23.93784813030126 -28.988574892514833
  endloop
endfacet
facet normal -3.0735574797311766e-07 5.88191873461996e-05 -0.9999999982701043
  outer loop
    vertex -115.78816090435032 -23.93784813030126 -28.988574892514833
    vertex -156.0545048734692 0.02888563215564055 -28.98715851453583
    vertex -112.29580818851157 0.02894625877526806 -28.987229458676673
  endloop
endfacet
facet normal -3.0735574797311766e-07 5.88191873461996e-05 -0.9999999982701043
  outer loop
    vertex -115.78816090435032 -23.93784813030126 -28.988574892514833
    vertex -112.29580818851157 0.02894625877526806 -28.987229458676673
    vertex -114.87863524890835 -19.11120948256582 -28.988311139106948
  endloop
endfacet
facet normal -3.0735574797311766e-07 5.88191873461996e-05 -0.9999999982701043
  outer loop
    vertex -114.87863524890835 -19.11120948256582 -28.988311139106948
    vertex -112.29580818851157 0.02894625877526806 -28.987229458676673
    vertex -113.71382716286176 -14.339742236242648 -28.98805967922121
  endloop
endfacet
facet normal -3.0735574797311766e-07 5.88191873461996e-05 -0.9999999982701043
  outer loop
    vertex -113.71382716286176 -14.339742236242648 -28.98805967922121
    vertex -112.29580818851157 0.02894625877526806 -28.987229458676673
    vertex -112.29703030063477 -9.636938368589943 -28.987821223894876
  endloop
endfacet
facet normal -3.0735574797311766e-07 5.88191873461996e-05 -0.9999999982701043
  outer loop
    vertex -156.0545048734692 0.02888563215564055 -28.98715851453583
    vertex -112.19138575646015 -77.23874131077542 -28.99196222506786
    vertex -156.0636498333659 -77.23878895558774 -28.99188902135096
  endloop
endfacet
facet normal -3.0735574797311766e-07 5.88191873461996e-05 -0.9999999982701043
  outer loop
    vertex -112.19138575646015 -77.23874131077542 -28.99196222506786
    vertex -156.0545048734692 0.02888563215564055 -28.98715851453583
    vertex -115.79163437879562 -53.28595858278016 -28.99037165212029
  endloop
endfacet
facet normal -3.0735574797311766e-07 5.88191873461996e-05 -0.9999999982701043
  outer loop
    vertex -115.79163437879562 -53.28595858278016 -28.99037165212029
    vertex -156.0545048734692 0.02888563215564055 -28.98715851453583
    vertex -116.44215344138973 -48.417642398555635 -28.990050863399247
  endloop
endfacet
facet normal -3.0735574797311766e-07 5.88191873461996e-05 -0.9999999982701043
  outer loop
    vertex -116.44215344138973 -48.417642398555635 -28.990050863399247
    vertex -156.0545048734692 0.02888563215564055 -28.98715851453583
    vertex -116.83296901151142 -43.52162966213346 -28.98973744889156
  endloop
endfacet
facet normal -3.0735574797311766e-07 5.88191873461996e-05 -0.9999999982701043
  outer loop
    vertex -116.83296901151142 -43.52162966213346 -28.98973744889156
    vertex -156.0545048734692 0.02888563215564055 -28.98715851453583
    vertex -116.96297600460042 -38.611764520205895 -28.989432294819746
  endloop
endfacet
facet normal -3.0735574797311766e-07 5.88191873461996e-05 -0.9999999982701043
  outer loop
    vertex -112.19138575646015 -77.23874131077542 -28.99196222506786
    vertex -115.79163437879562 -53.28595858278016 -28.99037165212029
    vertex -114.8832512554899 -58.112812383910196 -28.990698907980686
  endloop
endfacet
facet normal -3.0735574797311766e-07 5.88191873461996e-05 -0.9999999982701043
  outer loop
    vertex -112.19138575646015 -77.23874131077542 -28.99196222506786
    vertex -114.8832512554899 -58.112812383910196 -28.990698907980686
    vertex -113.71957264918852 -62.884555211616714 -28.991031705619637
  endloop
endfacet
facet normal -3.0735574797311766e-07 5.88191873461996e-05 -0.9999999982701043
  outer loop
    vertex -112.19138575646015 -77.23874131077542 -28.99196222506786
    vertex -113.71957264918852 -62.884555211616714 -28.991031705619637
    vertex -112.30388902055735 -67.58769430939749 -28.991369104006235
  endloop
endfacet
facet normal -3.0735574797311766e-07 5.88191873461996e-05 -0.9999999982701043
  outer loop
    vertex -112.19138575646015 -77.23874131077542 -28.99196222506786
    vertex -112.30388902055735 -67.58769430939749 -28.991369104006235
    vertex -112.19032162860921 -67.5877072912048 -28.9913713635823
  endloop
endfacet
facet normal 3.450980425325278e-05 -5.861706190774773e-05 0.9999999976865569
  outer loop
    vertex -116.96290255982048 -38.61189292630805 -26.89184500675152
    vertex -117.05832993570154 0.023168333597262867 -26.889481050896883
    vertex -117.06290255910953 -38.611881081352 -26.891846378513335
  endloop
endfacet
facet normal 3.450980425325278e-05 -5.861706190774773e-05 0.9999999976865569
  outer loop
    vertex -117.05832993570154 0.023168333597262867 -26.889481050896883
    vertex -116.96290255982048 -38.61189292630805 -26.89184500675152
    vertex -116.83173336329475 -33.702058695141474 -26.89154897598047
  endloop
endfacet
facet normal 3.450980425325278e-05 -5.861706190774773e-05 0.9999999976865569
  outer loop
    vertex -117.05832993570154 0.023168333597262867 -26.889481050896883
    vertex -116.83173336329475 -33.702058695141474 -26.89154897598047
    vertex -116.43975887602559 -28.806138603597883 -26.89126290557775
  endloop
endfacet
facet normal 3.450980425325278e-05 -5.861706190774773e-05 0.9999999976865569
  outer loop
    vertex -117.05832993570154 0.023168333597262867 -26.889481050896883
    vertex -116.43975887602559 -28.806138603597883 -26.89126290557775
    vertex -115.78808745957046 -23.93797653640342 -26.890987604446618
  endloop
endfacet
facet normal 3.450980425325278e-05 -5.861706190774773e-05 0.9999999976865569
  outer loop
    vertex -117.05832993570154 0.023168333597262867 -26.889481050896883
    vertex -115.78808745957046 -23.93797653640342 -26.890987604446618
    vertex -112.29581373586787 0.021392548775820773 -26.889642622474778
  endloop
endfacet
facet normal 3.450980425325278e-05 -5.861706190774773e-05 0.9999999976865569
  outer loop
    vertex -112.29581373586787 0.021392548775820773 -26.889642622474778
    vertex -115.78808745957046 -23.93797653640342 -26.890987604446618
    vertex -114.87856180412855 -19.111337888667972 -26.89072385103874
  endloop
endfacet
facet normal 3.450980425325278e-05 -5.861706190774773e-05 0.9999999976865569
  outer loop
    vertex -112.29581373586787 0.021392548775820773 -26.889642622474778
    vertex -114.87856180412855 -19.111337888667972 -26.89072385103874
    vertex -113.71375371808189 -14.33987064234482 -26.890472391153
  endloop
endfacet
facet normal 3.450980425325278e-05 -5.861706190774773e-05 0.9999999976865569
  outer loop
    vertex -112.29581373586787 0.021392548775820773 -26.889642622474778
    vertex -113.71375371808189 -14.33987064234482 -26.890472391153
    vertex -112.29695685585497 -9.637066774692105 -26.890233935826664
  endloop
endfacet
endsolid pedro_robot
